<svg width="477.257" height="318.525" xmlns="http://www.w3.org/2000/svg"><path d="M475.527 597.063H118.379v-238.1h357.148z" style="fill:#2056ae;fill-opacity:1;fill-rule:nonzero;stroke:none" transform="matrix(1.33333 0 0 -1.33333 -157.31 796.614)"/><path d="m0 0-3.801 2.55 4.631.003 1.272 4.308 1.412-4.309 4.621-.002L4.344-.001l1.377-4.357-3.549 2.779-3.77-2.779Z" style="fill:#fff;fill-opacity:1;fill-rule:nonzero;stroke:none" transform="matrix(1.33333 0 0 -1.33333 388.088 183.46)"/><path d="m0 0 4.574-14.406 14.115 5.407-8.412-12.557 13.028-7.666-15.063-1.254 2.131-14.962L0-34.445-10.371-45.44l2.131 14.964-15.065 1.252 13.028 7.665L-18.689-9l14.115-5.406z" style="fill:#fff;fill-opacity:1;fill-rule:nonzero;stroke:none" transform="matrix(1.33333 0 0 -1.33333 123.24 203.465)"/><path d="m0 0 2.287-7.204 7.057 2.703-4.205-6.278 6.513-3.833-7.531-.626 1.065-7.482L0-17.224l-5.186-5.496 1.065 7.481-7.531.627 6.513 3.833-4.207 6.278 7.059-2.703z" style="fill:#fff;fill-opacity:1;fill-rule:nonzero;stroke:none" transform="matrix(1.33333 0 0 -1.33333 355.177 244.187)"/><path d="m0 0 2.287-7.204 7.059 2.703-4.207-6.278 6.513-3.832-7.531-.627 1.066-7.482L0-17.223l-5.184-5.497 1.065 7.481-7.533.626 6.513 3.834-4.205 6.278 7.057-2.703z" style="fill:#fff;fill-opacity:1;fill-rule:nonzero;stroke:none" transform="matrix(1.33333 0 0 -1.33333 415.664 93.813)"/><path d="m0 0 2.287-7.204L9.342-4.5l-4.203-6.279 6.513-3.832-7.533-.628 1.067-7.481L0-17.223l-5.186-5.497 1.065 7.481-7.531.627 6.513 3.833-4.207 6.278 7.059-2.703z" style="fill:#fff;fill-opacity:1;fill-rule:nonzero;stroke:none" transform="matrix(1.33333 0 0 -1.33333 302.099 121.205)"/><path d="m0 0 2.287-7.204L9.344-4.5l-4.207-6.28 6.515-3.831-7.531-.628 1.066-7.481L0-17.224l-5.186-5.497 1.065 7.482-7.531.626 6.513 3.833-4.205 6.279 7.057-2.703z" style="fill:#fff;fill-opacity:1;fill-rule:nonzero;stroke:none" transform="matrix(1.33333 0 0 -1.33333 359.61 33.677)"/><path d="M297.004 597.051H118.43V477.999h178.574z" style="fill:#2056ae;fill-opacity:1;fill-rule:nonzero;stroke:none" transform="matrix(1.33333 0 0 -1.33333 -157.31 796.614)"/><path d="M0 0h-20.963l-51.963-34.693V-.036h-29.969v-35.666L-157.539 0h-21.035v-15.884l43.916-28.692h-43.918v-29.97h46.328l-46.326-30.465v-14.041h23.791l51.888 34.125v-34.125h29.969v34.144l52.258-34.144H0v16.125l-43.439 28.381H0v29.97h-41.537L0-17.258Z" style="fill:#fff;fill-opacity:1;fill-rule:nonzero;stroke:none" transform="matrix(1.33333 0 0 -1.33333 238.695 .546)"/><path d="M0 0h-6.879l-68.803-44.506h14.721L0-5.263Z" style="fill:#ed1c24;fill-opacity:1;fill-rule:nonzero;stroke:none" transform="matrix(1.33333 0 0 -1.33333 101.503 99.94)"/><path d="m0 0-66.256 44.384v-9.796L-14.758 0Z" style="fill:#ed1c24;fill-opacity:1;fill-rule:nonzero;stroke:none" transform="matrix(1.33333 0 0 -1.33333 88.935 59.981)"/><path d="m0 0 66.633-44.506h.047v9.73L14.754 0Z" style="fill:#ed1c24;fill-opacity:1;fill-rule:nonzero;stroke:none" transform="matrix(1.33333 0 0 -1.33333 149.789 99.94)"/><path d="M0 0h-12.492l-60.197-39.594v-4.909l6.699-.087z" style="fill:#ed1c24;fill-opacity:1;fill-rule:nonzero;stroke:none" transform="matrix(1.33333 0 0 -1.33333 238.612 .528)"/><path d="M0 0v51.154h-16.891V0h-82.4v-16.794h82.4v-51.067H0v51.067h79.285V0Z" style="fill:#ed1c24;fill-opacity:1;fill-rule:nonzero;stroke:none" transform="matrix(1.33333 0 0 -1.33333 132.982 68.8)"/><path d="M474.154 595.689h-354.4V360.338h354.4z" style="fill:none;stroke:#231f20;stroke-width:3.543;stroke-linecap:butt;stroke-linejoin:miter;stroke-miterlimit:4;stroke-dasharray:none;stroke-opacity:1" transform="matrix(1.33333 0 0 -1.33333 -157.31 796.614)"/></svg>