<svg width="477.26" height="318.528" xmlns="http://www.w3.org/2000/svg"><defs><clipPath clipPathUnits="userSpaceOnUse" id="a"><path d="M120.78 356.891h354.402v235.354H120.78Z"/></clipPath></defs><path d="M120.78 356.891h354.402v235.343H120.78Z" style="fill:#00a650;fill-opacity:1;fill-rule:nonzero;stroke:none" transform="matrix(1.33333 0 0 -1.33333 -158.678 792.022)"/><path d="m0 0-159.948-95.24L-.373-189.794l158.664 95.712z" style="fill:#fff200;fill-opacity:1;fill-rule:nonzero;stroke:none" transform="matrix(1.33333 0 0 -1.33333 241.964 35.256)"/><g clip-path="url(#a)" transform="matrix(1.33333 0 0 -1.33333 -158.678 792.022)"><path d="M0 0c0-31.54-26.773-57.118-59.806-57.118-33.032 0-59.818 25.578-59.818 57.118 0 31.539 26.786 57.131 59.818 57.131C-26.773 57.131 0 31.539 0 0" style="fill:#3871c1;fill-opacity:1;fill-rule:nonzero;stroke:none" transform="translate(360.325 474.214)"/><path d="M0 0a53.007 53.007 0 0 0-2.301-10.439C-22.27 9.057-72.919 26.326-117.646 19.682c.833 3.435 2.003 6.706 3.446 9.854C-79.488 35.557-26.773 25.728 0 0" style="fill:#fff;fill-opacity:1;fill-rule:nonzero;stroke:none" transform="translate(359.939 467.67)"/><path d="m0 0-1.107-2.402-2.787.324 2.09-1.953-1.058-2.476 2.29 1.368 2.015-1.865-.559 2.588 2.301 1.393-2.562.348z" style="fill:#fff;fill-opacity:1;fill-rule:nonzero;stroke:none" transform="translate(322.291 498.96)"/><path d="m0 0-.659-1.991h-2.239l1.828-1.357-.621-2.063L0-4.118l1.755-1.293-.648 1.99L2.8-2.102l-2.066.024Z" style="fill:#fff;fill-opacity:1;fill-rule:nonzero;stroke:none" transform="translate(302.099 452.977)"/><path d="m0 0-.647-1.991h-2.239l1.829-1.368-.634-2.041L0-4.118 1.779-5.4l-.672 1.99L2.8-2.089l-2.053.023Z" style="fill:#fff;fill-opacity:1;fill-rule:nonzero;stroke:none" transform="translate(277.527 447.54)"/><path d="m0 0-.497-1.456h-1.656l1.357-1.031-.46-1.531L0-3.048l1.306-.97-.484 1.467 1.256.995-1.53.026z" style="fill:#fff;fill-opacity:1;fill-rule:nonzero;stroke:none" transform="translate(347.56 457.157)"/><path d="m0 0-.411-1.231h-1.368l1.12-.822-.373-1.269L0-2.539l1.083-.783-.398 1.22 1.044.809-1.269.011Z" style="fill:#fff;fill-opacity:1;fill-rule:nonzero;stroke:none" transform="translate(344.698 451.932)"/><path d="m0 0-.435-1.045-1.207.099.933-.82-.423-1.083.958.623.908-.785-.287 1.095.983.647-1.12.111z" style="fill:#fff;fill-opacity:1;fill-rule:nonzero;stroke:none" transform="translate(353.669 456.398)"/><path d="m0 0-.448-1.057-1.194.098.921-.82-.424-1.083.971.623.895-.784L.46-1.916l.959.634-1.096.124z" style="fill:#fff;fill-opacity:1;fill-rule:nonzero;stroke:none" transform="translate(336.45 444.218)"/><path d="m0 0-.435-1.021-1.194.088.933-.809-.436-1.058.97.61.883-.77L.46-1.866l.959.635L.31-1.12z" style="fill:#fff;fill-opacity:1;fill-rule:nonzero;stroke:none" transform="translate(331.46 442.787)"/><path d="m0 0-.51-1.207-1.393.124 1.081-.944-.497-1.258 1.12.71 1.045-.884-.311 1.256 1.12.747-1.294.137z" style="fill:#fff;fill-opacity:1;fill-rule:nonzero;stroke:none" transform="translate(323.871 443.683)"/><path d="m0 0-.584-1.331-1.569.124 1.22-1.058-.559-1.393 1.256.796L.933-3.87.572-2.438l1.256.82-1.43.15z" style="fill:#fff;fill-opacity:1;fill-rule:nonzero;stroke:none" transform="translate(317.501 444.056)"/><path d="m0 0-.236-1.107-1.194-.137 1.068-.61-.21-1.132.82.771L1.269-2.8l-.46 1.034.82.82-1.107-.111z" style="fill:#fff;fill-opacity:1;fill-rule:nonzero;stroke:none" transform="translate(294.174 462.569)"/><path d="m0 0-.572-1.357-1.556.126 1.195-1.034-.548-1.442 1.245.832L.933-3.883.584-2.464l1.257.846-1.43.137z" style="fill:#fff;fill-opacity:1;fill-rule:nonzero;stroke:none" transform="translate(330.34 432.71)"/><path d="m0 0-.373-1.158h-1.269l1.032-.783-.36-1.169.97.747 1.008-.747-.374 1.145.971.758-1.181.013Z" style="fill:#fff;fill-opacity:1;fill-rule:nonzero;stroke:none" transform="translate(342.148 447.739)"/><path d="m0 0-.51-1.543h-1.742l1.419-1.07-.498-1.604L0-3.198l1.368-1.019-.51 1.542 1.319 1.046-1.605.024z" style="fill:#fff;fill-opacity:1;fill-rule:nonzero;stroke:none" transform="translate(331.063 438.744)"/><path d="m0 0-.597-1.766h-2.004l1.655-1.233-.559-1.841L0-3.684 1.592-4.84.995-3.061 2.5-1.866l-1.853.025Z" style="fill:#fff;fill-opacity:1;fill-rule:nonzero;stroke:none" transform="translate(319.38 438.184)"/><path d="m0 0-.522-1.505h-1.693l1.393-1.057-.471-1.556L0-3.16l1.331-.958-.498 1.505 1.295 1.02-1.58.026z" style="fill:#fff;fill-opacity:1;fill-rule:nonzero;stroke:none" transform="translate(310.895 461.15)"/><path d="m0 0-.497-1.468H-2.14l1.344-.996-.448-1.517L0-3.035l1.293-.946-.484 1.455 1.244.983-1.531.012Z" style="fill:#fff;fill-opacity:1;fill-rule:nonzero;stroke:none" transform="translate(274.516 458.563)"/><path d="m0 0-.373-1.828-1.966-.25 1.767-1.007-.323-1.904L.473-3.658l1.704-.946-.809 1.693 1.357 1.368-1.83-.174z" style="fill:#fff;fill-opacity:1;fill-rule:nonzero;stroke:none" transform="translate(301.788 469.113)"/><path d="m0 0-1.331-1.344-1.792.933.908-1.828-1.343-1.406 1.878.336.884-1.743.286 1.854 1.878.362-1.616.871z" style="fill:#fff;fill-opacity:1;fill-rule:nonzero;stroke:none" transform="translate(291.213 480.211)"/><path d="m0 0-.784-1.021-1.305.424.807-1.169-.771-1.096 1.244.437.783-1.109v1.295l1.27.473-1.219.409z" style="fill:#fff;fill-opacity:1;fill-rule:nonzero;stroke:none" transform="translate(314.95 478.494)"/><path d="m0 0-.411-1.231-1.393-.013 1.145-.845-.386-1.27 1.058.808 1.081-.808-.409 1.244 1.057.846H.447Z" style="fill:#fff;fill-opacity:1;fill-rule:nonzero;stroke:none" transform="translate(255.108 462.569)"/><path d="m0 0-.336-1.008h-1.132l.933-.696-.311-1.046.859.661.895-.661-.336 1.02.858.685H.385Z" style="fill:#fff;fill-opacity:1;fill-rule:nonzero;stroke:none" transform="translate(268.856 469.15)"/><path d="m0 0-.199-1.021-1.12-.199 1.021-.522-.162-1.094.747.783.982-.535-.473.97.747.772L.51-.97Z" style="fill:#fff;fill-opacity:1;fill-rule:nonzero;stroke:none" transform="translate(299.325 459.708)"/><path d="m0 0-.236-.76-.847-.036.71-.486-.224-.796.622.522.684-.484-.285.747.646.533H.287Z" style="fill:#fff;fill-opacity:1;fill-rule:nonzero;stroke:none" transform="translate(299.449 432.573)"/><path d="m0 0-.486-1.443h-1.629l1.331-.982-.447-1.494L0-2.986l1.282-.933-.486 1.432 1.231.956-1.492.039Z" style="fill:#fff;fill-opacity:1;fill-rule:nonzero;stroke:none" transform="translate(268.93 451.185)"/><path d="m0 0-.946-1.257-1.616.536.995-1.419-.946-1.344 1.543.523.957-1.344v1.58l1.543.548-1.481.535z" style="fill:#fff;fill-opacity:1;fill-rule:nonzero;stroke:none" transform="translate(252.022 486.456)"/><path d="m0 0-.46-2.04-2.215-.237 1.966-1.156-.411-2.115L.424-4.093l1.89-1.108-.871 1.928 1.543 1.481-2.053-.173z" style="fill:#fff;fill-opacity:1;fill-rule:nonzero;stroke:none" transform="translate(262.087 467.396)"/><path d="M0 0c0-2.277-1.655-2.363-1.655-2.363h-1.704v4.702h1.704S0 2.414 0 0m-1.492 2.999h-2.539v-6.034h2.539S.833-3.035.833 0c0 2.999-2.325 2.999-2.325 2.999" style="fill:#00a650;fill-opacity:1;fill-rule:nonzero;stroke:none" transform="translate(268.843 494.145)"/><path d="M0 0c0-2.277-1.655-2.363-1.655-2.363h-1.704v4.702h1.704S0 2.414 0 0Zm-1.492 2.999h-2.539v-6.034h2.539S.833-3.035.833 0c0 2.999-2.325 2.999-2.325 2.999z" style="fill:none;stroke:#00a650;stroke-width:.054;stroke-linecap:butt;stroke-linejoin:miter;stroke-miterlimit:10;stroke-dasharray:none;stroke-opacity:1" transform="translate(268.843 494.145)"/><path d="m0 0 4.467-.199-.038-.672-3.795.186-.086-2.027 3.795-.163-.039-.672-3.794.188-.099-1.99 3.806-.188-.037-.683-4.467.223Z" style="fill:#00a650;fill-opacity:1;fill-rule:nonzero;stroke:none" transform="translate(272.538 497.156)"/><path d="m0 0 4.467-.199-.038-.672-3.795.186-.086-2.027 3.795-.163-.039-.672-3.794.188-.099-1.99 3.806-.188-.037-.683-4.467.223Z" style="fill:none;stroke:#00a650;stroke-width:.054;stroke-linecap:butt;stroke-linejoin:miter;stroke-miterlimit:10;stroke-dasharray:none;stroke-opacity:1" transform="translate(272.538 497.156)"/><path d="m0 0 2.836-.46-.049-.398-2.438.372-.212-1.306 2.438-.372-.062-.411-2.438.372-.186-1.281 2.425-.373-.062-.46-2.862.473Z" style="fill:#00a650;fill-opacity:1;fill-rule:nonzero;stroke:none" transform="translate(290.192 493.287)"/><path d="m0 0 2.836-.46-.049-.398-2.438.372-.212-1.306 2.438-.372-.062-.411-2.438.372-.186-1.281 2.425-.373-.062-.46-2.862.473Z" style="fill:none;stroke:#00a650;stroke-width:.054;stroke-linecap:butt;stroke-linejoin:miter;stroke-miterlimit:10;stroke-dasharray:none;stroke-opacity:1" transform="translate(290.192 493.287)"/><path d="m0 0 3.981-2.027-.298-.586L.287-.908l-.921-1.804 3.408-1.717-.298-.584-3.409 1.704-.895-1.768 3.395-1.728-.298-.61-3.981 2.027Z" style="fill:#00a650;fill-opacity:1;fill-rule:nonzero;stroke:none" transform="translate(334.26 481.953)"/><path d="m0 0 3.981-2.027-.298-.586L.287-.908l-.921-1.804 3.408-1.717-.298-.584-3.409 1.704-.895-1.768 3.395-1.728-.298-.61-3.981 2.027Z" style="fill:none;stroke:#00a650;stroke-width:.054;stroke-linecap:butt;stroke-linejoin:miter;stroke-miterlimit:10;stroke-dasharray:none;stroke-opacity:1" transform="translate(334.26 481.953)"/><path d="m0 0 2.438-.995-.809-2.028C.287-3.658-.908-3.16-.908-3.16c-1.779.585-1.916 2.214-1.916 2.214-.273 2.588 1.829 3.397 1.829 3.397.884.361 1.543.261 2.003.087 1.008-.374 1.406-1.046 1.406-1.046.597-.869.347-1.704.347-1.704l-.696.113C2.327 1.419.846 1.903.846 1.903-1.07 2.487-1.841.822-1.841.822c-.312-.598-.312-1.171-.312-1.171a2.074 2.074 0 0 1 1.121-2.065c1.405-.621 2.164-.05 2.164-.05l.448 1.096-1.828.745z" style="fill:#00a650;fill-opacity:1;fill-rule:nonzero;stroke:none" transform="translate(321.843 484.366)"/><path d="m0 0 2.438-.995-.809-2.028C.287-3.658-.908-3.16-.908-3.16c-1.779.585-1.916 2.214-1.916 2.214-.273 2.588 1.829 3.397 1.829 3.397.884.361 1.543.261 2.003.087 1.008-.374 1.406-1.046 1.406-1.046.597-.869.347-1.704.347-1.704l-.696.113C2.327 1.419.846 1.903.846 1.903-1.07 2.487-1.841.822-1.841.822c-.312-.598-.312-1.171-.312-1.171a2.074 2.074 0 0 1 1.121-2.065c1.405-.621 2.164-.05 2.164-.05l.448 1.096-1.828.745z" style="fill:none;stroke:#00a650;stroke-width:.054;stroke-linecap:butt;stroke-linejoin:miter;stroke-miterlimit:10;stroke-dasharray:none;stroke-opacity:1" transform="translate(321.843 484.366)"/><path d="m0 0 1.032-.075L2.425-5.3 4.641-.411l1.07-.099-.535-5.997-.685.049.436 4.953-2.24-4.777-.733.062-1.37 5.1L.15-6.06l-.685.075Z" style="fill:#00a650;fill-opacity:1;fill-rule:nonzero;stroke:none" transform="translate(281.048 496.67)"/><path d="m0 0 1.032-.075L2.425-5.3 4.641-.411l1.07-.099-.535-5.997-.685.049.436 4.953-2.24-4.777-.733.062-1.37 5.1L.15-6.06l-.685.075Z" style="fill:none;stroke:#00a650;stroke-width:.054;stroke-linecap:butt;stroke-linejoin:miter;stroke-miterlimit:10;stroke-dasharray:none;stroke-opacity:1" transform="translate(281.048 496.67)"/><path d="M0 0c-.037-.858-.349-1.357-.672-1.73-.61-.672-1.456-.622-1.456-.622-.982.025-1.556.847-1.556.847-.584.745-.46 1.704-.46 1.704.188 2.115 2.004 2.164 2.004 2.164C-.013 2.352 0 0 0 0m.672.037s.024 1.17-.709 2.028c0 0-.747.946-2.041.946 0 0-1.169.099-2.027-.984 0 0-.709-.796-.747-1.865 0 0-.088-1.121.571-1.99 0 0 .773-1.145 2.141-1.171 0 0 1.318-.124 2.228 1.133 0 0 .646.883.584 1.903" style="fill:#00a650;fill-opacity:1;fill-rule:nonzero;stroke:none" transform="translate(253.59 493.287)"/><path d="M0 0c-.037-.858-.349-1.357-.672-1.73-.61-.672-1.456-.622-1.456-.622-.982.025-1.556.847-1.556.847-.584.745-.46 1.704-.46 1.704.188 2.115 2.004 2.164 2.004 2.164C-.013 2.352 0 0 0 0Zm.672.037s.024 1.17-.709 2.028c0 0-.747.946-2.041.946 0 0-1.169.099-2.027-.984 0 0-.709-.796-.747-1.865 0 0-.088-1.121.571-1.99 0 0 .773-1.145 2.141-1.171 0 0 1.318-.124 2.228 1.133 0 0 .646.883.584 1.903z" style="fill:none;stroke:#00a650;stroke-width:.054;stroke-linecap:butt;stroke-linejoin:miter;stroke-miterlimit:10;stroke-dasharray:none;stroke-opacity:1" transform="translate(253.59 493.287)"/><path d="M0 0c-.349-.796-.822-1.169-1.231-1.393-.796-.448-1.593-.125-1.593-.125-.896.373-1.183 1.332-1.183 1.332-.298.907.15 1.779.15 1.779.884 1.915 2.613 1.331 2.613 1.331C.76 2.215 0 0 0 0m.634-.186s.387 1.081 0 2.151c0 0-.386 1.145-1.617 1.582 0 0-1.057.46-2.228-.251 0 0-.933-.535-1.318-1.53 0 0-.473-1.019-.15-2.04 0 0 .349-1.355 1.644-1.841 0 0 1.194-.56 2.451.311 0 0 .92.659 1.218 1.618" style="fill:#00a650;fill-opacity:1;fill-rule:nonzero;stroke:none" transform="translate(316.494 485.959)"/><path d="M0 0c-.349-.796-.822-1.169-1.231-1.393-.796-.448-1.593-.125-1.593-.125-.896.373-1.183 1.332-1.183 1.332-.298.907.15 1.779.15 1.779.884 1.915 2.613 1.331 2.613 1.331C.76 2.215 0 0 0 0Zm.634-.186s.387 1.081 0 2.151c0 0-.386 1.145-1.617 1.582 0 0-1.057.46-2.228-.251 0 0-.933-.535-1.318-1.53 0 0-.473-1.019-.15-2.04 0 0 .349-1.355 1.644-1.841 0 0 1.194-.56 2.451.311 0 0 .92.659 1.218 1.618z" style="fill:none;stroke:#00a650;stroke-width:.054;stroke-linecap:butt;stroke-linejoin:miter;stroke-miterlimit:10;stroke-dasharray:none;stroke-opacity:1" transform="translate(316.494 485.959)"/><path d="M0 0c-.473-.721-.983-1.008-1.43-1.158-.871-.298-1.593.15-1.593.15-.821.511-.946 1.505-.946 1.505-.136.958.448 1.718.448 1.718 1.207 1.741 2.8.895 2.8.895C1.145 2.065 0 0 0 0m.597-.287S1.182.721.97 1.841c0 0-.174 1.181-1.319 1.804 0 0-.957.659-2.239.163 0 0-1.008-.375-1.567-1.282 0 0-.623-.933-.486-2.004 0 0 .112-1.393 1.294-2.102 0 0 1.082-.747 2.489-.087 0 0 1.008.46 1.455 1.38" style="fill:#00a650;fill-opacity:1;fill-rule:nonzero;stroke:none" transform="translate(354.39 466.326)"/><path d="M0 0c-.473-.721-.983-1.008-1.43-1.158-.871-.298-1.593.15-1.593.15-.821.511-.946 1.505-.946 1.505-.136.958.448 1.718.448 1.718 1.207 1.741 2.8.895 2.8.895C1.145 2.065 0 0 0 0Zm.597-.287S1.182.721.97 1.841c0 0-.174 1.181-1.319 1.804 0 0-.957.659-2.239.163 0 0-1.008-.375-1.567-1.282 0 0-.623-.933-.486-2.004 0 0 .112-1.393 1.294-2.102 0 0 1.082-.747 2.489-.087 0 0 1.008.46 1.455 1.38z" style="fill:none;stroke:#00a650;stroke-width:.054;stroke-linecap:butt;stroke-linejoin:miter;stroke-miterlimit:10;stroke-dasharray:none;stroke-opacity:1" transform="translate(354.39 466.326)"/><path d="M0 0c-.186-1.045-1.306-.796-1.306-.796l-1.866.336.372 2.053 1.867-.324S.186 1.045 0 0m-.92 1.89-2.439.424-1.057-5.897.67-.124.461 2.575 1.78-.311S.411-1.766.696-.124C.995 1.567-.92 1.89-.92 1.89" style="fill:#00a650;fill-opacity:1;fill-rule:nonzero;stroke:none" transform="translate(301.278 491.88)"/><path d="M0 0c-.186-1.045-1.306-.796-1.306-.796l-1.866.336.372 2.053 1.867-.324S.186 1.045 0 0Zm-.92 1.89-2.439.424-1.057-5.897.67-.124.461 2.575 1.78-.311S.411-1.766.696-.124C.995 1.567-.92 1.89-.92 1.89Z" style="fill:none;stroke:#00a650;stroke-width:.054;stroke-linecap:butt;stroke-linejoin:miter;stroke-miterlimit:10;stroke-dasharray:none;stroke-opacity:1" transform="translate(301.278 491.88)"/><path d="M0 0v2.089h1.792s1.282-.098 1.282-1.057C3.074.099 1.792 0 1.792 0Zm2.003-.647s1.754.125 1.792 1.679c0 0 .037.535-.287.959-.473.708-1.642.746-1.642.746H-.659v-6.022H0v2.651h1.207l2.115-2.651h1.057z" style="fill:#00a650;fill-opacity:1;fill-rule:nonzero;stroke:none" transform="translate(257.72 494.32)"/><path d="M0 0v2.089h1.792s1.282-.098 1.282-1.057C3.074.099 1.792 0 1.792 0Zm2.003-.647s1.754.125 1.792 1.679c0 0 .037.535-.287.959-.473.708-1.642.746-1.642.746H-.659v-6.022H0v2.651h1.207l2.115-2.651h1.057z" style="fill:none;stroke:#00a650;stroke-width:.054;stroke-linecap:butt;stroke-linejoin:miter;stroke-miterlimit:10;stroke-dasharray:none;stroke-opacity:1" transform="translate(257.72 494.32)"/><path d="m0 0 .497 2.027 1.729-.409S3.459 1.207 3.234.274c-.223-.897-1.505-.685-1.505-.685Zm1.779-1.107s1.742-.299 2.14 1.231c0 0 .163.473-.025.995-.311.771-1.43 1.096-1.43 1.096l-2.439.608-1.455-5.846.621-.162.635 2.575 1.195-.298 1.417-3.073 1.034-.249Z" style="fill:#00a650;fill-opacity:1;fill-rule:nonzero;stroke:none" transform="translate(305.645 489.666)"/><path d="m0 0 .497 2.027 1.729-.409S3.459 1.207 3.234.274c-.223-.897-1.505-.685-1.505-.685Zm1.779-1.107s1.742-.299 2.14 1.231c0 0 .163.473-.025.995-.311.771-1.43 1.096-1.43 1.096l-2.439.608-1.455-5.846.621-.162.635 2.575 1.195-.298 1.417-3.073 1.034-.249Z" style="fill:none;stroke:#00a650;stroke-width:.054;stroke-linecap:butt;stroke-linejoin:miter;stroke-miterlimit:10;stroke-dasharray:none;stroke-opacity:1" transform="translate(305.645 489.666)"/><path d="m0 0 .833 1.916 1.643-.734S3.62.597 3.234-.274c-.372-.871-1.605-.447-1.605-.447Zm1.567-1.393s1.667-.598 2.327.821c0 0 .25.448.137.97-.174.846-1.219 1.357-1.219 1.357L.51 2.761l-2.439-5.499.598-.248 1.07 2.414 1.119-.485.871-3.286.958-.409z" style="fill:#00a650;fill-opacity:1;fill-rule:nonzero;stroke:none" transform="translate(327.156 482.475)"/><path d="m0 0 .833 1.916 1.643-.734S3.62.597 3.234-.274c-.372-.871-1.605-.447-1.605-.447Zm1.567-1.393s1.667-.598 2.327.821c0 0 .25.448.137.97-.174.846-1.219 1.357-1.219 1.357L.51 2.761l-2.439-5.499.598-.248 1.07 2.414 1.119-.485.871-3.286.958-.409z" style="fill:none;stroke:#00a650;stroke-width:.054;stroke-linecap:butt;stroke-linejoin:miter;stroke-miterlimit:10;stroke-dasharray:none;stroke-opacity:1" transform="translate(327.156 482.475)"/><path d="m0 0 .709-.298c-.386-1.158.971-1.905.971-1.905 1.492-.783 2.003 0 2.003 0 .461.585-.71 1.456-.71 1.456C2.288-.15 1.978.099 1.704.46c-.422.61-.298 1.257-.298 1.257.411 1.468 1.953 1.095 1.953 1.095C4.79 2.464 5.3 1.592 5.3 1.592 5.848.822 5.512 0 5.512 0l-.66.287c.336 1.057-.871 1.616-.871 1.616-1.567.783-1.828-.336-1.828-.336-.212-.572.846-1.443.846-1.443.496-.422.858-.646 1.119-1.019.373-.498.561-1.059.236-1.644-.199-.372-.659-.659-1.169-.708-.623-.038-1.306.162-1.755.411C-.796-1.618 0 0 0 0" style="fill:#00a650;fill-opacity:1;fill-rule:nonzero;stroke:none" transform="translate(337.98 475.408)"/><path d="m0 0 .709-.298c-.386-1.158.971-1.905.971-1.905 1.492-.783 2.003 0 2.003 0 .461.585-.71 1.456-.71 1.456C2.288-.15 1.978.099 1.704.46c-.422.61-.298 1.257-.298 1.257.411 1.468 1.953 1.095 1.953 1.095C4.79 2.464 5.3 1.592 5.3 1.592 5.848.822 5.512 0 5.512 0l-.66.287c.336 1.057-.871 1.616-.871 1.616-1.567.783-1.828-.336-1.828-.336-.212-.572.846-1.443.846-1.443.496-.422.858-.646 1.119-1.019.373-.498.561-1.059.236-1.644-.199-.372-.659-.659-1.169-.708-.623-.038-1.306.162-1.755.411C-.796-1.618 0 0 0 0Z" style="fill:none;stroke:#00a650;stroke-width:.054;stroke-linecap:butt;stroke-linejoin:miter;stroke-miterlimit:10;stroke-dasharray:none;stroke-opacity:1" transform="translate(337.98 475.408)"/><path d="m0 0 .721-.323c-.398-1.145.959-1.892.959-1.892 1.492-.797 2.003-.011 2.003-.011.448.608-.71 1.479-.71 1.479-.685.573-.995.822-1.256 1.194-.448.598-.324 1.27-.324 1.27.424 1.442 1.966 1.07 1.966 1.07C4.79 2.451 5.3 1.58 5.3 1.58c.548-.784.199-1.567.199-1.567l-.647.261c.349 1.044-.871 1.642-.871 1.642-1.567.77-1.841-.36-1.841-.36-.199-.561.859-1.419.859-1.419.496-.448.858-.685 1.119-1.032.373-.511.585-1.046.236-1.667-.199-.349-.647-.66-1.169-.698-.623-.049-1.306.163-1.755.411C-.796-1.605 0 0 0 0" style="fill:#00a650;fill-opacity:1;fill-rule:nonzero;stroke:none" transform="translate(343.765 471.825)"/><path d="m0 0 .721-.323c-.398-1.145.959-1.892.959-1.892 1.492-.797 2.003-.011 2.003-.011.448.608-.71 1.479-.71 1.479-.685.573-.995.822-1.256 1.194-.448.598-.324 1.27-.324 1.27.424 1.442 1.966 1.07 1.966 1.07C4.79 2.451 5.3 1.58 5.3 1.58c.548-.784.199-1.567.199-1.567l-.647.261c.349 1.044-.871 1.642-.871 1.642-1.567.77-1.841-.36-1.841-.36-.199-.561.859-1.419.859-1.419.496-.448.858-.685 1.119-1.032.373-.511.585-1.046.236-1.667-.199-.349-.647-.66-1.169-.698-.623-.049-1.306.163-1.755.411C-.796-1.605 0 0 0 0Z" style="fill:none;stroke:#00a650;stroke-width:.054;stroke-linecap:butt;stroke-linejoin:miter;stroke-miterlimit:10;stroke-dasharray:none;stroke-opacity:1" transform="translate(343.765 471.825)"/><path d="M0 0h-354.455v235.889H0Z" style="fill:none;stroke:#231f20;stroke-width:.025;stroke-linecap:butt;stroke-linejoin:miter;stroke-miterlimit:10;stroke-dasharray:none;stroke-opacity:1" transform="translate(475.21 356.345)"/></g><path d="M475.182 592.245H120.78V356.892h354.402z" style="fill:none;stroke:#231f20;stroke-width:3.543;stroke-linecap:butt;stroke-linejoin:miter;stroke-miterlimit:4;stroke-dasharray:none;stroke-opacity:1" transform="matrix(1.33333 0 0 -1.33333 -158.678 792.022)"/></svg>