<svg width="477.259" height="318.089" xmlns="http://www.w3.org/2000/svg"><defs><clipPath clipPathUnits="userSpaceOnUse" id="a"><path d="M0 0h595.276v841.89H0Z"/></clipPath><clipPath clipPathUnits="userSpaceOnUse" id="b"><path d="M0 0h595.276v841.89H0Z"/></clipPath><clipPath clipPathUnits="userSpaceOnUse" id="c"><path d="M0 0h595.276v841.89H0Z"/></clipPath><clipPath clipPathUnits="userSpaceOnUse" id="d"><path d="M0 0h595.276v841.89H0Z"/></clipPath></defs><path d="M476.95 518.311H119.801v-79.205H476.95Z" style="fill:#fff;fill-opacity:1;fill-rule:nonzero;stroke:none" transform="matrix(1.33333 0 0 -1.33333 -159.205 797.353)"/><path d="M476.95 597.617H119.801v-79.306H476.95Z" style="fill:#ed1c24;fill-opacity:1;fill-rule:nonzero;stroke:none" transform="matrix(1.33333 0 0 -1.33333 -159.205 797.353)"/><path d="M476.95 439.106H119.801v-79.261H476.95Z" style="fill:#231f20;fill-opacity:1;fill-rule:nonzero;stroke:none" transform="matrix(1.33333 0 0 -1.33333 -159.205 797.353)"/><path d="M475.576 596.243H121.175V361.219h354.401z" style="fill:none;stroke:#231f20;stroke-width:3.543;stroke-linecap:butt;stroke-linejoin:miter;stroke-miterlimit:4;stroke-dasharray:none;stroke-opacity:1" transform="matrix(1.33333 0 0 -1.33333 -159.205 797.353)"/><g clip-path="url(#a)" transform="matrix(1.33333 0 0 -1.33333 -159.205 797.353)"><path d="M0 0s-.412-1.279-1.18-1.283l-1.122-34.871 1.515 2.474z" style="fill:#fddd04;fill-opacity:1;fill-rule:nonzero;stroke:none" transform="translate(278.585 496.418)"/><path d="M0 0s-.412-1.279-1.18-1.283l-1.122-34.871 1.515 2.474z" style="fill:none;stroke:#fddd04;stroke-width:2.258;stroke-linecap:round;stroke-linejoin:miter;stroke-miterlimit:4;stroke-dasharray:none;stroke-opacity:1" transform="translate(278.585 496.418)"/></g><path d="m0 0-.655-31.919 1.058 1.946.657 28.397z" style="fill:#fddd04;fill-opacity:1;fill-rule:nonzero;stroke:none" transform="matrix(1.33333 0 0 -1.33333 215.552 140.207)"/><path d="m0 0-.655-31.919 1.058 1.946.657 28.397z" style="fill:none;stroke:#fddd04;stroke-width:2.258;stroke-linecap:round;stroke-linejoin:miter;stroke-miterlimit:4;stroke-dasharray:none;stroke-opacity:1" transform="matrix(1.33333 0 0 -1.33333 215.552 140.207)"/><path d="m0 0 .601-1.544-.338-25.771-.675-1.955Z" style="fill:#fddd04;fill-opacity:1;fill-rule:nonzero;stroke:none" transform="matrix(1.33333 0 0 -1.33333 220.088 139.678)"/><path d="m0 0 .601-1.544-.338-25.771-.675-1.955Z" style="fill:none;stroke:#fddd04;stroke-width:2.258;stroke-linecap:round;stroke-linejoin:miter;stroke-miterlimit:4;stroke-dasharray:none;stroke-opacity:1" transform="matrix(1.33333 0 0 -1.33333 220.088 139.678)"/><path d="m0 0-.552-23.73 1.104 2.574L.874-2.06z" style="fill:#fddd04;fill-opacity:1;fill-rule:nonzero;stroke:none" transform="matrix(1.33333 0 0 -1.33333 224.18 142.644)"/><path d="m0 0-.552-23.73 1.104 2.574L.874-2.06z" style="fill:none;stroke:#fddd04;stroke-width:2.258;stroke-linecap:round;stroke-linejoin:miter;stroke-miterlimit:4;stroke-dasharray:none;stroke-opacity:1" transform="matrix(1.33333 0 0 -1.33333 224.18 142.644)"/><path d="m0 0-1.277-4.785 5.646 2.981z" style="fill:#fddd04;fill-opacity:1;fill-rule:nonzero;stroke:none" transform="matrix(1.33333 0 0 -1.33333 226.185 156.75)"/><path d="m0 0-1.277-4.785 5.646 2.981z" style="fill:none;stroke:#fddd04;stroke-width:2.258;stroke-linecap:round;stroke-linejoin:miter;stroke-miterlimit:4;stroke-dasharray:none;stroke-opacity:1" transform="matrix(1.33333 0 0 -1.33333 226.185 156.75)"/><g clip-path="url(#b)" transform="matrix(1.33333 0 0 -1.33333 -159.205 797.353)"><path d="M0 0s.522-1.36 1.197-1.309l1.14-35.583-1.539 2.525z" style="fill:#fddd04;fill-opacity:1;fill-rule:nonzero;stroke:none" transform="translate(319.005 497.172)"/><path d="M0 0s.522-1.36 1.197-1.309l1.14-35.583-1.539 2.525z" style="fill:none;stroke:#fddd04;stroke-width:2.258;stroke-linecap:round;stroke-linejoin:miter;stroke-miterlimit:4;stroke-dasharray:none;stroke-opacity:1" transform="translate(319.005 497.172)"/></g><path d="m0 0 .656-31.919-1.059 1.946-.657 28.397z" style="fill:#fddd04;fill-opacity:1;fill-rule:nonzero;stroke:none" transform="matrix(1.33333 0 0 -1.33333 262.87 140.205)"/><path d="m0 0 .656-31.919-1.059 1.946-.657 28.397z" style="fill:none;stroke:#fddd04;stroke-width:2.258;stroke-linecap:round;stroke-linejoin:miter;stroke-miterlimit:4;stroke-dasharray:none;stroke-opacity:1" transform="matrix(1.33333 0 0 -1.33333 262.87 140.205)"/><path d="m0 0-.6-1.544.337-25.771.675-1.956z" style="fill:#fddd04;fill-opacity:1;fill-rule:nonzero;stroke:none" transform="matrix(1.33333 0 0 -1.33333 258.334 139.678)"/><path d="m0 0-.6-1.544.337-25.771.675-1.956z" style="fill:none;stroke:#fddd04;stroke-width:2.258;stroke-linecap:round;stroke-linejoin:miter;stroke-miterlimit:4;stroke-dasharray:none;stroke-opacity:1" transform="matrix(1.33333 0 0 -1.33333 258.334 139.678)"/><path d="m0 0 .552-23.73-1.104 2.574L-.874-2.06z" style="fill:#fddd04;fill-opacity:1;fill-rule:nonzero;stroke:none" transform="matrix(1.33333 0 0 -1.33333 254.243 142.644)"/><path d="m0 0 .552-23.73-1.104 2.574L-.874-2.06z" style="fill:none;stroke:#fddd04;stroke-width:2.258;stroke-linecap:round;stroke-linejoin:miter;stroke-miterlimit:4;stroke-dasharray:none;stroke-opacity:1" transform="matrix(1.33333 0 0 -1.33333 254.243 142.644)"/><path d="m0 0 1.278-4.766-5.54 2.913z" style="fill:#fddd04;fill-opacity:1;fill-rule:nonzero;stroke:none" transform="matrix(1.33333 0 0 -1.33333 252.135 156.78)"/><path d="m0 0 1.278-4.766-5.54 2.913z" style="fill:none;stroke:#fddd04;stroke-width:2.258;stroke-linecap:round;stroke-linejoin:miter;stroke-miterlimit:4;stroke-dasharray:none;stroke-opacity:1" transform="matrix(1.33333 0 0 -1.33333 252.135 156.78)"/><g clip-path="url(#c)" transform="matrix(1.33333 0 0 -1.33333 -159.205 797.353)"><path d="m0 0-4.996-17.963-1.181-.178c-.363.355-2.634.974-2.634-.708.456-.885.091-.531.999-1.061.909-.532 6.608-3.185 13.601-1.682.818.443.637 1.239 0 1.77-.635.531-1.565-.088-1.565-.088-.455.265-1.227.443-1.864 0 0 0-.271 1.15 1 1.858L5.903-6.638S2.179-4.071 0 0" style="fill:#fff;fill-opacity:1;fill-rule:nonzero;stroke:none" transform="translate(291.035 477.402)"/><path d="m0 0-4.996-17.963-1.181-.178c-.363.355-2.634.974-2.634-.708.456-.885.091-.531.999-1.061.909-.532 6.608-3.185 13.601-1.682.818.443.637 1.239 0 1.77-.635.531-1.565-.088-1.565-.088-.455.265-1.227.443-1.864 0 0 0-.271 1.15 1 1.858L5.903-6.638S2.179-4.071 0 0z" style="fill:none;stroke:#fddd04;stroke-width:2.258;stroke-linecap:round;stroke-linejoin:miter;stroke-miterlimit:4;stroke-dasharray:none;stroke-opacity:1" transform="translate(291.035 477.402)"/><path d="m0 0 .68-7.491 2.199 3.697m-.696-1.211 1.523-4.54M1.13-1.716l-2.845-4.37-.878 2.373m-1.602-6.299 2.382 2.428.623-2.778L.579-8.191l.673-3.688 2.365 2.614m-7.912-1.132 1.235-4.283 1.673 2.609.821-3.169 1.779 2.241.891-3.734m-8.012.187.585-.805.928.244 1.157 1.587.317-2.235 1.478-.178.787 1.667.521-2.086 1.438-.248m-3.16 17.551L-.375.662M-8.757-17.19c.478.049.94-.097 1.016-.484m.524-.145c.262.129.847.032.954-.243m.622-.071c.195.136.887.071 1.041-.284m2.342-.463c.214.172.534.28.801 0m.769-.183c.338.178 1 .307 1.238-.226m.678-.028c.3.206.809.286 1.086-.117m.631 0c.293.08.705.048.973-.419m-7.512 1.533c.411-.113.534-.373.534-.373" style="fill:none;stroke:#fddd04;stroke-width:2.258;stroke-linecap:round;stroke-linejoin:miter;stroke-miterlimit:4;stroke-dasharray:none;stroke-opacity:1" transform="translate(291.995 476.296)"/><path d="M0 0s-3.55-4.182-4.453-6.438C-7.217-3.589-8.066 2.59-3.55 5.755-2.139 3.911-.894 2.732 0 0" style="fill:#fff;fill-opacity:1;fill-rule:nonzero;stroke:none" transform="translate(285.139 458.644)"/><path d="M0 0s-3.55-4.182-4.453-6.438C-7.217-3.589-8.066 2.59-3.55 5.755-2.139 3.911-.894 2.732 0 0Z" style="fill:none;stroke:#fddd04;stroke-width:2.258;stroke-linecap:round;stroke-linejoin:miter;stroke-miterlimit:4;stroke-dasharray:none;stroke-opacity:1" transform="translate(285.139 458.644)"/><path d="m0 0 4.998-17.964 1.182-.178c.362.355 2.634.974 2.634-.708-.454-.885-.09-.531-.999-1.061-.909-.532-6.679-3.186-13.675-1.682-.819.443-.637 1.239 0 1.77.635.531 1.635-.088 1.635-.088.454.265 1.226.443 1.863 0 0 0 .272 1.15-.999 1.858L-5.906-6.638S-2.181-4.071 0 0" style="fill:#fff;fill-opacity:1;fill-rule:nonzero;stroke:none" transform="translate(306.677 477.404)"/><path d="m0 0 4.998-17.964 1.182-.178c.362.355 2.634.974 2.634-.708-.454-.885-.09-.531-.999-1.061-.909-.532-6.679-3.186-13.675-1.682-.819.443-.637 1.239 0 1.77.635.531 1.635-.088 1.635-.088.454.265 1.226.443 1.863 0 0 0 .272 1.15-.999 1.858L-5.906-6.638S-2.181-4.071 0 0z" style="fill:none;stroke:#fddd04;stroke-width:2.258;stroke-linecap:round;stroke-linejoin:miter;stroke-miterlimit:4;stroke-dasharray:none;stroke-opacity:1" transform="translate(306.677 477.404)"/><path d="M0 0c8.255.247 14.548.741 16.561 1.893 0 0 .906-.823 1.006-1.316 1.167.221 1.814-.989 2.115-1.318.301-.328 1.366-.164 1.366-.164s-.963 0-1.164-.411c-.202-.413-.314-1.389-1.511-1.894 0-.494.101-.987.101-1.316-.805-.33-13.25-2.073-19.19-1.908-5.941.164-16.855 1.395-17.758 1.908 0 .329.1.822.1 1.316-.705.247-1.356 1.388-1.51 1.894-.131.43-1.165.411-1.165.411s1.153-.208 1.367.164c.352.613 1.083 1.567 2.114 1.318.101.493 1.006 1.316 1.006 1.316C-14.548.741-8.256-.246 0 0" style="fill:#fff;fill-opacity:1;fill-rule:nonzero;stroke:none" transform="translate(299.076 454.286)"/><path d="M0 0c8.255.247 14.548.741 16.561 1.893 0 0 .906-.823 1.006-1.316 1.167.221 1.814-.989 2.115-1.318.301-.328 1.366-.164 1.366-.164s-.963 0-1.164-.411c-.202-.413-.314-1.389-1.511-1.894 0-.494.101-.987.101-1.316-.805-.33-13.25-2.073-19.19-1.908-5.941.164-16.855 1.395-17.758 1.908 0 .329.1.822.1 1.316-.705.247-1.356 1.388-1.51 1.894-.131.43-1.165.411-1.165.411s1.153-.208 1.367.164c.352.613 1.083 1.567 2.114 1.318.101.493 1.006 1.316 1.006 1.316C-14.548.741-8.256-.246 0 0Z" style="fill:none;stroke:#fddd04;stroke-width:2.258;stroke-linecap:round;stroke-linejoin:miter;stroke-miterlimit:4;stroke-dasharray:none;stroke-opacity:1" transform="translate(299.076 454.286)"/><path d="m0 0-.128-.382m-.17-.425-.133-.477M.89-.191S.613-1.943.304-2.001c-.145-.048-.833.42-.958-.571.287-.286.861-.238.861-.238s.527-.334 1.197-.334c.431-.142 1.067-.505 1.593-.363 0 .19.034 1.03.131 1.173.002.177.399.276.399.276m-1.692.342c-.312-.062-.287-.38-.287-.524 0-.142-.144-.904-.144-.904m-1.09.691L.207-2.81m-.604-1.043.179.29m.925-.616.097.237m1.017-.537.253.336m1.437-.698s.894.395.957.911c0 .285.119.62-.192 1.264m.192-1.264s.719-.213 1.149-.07c.431.142.527.476.527.476h.382c0-.191-.002-.527.115-.642.116-.115.441.109.652-.168.209-.277 0-.714.238-.761.24-.047.48-.19.622.428.145.619.292 3.317.292 3.317M6.144-3.524s-.394.66-.729.709c.239 0 .983.523 1.126.856.144-.189.433-1.027.911-1.17-.478-.095-.83-.205-.926-.395zm3.351 2.095s-.172-2.237-.172-2.951m1.225.856s.383-.667.335-.999c-.048-.334-.401-1.174-1.295-1.026m1.295 1.026s.765 0 1.054-.096c.135-.206.566-.288.879-.181.287 0 1.035.039 1.035.039.095-.381.096-.642.335-.715.238-.073.751-.123.67.904h.814m-3.733-.047-.048.953-.049.619m.049-.619c.19-.049 2.965-.071 2.965-.071l.002-.835m1.58.762c0 .047-.836.468-.814-.381-.097-.857.878-.576 1.021-.387.144.191-.207.768-.207.768l.339.797m.828 1.35-.215-.544m.314-.312-.033-.626m.442-1.474h-.239s-.048.191.049.476c.095.285.669.523.669.523m-.126 2.286s.265-.783.265-1.07l.005-1.93m-.32-.062s1.134.015 1.373.015c.383-.065.4.33.4.33s-.514.741-.305 1.098M18.68-5.137l-.299-.412m.911.363-.1-.511m1.855 2.898.08-.63s.467-.506.434-1c-.034-.494-.865-.856-.865-.856m1.709.213s.601.142.733.453c.178.421-.049 1.761-.049 1.761s-1.024-.699-.833-1.127c.671-.142 1.265.175 1.6.175.334 0 1.696.237 1.696.237m-1.526-.226s.284.555.164.989c-.087.32.335.476.623.523.288.047 1.197.047 1.341-.952.144-.999-.192-1.189-.431-1.189-.24 0-.891.668-1.082 3.144m1.513-1.955.814.095m3.213.857-2.16-.666c-.192.428-.333.601-.624.571-.521-.055-.544-.555-.334-.952.144-.272.824-.239.958.381m1.64-.428-.443-.19M27.015-.049c.209.296.586.452.922.214.334-.239.303-.382.495-1.144.191-.762.028-1.242.544-1.658m-8.587 23.432-.721-7.611-2.347 3.782m.73-1.246-1.687-4.738m2.801 8.056 3.184-4.086.816 2.161m1.744-6.499-2.56 2.475-.788-3.028-1.786 2.41-.778-4.048-2.49 2.952m8.51-1.155-1.329-4.367-1.915 2.476-.765-3.047-1.916 2.285-.957-3.808m8.617.191-.555-.837-1.072.265-1.245 1.618-.371-2.124-1.544-.255-.861 1.618-.503-2.118-1.604-.262m3.399 17.898-1.564 1.783m8.889-18.348c-.229.122-.941-.007-.941-.389m-.595-.181c-.248.181-.729.214-.995-.28m-.628-.099c-.348.297-.838.279-1.126-.197m-2.583-.378c-.348.147-.779.081-.961-.215m-.58-.214c-.513.297-1.192.247-1.606-.214m-.518.072c-.26.224-.837.326-1.221-.056m-.79.076s-.816.073-1.101-.591m8.283 1.569-.547-.379" style="fill:none;stroke:#fddd04;stroke-width:2.258;stroke-linecap:round;stroke-linejoin:miter;stroke-miterlimit:4;stroke-dasharray:none;stroke-opacity:1" transform="translate(284.684 455.462)"/><path d="m0 0 .452-5.978s.032-5.665-.355-8.504C.026-8.749-.291-7.679-.291-7.679z" style="fill:#fff;fill-opacity:1;fill-rule:nonzero;stroke:none" transform="translate(308.657 463.894)"/><path d="m0 0 .452-5.978s.032-5.665-.355-8.504C.026-8.749-.291-7.679-.291-7.679z" style="fill:none;stroke:#fddd04;stroke-width:2.258;stroke-linecap:round;stroke-linejoin:miter;stroke-miterlimit:4;stroke-dasharray:none;stroke-opacity:1" transform="translate(308.657 463.894)"/><path d="M0 0s4.023-2.632 4.971-5.872c2.256 2.704 3.818 8.318-.904 12.193C1.807 4.963 0 2.705 0 0" style="fill:#fff;fill-opacity:1;fill-rule:nonzero;stroke:none" transform="translate(312.22 458.278)"/><path d="M0 0s4.023-2.632 4.971-5.872c2.256 2.704 3.818 8.318-.904 12.193C1.807 4.963 0 2.705 0 0Z" style="fill:none;stroke:#fddd04;stroke-width:2.258;stroke-linecap:round;stroke-linejoin:miter;stroke-miterlimit:4;stroke-dasharray:none;stroke-opacity:1" transform="translate(312.22 458.278)"/><path d="M0 0s-.132-.456-.086-.755c-.095.293-.18.793-.089 1.452 0 0 .091.032.175-.697" style="fill:#fff;fill-opacity:1;fill-rule:nonzero;stroke:none" transform="translate(300.162 454.57)"/><path d="M0 0s-.132-.456-.086-.755c-.095.293-.18.793-.089 1.452 0 0 .091.032.175-.697z" style="fill:none;stroke:#fddd04;stroke-width:2.258;stroke-linecap:round;stroke-linejoin:miter;stroke-miterlimit:4;stroke-dasharray:none;stroke-opacity:1" transform="translate(300.162 454.57)"/></g><path d="m0 0 .35.533.567 8.125-.175.333L-.437.6Z" style="fill:#fddd04;fill-opacity:1;fill-rule:nonzero;stroke:none" transform="matrix(1.33333 0 0 -1.33333 235.812 184.555)"/><path d="m0 0 .35.533.567 8.125-.175.333L-.437.6Z" style="fill:none;stroke:#fddd04;stroke-width:2.258;stroke-linecap:round;stroke-linejoin:miter;stroke-miterlimit:4;stroke-dasharray:none;stroke-opacity:1" transform="matrix(1.33333 0 0 -1.33333 235.812 184.555)"/><path d="m0 0-.349.533-.568 8.126.175.333L.437.6Z" style="fill:#fddd04;fill-opacity:1;fill-rule:nonzero;stroke:none" transform="matrix(1.33333 0 0 -1.33333 242.695 184.45)"/><path d="m0 0-.349.533-.568 8.126.175.333L.437.6Z" style="fill:none;stroke:#fddd04;stroke-width:2.258;stroke-linecap:round;stroke-linejoin:miter;stroke-miterlimit:4;stroke-dasharray:none;stroke-opacity:1" transform="matrix(1.33333 0 0 -1.33333 242.695 184.45)"/><path d="m0 0-.132-11.47.164-1.152.163 1.152L.064 0Z" style="fill:#fddd04;fill-opacity:1;fill-rule:nonzero;stroke:none" transform="matrix(1.33333 0 0 -1.33333 239.169 170.776)"/><path d="m0 0 .132-11.471-.164-1.151-.164 1.151L-.063 0Z" style="fill:none;stroke:#fddd04;stroke-width:2.258;stroke-linecap:round;stroke-linejoin:miter;stroke-miterlimit:4;stroke-dasharray:none;stroke-opacity:1" transform="matrix(1.33333 0 0 -1.33333 239.254 170.776)"/><g clip-path="url(#d)" transform="matrix(1.33333 0 0 -1.33333 -159.205 797.353)"><path d="M0 0c.646.255 2.153-.256 2.44-1.534.288-1.278.742-7.177-2.512-10.142 1.016-.081 2.297.511 2.297.511-.349-.547-.359-.853-.359-.853.716.173 1.723.086 2.226 1.279l.861-1.449.935 1.449s.756-.929 1.579-1.193l-.145 1.278c.675-.498 1.867-.937 2.585-.937-.718.681-2.01 2.594-2.01 6.003 0 3.409-.279 5.196-.359 5.418C7.426.14 6.103 2.131 2.942.852c-.681.448-1.906.88-2.368.597C.166 1.199-.358.767 0 0Zm0 0c1.005.341 2.513.512 3.303-1.364" style="fill:none;stroke:#fddd04;stroke-width:2.258;stroke-linecap:round;stroke-linejoin:miter;stroke-miterlimit:4;stroke-dasharray:none;stroke-opacity:1" transform="translate(293.688 507.916)"/><path d="M0 0s.926-.187 1.167-8.884c.022 1.904.125 5.936.293 4.411C1.46-4.473.963 2.784 0 0" style="fill:#fddd04;fill-opacity:1;fill-rule:nonzero;stroke:none" transform="translate(293.54 510.35)"/><path d="M0 0s.926-.187 1.167-8.884c.022 1.904.125 5.936.293 4.411C1.46-4.473.963 2.784 0 0Z" style="fill:none;stroke:#fddd04;stroke-width:2.258;stroke-linecap:round;stroke-linejoin:miter;stroke-miterlimit:4;stroke-dasharray:none;stroke-opacity:1" transform="translate(293.54 510.35)"/><path d="M0 0s1.979-.148 2.205-.214c.665.165 3.135.233 3.811.184C4.479.088 2.819.132 0 0" style="fill:#fddd04;fill-opacity:1;fill-rule:nonzero;stroke:none" transform="translate(295.295 509.054)"/><path d="M0 0s1.979-.148 2.205-.214c.665.165 3.135.233 3.811.184C4.479.088 2.819.132 0 0Z" style="fill:none;stroke:#fddd04;stroke-width:2.258;stroke-linecap:round;stroke-linejoin:miter;stroke-miterlimit:4;stroke-dasharray:none;stroke-opacity:1" transform="translate(295.295 509.054)"/><path d="M0 0c.069 0 .125 1.68.125 3.757C.125 5.83.069 7.515 0 7.515c-.068 0-.125-1.685-.125-3.758C-.125 1.68-.068 0 0 0" style="fill:#fff;fill-opacity:1;fill-rule:nonzero;stroke:none" transform="translate(297.634 504.642)"/><path d="M0 0c.069 0 .125 1.68.125 3.757C.125 5.83.069 7.515 0 7.515c-.068 0-.125-1.685-.125-3.758C-.125 1.68-.068 0 0 0Z" style="fill:none;stroke:#fddd04;stroke-width:2.212;stroke-linecap:round;stroke-linejoin:miter;stroke-miterlimit:4;stroke-dasharray:none;stroke-opacity:1" transform="translate(297.634 504.642)"/><path d="M0 0s1.323 1.847 1.4 3.989m1.131.033s-.154-2.45-.537-3.664m1.634 3.615S3.681.786 3.911.358m.69 3.826S4.678.929 5.443.429" style="fill:none;stroke:#fddd04;stroke-width:2.258;stroke-linecap:round;stroke-linejoin:miter;stroke-miterlimit:4;stroke-dasharray:none;stroke-opacity:1" transform="translate(295.735 496.103)"/><path d="M0 0s4.985-3.312 9.555-2.07C9.416-4.967 8.724-14.903 0-20.698-8.724-14.903-9.417-4.967-9.556-2.07-4.985-3.312 0 0 0 0" style="fill:#fff;fill-opacity:1;fill-rule:nonzero;stroke:none" transform="translate(298.863 492.1)"/><path d="M0 0s4.985-3.312 9.555-2.07C9.416-4.967 8.724-14.903 0-20.698-8.724-14.903-9.417-4.967-9.556-2.07-4.985-3.312 0 0 0 0Z" style="fill:none;stroke:#fddd04;stroke-width:2.258;stroke-linecap:round;stroke-linejoin:miter;stroke-miterlimit:4;stroke-dasharray:none;stroke-opacity:1" transform="translate(298.863 492.1)"/><path d="M0 0s-.938-.79-2.236-1.435v-13.649A16.508 16.508 0 0 1 0-17.601c.796.731 1.488 1.51 2.092 2.319v13.921C.869-.732 0 0 0 0Z" style="fill:none;stroke:#fddd04;stroke-width:2.258;stroke-linecap:round;stroke-linejoin:miter;stroke-miterlimit:4;stroke-dasharray:none;stroke-opacity:1" transform="translate(298.885 490.613)"/><path d="M0 0c.079-1.826.393-6.834 3.774-11.011V.601C2.661.107 1.27-.288 0 0" style="fill:#fddd04;fill-opacity:1;fill-rule:nonzero;stroke:none" transform="translate(291.122 488.19)"/><path d="M0 0c.079-1.826.393-6.834 3.774-11.011V.601C2.661.107 1.27-.288 0 0Z" style="fill:none;stroke:#fddd04;stroke-width:2.258;stroke-linecap:round;stroke-linejoin:miter;stroke-miterlimit:4;stroke-dasharray:none;stroke-opacity:1" transform="translate(291.122 488.19)"/><path d="M0 0v-11.973C3.569-7.717 3.895-2.542 3.976-.671 2.633-.974 1.152-.528 0 0" style="fill:#fddd04;fill-opacity:1;fill-rule:nonzero;stroke:none" transform="translate(302.728 488.857)"/><path d="M0 0v-11.973C3.569-7.717 3.895-2.542 3.976-.671 2.633-.974 1.152-.528 0 0Z" style="fill:none;stroke:#fddd04;stroke-width:2.258;stroke-linecap:round;stroke-linejoin:miter;stroke-miterlimit:4;stroke-dasharray:none;stroke-opacity:1" transform="translate(302.728 488.857)"/><path d="m0 0-.487-5.062s-.046-6.086.35-8.48c.049 5.423.382 6.783.382 6.783z" style="fill:#fff;fill-opacity:1;fill-rule:nonzero;stroke:none" transform="translate(289.092 463.279)"/><path d="m0 0-.487-5.062s-.046-6.086.35-8.48c.049 5.423.382 6.783.382 6.783z" style="fill:none;stroke:#fddd04;stroke-width:2.258;stroke-linecap:round;stroke-linejoin:miter;stroke-miterlimit:4;stroke-dasharray:none;stroke-opacity:1" transform="translate(289.092 463.279)"/><path d="M0 0s.126-.455.082-.753c.093.271.173.79.085 1.448C.167.695.082.861 0 0" style="fill:#fff;fill-opacity:1;fill-rule:nonzero;stroke:none" transform="translate(297.49 454.58)"/><path d="M0 0s.126-.455.082-.753c.093.271.173.79.085 1.448C.167.695.082.861 0 0Z" style="fill:none;stroke:#fddd04;stroke-width:2.258;stroke-linecap:round;stroke-linejoin:miter;stroke-miterlimit:4;stroke-dasharray:none;stroke-opacity:1" transform="translate(297.49 454.58)"/><path d="M0 0c-.194 1.131.593 2.581 1.749 3.225 1.217.677 3.167.79 4.666-.196C7.838 2.093 13.03-.543 15.103.744M41.212 0c.098 1.075-.531 2.708-1.749 3.225-1.317.558-3.334.608-4.793-.271-1.458-.879-6.69-3.487-8.632-2.12m-1.196-44.455.365.122M5.54-41.479l-.646-.149" style="fill:none;stroke:#fddd04;stroke-width:2.258;stroke-linecap:round;stroke-linejoin:miter;stroke-miterlimit:4;stroke-dasharray:none;stroke-opacity:1" transform="translate(278.206 494.49)"/></g></svg>