<svg width="477.26" height="318.525" xmlns="http://www.w3.org/2000/svg"><defs><clipPath clipPathUnits="userSpaceOnUse" id="a"><path d="M0 0h595.276v841.89H0Z"/></clipPath></defs><path d="M119.406 357.032h357.15v79.346h-357.15z" style="fill:#00a650;fill-opacity:1;fill-rule:nonzero;stroke:none" transform="matrix(1.33333 0 0 -1.33333 -158.68 794.038)"/><path d="M119.406 436.378h357.15v79.387h-357.15z" style="fill:#fff;fill-opacity:1;fill-rule:nonzero;stroke:none" transform="matrix(1.33333 0 0 -1.33333 -158.68 794.038)"/><path d="M476.557 595.131h-357.15v-79.366h357.15z" style="fill:#f89c0e;fill-opacity:1;fill-rule:nonzero;stroke:none" transform="matrix(1.33333 0 0 -1.33333 -158.68 794.038)"/><g clip-path="url(#a)" transform="matrix(1.33333 0 0 -1.33333 -158.68 794.038)"><path d="M0 0c17.106 0 30.975 13.867 30.975 30.973 0 17.106-13.869 30.973-30.975 30.973s-30.974-13.867-30.974-30.973C-30.974 13.867-17.106 0 0 0" style="fill:#0e88d3;fill-opacity:1;fill-rule:nonzero;stroke:none" transform="translate(298.36 445.022)"/><path d="M0 0c1.837 0 3.564.717 4.863 2.016a6.828 6.828 0 0 1 2.015 4.863 6.83 6.83 0 0 1-2.015 4.862A6.826 6.826 0 0 1 0 13.757a6.886 6.886 0 0 1-6.878-6.878c0-1.838.715-3.566 2.015-4.863A6.834 6.834 0 0 1 0 0" style="fill:#fff;fill-opacity:1;fill-rule:nonzero;stroke:none" transform="translate(298.586 469.16)"/><path d="M0 0s1.797-8.127 3.37-9.94c.097-1.7.347-7.314 1.507-7.339.957-.019.194 5.391-.552 7.232C5.512-7.199 4.968.424 4.968.424 4.167-.474 3.208-2.803 0 0" style="fill:#fff;fill-opacity:1;fill-rule:nonzero;stroke:none" transform="translate(291.967 503.366)"/><path d="M0 0s3.839-7.385 5.827-8.73c.534-1.616 2.229-6.976 3.356-6.697.929.229-1.207 5.255-2.406 6.841.411 3.059-2.089 10.281-2.089 10.281C4.147.621 3.823-1.879 0 0" style="fill:#fff;fill-opacity:1;fill-rule:nonzero;stroke:none" transform="translate(285.111 500.79)"/><path d="M0 0s5.617-6.139 7.889-6.925c.932-1.421 3.957-6.161 4.972-5.601.838.464-2.526 4.767-4.093 5.988-.396 3.059-4.679 9.389-4.679 9.389C3.844 1.673 4.178-.824 0 0" style="fill:#fff;fill-opacity:1;fill-rule:nonzero;stroke:none" transform="translate(279.157 496.526)"/><path d="M0 0s7.017-4.477 9.412-4.646c1.268-1.134 5.416-4.928 6.253-4.125.69.664-3.674 3.95-5.504 4.724-1.173 2.855-6.949 7.859-6.949 7.859C3.281 2.61 4.25.285 0 0" style="fill:#fff;fill-opacity:1;fill-rule:nonzero;stroke:none" transform="translate(274.507 490.868)"/><path d="M0 0s7.936-2.507 10.293-2.052c1.52-.765 6.509-3.356 7.108-2.364.495.82-4.571 2.863-6.539 3.138-1.871 2.453-8.746 5.793-8.746 5.793C2.493 3.372 4.031 1.376 0 0" style="fill:#fff;fill-opacity:1;fill-rule:nonzero;stroke:none" transform="translate(271.48 484.197)"/><path d="M0 0s8.313-.369 10.474.682c1.665-.347 7.155-1.559 7.477-.445.267.918-5.156 1.582-7.128 1.338C8.38 3.46.876 4.907.876 4.907 1.536 3.901 3.538 2.371 0 0" style="fill:#fff;fill-opacity:1;fill-rule:nonzero;stroke:none" transform="translate(270.284 476.973)"/><path d="M0 0s8.126 1.796 9.941 3.37c1.698.096 7.315.346 7.338 1.506.019.957-5.39.195-7.232-.552-2.848 1.189-10.47.644-10.47.644C.475 4.167 2.804 3.208 0 0" style="fill:#fff;fill-opacity:1;fill-rule:nonzero;stroke:none" transform="translate(270.997 469.683)"/><path d="M0 0s7.387 3.838 8.731 5.827c1.617.532 6.977 2.229 6.699 3.355-.229.928-5.256-1.207-6.843-2.406C5.53 7.187-1.692 4.687-1.692 4.687-.618 4.148 1.881 3.824 0 0" style="fill:#fff;fill-opacity:1;fill-rule:nonzero;stroke:none" transform="translate(273.571 462.827)"/><path d="M0 0s6.141 5.619 6.925 7.889c1.423.932 6.163 3.957 5.603 4.973-.463.838-4.766-2.527-5.989-4.092C3.48 8.374-2.85 4.09-2.85 4.09-1.671 3.846.825 4.18 0 0" style="fill:#fff;fill-opacity:1;fill-rule:nonzero;stroke:none" transform="translate(277.835 456.871)"/><path d="M0 0s4.477 7.018 4.648 9.413c1.132 1.268 4.926 5.416 4.123 6.254-.664.689-3.949-3.675-4.723-5.504-2.854-1.175-7.859-6.949-7.859-6.949C-2.61 3.283-.284 4.251 0 0" style="fill:#fff;fill-opacity:1;fill-rule:nonzero;stroke:none" transform="translate(283.494 452.22)"/><path d="M0 0s2.509 7.934 2.054 10.293c.765 1.518 3.357 6.506 2.365 7.105-.819.497-2.864-4.57-3.14-6.537-2.451-1.872-5.792-8.747-5.792-8.747C-3.371 2.491-1.375 4.029 0 0" style="fill:#fff;fill-opacity:1;fill-rule:nonzero;stroke:none" transform="translate(290.163 449.197)"/><path d="M0 0s.368 8.314-.681 10.476c.348 1.664 1.56 7.153.445 7.476-.919.266-1.583-5.155-1.339-7.129C-3.459 8.382-4.906.877-4.906.877-3.902 1.538-2.37 3.539 0 0" style="fill:#fff;fill-opacity:1;fill-rule:nonzero;stroke:none" transform="translate(297.389 447.997)"/><path d="M0 0s-1.795 8.126-3.368 9.939c-.096 1.7-.346 7.316-1.506 7.34-.956.019-.194-5.389.552-7.233C-5.51 7.201-4.968-.421-4.968-.421-4.165.475-3.206 2.806 0 0" style="fill:#fff;fill-opacity:1;fill-rule:nonzero;stroke:none" transform="translate(304.678 448.71)"/><path d="M0 0s-3.836 7.387-5.824 8.732c-.534 1.614-2.229 6.977-3.355 6.697-.928-.229 1.206-5.255 2.404-6.842-.411-3.058 2.088-10.281 2.088-10.281C-4.147-.619-3.822 1.88 0 0" style="fill:#fff;fill-opacity:1;fill-rule:nonzero;stroke:none" transform="translate(311.533 451.285)"/><path d="M0 0s-5.617 6.141-7.887 6.925c-.933 1.423-3.957 6.162-4.974 5.602-.837-.463 2.526-4.766 4.093-5.988.396-3.06 4.677-9.39 4.677-9.39C-3.846-1.672-4.179.826 0 0" style="fill:#fff;fill-opacity:1;fill-rule:nonzero;stroke:none" transform="translate(317.49 455.549)"/><path d="M0 0s-7.015 4.479-9.41 4.647c-1.27 1.135-5.416 4.929-6.253 4.125-.691-.662 3.673-3.948 5.504-4.722 1.172-2.854 6.946-7.86 6.946-7.86C-3.281-2.609-4.249-.282 0 0" style="fill:#fff;fill-opacity:1;fill-rule:nonzero;stroke:none" transform="translate(322.14 461.205)"/><path d="M0 0s-7.935 2.508-10.293 2.053c-1.518.766-6.507 3.359-7.107 2.365-.495-.817 4.57-2.863 6.538-3.138 1.872-2.452 8.745-5.793 8.745-5.793C-2.494-3.372-4.031-1.375 0 0" style="fill:#fff;fill-opacity:1;fill-rule:nonzero;stroke:none" transform="translate(325.167 467.876)"/><path d="M0 0s-8.315.369-10.476-.68c-1.666.346-7.154 1.559-7.478.445-.266-.918 5.157-1.583 7.129-1.339C-8.383-3.459-.878-4.907-.878-4.907-1.538-3.901-3.539-2.37 0 0" style="fill:#fff;fill-opacity:1;fill-rule:nonzero;stroke:none" transform="translate(326.367 475.1)"/><path d="M0 0s-8.126-1.794-9.94-3.366c-1.699-.097-7.315-.347-7.338-1.506-.02-.957 5.389-.195 7.232.55C-7.199-5.511.423-4.966.423-4.966-.476-4.166-2.804-3.206 0 0" style="fill:#fff;fill-opacity:1;fill-rule:nonzero;stroke:none" transform="translate(325.652 482.389)"/><path d="M0 0s-7.384-3.836-8.73-5.826c-1.615-.532-6.976-2.226-6.698-3.353.23-.927 5.256 1.207 6.842 2.403 3.058-.411 10.28 2.088 10.28 2.088C.62-4.148-1.878-3.824 0 0" style="fill:#fff;fill-opacity:1;fill-rule:nonzero;stroke:none" transform="translate(323.077 489.246)"/><path d="M0 0s-6.141-5.615-6.926-7.885c-1.423-.933-6.163-3.957-5.602-4.974.462-.837 4.765 2.526 5.987 4.093 3.06.395 9.391 4.676 9.391 4.676C1.671-3.845-.825-4.178 0 0" style="fill:#fff;fill-opacity:1;fill-rule:nonzero;stroke:none" transform="translate(318.817 495.201)"/><path d="M0 0s-4.479-7.015-4.65-9.41c-1.133-1.27-4.929-5.416-4.124-6.254.662-.689 3.949 3.673 4.723 5.503C-1.197-8.986 3.81-3.214 3.81-3.214 2.608-3.282.283-4.251 0 0" style="fill:#fff;fill-opacity:1;fill-rule:nonzero;stroke:none" transform="translate(313.161 499.853)"/><path d="M0 0s-2.509-7.936-2.055-10.293c-.765-1.52-3.358-6.508-2.366-7.107.819-.496 2.865 4.569 3.141 6.538 2.451 1.87 5.794 8.744 5.794 8.744C3.371-2.495 1.375-4.032 0 0" style="fill:#fff;fill-opacity:1;fill-rule:nonzero;stroke:none" transform="translate(306.49 502.88)"/><path d="M0 0s-.371-8.313.679-10.475C.332-12.14-.882-17.629.232-17.951c.919-.267 1.584 5.155 1.341 7.126C3.457-8.383 4.906-.878 4.906-.878 3.901-1.538 2.37-3.539 0 0" style="fill:#fff;fill-opacity:1;fill-rule:nonzero;stroke:none" transform="translate(299.267 504.08)"/><path d="M0 0c0 1.534.597 2.979 1.682 4.062a5.707 5.707 0 0 0 4.063 1.684 5.707 5.707 0 0 0 4.063-1.684A5.705 5.705 0 0 0 11.491 0a5.752 5.752 0 0 0-5.746-5.745 5.715 5.715 0 0 0-4.063 1.683A5.714 5.714 0 0 0 0 0" style="fill:#0e88d3;fill-opacity:1;fill-rule:nonzero;stroke:none" transform="translate(292.84 476.037)"/></g><path d="M475.183 593.757H120.781V358.406h354.402z" style="fill:none;stroke:#231f20;stroke-width:3.543;stroke-linecap:butt;stroke-linejoin:miter;stroke-miterlimit:4;stroke-dasharray:none;stroke-opacity:1" transform="matrix(1.33333 0 0 -1.33333 -158.68 794.038)"/></svg>