<svg width="477.26" height="318.823" xmlns="http://www.w3.org/2000/svg"><defs><clipPath clipPathUnits="userSpaceOnUse" id="a"><path d="M118.336 360.533h354.403v235.574H118.336Z"/></clipPath></defs><path d="M118.417 429.273h354.24v96.839h-354.24z" style="fill:#fff;fill-opacity:1;fill-rule:nonzero;stroke:none" transform="matrix(1.33333 0 0 -1.33333 -155.42 797.171)"/><path d="M118.417 443.216h354.24v69.699h-354.24z" style="fill:#ed1c24;fill-opacity:1;fill-rule:nonzero;stroke:none" transform="matrix(1.33333 0 0 -1.33333 -155.42 797.171)"/><path d="M118.417 360.533h354.24v68.74h-354.24z" style="fill:#00a650;fill-opacity:1;fill-rule:nonzero;stroke:none" transform="matrix(1.33333 0 0 -1.33333 -155.42 797.171)"/><path d="M118.417 526.112h354.24v69.68h-354.24z" style="fill:#231f20;fill-opacity:1;fill-rule:nonzero;stroke:none" transform="matrix(1.33333 0 0 -1.33333 -155.42 797.171)"/><g clip-path="url(#a)" transform="matrix(1.33333 0 0 -1.33333 -155.42 797.171)"><path d="m0 0-69.677 119.897c1.255 5.091-4.73 21.958-21.137 34.62 2.964-20.437 13.252-35.364 19.155-35.997L-2.08-1.209Z" style="fill:#fff;fill-opacity:1;fill-rule:nonzero;stroke:none" transform="translate(338.575 406.304)"/><path d="m0 0-69.677 119.897c1.255 5.091-4.73 21.958-21.137 34.62 2.964-20.437 13.252-35.364 19.155-35.997L-2.08-1.209Z" style="fill:none;stroke:#231f20;stroke-width:.65;stroke-linecap:butt;stroke-linejoin:miter;stroke-miterlimit:4;stroke-dasharray:none;stroke-opacity:1" transform="translate(338.575 406.304)"/><path d="m0 0 69.599 119.811c-1.255 5.089 4.73 21.956 21.138 34.617-2.966-20.437-13.255-35.363-19.157-35.996L2.08-1.21Z" style="fill:#fff;fill-opacity:1;fill-rule:nonzero;stroke:none" transform="translate(252.541 406.392)"/><path d="m0 0 69.599 119.811c-1.255 5.089 4.73 21.956 21.138 34.617-2.966-20.437-13.255-35.363-19.157-35.996L2.08-1.21Z" style="fill:none;stroke:#231f20;stroke-width:.65;stroke-linecap:butt;stroke-linejoin:miter;stroke-miterlimit:4;stroke-dasharray:none;stroke-opacity:1" transform="translate(252.541 406.392)"/><path d="M0 0c4.731 0 36.14 29.017 36.14 72.726S4.731 145.452 0 145.452c-4.731 0-36.14-29.017-36.14-72.726S-4.731 0 0 0" style="fill:#ed1c24;fill-opacity:1;fill-rule:nonzero;stroke:none" transform="translate(295.82 404.699)"/><path d="M0 0c4.731 0 36.14 29.017 36.14 72.726S4.731 145.452 0 145.452c-4.731 0-36.14-29.017-36.14-72.726S-4.731 0 0 0Z" style="fill:none;stroke:#231f20;stroke-width:.65;stroke-linecap:butt;stroke-linejoin:miter;stroke-miterlimit:4;stroke-dasharray:none;stroke-opacity:1" transform="translate(295.82 404.699)"/><path d="M0 0c3.445 0 6.238 4.316 6.238 9.641 0 5.322-2.793 9.639-6.238 9.639-3.445 0-6.237-4.317-6.237-9.639C-6.237 4.316-3.445 0 0 0" style="fill:#fff;fill-opacity:1;fill-rule:nonzero;stroke:none" transform="translate(295.792 468.386)"/><path d="M0 0v-56.32s-6.671 11.738-6.671 27.937C-6.671-11.778 0 0 0 0" style="fill:#fff;fill-opacity:1;fill-rule:nonzero;stroke:none" transform="translate(293.329 546.106)"/><path d="M0 0v56.319s-6.671-11.736-6.671-27.937C-6.671 11.777 0 0 0 0" style="fill:#fff;fill-opacity:1;fill-rule:nonzero;stroke:none" transform="translate(293.329 410.01)"/><path d="M0 0v-56.32s6.671 11.738 6.671 27.937C6.671-11.778 0 0 0 0" style="fill:#fff;fill-opacity:1;fill-rule:nonzero;stroke:none" transform="translate(297.458 546.106)"/><path d="M0 0v56.319s6.671-11.736 6.671-27.937C6.671 11.777 0 0 0 0" style="fill:#fff;fill-opacity:1;fill-rule:nonzero;stroke:none" transform="translate(297.458 410.01)"/><path d="M0 0c-4.487-10.407-7.641-22.714-7.641-36.5 0-13.784 3.154-26.09 7.641-36.498C4.487-62.59 7.641-50.284 7.641-36.5 7.641-22.714 4.487-10.407 0 0" style="fill:#231f20;fill-opacity:1;fill-rule:nonzero;stroke:none" transform="translate(267.32 513.925)"/><path d="M0 0c4.636 10.545 7.924 23.071 7.924 37.142 0 14.071-3.288 26.599-7.924 37.142-4.636-10.543-7.925-23.071-7.925-37.142C-7.925 23.071-4.636 10.545 0 0" style="fill:#231f20;fill-opacity:1;fill-rule:nonzero;stroke:none" transform="translate(324.052 440.283)"/><path d="M0 0h-354.24v-236.199H0Z" style="fill:none;stroke:#231f20;stroke-width:.631;stroke-linecap:butt;stroke-linejoin:miter;stroke-miterlimit:4;stroke-dasharray:none;stroke-opacity:1" transform="translate(472.658 595.792)"/></g><path d="M472.738 596.107H118.336V360.533h354.402z" style="fill:none;stroke:#231f20;stroke-width:3.543;stroke-linecap:butt;stroke-linejoin:miter;stroke-miterlimit:4;stroke-dasharray:none;stroke-opacity:1" transform="matrix(1.33333 0 0 -1.33333 -155.42 797.171)"/></svg>