<svg width="477.259" height="318.531" xmlns="http://www.w3.org/2000/svg"><path d="M478.364 595.602h-357.15V357.499h357.15z" style="fill:#2056ae;fill-opacity:1;fill-rule:nonzero;stroke:none" transform="matrix(1.33333 0 0 -1.33333 -161.09 794.666)"/><path d="M0 0h-41.926L-145.85-69.384V-.071h-59.94v-71.332L-315.081 0h-42.069v-31.769l87.831-57.382h-87.832v-59.94h92.654l-92.653-60.932v-28.08h47.583l103.777 68.249v-68.249h59.94v68.284l104.514-68.284H0v32.249l-86.881 56.763H-.002v59.94h-83.074L0-34.517Z" style="fill:#fff;fill-opacity:1;fill-rule:nonzero;stroke:none" transform="matrix(1.33333 0 0 -1.33333 476.729 .53)"/><path d="M0 0v102.308h-33.784V0h-164.797v-33.591h164.797v-102.133H0v102.133h158.568V0Z" style="fill:#ed1c24;fill-opacity:1;fill-rule:nonzero;stroke:none" transform="matrix(1.33333 0 0 -1.33333 265.302 137.035)"/><path d="M0 0h-13.758l-137.604-89.012h29.439L0-10.526Z" style="fill:#ed1c24;fill-opacity:1;fill-rule:nonzero;stroke:none" transform="matrix(1.33333 0 0 -1.33333 202.343 199.319)"/><path d="m0 0-132.509 88.765V69.176L-29.516 0Z" style="fill:#ed1c24;fill-opacity:1;fill-rule:nonzero;stroke:none" transform="matrix(1.33333 0 0 -1.33333 177.206 119.399)"/><path d="m0 0 133.264-89.012h.092v19.46L29.507 0Z" style="fill:#ed1c24;fill-opacity:1;fill-rule:nonzero;stroke:none" transform="matrix(1.33333 0 0 -1.33333 298.918 199.319)"/><path d="M0 0h-24.99l-120.395-79.187v-9.818l13.4-.172z" style="fill:#ed1c24;fill-opacity:1;fill-rule:nonzero;stroke:none" transform="matrix(1.33333 0 0 -1.33333 476.567 .497)"/><path d="M476.99 594.228H122.589V358.873H476.99Z" style="fill:none;stroke:#231f20;stroke-width:3.543;stroke-linecap:butt;stroke-linejoin:miter;stroke-miterlimit:4;stroke-dasharray:none;stroke-opacity:1" transform="matrix(1.33333 0 0 -1.33333 -161.09 794.666)"/></svg>