<svg version="1.1" id="Layer_1" xmlns="http://www.w3.org/2000/svg" x="0" y="0" viewBox="0 0 54.8 71.3" style="enable-background:new 0 0 54.8 71.3" xml:space="preserve"><style>.st1,.st2,.st3,.st4,.st5{fill-rule:evenodd;clip-rule:evenodd;fill:#231f20}.st2,.st3,.st4,.st5{fill:#64964b}.st3,.st4,.st5{fill:#845339}.st4,.st5{fill:#fffac2}.st5{fill:#fdd1b0}.st10,.st13,.st14,.st6,.st7,.st8,.st9{fill-rule:evenodd;clip-rule:evenodd;fill:#faa61a}.st10,.st13,.st14,.st7,.st8,.st9{fill:#fff}.st10,.st13,.st14,.st8,.st9{fill:#afbde1}.st10,.st13,.st14,.st9{fill:#f8c1d9}.st10,.st13,.st14{fill:#e4b477}.st13,.st14{fill:#ffcb05}.st14{fill:#00c1f3}</style><g id="Layer_2_00000010277813794270234460000016771837791538810545_"><path style="fill:none" d="M1.2.4h52.9v70.4H1.2z"/><g id="Layer_1-2"><path class="st1" d="M2.1 1.2h11.3l5.7.1c3.4.1 6.8.1 10.2.2h3.9l6.6.1 9.8.1c1 .2 3.3-.3 4 .2l-.4 28.8L53 43c.2.5.3 1 .4 1.6-.2 2.6-.6 5.1-1.2 7.6l-.3 6.1c.3.2.6.4.9.7-.4 3.1.1 5.3-.3 8-.1.9.2 3.3-.2 3.7-.5-.3-1.6 0-2.4-.1h-8.3c-9.3 0-18.6-.1-27.9-.1H4.8l-2.5-.1c-.4-.1-1 .1-1.2-.1V68c-.2-1.1-.2-2.3-.1-3.4v-3.8l.1-4.6.3-23.6.2-13.8.2-12.5c.2-1.3-.3-4.4.3-5.1"/><path class="st2" d="M6.1 35h-.3l-.5-.6-.6-1.8c-.1-.9-.2-1.9-.5-2.8-.2 0-.4 0-.5-.1-.2-.9-.2-1.7 0-2.6.3-1.6.7-3.2 1.1-4.8.1-.4.2-.7.3-1 .1-.2-.1-.3 0-.5 1.1-.3 2.1-.8 3.1-1.5.4-.1.8-.1 1-.3-.6-.3-1.1-.7-1.6-1.2-.2-.2-.3-.5-.6-.6-.1.1-.2.2-.4.2-.9.2-1.7-.2-2.1-1-.4-.9-.3-2 .2-2.9.2-.2.5-.4.7-.6-.5-.8-.9-1.6-1.1-2.6L4.2 9C4 8.4 4 7.8 4.1 7.3c.2-.1.2-.6.3-.8l.9-1.6c.6-.8 3-2.9 4-3.1l.5.1c.5-.1.9-.2 1.4-.3l-.1-.1H2.2v2l-.1 6-.3 27.2 4.2-.4.1-1.3m39.6-1.1L46.2 2l-32.6-.4h.1c.8.6 2.4.5 3.2 1C18.9 3.9 20 6 20 8.2c-.1 1.2-.3 2.4-.6 3.5 1.1.3 1.7 1.4 1.5 2.6-.2.7-.7 1.3-1.4 1.6l-.6.2c-.1.3-.3.6-.5.8-.5.8-1.1 1.4-1.9 2-.3.2-.6.4-1 .6.3.3.6.6 1 .8l1.2 1.3.2.4.2.1c.4.6.7 1.3 1 2 .7 1.2 1.2 2.6 1.4 4l-.6.7c.2.5.5 1 .8 1.5 1.6 1.1 3.3 1.9 5 2.6.1-.6 0-1.3-.1-1.9-.5 0-1.2-.2-1.4-.5.2-.8.4-1.5.5-2.3.4-1.5 1-2.9 1.7-4.3.1-.2.1-.5.2-.6.5-.3 1.1-.6 1.6-.9l-.9-.3-1.3-1c-.8-.6-1.6-1.3-2.2-2v-.2c.3-.2.6-.1 1-.3.7-.3 1.2-.8 1.6-1.4-.5-1.6-1.1-3.2-1.5-4.9 0-.4-.1-.8-.1-1.2-.1-.4-.1-.9-.1-1.3.8-2.4 2.6-4.2 4.9-5.1 1-.5 2.1-.7 3.2-.5.6.1 1.1.5 1.6.6l1-.1c.8-.1 1.7.1 2.4.5 1.6 1 3.3 4.8 3.7 7.1 0 .3-.1.5-.2.8-.2.8-.3 1.5-.5 2.2-.1.4-.3.7-.6 1.1l-.1.6c-.2.5-.7 1.3-.4 1.8.5.6 1.3 1 2 1.2l.1.2c-.7 1-1.8 1.8-3 2.3l.1.1c.6.3 1.1.7 1.5 1.3.1.1.2.4.3.5 1 .2 3.1-.3 3.2.7-.3.7-.7 1.2-1 1.8l-.6 1.6-.3.7.4 1.3.2.1c0 .3.2.5.2.8 0 .3-.2.3-.2.5l.6 2.2 2.5-.2"/><path class="st3" d="M6.8 9.6c-.2 0-.4.1-.5-.1-.1-.1-.1-.1-.1-.2v-.1c1.4 0 2.8-.4 4.1-1 .3-.1 1.3-1.2 1.4-1.2.1 0 .2.2.2.3-.2.3-.5.5-.8.8h.1c1.2-.4 2.3-1 3.1-2 .2-.3.3-.8.6-1 .4.1.7.8 1 1.1 1 .9 1.8 2 2.4 3.2l.7 1.5h.1c.1-.4.2-.8.2-1.2.1-.6.1-1.3.2-1.7 0-.6-.1-1.1-.3-1.7-.5-1.8-2-3.3-3.8-3.7l-.1.1c.1.1.2.2.2.3l-.1.1c-.8-.2-1.3-.8-2.2-1-1-.2-2-.1-3 .2-.3-.1-.5 0-.7.1l-.3-.1-1 .6c-1.1.8-2.1 1.7-2.9 2.8-1.1 1.7-.9 3.5-.1 5.5.2.5.4 1.5 1 1.6-.1-1.2.6-1.9.6-3.2"/><path class="st4" d="m46.6 2-.3 20.5c0 2.5-.1 4.9-.1 7.4v4c.5-.1 1-.1 1.5-.1.4 1 .3 2.1-.2 3-1 0-2.1.2-3.3.3-.7.1-1.5 0-2.1.1-1 0-2 .1-2.9.2v.9l.1.1c.6-.2 1.1-.6 1.8-.8 1-.3 2-.3 3-.1l.4.2h1.4c1.1.2 2.3 0 3.2.4 1.3.9 2.4 2 3.2 3.4l.4.7.3-28.3c0-.9 0-1.7.1-2.6V6.1l.1-4c-2.3 0-4.4-.1-6.6-.1"/><path class="st3" d="m31.4 4.4-.8.1-1.3.6c-1.4.6-3.9 3.1-4.2 4.8 0 .2.1.2.1.4l-.1.9c.1.7.2 1.3.3 2l1.4 4.2c-.3.6-.9 1.1-1.5 1.4l-.9.4c.5.9 3.4 2.8 4.7 2.6.1-.4.2-.7.5-1 0-.1 0-.1-.1-.2-.4-.2-.7-.5-1-.9-.5-.5-.8-1-1.1-1.6-.1-.2.1-.2.1-.3v-1.6c.1-.8.1-1.5.2-2.3l.4-2.4H28v-.2c.3-.2.9.2 1.4.1.9-.1 1.8-.3 2.6-.6 1.3-.6 2.4-1.4 3.2-2.6l.4-.6c.1-.3.1-.6.2-.8l.2.1c-.1.5-.2.9-.4 1.4.2.2.4.3.6.5l1.7 1.9c1.1 1.5 1.8 3.1 2.1 4.9h.1v-.1c.4-1 .6-2 .8-3.1l.1-.5c-.2-.7-.4-1.5-.8-2.1-.7-1.9-1.5-4-3.4-4.7-.8-.2-1.6-.2-2.4.1-.8-.8-1.6-.6-3-.8"/><path class="st5" d="M15.2 5.9c-.4 1.1-2.3 2.2-3.4 2.6-.4.1-.9-.1-1.2 0l-.6.3c-.1 0-.3.1-.5.1.4 0 .8.1 1 .4v.1h-.1c-.2 0-.6-.3-1-.2-.3.3-.4.7-.7.8h-.1c0-.1-.1-.1-.1-.2 0-.3.3-.4.4-.6-.1 0-1.5.3-1.5.3l-.2 1.3c-.2.8-.5 1.4-.6 2.2-.2 1 .4 2.2.3 2.9-.6-.3-.7-1.5-.7-2.3-.2-.1-.2-.2-.4-.3-1.8.9-.9 4.8 1.2 3.6v-.2h.2c.3.1.3.4.5.6l1 .9c1 .6 3.4 1.9 5.1 1.5.7-.2 1.4-.6 2.1-1 2.5-1.6 3.7-4.6 3-7.5-.1-.2-.3-.4-.4-.7-.4-.8-.8-1.6-1.3-2.3-.4-.4-1.5-2.1-2-2.3"/><path class="st1" d="M15.6 8.2c.7 0 1.4.2 1.3.9h-.2c-.2-.1-.2-.3-.4-.4-.6-.3-1 .2-1.2.4h-.3c-.2-.6.4-.6.8-.9"/><path class="st5" d="M35.3 8.6c-.7.9-1.5 1.7-2.5 2.2l-1.2.5.1.2-.1.1c-.6-.2-1.3 0-1.8.4-.1.1-.2.3-.2.4-.3 0-.3-.1-.3-.3l.3-.4-.9-.1c-.3 1.3-.5 2.8-.7 4.2V18c.2.9 1.1 1.5 1.7 2 1.3 1.1 3.6 2.5 5.9 1.7 1.7-.7 3.1-2.2 3.7-4 .4-.6.5-1.3.5-2-.4-1.8-1.2-3.5-2.4-5-.5-.5-1.4-1.8-2.1-2.1"/><path class="st1" d="M36.3 11c.4.1 1.1.4.8.8-.3 0-.5-.3-.6-.4-.5 0-.5.2-.8.4-.1 0-.1 0-.2-.1 0-.1 0-.1-.1-.2.3-.4.5-.3.9-.5m-20.4.3.3.1.1.2c-.2.4 0 1-.2 1.5-.7 0-.4-1.6-.2-1.8m-5.6.3c.2 0 .5.1.6.3l-.2.6.1.8c-.1.1-.3.2-.4.2 0-.1-.1-.1-.1-.2-.1-.5-.1-1.1 0-1.7"/><path class="st5" d="M19.5 12.2c.2.4.2.9.3 1.3l-.6 2c.8-.4 1.9-1.8 1-2.9-.2-.1-.5-.3-.7-.4"/><path class="st1" d="M13.6 13c.6 0 .7.2.9.5 0 .5-.3.9-.8 1.1 0-.1-.1-.2-.1-.2.1-.3.5-.6.3-1-.3 0-.3-.1-.4-.3l.1-.1m23.1.5h.2l.2.2c0 .5-.1 1-.2 1.5-.1.1-.2.2-.4.2l-.2-.1c0-.5 0-.9.1-1.4 0-.2.1-.3.3-.4m-5.6.2c.2.1.3.2.5.3.1.6.1 1.1-.2 1.7H31c0-.1-.1-.1-.1-.2v-1.6c.1-.2.1-.2.2-.2m3.3 1.3c.5 0 .8.1.8.5-.1.4-.4.7-.7.9-.1 0-.2-.1-.2-.1-.1 0 0 0-.1-.1.1-.2.5-.5.4-.8-.2 0-.3.1-.5-.1l-.1-.1c.1-.2.2-.1.4-.2m-19.1 1.1c.1 0 .3.1.4.1l.1.2c-.1.9-1.1 1.6-1.7 2.1-.2.2-.6.6-.9.3-.6-.2-1.4-1.5-1.6-2.1v-.1c.7-.2 1.9-.4 2.7-.5h1"/><path class="st6" d="M14.9 16.4c-1 .2-2 .3-3 .4v.1c.2.4.9 1.5 1.4 1.5.4-.6 1.6-1.1 1.8-2h-.2z"/><path class="st1" d="M35.9 17.5c.2 0 .3 0 .5.1 0 .2.1.1.2.2.1.3-.4.7-.5.9-.4.8-1.1 2.8-2 2.9-1-.6-1.4-1.9-1.8-3.1 0-.2-.2-.3-.1-.5 1-.2 2.1-.3 3.1-.4l.6-.1"/><path class="st6" d="M36 17.8c-1.1.3-2.2.4-3.2.4v.1c.2 1 .7 1.9 1.3 2.7.2 0 .3-.1.4-.2.2-.2.3-.5.5-.8.4-.7.8-1.5 1.2-2.2H36z"/><path class="st3" d="M39.3 18.8c-.6 1-1.3 1.9-2.1 2.6v.1c.4.1.8.5 1.2.6.7.1 2.4-1.4 2.7-1.8 0-.1 0 0-.1-.1l-1.2-.8-.5-.6z"/><path class="st7" d="M10.5 19.6c-.1.8 1.5 1.5 2.5 1.4.6-.1 1.2-.5 1.5-1-.6.2-1.3.3-1.9.3-.8-.2-1.4-.5-2.1-.7"/><path class="st8" d="m15 19.6-.1.3h.1c-.2.4-.4.7-.8 1-1.1.7-2.5.6-3.5-.2-.3-.2-.4-.7-.6-1L9 20l-.5-.1c-.9.4-1.8.8-2.7 1.4-.1.2-.2.5-.2.8-.4 1.1-.7 2.4-1 3.7-.2.7-.7 3.2-.3 3.8.9.3 2.5.8 3.5.2 0-1.8-.3-3.5-.7-5.3-.1-.8-.2-1.7-.5-2.5l.1-.1c.2 0 .4 0 .5.2 0 .9.2 1.8.5 2.6 0 .1.1.9.1 1.1.2 1.2.3 2.6.5 3.8-.1.1-.2.3-.3.4l.2.5h.1c.6-.2 2.1-.5 2.4-.9 0-.3.1-.6.2-.9.4-1.4.7-3.1 1.8-3.9 1.2.3.9.9.5 1.9.8-.2 3.5-1.3 3.5.4-.5.1-.9.3-1.3.6 1-.1 1.9-.3 1.6.9 0 .2.1.4.1.6-.2.4-.7.5-.8.9.3-.1.7-.1 1 .1.1.1.1.3.1.4-.7 1.1-3.5 2.8-5.3 2.1-.6.2-1 .7-1.7.9 0-.1 0 0-.1-.1 0 .1.1.1 0 .1-.6.3-1.2.6-1.8.7l-.4.1c-.5.5-.9 1.3-1.6 1.7-.2.9-.3 1.9-.3 2.8.2.1.3.4.6.5 2.2.9 5.4.8 7.9.3 1-.2 2.6-.3 3.1-1 .3-.4 0-1 .1-1.6V36c-.1-.1-.1-.2-.2-.2 0-.1.1-.3.1-.5V33l-.1-6.9c-.1-1.1 0-2.3-.2-3.2v-.8c-.7-.9-1.5-1.7-2.5-2.5"/><path class="st9" d="M38.8 24.3v-1.4c-.6-.4-1.2-.8-1.9-1 .1.5.5 1.8.3 2.3l-.1.2c-.5 0-.6-.4-1-.6-.3.1-.6.3-.8.5l-.2.5H35l-.1-.1c0-.7.4-1.3 1-1.7.4.2.6.5.9.8h.1v-.3c-.1-.5-.1-1.2-.4-1.6l-1.1.5c0 .6-.5 1.2-.6 1.7 0 .2.2.2 0 .4l-.1.1c-.6.2-1.8-1.9-2.1-2.3l-.9-.3c-.3-.2-.5-.3-.8-.5-.1 0-.1 0-.1.1-.4.8-.2 1.9-.3 3 .5-.2 1.5-1.4 2.1-1.2l1 1.2v.2l-.1.1c-.4-.1-.5-.4-1-.5-.4-.1-.8.2-1 .1-.4.2-.6.8-1.1.9l-.4-.5c-.1-1.1-.1-2.2.1-3.3-.4.1-.5.4-.8.5-.6.2-1.2.5-1.7.9.7 1.8 1.3 3.7 1.7 5.7.3.7.3 1.5.1 2.2h-.2c-.1.3-.2 1.2 0 1.4l1.5-.3c0-.6.2-1.2.4-1.7.8-.3 1.2-1.6 2.1-1.7.1.1.1 0 .2.2.2-.1.6-1.1.7-1.4.6-.9 1.1-1.9 1.6-2.9 1.1-.2 2.1-.2 3.1-.2"/><path class="st5" d="M34.6 22.3c-.3.1-.8 0-1.2.1v.3c.4.3.7.7.9 1.2h.1l.5-1.5h-.3z"/><path class="st8" d="m18 22.7.2 1.4.1 5.4h.1c.4-.2 1.7-1.4 1.8-1.9-.4-1.3-1-2.5-1.5-3.7-.3-.3-.4-1-.7-1.2"/><path class="st9" d="M39.3 23.2c0 .4 0 .7.1 1.1l.8-.1-.1-.1c-.2-.4-.4-.7-.8-.9m-12 .1-.9 1.6c-.4 1-.7 2-1 3-.3.7-.4 1.4-.5 2.2 0 .1 0 .1.1.2 1.3.5 2.8.6 4.1.2 0-1-.2-2-.5-2.9-.3-.9-.4-1.9-.7-2.7-.2-.6-.3-1.4-.6-1.6"/><path class="st7" d="M43.5 24.8c-1.8-.2-3.5-.2-5.3 0-.7.1-1.4-.1-1.9.1-.3.2-.5.8-.8 1.1-.5.8-.9 1.7-1.3 2.6l-.6 1.2c.4-.1.9-.2 1.3-.1.6.1 2 .7 1.5 1.5-.7.1-1.4 0-2 .1v.1c.8-.1 1.6 0 2.3.4.1.3 0 .6-.2.8l.1.4-.5.5-1 .4v.1c.4-.1.8.2 1.1.4v.2c-.6 1-2.6.6-3.8.9-.1.3-.3.9-.2 1.2 1.6-.4 3.3-.6 4.9-.8.8-.1 2.4-.1 2.7-.5-.8 0-1.3-.2-1.6-.7.1-.2.3-.4.5-.6-.2-.1-.2-.3-.2-.5l.5-.5-.2-.4.4-.3c0-.1-.1-.1-.1-.3.4-.8 1-.9 2-1.1.1-.6.3-1.3.6-1.8.4-.9.7-1.8 1.2-2.7.1-.7.5-1.2.6-1.7"/><path class="st5" d="M12.9 25.3c-.8 1-1.3 2.2-1.6 3.4-.1.3-.1 1.3-.3 1.4-.4-.2-.8.1-1.2.3l-2 .6-.9.4-.2-.1-.1-.2c.3-.3 1-.3 1.4-.6-.1-.1-.1-.4-.3-.5-.7.3-2.6.1-2.7.8.4 1.3.3 2.7 1 3.7.5-.1 1-.2 1.5-.5.8-.2 1.7-.5 2.5-.8l1.7-.9v-.1c-.2-.2-.4-.3-.6-.7v-.1c.4.1.5.4.9.5h.3l.1.2c1.3.1 2.6-.2 3.6-1 .3-.2.9-.5 1-.9h-.1c-.9-.4-2 .8-2.8.6l-.1-.3c.7-.5 2.5-1.1 2.7-1.9-.9.2-1.8 1-2.8 1.1l-.1-.1-.1-.2c.4-.6 2.5-.8 2.9-1.5l-.1-.1c-1.3-.3-3 .7-3.7.5l-.1-.4c1-.5 2.4-.8 3.4-1.3v-.1c-1.1-.7-3.6.6-4 1.2-.3 0-.3-.1-.4-.3.2-.2.9-.6.9-.7.2-.5.3-1.1.4-1.6v.2h-.1zM33.1 29c-.7 1-1.7 1.1-1.9 2.9 1.4.6-1 1.8-1.5 2v.1c.4.3.5 1 .9 1.3.3-.1.6-.2.8-.3l-.6-.9.2-.1c.5.2.5.6.9.8.5.2 3.4 0 3.5-.5l-.1-.1-.1-.1c-.7.1-1.4.1-2.1 0v-.3c.7 0 2.5-.6 2.7-1.2-.9.2-1.8.4-2.8.5l-.1-.3c.8-.3 2.7-.3 3.1-.8v-.1c-.4-.2-.9-.3-1.3-.3-.6.2-1.2.2-1.9.1l-.2-.3c0-.1 0 0 .1-.1.6-.4 1.3-.6 2-.6H36v-.1c-1.1-1.2-2.8-.4-4 .1l-.2-.2c0-.1 0-.1.1-.2l1.2-.5V29z"/><path class="st5" d="M19.5 29.1c-.5.7-.9 1.4-1.2 2.2-.1.3 0 .7.1 1l5.7 2.6 1.2.5h.4c.1 0 .2.4.2.5-.4.2-.2.9 0 1.2.2.3.3.6.5.9.4 1.1.5 2.2 1.3 2.9l.1-.1c.2-.8.2-1.7-.1-2.5l-.7.5-.1-.1c.2-.7 1.4-1.4 1.9-2.1.3-.4.4-1 .8-1.3h.2c0 .3-.2.4-.2.7.5.5.9 1.2 1.1 1.9l.3.8v.1h.1c.2-2-1.1-3-1.7-4.4h-.1c-.2.7-1 1.2-1.7 1.1v-.2c.5-.2.9-.6 1.2-1l.2-.6.7-.2c.6-.2 1.1-.6 1.6-1.1H31c-.6.2-1.2.3-1.8.4l-1.6.1c-.3.1-.9.6-1.2.6-.8-.2-1.5-.5-2.1-.9-1.3-.5-2.6-1.1-3.8-1.9-.4-.4-.5-1.4-1-1.6m22.4 1.5c0-.3-.1-.6-.2-.8 0 .3-.2.5-.2.9l.4-.1m-.1.3c-1.1.4-1.6 0-2.4.9v.1l1.1-.2H42c.1-.2.2-.2.3-.4v-.1c-.2-.1-.2-.2-.5-.3"/><path class="st5" d="m28.7 32.4.1-1.3V31c-.4 0-.7 0-1.1.1-.5.2-.9.4-1.5.4l.1 1.4h.1c.4-.1.8-.3 1.2-.5h1.1"/><path class="st1" d="m16.2 31.9.2.1v.2c-1.5 2-3.5 3.6-5.9 4.4-.6.2-1.7.8-2.5.6V37c.5-.1 1-.2 1.5-.4 2.7-.9 5-2.5 6.7-4.7"/><path class="st5" d="M41.4 32c-.5.2-2.5.2-2.1.8.9.2 1.7 0 2.5-.4v-.3l-.4-.1m.8.5c-.1.2-.2.4-.4.5.1.1.1.2.1.3-.2.3-.5.6-.7.8.2.4 0 .5-.2.9v.1c.3.3.7.5 1 .8 1.8-.1.4-2.5.2-3.4z"/><path class="st2" d="m18.3 32.7.1 2.8h.1l1.7-.1 3.4-.3c-1.4-.6-2.7-1.2-4.1-1.8l-1.2-.6"/><path class="st5" d="m39.2 33.2-.4.4.2.2c.8.3 1.7.1 2.3-.5v-.1h-2.1"/><path class="st10" d="m47.1 34.1-3.8.2c.1.3.2.7.1 1-.1.3-.8 1-1.4.9-.4-.2-.7-.4-.9-.7-.2-.1-.4-.2-.5-.4-.3.1-.4.3-.7.5l-.7.1c-.2.1-.2.9-.1 1.2 2-.1 4-.2 6-.5.5-.1 1.9 0 2.1-.2.3-.7.3-1.5.2-2.2h-.3z"/><path class="st5" d="M38.8 34.2c-.1.1-.2.2-.2.3.5.2 1.1.4 1.6.4.2-.1.4-.2.6-.4v-.3h-.1c-.6.1-1.3.1-1.9 0"/><path class="st9" d="m38.7 36-5.4.6c-.5.1-1 .4-1.5.5l-.1-.1c-.1-.6 0-1.1.1-1.7l-.9.4c.4.9 1.2 2.9.2 3.7-.3 0-.3-.1-.4-.3h-.1c-.1.3-.3.6-.6.8l1.3.2c1.9.1 3.8 0 5.6-.5.5-.1 1.1-.2 1.6-.4l.4-.7-.2-1.2V36"/><path class="st10" d="M24.4 35.6c-.3.1-.7.1-1 .1l-3.7.2c-.2 0-1.3 0-1.3.2v2.4l5.7-.5c.4-.1 1.4.1 1.7-.2-.2-.3-.4-.7-.5-1v-.9l-.9-.3"/><path class="st5" d="m29.3 36.3-.5.8c.3.8.6 1.7 1.1 2.4h.1l.3-.6c0-.9-.4-1.8-1-2.6"/><path class="st10" d="M5.8 36.8h-.9l-3.2.3c-.1.9 0 1.7.1 2.6 1.3-.2 3.1 0 4.2-.3-.3-.8-.3-1.7-.1-2.5h-.1z"/><path class="st5" d="m28.5 37.5-.6.5c.2.8.6 1.5 1.2 2.1v-.3l.1-.1c-.1-.8-.4-1.6-.7-2.3z"/><path class="st4" d="M42.8 37.7c-1.3.5-2.2.7-2.8 1.9-.1.2-.5.8-.4 1 1.2-.3 1.7-1.5 2.5-2.2.3-.2 1.2-.5 1.3-.8h-.6z"/><path class="st3" d="M44.5 38c-.1.1-.6.1-.8.2-.5.3-1 .6-1.3 1.1l-.7 1.3c-.6 2 0 4.1 1.5 5.5.4.4 1.1.6 1.4 1.1h-.1l-.1.1c-.1 0-.2-.1-.3-.1-.1.9-.3 1.8-.8 2.6-.7 1.6-1.1 3.1-2.7 3.9.5.4 1.1.7 1.7 1 2.1 1 4.4 1.9 7.2 1.2.3 0 .7-.1 1-.2l.5-.9.3-1c.6-2 1-4.1 1.2-6.1.3-1.2.4-2.4.3-3.6-.3-2-2.3-4.4-3.7-5.5-1.1-.8-3.1-.3-4.6-.6"/><path class="st4" d="M40.7 38.1c-.5.2-.9.4-1.3.7l.1.6h.1c.2-.6.8-.8 1.1-1.3m-14.8.2-7.5.5c-.1.2-.2.3-.4.3.1 1.2 0 2.3-.2 3.5-.1 1.9-.2 3.9-.1 5.9-.4 0-.7.1-1 .3-.3.3-.2 1.9-.3 2.5-.1 1.2-.1 2.4-.1 3.6l-.1 1.8v1.9L26 57l3.1-.5c.3-.1.5 0 .8-.1-.3-.4-.1-.9-.2-1.5-.1-1.9.1-4.1-.1-6-1.2 0-2.5-.3-3.5-1 0-1.6.2-3.1.5-4.7.1-.8.2-1.5.4-2.3-.4-.7-.8-1.6-1.1-2.6z"/><path d="M39 39.4c-.2.3-.5.7-.7 1-.1-.1-.1-.2-.1-.4l-1.9.4-3 .3-.8-.1h-1.2c-.6-.1-1.1-.2-1.7-.2 0 .2-.2.3-.4.3-.4-.2-.6-.6-.9-.7 0 .5-.1.9-.4 1.3-.1.1-.2 0-.3.2l-.2 1.3c-.4 1.7-.6 3.4-.6 5.1l.6.3c1.3.3 2.7.5 4 .5 1.2.2 2.3.2 3.5-.1l-.1-1.3.1-1.3c-.1-.4-.6-1.2-.2-1.7.3-.4 1-.1 1.5-.3.3-.1.4-.3.8-.3.2-.4.5-.8.9-1l.3-.1.2-.5.6-.6c-.1-.2-.4-.3-.1-.5.1.1.3.1.4.1l-.3-1.7z" style="fill-rule:evenodd;clip-rule:evenodd;fill:#f58220"/><path d="M17.2 48.2v-3.7c.1-.8 0-1.8.1-2.6l.2-2.4-1 .4c-3.1.6-7.3 1.1-10-.2 0 .1-.1 0 0 .1-.2.8.2 1.3.1 2.2l-.3 4.3c.1.6-.2 1.5 0 1.9 2 .9 4.3.9 6.2-.1 0-1.7.1-3.3.4-5l.2-.2h.1c.1.1.1.2.2.4 0 .9-.1 1.7-.2 2.6l-.1 1.5c-.1.3-.1.6-.1.9 1.5.1 2.9.1 4.2-.1" style="fill-rule:evenodd;clip-rule:evenodd;fill:#bfd730"/><path class="st4" d="M6.1 39.7c-.4.1-.8.1-1.2.1-1 .1-2.1.2-3.1.3l-.4 20.5h.2l4-.6c.4 0 1.1 0 1.4-.2l.2-3.1.3-7.7c-.5-.1-1.1-.4-1.5-.7-.1-.7-.1-1.3 0-2l.2-3.5c.1-.5.2-1.1.1-1.6l-.3-.6c0-.3.2-.7.1-.9"/><path class="st5" d="M41.1 40.3c-.4.6-.8 1.2-.9 1.9l-.1-.1c-.1-.5.1-.8.2-1.3-.3.1-.5.2-.8.4v.1c.6.4.6 1.6.3 2.2-.1 0 0 0-.1-.1-.2-.2-.2-1.5-.5-1.9h-.1c-.2.3-.7.6-.9.9v.4c-.1.2-.3.3-.4.5-.3.5-.3.7-.8.9l-.3-.3c-.5.1-1.1.2-1.6.4-.2.5-.1 1.1.3 1.5-.7 2.4.5 5.9 1.6 7.3.3.3.7.5 1.1.6.8.4 1.6.7 2.4 1 .3.1.8.1.9-.1-.5-.1-.9-.4-1.3-.8v-.2l.1-.1h.1c0-.3.9-.9 1.2-1.2.6-.8 2.2-4.3 2.1-5.5-2.2-1.4-3.2-4.1-2.4-6.6l-.1.1z"/><path class="st1" d="M39.9 48.5c0 .9-.7 1.7-1.5 2-.8.3-1.9-.4-1.9-1h.1c.4-.1.8.8 1.7.5.7-.1.9-1.1 1.6-1.5"/><path class="st4" d="M12.7 48.6c-.2.2-.9.4-1.1.5-.2.8-.3 1.7-.4 2.5-.3 1.6-.4 3.1-.4 4.7-.1 1-.1 2-.1 2.9l2.1-.3c0-1 .1-1.9.2-2.8.1-1.6.1-3.1.3-4.5l.2-2.8c-.3 0-.5-.1-.8-.2"/><path class="st5" d="M13.4 58.9c.8 0 1.6-.2 2.3-.4l.1-2.8.1-2c.2-1.7.2-3.3.4-4.9h-.1c-.8.3-1.4.9-2.2 1.1-.2 3-.6 6.1-.6 9m-5.5-9.7c0 2-.1 3.6-.2 5.6v1.7l-.2 3.2 2.7-.4c0-2.2.4-4.6.4-6.7l.5-3.5-1.2.1h-2m27 .2-1.1.1-.3 3.6c0 .9-.1 1.9-.1 2.8.8 0 1.5-.2 2.3-.4 0-.6 0-1.2.2-1.8l.1-1c0-.1.1-.2.1-.4l-.3-.6c-.5-.7-.7-1.5-.9-2.3zm-3.9.2c-.3.1-.6.1-.8.1.2 1.8.2 3.7.1 5.5-.1.4 0 .9 0 1.3h.1c.8-.2 1.8-.1 2.5-.4 0-1 0-1.9.2-2.9l.1-1.4.2-2.1-2.4-.1"/><path class="st4" d="M36.3 53c-.2.8-.3 1.7-.2 2.5h.1c.9-.2 1.7-.3 2.6-.4.3-.1.7.1.9-.2-.2 0-2.8-1.1-2.9-1.2-.2-.1-.3-.5-.5-.7m15.3 1.3-.6 1.2c.2 0 .1 0 .1.1-.3.6-1.3.6-2 .9.3.4 1.7.9 2.2 1.3h.1l.1-2.4c.1-.3.3-.9.1-1.1z"/><path class="st13" d="m35 70 .4-2.3-.5-.2-1.2.6c-.7.4-1.4.7-2.1.9-.2 0-.2-.2-.3-.2-.1 0-.3 0-.4-.1-.4-.2-.7-.4-1-.6l-.5-.5c-1.4-1-2.6-2.2-3.9-3.2-.3-.2-1-1.1-1.2-1.2l-.9-.2c-.7-.2-1.2-.7-1.9-1l-1.3-.4c-.3-.2-1-1-.1-1 0-.2-.1-.6.1-.7.1-.2.5-.2.7-.3.7-.5 1.6-.7 2.4-.7.8.1 1.4.6 2.2.7 0-.3.1-.6.3-.8.3.1.5.5.6.8 1-.2 2.1-.4 3.1-.6.9-.2 1.7-.2 2.6-.4l1.7-.4c.7.6 1.4 1.2 2 1.9h.1c.9-1.2 2-2.3 3.3-3.2.3-.2.8-.8 1.2-.8.1-.3.3-.4.3-.9v-.1c-.8.3-1.6.4-2.4.5v-.1h-.1c-.2.4-.9.1-1.3.3-.7.3-1.4.4-2.1.2v.1h.1c-.5 0-1.1.1-1.6.3l-1.4.1c-.4.1-.8.1-1.2.2-.6 0-1.2.1-1.8.2 0 0-.1 0 0 .1-.7.1-1.5.2-2.2.3-.5.1-1 0-1.6.2-.4.1-.9.2-1.3.2-.9.2-2.1.3-3.1.5-.4.1-.7 0-1 .1-1 .3-2.1.3-3.2.5-1.2.3-2.5.5-3.8.6.1.4.7.6.9.8.9.7 1.7 1.4 2.6 2.1 1.7 1.3 3.4 2.7 5 4 .6.6 1.3 1.1 1.9 1.7.5.4 1 .9 1.5 1.2.4.2.8.5 1.1.8H35z"/><path class="st14" d="m41.8 55.2-.8.1c-.1.3-.2.6-.4.9 1 0 2.3-.2 3.2-.2-.5-.4-1.2-.7-2-.8"/><path class="st7" d="M51.1 55.6v.1-.1z"/><path class="st14" d="M45.3 56.4c-.2.1-.5 0-.8.1l-3.5.1c-.9.2-1.8.7-2.6 1.3 1.5.3 1.9 1.9 2.1 3.3.1.5-.2 1 0 1.5 1.4-.5 2.8-1 4.2-1.3l2-.4c-.1-1 0-2.1.2-3.1.1-.4.1-.8.1-1.2-.7 0-1.2-.3-1.7-.3"/><path class="st13" d="M52.3 60.3c.1-.5.1-1-.1-1.6-.6-.2-.9-.7-1.4-1-.7-.5-1.5-.9-2.3-1.2-.2 0-.6.1-.9.1v.1c.6 1.2 1.1 2.5 1.3 3.9l3.4-.3"/><path class="st14" d="m47.3 56.9-.2 2.7c-.1.4-.1.9 0 1.3l1.4-.2c-.1-.4-.2-.8-.3-1.3l-.6-1.8c-.1-.2-.1-.6-.3-.7m-9.2 1.5c-.1 0-.1 0-.2.1-.3.3-.6.6-.8.9-.5.5-1 1-1.4 1.6-.1.1-.4.4-.4.3l-.1.2c-.2.1-1.2.9-1 1-.5.4-1.3 1-1.6 1.4 0 .4.1.7.2 1 .5 1.1 2.7 3.1 4.7 2.6.1-1.3.3-2.5.6-3.7.4.1 1.5-.7 2-.8v-1.3c-.1-1.5-.5-3.4-2-3.3"/><path class="st7" d="M26.5 59.9c0 .6.4.8.6 1.2.1.1 0 .2.1.3.3.3.7.5 1.1.7l.9.7c.8.5 1.6 1.1 2.3 1.7.2-.1.4-.2.5-.3l-.1-.4c.5-.4.9-.9 1.3-1.4-.5.2-1 .4-1.6.4-.1-.1-.2-.2-.1-.3 1.2-.1 2.3-.6 3.1-1.4-1.3.2-2.6.6-3.8 1l-.1-.1v-.2l.1-.1 2.8-.7c.4-.2.8-.2 1.2-.2l.1.2c.3-.2.5-.4.7-.7-.6-.6-1.2-1.2-1.9-1.8-.5.1-.9.3-1.4.4-.9.3-1.9.2-2.8.5-1.1.2-2 .4-3 .5"/><path class="st5" d="m23 59.4-.8.1v.1c.9.1 1.7.3 2.4.7 0 .1 0 .2-.1.2-.5.1-3-1.1-3.5-.5.9.2 1.9.4 2.7.8v.2h.1c-.5.2-2.4-.9-3.4-.8v.5c.6 0 2.1.2 2.3.6v.2l-.1.1c-.2 0-2.3-.9-2.5-.4l.7.3 1.4.4 1.5.8 1.1.4c.8.9 1.6 1.8 2.6 2.5.3.3.7.5 1 .8.9 1 2 1.7 3.3 2.2.8-.2 1.6-.6 2.3-1v-.1c-.7-.8-1.3-1.7-1.8-2.7-.4.1-1 .9-1.4.7v-.3c.1-.1.3-.2.5-.3-.1-.4-.6-.5-.9-.7-.7-.6-1.5-1.1-2.2-1.7-.3-.2-1.2-.6-1.3-.9l.1-.5c-.5-.4-.6-1.3-1-1.8-.1.1-.1.3-.1.5l.1.2c.1.1.1.2 0 .3-.4 0-.5-.2-.8-.3-.6-.3-1.4-.6-2.2-.6"/><path class="st1" d="M32.7 59.5h.3l.1.1-.1.1c-.3.3-1 .2-1.4.3-1.1.4-2.3.7-3.5.8l-.1-.1v-.2c1-.1 1.9-.3 2.9-.7.6 0 1.2-.1 1.8-.3"/><path class="st13" d="M1.5 70c2.2.1 4.5 0 6.7 0h2.6c.8.1 1.6.1 2.4 0h7.5v.1c1.3-.1 2.7-.2 4-.1h.1c-.1-.4-1.1-1-1.4-1.2-1.3-1.1-2.6-2.2-3.9-3.2-1.8-1.4-3.5-2.9-5.3-4.3-.7-.7-1.4-1.3-2.2-1.8l-.9.2c-.8.2-1.7.2-2.5.4l-7.1 1-.1 5.1c0 1.1.1 2.4.1 3.8"/><path class="st1" d="m33.2 60.3.3.1c0 .1.1.1.1.2l-.1.1c-.9.2-1.8.3-2.7.6-.4.2-.7.3-1.1.3l-.1-.1.1-.2 2.4-.6 1.1-.4"/><path class="st13" d="m52.1 70.1.2-9.4c-.6 0-1.1.1-1.6.2-1.1.2-2.3.2-3.5.4 0 .1 0 .2-.1.2-.2 0-.2-.1-.3-.1 0 0-1.1.2-1.2.2-1.7.6-3.4.9-5.1 1.6-.5.2-2 .6-2.2 1l-.2 1.2c-.3 1.5-.3 3-.5 4.6h11.8c.8.1 1.8 0 2.7.1"/><path class="st14" d="M35.5 70.1h1.7l.1-2.2c-.5.1-1 .1-1.5 0-.2.7-.3 1.4-.3 2.2"/><path d="M0 71.3h54.8V0H0v71.3zM51.5 68H3.3V3.3h48.2V68z" style="fill:#b369ab"/></g></g></svg>