<svg version="1.1" id="Layer_1" xmlns="http://www.w3.org/2000/svg" x="0" y="0" viewBox="0 0 54.8 71.3" style="enable-background:new 0 0 54.8 71.3" xml:space="preserve"><style>.st2,.st3,.st4,.st5{fill-rule:evenodd;clip-rule:evenodd;fill:#231f20}.st3,.st4,.st5{fill:#845339}.st4,.st5{fill:#fdd1b0}.st5{fill:#b19aca}.st10,.st11,.st13,.st14,.st6,.st7,.st9{fill-rule:evenodd;clip-rule:evenodd;fill:#ffcb05}.st10,.st11,.st13,.st14,.st7,.st9{fill:#faa61a}.st10,.st11,.st13,.st14,.st9{fill:#fff}.st10,.st11,.st13,.st14{fill:#ed1c24}.st11,.st13,.st14{fill:#f7941d}.st13,.st14{fill:#bcbec0}.st14{fill:#ecdf7a}</style><g id="Layer_2_00000106132749606030149240000010499908019053628860_"><path style="fill:none" d="M1 .4h52.9v70.4H1z"/><g id="Layer_1-2"><path d="M1.3 2.5h51.9v59.9H1.3V2.5z" style="fill:#c7eafb"/><path class="st2" d="M34.1 1.6c.8 0 1.5.2 2.2.6.8.3 1.6.6 2.3 1.1 1.3 1 2.3 2.4 2.8 4 .4 1.9.2 3.8-.5 5.5.4.3.8.4 1 .9.6 1.3.1 2.9-1.2 3.5h-.1c-.4.2-1 .1-1.4.4-.2.3-.4.6-.7.9.3.9.5 2 .9 2.9.6 1.5 1 3.1 1.3 4.7.1.3-.1.8-.1 1.2l.3 1.5c.1.3 0 1.1.2 1.2 1-.5 2.2-1 3.2-1.6.3-.2.6-.3.9-.4.8.3 1.6.7 2.3 1.1l1.4.7c1 .5 2 1.1 2.9 1.6.9.3 1.7.8 2.4 1.4 0 .8-.1 1.5-.1 2.2.1.6.5.9.3 1.7l-.3 2.2-.4 1.2-.2 1.9c-.2.5-.5 1-.6 1.5-.1.3-.1 1.2-.1 1.6V48l-.1 1.3c.2.4.3.8.4 1.2 0 1-.1 1.9-.3 2.9-.1 2 .2 4.2-.1 6.2-.4 2.4.5 4.8.2 6.8-.1.7.2 2.6-.3 2.8-.6-.4-2.1.1-3 0-1-.1-2 0-3 .1l-2 .1c-1.1.2-2.2.3-3.2.2-1.3-.1-2.5-.2-3.8-.3-1.1-.2-2.2-.3-3.4-.2l-3.6-.1c-1.1.2-2.4 0-3.3.2-.5.1-.9.1-1.4.1-.9.1-1.9.1-2.8.1-.8 0-1.5-.1-2.3-.3-.1 0-.1.2-.3.2l-.5-.1-.8-.1c-1.6-.1-3.4.1-4.9-.1l-4.4.1c-1.6.2-3.5-.1-4.9.1-1 .2-3.4.2-3.8-.4-.2-.8-.2-1.6-.1-2.4V58.7c-.1-1.3-.1-2.6 0-3.9v-1.9c.2-1.1.2-2.3.2-3.4 0-.4 0-.7-.1-1.1.1-1.8.1-3.6.2-5.4v-1.3c-.2-2-.1-3.9.1-5.9l.1-1c.5-1.2 1.9-1.7 3-2.4l.6-.2c.3-.3.4-.7.5-1.1.5-.2.9-.5 1.3-.8l.8-.5c.2-.3.6-.5.9-.6 0-.4.1-.4.2-.6-.3-.6-.7-1.1-1.2-1.5-.1.3-.2.5-.4.7-.9 1.3-2.3 2.2-3.9 2.4-.7 0-1.4-.2-2-.6v-.1c.2-.1.3-.3.4-.4.8-1 1.1-2.3.7-3.5-.4-2.4-1.8-5.1-1-7.9.5-1.8 1.4-3.6 3.3-4.1l1.1-.1.9.2 1.6-1c1.2-.5 2.5-.8 3.8-1.1 1.1-.3 2.3-.1 3.2.5.3.3.6.5 1 .8.8.3 2.2.3 2.8.9.9 1 1.5 2.1 2 3.3.2 1.2.2 2.3.1 3.5l-.2 1c.1.6.3 1.4.4 2-.1.7-.2 1.4-.5 2-.6 1.5-1.5 2.9-2.6 4.2l-1 .8c.2.3.2.8.3 1.2l1.4 3.2c.3.5.7.8.5 1.5.6-.3 1.2-.7 1.6-1.1-.1-1.1.2-2.1.1-3.2l.2-6.3c.1-.9-.3-2.2.2-2.9.3-.5 2.8-1.5 3.5-1.6.4-1.7 1.8-1.6 2.9-2.5-.3-.5-.6-.9-.9-1.3-1.2.3-2.5-1.1-2.7-2-.1-1.1.6-2 1.6-2.3-.2-.8-.4-1.5-.4-2.3-.4-2.1 0-4.3 1.1-6.1.3-.3.7-.6 1-.9l.6-.7.6-.8c.9-.3 1.9-.6 2.8-.8.8-.1 1.6.1 2.3-.1"/><path class="st3" d="M34.3 1.9c-.7.1-1.5.2-2.2.2-.7.1-1.4.2-2 .4-.5.1-1 .4-1.4.6L28 4l-.7.5c-1.4 1.5-1.5 4.3-1.2 6.8.1 0 .3 0 .4.1v.3h.1v-.1l.4-1.5c.1-.3.3-.6.4-.9 0-.2-.1-.3-.1-.5l.2-.1c.1.1.1.2.2.2.9.5 2.4-.4 3.1-.6.4-.1.7.4 1.5.4.9-.1 1.8-.5 2.5-1l1.4-1 .5-.7.2.1c.1.2 0 .3 0 .5.3.2.8 1.1 1 1.5 1.1 1.4 1.8 3.1 2.2 4.9 1-.8.9-3.3.8-4.8-.3-1.7-1.2-3.2-2.6-4.3-.7-.4-1.5-.8-2.3-1.1-.4-.5-1.1-.7-1.7-.8"/><path class="st4" d="M36.6 6.5c-1.1 1.2-2.6 2.1-4.2 2.4-.6.1-1-.3-1.4-.3-1 .4-2.1.7-3.2.7l-.5 1.2c-.5 1.3-.7 2.6-.6 4 .3 2.2 1.5 4.2 3.4 5.4.6.3 1.2.4 1.8.5.8.2 1.7.3 2.6.1 3-.7 6.2-3.8 5.2-7.7l-.3-1.6c-.3-.8-.7-1.6-1.2-2.3-.4-.6-.7-1.1-1.1-1.7-.2-.2-.2-.5-.5-.7"/><path class="st2" d="M29.3 9.4c.4 0 1.5.4 1.5.7l-.1.1v.1c-.8-.3-1-.7-1.7-.1h-.2c-.1-.1-.1-.2-.1-.3.1-.3.3-.4.6-.5m8.9 1.1H38c-.7-.4-.9-1-1.9-.3-.3 0-.4-.1-.3-.3.7-.8 1.8-.2 2.4.4v.2"/><path class="st3" d="M7.5 20.7c3.2.1 6.3-2.4 7.6-4.4.6-.7 1-1.6 1.1-2.5h.2l.1.2c0 .3 0 .7-.1 1 1.8 1.4 3.3 3.3 4.1 5.4 0-1.2.3-2.8-.2-3.9-.3-.5-.6-1.1-1-1.6-.2-.3-.4-.7-.7-.9-.7-.5-1.5-.4-2.4-.8-.8-.3-1.2-1-1.9-1.3-.8-.1-1.7-.1-2.5.1-2 .5-3.9 1-5.3 2.1-.9.8-1.2 2.4-1.6 3.7-.1.3-.4 1-.3 1.3l.3 1.8c.2.8.6 1.6.8 2.3.7.2 1.4.4 2.1.5 0-1.1 1-1.7.9-2.8-.4.1-.8.1-1.2-.1v-.1"/><path class="st4" d="M40.9 13.2c-.2.1-.4.2-.6.4.3 1.3-.4 2.5-.7 3.4h.1c.9-.4 1.6-.8 2-1.7.3-.8-.1-2-.8-2.1m-14.8.1c-2.1 1.1-1.3 3.1.8 3.6l-.4-.9c-.3-.8-.4-1.7-.2-2.6v-.1h-.2z"/><path class="st3" d="m5.3 13.8-1 .2c-.6.3-1.1.7-1.5 1.2-1.3 2-1.7 4.5-1 6.8.5 1.5.8 3 1 4.6l.1 1.2c-.2.9-.8 1.2-1.1 1.8.5.2 1 .2 1.5.2 1-.2 2-.7 2.7-1.4l.4-1.4c-1.6-.3-1.9-2-1.2-3.4-.1-.1-.1-.2-.1-.3h.1l-.4-1.1c-.2-.8-.4-1.5-.5-2.3-.1-.2-.1-.3 0-.5-.1-.2-.1-.5-.1-.7.2-1.6.7-3.1 1.4-4.5.1-.2.3-.2.4-.4h-.7"/><path class="st2" d="M30 13.8c.2 0 .4.1.6.2 0 .9 0 1.5-.5 1.8-.7-.2-.3-1.7-.1-2m6.2.4c.2 0 .3.1.5.2 0 .4.1 1.4-.1 1.6h-.2c-.1-.1-.3-.2-.4-.3-.1-.5 0-1 .2-1.5"/><path class="st4" d="M16.2 15.3c-.4 1.1-1.1 2.1-2 2.9-.2.2-1.1.8-1.2 1 .2.1.4.3.5.6h-.1c-.1-.1-.3-.2-.4-.3-.7-.3-1.3.9-1.6 1.1l-.2-.1v-.3c-.3.1-.6.3-1 .4l-1 .3c.2 1.3-.7 1.8-1 2.8-.1.2.1.3.1.5l-.2.1c-.6-.3-1.4-.5-2.1-.6-.8.4-1 1.4-.5 2.2.1.2.3.4.6.6.6.3 1.3 0 1.9.1 0 .1-.1.2 0 .2.7 1.6 3.1 3 5 3.6.8.3 1.6.4 2.4.4l1.4-.7c1.5-1 2.7-3.2 3.4-5 .3-.7.5-1.4.5-2.1-.4-1.4-.9-2.8-1.6-4.1-.2 0-.2-.1-.3-.2-.7 0-.8.3-1.2.5-.2-.1-.3-.2-.2-.4.4-.3.9-.4 1.4-.4l-.1-.1c-.5-1.3-1.4-2.3-2.5-3"/><path class="st2" d="M32.7 15.3c.1 0 .2.1.3.1v.2c-.1.1-.5.4-.3.7.2.2.3.2.5.4l-.1.1c-.5 0-1.1-.4-.8-1 .1-.2.3-.3.4-.5M30.9 18l.3.1c.8 1.1 2.3 1.4 3.5.8.5-.2.9-.7 1.3-.9 0 .1 0 .1.1.1-.1.9-1.9 1.4-2.9 1.5-.7 0-2.3-.8-2.3-1.6m-24.5.2h.2l.1.1v.2c-.4.3-.7.7-.8 1.1.2 0 .3-.2.5-.1l.2.1c-.1.3-.2.5-.3.7-.1.4-.2.8-.2 1.3-.6-.2-.3-1-.2-1.5-.1.1-.3.1-.5-.1l-.1-.3c.3-.5.7-1.1 1.1-1.5"/><path class="st5" d="M36.4 29.9c0-2.4.2-4.8.6-7.2.1-.8-.2-1.8.2-2.5.1 0 .3 0 .4.1.1.7 0 1.4-.1 2.1-.2 1.6-.3 3-.5 4.5.8-.2 1.6-.5 2.3-.8l.9-.3c-.5-1.6-.9-3.2-1.4-4.8l-.6-2.2-.5.5c-.6.5-1.3.9-2 1.2 0 .5-.2.5-.5.8-1.1 1.3-3.6 1.6-4.6 0-.3-.3-.4-.6-.4-1-.4-.1-.5-.3-.8-.5l-1.4-.2-.6-.2-1.1.6c-.5.4-.6 1.1-.9 1.6-.6.9-1.1 1.9-1.4 3-.2.5-.8 1.6-.6 2.3 1 0 .9 1.8.8 2.7.2 0 2.8-1.1 2.8-1.1-.1-.8-.1-1.5 0-2.3l.1-4.6-.2-1.4h.1c.1 0 .2.1.3.1.4.4.2 1.2.3 1.9v3.9c-.1.8-.1 1.6-.2 2.3.5-.1 1.3-.3 1.6.2.1.1 0 .2.1.4l.4.3c.3.7.4 1.3-.3 1.7h.4c.6-.2 1.2-.5 1.7-.9 1.2-.8 2.4-1.7 3.5-2.6l1.2-1.3h.1l.2.2v.1c-.7.6-1.2 1.4-1.9 1.9l-2.5 1.8c-.4.3-.8.3-1.2.6 1.7 0 3.4-.3 5-1l.2.1-.1.2c-.8.3-1.3.5-2 .8-.9.2-1.8.3-2.7.3-.6.1-1.9.3-2.1-.2l-.1.1c-.3.1-.5.4-.7.6v.1c.6-.1 1.8-.3 1.8.5-.3.6-1.3.8-1.9 1.1l.1.2 1.1.6 1.5.7.2-.1c-.1-.2-.1-.3-.1-.5.9-.4 1.9-.8 2.9-1l.9-.1c.7-.7 1.3-1.5 1.9-2.4-.2-.3-.3-.6-.3-.9h.1z"/><path class="st5" d="M30.7 20.5c.2 1.2 1.8 1.8 3.1 1.3.6-.2.9-.7 1.3-1v-.1c-.9.2-1.8.3-2.7.2l-1.7-.4"/><path class="st6" d="M24.7 21.6c-.6.4-2.2.7-2.6 1.3-.4.5-.1 1.5-.2 2.3l-.2 6.7c.2 0 .2-.1.4-.1v-.3c-.2-.7.4-2 .5-2.7.1-.5.2-1 .1-1.5l-.1-.4c.1-.4.2-1 .4-1.5.3-1 .7-1.9 1.2-2.8l.5-1z"/><path class="st2" d="M18.3 22.4c.1 0 .2 0 .3.1.2.5.1 1.1-.2 1.6h-.1c-.4-.3-.4-.9-.2-1.5l.2-.2m-5.1.6h.3l.1.1c.1.6 0 1.4-.4 1.6h-.1c-.3-.5-.4-1.1-.2-1.6.1 0 .3 0 .3-.1m3.5 1.3c.3 0 .8.1.9.3.2.4-.3 1.2-.6 1.2-.1-.1-.2-.2-.2-.3.2-.2.3-.5.4-.8-.2 0-.3-.1-.5-.2v-.2"/><path class="st4" d="M37.8 30.2c-.4 0-.5.4-.6.7L36 32.4c-.2.2-.5.3-.5.6.1 0 .3 0 .3.1v.2l-.1.1c-1.8.4-2.5.6-3.3 1.9-.2.3-.7.9-.5 1.5h.1c.6-.9 1.2-1.7 2-2.4l.2.1.1.3c-.6.8-1 1.7-1.2 2.7l.2.1c.5-.3 1.4-2.2 1.9-2.2l.2.2-1.6 2.1v.1h.3c.8-.3 1-1.4 1.6-1.9.3-.2.6-.7.9-.2v.1c-.6.6-1.1 1.4-1.4 2.2h.1l.8-.6.1.1.2-.1c.4-1 1.7-1.7 1.4-3.1l.1-.1v-.1c.7-.6 1.2-1.3 1.7-2.1.2-.1.3-.3.5-.4l.1-.5.6-.6c-.4-1.3-.7-2.7-.7-4.1H40c-.5.2-.9.4-1.3.6-.4.3-.7 1-1.2 1.1 0 .6.3 1.4.3 2.1m-14.6-3c0 1.2-.2 2.5-.6 3.7-.1 1 .1 1.9.5 2.8-.7.9-1.5 1.7-2.4 2.3-.3.2-.8.7-1.1.6l-.1-.1h-.1c-.3.7-.7 1.4-1.1 2l-.5 1.2v.2c-.1.1-.2 0-.3.1.2.1.5.6.9.5 2.1-.7 5.1-3.7 6.3-5.5v-.1c-.3 0-.5 0-.8-.1l-.1-.2h.1c.4-.2 1.4 0 2-.2.5-.3 1.1-.7 1.5-1.1.6-.5 1.5-.6 2-1.1v-.1c-.7-.1-1.4 0-2 .4 0 .1 0 .1-.1.3-.4-.1-.6-.5-.8-.7-.4-.5-2-1.1-2-1.8l.1-.1c.2 0 .3.1.4.2.7-.2 1.2-.8 2-1 .5-.2 1.3-.2 1.4-.7-.9-.3-3 .5-3.6.9-.2.2-.4.4-.8.4 0 .7-.1 2.7-.5 3l-.2-.2c.2-.4.2-.7.2-1.1V31c.2-1.3.6-2.8-.1-3.8h-.2"/><path class="st2" d="M16.3 27.3c.3 0 .7.1 1 .2v.2c-.4.2-.5.9-.7 1.3-.3.4-.6.8-1 1.1-.1-.2-.4-.2-.6-.4-.2-.3-1-1.9-.7-2.2.6-.2 1.4 0 2-.2"/><path class="st7" d="m16.3 27.7-1.1.2-.3.8c.2.3.3.8.6 1l.1-.1c.5-.3.8-1.3 1-1.9v-.1h-.3z"/><path class="st6" d="M45.3 28.4c-.4.3-1.8.7-2 1.1 1.3-.3 2.6-.3 3.9-.1-.6-.5-1.2-.8-1.9-1"/><path d="M16.6 39.2c1-.1 2.5-2.5 2.5-3.6-.4-.2-.5-.8-.8-1.2-.7-1.2-1.2-2.5-1.5-3.8l-.6.2c-.1.8 0 1.7.1 2.5 0 .1-.1.1-.1.2-.5 0-.7-.5-1-.8-.3.3-.5.7-.8.9-.1 0-.2 0-.3-.1 0-.6.1-1.1.5-1.6.7 0 .7.6 1.2.8 0-.6 0-1.2-.1-1.7-.2.2-.5.3-.8.3h-.6c-.1.9-.3 1.7-.7 2.6h-.1l.1.3h-.1c-.4.2-1-1-1.2-1.4l-1.2-2.1-.3-.6c-.3-.2-.7-.3-1-.5L9 29c0 .6 0 1.3.2 1.9l.3 2.7h.1c.3-.6.7-1.1 1.1-1.5h.3c.3.4 1.1 1.1.9 1.8l.1-.1-.2-.1-.3-.6c-.3.1-.7.1-1 .1-.2.4-.5.8-.8 1.2l-.4-.2c0-1.5-.5-3.1-.5-4.5h-.2c-.7.7-1.7.9-2.4 1.6v.1c.9.2 1.7 1.6 2 2.5l.1.9h-.1c-.2-.3-.4-.7-.5-1.1-.3-.8-.9-1.5-1.6-1.9-.1 0 0 0-.1.1-.2.3-.4.6-.5 1-.8 1.7-1.5 3.4-2 5.2-.3.4-.5 1.2-.6 1.9.3 1.1 2.8 1.9 4.3 1.5.4-.1.7-.5 1.1-.7.1-1.3.1-2.5 0-3.8-.1-.5-.1-1.1-.1-1.6.1 0 .3 0 .4.1.1 1 0 2 .1 3 .1.7.1 1.5-.1 2.2h.2c-.2.4-.9.6-1 1-.1.6 0 1.3.1 1.9.1.1.3.2.4.3.3.4.6.7 1 1 2.4-.9 4.4-2.2 6.8-3.1-.1-.7-.1-1.4-.1-2 .3-1.7.3-3.4.5-5.1l.1-2.5c.1 0 .2 0 .3.1.2.7.2 1.5.1 2.2l-.4 4.7" style="fill-rule:evenodd;clip-rule:evenodd;fill:#49c8f5"/><path class="st4" d="M28.7 29.2c-.4.6-1.4.6-2 .9l-1.2.7v.1l.7.5c1-.5 1.9-1.2 2.6-2l-.1-.2"/><path class="st3" d="m45.1 29.6-1.7.2c-1.1.2-2.1.7-2.9 1.4v.1c.9.3 1.9.3 2.9.5l.2.3c-.1.3-.1.6 0 .8.5.1 1 .4 1.4.7 0 .2-.2.6 0 .7.3.4 1.1.3 1.4.8l.1.2c-.3.2-.5.5-.6.8-.6 1.3.6 2 .9 2.9.1.4 0 .9-.1 1.3l.6-.3c1.1-.2 2.8 1.2 2.5 2.4-.3 1-1.1 1.7-2.1 1.7v.2c.1.4.3 1.3.6 1.5.2.1.5.1.7.2.2.2.5.3.8.3.7-.3 1.4-.8 2-1.4.3-.4.5-.9.6-1.3l.8-1.9.4-2.2c.2-.8 1-3 .5-3.9-.3-.7-.8-1.3-1.4-1.8l-.7-.5-.2-.3c-.3-.4-.6-.7-.9-1-1.5-1.6-3.6-2.5-5.8-2.4"/><path class="st4" d="M29 29.9c-.7.7-1.7 1.1-2.4 1.7l.1.1c.1.1.2.3.3.4h.1c.5-.6 1.9-1.3 1.9-2.2zm-16.5.8-.1.9c.3.7.7 1.3 1.1 1.8L14 31c-.6 0-1-.3-1.5-.3"/><path class="st6" d="m50.8 31.3.8.7c.3.3.4.7.6 1l1 .9c.2.2.4.5.6.6.1-.5 0-1.1-.1-1.6-1-.3-1.8-1.3-2.9-1.6m-10.3.6c-.7.9-1.4 1.7-2.1 2.5 0 .3 0 .6-.1.8-.1.5-.3 1-.6 1.5l-.7.6c.2 0 .4.1.6.1.7-.2 1.6-2.2 2.1-2.8l.9-.5v-.2c.2-.2.5-.1.7-.2l1.8-.9v-.4c-.8-.2-1.7-.4-2.6-.5m-18.4.4c-.1.2-.3.3-.5.4-.1.7-.1 1.3-.1 2l.2-.2c.4-.2.6-.6.8-1-.2-.4-.3-.8-.4-1.2zm-17.4.5c-1 .8-2.3 1-2.7 2.3-.3 1.2-.4 2.5-.2 3.7V42c.1 1.2.1 2.3-.1 3.5-.2.9.3 2.1.1 2.9l.1.1L5 47c.2-.1.8-.2.9-.5-.7-.6-1.3-1.2-1.8-2-.3-.9 0-2.3-.3-3-.6-.2-1.1-.7-1.3-1.3 0 0 .2-1.5.3-1.7.3-1.1.7-2.2 1.1-3.3l.2-.8c.2-.5.5-1 .6-1.6z"/><path class="st4" d="M43.3 33.1c-.5.3-1.1.4-1.6.7.4.5-.3 1.7-.8 1.7l-.1-.1c.2-.5.4-1 .5-1.5-.9.4-1.7 1.1-2.2 1.9.3.3-.2 1.2-.4 1.4-.1.2-.4.1-.5.3-.2 0-.3 0-.5-.2-.6.1-1.2.3-1.7.5-.1.2-.1.5-.1.8l.2.5-.1.9c.1 2.4 1 4.6 2.5 6.4.5.8 1.3 1.4 2.2 1.7 1.3 0 2.5-.2 3.7-.5.1 0 .1 0 .2.1s.1.3.1.4l2.4-.9 1.3-.3c-.9-.8-1.5-1.9-1.6-3.1 1-.5 1.7-.5 2.1-1.5.1-.2.1-.5.1-.8-.4-.9-1.3-1.3-2.2-1-.3.1-.5.4-.9.5-.4-.7.4-1 .2-1.9-.2-.5-.4-.9-.8-1.3-.4-.8-.3-1.8.3-2.6 0 0 0-.1-.1-.1-.5-.1-1-.4-1.2-.9v-.5h-.1l-.8-.2c.2 0 .1-.2-.1-.4m-15.7.7c-.4.4-.9.8-1.5 1.1-.2.1-.5.1-.6.2.1.3.1.5.1.8 1.1.3 2.2.9 3.3 1.3.4.1.9.3 1.3.5.2.1.6 0 .8.2.6.5.9 1.4 1.6 1.9 1.1.5 2.2.9 3.4 1.1-.1-.5-1.6-1.1-2.1-1.5l.1-.3c.7.1 1.3.8 1.9 1v-.7c-.6-.4-1-.6-1.1-1.4-.5.2-1 .3-1.5-.2l-.4.1-.2-.2c0-.5.2-1.1.4-1.6-.4.3-.5 1-1 1.2h-.4c-.6-.7-.1-.7-.2-1.3l-2.7-1.2-1.2-1m5 .4c-.4.1-.9.3-1.3.4v.1c.2.3.5.3.8.2l.5-.7z"/><path class="st6" d="m24.6 35.9-2.1 2.3c-.3.3-.7.4-.7.9l3.3-1.5c-.1-.5-.1-1 0-1.5l-.5-.2m2.6 1.2-8 3.8c-.6.3-2.4.9-2.6 1.4-.7-.1-1.3.5-1.8.7-1.1.4-2 1-3 1.4-.7.2-1.4.5-2 .9.6.7 1.2 1.3 1.9 1.9l.9.9c.4-.1.9-.1 1.4-.1 1.1-.1 2.1 0 3.2.3.3.1.6.4.9.5l1.2.5c.1.5.1.9-.5 1 .4.6.7 1.4.8 2.1l-.2.2c-.1 0-.3 0-.4-.1.2.4 0 .5-.2.7-.2 0-.3-.1-.5-.2-.8.3-1.4-.6-2-.9.2.4.9 1.4.2 1.7-.8.2-1.8-1.4-2.4-1.8L12 50.9l-1-.8c-1.7-.8-3.3-2-4.6-3.4L1.8 49c0 2.3-.2 4.3-.2 6.6l7.2 4.1 7.1-4.1c3.4-2 6.8-3.8 10.2-5.8l3.5-1.9c1.4-.9 2.9-1.6 4.4-2.5.6-.4 1.3-.7 1.9-1.1.3-.2.5-.4.8-.5l-.3-.9-.4-1.6c-1.3-.2-2.6-.6-3.8-1.3-.5-.5-.8-1.4-1.4-1.8l-.6-.1c-1-.5-2-.8-3-1"/><path class="st2" d="M15.5 38c.2.1.2.1.2.3-.9 1.8-2.4 3.3-4.2 4.3-.5.3-1.3 1.1-2 .8v-.1c.7-.2 1.4-.6 2-1.1 1.2-.7 2.2-1.6 3.1-2.6l.9-1.6"/><path class="st4" d="M35.7 38.3c-.1.1-.2.1-.4.1l.1.1c.2.1.2.2.4.2-.1-.2-.1-.3-.1-.4M4.3 41.8l.2 2.5c.6.9 1.4 1.6 2.2 2.3 2.1 1.9 4.4 3.5 6.9 4.8.8.4 2 2 2.6 2.1-.2-1-.9-1.4-1.3-2.2l.2-.3h.2c.7.6 1.5 1.2 2.3 1.7-.4-.8-1-1.4-1.7-2l.1-.1.1-.2h.2c.7.8 1.4 1.6 2.2 2.4-.1-1.2-1.5-2.4-2.2-3.1v-.2c.1-.1.2-.2.3-.2.7.5 1.3 1.1 1.8 1.8.2.3.3.8.7.9-.4-1.2-1.4-3.1-2.6-3.4-.9-.2-1.7-.2-2.6-.2h-1.4c-.3-.2-.6-.5-.8-.8-.9-.9-1.7-1.7-2.6-2.5-.3-.4-.7-1.1-1.3-1.2l-.1-1.1-3.4-1"/><path class="st2" d="m18.7 41.9 1.9.9c1.7.8 3.5 1.5 5.1 2.4.5.3 1.6.5 1.8 1-.1.6-1.2.9-1.6 1.2l-1.3.9-1.8 1.1c-.5.4-1 .7-1.7.9l-1.1-.5-1-.8-4.5-2.4c-.9-.3-1.7-.7-2.5-1.2l.1-.2c.7-.2 1.4-.7 2-1 1.7-.8 3.1-1.6 4.6-2.3m15.8.4c.6.2 1.1.5.9 1.2l-1.4.8c-.7.4-1.5.5-2.2.9-.9.5-1.7 1-2.7 1.4-.6-.1-1-.8-.9-1.4.1-.3.2-.6.5-.7.8-.5 1.5-.9 2.3-1.3l.6-.4.6.2 1.5-.6.8-.1m6.4 0h.3l.3.2c-.2 1.3-.9 2.6-2 3.4-.2-.1-.4-.2-.5-.4-.1-.4-.2-.7-.2-1.1l-.5-1.1c-.1-.1-.1-.3 0-.4l.6.1c.7-.3 1.4-.5 2-.7"/><path class="st9" d="M18.5 42.3c-.5.4-1.1.7-1.8 1-1.3.7-2.7 1.4-4.1 1.9v.1c1 .4 1.9.8 2.8 1.4 1.2.7 2.5 1.2 3.7 1.9.6.6 1.4 1 2.2 1.2l4-2.7c.3-.2 1.5-.8 1.6-1-1-.1-1.6-.9-2.4-1.2l-4.2-1.8c-.5-.2-1-.7-1.8-.8m15.8.4c-.6.3-1.6.3-2 .8-.1.1-.1.3-.3.5l-.6.3.3.6c1.2-.5 2.4-1.1 3.4-1.8-.1-.3-.4-.4-.8-.4"/><path class="st7" d="m40.8 42.7-1.6.5-.2.5c.2.6.4 1.1.6 1.7h.1c.4-.9 1.2-1.6 1.3-2.7h-.2z"/><path class="st2" d="M18.4 43.2c.1 0 .2.1.2.1v.2c-.2.3-.8.5-1.1.6L15 45.4c-.1 0-.2-.1-.2-.2.2-.4.6-.4 1-.6l2.6-1.4"/><path class="st10" d="M31.8 43.3c-1 .4-1.8.9-2.7 1.5v.1c.4.2.7.5.8.9.5-.1 1-.4 1.4-.8-.1-.1-.1-.3-.2-.4-.1 0-.3 0-.4-.1 0-.1-.1-.1-.1-.2.3-.4 1-.5 1.3-.9l-.1-.1"/><path class="st2" d="M19.6 43.6h.2l.1.2c-.2.4-.7.5-1.1.7-.8.6-1.7 1-2.6 1.4-.1-.1-.1-.1-.1-.3.3-.2.6-.4.9-.5l2.6-1.5m1 .5c.1 0 .1.1.2.2-1.1.9-2.3 1.6-3.6 2.1l-.1-.2.1-.2c1.2-.6 2.3-1.2 3.4-1.9"/><path class="st6" d="m36.8 44.3-1.2.7c-1.4.8-2.8 1.5-4.2 2.3-5 3-10.4 5.6-15.4 8.7-1.7 1-3.4 2-5.1 2.9-.7.3-1.3.6-1.8 1.1l11.2 6.5c.9.6 1.9 1 2.8 1.6.2.1.8.6.9.5l1.9-1.1 4.1-2.6c.4-.2 1.7-.9 1.9-1.2l-1.2-.7c-.9-.5-1.7-1-2.6-1.5-.9-.7-1.9-1.2-2.9-1.6-1.4-.4-4.1-.2-4.5-1.6.2-.3.6-.3.9-.4l-.1-.1c-.7-.4-1.2-1-1.4-1.8-.3 0-.6 0-.8-.2-.1-.2-.1-.4-.2-.6.6-.5 1.4-.7 2.1-.5 1.4.2 3.5.1 4.7.7h.1c0-1.6 0-3.2 1.3-3.5v-.1l.6-.2 1.2-.8c.9-.6 1.8-1 2.8-1.5.6-.5 1.3-.8 2-1.2.3.4 1.5.8 2 1.1 1.7 1 3.6 1.8 5.3 2.8.5-.2.8-.6 1-1 .3-.4.8-.5 1.2-.9.2-.2.2-.4.2-.7.1-.3.7-.6 1-.8 0-.1-.1-.2-.1-.3-.5.1-1 .2-1.6.3-3.7.8-4.7-2.1-6.1-4.3z"/><path class="st2" d="M21.6 44.5c.1 0 .1 0 .2.1.3.3-.6.7-.8.8-.8.4-1.6.9-2.4 1.3-.3.1-.5.4-.8.5-.1-.1-.2-.2-.1-.3.1-.3.8-.4 1.1-.6l2.8-1.8"/><path class="st6" d="M52.3 45c-.3.4-.6.8-1 1v.1h.1v.1c-.5.1-.9.8-1.4 1l.4.6c.1.4.2.8.2 1.2.5 0 1.1.1 1.6.2v-3.1c.1-.4.2-.9.1-1.1"/><path class="st2" d="m22.7 45.1.2.1v.2c-.9.6-1.9 1.1-2.9 1.5-.3.2-.4.5-.9.6 0-.1-.1-.2-.1-.3.2-.4.9-.6 1.3-.8.7-.3 1.6-.8 2.4-1.3"/><path class="st10" d="M29 45.2c-.1.1-.3.2-.4.4v.3c.1.2.2.4.4.4 0-.3.5-.3.6-.5-.1-.3-.4-.5-.6-.6"/><path class="st2" d="m49.7 45.3.6.1v.2l-.1.1c-.3.1-.5 0-.8-.1l.1-.1.2-.2m-25.9.2.2.2c0 .4-.6.6-.9.8-.9.5-1.8 1-2.6 1.5l-.2-.1v-.2c.2-.4.8-.5 1.1-.7.8-.5 1.6-.9 2.4-1.5m25.1.1c.4.1.8.3 1.2.5v.2c-.5.1-1-.1-1.4-.5 0-.1.1-.2.2-.2m-23.9.3.2.2v.2c-.2.4-.7.5-1 .7-.7.3-1.4.7-2.1 1.1-.2.2-.3.4-.7.4v-.1c0-.1 0-.2-.1-.2 1.1-.9 2.7-1.3 3.7-2.3"/><path class="st11" d="m49.6 47.6-1.6.2c-.9.3-1.7.6-2.6 1-.5.2-1.2.5-1.3 1h.1c1.5-.6 3.3-.4 5-.8.4 0 .8-.1 1.1-.1 0-.5-.1-1-.4-1.4h-.3z"/><path class="st9" d="M33.6 48.5 27.9 52l.1.4c.6.4 1.2.8 1.8 1.1 1.2.8 2.5 1.4 3.8 2.1.7.5 1.5 1 2.3 1.3.6-.8 1.3-1.5 2.1-2.1l1.2-1.2c.3-.3 1.5-1 1.6-1.3-1.2-.6-2.5-1.2-3.6-1.9l-1.1-.5c-.8-.7-1.6-1.1-2.5-1.4"/><path class="st4" d="m17.9 49.2.5.8.3-.1.1-.3c-.3-.1-.6-.3-.9-.4"/><path class="st11" d="m50.5 49.4-1.7.1c-1.9.3-4.7.2-5.8 1.4.2.2.6.2.8.3 1.1.8 1.8 3.1 1.3 5h-.2c-.1-.4 0-.8-.1-1.3-.2-1.3-.5-3.1-1.6-3.5-.7-.3-1.2.5-1.6.8-1.4 1.1-2.8 2.3-4.1 3.5-.2.2-1.4 1.2-1.3 1.5.1 0 .3 1.4.4 1.6.6 1.3 2.2 3.7 3.8 3.8.5-.4 1.2-.5 1.6-1l1.6-2.1 1.1-1.8.2.1c.1.2 0 .4-.1.6l.5-.4 1.5-.6c1.7-.8 3.5-1.4 5.4-1.9v-2.4c.2-1 .3-2.1.3-3.1-.1-.2-.2-.4-.3-.5l-1.7-.1"/><path class="st2" d="M33.5 49.6c.1 0 .1.1.1.1l.1.1-.1.2-.9.5c-.9.5-1.8 1.1-2.6 1.6-.1 0-.1 0-.1-.1l-.1-.2c.3-.2.6-.4.9-.5l1.9-1.3.8-.4m1.2.3c.1 0 .1.1.2.1 0 .5-.6.6-.9.8l-3.1 2c0-.2-.1-.1-.1-.3.6-.4 1.2-.8 1.8-1.1.3-.2.7-.5 1-.8.4-.2.8-.4 1.1-.7m1 .7h.2V50.9c-.2.4-.9.7-1.3.9-.8.5-1.6 1.1-2.4 1.7-.1-.1-.1-.2-.1-.3.9-.8 1.8-1.4 2.9-2 .2-.2.5-.3.7-.6m1.2.5c.1.1.1.1.2.3-.5.4-1 .8-1.6 1L33.2 54h-.1l-.1-.3c.2-.4.8-.6 1.2-.8l2.7-1.8m1 .6h.2v.3c-.2.3-.8.5-1 .7-.7.5-1.4.9-2.1 1.4-.2.2-.4.5-.7.6l-.1-.1c-.2-.2-.2-.3-.2-.4.4-.3.8-.6 1.2-.8l2.7-1.7"/><path class="st4" d="M27.1 52.2c-1 1.1-.3 2.7-.9 3.7-1-.6-3.4-.5-5-.8-.6-.1-1.2-.1-1.7.1l.1.2c1.1.1 3.3.3 4 .8v.2l-.1.1c-.4.1-2-.4-2.7-.5l.1.1c.7.2 1.3.7 2 .9.3.1.8.1.9.4l-.2.2c-.8-.2-1.6-.5-2.4-.8.6.6 1.2 1 2 1.3.2.1.7.1.6.4s-.5.1-.8 0c-.5-.2-1.3-.8-1.9-.3v.1c.7.2 1.6.5 2.4.8.7.2 1.4.2 2 .3.2 0 .3-.1.5 0 .6.3 1.1.7 1.6 1.2l1.2.6 3 1.8c.8.5 1.6.9 2.5 1.2.9-.3 1.8-.7 2.6-1.2l1.7-1c-1-.6-1.7-1.6-2.2-2.6h-.1c-.4.5-1.2.6-1.7 1-.1.1-.1.2-.2.3l-.6-.3-1.3-.4c-1.4-.4-2.7-1-3.9-1.7l-.8-.5c0-1-.2-2-.4-2.9l.1-2.6c-.2-.1-.3-.1-.4-.1"/><path class="st2" d="m38.9 52.2.2.1v.1c0 .1-.1.2-.2.3L36 54.6c-.3.2-.5.6-.9.7H35l.1-.3c.9-.8 2-1.6 3-2.2.3-.2.6-.4.8-.6"/><path class="st6" d="M27.8 52.9c-.1.9-.1 1.8 0 2.7.1.3.2.7.3 1 .1.4-.1.8.1 1.1.4.1.7.4 1.1.6 1.2.5 2.4.9 3.7 1.5.2.1 1.3.5 1.4.5.7-.3 1.3-.7 1.8-1.2-.2-.5-.3-1.1-.5-1.7-1-.5-2-1-3-1.7l-2-1.1-.7-.3c-.5-.4-1-.7-1.6-1l-.6-.4"/><path class="st2" d="m38.9 53.2.2.1v.2c-.7.6-1.5 1.2-2.3 1.7-.2.2-.7.6-.9.6 0-.1 0-.2-.1-.2.1-.4.6-.5.9-.7l2.2-1.7"/><path class="st6" d="M52.4 68.6c.1-1.7 0-3.4-.1-5.1l-.1-1.6.1-5.1c-1.6.1-3.1 1.1-4.3 1.6-.8.3-1.6.7-2.2 1.3l-.3-.1-.1-.3c.4-.2.8-.5 1.2-.8l2.6-1.2 2.2-.8 1-.3v-.4c-1.9.4-3.7 1-5.3 1.9-.5.2-1.4.4-1.7.8-.4.9-.7 1.8-.8 2.8-.6 2.5-1 5.1-1.1 7.7 1.4-.2 2.7-.1 4.2-.4h4.7M1.6 55.9V58c.7.3 1.3.6 1.9 1.1 1.2.7 2.4 1.3 3.6 2l1.6.9v-.3L8.5 60l-6.9-4.1"/><path class="st2" d="M15.1 57.1c.7 0 1.3.6 1.8 1 1.4 1 2.8 2 4.1 3.2.4.3 1.7 1.1 1.5 1.6-.1.5-.6.8-1.1.7-.3-.1-.6-.5-.9-.7-1-.6-1.9-1.3-2.7-2h-.1c-.1.2-.2.2-.3.4-.7-.1-1.3-.4-1.7-.9-.3.1-.6-.4-.8-.5-.3-.2-.8-.4-.9-.7v-.4c-.1-1.1.4-1.4 1.1-1.7"/><path d="M15.4 57.5c-.4.2-.8.2-1 .5-.1.3-.1.6 0 .9.8.8 1.8 1.4 2.9 1.9l.2-.1c-.2-.4-.8-.5-1-.7-.2-.2-.4-.5-.7-.6-.2-.1-.4-.1-.6-.3 0-.1 0-.3.1-.3l1 .7h.1c.1-.4.6-.4.9-.7-.7-.5-1.3-.9-1.9-1.3" style="fill-rule:evenodd;clip-rule:evenodd;fill:#007dc5"/><path class="st13" d="M1.6 58.9v3.3l4.1 2.3c0-1.1 0-2.2-.1-3.4-1.1-.6-2.1-1.3-3.2-1.9-.2-.1-.5-.2-.8-.3"/><path class="st11" d="M44.6 58.9c-.5.7-.9 1.4-1.4 2.1l-1.3 1.4-.5.3c-.4.3-.4.9-.7 1.2-.5.6-1.1 1.3-1.5 2-.4 1-.8 2-1.1 3.1v.1c1.3.1 2.6.2 3.9.1h.9c0-1.8.2-3.5.6-5.3l.3-2.1.8-2.9"/><path class="st9" d="M17.5 58.9c-.2.3-.8.3-.9.6 0 .1.8.7 1 .8 1.1.8 2.1 1.7 3.3 2.5.2-.3.2-.5.7-.6v-.1l-3-2.4c-.3-.3-.7-.6-1.1-.8"/><path class="st6" d="m8.9 60.3.2 2.1c1 .5 1.9 1 2.8 1.7.7.4 1.5.7 2.2 1.2 1.5.9 3 1.9 4.6 2.7l1.6 1 1.7.1c.4.1.8.2 1.2.1l.4-.3c-5-3-9.8-5.8-14.7-8.6"/><path class="st13" d="M7.1 68.7c0-2.3.3-4.5.1-6.6-.3-.1-1-.8-1.2-.5v1.7l.1 1.1c0 .8-.1 1.6 0 2.3 0 .7-.1 1.3 0 2h1m1-6.5c-.5 1.1-.6 2.3-.5 3.5.2-.1 2.3-.9 2.3-.9l-.2-1.6-1.6-1"/><path class="st9" d="M21.8 62.6c-.2.1-.3.1-.4.2-.1.1 0 .2.1.3h.1c.3.1.6 0 .7-.2v-.2c-.2-.1-.4-.1-.5-.1"/><path class="st14" d="M38.8 62.7c-1.2.8-2.6 1.5-3.9 2v.1c.9.1 1.9.3 2.7.7l1 .5c.5-.9 1.1-1.8 1.8-2.5-.2-.5-1.1-.8-1.6-.8"/><path class="st13" d="m11.4 68.7-.1-4.3c-.4-.1-.6-.5-1-.6.2 1.2.2 2.4.1 3.6-.1.4-.1.9 0 1.3h1"/><path class="st6" d="M32.1 63.9c-.4.5-1.5.9-2 1.2-1.3.9-2.7 1.6-4 2.5-.7.6-1.5 1.1-2.3 1.4v.1c.9 0 1.7 0 2.6-.1.4-.1.6.1.9-.1l4.1-2.6c.9-.5 1.8-1 2.7-1.6v-.1l-2-.7"/><path class="st14" d="m34.5 65-2.3 1.4c-.1.3-.1.6-.2.9-.1.5-.1 1.1-.1 1.6h2.2c.5-.1 1-.1 1.5-.1l2.2.2.8-2.6-.3-.2c-1.2.3-2.2 1-2.9 2.1-.2 0-.3-.1-.3-.3.4-.5.9-1 1.4-1.4l1.3-.7-1.7-.6c-.7 0-1.2-.2-1.6-.3"/><path class="st13" d="m12.2 65-.4.9c-.1.8 0 1.5.1 2.3.3.1.6.2.8.5h5.9l-.1-.1-6.3-3.6"/><path d="M0 71.3h54.8V0H0v71.3zM51.5 68H3.3V3.3h48.2V68z" style="fill:#0db14b"/></g></g></svg>