<svg xmlns="http://www.w3.org/2000/svg" viewBox="0 0 52.881 70.385"><defs><clipPath id="clip-path" transform="translate(0 .001)"><path class="cls-1" d="M0 0h52.881v70.385H0z"/></clipPath><clipPath id="clip-path-2" transform="translate(0 .001)"><path class="cls-1" d="m25.402 9.224-4.723 9.098-10.112 1.679a1.17 1.17 0 0 0-.642 1.976l7.195 7.302-1.528 10.137a1.17 1.17 0 0 0 1.681 1.221l9.167-4.585 9.169 4.585a1.17 1.17 0 0 0 1.681-1.221l-1.528-10.137 7.193-7.302a1.17 1.17 0 0 0-.641-1.976l-10.113-1.679-4.722-9.098a1.17 1.17 0 0 0-2.077 0"/></clipPath><style>.cls-1{fill:none}.cls-9{fill:#ffd869}</style></defs><g id="Layer_2" data-name="Layer 2"><g id="Layer_1-2" data-name="Layer 1"><g style="clip-path:url(#clip-path)"><path style="fill:#f26522" d="M.215.215h52.451V70.17H.215z"/><path style="stroke:#231f20;stroke-width:.43px;fill:none" d="M.215.215h52.451V70.17H.215z"/><path d="M24.324 48.682a1.54 1.54 0 0 1-1.488 1.644c-.91 0-1.62-.667-2.955-.667-.955 0-1.82.51-1.82 1.444 0 2.287 7.418.822 7.418 6.553 0 3.176-2.62 5.153-5.686 5.153-1.71 0-5.398-.4-5.398-2.487a1.483 1.483 0 0 1 1.488-1.578c1.044 0 2.288.867 3.732.867 1.466 0 2.266-.822 2.266-1.911 0-2.621-7.419-1.044-7.419-6.197 0-3.11 2.554-5.043 5.508-5.043 1.245 0 4.354.467 4.354 2.222m7.863 5.686h2.266a2.356 2.356 0 0 0 0-4.709h-2.266Zm-3.332-5.909a1.599 1.599 0 0 1 1.733-1.732h3.931c3.266 0 5.687 2.132 5.687 5.309a5.222 5.222 0 0 1-5.553 5.264h-2.466v3.643a1.667 1.667 0 1 1-3.332 0Z" transform="translate(0 .001)" style="fill:#fff"/></g><g style="clip-path:url(#clip-path-2)"><path style="fill:#fcaf17" d="M26.44 26.75 1.941 18.79l11.881 12.06-2.523 16.74L26.44 26.75z"/><path style="fill:#ffcb05" d="M26.44 26.75 11.299 47.59l15.141-7.573 15.141 7.573L26.44 26.75z"/><path class="cls-9" d="m26.44 26.75 15.141 20.84-2.523-16.74 11.881-12.06-24.499 7.96z"/><path style="fill:#ffe7a7" d="m26.44 26.75 24.499-7.96-16.701-2.773L26.44.99v25.76z"/><path class="cls-9" d="M26.44 26.75V.99l-7.798 15.027L1.941 18.79l24.499 7.96z"/></g></g></g></svg>