<?xml version="1.0" encoding="UTF-8" standalone="no"?>
<svg
   version="1.1"
   viewBox="-10 0 589 850"
   id="svg4"
   sodipodi:docname="E-69.svg"
   width="589"
   height="850"
   inkscape:version="1.1.1 (3bf5ae0d25, 2021-09-20)"
   xmlns:inkscape="http://www.inkscape.org/namespaces/inkscape"
   xmlns:sodipodi="http://sodipodi.sourceforge.net/DTD/sodipodi-0.dtd"
   xmlns="http://www.w3.org/2000/svg"
   xmlns:svg="http://www.w3.org/2000/svg">
  <defs
     id="defs8" />
  <sodipodi:namedview
     id="namedview6"
     pagecolor="#ffffff"
     bordercolor="#111111"
     borderopacity="1"
     inkscape:pageshadow="0"
     inkscape:pageopacity="0"
     inkscape:pagecheckerboard="1"
     showgrid="false"
     inkscape:zoom="0.873"
     inkscape:cx="256.58648"
     inkscape:cy="504.5819"
     inkscape:window-width="2560"
     inkscape:window-height="1351"
     inkscape:window-x="-9"
     inkscape:window-y="-9"
     inkscape:window-maximized="0"
     inkscape:current-layer="svg4" />
  <path
     fill="currentColor"
     d="m 52,0 h 467 q 39,5 42,44 0,40 -34,45 -4,1 -8,1 H 94 v 272 h 328 q 39,5 42,44 0,40 -34,45 -4,1 -8,1 H 94 v 308 h 443 q 39,5 42,44 0,40 -34,45 -4,1 -8,1 H 51 q -44,0 -57,-37 -4,-11 -4,-22 V 59 Q -10,18 28,4 40,0 52,0 Z"
     id="path2" />
</svg>
