<svg xmlns="http://www.w3.org/2000/svg" xmlns:svg="http://www.w3.org/2000/svg" id="svg4" width="713" height="874" version="1.1" viewBox="-10 0 713 874"><path id="path2" fill="currentColor" d="M 611,489 H 399 q -37,-7 -41,-44 7,-39 41,-43 h 243 q 46,0 58,38 3,10 3,20 v 367 q 0,36 -37,40 -4,1 -8,1 -37,0 -44,-31 -1,-5 -1,-10 v -96 h -3 Q 535,873 364,874 172,874 71,734 -10,621 -10,443 -10,224 113,102 217,0 377,0 q 206,1 299,153 7,12 7,25 0,32 -35,45 -12,4 -25,4 -30,-1 -45,-26 -57,-96 -154,-111 -23,-3 -48,-3 -146,0 -220,125 -56,93 -56,230 0,199 105,289 66,56 160,56 134,0 202,-106 44,-70 44,-164 z"/></svg>