<svg xmlns="http://www.w3.org/2000/svg" xmlns:svg="http://www.w3.org/2000/svg" id="svg4" width="655" height="862" version="1.1" viewBox="-10 0 655 862"><path id="path2" fill="currentColor" d="m 90,279 v 538 q 0,35 -35,43 -8,2 -15,2 -40,0 -48,-32 -2,-7 -2,-13 V 68 Q -10,20 37,5 53,0 69,0 136,1 175,69 l 287,509 q 25,45 83,161 h 6 Q 545,579 545,574 V 46 q 0,-35 34,-44 8,-2 16,-2 39,0 48,32 2,7 2,14 v 742 q 0,63 -57,73 -8,1 -16,1 -55,0 -87,-44 -8,-11 -16,-24 L 179,279 Q 142,215 93,110 h -7 q 4,108 4,169 z"/></svg>