<?xml version="1.0" encoding="UTF-8" standalone="no"?>
<svg
   version="1.1"
   viewBox="-10 0 761 874"
   id="svg4"
   sodipodi:docname="O-79.svg"
   width="761"
   height="874"
   inkscape:version="1.1.1 (3bf5ae0d25, 2021-09-20)"
   xmlns:inkscape="http://www.inkscape.org/namespaces/inkscape"
   xmlns:sodipodi="http://sodipodi.sourceforge.net/DTD/sodipodi-0.dtd"
   xmlns="http://www.w3.org/2000/svg"
   xmlns:svg="http://www.w3.org/2000/svg">
  <defs
     id="defs8" />
  <sodipodi:namedview
     id="namedview6"
     pagecolor="#ffffff"
     bordercolor="#111111"
     borderopacity="1"
     inkscape:pageshadow="0"
     inkscape:pageopacity="0"
     inkscape:pagecheckerboard="1"
     showgrid="false"
     inkscape:zoom="0.873"
     inkscape:cx="375.71592"
     inkscape:cy="517.18213"
     inkscape:window-width="2560"
     inkscape:window-height="1351"
     inkscape:window-x="-9"
     inkscape:window-y="-9"
     inkscape:window-maximized="0"
     inkscape:current-layer="svg4" />
  <path
     fill="currentColor"
     d="m 377,0 q 194,0 294,141 80,113 80,290 0,219 -123,341 Q 524,874 364,874 170,874 70,733 -10,620 -10,443 -10,224 113,102 217,0 377,0 Z m -1,87 q -146,0 -220,125 -56,93 -56,230 0,201 106,291 66,54 159,54 146,0 220,-125 56,-93 56,-230 Q 641,231 535,141 469,87 376,87 Z"
     id="path2" />
</svg>
