<?xml version="1.0" encoding="UTF-8" standalone="no"?>
<svg
   version="1.1"
   viewBox="-10 0 608 856"
   id="svg4"
   sodipodi:docname="R-82.svg"
   width="608"
   height="856"
   inkscape:version="1.1.1 (3bf5ae0d25, 2021-09-20)"
   xmlns:inkscape="http://www.inkscape.org/namespaces/inkscape"
   xmlns:sodipodi="http://sodipodi.sourceforge.net/DTD/sodipodi-0.dtd"
   xmlns="http://www.w3.org/2000/svg"
   xmlns:svg="http://www.w3.org/2000/svg">
  <defs
     id="defs8" />
  <sodipodi:namedview
     id="namedview6"
     pagecolor="#ffffff"
     bordercolor="#111111"
     borderopacity="1"
     inkscape:pageshadow="0"
     inkscape:pageopacity="0"
     inkscape:pagecheckerboard="1"
     showgrid="false"
     inkscape:zoom="0.873"
     inkscape:cx="273.76861"
     inkscape:cy="504.5819"
     inkscape:window-width="2560"
     inkscape:window-height="1351"
     inkscape:window-x="-9"
     inkscape:window-y="-9"
     inkscape:window-maximized="0"
     inkscape:current-layer="svg4" />
  <path
     fill="currentColor"
     d="m 102,451 h -9 v 360 q 0,33 -35,43 -8,2 -17,2 -40,0 -49,-31 -2,-7 -2,-14 V 59 Q -10,18 28,4 40,0 52,0 h 262 q 235,0 265,171 4,24 4,50 0,124 -103,186 -73,44 -180,44 -45,0 -71,-1 v 4 q 63,53 116,101 l 238,216 q 15,14 15,32 0,31 -30,46 -12,7 -25,7 -19,-1 -34,-14 z m -9,-85 h 205 q 139,0 169,-94 8,-23 8,-50 Q 473,90 308,89 H 93 Z"
     id="path2" />
</svg>
