<svg xmlns="http://www.w3.org/2000/svg" xmlns:svg="http://www.w3.org/2000/svg" id="svg4" width="618" height="874" version="1.1" viewBox="-10 0 618 874"><path id="path2" fill="currentColor" d="m 308,476 -28,-7 Q 107,426 55,348 22,299 22,222 22,100 127,40 198,0 302,0 q 190,1 278,143 7,12 7,26 0,31 -34,44 -13,5 -27,5 -26,-1 -39,-23 -56,-96 -153,-107 -16,-2 -32,-2 -125,0 -160,78 -10,25 -10,53 0,71 52,106 40,27 127,49 l 28,7 q 173,44 228,115 41,52 41,140 0,127 -106,192 -78,48 -193,48 -222,-1 -311,-157 -8,-15 -8,-29 0,-29 35,-41 13,-4 26,-4 29,1 41,21 61,114 192,123 13,1 26,1 127,0 171,-77 18,-32 18,-72 0,-74 -52,-110 -43,-29 -139,-53 z"/></svg>