<?xml version="1.0" encoding="UTF-8" standalone="no"?>
<svg
   version="1.1"
   viewBox="-10 0 618 874"
   id="svg4"
   sodipodi:docname="S-83.svg"
   width="618"
   height="874"
   inkscape:version="1.1.1 (3bf5ae0d25, 2021-09-20)"
   xmlns:inkscape="http://www.inkscape.org/namespaces/inkscape"
   xmlns:sodipodi="http://sodipodi.sourceforge.net/DTD/sodipodi-0.dtd"
   xmlns="http://www.w3.org/2000/svg"
   xmlns:svg="http://www.w3.org/2000/svg">
  <defs
     id="defs8" />
  <sodipodi:namedview
     id="namedview6"
     pagecolor="#ffffff"
     bordercolor="#111111"
     borderopacity="1"
     inkscape:pageshadow="0"
     inkscape:pageopacity="0"
     inkscape:pagecheckerboard="1"
     showgrid="false"
     inkscape:zoom="0.873"
     inkscape:cx="306.9874"
     inkscape:cy="517.18213"
     inkscape:window-width="2560"
     inkscape:window-height="1351"
     inkscape:window-x="-9"
     inkscape:window-y="-9"
     inkscape:window-maximized="0"
     inkscape:current-layer="svg4" />
  <path
     fill="currentColor"
     d="m 308,476 -28,-7 Q 107,426 55,348 22,299 22,222 22,100 127,40 198,0 302,0 q 190,1 278,143 7,12 7,26 0,31 -34,44 -13,5 -27,5 -26,-1 -39,-23 -56,-96 -153,-107 -16,-2 -32,-2 -125,0 -160,78 -10,25 -10,53 0,71 52,106 40,27 127,49 l 28,7 q 173,44 228,115 41,52 41,140 0,127 -106,192 -78,48 -193,48 -222,-1 -311,-157 -8,-15 -8,-29 0,-29 35,-41 13,-4 26,-4 29,1 41,21 61,114 192,123 13,1 26,1 127,0 171,-77 18,-32 18,-72 0,-74 -52,-110 -43,-29 -139,-53 z"
     id="path2" />
</svg>
