<svg xmlns="http://www.w3.org/2000/svg" xmlns:svg="http://www.w3.org/2000/svg" id="svg4" width="1034" height="862" version="1.1" viewBox="-10 0 1034 862"><path id="path2" fill="currentColor" d="M 298,586 422,62 q 12,-49 63,-60 11,-2 22,-2 62,0 81,50 3,6 4,12 l 121,526 q 11,47 30,164 h 6 Q 784,594 785,588 L 922,29 q 8,-28 42,-29 49,0 58,29 2,5 2,10 0,13 -3,22 L 828,800 q -18,61 -84,62 -67,-1 -81,-62 L 540,271 q -7,-32 -19,-95 -9,-49 -14,-73 h -6 Q 471,257 468,271 L 341,800 q -17,61 -83,62 -65,-1 -81,-62 L -7,62 Q -10,43 -10,41 -10,12 29,3 40,0 52,0 87,1 94,29 l 132,559 q 10,45 32,164 h 7 q 21,-115 33,-166 z"/></svg>