<?xml version="1.0" encoding="UTF-8" standalone="no"?>
<svg
   version="1.1"
   viewBox="-10 0 697 862"
   id="svg4"
   sodipodi:docname="Y-89.svg"
   width="697"
   height="862"
   inkscape:version="1.1.1 (3bf5ae0d25, 2021-09-20)"
   xmlns:inkscape="http://www.inkscape.org/namespaces/inkscape"
   xmlns:sodipodi="http://sodipodi.sourceforge.net/DTD/sodipodi-0.dtd"
   xmlns="http://www.w3.org/2000/svg"
   xmlns:svg="http://www.w3.org/2000/svg">
  <defs
     id="defs8" />
  <sodipodi:namedview
     id="namedview6"
     pagecolor="#ffffff"
     bordercolor="#111111"
     borderopacity="1"
     inkscape:pageshadow="0"
     inkscape:pageopacity="0"
     inkscape:pagecheckerboard="1"
     showgrid="false"
     inkscape:zoom="0.873"
     inkscape:cx="343.64261"
     inkscape:cy="511.45475"
     inkscape:window-width="2560"
     inkscape:window-height="1351"
     inkscape:window-x="-9"
     inkscape:window-y="-9"
     inkscape:window-maximized="0"
     inkscape:current-layer="svg4" />
  <path
     fill="currentColor"
     d="M 342,385 589,21 q 15,-20 37,-21 35,0 54,28 7,11 7,21 -1,11 -8,23 L 389,480 v 337 q 0,33 -34,42 -10,3 -19,3 -39,0 -50,-30 -2,-8 -2,-15 V 480 L -4,71 Q -10,61 -10,50 -10,18 26,5 38,0 51,0 74,1 88,21 Z"
     id="path2" />
</svg>
