<svg xmlns="http://www.w3.org/2000/svg" width="601" height="874" viewBox="-10 0 601 874"><path fill="currentColor" d="M503 288q-95 54-160 97 149 77 189 149 24 44 24 105 0 121-101 186-77 49-190 49-158 0-231-93-44-57-44-136 0-88 79-163 41-38 108-82Q66 346 36 281q-16-36-16-85 0-96 84-152Q170 0 265 0q179 0 288 171 20 32 36 67 2 6 2 17-1 18-20 32-19 13-39 13-17-1-29-12zm-37-71Q401 95 289 82q-12-1-23-1-95 0-133 59-15 26-15 55 0 64 50 102 32 24 92 48 117-74 206-128zM262 439q-125 75-155 138-14 31-14 66 0 96 84 132 40 16 90 16 109 0 159-67 27-37 27-84 0-75-66-129-45-35-125-72z"/></svg>