<?xml version="1.0" encoding="UTF-8" standalone="no"?>
<svg
   version="1.1"
   viewBox="-10 0 570 862"
   id="svg4"
   sodipodi:docname="five-53.svg"
   width="570"
   height="862"
   inkscape:version="1.1.1 (3bf5ae0d25, 2021-09-20)"
   xmlns:inkscape="http://www.inkscape.org/namespaces/inkscape"
   xmlns:sodipodi="http://sodipodi.sourceforge.net/DTD/sodipodi-0.dtd"
   xmlns="http://www.w3.org/2000/svg"
   xmlns:svg="http://www.w3.org/2000/svg">
  <defs
     id="defs8" />
  <sodipodi:namedview
     id="namedview6"
     pagecolor="#ffffff"
     bordercolor="#111111"
     borderopacity="1"
     inkscape:pageshadow="0"
     inkscape:pageopacity="0"
     inkscape:pagecheckerboard="1"
     showgrid="false"
     inkscape:zoom="0.873"
     inkscape:cx="281.78694"
     inkscape:cy="504.5819"
     inkscape:window-width="2560"
     inkscape:window-height="1351"
     inkscape:window-x="-9"
     inkscape:window-y="-9"
     inkscape:window-maximized="0"
     inkscape:current-layer="svg4" />
  <path
     fill="currentColor"
     d="m 141,88 -15,272 q 74,-58 163,-58 138,0 214,94 57,71 57,174 0,140 -96,223 -81,69 -198,69 Q 105,862 21,755 6,735 -5,714 q -5,-10 -5,-19 0,-30 33,-43 13,-5 27,-5 28,1 40,23 56,105 177,106 97,0 150,-76 37,-53 37,-126 0,-111 -78,-160 -42,-26 -96,-26 -83,1 -142,59 -22,21 -51,21 -53,-4 -56,-45 V 411 L 48,59 Q 50,16 88,4 99,0 110,0 h 363 q 36,7 40,44 -7,39 -40,44 z"
     id="path2" />
</svg>
