<?xml version="1.0" encoding="UTF-8" standalone="no"?>
<svg
   version="1.1"
   viewBox="-10 0 583 868"
   id="svg4"
   sodipodi:docname="six-54.svg"
   width="583"
   height="868"
   inkscape:version="1.1.1 (3bf5ae0d25, 2021-09-20)"
   xmlns:inkscape="http://www.inkscape.org/namespaces/inkscape"
   xmlns:sodipodi="http://sodipodi.sourceforge.net/DTD/sodipodi-0.dtd"
   xmlns="http://www.w3.org/2000/svg"
   xmlns:svg="http://www.w3.org/2000/svg">
  <defs
     id="defs8" />
  <sodipodi:namedview
     id="namedview6"
     pagecolor="#ffffff"
     bordercolor="#111111"
     borderopacity="1"
     inkscape:pageshadow="0"
     inkscape:pageopacity="0"
     inkscape:pagecheckerboard="1"
     showgrid="false"
     inkscape:zoom="0.873"
     inkscape:cx="280.64147"
     inkscape:cy="511.45475"
     inkscape:window-width="2560"
     inkscape:window-height="1351"
     inkscape:window-x="-9"
     inkscape:window-y="-9"
     inkscape:window-maximized="0"
     inkscape:current-layer="svg4" />
  <path
     fill="currentColor"
     d="m 126,374 5,2 q 73,-65 168,-65 133,0 212,90 62,73 62,174 0,140 -96,223 -81,70 -202,70 Q 130,868 51,766 -10,687 -10,572 -10,357 206,121 256,67 316,11 331,0 347,0 q 33,0 49,27 6,11 6,22 -1,20 -15,32 -175,138 -261,293 z m 154,409 q 111,0 161,-89 27,-50 27,-114 0,-99 -71,-152 -48,-35 -110,-35 -102,0 -157,74 -37,50 -37,117 0,122 85,173 44,26 102,26 z"
     id="path2" />
</svg>
