<svg xmlns="http://www.w3.org/2000/svg" xmlns:svg="http://www.w3.org/2000/svg" id="svg4" width="583" height="868" version="1.1" viewBox="-10 0 583 868"><path id="path2" fill="currentColor" d="m 126,374 5,2 q 73,-65 168,-65 133,0 212,90 62,73 62,174 0,140 -96,223 -81,70 -202,70 Q 130,868 51,766 -10,687 -10,572 -10,357 206,121 256,67 316,11 331,0 347,0 q 33,0 49,27 6,11 6,22 -1,20 -15,32 -175,138 -261,293 z m 154,409 q 111,0 161,-89 27,-50 27,-114 0,-99 -71,-152 -48,-35 -110,-35 -102,0 -157,74 -37,50 -37,117 0,122 85,173 44,26 102,26 z"/></svg>