<?xml version="1.0" encoding="UTF-8" standalone="no"?>
<svg
   version="1.1"
   viewBox="-10 0 573 862"
   id="svg4"
   sodipodi:docname="two-50.svg"
   width="573"
   height="862"
   inkscape:version="1.1.1 (3bf5ae0d25, 2021-09-20)"
   xmlns:inkscape="http://www.inkscape.org/namespaces/inkscape"
   xmlns:sodipodi="http://sodipodi.sourceforge.net/DTD/sodipodi-0.dtd"
   xmlns="http://www.w3.org/2000/svg"
   xmlns:svg="http://www.w3.org/2000/svg">
  <defs
     id="defs8" />
  <sodipodi:namedview
     id="namedview6"
     pagecolor="#ffffff"
     bordercolor="#111111"
     borderopacity="1"
     inkscape:pageshadow="0"
     inkscape:pageopacity="0"
     inkscape:pagecheckerboard="1"
     showgrid="false"
     inkscape:zoom="0.873"
     inkscape:cx="288.65979"
     inkscape:cy="517.18213"
     inkscape:window-width="2560"
     inkscape:window-height="1351"
     inkscape:window-x="-9"
     inkscape:window-y="-9"
     inkscape:window-maximized="0"
     inkscape:current-layer="svg4" />
  <path
     fill="currentColor"
     d="m 112,774 h 411 q 36,7 40,44 -7,39 -40,44 H 34 q -36,0 -43,-33 -1,-6 -1,-12 1,-28 18,-52 87,-123 266,-281 l 36,-32 q 95,-85 118,-139 15,-36 15,-82 0,-84 -67,-124 -37,-21 -84,-21 -119,1 -169,122 -15,33 -49,34 -48,0 -55,-35 -1,-5 -1,-9 0,-8 2,-13 Q 62,63 181,19 234,0 294,0 q 135,0 207,85 50,61 50,146 0,92 -52,161 -37,51 -121,122 l -39,33 Q 193,671 112,774 Z"
     id="path2" />
</svg>
