<svg width="477.259" height="318.528" xmlns="http://www.w3.org/2000/svg"><path d="M475.182 589.039H120.781V353.686h354.401z" style="fill:#ed1c24;fill-opacity:1;fill-rule:nonzero;stroke:none" transform="matrix(1.33333 0 0 -1.33333 -158.68 787.747)"/><path d="M475.182 589.039H120.781V353.686h354.401z" style="fill:none;stroke:#231f20;stroke-width:3.543;stroke-linecap:butt;stroke-linejoin:miter;stroke-miterlimit:10;stroke-dasharray:none;stroke-opacity:1" transform="matrix(1.33333 0 0 -1.33333 -158.68 787.747)"/><path d="M475.457 589.314H120.505V353.412h354.952z" style="fill:none;stroke:#231f20;stroke-width:2.835;stroke-linecap:butt;stroke-linejoin:miter;stroke-miterlimit:4;stroke-dasharray:none;stroke-opacity:1" transform="matrix(1.33333 0 0 -1.33333 -158.68 787.747)"/><path d="m0 0-22.675 15.214 27.632.018 7.587 25.703 8.433-25.711 27.569-.01L25.917-.012l8.229-25.994L12.955-9.421-9.526-26.006Z" style="fill:#fff200;fill-opacity:1;fill-rule:nonzero;stroke:none" transform="matrix(1.33333 0 0 -1.33333 56.623 87.17)"/><path d="m0 0-4.66 7.939 8.395-4.037L9.8 10.599 8.6 1.555l8.37-4.038-9.1-1.314-1.304-9.098-4.009 8.139-9.255-1.747Z" style="fill:#fff200;fill-opacity:1;fill-rule:nonzero;stroke:none" transform="matrix(1.33333 0 0 -1.33333 140.243 136.731)"/><path d="m0 0-7.846 4.816 9.309.383 2.204 8.761 3.191-8.544 9.288.371L8.731.351l3.126-8.644-7.364 5.296-7.346-5.893Z" style="fill:#fff200;fill-opacity:1;fill-rule:nonzero;stroke:none" transform="matrix(1.33333 0 0 -1.33333 172.364 106.725)"/><path d="m0 0-9.188.56 8.034 4.715-2.174 8.77 6.834-6.044 8.02 4.698-3.985-8.286 6.824-6.158L5.374-.533 1.662-9.189z" style="fill:#fff200;fill-opacity:1;fill-rule:nonzero;stroke:none" transform="matrix(1.33333 0 0 -1.33333 174.235 66.207)"/><path d="m0 0-8.373-3.827 4.874 7.94-6.043 6.718 8.874-2.119 4.87 7.915.379-9.186 8.917-2.228-8.505-3.156.795-9.385Z" style="fill:#fff200;fill-opacity:1;fill-rule:nonzero;stroke:none" transform="matrix(1.33333 0 0 -1.33333 143.818 36.818)"/></svg>