<svg width="477.268" height="319.756" xmlns="http://www.w3.org/2000/svg"><defs><clipPath clipPathUnits="userSpaceOnUse" id="a"><path d="M0 0h595.276v841.89H0Z"/></clipPath></defs><path d="M475.575 590.885H121.167V354.611h354.408z" style="fill:#fff;fill-opacity:1;fill-rule:nonzero;stroke:#fff;stroke-width:3.543;stroke-linecap:butt;stroke-linejoin:miter;stroke-miterlimit:10;stroke-dasharray:none;stroke-opacity:1" transform="matrix(1.33333 0 0 -1.33333 -159.194 790.209)"/><path d="M474.474 589.783H122.269v-234.07h352.205z" style="fill:none;stroke:#231f20;stroke-width:3.543;stroke-linecap:butt;stroke-linejoin:miter;stroke-miterlimit:4;stroke-dasharray:none;stroke-opacity:1" transform="matrix(1.33333 0 0 -1.33333 -159.194 790.209)"/><g clip-path="url(#a)" transform="matrix(1.33333 0 0 -1.33333 -159.194 790.209)"><path d="M0 0c33.978 0 61.52 27.545 61.52 61.52 0 33.977-27.542 61.521-61.52 61.521-33.977 0-61.52-27.544-61.52-61.521C-61.52 27.545-33.977 0 0 0" style="fill:#ed1c24;fill-opacity:1;fill-rule:nonzero;stroke:none" transform="translate(298.372 411.228)"/></g></svg>