<svg width="477.259" height="318.528" xmlns="http://www.w3.org/2000/svg"><defs><clipPath clipPathUnits="userSpaceOnUse" id="a"><path d="M0 0h595.276v841.89H0Z"/></clipPath></defs><path d="M476.95 590.549H119.801V352.448H476.95Z" style="fill:#fff;fill-opacity:1;fill-rule:nonzero;stroke:none" transform="matrix(1.33333 0 0 -1.33333 -159.205 787.929)"/><path d="M475.576 589.175H121.175V353.822h354.401z" style="fill:none;stroke:#231f20;stroke-width:3.543;stroke-linecap:butt;stroke-linejoin:miter;stroke-miterlimit:4;stroke-dasharray:none;stroke-opacity:1" transform="matrix(1.33333 0 0 -1.33333 -159.205 787.929)"/><g clip-path="url(#a)" transform="matrix(1.33333 0 0 -1.33333 -159.205 787.929)"><path d="M0 0c-11.5 0-21.553-6.155-27.074-15.342l-2.009-3.59C-33.972-30.047-45.087-37.81-58.009-37.81c-17.44 0-31.578 14.14-31.578 31.579 0 3.201.478 6.287 1.363 9.197a62.947 62.947 0 0 1-3.794-21.591c0-34.844 28.247-63.089 63.09-63.089 27.3 0 50.545 17.34 59.333 41.606a31.528 31.528 0 0 1 1.175 8.527C31.58-14.141 17.44 0 0 0" style="fill:#1959a6;fill-opacity:1;fill-rule:nonzero;stroke:none" transform="translate(327.24 491.136)"/><path d="M0 0c-27.259 0-50.479-17.29-59.296-41.5a31.518 31.518 0 0 1-1.363-9.197c0-17.439 14.138-31.579 31.578-31.579 12.922 0 24.037 7.764 28.926 18.878l2.009 3.591c5.521 9.186 15.574 15.341 27.074 15.341 17.44 0 31.58-14.141 31.58-31.581 0-2.955-.414-5.814-1.175-8.527a62.956 62.956 0 0 1 3.758 21.483C63.091-28.247 34.844 0 0 0" style="fill:#ed1c24;fill-opacity:1;fill-rule:nonzero;stroke:none" transform="translate(298.312 535.602)"/></g><path d="m0 0 33.098 49.068-7.269 4.903L-7.269 4.903Z" style="fill:#231f20;fill-opacity:1;fill-rule:nonzero;stroke:none" transform="matrix(1.33333 0 0 -1.33333 79.108 103.337)"/><path d="m0 0 33.098 49.07-7.27 4.902L-7.269 4.903Z" style="fill:#231f20;fill-opacity:1;fill-rule:nonzero;stroke:none" transform="matrix(1.33333 0 0 -1.33333 96.276 114.917)"/><path d="m0 0 33.097 49.067-7.269 4.903L-7.269 4.903Z" style="fill:#231f20;fill-opacity:1;fill-rule:nonzero;stroke:none" transform="matrix(1.33333 0 0 -1.33333 112.84 126.09)"/><path d="m0 0-7.27 4.903-14.738-21.849 7.268-4.903z" style="fill:#231f20;fill-opacity:1;fill-rule:nonzero;stroke:none" transform="matrix(1.33333 0 0 -1.33333 370.897 196.232)"/><path d="m0 0 7.269-4.904 14.572 21.607-7.268 4.903z" style="fill:#231f20;fill-opacity:1;fill-rule:nonzero;stroke:none" transform="matrix(1.33333 0 0 -1.33333 317.074 255.12)"/><path d="m0 0 7.269-4.903 14.572 21.606-7.268 4.902z" style="fill:#231f20;fill-opacity:1;fill-rule:nonzero;stroke:none" transform="matrix(1.33333 0 0 -1.33333 334.242 266.7)"/><path d="m0 0-7.269 4.903-14.736-21.85 7.267-4.903z" style="fill:#231f20;fill-opacity:1;fill-rule:nonzero;stroke:none" transform="matrix(1.33333 0 0 -1.33333 388.062 207.811)"/><path d="m0 0-7.268 4.903-14.739-21.849 7.269-4.904z" style="fill:#231f20;fill-opacity:1;fill-rule:nonzero;stroke:none" transform="matrix(1.33333 0 0 -1.33333 404.627 218.987)"/><path d="m0 0 7.27-4.904 14.573 21.606-7.269 4.903z" style="fill:#231f20;fill-opacity:1;fill-rule:nonzero;stroke:none" transform="matrix(1.33333 0 0 -1.33333 350.806 277.871)"/><path d="m0 0 7.267 4.904 14.74-21.852-7.27-4.901z" style="fill:#231f20;fill-opacity:1;fill-rule:nonzero;stroke:none" transform="matrix(1.33333 0 0 -1.33333 351.204 36.698)"/><path d="m0 0-7.27-4.903-14.572 21.606 7.268 4.903z" style="fill:#231f20;fill-opacity:1;fill-rule:nonzero;stroke:none" transform="matrix(1.33333 0 0 -1.33333 405.026 95.586)"/><path d="m0 0-7.269-4.903 33.097-49.068 7.27 4.904z" style="fill:#231f20;fill-opacity:1;fill-rule:nonzero;stroke:none" transform="matrix(1.33333 0 0 -1.33333 343.728 41.741)"/><path d="m0 0 7.267 4.901 14.738-21.849-7.269-4.903z" style="fill:#231f20;fill-opacity:1;fill-rule:nonzero;stroke:none" transform="matrix(1.33333 0 0 -1.33333 317.472 59.45)"/><path d="m0 0-7.269-4.902-14.574 21.606 7.27 4.901z" style="fill:#231f20;fill-opacity:1;fill-rule:nonzero;stroke:none" transform="matrix(1.33333 0 0 -1.33333 371.293 118.339)"/><path d="m0 0 7.268 4.903L-25.83 53.97l-7.267-4.902Z" style="fill:#231f20;fill-opacity:1;fill-rule:nonzero;stroke:none" transform="matrix(1.33333 0 0 -1.33333 145.45 262.599)"/><path d="m0 0-7.196-4.852-14.43 21.392 7.197 4.854z" style="fill:#231f20;fill-opacity:1;fill-rule:nonzero;stroke:none" transform="matrix(1.33333 0 0 -1.33333 137.71 267.35)"/><path d="m0 0 7.269 4.902 14.738-21.849-7.269-4.903Z" style="fill:#231f20;fill-opacity:1;fill-rule:nonzero;stroke:none" transform="matrix(1.33333 0 0 -1.33333 84.152 208.755)"/><path d="m0 0-7.269-4.903-33.098 49.07 7.27 4.903z" style="fill:#231f20;fill-opacity:1;fill-rule:nonzero;stroke:none" transform="matrix(1.33333 0 0 -1.33333 121.41 278.815)"/></svg>