<svg width="477.26" height="319.716" xmlns="http://www.w3.org/2000/svg"><path d="M477.024 590.25h-354.47V353.937h354.47z" style="fill:#fff;fill-opacity:1;fill-rule:nonzero;stroke:none" transform="matrix(1.33333 0 0 -1.33333 -161.089 789.317)"/><path d="M280.542 572.06h196.482v18.19H280.542Zm0-36.383h196.482v18.192H280.542Zm0-36.385h196.482v18.191H280.542Zm0-36.394h196.482V481.1H280.542Zm-157.988-36.376h354.47v18.193h-354.47zm0-36.384h354.47v18.192h-354.47zm0-36.201h354.47v18.01h-354.47z" style="fill:#ed1c24;fill-opacity:1;fill-rule:nonzero;stroke:none" transform="matrix(1.33333 0 0 -1.33333 -161.089 789.317)"/><path d="M280.542 590.241H122.574V462.897h157.968z" style="fill:#1959a6;fill-opacity:1;fill-rule:nonzero;stroke:none" transform="matrix(1.33333 0 0 -1.33333 -161.089 789.317)"/><path d="m0 0-1.57-4.804h-5.025l4.101-3.003-1.581-4.739L0-9.609l4.077-2.937-1.582 4.739 4.101 3.003H1.571Z" style="fill:#fff;fill-opacity:1;fill-rule:nonzero;stroke:none" transform="matrix(1.33333 0 0 -1.33333 107.651 27.365)"/><path d="m0 0-1.571-4.804h-5.025l4.101-3.003-1.582-4.739L0-9.609l4.076-2.937-1.582 4.739 4.102 3.003H1.57Z" style="fill:#fff;fill-opacity:1;fill-rule:nonzero;stroke:none" transform="matrix(1.33333 0 0 -1.33333 143.182 27.365)"/><path d="m0 0-1.57-4.804h-5.025l4.101-3.003-1.582-4.737L.001-9.609l4.075-2.935-1.581 4.737 4.101 3.003H1.571Z" style="fill:#fff;fill-opacity:1;fill-rule:nonzero;stroke:none" transform="matrix(1.33333 0 0 -1.33333 178.837 27.39)"/><path d="m0 0-1.571-4.804h-5.024l4.1-3.003-1.582-4.739L0-9.609l4.076-2.937-1.582 4.739 4.101 3.003H1.57Z" style="fill:#fff;fill-opacity:1;fill-rule:nonzero;stroke:none" transform="matrix(1.33333 0 0 -1.33333 36.593 27.365)"/><path d="m0 0-1.571-4.804h-5.024l4.1-3.003-1.58-4.739L0-9.609l4.076-2.937-1.581 4.739 4.101 3.003H1.571Z" style="fill:#fff;fill-opacity:1;fill-rule:nonzero;stroke:none" transform="matrix(1.33333 0 0 -1.33333 72.122 27.365)"/><path d="m0 0-1.57-4.805h-5.025l4.101-3.003-1.581-4.738L0-9.609l4.077-2.937-1.582 4.738 4.101 3.003H1.571Z" style="fill:#fff;fill-opacity:1;fill-rule:nonzero;stroke:none" transform="matrix(1.33333 0 0 -1.33333 107.651 61.748)"/><path d="m0 0-1.571-4.805h-5.025l4.101-3.003-1.582-4.738L0-9.609l4.076-2.937-1.582 4.738 4.102 3.003H1.57Z" style="fill:#fff;fill-opacity:1;fill-rule:nonzero;stroke:none" transform="matrix(1.33333 0 0 -1.33333 143.182 61.748)"/><path d="m0 0-1.57-4.804h-5.025l4.101-3.002-1.582-4.738L.001-9.608l4.075-2.936-1.581 4.738 4.101 3.002H1.571Z" style="fill:#fff;fill-opacity:1;fill-rule:nonzero;stroke:none" transform="matrix(1.33333 0 0 -1.33333 178.837 61.776)"/><path d="m0 0-1.571-4.805h-5.024l4.1-3.003-1.582-4.738L0-9.609l4.076-2.937-1.582 4.738 4.101 3.003H1.57Z" style="fill:#fff;fill-opacity:1;fill-rule:nonzero;stroke:none" transform="matrix(1.33333 0 0 -1.33333 36.593 61.748)"/><path d="m0 0-1.571-4.805h-5.024l4.1-3.003-1.58-4.738L0-9.609l4.076-2.937-1.581 4.738 4.101 3.003H1.571Z" style="fill:#fff;fill-opacity:1;fill-rule:nonzero;stroke:none" transform="matrix(1.33333 0 0 -1.33333 72.122 61.748)"/><path d="m0 0-1.57-4.806h-5.025l4.101-3.003-1.581-4.738L0-9.609l4.077-2.938-1.582 4.738 4.101 3.003H1.571Z" style="fill:#fff;fill-opacity:1;fill-rule:nonzero;stroke:none" transform="matrix(1.33333 0 0 -1.33333 107.651 94.74)"/><path d="m0 0-1.571-4.806h-5.025l4.101-3.003-1.582-4.738L0-9.609l4.076-2.938-1.582 4.738 4.102 3.003H1.57Z" style="fill:#fff;fill-opacity:1;fill-rule:nonzero;stroke:none" transform="matrix(1.33333 0 0 -1.33333 143.182 94.74)"/><path d="m0 0-1.57-4.804h-5.025l4.101-3.004-1.582-4.738L.001-9.609l4.075-2.937-1.581 4.738 4.101 3.004H1.571Z" style="fill:#fff;fill-opacity:1;fill-rule:nonzero;stroke:none" transform="matrix(1.33333 0 0 -1.33333 178.837 94.767)"/><path d="m0 0-1.571-4.806h-5.024l4.1-3.003-1.582-4.738L0-9.609l4.076-2.938-1.582 4.738 4.101 3.003H1.57Z" style="fill:#fff;fill-opacity:1;fill-rule:nonzero;stroke:none" transform="matrix(1.33333 0 0 -1.33333 36.593 94.74)"/><path d="m0 0-1.571-4.806h-5.024l4.1-3.003-1.58-4.738L0-9.609l4.076-2.938-1.581 4.738 4.101 3.003H1.571Z" style="fill:#fff;fill-opacity:1;fill-rule:nonzero;stroke:none" transform="matrix(1.33333 0 0 -1.33333 72.122 94.74)"/><path d="m0 0-1.57-4.805h-5.025l4.101-3.003-1.581-4.738L0-9.608l4.077-2.938-1.582 4.738 4.101 3.003H1.571Z" style="fill:#fff;fill-opacity:1;fill-rule:nonzero;stroke:none" transform="matrix(1.33333 0 0 -1.33333 107.651 129.188)"/><path d="m0 0-1.571-4.805h-5.025l4.101-3.003-1.582-4.738L0-9.608l4.076-2.938-1.582 4.738 4.102 3.003H1.57Z" style="fill:#fff;fill-opacity:1;fill-rule:nonzero;stroke:none" transform="matrix(1.33333 0 0 -1.33333 143.182 129.188)"/><path d="m0 0-1.57-4.805h-5.025l4.101-3.002-1.582-4.738L.001-9.609l4.075-2.936-1.581 4.738 4.101 3.002H1.571Z" style="fill:#fff;fill-opacity:1;fill-rule:nonzero;stroke:none" transform="matrix(1.33333 0 0 -1.33333 178.837 129.213)"/><path d="m0 0-1.571-4.805h-5.024l4.1-3.003-1.582-4.738L0-9.608l4.076-2.938-1.582 4.738 4.101 3.003H1.57Z" style="fill:#fff;fill-opacity:1;fill-rule:nonzero;stroke:none" transform="matrix(1.33333 0 0 -1.33333 36.593 129.188)"/><path d="m0 0-1.571-4.805h-5.024l4.1-3.003-1.58-4.738L0-9.608l4.076-2.938-1.581 4.738 4.101 3.003H1.571Z" style="fill:#fff;fill-opacity:1;fill-rule:nonzero;stroke:none" transform="matrix(1.33333 0 0 -1.33333 72.122 129.188)"/><path d="m0 0-1.571-4.805h-5.025l4.101-3.003-1.581-4.737L0-9.609l4.076-2.936-1.582 4.737 4.101 3.003H1.571Z" style="fill:#fff;fill-opacity:1;fill-rule:nonzero;stroke:none" transform="matrix(1.33333 0 0 -1.33333 125.269 44.422)"/><path d="m0 0-1.571-4.805h-5.025l4.101-3.003-1.582-4.737L0-9.609l4.076-2.936-1.582 4.737 4.101 3.003H1.57Z" style="fill:#fff;fill-opacity:1;fill-rule:nonzero;stroke:none" transform="matrix(1.33333 0 0 -1.33333 160.803 44.422)"/><path d="m0 0-1.57-4.805h-5.025l4.101-3.003-1.582-4.737L.001-9.609l4.075-2.936-1.581 4.737 4.101 3.003H1.571Z" style="fill:#fff;fill-opacity:1;fill-rule:nonzero;stroke:none" transform="matrix(1.33333 0 0 -1.33333 196.628 44.422)"/><path d="m0 0-1.571-4.805h-5.025l4.101-3.003-1.582-4.737L0-9.609l4.076-2.936-1.582 4.737 4.101 3.003H1.57Z" style="fill:#fff;fill-opacity:1;fill-rule:nonzero;stroke:none" transform="matrix(1.33333 0 0 -1.33333 18.68 44.422)"/><path d="m0 0-1.57-4.805h-5.025l4.101-3.003-1.582-4.737L0-9.609l4.077-2.936-1.582 4.737 4.101 3.003H1.571Z" style="fill:#fff;fill-opacity:1;fill-rule:nonzero;stroke:none" transform="matrix(1.33333 0 0 -1.33333 54.21 44.422)"/><path d="m0 0-1.571-4.805h-5.024l4.1-3.003-1.581-4.737L0-9.609l4.075-2.936-1.58 4.737 4.1 3.003H1.571Z" style="fill:#fff;fill-opacity:1;fill-rule:nonzero;stroke:none" transform="matrix(1.33333 0 0 -1.33333 89.74 44.422)"/><path d="m0 0-1.571-4.805h-5.025l4.101-3.003-1.581-4.737L0-9.609l4.076-2.936-1.582 4.737 4.101 3.003H1.571Z" style="fill:#fff;fill-opacity:1;fill-rule:nonzero;stroke:none" transform="matrix(1.33333 0 0 -1.33333 125.269 9.783)"/><path d="m0 0-1.571-4.805h-5.025l4.101-3.003-1.582-4.737L0-9.609l4.076-2.936-1.582 4.737 4.101 3.003H1.57Z" style="fill:#fff;fill-opacity:1;fill-rule:nonzero;stroke:none" transform="matrix(1.33333 0 0 -1.33333 160.803 9.783)"/><path d="m0 0-1.57-4.805h-5.025l4.101-3.003-1.582-4.737L.001-9.609l4.075-2.936-1.581 4.737 4.101 3.003H1.571Z" style="fill:#fff;fill-opacity:1;fill-rule:nonzero;stroke:none" transform="matrix(1.33333 0 0 -1.33333 196.628 9.783)"/><path d="m0 0-1.571-4.805h-5.025l4.101-3.003-1.582-4.737L0-9.609l4.076-2.936-1.582 4.737 4.101 3.003H1.57Z" style="fill:#fff;fill-opacity:1;fill-rule:nonzero;stroke:none" transform="matrix(1.33333 0 0 -1.33333 18.68 9.783)"/><path d="m0 0-1.57-4.805h-5.025l4.101-3.003-1.582-4.737L0-9.609l4.077-2.936-1.582 4.737 4.101 3.003H1.571Z" style="fill:#fff;fill-opacity:1;fill-rule:nonzero;stroke:none" transform="matrix(1.33333 0 0 -1.33333 54.21 9.783)"/><path d="m0 0-1.571-4.805h-5.024l4.1-3.003-1.581-4.737L0-9.609l4.075-2.936-1.58 4.737 4.1 3.003H1.571Z" style="fill:#fff;fill-opacity:1;fill-rule:nonzero;stroke:none" transform="matrix(1.33333 0 0 -1.33333 89.74 9.783)"/><path d="m0 0-1.571-4.805h-5.025l4.101-3.003-1.581-4.739L0-9.609l4.076-2.938-1.582 4.739 4.101 3.003H1.571Z" style="fill:#fff;fill-opacity:1;fill-rule:nonzero;stroke:none" transform="matrix(1.33333 0 0 -1.33333 125.269 77.756)"/><path d="m0 0-1.571-4.805h-5.025l4.101-3.003-1.582-4.739L0-9.609l4.076-2.938-1.582 4.739 4.101 3.003H1.57Z" style="fill:#fff;fill-opacity:1;fill-rule:nonzero;stroke:none" transform="matrix(1.33333 0 0 -1.33333 160.803 77.756)"/><path d="m0 0-1.57-4.805h-5.025l4.101-3.003-1.582-4.739L.001-9.609l4.075-2.938-1.581 4.739 4.101 3.003H1.571Z" style="fill:#fff;fill-opacity:1;fill-rule:nonzero;stroke:none" transform="matrix(1.33333 0 0 -1.33333 196.628 77.756)"/><path d="m0 0-1.571-4.805h-5.025l4.101-3.003-1.582-4.739L0-9.609l4.076-2.938-1.582 4.739 4.101 3.003H1.57Z" style="fill:#fff;fill-opacity:1;fill-rule:nonzero;stroke:none" transform="matrix(1.33333 0 0 -1.33333 18.68 77.756)"/><path d="m0 0-1.57-4.805h-5.025l4.101-3.003-1.582-4.739L0-9.609l4.077-2.938-1.582 4.739 4.101 3.003H1.571Z" style="fill:#fff;fill-opacity:1;fill-rule:nonzero;stroke:none" transform="matrix(1.33333 0 0 -1.33333 54.21 77.756)"/><path d="m0 0-1.571-4.805h-5.024l4.1-3.003-1.581-4.739L0-9.609l4.075-2.938-1.58 4.739 4.1 3.003H1.571Z" style="fill:#fff;fill-opacity:1;fill-rule:nonzero;stroke:none" transform="matrix(1.33333 0 0 -1.33333 89.74 77.756)"/><path d="m0 0-1.571-4.804h-5.025l4.101-3.003-1.581-4.737L0-9.608l4.076-2.936-1.582 4.737 4.101 3.003H1.571Z" style="fill:#fff;fill-opacity:1;fill-rule:nonzero;stroke:none" transform="matrix(1.33333 0 0 -1.33333 125.269 111.947)"/><path d="m0 0-1.571-4.804h-5.025l4.101-3.003-1.582-4.737L0-9.608l4.076-2.936-1.582 4.737 4.101 3.003H1.57Z" style="fill:#fff;fill-opacity:1;fill-rule:nonzero;stroke:none" transform="matrix(1.33333 0 0 -1.33333 160.803 111.947)"/><path d="m0 0-1.57-4.804h-5.025l4.101-3.003-1.582-4.737L.001-9.608l4.075-2.936-1.581 4.737 4.101 3.003H1.571Z" style="fill:#fff;fill-opacity:1;fill-rule:nonzero;stroke:none" transform="matrix(1.33333 0 0 -1.33333 196.628 111.947)"/><path d="m0 0-1.571-4.804h-5.025l4.101-3.003-1.582-4.737L0-9.608l4.076-2.936-1.582 4.737 4.101 3.003H1.57Z" style="fill:#fff;fill-opacity:1;fill-rule:nonzero;stroke:none" transform="matrix(1.33333 0 0 -1.33333 18.68 111.947)"/><path d="m0 0-1.57-4.804h-5.025l4.101-3.003-1.582-4.737L0-9.608l4.077-2.936-1.582 4.737 4.101 3.003H1.571Z" style="fill:#fff;fill-opacity:1;fill-rule:nonzero;stroke:none" transform="matrix(1.33333 0 0 -1.33333 54.21 111.947)"/><path d="m0 0-1.571-4.804h-5.024l4.1-3.003-1.581-4.737L0-9.608l4.075-2.936-1.58 4.737 4.1 3.003H1.571Z" style="fill:#fff;fill-opacity:1;fill-rule:nonzero;stroke:none" transform="matrix(1.33333 0 0 -1.33333 89.74 111.947)"/><path d="m0 0-1.571-4.804h-5.025l4.101-3.003-1.581-4.737L0-9.608l4.076-2.936-1.582 4.737 4.101 3.003H1.571Z" style="fill:#fff;fill-opacity:1;fill-rule:nonzero;stroke:none" transform="matrix(1.33333 0 0 -1.33333 125.269 146.736)"/><path d="m0 0-1.571-4.804h-5.025l4.101-3.003-1.582-4.737L0-9.608l4.076-2.936-1.582 4.737 4.101 3.003H1.57Z" style="fill:#fff;fill-opacity:1;fill-rule:nonzero;stroke:none" transform="matrix(1.33333 0 0 -1.33333 160.803 146.736)"/><path d="m0 0-1.57-4.804h-5.025l4.101-3.003-1.582-4.737L.001-9.608l4.075-2.936-1.581 4.737 4.101 3.003H1.571Z" style="fill:#fff;fill-opacity:1;fill-rule:nonzero;stroke:none" transform="matrix(1.33333 0 0 -1.33333 196.628 146.736)"/><path d="m0 0-1.571-4.804h-5.025l4.101-3.003-1.582-4.737L0-9.608l4.076-2.936-1.582 4.737 4.101 3.003H1.57Z" style="fill:#fff;fill-opacity:1;fill-rule:nonzero;stroke:none" transform="matrix(1.33333 0 0 -1.33333 18.68 146.736)"/><path d="m0 0-1.57-4.804h-5.025l4.101-3.003-1.582-4.737L0-9.608l4.077-2.936-1.582 4.737 4.101 3.003H1.571Z" style="fill:#fff;fill-opacity:1;fill-rule:nonzero;stroke:none" transform="matrix(1.33333 0 0 -1.33333 54.21 146.736)"/><path d="m0 0-1.571-4.804h-5.024l4.1-3.003-1.581-4.737L0-9.608l4.075-2.936-1.58 4.737 4.1 3.003H1.571Z" style="fill:#fff;fill-opacity:1;fill-rule:nonzero;stroke:none" transform="matrix(1.33333 0 0 -1.33333 89.74 146.736)"/><path d="M476.99 590.216H122.588V353.972H476.99Z" style="fill:none;stroke:#231f20;stroke-width:3.543;stroke-linecap:butt;stroke-linejoin:miter;stroke-miterlimit:4;stroke-dasharray:none;stroke-opacity:1" transform="matrix(1.33333 0 0 -1.33333 -161.089 789.317)"/></svg>