<svg xmlns="http://www.w3.org/2000/svg" viewBox="0 0 72.283 51.591"><defs><style>.cls-1{fill:#ed1c24}</style></defs><g id="Layer_2" data-name="Layer 2"><g id="Layer_1-2" data-name="Layer 1"><path class="cls-1" d="M22.535.992V50.6H12.472V18.426H0v-7.583q13.11.284 14.527-9.85ZM50.315 28.134v-7.086a14.12 14.12 0 0 0 6.874-.85 5.341 5.341 0 0 0 3.685-5.316 6.034 6.034 0 0 0-2.055-4.819 7.345 7.345 0 0 0-4.961-1.771 6.983 6.983 0 0 0-5.705 2.444 9.462 9.462 0 0 0-1.948 6.413h-9.567a17.989 17.989 0 0 1 4.925-12.401Q46.203.002 53.787 0a18.817 18.817 0 0 1 11.339 3.544 12.207 12.207 0 0 1 5.314 10.204 11.002 11.002 0 0 1-1.772 6.308 8.653 8.653 0 0 1-5.173 3.826v.141a10.873 10.873 0 0 1 6.414 4.004 11.566 11.566 0 0 1 2.374 7.265 14.727 14.727 0 0 1-5.599 12.047 19.532 19.532 0 0 1-12.827 4.252q-8.504 0-13.535-4.82-5.033-4.817-4.89-13.251H45a10.985 10.985 0 0 0 2.268 6.874 7.697 7.697 0 0 0 6.448 2.906 8.106 8.106 0 0 0 5.776-2.162 7.373 7.373 0 0 0 2.303-5.634q0-4.959-3.898-6.52-2.197-.85-7.582-.85Z"/></g></g></svg>