<svg xmlns="http://www.w3.org/2000/svg" viewBox="0 0 72.283 50.6"><defs><style>.cls-1{fill:#ed1c24}</style></defs><g id="Layer_2" data-name="Layer 2"><g id="Layer_1-2" data-name="Layer 1"><path class="cls-1" d="M22.535 0v49.606H12.473V17.434H0V9.85Q13.109 10.135 14.527 0ZM69.59 0v8.292H49.11L47.126 19.56l.142.142a13.005 13.005 0 0 1 9.709-3.828 14.184 14.184 0 0 1 11.337 4.961 17.763 17.763 0 0 1 3.97 11.905 16.931 16.931 0 0 1-5.422 12.756 17.913 17.913 0 0 1-13.004 5.102q-7.725-.071-12.756-3.968a14.246 14.246 0 0 1-5.67-11.764h10.064a8.14 8.14 0 0 0 2.622 5.386 7.928 7.928 0 0 0 5.527 2.055 7.702 7.702 0 0 0 6.2-2.835 10.147 10.147 0 0 0 2.375-6.732 9.758 9.758 0 0 0-2.303-6.626 7.87 7.87 0 0 0-6.271-2.657 8.984 8.984 0 0 0-7.583 3.969h-9.07L41.882 0Z"/></g></g></svg>