<svg xmlns="http://www.w3.org/2000/svg" viewBox="0 0 72.566 51.591"><defs><style>.cls-1{fill:#ed1c24}</style></defs><g id="Layer_2" data-name="Layer 2"><g id="Layer_1-2" data-name="Layer 1"><path class="cls-1" d="M22.535.992V50.6H12.472V18.426H0v-7.583q13.11.284 14.527-9.85ZM37.205 13.536A11.907 11.907 0 0 1 42.52 3.401 19.272 19.272 0 0 1 53.929 0q8.291 0 12.897 4.82a12.167 12.167 0 0 1 3.686 8.503q0 7.938-7.229 10.559a11.403 11.403 0 0 1 6.84 4.217A12.698 12.698 0 0 1 72.565 36a13.817 13.817 0 0 1-5.81 11.693A20.785 20.785 0 0 1 54 51.591a21.81 21.81 0 0 1-13.04-3.756 13.65 13.65 0 0 1-5.811-11.764 12.57 12.57 0 0 1 2.481-7.901 11.873 11.873 0 0 1 6.874-4.288v-.142q-7.3-2.053-7.3-10.204Zm8.007 22.04a7.881 7.881 0 0 0 2.552 6.094A8.892 8.892 0 0 0 54 44.008a8.398 8.398 0 0 0 6.094-2.338 8.03 8.03 0 0 0 2.41-6.024 7.383 7.383 0 0 0-2.445-5.704A8.65 8.65 0 0 0 54 27.709a9.49 9.49 0 0 0-6.236 1.984 7.37 7.37 0 0 0-2.552 5.882Zm1.134-21.119a5.736 5.736 0 0 0 2.197 4.818 8.526 8.526 0 0 0 5.386 1.702 8.123 8.123 0 0 0 5.315-1.737 5.837 5.837 0 0 0 2.126-4.783 7.057 7.057 0 0 0-1.346-4.394q-1.985-2.48-6.095-2.48a8.097 8.097 0 0 0-5.386 1.843 6.218 6.218 0 0 0-2.197 5.031Z"/></g></g></svg>