<svg xmlns="http://www.w3.org/2000/svg" viewBox="0 0 75.826 51.591"><defs><style>.cls-1{fill:#0072bc}</style></defs><g id="Layer_2" data-name="Layer 2"><g id="Layer_1-2" data-name="Layer 1"><path class="cls-1" d="M10.771 20.056H1.134q-.284-8.787 4.5-14.422Q10.417 0 19.134 0a17.717 17.717 0 0 1 11.905 4.11 14.35 14.35 0 0 1 5.103 11.41 15.872 15.872 0 0 1-4.394 11.268q-2.197 2.338-9.638 7.157-6.521 4.323-9.142 8.008h23.456V50.6H0a20.532 20.532 0 0 1 4.606-13.252q2.905-3.402 11.055-8.929 5.81-3.968 6.874-4.89A9.679 9.679 0 0 0 26.08 16.3a7.527 7.527 0 0 0-2.09-5.564 7.252 7.252 0 0 0-5.351-2.09 6.627 6.627 0 0 0-6.165 3.756 15.553 15.553 0 0 0-1.702 7.654ZM39.401 25.583q0-13.535 5.386-20.056Q49.393 0 57.543 0q8.22 0 12.897 5.527 5.385 6.45 5.386 20.056 0 26.008-18.283 26.008-18.142 0-18.142-26.008Zm10.063 0a45.809 45.809 0 0 0 .992 10.984Q52.3 43.3 57.543 43.3q5.314 0 7.229-6.732a45.866 45.866 0 0 0 .992-10.985q0-17.29-8.221-17.29-8.079-.001-8.08 17.29Z"/></g></g></svg>