<svg xmlns="http://www.w3.org/2000/svg" viewBox="0 0 38.271 53.007"><g data-name="Layer 2"><g data-name="Layer 1"><path d="M37.563 36a11.083 11.083 0 0 0-8.787-11.268v-.141c4.606-1.276 6.945-5.457 6.945-10.134C35.72 5.598 27.004.709 19.067.709 8.862.709 2.272 7.724 1.917 17.858h9.567C11.413 12.755 14.106 9 19.138 9c3.685 0 7.016 2.409 7.016 6.591 0 5.669-6.237 6.519-10.56 6.165v7.087c4.89 0 11.48-.142 11.48 7.37 0 4.677-3.542 7.795-8.078 7.795-5.811 0-8.504-4.394-8.716-9.78H.713C.5 45.638 8.012 52.299 19.138 52.299c9.708 0 18.425-5.883 18.425-16.299Z" style="fill:none;stroke:#6d6e71;stroke-width:1.417px"/><path d="M15.594 28.842v-7.087a14.111 14.111 0 0 0 6.874-.85 5.342 5.342 0 0 0 3.685-5.315 6.035 6.035 0 0 0-2.055-4.82A7.344 7.344 0 0 0 19.138 9a6.986 6.986 0 0 0-5.705 2.444 9.467 9.467 0 0 0-1.95 6.414H1.917A17.99 17.99 0 0 1 6.842 5.456Q11.482.709 19.066.708a18.82 18.82 0 0 1 11.34 3.543 12.207 12.207 0 0 1 5.314 10.205 10.997 10.997 0 0 1-1.772 6.307 8.657 8.657 0 0 1-5.173 3.827v.142a10.865 10.865 0 0 1 6.414 4.004 11.565 11.565 0 0 1 2.374 7.263 14.728 14.728 0 0 1-5.6 12.048 19.535 19.535 0 0 1-12.825 4.252q-8.505 0-13.536-4.82T.712 34.229h9.567a10.985 10.985 0 0 0 2.268 6.874 7.698 7.698 0 0 0 6.448 2.905 8.112 8.112 0 0 0 5.776-2.161 7.375 7.375 0 0 0 2.303-5.634q0-4.96-3.897-6.52-2.197-.85-7.583-.85Z" style="fill:#fd0"/></g></g></svg>