<svg xmlns="http://www.w3.org/2000/svg" viewBox="0 0 37.842 53.008"><g data-name="Layer 2"><g data-name="Layer 1"><path d="M27.07 34.938c0 4.463-2.764 9.07-7.583 9.07-5.03 0-8.008-4.607-8.008-9.213 0-4.89 2.623-9.212 8.008-9.212 5.175 0 7.584 4.677 7.584 9.355Zm10.063-.78a16.56 16.56 0 0 0-3.827-11.056A15.457 15.457 0 0 0 21.898 18c-4.82 0-8.433 1.63-11.197 5.527l-.142-.142c.284-5.527 2.197-15.094 9.496-15.094 3.473 0 6.024 2.836 6.662 6.166h9.567C35.15 5.74 28.772.709 20.197.709 6.095.709.709 14.528.709 26.645.709 39.188 4.748 52.3 19.771 52.3c10.346.001 17.361-8.008 17.361-18.142Z" style="fill:none;stroke:#6d6e71;stroke-width:1.417px"/><path d="M36.283 14.457h-9.567a8.11 8.11 0 0 0-2.303-4.394 6.002 6.002 0 0 0-4.358-1.771q-4.82 0-7.37 5.456a25.89 25.89 0 0 0-2.126 9.638l.142.142Q14.597 18 21.897 18a14.618 14.618 0 0 1 11.41 5.103 16.06 16.06 0 0 1 3.827 11.055 18.25 18.25 0 0 1-4.855 12.933 16.33 16.33 0 0 1-12.508 5.208q-10.347 0-15.165-8.15Q.708 37.631.709 26.646q0-10.418 4.464-17.504A16.699 16.699 0 0 1 20.197.709a16.372 16.372 0 0 1 10.878 3.65 15.202 15.202 0 0 1 5.208 10.098ZM19.488 25.583a7.091 7.091 0 0 0-5.917 2.657 10.274 10.274 0 0 0-2.091 6.555 9.695 9.695 0 0 0 2.126 6.308 7.12 7.12 0 0 0 5.882 2.905 6.789 6.789 0 0 0 5.599-2.835 10.044 10.044 0 0 0 1.984-6.236 10.939 10.939 0 0 0-1.843-6.449 6.636 6.636 0 0 0-5.74-2.905Z" style="fill:#fd0"/></g></g></svg>