<svg xmlns="http://www.w3.org/2000/svg" viewBox="0 0 38.834 53.008"><g data-name="Layer 2"><g data-name="Layer 1"><path d="M28.063 36.355a8.153 8.153 0 0 1-8.504 8.362c-4.82 0-8.787-3.331-8.787-8.433s3.897-7.866 8.787-7.866c4.676 0 8.503 3.189 8.503 7.937Zm-1.134-21.19c0 4.252-3.331 6.52-7.441 6.52-4.04 0-7.582-2.196-7.582-6.52 0-4.393 3.542-6.873 7.581-6.873 6.237 0 7.442 4.322 7.442 6.873Zm11.197 21.543c0-6.235-3.402-10.771-9.283-12.117a10.703 10.703 0 0 0 7.228-10.56C36.07 9.213 31.819.709 19.488.709c-8.08 0-16.724 4.606-16.724 13.535 0 4.89 2.48 8.86 7.299 10.206v.141C4.252 26.008.709 30.472.709 36.78c0 10.7 9.283 15.52 18.85 15.52 9.212 0 18.567-5.174 18.567-15.591Z" style="fill:none;stroke:#6d6e71;stroke-width:1.417px"/><path d="M2.763 14.244A11.908 11.908 0 0 1 8.08 4.11 19.273 19.273 0 0 1 19.488.709q8.29 0 12.897 4.819a12.166 12.166 0 0 1 3.686 8.504q0 7.937-7.229 10.559a11.403 11.403 0 0 1 6.84 4.216 12.7 12.7 0 0 1 2.443 7.902 13.815 13.815 0 0 1-5.81 11.693 20.784 20.784 0 0 1-12.756 3.897 21.815 21.815 0 0 1-13.04-3.756A13.65 13.65 0 0 1 .71 36.78a12.572 12.572 0 0 1 2.48-7.902 11.875 11.875 0 0 1 6.874-4.287v-.142q-7.3-2.055-7.3-10.205Zm8.008 22.04a7.88 7.88 0 0 0 2.552 6.094 8.89 8.89 0 0 0 6.236 2.34 8.394 8.394 0 0 0 6.094-2.34 8.025 8.025 0 0 0 2.41-6.023 7.381 7.381 0 0 0-2.445-5.705 8.65 8.65 0 0 0-6.059-2.232 9.49 9.49 0 0 0-6.236 1.984 7.37 7.37 0 0 0-2.552 5.882Zm1.135-21.118a5.736 5.736 0 0 0 2.196 4.819 8.532 8.532 0 0 0 5.386 1.7 8.126 8.126 0 0 0 5.315-1.736 5.839 5.839 0 0 0 2.126-4.783 7.061 7.061 0 0 0-1.346-4.394q-1.985-2.48-6.095-2.48a8.099 8.099 0 0 0-5.386 1.842 6.219 6.219 0 0 0-2.196 5.032Z" style="fill:#fd0"/></g></g></svg>