<svg xmlns="http://www.w3.org/2000/svg" viewBox="0 0 37.842 53.008"><g data-name="Layer 2"><g data-name="Layer 1"><path d="M26.361 18.212c0 4.89-2.622 9.213-8.008 9.213-5.173 0-7.582-4.677-7.582-9.354 0-4.465 2.764-9.07 7.582-9.07 5.032 0 8.008 4.606 8.008 9.211Zm10.772 8.15C37.133 13.82 33.094.708 18.07.708 7.724.708.71 8.716.71 18.851a16.56 16.56 0 0 0 3.827 11.055 15.456 15.456 0 0 0 11.409 5.103c4.819 0 8.433-1.63 11.197-5.529l.142.142C27 35.15 25.087 44.716 17.788 44.716c-3.473 0-6.024-2.834-6.662-6.165H1.559C2.693 47.268 9.07 52.3 17.645 52.3c14.101.001 19.487-13.819 19.487-25.936Z" style="fill:none;stroke:#6d6e71;stroke-width:1.417px"/><path d="M1.558 38.551h9.567a8.096 8.096 0 0 0 2.304 4.394 5.998 5.998 0 0 0 4.358 1.771q4.819 0 7.37-5.456a25.92 25.92 0 0 0 2.126-9.638l-.142-.142q-3.898 5.528-11.196 5.528a14.617 14.617 0 0 1-11.41-5.102A16.057 16.057 0 0 1 .708 18.85 18.245 18.245 0 0 1 5.562 5.917 16.327 16.327 0 0 1 18.071.708q10.345 0 15.165 8.15 3.896 6.521 3.898 17.504 0 10.418-4.465 17.504a16.698 16.698 0 0 1-15.024 8.433 16.362 16.362 0 0 1-10.878-3.65A15.196 15.196 0 0 1 1.56 38.551Zm16.796-11.126a7.277 7.277 0 0 0 6.023-2.763 10.194 10.194 0 0 0 1.985-6.45 9.698 9.698 0 0 0-2.126-6.306A7.122 7.122 0 0 0 18.354 9a6.592 6.592 0 0 0-5.492 2.729 10.134 10.134 0 0 0-2.09 6.342 10.928 10.928 0 0 0 1.842 6.449 6.746 6.746 0 0 0 5.74 2.905Z" style="fill:#fd0"/></g></g></svg>