<svg xml:space="preserve" width="780.143" height="513.312" xmlns="http://www.w3.org/2000/svg"><path d="m173.37 611.904 27.216-.851c17.113-2.045 33.155-2.381 51.542-2.381 9.604 0 17.495-.377 26.707.51l75.017 1.36 21.433-.51h13.61l15.478.17c7.757 1.203 21.941 1.332 29.088.17 2.382-.056 4.763-.112 7.145-.17l21.943-1.7 38.785-.681 12.587-.17 13.61-.34c5.632-.7 12.744-1.148 18.541-.34 4.202.586 10.517.557 13.948.17l4.933.68 9.867-.51h11.397c12.924-2.102 20.135-2.311 26.744-10.546 3.43-4.273 4.51-10.572 6.464-16.331 1.077-2.098-1.625-4.196-.548-6.294 1.547-3.923 2.748-1.247 4.253-4.952l1.02-8.675 1.191-9.186-.17-16.16c.42-3.924 3.92-10.923 4.555-15.31 2.257-15.568.818-32.131 2.382-48.99l-.68-8.845.85-23.305.34-12.928c.983-.148 1.261-.415 1.871-.851.034-.898.141-.88-.17-1.36-.344-.772-.655-.95-1.53-1.191l1.7-13.61.34-7.994v-9.696c.574-9.333-.293-20.49-2.21-29.598v-19.392c-.529-4.985.202-11.397.85-15.48.692-4.37-1.44-8.804-1.72-12.588-.48-6.475.147-15.29-.85-21.093-.058-3.46-3.895-6.918-3.95-10.376-.625-3.233.641-6.465.018-9.697-2.212-11.121-.646-15.38-7.995-21.773-3.149-2.74-1.195-4.238-5.879-5.273l-5.273-.511c-7.846-4-19.5-3.781-29.939-5.613l-7.654-.17-15.82-.17c-11.728-.73-24.266.318-35.722-1.361l-19.393-.681c-6.41-1.007-14.198-.878-21.263-.68-11.474.32-23.83-.067-34.702 1.7-7.71.284-15.423.568-23.134.85-4.85.76-13.023.056-17.35-.34l-22.795-.51-12.588.17c-4.706.114-9.413.228-14.119.34-14.416 1.907-32.36 2.084-47.459 2.553h-28.748l-27.217.68-8.846-.34c-10.582 1.585-24.973 1.503-35.212-.17-6.1-.996-12.066-.4-17.52-1.361-7.45-1.313-14.974-.134-21.434-1.021l-8.335.17c-11.596-.894-21.863 8.819-32.396 10.623-11.169.85-22.342-6.804-33.51-5.954-6.85 1.453-12.29 4.757-18.032 7.315-4.415 1.966-4.015 3.315-7.182 6.464-6.597 6.556-9.484 7.568-11.492 18.976l-.51 12.077-1.53 14.459c.541 11.53 3.665 23.228 3.061 35.723-.297 6.13-1.232 12.19-1.872 18.37l.851 15.82c-.659 4.233-.953 11.834-.17 16.842 1.098 7.03-.008 14.789 1.191 22.284 1.015 6.345 2.277 16.312 1.19 23.304-1.89 12.165-.566 24.934-1.53 37.764l-.17 7.995c-.284 4.479-.568 8.96-.85 13.438-1.2 6.502-3.63 14.763-3.063 21.774.81 9.996 2.838 18.268 4.593 27.046 1.112 5.564-2.319 10.373-.85 15.65l3.741 8.676c2.212 9.638 4.423 12.664 6.635 22.302 1.3 2.986-1.24 5.296.718 7.655 2.346 2.827 6.232 3.687 9.526 5.614.985.576 1.15 2.109 2.381 2.38h4.593c5.427.872 11.87.53 17.521.34 9.456-.316 22.287.903 32.49 2.043 6.787.758 14.37.91 20.583 2.21 6.293.455 12.59.908 18.882 1.362" style="fill:#231f20;fill-opacity:1;fill-rule:evenodd;stroke:none" transform="matrix(1.33333 0 0 -1.33333 -67.6 820.61)"/><path d="m169.967 615.457-17.521-1.531c-14.848-2.706-30.114-2.4-45.758-4.083l-7.485.68c-6.486 1.129-12.558-1.17-16.841-2.381l-4.763-.68c-15.55-6.971-13.885-20.171-18.541-37.253l-4.593-12.758c-.951-4.318 2.118-8.064 1.19-13.098l-4.592-25.006c-1.224-7.025.954-14.257 2.04-20.073l1.702-22.113.17-11.738c-.141-9.221-.264-18.988 1.19-27.387.388-2.228-.572-10.601.51-11.737 2.509-1.03 18.192 3.755 20.584 4.593 11.205 3.923 22.139 7.04 33.34 10.546 7.288 2.282 14.742 3.373 21.264 5.784l23.645 7.825 17.35 4.252a593.693 593.693 0 0 1 28.749 11.057l13.778 4.253 12.758 6.464c8.183 4.17 16.512 8.08 24.496 12.248 22.94 11.975 46.089 22.358 69.743 33.51 3.034 1.43 5.478 4.008 8.335 5.444 4.685-1.41 8.968-4.448 15.48-2.892 1.474.624 2.949 1.248 4.423 1.87 1.953.463 3.778-.405 5.103-.68 3.099-.641 6.002.59 8.335 1.362 3.02 1 6.193-1.61 8.846-.681l7.825-6.123 5.783-2.892 4.253-3.062c8.56-4.083 17.125-8.165 25.686-12.248 14.346-7.3 28.393-15.833 43.037-22.964 7.236-3.524 14.724-6.157 21.773-9.526l11.227-3.572c24.623-10.716 51.122-19.08 77.229-28.068l8.165-1.871 8.335-3.062c9.76-2.795 19.294-4.636 28.408-7.995l18.2-3.402.34.17-1.19 34.872.68 8.845c.623 3.905-.194 9.023-.68 11.738l.17 11.227c.005 8.78-.14 16.485-1.53 23.985-1.296 6.987.94 14.127-.171 21.093l.17 10.036c.478 3.614-.598 15.34-1.701 18.882-2.084 6.692-5.297 13.432-7.824 19.732-2.322 5.79-2.803 12.462-7.315 15.99-4.753 3.716-11.81 5.712-18.882 6.975-4.217.753-8.328.19-11.907.85-4.735.872-9.356-.53-13.95.17-3.026.46-5.387-2.013-7.824-1.531-7.883 1.559-19.238-.622-26.877.51-4.171.619-8.408.123-12.247.34-11.75.666-21.664.346-34.872 1.02-10.943.342-21.888.682-32.83 1.022-3.617.629-7.95.566-11.227.85-9.376.815-21.876 1.68-33.001.68-5.047-.112-10.093-.226-15.14-.34H366.61l-14.29.51-25.855-.68h-25.686l-23.985-.68c-6.111-.947-15.702-1.324-22.624-.34l-13.61-.17-28.237 1.7-30.96 1.532z" style="fill:#99def9;fill-opacity:1;fill-rule:evenodd;stroke:none" transform="matrix(1.33333 0 0 -1.33333 -67.6 820.61)"/><path d="M364.398 527.682c-4.244-2.33-8.41.213-12.248-.51-3.362-.634-8.293-2.775-12.758-2.042-2.78.458-5.677 3.231-9.185 2.212l-11.397-5.784c-10.852-5.134-21.664-9.903-31.98-15.139-21.816-11.074-44.659-20.698-65.66-32.83-4.495-2.597-10.265-3.534-15.65-5.104-5.036-1.467-10.19-4.17-14.8-6.124l-4.423-1.87c.388-.26.207-.312.68-.17 7.206-3.514 24.505 6.472 29.94 3.231l.34-1.53c-1.184-3.15-5.719-3.884-6.975-7.316l.17-.34c9.65-.109 18.151 3.267 26.366 5.274 8.315 2.03 16.131 1.973 24.496 3.912 5.14 1.192 16.182 4.933 20.582 2.381 3.153.987 8.448 7.312 10.887 9.697 8.572 8.377 17.465 17.014 24.496 26.876 1.731 2.43 7.964 12.967 10.716 11.227l.17-1.19c-.857-3.407-5.956-8.63-8.165-11.227-8.85-10.402-17.399-20.534-27.387-29.769l-9.015-7.995-1.19-4.253c-.88-1.598-2.357-3.359-2.042-5.613l1.701-.17c2.293 1.294 3.668 5.594 5.103 7.825l5.443 6.464c1.094-.022 1.328-.233 2.041-.51l.171-1.02c-1.009-2.002-8.307-10.488-7.655-11.739 4.336 1.43 12.481 4.438 17.861 2.382 1.225-.468 1.88-2.06 2.892-2.552h2.041c1.052-.348 1.92-1.563 2.552-2.38l-.17-3.914h.85c4.514 1.685 15.514 8.666 19.732 6.975 1.27-3.557 4.906-6.025 7.485-8.336 6.847 2.501 12.602 8.287 18.371 12.248 1.337.918 2.64 2.43 4.253 3.062 2.738 1.074 4.621-.745 7.145-.17 2.122.483 3.624 3.273 6.634 2.551 1.768-.423 2.89-1.889 4.252-2.72 3.461-2.113 10.364-5.017 14.63-5.785-1.063 2.933-5.236 5.476-7.315 7.655-2.004 2.101-3.698 5.402-5.103 7.995l.51 1.021c-2.573 4.503-7.209 8.087-10.206 12.417-6.015 8.688-11.2 18.168-17.52 26.707.291.695-.049 1.284.34 2.211l2.04 2.382c.612 1.483-.069 3.396.34 4.593 2.788 1.431 7.858 3.141 8.336 6.804z" style="fill:#fff;fill-opacity:1;fill-rule:evenodd;stroke:none" transform="matrix(1.33333 0 0 -1.33333 -67.6 820.61)"/><path d="M371.203 527.002c-.43-4.66-5.886-5.132-7.825-8.165-1.005-1.573-1.331-5.232-2.551-7.485l2.38-6.124c5.319-9.007 11.54-17.584 17.862-25.686 1.885-2.414 10.589-9.527 11.057-11.737l-.85-.85-1.872.34.34-.681c.698-1.584 8.83-10.387 10.377-11.567 9.04-.317 5.479 2.839 9.866 5.103 3.014.652 17.816-5.918 19.222-2.381h-.34c-2.091 2.209-6.754 3.968-7.315 7.484.855 1.482 1.522 2.159 3.743 1.872 1.427-3.312 4.652-5.361 6.974-7.825 2.53.625 4.662 2.144 7.825 2.21 7.487.159 14.842-3.66 23.475-2.04 1.428 4.28 4.326 4.269 8.845 4.082v.17a18309.67 18309.67 0 0 1-7.655 3.913v1.02c2.744 2.17 5.938-.164 8.506-1.7l9.185-5.104c5.92-2.12 12.086-2.161 19.052-3.402 2.387-.425 13.67-1.242 14.629.34-2.536.61-4.772 1.908-6.974 2.722-3.12.85-6.237 1.7-9.356 2.552-10.354 4.676-21.986 9.264-32.15 13.778-12.438 5.525-23.113 10.526-34.361 16.84-3.841 2.156-7.861 3.65-11.397 5.955-7.541 3.855-15.084 7.71-22.624 11.567-2.382 1.02-4.763 2.04-7.145 3.062-6.634 3.822-13.508 8.954-20.923 11.737" style="fill:#fff;fill-opacity:1;fill-rule:evenodd;stroke:none" transform="matrix(1.33333 0 0 -1.33333 -67.6 820.61)"/><path d="M320.17 518.667c1.975-.357 2.284-.84 2.893-2.552-.806-1.582-2.285-2.322-3.402-3.572-7.236-8.103-16.162-14.26-24.496-21.263-2.428-2.041-7.718-7.08-9.866-2.722l.34.85c4.497 1.61 8.438 5.206 11.908 7.996 4.833 3.885 9.993 7.17 14.289 11.567 2.946 3.016 5.213 6.868 8.335 9.696M340.584 508.46l1.36-.51c1.209-2.562.405-7.523-.17-11.227l-.17-21.264c-.32-3.818 1.062-12.089.51-13.438l-.34-.34-1.19-.17c-.996.175-1.424.471-1.871 1.19l.17 30.79c-.615 4.14-.196 12.753 1.7 14.97M377.667 508.46c4.413-1.587 7.249-7.625 10.206-10.887 5.877-6.483 13.223-12.398 20.413-17.52 2.942-2.097 7.128-3.867 8.505-7.485l-1.02-.68c-3.59 1.598-6.35 4.552-9.356 6.803-7.788 5.83-14.401 11.895-21.263 18.542-1.751 1.696-8.416 8.055-8.846 10.206l.34.511 1.02.51M347.558 496.553c.804-.11 1.108-.223 1.53-.68 1.52-1.01.669-3.92 1.192-5.784.902-3.218 5.6-19.973 4.252-22.114h-.17c-2.737.419-2.818 4.524-3.402 7.145-1.005 4.513-5.326 16.454-4.593 20.582l1.19.85" style="fill:#231f20;fill-opacity:1;fill-rule:evenodd;stroke:none" transform="matrix(1.33333 0 0 -1.33333 -67.6 820.61)"/><path d="M65.692 363.53c4.69-.001 7.372-1.057 10.377-2.722 1.482-.821 2.11-2.651 4.082-3.232 2.42-.713 4.659.52 6.634.68l3.402-.68c2.679.765 5.81 2.078 9.186 2.722l11.567 1.02 4.763 3.913c1.612 1.024 4.269 1.587 5.954 2.382 6.684-.754 15.335.79 20.753 2.04 6.25 1.444 12.145 1.603 18.882 2.552 10.2 1.439 18.758-4.288 30.279-2.381 8.284 1.37 17.94 4.5 27.727 2.722 7.923-1.441 13.985-6.111 24.325-4.423l11.908.85h6.804c17.639 3.088 38.137 4.033 55.965 6.975 5.505.908 9.52-1.816 14.629-1.531 4.308 1.02 8.619 2.04 12.928 3.062 6.236 1.36 12.475 2.72 18.712 4.082 5.655 1.617 10.899 3.903 17.18 5.103 12.926 2.47 26.638-2.67 37.934-4.592 9.972-1.698 17.124 3.357 23.985 5.443 3.232.982 6.195 1.379 9.696 1.7.964-.056 1.928-.112 2.892-.17l-.34.51c-4.16 1.35-11.091 9.538-14.46 12.589-4.12 3.734-8.565 7.073-12.077 11.397-3.412 4.203-6.038 8.97-9.186 13.439-1.937 2.749-5.691 4.023-7.655 6.634-2.31 3.07-4.29 6.497-6.464 9.526l-6.804 9.015-4.593 1.02-9.015 3.403c-1.532.809-8.175 4.447-9.356 4.253-2.221-.433-3.01-2.223-5.103-2.552-1.931-.303-4.557.805-6.294.51v-.17c5.518-14.995 12.053-29.755 18.37-44.227 2.156-4.422 4.31-8.846 6.465-13.27.922-1.48 2.816-1.99 3.062-4.081l-.85-1.021c-4.648.115-8.191 11.48-9.867 15.31l-11.056 23.815c-3.673 7.118-5.542 15.094-9.356 21.943h-.17c-3.193-1.288-5.626-4.11-8.165-6.123l-7.655-5.104c-1.344-.924-3.37-3.867-6.294-2.891-2.706.902-6.125 8.174-10.377 8.675-3.447-1.385-14.897-8.457-18.541-6.294-2.033 1.207-.747 3.759-2.212 5.443l-2.041.34c-1.51.842-2.071 2.896-3.912 3.403-3.143.864-15.933-2.552-18.032-3.913-1.755-1.137-2.583-3.656-4.422-4.933l-1.531.34-.17.51 2.04 3.403-.17.51c-4.452.679-3.495 4.985-2.211 7.655-2.668-.873-6.556-5.812-8.845-7.655-6.03-4.855-11.855-9.865-18.031-14.63-1.64-1.262-8.192-7.352-10.547-6.463l-1.191 1.19v.51l3.402 1.702 14.289 10.887 11.738 10.376c2.222 1.647 9.622 7.115 10.206 9.697l-.17.17c-10.485.178-19.394-3.758-28.068-5.614-1.861-.4-2.672 1.14-4.933.68l-18.201-4.082c-5.268-1.46-15.69-5.34-20.753-1.701l-.34 1.87c1.236 2.887 4.068 4.237 5.954 6.465l-24.496-5.783c-2.067-.25-2.38 1.356-3.912 1.53l-7.825-2.211c-1.778-.207-2.943 1.272-4.083 1.19l-10.376-3.231c-10.787-3.224-20.582-5.958-30.45-9.526-6.61-2.391-15.251-2.653-21.773-5.273-4.38-1.76-9.907-2.74-14.63-4.593-11.598-4.552-24.971-8.701-38.613-11.057-1.148-6.498-.463-13.685-1.191-20.753-1.092-10.61-.841-23.162-.85-34.021 4.503.725 10.964 1.014 11.567-4.253" style="fill:#8c629a;fill-opacity:1;fill-rule:evenodd;stroke:none" transform="matrix(1.33333 0 0 -1.33333 -67.6 820.61)"/><path d="M469.694 460.66c-2.412-1.753-2.852-4.045-6.464-4.763-8.584-1.707-22.385 5.613-27.897 1.021l.34-.51 12.418-9.867c7.89-6.703 16.894-12.733 25.345-18.712 5.953-3.799 11.91-7.598 17.861-11.397 1.98-1.2 5.257-1.41 6.805-3.062l-.17-.68-1.7-1.7c-3.89.408-16.786 9.583-19.904 12.077l-8.165 5.103c-7.833 5.526-16.213 11.45-23.305 17.861-3.675 3.323-8.722 5.22-12.077 8.845l-3.402-1.36c-5.496-1.26-12.07 2.91-17.52 2.891-2.522-3.21-4.73-4.525-9.017-4.763v-.17l5.274-6.124 6.464-9.015c2.245-2.742 5.622-4.658 7.824-7.485 2.44-3.799 4.877-7.598 7.315-11.397 6.358-7.548 13.916-14.549 21.433-20.923l6.124-4.253 3.572-.85c1.367-1.05 1.763-3.183 3.233-4.253 5.192-.047 8.805 1.556 13.608 2.382l20.243-.17 25.005 4.592c3.782.614 7.596-.54 10.377-1.19 6.468-1.51 12.99-2.674 18.882-.34 2.651 1.05 4.417 3.05 6.634 4.422 2.644 1.64 5.59 2.284 8.505 3.743 6.402 3.201 12.082 7.641 19.052 10.206 6.991 2.573 16.433 2.245 23.815 3.572 3.94.708 8.492.554 12.928 1.531 4.227.931 6.752 2.067 10.887 1.021l-.68 6.294c-21.015 2.75-39.334 10.277-58.347 15.65-13.08 3.695-25.755 7.013-37.424 12.077l-13.098 4.933c-.647-.796-.949-1.367-1.7-2.04-1.682.106-2.168.91-3.403 1.19l-11.567-.34-15.65 1.87-.17-.34.17-.17 34.872-20.072c9.397-4.749 18.835-9.642 28.748-13.779l11.567-4.083c2.195-.766 5.284-.572 6.974-1.36v-1.36l-1.53-1.532c-7.473.35-18.848 6.272-24.836 9.015-17.256 7.908-32.925 16.701-48.82 26.027-8.712 5.11-15.952 11.412-29.429 11.737" style="fill:#8c629a;fill-opacity:1;fill-rule:evenodd;stroke:none" transform="matrix(1.33333 0 0 -1.33333 -67.6 820.61)"/><path d="M455.745 453.686c2.784-.017 11.656-7.397 14.29-9.016 9.972-6.133 19.618-12.956 29.767-18.711 2.175-1.234 10.713-4.331 11.908-5.614l-.34-1.361c-3.566-2.436-11.746 3.97-14.8 5.614l-42.356 26.536-.17.85zM195.143 450.284c.898.042 1.59.017 2.04-.34.543-.387.883-1.077.682-1.701-1.028-2.878-12.316-7.547-15.48-9.356-14.083-8.052-29.632-14.336-43.547-22.624-2.19-1.304-15.811-7.82-17.521-6.124-.977.53-1.455 1.99-.34 2.722 1.488.834 3.308.167 4.933.85l8.335 3.913 29.769 15.479c10.63 5.448 21.863 10.256 31.129 17.18M214.365 445.69l1.19-.34c.554-.721 1.516-1.805 1.02-2.551-1.081-2.584-10.923-6.983-13.777-8.675-9.704-5.756-19.086-12.184-29.088-17.521-3.396-1.813-9.053-6.948-13.1-7.315-1.167.676-1.866.84-1.53 2.212 7.373 2.942 13.997 8.759 20.753 12.588 11.808 6.69 23.473 14.18 34.532 21.603M278.325 443.31c1.277-.034 1.607-.378 2.38-.852.173-.75.502-1.425.172-2.21l-2.552-3.573-8.335-16.67c-3.402-5.556-6.804-11.115-10.207-16.67-3.345-5.5-6.69-11.002-10.036-16.5-1.196.008-1.664.264-2.381.68-.537 2.653 6.284 11.542 8.165 14.458 5.696 8.836 11.288 18.29 16.16 27.727 2.396 4.642 3.823 9.538 6.634 13.61M527.53 443.14c3.516.054 10.572-3.974 13.95-5.274 12.132-4.253 24.268-8.507 36.401-12.758 3.556-1.108 18.321-3.239 20.073-4.933-.022-1.287-.35-1.63-1.02-2.212-4.943-.134-9.165 1.545-13.099 2.722-14.04 4.2-25.787 8.476-38.954 13.268-6.279 2.285-14.125 3.474-18.202 7.995l.851 1.191M379.878 440.248h1.021c2.504-1.633 3.148-4.99 4.592-7.655 3.697-6.822 7.373-13.893 11.057-20.413 1.691-2.992 4.972-5.883 4.933-9.866l-.51-.17c-.358-.286-.336-.263-1.02-.34-2.785 1.94-4.038 6.022-5.784 9.016l-15.82 27.557.34 1.53c.397.114.794.228 1.191.34M291.083 433.103c.915-.105 1.143-.247 1.53-.85.963-1.526-1.726-7.17-2.381-9.016-2.928-8.25-4.655-18.509-8.675-26.026h-1.871l-1.021.85c.146 3.985 2.69 8.504 4.083 11.908 3.22 7.874 3.98 16.76 8.335 23.134" style="fill:#231f20;fill-opacity:1;fill-rule:evenodd;stroke:none" transform="matrix(1.33333 0 0 -1.33333 -67.6 820.61)"/><path d="M633.166 355.194c.102 9.378.834 19.36 2.381 28.578.565 3.364.07 6.82-.17 9.866-.534 6.763-.312 14.741-1.02 21.433h-.17c-2.836-1.817-9.156-.747-13.609-1.53-10.713-1.887-23.477-1.542-33.51-4.934-4.359-1.473-8.63-4.714-12.419-6.974l-14.118-6.804c-3.369-1.9-6.09-4.619-10.377-5.954-9.686-3.017-17.523 4.334-28.067 2.552-7.366-1.245-13.677-3.209-20.753-4.593H479.39l-13.438-2.382c.896-2.877 4.321-3.746 5.103-6.294l-.51-.34c-4.392 1.3-5.075 5.121-7.485 6.294h-1.7l-4.934 2.041c-7.506 1.735-14.934-2.72-20.073-4.593l-10.546-2.38c-12.652-2.02-25.295 7.461-39.805 5.102-7.452-1.21-14.084-3.234-20.583-5.613l-18.2-3.743c-4.347-1.372-9.148-2.816-13.95-3.572-5.427-.854-10.216 2.766-16.67 1.701l-24.496-3.742-15.99-.85-13.949-2.552-7.484.17-12.418-.85h-8.165v-.17l.17-.17c2.8-.075 5.06-1.204 7.485-1.702 2.513-.516 6.126.175 8.675-.85 5.231-2.105 9.641-4.81 16.33-5.784 3.673-.535 7.647 1.191 11.057 2.041 3.952.985 6.068-1.704 9.526-1.02 5.254 1.038 8.764 4.242 14.46 4.762 5.101.467 7.471-2.997 11.736-3.742 4.211-.735 8.833 1.106 12.418-.34 2.776-1.119 3.792-3.744 7.315-4.083l13.268 2.722c4.214.674 7.327-2.043 11.057-.68 4.786 1.748 7.438 5.432 13.438 5.953 5.214.454 12.253-1.434 15.65-3.402 1.474-1.02 2.95-2.04 4.423-3.062 4.168-1.42 9.044 1.47 13.95.681 4.648-.748 8.947-2.42 14.117-2.042 11.824.867 17.066 9.612 28.918 10.377 4.102.265 6.91-5.718 12.418-6.294 4.584-.479 8.441 2.2 12.588 2.892 6.63 1.105 10.39-5.595 18.712-4.083 9.847 1.79 16.727 5.968 27.387 7.655 3.855.61 6.682-1.438 9.866-1.7 3.275-.27 7.846-.022 11.057.68 2.264.494 5.828 1.8 9.015 1.02l6.805-2.722 7.314-.85 8.846.51 15.14 1.701c2.327.378 5.928.763 7.994 0 4.541-1.676 9.677-3.179 14.63-4.933 5.305-1.879 11.855-5.814 19.562-4.423l.68 1.701c1.576-.224 1.243-.675 3.062-.68M215.045 369.824l-10.547-.68c-6.537-1.255-13.772-3.241-20.752-2.382-4.592.85-9.186 1.7-13.779 2.552-4 .674-7.902-.24-10.717-.511-7.987-.771-16.01-1.68-24.325-3.232l.17-.34c4.922-.671 11.984-4.584 17.011-3.742 8.11 1.358 21.596 9.849 28.067.68 8.954 2.377 13.946-2.086 21.434-3.572 7.943-1.576 16.946 2.72 23.134 4.933 1.566.56 6.666 1.029 7.825 1.87l-.17.34c-3.369.02-5.018 2.183-7.655 3.063l-9.696 1.02" style="fill:#b08fc2;fill-opacity:1;fill-rule:evenodd;stroke:none" transform="matrix(1.33333 0 0 -1.33333 -67.6 820.61)"/><path d="M58.888 365.4c-1.663-.745-3.764-.756-5.103-1.7-.053-7.937.362-14.646 1.53-21.604l-.68-16.84c9.77-1.016 23.38-.226 34.192 1.53 7.03.34 14.063.68 21.093 1.022 4.973.797 12.199.38 16.67-.341 7.626-1.231 16.037-1.406 23.305-.34l11.227-.17 18.882 1.19 9.185-.17 12.078.17 19.902-1.36h6.124l11.057-.51c13.284-2.151 29.853-.865 43.887-2.382l21.604.17c7.647-1.208 15.48-.81 23.815-.85 10.772-.054 22.217-.061 32.49.68 13.543.976 28.643-.057 43.547 1.36 4.026.228 8.052.455 12.078.68 3.912.115 7.825.228 11.737.342l41.336 2.04c10.867.564 23.195 1.853 33.34.68h11.398c3.629.17 7.258.34 10.887.512l45.758-.341h22.284l24.155-.51c5.76.488 12.552 1.394 17.18.68v1.02c-1.448 5.508-.528 12.93-.51 19.393l-14.46 1.7c-9.38 2.969-18.015 7.432-28.576 9.187-8.868 1.473-16.717-3.981-26.367-2.552-2.638.392-6.036-.1-9.015.85-2.868.915-5.174 2.823-9.186 2.893-4.655.08-10.368-2.915-17.011-1.871-3.756.589-7.398 2.137-11.567 1.36-10.3-1.92-18.103-6.688-28.578-7.314-5.856-.351-8.977 3.138-13.098 4.082-6.09 1.396-10.117-4.478-17.011-2.891-4.187.963-6.447 6.518-11.227 5.953-11.418-1.348-16.21-8.958-28.237-10.036-5.357-.48-10.3 1.66-15.14 2.21l-12.247-1.19c-2.322.466-3.556 2.372-5.274 3.403-2.735 1.64-6.506 2.26-10.206 2.892-8.451 1.443-12.148-3.798-17.691-5.614-5.055-1.656-7.62 1.713-13.268.68l-12.418-2.721c-3.82-.28-5.45 3.713-8.505 4.593l-12.078.17c-3.12.676-5.03 2.74-8.335 3.402-4.507.9-12.044-3.398-15.65-4.593-2.972-.984-5.353.427-7.825.85-3.22.552-6.376-1.232-9.015-1.7-9.472-1.682-16.267 3.858-22.625 6.123h-6.294c-2.551.68-5.103 1.36-7.654 2.042-5.771 1.029-10.08-2.403-13.78-3.743-4.191-1.518-10.101-2.863-15.138-2.721-7.288.206-11.014 3.109-16.33 4.422-3.442.85-6.062-1.66-8.846-1.02-3.126.717-4.398 3.948-7.995 4.593-5.275.945-14.233-3.89-19.222-4.933-5.175-1.083-10.006 1.705-13.95 2.89-3.873 1.167-7.763.798-12.416 1.702-2.065.4-4.482 1.292-6.975.51-3.465-1.086-5.524-3.687-7.655-6.123-3.371.07-6.603.923-10.376.17l-8.335-1.871-2.382-1.531-5.443.85c-2.134-.29-4.251-.654-6.294 0l-8.335 5.274c-5.312 2.06-6.77-4.102-9.186 4.422l-3.232.85" style="fill:#7aa64d;fill-opacity:1;fill-rule:evenodd;stroke:none" transform="matrix(1.33333 0 0 -1.33333 -67.6 820.61)"/><path d="m528.04 326.447-8.845-.17c-7.291-1.114-16.382.615-24.835 0-6.226-.454-13.675.493-20.073-.34-12.793-1.667-26.834-1.221-39.294-1.872l-31.64-1.871-16.84-.34c-6.758-1.044-13.414-.433-20.753-.68l-12.418-.341-12.928-.68-15.82.34c-5.945.87-12.451-.236-18.201.68-10.491 1.672-19.444-1.342-29.6.17l-30.618 1.362-20.753 1.53h-8.335c-8.037 1.258-16.301 1.02-25.516 1.02-9.735 0-21.227.047-29.77-1.02l-5.952.17c-10.663-1.096-20.665-.428-29.6.68-5.921.736-14.001.425-20.412-.34-8.708-1.038-18.687-.327-27.897-1.7l-23.645-1.361c.006-6.641-1.405-11.104-2.041-17.521-.331-3.34.543-8.584 1.19-11.737.284-4.99.568-9.981.85-14.97 1.873-11.383 4.096-19.952 10.548-26.196 2.804-2.713 7.426-3.752 11.227-5.443 5.535-2.464 10.454-5.545 17.35-6.805l21.604-1.19c10.958-1.807 21.779-2.377 32.83-4.253l23.135.17c9.786-.446 19.988.635 29.258 2.212l19.222 1.02 61.409-1.361h23.815l17.35-.34 33-2.381 13.95-.341 14.459.17 15.65.34c8.178.847 20.494 1.329 28.918.17l19.902-.68c14.007-2.332 31.743-2.735 46.609-1.02 8.708 1.004 16.893.188 25.856 1.36l37.934 1.02h12.588c6.373.717 12.979.605 18.88 1.702 2.168.403 7.19-.21 8.167 1.36-.877.103-1.413.343-1.872.852l.51.34 6.295.68c7.55 1.7 15.515 2.64 20.923 6.464 5.41 3.827 5.075 13.468 6.464 21.434l2.722 16.84.85 19.733c.817 5.23 1.59 17.324.17 22.624h-.17c-3.868-1.244-8.505-.824-12.758-.341l-10.036-.34-9.696.68-73.316.51" style="fill:#99dccd;fill-opacity:1;fill-rule:evenodd;stroke:none" transform="matrix(1.33333 0 0 -1.33333 -67.6 820.61)"/><path d="m600.506 307.225 19.732-.17c2.234-.351 5.682.65 7.315-.34h.34l-.17-.681c-4.987-2.087-19.951-2.226-26.026-1.701-2.888.25-4.186-1.096-6.464.34v1.36c.113.115.226.228.34.34 1.187.762 3.48.277 4.933.852M154.828 306.884c4.897-.193 22.607-.41 24.325-3.912h-.34c-1.866-.67-5.114.618-6.804 1.02-4.224 1.005-12.653 1.987-17.691 1.191-6.747-.624-13.496-1.248-20.243-1.87-7.316-1.312-16.331-2.604-24.495-2.043-4.777.33-12.325-2.647-15.48-1.19l.17.51c4.818 2.661 11.438 1.831 18.03 2.892l29.43 2.722 13.098.68M182.385 302.972c16.417-2.072 36.074-1.105 54.944-1.701l25.856-.17v-.17l-10.716-1.361-48.651-.17c-5.734.4-20.138.305-21.943 3.402l.51.17M446.56 300.42l29.939-1.53c6.576-.114 13.155-.228 19.732-.34 4.819-.115 9.639-.228 14.459-.34 10.205.055 20.414.112 30.619.17 7.723.787 18.747 1.016 25.346-.34l-.17-.852c-3.486-1.917-23.694-1.056-29.94-.34l-15.308-.51-20.583-.17c-9.538-.107-21.13-.61-29.77.68-4.312.644-23.176-.24-24.324 3.572M555.598 290.554c10.919-4.508 28.573-2.673 41.336-5.443 3.154-.686 6.754-.404 9.356-1.36-.216-.789-.347-.885-1.021-1.192-4.68-1.32-8.751.07-12.928.68l-26.026 2.552c-5.031.951-9.748.318-11.908 4.083l.34.51.85.17M302.65 285.45l55.795-1.87 34.36-.34.17-.341-.17-.34c-15.812-1.444-34.142-2.2-50.52-.68l-17.521.68-15.31.51c-2.167.253-6.918.533-6.804 2.382M238.52 284.6c3.72-.903 16.29.903 17.35-.68-19.14-1.617-42.033-1.912-61.748-2.042l-20.753-.51-19.902-1.7c-1.957-.377-5.492-1.948-7.145-1.362l-1.02.851.17 1.36c6.069 2.532 14.762 1.4 22.114 2.382 6.912.923 16.256 1.021 24.495 1.021a62521.397 62521.397 0 0 1 27.047.34l19.392.34M318.47 270.141l3.742-1.36c13.608-.114 27.218-.228 40.826-.34h12.418c9.58-.114 19.166-.228 28.748-.34l20.923-.682c3.367-.002 8.36.457 9.866-.68v-.17c-10.293-.008-23.417-1.257-34.022-.68l-22.454.34-29.938-.17h-25.686c-2.047.376-4.155.07-4.933 1.701-.411.368-.512 1.075-.341 1.53l.85.851M513.582 267.42l49.84-.17-.17-.51c-17.101-3.71-36.812-.682-57.495-1.701-12.344-.61-24.883-1.406-37.423-2.212-5.722-.367-11.36-1.173-16.841-.68-.495.987-.964 1.25-.68 2.72 4.196 1.5 10.822-.486 15.99.342l33 1.7 13.779.51" style="fill:#231f20;fill-opacity:1;fill-rule:evenodd;stroke:none" transform="matrix(1.33333 0 0 -1.33333 -67.6 820.61)"/></svg>