<svg xmlns="http://www.w3.org/2000/svg" viewBox="0 0 102.641 102.047"><defs><clipPath id="clip-path" transform="translate(-5.076 .003)"><path style="fill:none" d="M0 0h100.633v102.047H0z"/></clipPath><style>.cls-3{fill:#fdddce}.cls-5{fill:#fdd1b0}.cls-9{fill:#58595b}</style></defs><g id="Layer_2" data-name="Layer 2"><g style="clip-path:url(#clip-path)" id="Layer_1-2" data-name="Layer 1"><path class="cls-3" d="M59.562 77.261c8.993-4.8 11.545-15.297 11.545-15.297l16.42.68 10.118-26.77s-57.272-8.096-59.225-5.847a16.553 16.553 0 0 0-2.847 5.85s-4.797-1.799-7.646 1.646a14.756 14.756 0 0 0-3.301 6.6s-.6 8.398-.751 10.344c-.146 1.951 16.495 13.5 14.994 16.195" transform="translate(-5.076 .003)"/><path transform="rotate(-80.987 88.806 51.78)" style="fill:#abe1fa" d="M72.923 35.147h36.838v27.317H72.923z"/><path class="cls-5" d="m53.166 0 3.431 1.863 1.093 2.075-2.336.211-3.429-1.861L50.831.215 53.166 0z"/><path transform="rotate(-61.483 30.913 54.04)" style="fill:#007947" d="M-19.522 47.82H86.419v3.901H-19.522z"/><path style="fill:#005d34" d="m7.155 97.049-2.337.211L55.355 4.15l2.336-.211-50.536 93.11z"/><path style="fill:#00b26b" d="M1.39 95.397.296 93.325 50.831.214l1.094 2.073L1.39 95.397z"/><path class="cls-9" d="m53.825 1.247 1.371.744.437.83-.935.085-1.371-.745-.438-.83.936-.084z"/><path style="fill:#231f20" d="m0 102.047 2.985-2.229-.933.086L0 102.047z"/><path style="fill:#f8aa9e" d="m4.817 97.26 2.337-.211-4.169 2.769-.933.087 2.765-2.645z"/><path style="fill:#fffac2" d="M1.39 95.397.296 93.325.244 98.33l.436.828.71-3.761z"/><path class="cls-5" d="m1.39 95.397 3.427 1.862-2.765 2.645-1.372-.746.71-3.761z"/><path style="fill:#808285" d="m.68 99.158-.437-.828L0 102.047l.68-2.889z"/><path class="cls-9" d="M2.052 99.904.68 99.158 0 102.047l2.052-2.143z"/><path class="cls-3" d="M28.181 41.386s-10.984-1.39-16.341 4.348c-4.198 4.499.599 19.798-.297 22.196-.902 2.397-2.55 8.544.148 9.444 1.73.574 5.696-3.3 7.2-8.097 1.496-4.797.6-13.794 1.347-14.245a46.457 46.457 0 0 1 4.945-1.65M38.868 70.663s-13.194 1.494-14.846 3.147c-1.647 1.647-4.347 4.65-3.147 6.75 1.2 2.096 5.097.594 7.646.45 2.552-.15 22.046 1.048 31.04-3.748" transform="translate(-5.076 .003)"/></g></g></svg>