<svg xmlns="http://www.w3.org/2000/svg" viewBox="0 0 99.656 68.022"><defs><clipPath id="clip-path" transform="translate(-8.07 -17.357)"><path style="fill:none" d="M0 0h100.625v90.93H0z"/></clipPath><style>.cls-3{fill:#fdddce}.cls-5{fill:#fdd1b0}.cls-9{fill:#58595b}</style></defs><g id="Layer_2" data-name="Layer 2"><g style="clip-path:url(#clip-path)" id="Layer_1-2" data-name="Layer 1"><path class="cls-3" d="M59.57 66.145c8.994-4.8 11.546-15.298 11.546-15.298l16.42.68 10.118-26.77s-57.272-8.095-59.225-5.846a16.554 16.554 0 0 0-2.847 5.85s-4.797-1.799-7.646 1.646a14.756 14.756 0 0 0-3.301 6.599s-.6 8.399-.751 10.345c-.146 1.951 16.495 13.499 14.994 16.195" transform="translate(-8.07 -17.357)"/><path transform="rotate(-80.987 77.152 33.736)" style="fill:#abe1fa" d="M72.931 24.03h36.838v27.317H72.931z"/><path class="cls-5" d="m28.327 11.835 3.431 1.863 1.093 2.075-2.336.211-3.429-1.861-1.094-2.073 2.335-.215z"/><path transform="rotate(-61.483 5.395 54.141)" style="fill:#007947" d="M-2.871 54.085h53.785v3.901H-2.871z"/><path style="fill:#005d34" d="m7.155 63.023-2.337.211 25.697-47.25 2.336-.211-25.696 47.25z"/><path style="fill:#00b26b" d="M1.39 61.372.296 59.3l25.695-47.25 1.094 2.072L1.39 61.372z"/><path class="cls-9" d="m28.985 13.082 1.371.744.437.83-.935.085-1.371-.745-.438-.83.936-.084z"/><path style="fill:#231f20" d="m0 68.021 2.985-2.229-.933.086L0 68.021z"/><path style="fill:#f8aa9e" d="m4.817 63.234 2.337-.211-4.169 2.769-.933.087 2.765-2.645z"/><path style="fill:#fffac2" d="M1.39 61.372.296 59.3l-.052 5.005.436.828.71-3.761z"/><path class="cls-5" d="m1.39 61.372 3.427 1.862-2.765 2.645-1.372-.746.71-3.761z"/><path style="fill:#808285" d="m.68 65.133-.437-.828L0 68.022l.68-2.889z"/><path class="cls-9" d="M2.052 65.879.68 65.133 0 68.022l2.052-2.143z"/><path class="cls-3" d="M28.19 30.27s-10.984-1.39-16.342 4.347c-4.198 4.5.599 19.798-.297 22.196-.902 2.397-2.549 8.544.148 9.444 1.73.574 5.697-3.3 7.2-8.097 1.496-4.797.6-13.794 1.347-14.245a46.457 46.457 0 0 1 4.945-1.649M38.877 59.546s-13.194 1.494-14.846 3.147c-1.647 1.647-4.347 4.65-3.147 6.75 1.2 2.096 5.097.594 7.646.45 2.552-.149 22.045 1.048 31.04-3.748" transform="translate(-8.07 -17.357)"/></g></g></svg>