<svg xmlns="http://www.w3.org/2000/svg" xmlns:xlink="http://www.w3.org/1999/xlink" viewBox="0 0 103.844 114.727"><defs><clipPath id="clip-path"><path class="cls-1" d="M0 0h103.843v114.727H0z"/></clipPath><clipPath id="clip-path-2"><path class="cls-1" d="M34.445 41.653a5.641 5.641 0 1 0 5.642-5.638 5.641 5.641 0 0 0-5.642 5.638"/></clipPath><clipPath id="clip-path-3"><path class="cls-1" d="M69.272 46.559a5.64 5.64 0 1 0 5.64-5.641 5.64 5.64 0 0 0-5.64 5.641"/></clipPath><radialGradient id="radial-gradient" cx="-554.637" cy="108.109" r="1" gradientTransform="matrix(5.6408 0 0 -5.6408 3168.667 651.474)" gradientUnits="userSpaceOnUse"><stop offset="0" stop-color="#f6b1cf"/><stop offset="1" stop-color="#fff"/></radialGradient><radialGradient id="radial-gradient-2" cx="-554.635" cy="108.108" r="1" gradientTransform="matrix(5.6404 0 0 -5.6404 3203.278 656.33)" xlink:href="#radial-gradient"/><style>.cls-1,.cls-4{fill:none}.cls-3{fill:#fff}.cls-4{stroke:#231f20;stroke-linecap:round;stroke-linejoin:round;stroke-width:1.46px}.cls-6{fill:#231f20}</style></defs><g id="Layer_2" data-name="Layer 2"><g id="Layer_1-2" data-name="Layer 1"><g style="clip-path:url(#clip-path)"><path class="cls-3" d="M36.899 52.688S24.146 37.972 21.449 23.75c0 0 6.62-5.15 6.13-10.79-.53-6.108-3.923-5.396-3.923-5.396S19.242-4.207 8.942 3.15-.133 19.826 2.81 22.769a27.7 27.7 0 0 0 5.642 4.414s11.28 26.24 25.504 43.408c0 0 2.207 32.861-.246 43.407h41.447l-1.718-27.712s11.528 12.018 20.11 5.886 4.415-24.769 4.415-24.769a10.217 10.217 0 0 0 5.15-9.32c0-6.865-11.282-8.584-15.45-5.15s-2.943 7.603-2.943 7.603a4.178 4.178 0 0 0-.246 4.415c1.227 2.697 4.414 2.697 4.414 2.697s.246 12.017-2.451 11.281c-2.7-.735-13.49-9.566-17.657-16.431-4.17-6.866-31.882-9.809-31.882-9.809"/><path class="cls-4" d="M36.899 52.688S24.146 37.972 21.449 23.75c0 0 6.62-5.15 6.13-10.79-.53-6.108-3.923-5.396-3.923-5.396S19.242-4.207 8.942 3.15-.133 19.826 2.81 22.769a27.7 27.7 0 0 0 5.642 4.414s11.28 26.24 25.504 43.408c0 0 2.207 32.861-.246 43.407h41.447l-1.718-27.712s11.528 12.018 20.11 5.886 4.415-24.769 4.415-24.769a10.217 10.217 0 0 0 5.15-9.32c0-6.865-11.282-8.584-15.45-5.15s-2.943 7.603-2.943 7.603a4.178 4.178 0 0 0-.246 4.415c1.227 2.697 4.414 2.697 4.414 2.697s.246 12.017-2.451 11.281c-2.7-.735-13.49-9.566-17.657-16.431-4.17-6.866-31.882-9.81-31.882-9.81Z"/><path class="cls-3" d="M84.946 40.142a27.064 27.064 0 1 1-27.064-27.064 27.063 27.063 0 0 1 27.064 27.064"/><path class="cls-4" d="M84.946 40.142a27.064 27.064 0 1 1-27.064-27.064 27.063 27.063 0 0 1 27.064 27.064Z"/><path class="cls-4" d="M62.65 44.104s0-3.433-1.471-3.433-3.435 2.207-3.435 2.207"/><path d="M70.987 51.217s-19.375-2.207-23.053-4.66c0 0-2.697 13.489 7.603 14.96s15.45-10.3 15.45-10.3" style="fill:#fabfbf"/><path class="cls-4" d="M70.987 51.217s-19.375-2.207-23.053-4.66c0 0-2.697 13.489 7.603 14.96s15.45-10.3 15.45-10.3Z"/><path class="cls-6" d="M51.218 34.69c-.228 1.47-.84 2.6-1.368 2.517-.526-.083-.769-1.342-.54-2.814s.84-2.6 1.366-2.519.77 1.342.542 2.815"/><path class="cls-4" d="M51.218 34.69c-.228 1.47-.84 2.6-1.368 2.517-.526-.083-.769-1.342-.54-2.814s.84-2.6 1.366-2.519.77 1.342.542 2.815Z"/><path class="cls-6" d="M72.65 37.043c-.228 1.47-.84 2.6-1.368 2.518-.526-.083-.769-1.342-.541-2.814s.841-2.601 1.367-2.52.77 1.343.542 2.816"/><path class="cls-4" d="M72.65 37.043c-.228 1.47-.84 2.6-1.368 2.518-.526-.083-.769-1.342-.541-2.814s.841-2.601 1.367-2.52.77 1.343.542 2.816ZM24.636 7.809s-9.564 4.414-10.79 9.81c-1.227 5.394 8.829-2.207 8.829-2.207M7.96 7.319s3.678 0 4.413 3.433 1.472 9.32-1.225 9.564c-2.699.246-2.943-5.885-2.943-5.885L5.752 15.9"/><path class="cls-4" d="M12.864 4.866a8.166 8.166 0 0 1 3.924 8.339M16.788 3.394a5.433 5.433 0 0 1 3.189 6.132M84.722 60.536s8.829-4.414 10.053-.49c1.227 3.924-4.17 3.679-4.17 3.679M98.209 52.198a4.834 4.834 0 0 0-2.453 4.17c-.246 3.187 0 5.394 1.47 5.394s2.944-3.924 2.944-3.924"/><path class="cls-4" d="M94.53 51.217a7.35 7.35 0 0 0-1.963 7.111M91.832 51.463s-4.414 1.96-3.187 7.847"/></g><g style="clip-path:url(#clip-path-2)"><path style="fill:url(#radial-gradient)" d="M34.445 36.014h11.282v11.28H34.445z"/></g><g style="clip-path:url(#clip-path-3)"><path style="fill:url(#radial-gradient-2)" d="M69.272 40.917h11.279v11.281H69.272z"/></g></g></g></svg>