<svg xmlns="http://www.w3.org/2000/svg" xmlns:xlink="http://www.w3.org/1999/xlink" viewBox="0 0 87.2 107.285"><defs><clipPath id="clip-path"><path class="cls-1" d="M0 0h87.2v107.284H0z"/></clipPath><clipPath id="clip-path-2"><path class="cls-1" d="M63.367 32.493a5.641 5.641 0 1 0 5.64-5.639 5.642 5.642 0 0 0-5.64 5.639"/></clipPath><clipPath id="clip-path-3"><path class="cls-1" d="M26.336 32.493a5.64 5.64 0 1 0 5.64-5.639 5.642 5.642 0 0 0-5.64 5.639"/></clipPath><radialGradient id="radial-gradient" cx="-569.641" cy="230.292" r="1" gradientTransform="matrix(5.6404 0 0 -5.6404 3282.018 1331.438)" gradientUnits="userSpaceOnUse"><stop offset="0" stop-color="#f6b1cf"/><stop offset="1" stop-color="#fff"/></radialGradient><radialGradient id="radial-gradient-2" cx="-569.646" cy="230.293" r="1" gradientTransform="matrix(5.6408 0 0 -5.6408 3245.216 1331.523)" xlink:href="#radial-gradient"/><style>.cls-1,.cls-4{fill:none}.cls-2{clip-path:url(#clip-path)}.cls-3{fill:#fff}.cls-4{stroke:#231f20;stroke-linecap:round;stroke-linejoin:round;stroke-width:1.46px}.cls-5{fill:#abe1fa}</style></defs><g id="Layer_2" data-name="Layer 2"><g id="Layer_1-2" data-name="Layer 1"><g class="cls-2"><path class="cls-3" d="M62.397 49.168s8.63 7.76 11.036 19.13c2.698 12.752 4.414 38.256 4.414 38.256H28.798s-.736-12.997 1.963-33.107c2.697-20.11 7.837-26.485 7.837-26.485Z"/><path class="cls-4" d="M62.397 49.168s8.63 7.76 11.036 19.13c2.698 12.752 4.414 38.256 4.414 38.256H28.798s-.736-12.997 1.963-33.107c2.697-20.11 7.837-26.485 7.837-26.485Z"/><path class="cls-4" d="M61.416 65.844a195.2 195.2 0 0 1 3.189 40.22"/><path class="cls-3" d="M77.94 27.794A27.064 27.064 0 1 1 50.876.73 27.064 27.064 0 0 1 77.94 27.794"/><path class="cls-4" d="M77.94 27.794A27.064 27.064 0 1 1 50.876.73 27.064 27.064 0 0 1 77.94 27.794Z"/><path class="cls-4" d="M54.36 39.166s-.757-2.134-2.602-2.206-2.984 2.419-2.984 2.419M41.63 49.588s2.486-2.107 4.974-1.723 3.825 2.106 6.122 1.914 3.636-2.678 5.357-2.678 4.209 1.53 4.209 1.53M41.815 19.364s-2.487 5.55-10.331 6.888M58.075 16.304a10.464 10.464 0 0 0 5.549 6.12 15.399 15.399 0 0 0 7.651 1.149"/><path class="cls-5" d="M77.119 45.784a61.852 61.852 0 0 1 3.398 5.594c1.568 3.071 4.49 3.932 5.523 2.18 1.916-3.245-2.848-5.337-8.921-7.774"/><path class="cls-4" d="M77.119 45.784a61.852 61.852 0 0 1 3.398 5.594c1.568 3.071 4.49 3.932 5.523 2.18 1.916-3.245-2.848-5.337-8.921-7.774Z"/></g><g style="clip-path:url(#clip-path-2)"><path style="fill:url(#radial-gradient)" d="M63.367 26.854h11.282v11.281H63.367z"/></g><g style="clip-path:url(#clip-path-3)"><path style="fill:url(#radial-gradient-2)" d="M26.336 26.854h11.281v11.281H26.336z"/></g><g class="cls-2"><path class="cls-4" d="M57.693 30.268s.962 3.25 3.832 3.25a3.581 3.581 0 0 0 3.437-2.866"/><path class="cls-5" d="M64.579 35.243a21.68 21.68 0 0 1-2.295 5.165c-1.34 1.913-.574 4.973 2.104 4.973s2.104-3.252 1.53-4.973c-.572-1.722-1.34-5.165-1.34-5.165"/><path class="cls-4" d="M64.579 35.243a21.68 21.68 0 0 1-2.295 5.165c-1.34 1.913-.574 4.973 2.104 4.973s2.104-3.252 1.53-4.973c-.572-1.722-1.34-5.165-1.34-5.165ZM43.345 29.313a3.853 3.853 0 0 1-3.252 4.016 3.017 3.017 0 0 1-3.826-2.487"/><path class="cls-3" d="M23.305 50.355s6.312-.955 8.61-.574c2.295.383 1.531-3.443-.766-4.017-2.295-.574-6.888.191-6.888.191Z"/><path class="cls-4" d="M23.305 50.355s6.312-.955 8.61-.574c2.295.383 1.531-3.443-.766-4.017-2.295-.574-6.888.191-6.888.191Z"/><path class="cls-3" d="M37.252 51.621s-14.138 8.876-18.92 10.023c0 0 2.296-6.698 4.017-9.184 0 0 4.781-1.912 5.356-4.974.574-3.06 2.487-6.12 4.017-6.502 1.531-.383 4.591 3.25 6.313 2.294s.382-3.252-3.06-6.313-8.799-1.53-12.435 1.913-3.828 5.55-6.505 7.845C13.36 49.017.541 65.086.732 72.93s11.86 6.314 20.278 1.722 11.096-6.314 11.096-6.314"/><path class="cls-4" d="M37.252 51.621s-14.138 8.876-18.92 10.023c0 0 2.296-6.698 4.017-9.184 0 0 4.781-1.912 5.356-4.974.574-3.06 2.487-6.12 4.017-6.502 1.531-.383 4.591 3.25 6.313 2.294s.382-3.252-3.06-6.313-8.799-1.53-12.435 1.913-3.828 5.55-6.505 7.845C13.36 49.017.541 65.086.732 72.93s11.86 6.314 20.278 1.722 11.096-6.314 11.096-6.314"/></g></g></g></svg>