<svg xmlns="http://www.w3.org/2000/svg" xmlns:xlink="http://www.w3.org/1999/xlink" viewBox="0 0 76.768 108.02"><defs><clipPath id="clip-path"><path class="cls-1" d="M0 0h76.767v108.02H0z"/></clipPath><clipPath id="clip-path-2"><path class="cls-1" d="M24.292 30.531a5.641 5.641 0 1 0 5.641-5.64 5.642 5.642 0 0 0-5.641 5.64"/></clipPath><clipPath id="clip-path-3"><path class="cls-1" d="M61.078 29.549a5.64 5.64 0 1 0 5.64-5.639 5.64 5.64 0 0 0-5.64 5.639"/></clipPath><radialGradient id="radial-gradient" cx="-569.526" cy="391.3" r="1" gradientTransform="matrix(5.6408 0 0 -5.6408 3242.496 2237.762)" gradientUnits="userSpaceOnUse"><stop offset="0" stop-color="#f6b1cf"/><stop offset="1" stop-color="#fff"/></radialGradient><radialGradient id="radial-gradient-2" cx="-569.532" cy="391.298" r="1" gradientTransform="matrix(5.6411 0 0 -5.6411 3279.522 2236.914)" xlink:href="#radial-gradient"/><style>.cls-1,.cls-4{fill:none}.cls-2{clip-path:url(#clip-path)}.cls-3{fill:#fff}.cls-4{stroke:#231f20;stroke-linecap:round;stroke-linejoin:round;stroke-width:1.46px}</style></defs><g id="Layer_2" data-name="Layer 2"><g id="Layer_1-2" data-name="Layer 1"><g class="cls-2"><path class="cls-3" d="M60.588 49.904s8.63 7.76 11.036 19.13c2.698 12.752 4.414 38.256 4.414 38.256h-49.05s-.735-12.997 1.964-33.107c2.697-20.11 10.544-26.732 10.544-26.732Z"/><path class="cls-4" d="M60.588 49.904s8.63 7.76 11.036 19.13c2.698 12.752 4.414 38.256 4.414 38.256h-49.05s-.735-12.997 1.964-33.107c2.697-20.11 10.544-26.732 10.544-26.732Z"/><path class="cls-3" d="M75.774 27.794A27.064 27.064 0 1 1 48.708.73a27.064 27.064 0 0 1 27.066 27.064"/><path class="cls-4" d="M75.774 27.794A27.064 27.064 0 1 1 48.708.73a27.064 27.064 0 0 1 27.066 27.064Z"/><path class="cls-3" d="M30.773 60.173s2.943-8.091-.246-8.337c-3.187-.246-4.168 8.583-4.168 8.583s-5.64-5.64-7.848-3.433 5.395 6.62 5.64 9.319-.49 6.13-2.452 13.978.49 13.98 6.13 14.225c5.643.244 8.83-4.415 9.076-12.018s0-12.507 0-12.507 4.168-3.924 6.62-6.621.247-5.152-1.47-3.925a31.62 31.62 0 0 0-3.925 3.679s5.642-7.356 2.453-8.337-5.64 6.62-5.64 6.62 2.943-8.34.49-8.583-4.66 7.357-4.66 7.357"/><path class="cls-4" d="M30.773 60.173s2.943-8.091-.246-8.337c-3.187-.246-4.168 8.583-4.168 8.583s-5.64-5.64-7.848-3.433 5.395 6.62 5.64 9.319-.49 6.13-2.452 13.978.49 13.98 6.13 14.225c5.643.244 8.83-4.415 9.076-12.018s0-12.507 0-12.507 4.168-3.924 6.62-6.621.247-5.152-1.47-3.925a31.62 31.62 0 0 0-3.925 3.679s5.642-7.356 2.453-8.337-5.64 6.62-5.64 6.62 2.943-8.34.49-8.583-4.66 7.357-4.66 7.357ZM48.763 33.405s-.577-2.219-2.237-2.318c-1.656-.1-2.807 2.467-2.807 2.467M59.606 66.58a195.2 195.2 0 0 1 3.19 40.22"/><path d="M45.94 42.68c3.76 0 8.98-5.326 12.634-2.507s2.924 9.815-.835 11.798c-3.759 1.985-8.25-.73-10.651-.73s-5.743 2.193-9.919.105-4.228-8.177-1.461-10.233c4.071-3.028 6.472 1.566 10.232 1.566" style="fill:#fabfbf"/><path class="cls-4" d="M45.94 42.68c3.76 0 8.98-5.326 12.634-2.507s2.924 9.815-.835 11.798c-3.759 1.985-8.25-.73-10.651-.73s-5.743 2.193-9.919.105-4.228-8.177-1.461-10.233c4.07-3.028 6.472 1.566 10.232 1.566ZM15.138 34.013s-2.297.521-3.551-.418c-1.252-.94-3.131 1.043-4.696-.104-1.568-1.15-1.985-2.924-3.656-2.924a3.443 3.443 0 0 0-2.505.94M20.88 48.316a5.07 5.07 0 0 0-3.028.418c-1.044.731-.314 2.506-1.461 3.133-1.15.627-2.715-.208-3.969 0-1.252.21-1.357 1.463-2.297 2.299-.939.834-2.4-.106-3.549.52a2.822 2.822 0 0 0-1.149 2.298"/></g><g style="clip-path:url(#clip-path-2)"><path style="fill:url(#radial-gradient)" d="M24.292 24.891h11.282v11.281H24.292z"/></g><g style="clip-path:url(#clip-path-3)"><path style="fill:url(#radial-gradient-2)" d="M61.078 23.91h11.281v11.281H61.078z"/></g><g class="cls-2"><path class="cls-4" d="M40.078 24.157s-.693 4.247-4.506 4.547a4.33 4.33 0 0 1-4.086-2.463M56.386 23.83s-.277 4.045 3.22 4.138c3.494.091 4.321-2.116 4.321-2.116"/></g></g></g></svg>