<svg xmlns="http://www.w3.org/2000/svg" xmlns:xlink="http://www.w3.org/1999/xlink" viewBox="0 0 84.632 108.353"><defs><clipPath id="clip-path" transform="translate(0 .001)"><path class="cls-1" d="M0 0h84.631v108.351H0z"/></clipPath><clipPath id="clip-path-2" transform="translate(0 .001)"><path class="cls-1" d="M15.587 35.15a5.64 5.64 0 1 0 5.639-5.64 5.642 5.642 0 0 0-5.639 5.64"/></clipPath><clipPath id="clip-path-3" transform="translate(0 .001)"><path class="cls-1" d="M52.616 28.284a5.641 5.641 0 1 0 5.64-5.64 5.64 5.64 0 0 0-5.64 5.64"/></clipPath><radialGradient id="radial-gradient" cx="-1074.653" cy="716.126" r="1" gradientTransform="matrix(5.6408 0 0 -5.6408 6083.097 4074.655)" gradientUnits="userSpaceOnUse"><stop offset="0" stop-color="#f6b1cf"/><stop offset="1" stop-color="#fff"/></radialGradient><radialGradient id="radial-gradient-2" cx="-1074.665" cy="716.122" r="1" gradientTransform="matrix(5.6411 0 0 -5.6411 6120.577 4068.023)" xlink:href="#radial-gradient"/><style>.cls-1,.cls-4{fill:none}.cls-2{clip-path:url(#clip-path)}.cls-3{fill:#fff}.cls-4{stroke:#231f20;stroke-linecap:round;stroke-linejoin:round;stroke-width:1.46px}</style></defs><g id="Layer_2" data-name="Layer 2"><g id="Layer_1-2" data-name="Layer 1"><g class="cls-2"><path class="cls-3" d="M59.15 38.714s13.42-1.033 16.775 19.355c3.357 20.39 2.324 49.553 2.324 49.553H38.504s4.903-26.068 3.355-36.133C40.31 61.426 33.6 58.069 33.6 58.069L32.568 47.23Z" transform="translate(0 .001)"/><path class="cls-4" d="M59.15 38.714s13.42-1.033 16.775 19.355c3.357 20.39 2.324 49.553 2.324 49.553H38.504s4.903-26.068 3.355-36.133C40.31 61.426 33.6 58.069 33.6 58.069L32.568 47.23Z" transform="translate(0 .001)"/><path class="cls-3" d="M34.374 47.49s-8.774 14.968-3.87 40.518c0 0-3.097 6.711-2.066 11.872s3.095 6.452 4.128 6.452-.773-7.485-.773-7.485 1.29 6.711 3.353 6.711c2.066 0-.772-6.967-.772-6.967s1.29 5.936 2.838 5.936 0-6.453 0-6.453 1.033 6.192 3.614 5.935-1.033-9.034-1.033-9.034 4.905 2.325 5.42.26c.516-2.065-2.837-3.872-3.613-3.872-.774 0-2.84-2.323-2.84-2.323s-1.29-18.582 1.807-25.808" transform="translate(0 .001)"/><path class="cls-4" d="M34.374 47.49s-8.774 14.968-3.87 40.518c0 0-3.097 6.711-2.066 11.872s3.095 6.452 4.128 6.452-.773-7.485-.773-7.485 1.29 6.711 3.353 6.711c2.066 0-.772-6.967-.772-6.967s1.29 5.936 2.838 5.936 0-6.453 0-6.453 1.033 6.192 3.614 5.935-1.033-9.034-1.033-9.034 4.905 2.325 5.42.26c.516-2.065-2.837-3.872-3.613-3.872-.774 0-2.84-2.323-2.84-2.323s-1.29-18.582 1.807-25.808" transform="translate(0 .001)"/><path class="cls-3" d="M62.247 59.877s2.064 19.872 0 27.357c0 0-3.614 4.13-7.485 4.13s-1.806 3.87-.517 3.87c1.291 0 4.906-.515 4.906-.515s-3.87 9.29-1.29 10.065c2.58.774 3.355-6.193 3.355-6.193s-.774 6.968 1.29 7.226 2.837-6.195 2.837-6.195-.774 6.195.775 6.195 1.806-5.936 1.806-5.936.518 4.903 2.84 4.903 1.031-12.388.516-16.259a76.088 76.088 0 0 0 2.84-22.712" transform="translate(0 .001)"/><path class="cls-4" d="M62.247 59.877s2.064 19.872 0 27.357c0 0-3.614 4.13-7.485 4.13s-1.806 3.87-.517 3.87c1.291 0 4.906-.515 4.906-.515s-3.87 9.29-1.29 10.065c2.58.774 3.355-6.193 3.355-6.193s-.774 6.968 1.29 7.226 2.837-6.195 2.837-6.195-.774 6.195.775 6.195 1.806-5.936 1.806-5.936.518 4.903 2.84 4.903 1.031-12.388.516-16.259a76.088 76.088 0 0 0 2.84-22.712" transform="translate(0 .001)"/><path class="cls-3" d="M67.528 27.793A27.064 27.064 0 1 1 40.462.729a27.064 27.064 0 0 1 27.066 27.064" transform="translate(0 .001)"/><path class="cls-4" d="M67.528 27.793A27.064 27.064 0 1 1 40.462.729a27.064 27.064 0 0 1 27.066 27.064Z" transform="translate(0 .001)"/></g><g style="clip-path:url(#clip-path-2)"><path style="fill:url(#radial-gradient)" d="M15.587 29.511h11.281v11.283H15.587z"/></g><g style="clip-path:url(#clip-path-3)"><path style="fill:url(#radial-gradient-2)" d="M52.616 22.645h11.281v11.281H52.616z"/></g><g class="cls-2"><path d="M73.86 30.714s8.259 9.29 9.808 4.13c1.55-5.163-4.904-2.322-9.807-4.13" transform="translate(0 .001)" style="fill:#abe1fa"/><path class="cls-4" d="M73.86 30.714s8.259 9.29 9.808 4.13c1.55-5.163-4.904-2.322-9.807-4.13Z" transform="translate(0 .001)"/><path class="cls-3" d="M41.084 11.357s9.55 6.195 16.776 6.195" transform="translate(0 .001)"/><path class="cls-4" d="M41.084 11.357s9.55 6.195 16.776 6.195" transform="translate(0 .001)"/><path class="cls-3" d="M24.05 15.745a15.98 15.98 0 0 1-6.71 8.258" transform="translate(0 .001)"/><path class="cls-4" d="M24.05 15.745a15.98 15.98 0 0 1-6.71 8.258" transform="translate(0 .001)"/><path class="cls-3" d="M29.986 27.359s.001 4.385-2.838 5.419a2.89 2.89 0 0 1-3.872-1.29" transform="translate(0 .001)"/><path class="cls-4" d="M29.986 27.359s.001 4.385-2.838 5.419a2.89 2.89 0 0 1-3.872-1.29" transform="translate(0 .001)"/><path class="cls-3" d="M44.182 26.843a4.455 4.455 0 0 0 4.645 2.838 4.192 4.192 0 0 0 3.872-3.87" transform="translate(0 .001)"/><path class="cls-4" d="M44.182 26.843a4.455 4.455 0 0 0 4.645 2.838 4.192 4.192 0 0 0 3.872-3.87" transform="translate(0 .001)"/><path class="cls-3" d="M40.826 35.876s-2.58-2.582-3.87-1.808-1.292 2.839-1.292 2.839" transform="translate(0 .001)"/><path class="cls-4" d="M40.826 35.876s-2.58-2.582-3.87-1.808-1.292 2.839-1.292 2.839" transform="translate(0 .001)"/><path class="cls-3" d="M37.987 48.264s-.515-5.421 3.614-5.936 8.517 4.387 8.517 4.387" transform="translate(0 .001)"/><path class="cls-4" d="M37.987 48.264s-.515-5.421 3.614-5.936 8.517 4.387 8.517 4.387" transform="translate(0 .001)"/><path class="cls-3" d="M20.179 34.068a8.34 8.34 0 0 0 3.355 2.323" transform="translate(0 .001)"/><path class="cls-4" d="M20.179 34.068a8.34 8.34 0 0 0 3.355 2.323" transform="translate(0 .001)"/><path class="cls-3" d="M19.663 35.876a2.34 2.34 0 0 0 2.064 1.807" transform="translate(0 .001)"/><path class="cls-4" d="M19.663 35.876a2.34 2.34 0 0 0 2.064 1.807" transform="translate(0 .001)"/><path class="cls-3" d="M57.086 26.843s.516 2.32 0 3.353" transform="translate(0 .001)"/><path class="cls-4" d="M57.086 26.843s.516 2.32 0 3.353" transform="translate(0 .001)"/><path class="cls-3" d="M59.408 26.069s.518 2.579-.258 3.612" transform="translate(0 .001)"/><path class="cls-4" d="M59.408 26.069s.518 2.579-.258 3.612" transform="translate(0 .001)"/><path class="cls-3" d="m16.825 53.683-4.13 2.323s-5.162-6.193-8.26-2.58c-3.095 3.612.259 6.193.259 6.193s-6.193 2.323-3.097 6.71c3.097 4.387 6.71-.515 6.71-.515s3.097 4.387 6.454 2.322c3.354-2.065 1.03-7.227 1.03-7.227s1.033-2.837 3.097-3.353Z" transform="translate(0 .001)"/><path class="cls-4" d="m16.825 53.683-4.13 2.323s-5.162-6.193-8.26-2.58c-3.095 3.612.259 6.193.259 6.193s-6.193 2.323-3.097 6.71c3.097 4.387 6.71-.515 6.71-.515s3.097 4.387 6.454 2.322c3.354-2.065 1.03-7.227 1.03-7.227s1.033-2.837 3.097-3.353Z" transform="translate(0 .001)"/></g></g></g></svg>