<svg xmlns="http://www.w3.org/2000/svg" viewBox="-10 0 1606 1752" width="1606" height="1752"><path d="M471 283q22-125 41-196Q536 0 623 0q39 0 70 12 65 25 65 87 0 17-6 43-8 37-23 110 156-24 291-59 27-7 49-7 79 0 104 78 8 24 8 46 0 84-103 112-135 37-388 70-12 87-22 211 126-34 264-45 4-13 8-28 12-48 26-64 26-29 74-29 135 0 135 105 0 16-5 38 160 44 260 128 166 141 166 364 0 329-310 493-93 49-198 75-46 12-76 12-89 0-89-91 0-58 81-89 171-66 245-151 87-100 87-254 0-237-232-310-173 367-409 555l1 7q16 65 21 85 11 38 11 68 0 77-71 105-33 13-62 13-77 0-103-80-10-32-13-41-170 99-275 99-108 0-165-92-49-79-49-208 0-321 432-567 4-108 19-284-153 8-208 8-53 0-84-25-40-32-40-90 0-73 59-102 25-13 59-13h17q87 0 227-12zm-55 758q-195 153-195 297 0 86 48 86 54 0 170-78-22-159-23-305zm444-191q-100 16-204 56-2 42-2 71 0 75 6 179 118-138 200-306z" style="fill:currentColor"/></svg>