<?xml version="1.0" standalone="no"?>
<!DOCTYPE svg PUBLIC "-//W3C//DTD SVG 1.1//EN" "http://www.w3.org/Graphics/SVG/1.1/DTD/svg11.dtd" >
<svg xmlns="http://www.w3.org/2000/svg" xmlns:xlink="http://www.w3.org/1999/xlink" version="1.1" viewBox="-10 0 2058 2048">
   <path fill="currentColor"
d="M896 144q58 0 159 26q159 42 273 105q73 42 73 120q0 33 -17 61q-37 63 -107 63q-38 0 -93 -33q-160 -95 -309 -148q-91 -33 -91 -94q0 -100 112 -100zM1073 622q207 0 327 125q122 128 122 359q0 336 -172 547q-128 156 -322 241q-44 19 -74 19q-57 0 -80 -40
q-16 -29 -16 -61q0 -41 32 -69q7 -6 39 -26q180 -115 254 -266q69 -141 69 -341q0 -261 -188 -261q-158 0 -453 136q-38 17 -70 17q-57 0 -88 -57q-21 -38 -21 -75q0 -74 121 -128q174 -78 385 -109q75 -11 135 -11z" />
</svg>
