<svg xmlns="http://www.w3.org/2000/svg" viewBox="-10 0 1090 1769" width="1090" height="1769"><path d="M454 0q58 0 159 26 159 42 273 105 73 42 73 120 0 33-17 61-37 63-107 63-38 0-93-33-160-95-309-148-91-33-91-94Q342 0 454 0Zm177 478q207 0 327 125 122 128 122 359 0 336-172 547-128 156-322 241-44 19-74 19-57 0-80-40-16-29-16-61 0-41 32-69 7-6 39-26 180-115 254-266 69-141 69-341 0-261-188-261-158 0-453 136-38 17-70 17-57 0-88-57-21-38-21-75 0-74 121-128 174-78 385-109 75-11 135-11z" style="fill:currentColor"/></svg>