<svg xmlns="http://www.w3.org/2000/svg" viewBox="-10 0 1612 1698" width="1612" height="1698"><path d="M385 373q-2-161-2-200 0-95 13-120Q426 0 504 0q81 0 110 56 11 23 11 52v15q0 117 2 203 69-15 150-39 37-11 59-11 54 0 85 53 20 35 20 72 0 82-94 114-79 26-220 56 1 43 2 187 1 73 2 106 225-61 435-61 219 0 353 93 158 110 158 324 0 215-154 334-125 97-327 97-88 0-129-14-76-26-76-104 0-57 49-77 24-10 105-10 131 0 206-62 72-59 72-166 0-218-283-218-180 0-407 71v32l2 400q0 77-38 127-52 68-152 68-114 0-243-66-212-107-212-252 0-226 401-426v-14q-1-139-3-293l-1-31q-200 32-260 32Q9 648 9 521q0-99 119-111 122-12 257-37Zm11 802q-170 103-170 193 0 34 39 68 49 43 97 43 25 0 31-15 5-12 5-72 0-48-2-191zm807-1047q79 0 227 97 76 49 129 101 43 42 43 96t-44 92q-35 31-82 31-54 0-104-58-76-88-215-196-44-35-44-80 0-26 15-47 27-36 75-36z" style="fill:currentColor"/></svg>