<?xml version="1.0" standalone="no"?>
<!DOCTYPE svg PUBLIC "-//W3C//DTD SVG 1.1//EN" "http://www.w3.org/Graphics/SVG/1.1/DTD/svg11.dtd" >
<svg xmlns="http://www.w3.org/2000/svg" xmlns:xlink="http://www.w3.org/1999/xlink" version="1.1" viewBox="-10 0 2058 2048">
   <path fill="currentColor"
d="M624 549q-2 -161 -2 -200q0 -95 13 -120q30 -53 108 -53q81 0 110 56q11 23 11 52v15q0 117 2 203q69 -15 150 -39q37 -11 59 -11q54 0 85 53q20 35 20 72q0 82 -94 114q-79 26 -220 56q1 43 2 187q1 73 2 106q225 -61 435 -61q219 0 353 93q158 110 158 324
q0 215 -154 334q-125 97 -327 97q-88 0 -129 -14q-76 -26 -76 -104q0 -57 49 -77q24 -10 105 -10q131 0 206 -62q72 -59 72 -166q0 -218 -283 -218q-180 0 -407 71v32l2 400q0 77 -38 127q-52 68 -152 68q-114 0 -243 -66q-212 -107 -212 -252q0 -226 401 -426v-14
q-1 -139 -3 -293l-1 -31q-200 32 -260 32q-118 0 -118 -127q0 -99 119 -111q122 -12 257 -37zM635 1351q-170 103 -170 193q0 34 39 68q49 43 97 43q25 0 31 -15q5 -12 5 -72q0 -48 -2 -191v-26zM1442 304q79 0 227 97q76 49 129 101q43 42 43 96t-44 92q-35 31 -82 31
q-54 0 -104 -58q-76 -88 -215 -196q-44 -35 -44 -80q0 -26 15 -47q27 -36 75 -36z" />
</svg>
