<?xml version="1.0" standalone="no"?>
<!DOCTYPE svg PUBLIC "-//W3C//DTD SVG 1.1//EN" "http://www.w3.org/Graphics/SVG/1.1/DTD/svg11.dtd" >
<svg xmlns="http://www.w3.org/2000/svg" xmlns:xlink="http://www.w3.org/1999/xlink" version="1.1" viewBox="-10 0 2058 2048">
   <path fill="currentColor"
d="M832 647h41q342 0 342 300q0 202 -80 476q-70 236 -154 342q-75 94 -174 94q-107 0 -229 -146q-52 -62 -52 -100q0 -25 18 -46q21 -25 54 -25q29 0 64 27q64 49 90 49q38 0 87 -102q56 -117 96 -297q32 -144 32 -243q0 -106 -112 -106q-27 0 -58 2t-49 2
q-137 359 -293 643q-35 62 -44 76q-41 60 -106 60q-37 0 -67 -23q-53 -41 -53 -100q0 -32 40 -102q145 -250 259 -529q-128 16 -179 24q-21 4 -33 4q-41 0 -67 -30q-27 -33 -27 -85q0 -102 118 -116q154 -18 278 -31q74 -210 118 -365q26 -94 115 -94q42 0 78 20
q53 30 53 85q0 49 -106 336zM1503 562q74 0 226 171q222 249 222 363q0 69 -65 108q-35 21 -75 21q-62 0 -100 -49q-9 -12 -29 -55q-85 -178 -250 -394q-26 -34 -26 -71q0 -43 30 -69q29 -25 67 -25z" />
</svg>
