<svg xmlns="http://www.w3.org/2000/svg" viewBox="-10 0 1773 1653" width="1773" height="1653"><path d="M644 441h41q342 0 342 300 0 202-80 476-70 236-154 342-75 94-174 94-107 0-229-146-52-62-52-100 0-25 18-46 21-25 54-25 29 0 64 27 64 49 90 49 38 0 87-102 56-117 96-297 32-144 32-243 0-106-112-106-27 0-58 2t-49 2q-137 359-293 643-35 62-44 76-41 60-106 60-37 0-67-23-53-41-53-100 0-32 40-102 145-250 259-529-128 16-179 24-21 4-33 4-41 0-67-30-27-33-27-85 0-102 118-116 154-18 278-31 74-210 118-365Q530 0 619 0q42 0 78 20 53 30 53 85 0 49-106 336zm671-85q74 0 226 171 222 249 222 363 0 69-65 108-35 21-75 21-62 0-100-49-9-12-29-55-85-178-250-394-26-34-26-71 0-43 30-69 29-25 67-25z" style="fill:currentColor"/></svg>