<?xml version="1.0" standalone="no"?>
<!DOCTYPE svg PUBLIC "-//W3C//DTD SVG 1.1//EN" "http://www.w3.org/Graphics/SVG/1.1/DTD/svg11.dtd" >
<svg xmlns="http://www.w3.org/2000/svg" xmlns:xlink="http://www.w3.org/1999/xlink" version="1.1" viewBox="-10 0 2058 2048">
   <path fill="currentColor"
d="M815 440l-36 -84q-18 -43 -26 -61q-16 -36 -16 -60q0 -54 58 -84q38 -19 77 -19q82 0 115 88q20 53 74 173q161 -33 253 -59q35 -10 60 -10q66 0 93 65q12 29 12 55q0 77 -84 101q-63 18 -242 53q45 96 86 172q143 -34 226 -59q29 -9 47 -9q59 0 88 62q16 32 16 66
q0 71 -78 95q-77 24 -184 48q67 107 108 153q56 63 56 127q0 35 -15 63q-32 61 -117 61q-24 0 -66 -9q-101 -23 -226 -37q-86 -10 -86 -76q0 -68 89 -68q46 0 128 7q-56 -83 -110 -172q-402 75 -479 75q-73 0 -100 -66q-11 -25 -11 -52q0 -73 69 -96q13 -4 49 -8
q131 -16 359 -56q-46 -83 -90 -176q-327 61 -422 61q-111 0 -111 -121q0 -90 111 -100q163 -15 325 -43zM606 1406q61 0 97 66q58 108 207 148q113 30 297 30q149 0 149 127q0 121 -156 121q-290 0 -475 -97q-137 -71 -197 -190q-31 -60 -31 -104q0 -52 40 -80
q31 -21 69 -21z" />
</svg>
