<svg xmlns="http://www.w3.org/2000/svg" viewBox="-10 0 2058 2048"><path fill="currentColor" d="M1295 645q-6-134-16-287-1-17-1-29 0-114 126-114 107 0 119 99 7 53 17 302l12-1q121-12 144-15 14-2 30-2 122 0 122 111 0 87-60 111-20 9-57 13-21 2-111 12-36 4-76 9l1 25q4 289 4 325 0 397-306 634-74 58-118 58t-70-34q-22-28-22-59 0-42 40-79 155-139 209-331 24-83 24-228 0-50-3-255v-30l-27 3q-333 35-349 35-63 0-91-45-19-30-19-71 0-93 103-111 74-13 375-46zm-762 762q43-103 72-148 27-44 66-44 18 0 34 7 39 18 39 65 0 19-21 61-27 54-87 226-29 81-50 112-40 61-101 61-84 0-128-102-68-157-68-481 0-271 51-669 11-88 22-116 27-71 113-71 122 0 122 111 0 18-9 73-32 180-58 491-8 87-8 157 0 129 11 267z"/></svg>