<svg xmlns="http://www.w3.org/2000/svg" viewBox="-10 0 1444 1706" width="1444" height="1706"><path d="M644 421Q500 161 500 106t52-85q36-21 78-21 78 0 117 85 58 123 145 281 198-47 365-99 45-14 73-14 57 0 86 55 18 33 18 65 0 78-84 106-116 40-338 94 113 178 220 293 47 50 47 123 0 48-44 85-43 36-99 36-18 0-51-9-79-21-237-51-56-11-76-21-38-21-38-66 0-67 85-67 67 0 136 9-84-109-190-277-284 58-554 95-84 11-103 11-71 0-101-60-17-34-17-71 0-70 67-93 17-6 69-10 199-14 518-79zm-264 715q73 0 88 80 21 116 110 169 130 77 422 77 129 0 129 122t-153 122q-275 0-461-95-81-41-132-97-102-112-102-267 0-111 99-111z" style="fill:currentColor"/></svg>