<svg xmlns="http://www.w3.org/2000/svg" viewBox="-10 0 1677 1779" width="1677" height="1779"><path d="M841 338q-3-106-9-212-1-15-1-21Q831 0 956 0q122 0 123 116 0 7 5 181l1 22q156-12 322-24 91-6 131-10 16-1 26-1 51 0 80 38 23 31 23 77 0 88-70 113-16 5-69 8-71 4-324 21l-79 5-38 3q6 334 6 419 0 131-32 197-14 364-278 561-71 53-119 53-46 0-70-32-20-27-20-56 0-47 68-102 106-86 156-223-30 6-53 6-104 0-215-106-119-114-119-251 0-150 144-262 99-77 195-77 48 0 104 22-1-17-3-78 0-20-1-53-280 24-506 45-225 20-240 20-114 0-114-119 0-102 103-115 58-8 690-56zm0 780 2-61q0-201-85-201-40 0-86 44-52 51-52 103 0 73 70 138 41 38 74 38 32 0 60-36 17-22 17-25z" style="fill:currentColor"/></svg>