<?xml version="1.0" standalone="no"?>
<!DOCTYPE svg PUBLIC "-//W3C//DTD SVG 1.1//EN" "http://www.w3.org/Graphics/SVG/1.1/DTD/svg11.dtd" >
<svg xmlns="http://www.w3.org/2000/svg" xmlns:xlink="http://www.w3.org/1999/xlink" version="1.1" viewBox="-10 0 2058 2048">
   <path fill="currentColor"
d="M1028 469q-3 -106 -9 -212q-1 -15 -1 -21q0 -105 125 -105q122 0 123 116q0 7 5 181l1 22q156 -12 322 -24q91 -6 131 -10q16 -1 26 -1q51 0 80 38q23 31 23 77q0 88 -70 113q-16 5 -69 8q-71 4 -324 21l-79 5l-38 3q6 334 6 419q0 131 -32 197q-14 364 -278 561
q-71 53 -119 53q-46 0 -70 -32q-20 -27 -20 -56q0 -47 68 -102q106 -86 156 -223q-30 6 -53 6q-104 0 -215 -106q-119 -114 -119 -251q0 -150 144 -262q99 -77 195 -77q48 0 104 22q-1 -17 -3 -78q0 -20 -1 -53q-280 24 -506 45q-225 20 -240 20q-114 0 -114 -119
q0 -102 103 -115q58 -8 690 -56zM1028 1249l2 -61q0 -201 -85 -201q-40 0 -86 44q-52 51 -52 103q0 73 70 138q41 38 74 38q32 0 60 -36q17 -22 17 -25z" />
</svg>
