<svg xmlns="http://www.w3.org/2000/svg" viewBox="-10 0 1833 1599" width="1833" height="1599"><path d="M1175 465q3-95 3-163l-1-196q0-106 124-106 79 0 108 49 14 24 14 93 0 87-7 284l20-3 147-22q120-18 132-18 65 0 93 57 15 30 15 66 0 94-109 109-50 7-205 32-46 7-103 16-16 257-45 367-19 73-71 120-51 46-108 46-50 0-93-50-72-84-135-132-36-27-36-62 0-19 11-38 19-33 61-33 23 0 46 11 18 8 102 52 16-69 28-244l-44 8-133 22-136 22-136 22-38 6q9 229 10 376 1 106 42 154 50 59 215 59 286 0 436-14 18-2 29-2 110 0 110 119 0 91-88 113-55 14-452 14-203 0-298-32-168-55-215-214-20-66-21-176-1-136-12-356-92 15-288 50-26 4-42 4-68 0-99-56-16-28-16-61 0-100 124-119 15-2 140-24 43-7 169-27l-1-24q-13-223-17-269-1-13-1-21 0-62 61-92 31-15 69-15 107 0 118 94 7 63 17 286l38-7 145-23 144-24 142-22z" style="fill:currentColor"/></svg>