<svg xmlns="http://www.w3.org/2000/svg" viewBox="-10 0 1562 1706" width="1562" height="1706"><path d="M843 242q-135 25-360 52-71 9-89 9-46 0-76-32-32-33-32-86 0-71 52-98 24-13 94-17 212-13 572-65 34-5 53-5 83 0 127 65 29 43 29 97 0 62-49 100-196 153-634 406l4 8q376-67 857-138 23-3 38-3 81 0 110 65 13 28 13 60 0 103-132 119-213 26-351 100-228 123-228 316 0 94 82 167 72 65 195 99 89 25 89 117 0 42-20 74-34 54-104 54-61 0-175-53-309-144-309-436 0-154 114-277 62-67 161-116l-7-6q-282 62-667 132-84 15-103 15-68 0-95-68-12-32-12-62 0-90 80-107 36-7 194-98 285-164 583-377Z" style="fill:currentColor"/></svg>