<?xml version="1.0" standalone="no"?>
<!DOCTYPE svg PUBLIC "-//W3C//DTD SVG 1.1//EN" "http://www.w3.org/Graphics/SVG/1.1/DTD/svg11.dtd" >
<svg xmlns="http://www.w3.org/2000/svg" xmlns:xlink="http://www.w3.org/1999/xlink" version="1.1" viewBox="-10 0 2058 2048">
   <path fill="currentColor"
d="M649 547q42 -150 70 -273q21 -94 117 -94q132 0 132 105q0 51 -54 231q123 -19 200 -37q25 -6 48 -6q63 0 88 52q16 32 16 67q0 85 -93 109q-117 30 -333 59l-7 21l-37 111q-196 593 -297 807q-23 49 -29 59q-37 61 -111 61q-39 0 -73 -21q-56 -34 -56 -94q0 -32 36 -105
q97 -195 215 -525q24 -64 41 -120q43 -130 54 -166q-160 15 -214 15q-58 0 -88 -43q-20 -28 -20 -72q0 -115 126 -120q89 -3 269 -21zM1057 1412q47 0 84 42q115 129 427 129q21 0 36 -1q21 -1 24 -1q49 0 81 25q44 35 44 95q0 54 -34 90q-37 40 -114 40q-217 0 -394 -70
q-160 -62 -224 -179q-23 -41 -23 -75q0 -39 29 -68q27 -27 64 -27zM1489 868q142 0 181 13q85 28 85 115q0 45 -29 73q-33 33 -88 33q-8 0 -26 -2q-91 -7 -145 -7q-126 0 -322 41q-22 5 -39 5q-67 0 -92 -54q-10 -22 -10 -48q0 -60 71 -95q74 -36 204 -57q108 -17 210 -17z
" />
</svg>
