<?xml version="1.0" standalone="no"?>
<!DOCTYPE svg PUBLIC "-//W3C//DTD SVG 1.1//EN" "http://www.w3.org/Graphics/SVG/1.1/DTD/svg11.dtd" >
<svg xmlns="http://www.w3.org/2000/svg" xmlns:xlink="http://www.w3.org/1999/xlink" version="1.1" viewBox="-10 0 2058 2048">
   <path fill="currentColor"
d="M731 516q40 -180 66 -277q23 -86 110 -86q49 0 88 23q47 27 47 82q0 20 -41 175q-9 31 -14 54q208 -29 325 -55q36 -8 61 -8q110 0 110 119q0 86 -94 109q-153 37 -461 73l-10 37q-60 248 -85 364q230 -123 455 -123q440 0 440 359q0 261 -269 400q-136 71 -327 104
q-77 14 -105 14q-73 0 -96 -57q-9 -23 -9 -44q0 -51 52 -76q13 -6 89 -22q174 -37 283 -113q118 -81 118 -199q0 -171 -196 -171q-230 0 -464 180q-50 39 -104 39q-53 0 -91 -36q-41 -39 -41 -100q0 -36 99 -488l9 -42q-160 15 -254 15q-119 0 -119 -117q0 -72 48 -101
q26 -16 86 -16q107 0 294 -16z" />
</svg>
