<svg xmlns="http://www.w3.org/2000/svg" viewBox="-10 0 1425 1727" width="1425" height="1727"><path d="M418 363q40-180 66-277Q507 0 594 0q49 0 88 23 47 27 47 82 0 20-41 175-9 31-14 54 208-29 325-55 36-8 61-8 110 0 110 119 0 86-94 109-153 37-461 73l-10 37q-60 248-85 364 230-123 455-123 440 0 440 359 0 261-269 400-136 71-327 104-77 14-105 14-73 0-96-57-9-23-9-44 0-51 52-76 13-6 89-22 174-37 283-113 118-81 118-199 0-171-196-171-230 0-464 180-50 39-104 39-53 0-91-36-41-39-41-100 0-36 99-488l9-42q-160 15-254 15-119 0-119-117 0-72 48-101 26-16 86-16 107 0 294-16z" style="fill:currentColor"/></svg>