<?xml version="1.0" standalone="no"?>
<!DOCTYPE svg PUBLIC "-//W3C//DTD SVG 1.1//EN" "http://www.w3.org/Graphics/SVG/1.1/DTD/svg11.dtd" >
<svg xmlns="http://www.w3.org/2000/svg" xmlns:xlink="http://www.w3.org/1999/xlink" version="1.1" viewBox="-10 0 2058 2048">
   <path fill="currentColor"
d="M1313 516q193 0 336 102q196 139 196 383q0 266 -201 447q-172 155 -469 220q-80 18 -117 18q-69 0 -93 -52q-12 -25 -12 -49q0 -46 44 -74q15 -9 113 -39q463 -142 463 -462q0 -133 -90 -204q-74 -59 -190 -59q-148 0 -514 77l-260 54q-210 46 -230 46q-78 0 -104 -77
q-8 -23 -8 -52q0 -77 64 -108q23 -11 82 -21q122 -20 459 -80q386 -70 531 -70z" />
</svg>
