<?xml version="1.0" standalone="no"?>
<!DOCTYPE svg PUBLIC "-//W3C//DTD SVG 1.1//EN" "http://www.w3.org/Graphics/SVG/1.1/DTD/svg11.dtd" >
<svg xmlns="http://www.w3.org/2000/svg" xmlns:xlink="http://www.w3.org/1999/xlink" version="1.1" viewBox="-10 0 2058 2048">
   <path fill="currentColor"
d="M1237 596q-307 63 -705 115q-152 20 -180 20q-125 0 -125 -133q0 -84 76 -109q22 -7 115 -15q243 -21 653 -80q290 -43 472 -80q49 -10 75 -10q77 0 112 59q22 38 22 80q0 81 -103 119q-178 65 -313 184q-233 204 -233 457q0 271 319 371q93 30 93 120q0 46 -29 84
q-32 43 -95 43q-125 0 -287 -123q-241 -183 -241 -484q0 -250 188 -461q73 -82 164 -143q8 -5 22 -14z" />
</svg>
