<svg xmlns="http://www.w3.org/2000/svg" viewBox="-10 0 1622 1732" width="1622" height="1732"><path d="M873 1156V968q0-55 8-94 12-101 110-101 46 0 77 22 41 30 41 83 0 7-1 20-4 46-4 74v234q183 58 306 134 70 44 70 119 0 33-16 61-33 59-92 59-37 0-83-36-70-55-185-114v28q0 108-57 179-78 96-229 96-172 0-297-113-105-96-105-219 0-99 92-170 106-80 267-80 34 0 98 6zm0 199q-78-10-115-10-71 0-107 30-20 16-20 38 0 33 31 62 54 50 135 50 76 0 76-78zM352 343q50-131 87-247Q470 0 553 0q28 0 54 10 73 27 73 101 0 54-61 195 27-6 81-16 18-4 38-8 16-4 34-4 66 0 91 57 12 26 12 60 0 86-80 107-70 19-266 44-142 344-278 561-22 35-28 43-37 48-97 48-35 0-64-19-58-38-58-94 0-36 41-99 96-147 215-411-125 15-169 15-48 0-75-31-26-31-26-78 0-110 130-116 82-4 232-22zm973 293q-55-74-184-166-40-28-40-69 0-76 87-76 84 0 251 118 173 122 173 228 0 104-139 107-42 0-150 16-15 2-25 2-68 0-88-46-6-13-6-26 0-43 36-59 39-18 85-29z" style="fill:currentColor"/></svg>