<?xml version="1.0" standalone="no"?>
<!DOCTYPE svg PUBLIC "-//W3C//DTD SVG 1.1//EN" "http://www.w3.org/Graphics/SVG/1.1/DTD/svg11.dtd" >
<svg xmlns="http://www.w3.org/2000/svg" xmlns:xlink="http://www.w3.org/1999/xlink" version="1.1" viewBox="-10 0 2058 2048">
   <path fill="currentColor"
d="M512 1437q38 -87 67 -140q27 -48 66 -48q20 0 37 8q40 18 40 66q0 19 -20 59q-40 78 -106 271q-47 133 -136 133q-82 0 -126 -100q-70 -157 -70 -509q0 -289 52 -679q13 -96 24 -122q28 -70 112 -70q51 0 85 25q40 29 40 82q0 21 -11 78q-31 155 -54 423q-12 136 -12 256
q0 170 12 267zM1525 688q-197 0 -455 78q-33 10 -53 10q-75 0 -99 -70q-8 -22 -8 -41q0 -72 85 -106q92 -37 229 -70q179 -42 310 -42q65 0 99 9q93 25 93 119q0 49 -29 80q-34 35 -93 35zM997 1261q48 0 82 43q53 67 127 93q114 40 325 40q49 0 91 -3q21 -1 32 -1
q62 0 98 39q30 33 30 87q0 132 -160 132q-249 0 -435 -55q-141 -42 -231 -149q-60 -70 -60 -125q0 -51 36 -80q26 -21 65 -21z" />
</svg>
