<svg xmlns="http://www.w3.org/2000/svg" viewBox="-10 0 1769 1565" width="1769" height="1565"><path d="M795 361q25-131 37-254Q842 0 952 0q55 0 91 31 33 29 33 73 0 60-29 214 28-2 55-2 287 0 455 193 135 154 135 387 0 177-74 337 62 51 105 100 36 42 36 91 0 45-32 79-34 37-79 37-51 0-93-50-21-24-68-72-152 147-331 147-111 0-195-59-111-79-111-209 0-107 85-180 88-76 224-76 118 0 263 65 28-101 28-207 0-159-84-260-101-122-280-122-41 0-92 6-121 382-328 696 24 46 51 86 22 32 22 66 0 60-56 94-35 22-72 22-65 0-107-74-125 115-236 115-114 0-194-98-84-103-84-326 0-244 264-469-7-40-10-65-16-152-35-234-6-28-6-45 0-74 64-98 21-8 45-8 80 0 102 91 17 71 37 226 164-91 344-141zm536 923q-102-65-179-65-57 0-90 30-22 21-22 49 0 37 35 60 31 19 76 19 97 0 180-93zM305 873q-102 122-102 242 0 100 35 158 18 30 41 30 49 0 131-98-60-163-105-332Zm433-285q-140 53-252 127 25 119 75 264 120-207 177-391Z" style="fill:currentColor"/></svg>