<?xml version="1.0" standalone="no"?>
<!DOCTYPE svg PUBLIC "-//W3C//DTD SVG 1.1//EN" "http://www.w3.org/Graphics/SVG/1.1/DTD/svg11.dtd" >
<svg xmlns="http://www.w3.org/2000/svg" xmlns:xlink="http://www.w3.org/1999/xlink" version="1.1" viewBox="-10 0 2058 2048">
   <path fill="currentColor"
d="M528 616l2 -25q15 -302 19 -323q8 -47 49 -72q31 -18 70 -18q47 0 81 31q36 33 36 83q0 10 -7 111q-7 116 -8 160q80 32 80 115q0 34 -22 62q-32 41 -70 104q-1 18 -3 57q0 18 -1 37l19 -20q182 -191 275 -276q201 -184 400 -184q173 0 264 155q76 128 76 370
q0 245 -41 448q80 59 147 122q53 52 53 109q0 38 -26 72q-31 43 -79 43q-43 0 -79 -34q-9 -8 -37 -36q-30 -31 -65 -61q-124 158 -339 158q-152 0 -257 -94q-88 -80 -88 -184q0 -115 102 -190q97 -71 237 -71q101 0 216 45q16 -140 16 -328q0 -288 -138 -288
q-114 0 -257 113q-163 128 -407 364q-11 337 -11 562q0 74 -7 94q-26 71 -113 71q-115 0 -115 -138q0 -231 2 -339q-81 85 -138 151q-48 56 -96 56q-43 0 -79 -37q-39 -40 -39 -93q0 -46 38 -85q88 -87 324 -447q0 -45 4 -125q-186 79 -250 79t-91 -57q-14 -30 -14 -65
q0 -80 107 -104q99 -22 260 -78zM1481 1507q-103 -58 -172 -58q-52 0 -87 20q-40 23 -40 59q0 38 41 63q32 19 82 19q119 0 171 -94l2 -3z" />
</svg>
