<svg xmlns="http://www.w3.org/2000/svg" viewBox="-10 0 1797 1720" width="1797" height="1720"><path d="m368 438 2-25q15-302 19-323 8-47 49-72 31-18 70-18 47 0 81 31 36 33 36 83 0 10-7 111-7 116-8 160 80 32 80 115 0 34-22 62-32 41-70 104-1 18-3 57 0 18-1 37l19-20q182-191 275-276 201-184 400-184 173 0 264 155 76 128 76 370 0 245-41 448 80 59 147 122 53 52 53 109 0 38-26 72-31 43-79 43-43 0-79-34-9-8-37-36-30-31-65-61-124 158-339 158-152 0-257-94-88-80-88-184 0-115 102-190 97-71 237-71 101 0 216 45 16-140 16-328 0-288-138-288-114 0-257 113-163 128-407 364-11 337-11 562 0 74-7 94-26 71-113 71-115 0-115-138 0-231 2-339-81 85-138 151-48 56-96 56-43 0-79-37-39-40-39-93 0-46 38-85 88-87 324-447 0-45 4-125-186 79-250 79t-91-57Q1 655 1 620q0-80 107-104 99-22 260-78Zm953 891q-103-58-172-58-52 0-87 20-40 23-40 59 0 38 41 63 32 19 82 19 119 0 171-94l2-3z" style="fill:currentColor"/></svg>