<?xml version="1.0" standalone="no"?>
<!DOCTYPE svg PUBLIC "-//W3C//DTD SVG 1.1//EN" "http://www.w3.org/Graphics/SVG/1.1/DTD/svg11.dtd" >
<svg xmlns="http://www.w3.org/2000/svg" xmlns:xlink="http://www.w3.org/1999/xlink" version="1.1" viewBox="-10 0 2058 2048">
   <path fill="currentColor"
d="M1255 581v-264q0 -45 31 -72q34 -30 89 -30q80 0 109 56q11 20 11 46v242l16 -1q185 -18 199 -18q67 0 93 61q12 27 12 60q0 97 -113 106q-33 2 -130 12q-30 3 -77 7q0 364 8 576q177 79 294 162q62 44 62 111q0 39 -24 71q-34 44 -87 44q-44 0 -91 -36
q-97 -74 -160 -115q-63 205 -324 205q-170 0 -288 -93q-115 -91 -115 -214q0 -116 103 -182q85 -54 216 -54q71 0 172 21l-1 -48l-2 -136q-3 -210 -3 -289q-95 8 -316 32q-19 2 -30 2q-105 0 -105 -114q0 -91 85 -108q30 -7 366 -40zM1267 1483q-104 -40 -183 -40
q-105 0 -105 62q0 35 37 66q52 43 138 43q113 0 113 -107v-24zM492 1468q46 -101 71 -146q20 -35 56 -35q17 0 32 8q34 20 34 56q0 19 -20 65q-42 93 -102 288q-40 131 -125 131q-188 0 -188 -619q0 -281 47 -703q14 -126 24 -158q26 -82 115 -82q46 0 78 20q46 29 46 92
q0 16 -10 75q-34 209 -60 519q-9 114 -9 217q0 164 11 272z" />
</svg>
