<svg xmlns="http://www.w3.org/2000/svg" viewBox="-10 0 1727 1523" width="1727" height="1523"><path d="m1299 485 4 88q2 44 2 81 0 364-154 596-182 273-520 273-257 0-387-184-104-147-104-380 0-239 156-482 78-122 184-211l-4-6q-75 30-218 77-130 42-158 42-70 0-99-69-11-28-11-60 0-68 59-99 24-12 87-21 130-17 439-119 34-11 59-11 61 0 104 44 42 42 42 98 0 47-33 82-6 7-63 56-113 97-199 255-109 201-109 410 0 131 49 214 71 122 221 122 241 0 369-288 91-203 106-551v-59q0-63-6-123-2-24-2-32 0-65 67-100 36-19 70-19 69 0 111 58 11 17 36 78 48 119 150 288 70 117 127 189 43 56 43 110 0 63-51 104-33 27-71 27-67 0-115-80-101-165-173-402z" style="fill:currentColor"/></svg>