<?xml version="1.0" standalone="no"?>
<!DOCTYPE svg PUBLIC "-//W3C//DTD SVG 1.1//EN" "http://www.w3.org/Graphics/SVG/1.1/DTD/svg11.dtd" >
<svg xmlns="http://www.w3.org/2000/svg" xmlns:xlink="http://www.w3.org/1999/xlink" version="1.1" viewBox="-10 0 2058 2048">
   <path fill="currentColor"
d="M1040 534q-62 -80 -206 -147q-68 -32 -68 -86q0 -23 12 -43q26 -42 90 -42q49 0 145 39q188 77 271 178q48 58 48 118q0 105 -119 123q-61 9 -146 53q-37 19 -66 19q-37 0 -61 -27q-21 -24 -21 -49q0 -33 33 -64q41 -38 88 -72zM932 907q49 0 94 39q119 102 202 236
q99 161 99 323q0 135 -66 225q-88 119 -253 119q-155 0 -295 -137q-53 -53 -53 -104q0 -35 22 -62q21 -25 54 -25q41 0 89 37q69 53 141 53q107 0 107 -121q0 -87 -54 -198q-56 -116 -148 -215q-36 -39 -36 -80q0 -35 24 -60q28 -30 73 -30zM393 1499q42 -73 71 -107
q26 -30 57 -30q22 0 44 14q37 24 37 61q0 28 -29 77q-33 57 -61 157q-29 105 -129 105q-92 0 -160 -101q-21 -32 -39 -76q-55 -141 -55 -297q0 -125 96 -125q80 0 95 113q20 149 73 209zM1576 1054q45 0 87 31q69 51 153 145q134 150 134 243q0 70 -58 107q-38 25 -78 25
q-75 0 -117 -88q-81 -168 -185 -298q-31 -38 -31 -77q0 -30 22 -56q27 -32 73 -32z" />
</svg>
