<?xml version="1.0" standalone="no"?>
<!DOCTYPE svg PUBLIC "-//W3C//DTD SVG 1.1//EN" "http://www.w3.org/Graphics/SVG/1.1/DTD/svg11.dtd" >
<svg xmlns="http://www.w3.org/2000/svg" xmlns:xlink="http://www.w3.org/1999/xlink" version="1.1" viewBox="-10 0 2058 2048">
   <path fill="currentColor"
d="M758 744q-29 0 -79 66q-142 187 -293 336q-60 59 -118 59q-49 0 -85 -39q-40 -43 -40 -89q0 -43 33 -80q9 -10 45 -41q158 -138 336 -356q90 -111 192 -111q78 0 161 65q24 19 105 100q154 153 393 344q248 199 401 297q81 53 81 127q0 43 -32 86q-38 51 -94 51
q-48 0 -90 -29q-148 -101 -346 -273q-279 -240 -503 -471q-41 -42 -67 -42z" />
</svg>
