<svg xmlns="http://www.w3.org/2000/svg" viewBox="-10 0 1625 1552" width="1625" height="1552"><path d="M1004 251q-223 17-281 23-24 3-36 3-116 0-116-113 0-96 101-109 59-8 278-23 275-19 433-19 139 0 139 110 0 112-131 114-118 2-154 4v229q57-4 127-20 27-6 49-6 70 0 96 61 12 29 12 62 0 88-102 105-97 17-182 26v393q185 72 310 162 68 48 68 114 0 42-32 78-32 35-76 35-43 0-100-44-84-65-176-120-47 225-332 225-153 0-262-73-129-86-129-218 0-115 105-182 90-57 228-57 58 0 163 16V718q-112 9-232 9-92 0-119-13-57-28-57-106 0-109 155-109 104 0 253-10zm0 969q-107-29-171-29-63 0-98 22-26 16-26 38 0 37 44 62 54 31 137 31 78 0 101-39 13-24 13-71zm-772-39q13-28 24-50 36-74 49-96 20-32 54-32 17 0 32 8 34 20 34 56 0 20-21 66-37 82-101 288-40 131-125 131-188 0-188-629 0-271 46-675Q52 111 61 82 87 0 176 0q56 0 89 29 35 30 35 82 0 18-10 76-34 206-61 534-8 97-8 178 0 159 10 272 0 4 1 10z" style="fill:currentColor"/></svg>