<?xml version="1.0" standalone="no"?>
<!DOCTYPE svg PUBLIC "-//W3C//DTD SVG 1.1//EN" "http://www.w3.org/Graphics/SVG/1.1/DTD/svg11.dtd" >
<svg xmlns="http://www.w3.org/2000/svg" xmlns:xlink="http://www.w3.org/1999/xlink" version="1.1" viewBox="-10 0 2058 2048">
   <path fill="currentColor"
d="M1239 530q-223 17 -281 23q-24 3 -36 3q-116 0 -116 -113q0 -96 101 -109q59 -8 278 -23q275 -19 433 -19q139 0 139 110q0 112 -131 114q-118 2 -154 4v229q57 -4 127 -20q27 -6 49 -6q70 0 96 61q12 29 12 62q0 88 -102 105q-97 17 -182 26v393q185 72 310 162
q68 48 68 114q0 42 -32 78q-32 35 -76 35q-43 0 -100 -44q-84 -65 -176 -120q-47 225 -332 225q-153 0 -262 -73q-129 -86 -129 -218q0 -115 105 -182q90 -57 228 -57q58 0 163 16v-309q-112 9 -232 9q-92 0 -119 -13q-57 -28 -57 -106q0 -109 155 -109q104 0 253 -10v-238z
M1239 1499q-107 -29 -171 -29q-63 0 -98 22q-26 16 -26 38q0 37 44 62q54 31 137 31q78 0 101 -39q13 -24 13 -71v-14zM467 1460q13 -28 24 -50q36 -74 49 -96q20 -32 54 -32q17 0 32 8q34 20 34 56q0 20 -21 66q-37 82 -101 288q-40 131 -125 131q-188 0 -188 -629
q0 -271 46 -675q16 -137 25 -166q26 -82 115 -82q56 0 89 29q35 30 35 82q0 18 -10 76q-34 206 -61 534q-8 97 -8 178q0 159 10 272q0 4 1 10z" />
</svg>
