<svg xmlns="http://www.w3.org/2000/svg" viewBox="-10 0 1273 1726" width="1273" height="1726"><path d="M588 293V100q0-50 35-76 32-24 80-24 121 0 121 102v181q124-7 226-7 145 0 145 110 0 80-60 104-24 9-74 10-93 1-214 3l-23 1v229q87-8 158-26 22-6 44-6 105 0 105 120 0 76-90 101-61 16-217 34v314q242 85 356 154 83 51 83 120 0 31-15 63-29 60-96 60-40 0-89-34-110-76-255-144-44 145-170 197-95 40-242 40-165 0-280-79-126-87-126-214 0-94 90-163 114-88 301-88 93 0 207 20V973q-83 3-148 3-147 0-203-9-98-14-98-109 0-109 103-109 12 0 38 2 64 6 171 6 64 0 137-3V516q-226 17-407 41-20 3-34 3-120 0-120-120 0-83 96-100 152-27 465-47zm-4 1108q-127-37-217-37-80 0-128 29-34 20-34 47 0 31 42 59 58 39 149 39 149 0 178-89 6-18 10-48z" style="fill:currentColor"/></svg>