<?xml version="1.0" standalone="no"?>
<!DOCTYPE svg PUBLIC "-//W3C//DTD SVG 1.1//EN" "http://www.w3.org/Graphics/SVG/1.1/DTD/svg11.dtd" >
<svg xmlns="http://www.w3.org/2000/svg" xmlns:xlink="http://www.w3.org/1999/xlink" version="1.1" viewBox="-10 0 2058 2048">
   <path fill="currentColor"
d="M981 495q-85 23 -255 46q-116 15 -139 15q-51 0 -81 -30q-33 -32 -33 -87q0 -83 77 -110q20 -7 74 -9q263 -14 419 -58q32 -9 60 -9q71 0 115 54q39 48 39 97q0 41 -34 119q-139 315 -217 470q208 20 430 80q15 -67 26 -155q14 -113 123 -113q58 0 94 36q32 34 32 87
q0 69 -36 219q104 42 146 63q80 40 80 114q0 30 -17 62q-35 66 -94 66q-30 0 -73 -23q-55 -29 -115 -55q-138 315 -346 461q-57 40 -101 40q-42 0 -66 -31q-20 -27 -20 -52q0 -42 55 -94q152 -144 252 -412q-228 -78 -462 -102q-145 280 -214 371q-129 167 -283 167
q-77 0 -142 -62q-111 -105 -111 -277q0 -204 221 -315q147 -74 385 -85q141 -285 215 -481zM668 1186q-291 41 -291 205q0 58 23 93q14 23 35 23q50 0 110 -98q25 -42 123 -223z" />
</svg>
