<svg xmlns="http://www.w3.org/2000/svg" viewBox="-10 0 1633 1667" width="1633" height="1667"><path d="M387 391V111q0-41 21-68 32-43 98-43 81 0 109 61 10 22 10 50v237q91-20 154-42 23-9 48-9 70 0 96 70 9 24 9 53 0 72-87 103-91 33-220 57v372q0 156-33 277 0 4 1 6 3 36 3 51 2 89 46 115 49 30 196 30 179 0 258-57 91-67 91-250 0-76-13-166-5-32-5-49 0-51 35-72 23-14 47-14 62 0 99 77 17 37 35 100 33 119 33 232 0 261-188 362-137 73-385 73-285 0-394-133-76 88-171 88-94 0-170-76Q0 1435 0 1259q0-186 128-309 88-84 190-84 38 0 69 15V619q-178 22-283 22-114 0-114-113 0-60 36-91 28-23 70-23h26q108 0 265-23zm-4 817q-20-139-77-139-30 0-58 30-51 56-51 156 0 85 35 129 22 27 47 27 79 0 104-203zm829-1041q81 0 254 142 71 57 119 113 38 45 38 100 0 62-48 98-36 27-78 27-64 0-116-76-98-143-207-239-47-42-47-87 0-27 16-47 23-31 69-31z" style="fill:currentColor"/></svg>