<?xml version="1.0" standalone="no"?>
<!DOCTYPE svg PUBLIC "-//W3C//DTD SVG 1.1//EN" "http://www.w3.org/Graphics/SVG/1.1/DTD/svg11.dtd" >
<svg xmlns="http://www.w3.org/2000/svg" xmlns:xlink="http://www.w3.org/1999/xlink" version="1.1" viewBox="-10 0 2058 2048">
   <path fill="currentColor"
d="M988 499h161q118 0 118 118t-120 118q-9 0 -28 -1q-52 -3 -135 -4q-24 0 -42 -1l-6 33l-14 83l-14 77l-12 66l-3 17q61 -2 220 -13q17 -1 27 -1q49 0 81 29q33 31 33 85q0 99 -104 117q-68 12 -285 17q-13 101 -13 155q0 263 254 263q357 0 357 -351q0 -84 -21 -194
q-6 -31 -6 -50q0 -54 42 -78q26 -15 54 -15q64 0 103 83q65 136 65 300q0 298 -214 437q-149 97 -384 97q-210 0 -340 -107q-156 -128 -156 -372q0 -57 13 -164q-146 0 -187 -5q-108 -14 -108 -115q0 -52 30 -82t78 -30q9 0 28 1q55 4 186 4q18 -120 49 -283h-18
q-167 5 -200 7q-14 1 -20 1q-46 0 -82 -24q-45 -31 -45 -88q0 -64 51 -97q27 -18 69 -21q65 -4 210 -9q39 -1 78 -3q17 -90 53 -252q24 -106 121 -106q25 0 44 5q82 22 82 107q0 20 -8 54q-37 166 -42 192z" />
</svg>
