<?xml version="1.0" standalone="no"?>
<!DOCTYPE svg PUBLIC "-//W3C//DTD SVG 1.1//EN" "http://www.w3.org/Graphics/SVG/1.1/DTD/svg11.dtd" >
<svg xmlns="http://www.w3.org/2000/svg" xmlns:xlink="http://www.w3.org/1999/xlink" version="1.1" viewBox="-10 0 2058 2048">
   <path fill="currentColor"
d="M1077 389q-46 -44 -133 -92q-47 -27 -47 -62q0 -21 14 -39q21 -26 66 -26q39 0 103 21q134 44 205 120q51 54 51 116q0 41 -21 72q68 -14 132 -14q156 0 262 72q140 94 140 273q0 184 -133 278q-107 75 -281 75q-94 0 -137 -15q-72 -25 -72 -94q0 -73 98 -73l63 2
q93 0 149 -36q65 -43 65 -127q0 -52 -35 -91q-47 -51 -124 -51q-108 0 -283 68q-96 36 -310 132l-30 13q216 518 361 761q24 40 24 80q0 69 -60 103q-40 23 -78 23q-68 0 -108 -76q-135 -257 -360 -786l-17 8q-170 81 -209 100q-51 23 -84 23q-58 0 -90 -53q-22 -38 -22 -71
q0 -74 82 -112q78 -36 254 -108q-69 -169 -115 -288q-22 -57 -22 -87q0 -63 57 -92q36 -19 74 -19q76 0 114 100q62 159 117 293q106 -43 251 -101q51 -21 76 -31q63 -28 122 -46q-44 -6 -112 -8q-64 -2 -76 -5q-64 -13 -64 -63q0 -45 43 -55q30 -7 100 -12z" />
</svg>
