<?xml version="1.0" standalone="no"?>
<!DOCTYPE svg PUBLIC "-//W3C//DTD SVG 1.1//EN" "http://www.w3.org/Graphics/SVG/1.1/DTD/svg11.dtd" >
<svg xmlns="http://www.w3.org/2000/svg" xmlns:xlink="http://www.w3.org/1999/xlink" version="1.1" viewBox="-10 0 2058 2048">
   <path fill="currentColor"
d="M915 1261v-997q0 -121 118 -121q120 0 120 123v330q190 -17 315 -51q34 -9 60 -9q118 0 118 118q0 84 -85 106q-151 38 -408 53v502q219 58 468 204q76 45 76 115q0 34 -19 67q-36 61 -102 61q-38 0 -94 -36q-195 -123 -339 -182q-27 119 -88 182q-110 113 -334 113
q-200 0 -341 -111q-116 -92 -116 -213q0 -96 91 -169q130 -103 353 -103q86 0 207 18zM913 1472q-127 -26 -216 -26q-109 0 -163 32q-34 19 -34 45q0 29 41 56q72 47 170 47q157 0 191 -102q7 -19 11 -52z" />
</svg>
