<svg xmlns="http://www.w3.org/2000/svg" viewBox="-10 0 1433 1696" width="1433" height="1696"><path d="M641 1118V121Q641 0 759 0q120 0 120 123v330q190-17 315-51 34-9 60-9 118 0 118 118 0 84-85 106-151 38-408 53v502q219 58 468 204 76 45 76 115 0 34-19 67-36 61-102 61-38 0-94-36-195-123-339-182-27 119-88 182-110 113-334 113-200 0-341-111-116-92-116-213 0-96 91-169 130-103 353-103 86 0 207 18zm-2 211q-127-26-216-26-109 0-163 32-34 19-34 45 0 29 41 56 72 47 170 47 157 0 191-102 7-19 11-52z" style="fill:currentColor"/></svg>