<svg xmlns="http://www.w3.org/2000/svg" viewBox="-10 0 1195 1751" width="1195" height="1751"><path d="M509 285q-72-75-194-133-52-25-52-72 0-24 15-46 23-34 75-34 81 0 241 89 84 46 120 80 72 67 72 145 0 106-139 108-72 1-144 16-28 6-49 6-76 0-76-69 0-40 40-60 37-18 91-30zm-266 718q255-143 506-143 162 0 273 70 163 103 163 303 0 264-306 410-138 66-322 98-57 10-80 10-95 0-95-92 0-47 41-75 18-11 100-32 392-100 392-320 0-71-46-114-49-47-142-47-135 0-296 67-113 46-206 117-47 35-98 35-71 0-111-60-26-40-26-94 0-32 14-139 27-213 85-434 26-102 113-102 34 0 63 11 67 26 67 96 0 24-14 70-48 156-73 347-1 6-2 18z" style="fill:currentColor"/></svg>