<?xml version="1.0" standalone="no"?>
<!DOCTYPE svg PUBLIC "-//W3C//DTD SVG 1.1//EN" "http://www.w3.org/Graphics/SVG/1.1/DTD/svg11.dtd" >
<svg xmlns="http://www.w3.org/2000/svg" xmlns:xlink="http://www.w3.org/1999/xlink" version="1.1" viewBox="-10 0 2058 2048">
   <path fill="currentColor"
d="M1016 422q-72 -75 -194 -133q-52 -25 -52 -72q0 -24 15 -46q23 -34 75 -34q81 0 241 89q84 46 120 80q72 67 72 145q0 106 -139 108q-72 1 -144 16q-28 6 -49 6q-76 0 -76 -69q0 -40 40 -60q37 -18 91 -30zM750 1140q255 -143 506 -143q162 0 273 70q163 103 163 303
q0 264 -306 410q-138 66 -322 98q-57 10 -80 10q-95 0 -95 -92q0 -47 41 -75q18 -11 100 -32q392 -100 392 -320q0 -71 -46 -114q-49 -47 -142 -47q-135 0 -296 67q-113 46 -206 117q-47 35 -98 35q-71 0 -111 -60q-26 -40 -26 -94q0 -32 14 -139q27 -213 85 -434
q26 -102 113 -102q34 0 63 11q67 26 67 96q0 24 -14 70q-48 156 -73 347q-1 6 -2 18z" />
</svg>
