<?xml version="1.0" standalone="no"?>
<!DOCTYPE svg PUBLIC "-//W3C//DTD SVG 1.1//EN" "http://www.w3.org/Graphics/SVG/1.1/DTD/svg11.dtd" >
<svg xmlns="http://www.w3.org/2000/svg" xmlns:xlink="http://www.w3.org/1999/xlink" version="1.1" viewBox="-10 0 2058 2048">
   <path fill="currentColor"
d="M733 942q27 -61 82 -134q22 -30 50 -30q20 0 37 11q30 18 30 51q0 26 -25 73q-68 132 -113 250q-38 100 -118 100q-55 0 -101 -62q-88 -118 -88 -385q0 -260 44 -498q20 -105 120 -105q62 0 96 36q27 29 27 74q0 16 -7 58q-42 237 -42 426q0 92 8 135zM1343 216
q97 0 122 99q40 158 40 478q0 629 -279 937q-153 169 -244 169q-45 0 -69 -35q-17 -25 -17 -52q0 -44 48 -92q119 -119 177 -226q130 -241 130 -709q0 -259 -26 -437q-3 -17 -3 -30q0 -102 121 -102z" />
</svg>
