<svg xmlns="http://www.w3.org/2000/svg" viewBox="-10 0 1383 1641" width="1383" height="1641"><path d="M719 253q-304 57-380 57-56 0-87-34-28-30-28-79 0-84 72-112 24-8 88-13Q676 51 869 5q22-5 39-5 73 0 122 59 34 40 34 88t-37 88Q900 376 437 797l6 7q182-117 406-117 208 0 349 97 175 120 175 329 0 285-244 425-179 103-448 103-141 0-245-62-136-81-136-215 0-102 90-169 97-72 244-72 239 0 387 211 94-95 94-218 0-113-95-178-75-52-195-52-336 0-624 223-51 40-96 40t-79-39q-36-43-36-93 0-51 35-86 8-8 57-51 341-299 646-621zm117 1175q-96-125-210-125-111 0-111 66 0 31 34 52 44 27 125 27 91 0 149-16 4-1 6-2 1 0 7-2z" style="fill:currentColor"/></svg>