<?xml version="1.0" standalone="no"?>
<!DOCTYPE svg PUBLIC "-//W3C//DTD SVG 1.1//EN" "http://www.w3.org/Graphics/SVG/1.1/DTD/svg11.dtd" >
<svg xmlns="http://www.w3.org/2000/svg" xmlns:xlink="http://www.w3.org/1999/xlink" version="1.1" viewBox="-10 0 2058 2048">
   <path fill="currentColor"
d="M1071 467q-304 57 -380 57q-56 0 -87 -34q-28 -30 -28 -79q0 -84 72 -112q24 -8 88 -13q292 -21 485 -67q22 -5 39 -5q73 0 122 59q34 40 34 88t-37 88q-127 141 -590 562l6 7q182 -117 406 -117q208 0 349 97q175 120 175 329q0 285 -244 425q-179 103 -448 103
q-141 0 -245 -62q-136 -81 -136 -215q0 -102 90 -169q97 -72 244 -72q239 0 387 211q94 -95 94 -218q0 -113 -95 -178q-75 -52 -195 -52q-336 0 -624 223q-51 40 -96 40t-79 -39q-36 -43 -36 -93q0 -51 35 -86q8 -8 57 -51q341 -299 646 -621zM1188 1642q-96 -125 -210 -125
q-111 0 -111 66q0 31 34 52q44 27 125 27q91 0 149 -16q4 -1 6 -2q1 0 7 -2z" />
</svg>
