<svg xmlns="http://www.w3.org/2000/svg" viewBox="-10 0 1857 1747" width="1857" height="1747"><path d="M1236 483Q948 662 705 882q-88 80-114 105l-1 43q-12 497-10 538 1 29 1 33 0 146-118 146-68 0-98-45-20-31-20-109 0-248 2-373-73 73-142 150-49 54-98 54-50 0-88-45-29-35-29-81 0-44 36-83 142-153 331-456l1-8q3-77 4-119-203 78-241 78-75 0-98-66-10-29-10-58 0-86 110-106 79-14 249-69 15-275 24-318Q414 0 510 0q120 0 120 122 0 48-12 209 37 5 61 24 41 32 41 79 0 33-27 70-47 65-88 133-1 19-2 56l-2 36q300-269 565-441 86-56 157-56 46 0 88 24 73 42 73 126 0 16-5 74-42 447-42 717 0 147 79 147 82 0 173-139 28-43 76-43 27 0 51 16 31 22 31 63 0 47-39 121-50 93-128 150-97 70-211 70-142 0-215-108-55-82-55-223 0-211 45-738z" style="fill:currentColor"/></svg>