<svg xmlns="http://www.w3.org/2000/svg" viewBox="-10 0 1771 1748" width="1771" height="1748"><path d="M391 400q9-215 20-298Q425 0 526 0q121 0 121 124 0 7-1 25-7 92-9 181 33 5 55 21 45 34 45 91 0 38-29 77-19 26-56 84l-30 45-1 24-2 37-2 37-1 14q349-258 639-258 210 0 346 108 160 126 160 362 0 232-149 394-133 143-357 201-50 13-77 13-94 0-94-91 0-55 85-87 113-43 184-103 156-130 156-318 0-104-60-174-78-90-216-90-246 0-625 287l-1 42q-11 484-10 525 1 28 1 31 0 146-118 146-69 0-99-45-21-31-21-110 0-278 2-382-90 80-146 137-60 60-107 60-43 0-81-40-38-41-38-87 0-50 48-92 62-55 114-124 74-97 223-337 3-55 4-103-193 76-257 76-68 0-94-65-11-29-11-58 0-82 113-108 106-25 261-70z" style="fill:currentColor"/></svg>