<?xml version="1.0" standalone="no"?>
<!DOCTYPE svg PUBLIC "-//W3C//DTD SVG 1.1//EN" "http://www.w3.org/Graphics/SVG/1.1/DTD/svg11.dtd" >
<svg xmlns="http://www.w3.org/2000/svg" xmlns:xlink="http://www.w3.org/1999/xlink" version="1.1" viewBox="-10 0 2058 2048">
   <path fill="currentColor"
d="M1221 1181v201q0 43 -22 71q-32 42 -95 42q-118 0 -118 -113v-84q-201 125 -201 223q0 94 202 94q230 0 411 -25q20 -3 33 -3q55 0 85 32q31 33 31 88q0 99 -113 116q-115 18 -410 18q-217 0 -334 -63q-147 -78 -147 -232q0 -169 176 -311q70 -57 246 -162l14 -8
q-22 -82 -98 -82q-121 0 -219 74q-53 40 -100 40q-49 0 -84 -40q-33 -38 -33 -82q0 -42 41 -84q26 -27 72 -94q28 -42 86 -138l8 -14h-12l-100 5q-67 3 -78 3q-128 0 -128 -108q0 -86 68 -109q23 -8 70 -9q102 -1 303 -14q34 -67 97 -203q41 -86 117 -86q46 0 84 24
q43 28 43 78q0 38 -64 148l-7 13q116 -14 222 -41q27 -7 45 -7q67 0 93 59q13 28 13 58q0 81 -102 106q-124 30 -396 60q-14 21 -41 64q-50 80 -88 135l4 6q101 -39 183 -39q157 0 218 166q154 -83 329 -142q48 -16 81 -16q60 0 90 47q23 35 23 80q0 56 -47 82q-11 6 -47 19
q-198 68 -404 157z" />
</svg>
