<svg xmlns="http://www.w3.org/2000/svg" viewBox="-10 0 1385 1717" width="1385" height="1717"><path d="M877 1057v201q0 43-22 71-32 42-95 42-118 0-118-113v-84q-201 125-201 223 0 94 202 94 230 0 411-25 20-3 33-3 55 0 85 32 31 33 31 88 0 99-113 116-115 18-410 18-217 0-334-63-147-78-147-232 0-169 176-311 70-57 246-162l14-8q-22-82-98-82-121 0-219 74-53 40-100 40-49 0-84-40-33-38-33-82 0-42 41-84 26-27 72-94 28-42 86-138l8-14h-12l-100 5q-67 3-78 3-128 0-128-108 0-86 68-109 23-8 70-9 102-1 303-14 34-67 97-203Q569 0 645 0q46 0 84 24 43 28 43 78 0 38-64 148l-7 13q116-14 222-41 27-7 45-7 67 0 93 59 13 28 13 58 0 81-102 106-124 30-396 60-14 21-41 64-50 80-88 135l4 6q101-39 183-39 157 0 218 166 154-83 329-142 48-16 81-16 60 0 90 47 23 35 23 80 0 56-47 82-11 6-47 19-198 68-404 157z" style="fill:currentColor"/></svg>