<svg xmlns="http://www.w3.org/2000/svg" viewBox="-10 0 1677 1624" width="1677" height="1624"><path d="M690 1012q-269 211-421 461l-24 36q-9 12-18 28-40 67-112 67-33 0-66-21-59-38-59-106 0-40 53-157Q284 789 666 81 710 0 783 0q45 0 86 30 48 35 48 89 0 36-48 116-175 294-415 755l4 6q119-124 244-199 59-35 107-35 49 0 88 33 47 41 47 106 0 19-6 63-5 43-5 103 0 173 36 246 35 71 127 71 95 0 200-88 111-93 188-245 30-60 85-60 30 0 58 18 40 26 40 76 0 65-80 203-83 145-204 232-144 104-315 104-261 0-341-225-33-94-33-296 0-38 2-85z" style="fill:currentColor"/></svg>