<svg xmlns="http://www.w3.org/2000/svg" xmlns:svg="http://www.w3.org/2000/svg" id="svg4" width="501" height="562" version="1.1" viewBox="-10 0 501 562"><path id="path2" fill="currentColor" d="m 491,514 v 5 q -2,37 -49,38 -40,0 -47,-34 -1,-5 -2,-9 -4,-38 -6,-119 -54,137 -148,161 -25,6 -52,6 Q 71,562 20,464 -10,407 -10,328 -10,133 115,49 188,0 291,0 q 73,0 134,19 45,14 52,45 3,12 3,25 v 232 q 0,91 11,193 z M 384,138 V 105 Q 342,79 289,79 142,79 104,219 q -11,44 -11,98 0,154 93,166 7,1 14,1 82,-2 135,-125 49,-117 49,-221 z"/></svg>