<?xml version="1.0" encoding="UTF-8" standalone="no"?>
<svg
   version="1.1"
   viewBox="-10 0 512 867"
   id="svg4"
   sodipodi:docname="b-98.svg"
   width="512"
   height="867"
   inkscape:version="1.1.1 (3bf5ae0d25, 2021-09-20)"
   xmlns:inkscape="http://www.inkscape.org/namespaces/inkscape"
   xmlns:sodipodi="http://sodipodi.sourceforge.net/DTD/sodipodi-0.dtd"
   xmlns="http://www.w3.org/2000/svg"
   xmlns:svg="http://www.w3.org/2000/svg">
  <defs
     id="defs8" />
  <sodipodi:namedview
     id="namedview6"
     pagecolor="#ffffff"
     bordercolor="#111111"
     borderopacity="1"
     inkscape:pageshadow="0"
     inkscape:pageopacity="0"
     inkscape:pagecheckerboard="1"
     showgrid="false"
     inkscape:zoom="0.873"
     inkscape:cx="233.67698"
     inkscape:cy="511.45475"
     inkscape:window-width="2560"
     inkscape:window-height="1351"
     inkscape:window-x="-9"
     inkscape:window-y="-9"
     inkscape:window-maximized="0"
     inkscape:current-layer="svg4" />
  <path
     fill="currentColor"
     d="m 90,44 v 399 q 69,-137 195,-138 119,0 178,92 39,62 39,150 0,210 -129,286 -60,34 -139,34 -83,-1 -144,-60 v 11 q 0,35 -36,42 -7,2 -14,2 -40,0 -48,-31 -2,-7 -2,-13 V 44 Q -10,9 26,2 33,0 40,0 q 40,0 48,31 2,7 2,13 z m 0,627 v 46 q 34,50 103,68 21,5 41,5 112,0 148,-119 16,-51 16,-119 0,-131 -79,-161 -19,-7 -42,-7 -83,1 -136,94 -51,90 -51,193 z"
     id="path2" />
</svg>
