<svg xmlns="http://www.w3.org/2000/svg" xmlns:svg="http://www.w3.org/2000/svg" id="svg4" width="520" height="867" version="1.1" viewBox="-10 0 520 867"><path id="path2" fill="currentColor" d="M 399,319 V 44 q 0,-35 36,-42 7,-2 14,-2 40,0 48,31 2,7 2,13 v 582 q 0,91 11,193 v 5 q -2,37 -49,38 -44,0 -52,-36 -1,-4 -1,-7 -4,-39 -6,-120 -53,135 -147,161 -27,7 -58,7 -116,0 -171,-91 -36,-59 -36,-143 0,-192 125,-277 76,-51 183,-51 55,0 101,14 z m 0,124 v -33 q -44,-26 -103,-26 -144,0 -186,128 -16,48 -16,110 0,134 78,161 17,6 35,6 88,-2 142,-125 50,-116 50,-221 z"/></svg>