<svg xmlns="http://www.w3.org/2000/svg" xmlns:svg="http://www.w3.org/2000/svg" id="svg4" width="499" height="562" version="1.1" viewBox="-10 0 499 562"><path id="path2" fill="currentColor" d="M 407,311 H 89 q 3,106 76,150 39,24 91,24 72,0 117,-40 11,-10 22,-22 12,-12 29,-13 31,0 47,25 6,9 6,17 -1,16 -13,30 -79,80 -210,80 Q 112,562 41,463 -10,391 -10,286 -10,136 88,56 158,0 254,0 q 115,0 183,82 52,63 52,151 0,70 -63,77 -9,1 -19,1 z M 91,234 h 286 q 13,0 16,-14 1,-3 1,-5 0,-71 -57,-112 -37,-27 -83,-27 -88,0 -135,72 -24,39 -28,86 z"/></svg>