<?xml version="1.0" encoding="UTF-8" standalone="no"?>
<svg
   version="1.1"
   viewBox="-10 0 499 562"
   id="svg4"
   sodipodi:docname="e-101.svg"
   width="499"
   height="562"
   inkscape:version="1.1.1 (3bf5ae0d25, 2021-09-20)"
   xmlns:inkscape="http://www.inkscape.org/namespaces/inkscape"
   xmlns:sodipodi="http://sodipodi.sourceforge.net/DTD/sodipodi-0.dtd"
   xmlns="http://www.w3.org/2000/svg"
   xmlns:svg="http://www.w3.org/2000/svg">
  <defs
     id="defs8" />
  <sodipodi:namedview
     id="namedview6"
     pagecolor="#ffffff"
     bordercolor="#111111"
     borderopacity="1"
     inkscape:pageshadow="0"
     inkscape:pageopacity="0"
     inkscape:pagecheckerboard="1"
     showgrid="false"
     inkscape:zoom="0.873"
     inkscape:cx="241.6953"
     inkscape:cy="205.61283"
     inkscape:window-width="2560"
     inkscape:window-height="1351"
     inkscape:window-x="-9"
     inkscape:window-y="-9"
     inkscape:window-maximized="0"
     inkscape:current-layer="svg4" />
  <path
     fill="currentColor"
     d="M 407,311 H 89 q 3,106 76,150 39,24 91,24 72,0 117,-40 11,-10 22,-22 12,-12 29,-13 31,0 47,25 6,9 6,17 -1,16 -13,30 -79,80 -210,80 Q 112,562 41,463 -10,391 -10,286 -10,136 88,56 158,0 254,0 q 115,0 183,82 52,63 52,151 0,70 -63,77 -9,1 -19,1 z M 91,234 h 286 q 13,0 16,-14 1,-3 1,-5 0,-71 -57,-112 -37,-27 -83,-27 -88,0 -135,72 -24,39 -28,86 z"
     id="path2" />
</svg>
