<?xml version="1.0" encoding="UTF-8" standalone="no"?>
<svg
   version="1.1"
   viewBox="-10 0 454 868"
   id="svg4"
   sodipodi:docname="f-102.svg"
   width="454"
   height="868"
   inkscape:version="1.1.1 (3bf5ae0d25, 2021-09-20)"
   xmlns:inkscape="http://www.inkscape.org/namespaces/inkscape"
   xmlns:sodipodi="http://sodipodi.sourceforge.net/DTD/sodipodi-0.dtd"
   xmlns="http://www.w3.org/2000/svg"
   xmlns:svg="http://www.w3.org/2000/svg">
  <defs
     id="defs8" />
  <sodipodi:namedview
     id="namedview6"
     pagecolor="#ffffff"
     bordercolor="#111111"
     borderopacity="1"
     inkscape:pageshadow="0"
     inkscape:pageopacity="0"
     inkscape:pagecheckerboard="1"
     showgrid="false"
     inkscape:zoom="0.873"
     inkscape:cx="216.49485"
     inkscape:cy="517.18213"
     inkscape:window-width="2560"
     inkscape:window-height="1351"
     inkscape:window-x="-9"
     inkscape:window-y="-9"
     inkscape:window-maximized="0"
     inkscape:current-layer="svg4" />
  <path
     fill="currentColor"
     d="M 111,322 V 176 Q 111,69 193,24 236,0 293,0 q 85,0 136,35 15,10 15,30 0,31 -26,45 -10,4 -18,4 -13,0 -25,-7 -37,-27 -77,-27 -60,0 -80,55 -7,19 -7,42 v 145 h 110 q 36,2 37,40 -2,39 -37,40 H 211 v 422 q 0,35 -36,42 -7,2 -14,2 -40,0 -48,-31 -2,-7 -2,-13 V 402 H 27 q -36,-2 -37,-40 2,-39 37,-40 z"
     id="path2" />
</svg>
