<?xml version="1.0" encoding="UTF-8" standalone="no"?>
<svg
   version="1.1"
   viewBox="-10 0 475 862"
   id="svg4"
   sodipodi:docname="h-104.svg"
   width="475"
   height="862"
   inkscape:version="1.1.1 (3bf5ae0d25, 2021-09-20)"
   xmlns:inkscape="http://www.inkscape.org/namespaces/inkscape"
   xmlns:sodipodi="http://sodipodi.sourceforge.net/DTD/sodipodi-0.dtd"
   xmlns="http://www.w3.org/2000/svg"
   xmlns:svg="http://www.w3.org/2000/svg">
  <defs
     id="defs8" />
  <sodipodi:namedview
     id="namedview6"
     pagecolor="#ffffff"
     bordercolor="#111111"
     borderopacity="1"
     inkscape:pageshadow="0"
     inkscape:pageopacity="0"
     inkscape:pagecheckerboard="1"
     showgrid="false"
     inkscape:zoom="0.873"
     inkscape:cx="230.24055"
     inkscape:cy="511.45475"
     inkscape:window-width="2560"
     inkscape:window-height="1351"
     inkscape:window-x="-9"
     inkscape:window-y="-9"
     inkscape:window-maximized="0"
     inkscape:current-layer="svg4" />
  <path
     fill="currentColor"
     d="M 90,44 V 448 Q 149,313 265,305 h 13 q 157,0 177,133 3,19 3,39 v 202 q 0,74 7,138 v 4 q -8,37 -51,41 -49,-2 -53,-43 -6,-68 -6,-132 V 496 q -8,-109 -87,-113 -74,1 -123,85 -55,94 -55,197 v 153 q 0,35 -36,42 -7,2 -14,2 -40,0 -48,-31 -2,-7 -2,-13 V 44 Q -10,9 26,2 33,0 40,0 q 40,0 48,31 2,7 2,13 z"
     id="path2" />
</svg>
