<?xml version="1.0" encoding="UTF-8" standalone="no"?>
<svg
   version="1.1"
   viewBox="-178 0 418 1104"
   id="svg4"
   sodipodi:docname="j-106.svg"
   width="418"
   height="1104"
   inkscape:version="1.1.1 (3bf5ae0d25, 2021-09-20)"
   xmlns:inkscape="http://www.inkscape.org/namespaces/inkscape"
   xmlns:sodipodi="http://sodipodi.sourceforge.net/DTD/sodipodi-0.dtd"
   xmlns="http://www.w3.org/2000/svg"
   xmlns:svg="http://www.w3.org/2000/svg">
  <defs
     id="defs8" />
  <sodipodi:namedview
     id="namedview6"
     pagecolor="#ffffff"
     bordercolor="#111111"
     borderopacity="1"
     inkscape:pageshadow="0"
     inkscape:pageopacity="0"
     inkscape:pagecheckerboard="1"
     showgrid="false"
     inkscape:zoom="0.873"
     inkscape:cx="243.98625"
     inkscape:cy="427.83505"
     inkscape:window-width="2560"
     inkscape:window-height="1351"
     inkscape:window-x="-9"
     inkscape:window-y="-9"
     inkscape:window-maximized="0"
     inkscape:current-layer="svg4" />
  <path
     fill="currentColor"
     d="M 121,904 V 271 q 0,-35 36,-42 7,-2 14,-2 39,0 49,30 2,7 2,14 v 627 q 0,123 -90,176 -50,30 -118,30 -132,-1 -183,-88 -9,-17 -9,-28 0,-28 33,-39 12,-4 23,-4 25,1 38,24 34,55 99,56 81,0 101,-76 5,-21 5,-45 z M 174,0 q 45,0 61,40 5,14 5,29 0,45 -38,61 -13,6 -28,6 -46,0 -64,-38 -6,-14 -6,-29 0,-46 40,-63 14,-6 30,-6 z"
     id="path2" />
</svg>
