<?xml version="1.0" encoding="UTF-8" standalone="no"?>
<svg
   version="1.1"
   viewBox="-10 0 427 862"
   id="svg4"
   sodipodi:docname="k-107.svg"
   width="427"
   height="862"
   inkscape:version="1.1.1 (3bf5ae0d25, 2021-09-20)"
   xmlns:inkscape="http://www.inkscape.org/namespaces/inkscape"
   xmlns:sodipodi="http://sodipodi.sourceforge.net/DTD/sodipodi-0.dtd"
   xmlns="http://www.w3.org/2000/svg"
   xmlns:svg="http://www.w3.org/2000/svg">
  <defs
     id="defs8" />
  <sodipodi:namedview
     id="namedview6"
     pagecolor="#ffffff"
     bordercolor="#111111"
     borderopacity="1"
     inkscape:pageshadow="0"
     inkscape:pageopacity="0"
     inkscape:pagecheckerboard="1"
     showgrid="false"
     inkscape:zoom="0.873"
     inkscape:cx="183.27606"
     inkscape:cy="511.45475"
     inkscape:window-width="2560"
     inkscape:window-height="1351"
     inkscape:window-x="-9"
     inkscape:window-y="-9"
     inkscape:window-maximized="0"
     inkscape:current-layer="svg4" />
  <path
     fill="currentColor"
     d="m 194,559 210,223 q 13,15 13,30 0,31 -30,45 -11,5 -23,5 -20,-1 -33,-15 L 103,596 Q 95,586 90,575 v 243 q 0,34 -35,42 -8,2 -16,2 -39,0 -47,-31 -2,-7 -2,-13 V 44 Q -10,9 26,1 33,0 39,0 q 39,0 49,30 2,7 2,14 v 496 q 5,-11 13,-19 L 321,322 q 14,-12 30,-12 32,0 48,28 6,11 6,22 -1,18 -14,30 z"
     id="path2" />
</svg>
