<?xml version="1.0" encoding="UTF-8" standalone="no"?>
<svg
   version="1.1"
   viewBox="-10 0 811 557"
   id="svg4"
   sodipodi:docname="m-109.svg"
   width="811"
   height="557"
   inkscape:version="1.1.1 (3bf5ae0d25, 2021-09-20)"
   xmlns:inkscape="http://www.inkscape.org/namespaces/inkscape"
   xmlns:sodipodi="http://sodipodi.sourceforge.net/DTD/sodipodi-0.dtd"
   xmlns="http://www.w3.org/2000/svg"
   xmlns:svg="http://www.w3.org/2000/svg">
  <defs
     id="defs8" />
  <sodipodi:namedview
     id="namedview6"
     pagecolor="#ffffff"
     bordercolor="#111111"
     borderopacity="1"
     inkscape:pageshadow="0"
     inkscape:pageopacity="0"
     inkscape:pagecheckerboard="1"
     showgrid="false"
     inkscape:zoom="0.873"
     inkscape:cx="397.47995"
     inkscape:cy="205.61283"
     inkscape:window-width="2560"
     inkscape:window-height="1351"
     inkscape:window-x="-9"
     inkscape:window-y="-9"
     inkscape:window-maximized="0"
     inkscape:current-layer="svg4" />
  <path
     fill="currentColor"
     d="m 90,49 v 94 Q 152,1 269,0 386,0 426,90 437,115 441,143 503,1 620,0 q 145,0 170,124 4,23 4,48 v 202 q 0,74 7,138 v 4 q -8,37 -51,41 -49,-2 -53,-43 -5,-57 -5,-132 V 191 Q 683,83 610,78 q -70,1 -117,85 -52,95 -52,197 v 153 q 0,35 -36,42 -7,2 -14,2 -40,0 -48,-31 -2,-7 -2,-13 V 191 Q 332,83 259,78 191,79 143,163 90,257 90,360 v 153 q 0,35 -36,42 -7,2 -14,2 -40,0 -48,-31 -2,-7 -2,-13 V 49 q 0,-35 36,-42 7,-2 14,-2 40,0 48,31 2,7 2,13 z"
     id="path2" />
</svg>
