<svg xmlns="http://www.w3.org/2000/svg" xmlns:svg="http://www.w3.org/2000/svg" id="svg4" width="511" height="877" version="1.1" viewBox="-10 0 511 877"><path id="path2" fill="currentColor" d="M 401,833 V 395 q -53,145 -165,164 -20,3 -40,3 Q 80,562 25,470 -10,411 -10,328 -10,140 111,54 189,0 298,0 q 81,0 148,19 45,13 53,47 2,10 2,23 v 744 q 0,35 -36,42 -7,2 -14,2 -40,0 -48,-31 -2,-7 -2,-13 z m 0,-695 V 104 Q 359,79 296,79 152,79 110,207 94,255 94,317 q 0,134 78,161 17,6 35,6 90,-2 144,-125 50,-116 50,-221 z"/></svg>