<?xml version="1.0" encoding="UTF-8" standalone="no"?>
<svg
   version="1.1"
   viewBox="-10 0 447 562"
   id="svg4"
   sodipodi:docname="s-115.svg"
   width="447"
   height="562"
   inkscape:version="1.1.1 (3bf5ae0d25, 2021-09-20)"
   xmlns:inkscape="http://www.inkscape.org/namespaces/inkscape"
   xmlns:sodipodi="http://sodipodi.sourceforge.net/DTD/sodipodi-0.dtd"
   xmlns="http://www.w3.org/2000/svg"
   xmlns:svg="http://www.w3.org/2000/svg">
  <defs
     id="defs8" />
  <sodipodi:namedview
     id="namedview6"
     pagecolor="#ffffff"
     bordercolor="#111111"
     borderopacity="1"
     inkscape:pageshadow="0"
     inkscape:pageopacity="0"
     inkscape:pagecheckerboard="1"
     showgrid="false"
     inkscape:zoom="0.873"
     inkscape:cx="221.07675"
     inkscape:cy="205.61283"
     inkscape:window-width="2560"
     inkscape:window-height="1351"
     inkscape:window-x="-9"
     inkscape:window-y="-9"
     inkscape:window-maximized="0"
     inkscape:current-layer="svg4" />
  <path
     fill="currentColor"
     d="M 234,320 189,310 Q 64,283 31,228 13,197 13,149 13,60 100,21 148,0 215,0 q 133,1 202,94 7,10 7,23 0,27 -32,38 -11,4 -23,4 -21,-1 -32,-16 -45,-67 -122,-68 -107,1 -108,70 0,41 38,59 25,12 76,24 l 45,10 q 126,28 157,95 14,31 14,72 0,93 -92,134 -53,23 -125,23 -151,-1 -223,-99 -7,-10 -7,-23 0,-25 31,-38 12,-4 24,-4 21,1 34,17 51,67 127,72 h 14 q 116,-8 122,-81 0,-45 -43,-66 -24,-11 -65,-20 z"
     id="path2" />
</svg>
