<?xml version="1.0" encoding="UTF-8" standalone="no"?>
<svg
   version="1.1"
   viewBox="-10 0 783 552"
   id="svg4"
   sodipodi:docname="w-119.svg"
   width="783"
   height="552"
   inkscape:version="1.1.1 (3bf5ae0d25, 2021-09-20)"
   xmlns:inkscape="http://www.inkscape.org/namespaces/inkscape"
   xmlns:sodipodi="http://sodipodi.sourceforge.net/DTD/sodipodi-0.dtd"
   xmlns="http://www.w3.org/2000/svg"
   xmlns:svg="http://www.w3.org/2000/svg">
  <defs
     id="defs8" />
  <sodipodi:namedview
     id="namedview6"
     pagecolor="#ffffff"
     bordercolor="#111111"
     borderopacity="1"
     inkscape:pageshadow="0"
     inkscape:pageopacity="0"
     inkscape:pagecheckerboard="1"
     showgrid="false"
     inkscape:zoom="0.873"
     inkscape:cx="386.0252"
     inkscape:cy="201.03093"
     inkscape:window-width="2560"
     inkscape:window-height="1351"
     inkscape:window-x="-9"
     inkscape:window-y="-9"
     inkscape:window-maximized="0"
     inkscape:current-layer="svg4" />
  <path
     fill="currentColor"
     d="M 228,352 308,51 q 22,-46 72,-51 55,0 70,44 1,4 2,7 l 74,300 q 6,21 14,67 6,30 9,44 h 5 q 5,-17 13,-53 9,-40 14,-58 L 674,30 q 9,-29 40,-30 46,0 57,28 2,6 2,11 0,8 -4,18 L 619,504 q -17,47 -71,48 -57,-1 -70,-49 L 407,225 q -6,-24 -17,-77 -8,-33 -11,-48 h -5 q -11,61 -29,125 l -79,280 q -14,46 -71,47 -55,-1 -70,-50 L -7,59 Q -10,50 -10,41 -10,10 30,2 39,0 49,0 82,1 90,30 l 86,321 q 8,31 23,111 h 5 q 4,-17 11,-52 8,-40 13,-58 z"
     id="path2" />
</svg>
