<?xml version="1.0" encoding="UTF-8" standalone="no"?>
<svg
   version="1.1"
   viewBox="-10 0 484 872"
   id="svg4"
   sodipodi:docname="y-121.svg"
   width="484"
   height="872"
   inkscape:version="1.1.1 (3bf5ae0d25, 2021-09-20)"
   xmlns:inkscape="http://www.inkscape.org/namespaces/inkscape"
   xmlns:sodipodi="http://sodipodi.sourceforge.net/DTD/sodipodi-0.dtd"
   xmlns="http://www.w3.org/2000/svg"
   xmlns:svg="http://www.w3.org/2000/svg">
  <defs
     id="defs8" />
  <sodipodi:namedview
     id="namedview6"
     pagecolor="#ffffff"
     bordercolor="#111111"
     borderopacity="1"
     inkscape:pageshadow="0"
     inkscape:pageopacity="0"
     inkscape:pagecheckerboard="1"
     showgrid="false"
     inkscape:zoom="0.873"
     inkscape:cx="235.96793"
     inkscape:cy="201.03093"
     inkscape:window-width="2560"
     inkscape:window-height="1351"
     inkscape:window-x="-9"
     inkscape:window-y="-9"
     inkscape:window-maximized="0"
     inkscape:current-layer="svg4" />
  <path
     fill="currentColor"
     d="m 225,442 h 5 q 7,-19 21,-61 14,-42 21,-61 L 375,28 q 12,-27 42,-28 44,0 55,29 2,6 2,11 0,9 -5,20 L 165,844 q -12,27 -42,28 -42,0 -52,-27 -2,-6 -2,-11 0,-9 4,-19 L 175,555 -7,60 Q -10,52 -10,41 -10,13 25,3 36,0 48,0 80,1 90,29 l 97,291 q 14,43 38,122 z"
     id="path2" />
</svg>
