<?xml version="1.0" encoding="UTF-8" standalone="no"?>
<svg
   version="1.1"
   viewBox="-10 0 713 874"
   id="svg4"
   sodipodi:docname="G-71.svg"
   width="713"
   height="874"
   inkscape:version="1.1.1 (3bf5ae0d25, 2021-09-20)"
   xmlns:inkscape="http://www.inkscape.org/namespaces/inkscape"
   xmlns:sodipodi="http://sodipodi.sourceforge.net/DTD/sodipodi-0.dtd"
   xmlns="http://www.w3.org/2000/svg"
   xmlns:svg="http://www.w3.org/2000/svg">
  <defs
     id="defs8" />
  <sodipodi:namedview
     id="namedview6"
     pagecolor="#ffffff"
     bordercolor="#111111"
     borderopacity="1"
     inkscape:pageshadow="0"
     inkscape:pageopacity="0"
     inkscape:pagecheckerboard="1"
     showgrid="false"
     inkscape:zoom="0.873"
     inkscape:cx="368.84307"
     inkscape:cy="517.18213"
     inkscape:window-width="2560"
     inkscape:window-height="1351"
     inkscape:window-x="-9"
     inkscape:window-y="-9"
     inkscape:window-maximized="0"
     inkscape:current-layer="svg4" />
  <path
     fill="currentColor"
     d="M 611,489 H 399 q -37,-7 -41,-44 7,-39 41,-43 h 243 q 46,0 58,38 3,10 3,20 v 367 q 0,36 -37,40 -4,1 -8,1 -37,0 -44,-31 -1,-5 -1,-10 v -96 h -3 Q 535,873 364,874 172,874 71,734 -10,621 -10,443 -10,224 113,102 217,0 377,0 q 206,1 299,153 7,12 7,25 0,32 -35,45 -12,4 -25,4 -30,-1 -45,-26 -57,-96 -154,-111 -23,-3 -48,-3 -146,0 -220,125 -56,93 -56,230 0,199 105,289 66,56 160,56 134,0 202,-106 44,-70 44,-164 z"
     id="path2" />
</svg>
