<?xml version="1.0" encoding="UTF-8" standalone="no"?>
<svg
   version="1.1"
   viewBox="-10 0 539 868"
   id="svg4"
   sodipodi:docname="J-74.svg"
   width="539"
   height="868"
   inkscape:version="1.1.1 (3bf5ae0d25, 2021-09-20)"
   xmlns:inkscape="http://www.inkscape.org/namespaces/inkscape"
   xmlns:sodipodi="http://sodipodi.sourceforge.net/DTD/sodipodi-0.dtd"
   xmlns="http://www.w3.org/2000/svg"
   xmlns:svg="http://www.w3.org/2000/svg">
  <defs
     id="defs8" />
  <sodipodi:namedview
     id="namedview6"
     pagecolor="#ffffff"
     bordercolor="#111111"
     borderopacity="1"
     inkscape:pageshadow="0"
     inkscape:pageopacity="0"
     inkscape:pagecheckerboard="1"
     showgrid="false"
     inkscape:zoom="0.873"
     inkscape:cx="297.8236"
     inkscape:cy="511.45475"
     inkscape:window-width="2560"
     inkscape:window-height="1351"
     inkscape:window-x="-9"
     inkscape:window-y="-9"
     inkscape:window-maximized="0"
     inkscape:current-layer="svg4" />
  <path
     fill="currentColor"
     d="M 425,610 V 46 q 0,-33 33,-43 10,-3 19,-3 39,0 50,31 2,8 2,15 v 560 q 0,146 -106,216 -70,46 -169,46 -209,0 -258,-170 -3,-11 -5,-21 -1,-5 -1,-10 0,-33 38,-43 10,-2 20,-2 39,2 47,37 28,122 161,123 109,0 150,-83 19,-39 19,-89 z"
     id="path2" />
</svg>
