<?xml version="1.0" encoding="UTF-8" standalone="no"?>
<svg
   version="1.1"
   viewBox="-10 0 633 862"
   id="svg4"
   sodipodi:docname="K-75.svg"
   width="633"
   height="862"
   inkscape:version="1.1.1 (3bf5ae0d25, 2021-09-20)"
   xmlns:inkscape="http://www.inkscape.org/namespaces/inkscape"
   xmlns:sodipodi="http://sodipodi.sourceforge.net/DTD/sodipodi-0.dtd"
   xmlns="http://www.w3.org/2000/svg"
   xmlns:svg="http://www.w3.org/2000/svg">
  <defs
     id="defs8" />
  <sodipodi:namedview
     id="namedview6"
     pagecolor="#ffffff"
     bordercolor="#111111"
     borderopacity="1"
     inkscape:pageshadow="0"
     inkscape:pageopacity="0"
     inkscape:pagecheckerboard="1"
     showgrid="false"
     inkscape:zoom="0.873"
     inkscape:cx="280.64147"
     inkscape:cy="511.45475"
     inkscape:window-width="2560"
     inkscape:window-height="1351"
     inkscape:window-x="-9"
     inkscape:window-y="-9"
     inkscape:window-maximized="0"
     inkscape:current-layer="svg4" />
  <path
     fill="currentColor"
     d="m 197,417 409,358 q 17,16 17,34 0,30 -30,46 -13,7 -25,7 -20,-1 -35,-14 L 116,470 Q 98,453 94,436 v 381 q 0,33 -34,42 -10,3 -19,3 -40,0 -49,-31 -2,-7 -2,-14 V 46 q 0,-34 33,-44 9,-2 18,-2 37,0 50,29 3,8 3,17 v 352 q 5,-15 21,-30 L 502,14 q 16,-14 33,-14 33,0 49,28 6,11 6,22 -1,21 -15,34 z"
     id="path2" />
</svg>
