<svg xmlns="http://www.w3.org/2000/svg" xmlns:svg="http://www.w3.org/2000/svg" id="svg4" width="855" height="862" version="1.1" viewBox="-10 0 855 862"><path id="path2" fill="currentColor" d="m 845,68 v 749 q 0,35 -35,43 -8,2 -15,2 -40,0 -48,-32 -2,-7 -2,-13 V 309 q 0,-36 4,-125 2,-43 3,-62 h -6 Q 709,245 688,299 L 496,797 q -20,50 -60,57 -9,2 -21,2 -51,0 -72,-40 -5,-8 -8,-17 L 147,299 Q 126,244 89,123 v -1 h -7 q 1,19 3,62 4,90 4,126 v 508 q 0,35 -36,42 -7,2 -14,2 -39,0 -47,-31 -2,-7 -2,-13 V 68 Q -10,21 35,5 51,0 67,0 q 70,1 96,66 l 197,525 q 24,66 56,159 h 4 q 11,-28 30,-85 L 477,590 673,66 q 26,-65 95,-66 53,0 71,40 6,13 6,28 z"/></svg>