<?xml version="1.0" encoding="UTF-8" standalone="no"?>
<svg
   version="1.1"
   viewBox="-10 0 655 862"
   id="svg4"
   sodipodi:docname="N-78.svg"
   width="655"
   height="862"
   inkscape:version="1.1.1 (3bf5ae0d25, 2021-09-20)"
   xmlns:inkscape="http://www.inkscape.org/namespaces/inkscape"
   xmlns:sodipodi="http://sodipodi.sourceforge.net/DTD/sodipodi-0.dtd"
   xmlns="http://www.w3.org/2000/svg"
   xmlns:svg="http://www.w3.org/2000/svg">
  <defs
     id="defs8" />
  <sodipodi:namedview
     id="namedview6"
     pagecolor="#ffffff"
     bordercolor="#111111"
     borderopacity="1"
     inkscape:pageshadow="0"
     inkscape:pageopacity="0"
     inkscape:pagecheckerboard="1"
     showgrid="false"
     inkscape:zoom="0.873"
     inkscape:cx="323.02405"
     inkscape:cy="511.45475"
     inkscape:window-width="2560"
     inkscape:window-height="1351"
     inkscape:window-x="-9"
     inkscape:window-y="-9"
     inkscape:window-maximized="0"
     inkscape:current-layer="svg4" />
  <path
     fill="currentColor"
     d="m 90,279 v 538 q 0,35 -35,43 -8,2 -15,2 -40,0 -48,-32 -2,-7 -2,-13 V 68 Q -10,20 37,5 53,0 69,0 136,1 175,69 l 287,509 q 25,45 83,161 h 6 Q 545,579 545,574 V 46 q 0,-35 34,-44 8,-2 16,-2 39,0 48,32 2,7 2,14 v 742 q 0,63 -57,73 -8,1 -16,1 -55,0 -87,-44 -8,-11 -16,-24 L 179,279 Q 142,215 93,110 h -7 q 4,108 4,169 z"
     id="path2" />
</svg>
