<?xml version="1.0" encoding="UTF-8" standalone="no"?>
<svg
   version="1.1"
   viewBox="-10 0 625 856"
   id="svg4"
   sodipodi:docname="P-80.svg"
   width="625"
   height="856"
   inkscape:version="1.1.1 (3bf5ae0d25, 2021-09-20)"
   xmlns:inkscape="http://www.inkscape.org/namespaces/inkscape"
   xmlns:sodipodi="http://sodipodi.sourceforge.net/DTD/sodipodi-0.dtd"
   xmlns="http://www.w3.org/2000/svg"
   xmlns:svg="http://www.w3.org/2000/svg">
  <defs
     id="defs8" />
  <sodipodi:namedview
     id="namedview6"
     pagecolor="#ffffff"
     bordercolor="#111111"
     borderopacity="1"
     inkscape:pageshadow="0"
     inkscape:pageopacity="0"
     inkscape:pagecheckerboard="1"
     showgrid="false"
     inkscape:zoom="0.873"
     inkscape:cx="285.22337"
     inkscape:cy="504.5819"
     inkscape:window-width="2560"
     inkscape:window-height="1351"
     inkscape:window-x="-9"
     inkscape:window-y="-9"
     inkscape:window-maximized="0"
     inkscape:current-layer="svg4" />
  <path
     fill="currentColor"
     d="m 52,0 h 284 q 222,0 268,153 11,37 11,80 0,140 -111,206 -75,44 -183,44 H 94 v 328 q 0,33 -35,43 -8,2 -17,2 -39,0 -50,-30 -2,-8 -2,-15 V 59 Q -10,18 28,4 40,0 52,0 Z m 42,89 v 306 h 225 q 148,0 179,-104 8,-26 8,-55 Q 504,90 329,89 Z"
     id="path2" />
</svg>
