<?xml version="1.0" encoding="UTF-8" standalone="no"?>
<svg
   version="1.1"
   viewBox="-10 0 761 905"
   id="svg4"
   sodipodi:docname="Q-81.svg"
   width="761"
   height="905"
   inkscape:version="1.1.1 (3bf5ae0d25, 2021-09-20)"
   xmlns:inkscape="http://www.inkscape.org/namespaces/inkscape"
   xmlns:sodipodi="http://sodipodi.sourceforge.net/DTD/sodipodi-0.dtd"
   xmlns="http://www.w3.org/2000/svg"
   xmlns:svg="http://www.w3.org/2000/svg">
  <defs
     id="defs8" />
  <sodipodi:namedview
     id="namedview6"
     pagecolor="#ffffff"
     bordercolor="#111111"
     borderopacity="1"
     inkscape:pageshadow="0"
     inkscape:pageopacity="0"
     inkscape:pagecheckerboard="1"
     showgrid="false"
     inkscape:zoom="0.873"
     inkscape:cx="375.71592"
     inkscape:cy="517.18213"
     inkscape:window-width="2560"
     inkscape:window-height="1351"
     inkscape:window-x="-9"
     inkscape:window-y="-9"
     inkscape:window-maximized="0"
     inkscape:current-layer="svg4" />
  <path
     fill="currentColor"
     d="M 666,896 581,811 Q 489,874 364,874 170,874 70,733 -10,620 -10,443 -10,224 113,102 217,0 377,0 q 194,0 294,141 80,113 80,290 -1,200 -104,321 l 80,77 q 14,15 14,29 0,28 -28,42 -11,5 -21,5 -17,-1 -26,-9 z M 511,744 425,662 q -13,-14 -13,-27 0,-29 29,-42 11,-5 21,-5 16,1 27,10 l 85,84 Q 641,585 641,432 641,231 535,141 469,87 376,87 230,87 156,212 q -56,93 -56,230 0,201 106,291 66,54 159,54 85,-1 146,-43 z"
     id="path2" />
</svg>
