<svg xmlns="http://www.w3.org/2000/svg" width="618" height="874" viewBox="-10 0 618 874"><path fill="currentColor" d="m308 476-28-7Q107 426 55 348q-33-49-33-126 0-122 105-182Q198 0 302 0q190 1 278 143 7 12 7 26 0 31-34 44-13 5-27 5-26-1-39-23-56-96-153-107-16-2-32-2-125 0-160 78-10 25-10 53 0 71 52 106 40 27 127 49l28 7q173 44 228 115 41 52 41 140 0 127-106 192-78 48-193 48Q87 873-2 717q-8-15-8-29 0-29 35-41 13-4 26-4 29 1 41 21 61 114 192 123 13 1 26 1 127 0 171-77 18-32 18-72 0-74-52-110-43-29-139-53z"/></svg>