<?xml version="1.0" encoding="UTF-8" standalone="no"?>
<svg
   version="1.1"
   viewBox="-10 0 656 868"
   id="svg4"
   sodipodi:docname="U-85.svg"
   width="656"
   height="868"
   inkscape:version="1.1.1 (3bf5ae0d25, 2021-09-20)"
   xmlns:inkscape="http://www.inkscape.org/namespaces/inkscape"
   xmlns:sodipodi="http://sodipodi.sourceforge.net/DTD/sodipodi-0.dtd"
   xmlns="http://www.w3.org/2000/svg"
   xmlns:svg="http://www.w3.org/2000/svg">
  <defs
     id="defs8" />
  <sodipodi:namedview
     id="namedview6"
     pagecolor="#ffffff"
     bordercolor="#111111"
     borderopacity="1"
     inkscape:pageshadow="0"
     inkscape:pageopacity="0"
     inkscape:pagecheckerboard="1"
     showgrid="false"
     inkscape:zoom="0.873"
     inkscape:cx="323.02405"
     inkscape:cy="511.45475"
     inkscape:window-width="2560"
     inkscape:window-height="1351"
     inkscape:window-x="-9"
     inkscape:window-y="-9"
     inkscape:window-maximized="0"
     inkscape:current-layer="svg4" />
  <path
     fill="currentColor"
     d="M -10,564 V 46 Q -10,13 23,3 33,0 42,0 q 37,0 50,29 3,8 3,17 v 510 q 0,181 148,216 34,8 72,8 137,0 195,-96 32,-53 32,-127 V 46 q 0,-33 33,-43 10,-3 19,-3 38,0 49,30 3,8 3,16 V 562 Q 646,725 528,808 441,868 313,868 120,868 38,744 -10,670 -10,564 Z"
     id="path2" />
</svg>
