<?xml version="1.0" encoding="UTF-8" standalone="no"?>
<svg
   version="1.1"
   viewBox="-10 0 727 862"
   id="svg4"
   sodipodi:docname="V-86.svg"
   width="727"
   height="862"
   inkscape:version="1.1.1 (3bf5ae0d25, 2021-09-20)"
   xmlns:inkscape="http://www.inkscape.org/namespaces/inkscape"
   xmlns:sodipodi="http://sodipodi.sourceforge.net/DTD/sodipodi-0.dtd"
   xmlns="http://www.w3.org/2000/svg"
   xmlns:svg="http://www.w3.org/2000/svg">
  <defs
     id="defs8" />
  <sodipodi:namedview
     id="namedview6"
     pagecolor="#ffffff"
     bordercolor="#111111"
     borderopacity="1"
     inkscape:pageshadow="0"
     inkscape:pageopacity="0"
     inkscape:pagecheckerboard="1"
     showgrid="false"
     inkscape:zoom="0.873"
     inkscape:cx="358.53379"
     inkscape:cy="511.45475"
     inkscape:window-width="2560"
     inkscape:window-height="1351"
     inkscape:window-x="-9"
     inkscape:window-y="-9"
     inkscape:window-maximized="0"
     inkscape:current-layer="svg4" />
  <path
     fill="currentColor"
     d="m 349,756 h 4 q 7,-21 20,-61 23,-70 36,-106 L 614,29 q 11,-28 42,-29 44,0 58,28 3,8 3,15 0,9 -4,19 L 431,801 q -24,60 -85,61 -59,-2 -81,-60 L -6,63 Q -10,53 -10,45 -10,16 25,4 38,0 51,0 84,1 94,29 l 199,561 q 12,36 35,104 14,41 21,62 z"
     id="path2" />
</svg>
