<?xml version="1.0" encoding="UTF-8" standalone="no"?>
<svg
   version="1.1"
   viewBox="-10 0 685 862"
   id="svg4"
   sodipodi:docname="X-88.svg"
   width="685"
   height="862"
   inkscape:version="1.1.1 (3bf5ae0d25, 2021-09-20)"
   xmlns:inkscape="http://www.inkscape.org/namespaces/inkscape"
   xmlns:sodipodi="http://sodipodi.sourceforge.net/DTD/sodipodi-0.dtd"
   xmlns="http://www.w3.org/2000/svg"
   xmlns:svg="http://www.w3.org/2000/svg">
  <defs
     id="defs8" />
  <sodipodi:namedview
     id="namedview6"
     pagecolor="#ffffff"
     bordercolor="#111111"
     borderopacity="1"
     inkscape:pageshadow="0"
     inkscape:pageopacity="0"
     inkscape:pagecheckerboard="1"
     showgrid="false"
     inkscape:zoom="0.873"
     inkscape:cx="337.91523"
     inkscape:cy="511.45475"
     inkscape:window-width="2560"
     inkscape:window-height="1351"
     inkscape:window-x="-9"
     inkscape:window-y="-9"
     inkscape:window-maximized="0"
     inkscape:current-layer="svg4" />
  <path
     fill="currentColor"
     d="m 401,420 267,369 q 7,9 7,23 0,27 -31,43 -14,7 -29,7 -24,-1 -38,-20 L 330,495 88,840 q -17,22 -41,22 -35,0 -51,-29 -6,-11 -6,-22 1,-12 8,-23 L 265,419 16,72 Q 10,64 10,50 10,23 42,7 57,0 71,0 94,1 110,23 L 336,344 560,20 q 14,-19 37,-20 37,0 55,28 6,11 6,20 -1,12 -7,23 z"
     id="path2" />
</svg>
