<svg xmlns="http://www.w3.org/2000/svg" data-name="Layer 1" width="249.708" height="296.227"><path d="M144.104 48.003V25h10.5a12.5 12.5 0 0 0 0-25h-59.5a12.5 12.5 0 0 0 0 25h10.5v23.003C45.866 57.288 0 109.074 0 171.373a124.854 124.854 0 0 0 249.708 0c0-62.299-45.866-114.085-105.604-123.37zm-19.25 223.225a99.854 99.854 0 1 1 99.854-99.854 99.967 99.967 0 0 1-99.854 99.854z"/><path d="M137.354 166.18v-58.889a12.5 12.5 0 0 0-25 0v66.1a7.644 7.644 0 0 0 2.25 5.416l34.969 34.822a12.5 12.5 0 0 0 17.641-17.715z"/></svg>