<svg xmlns="http://www.w3.org/2000/svg" xmlns:xlink="http://www.w3.org/1999/xlink" viewBox="0 0 118.204 82.953"><defs><clipPath id="clip-path" transform="translate(11.008 .392)"><path class="cls-1" d="M0 0v53.939a3.97 3.97 0 0 1 1.121-.176 2.171 2.171 0 0 1 1.038.228 3.176 3.176 0 0 1 2.332-1.115h.011a2.576 2.576 0 0 1 1.441.45 22.28 22.28 0 0 1-1.432-6.875c0-.299 0-.595.002-.887a14.2 14.2 0 0 1 .017-1.089 19.702 19.702 0 0 1 4.573-12.56l.486-.516a13.057 13.057 0 0 1 2.3-2.457 21.057 21.057 0 0 1 6.281-3.107c.404-.148.697-.246.821-.28a2.152 2.152 0 0 1 .296-.057 22.926 22.926 0 0 1 2.721-.612q.332-.068.65-.123c.555-.109.981-.2.981-.2l-.46.116c.277-.042.542-.074.789-.099a31.698 31.698 0 0 0 .857-3.195 5.205 5.205 0 0 1 1.861-2.396 3.942 3.942 0 0 1 1.469-.617.44.44 0 0 1 .269.08c.331.248.744.412.414.743a7.852 7.852 0 0 0-1.449 1.446 4.856 4.856 0 0 0-.827 2.148c0 .536-.203 1.491-.04 1.654a26.678 26.678 0 0 1 9.018 2.516c2.069 1.238 5.627 3.84 6.661 5.41a22.124 22.124 0 0 1 3.31 7.227c.275 1.572.535 3.115.67 4.426a16.64 16.64 0 0 1 1.528-.555 32.344 32.344 0 0 0 4.421-1.836c.645-.322 1.575-.824 2.43-1.275a22.307 22.307 0 0 1 2.023-.995 6.12 6.12 0 0 1 1.746-.18 14.536 14.536 0 0 1 1.456.065c.136.018.344.069.66.149.934.242 2.72.749 4.902 1.313 1.456.375 3.667.939 5.629 1.467.981.263 1.899.517 2.632.735a12.125 12.125 0 0 1 1.542.526 12.267 12.267 0 0 0 1.411.479c1.039.312 2.439.702 3.685 1.07.623.185 1.208.364 1.692.527a7.865 7.865 0 0 1 1.108.436 12.558 12.558 0 0 0 3.256 1.069l.001-.001.006.001a4.038 4.038 0 0 0 .656-.146c.5-.14 1.168-.352 1.785-.53a7.045 7.045 0 0 1 1.538-.33l.071.002a8.733 8.733 0 0 1 1.657.414c.637.202 1.303.428 1.763.548.232.061.654.2 1.182.384V0Z"/></clipPath><clipPath id="clip-path-2" transform="translate(11.008 .392)"><path class="cls-1" d="M0 0h94.961v77.102H0z"/></clipPath><clipPath id="clip-path-3" transform="translate(11.008 .392)"><path class="cls-1" d="M8.384 73.547c-.827.95-1.979 2.283-3.08 3.555h17.854c-3.207-.15-6.744-.403-7.489-2.172-.516-1.229 1.965-2.842 3.929-4.018-2.189-.169-5.444-.373-8.502-.737-1.003 1.294-1.981 2.534-2.712 3.372m15.202-15.549-.931.175a.536.536 0 0 1 .071.107c.387-.072 1.275-.243 2.531-.487l-.02-.019a5.242 5.242 0 0 0-.088-.056l-1.563.28m36.559.996c-.42 1.991-4.673 10.274-9.347 12.529-.562.271-1.147.528-1.743.772l.2.086c-4.285 2.101-14.193 4.122-19.868 4.721h65.574V57.497h-2.764c-2.815 0-17.382-.05-19.791-.05-1.689 0-7.923-.073-12.014-.118a14.895 14.895 0 0 1-.247 1.665M0 57.1v20.002h4.694c1.176-1.358 2.448-2.832 3.342-3.858.678-.778 1.584-1.922 2.527-3.134-3.862-.488-7.285-1.247-7.659-2.532-.537-1.834 2.49-3.924 9.672-6.01a7.435 7.435 0 0 0-.145-.1A9.806 9.806 0 0 1 9.738 59.5a19.711 19.711 0 0 1-.779-.995 16.185 16.185 0 0 1-1.004-1.124c-.559.004-.933.01-1.09.016l-.093.001c-.545 0-3.467-.037-6.772-.079Z"/></clipPath><clipPath id="clip-path-5" transform="translate(11.008 .392)"><path class="cls-1" d="M31.686 71.653a33.015 33.015 0 0 0 3.978 2.277c.749.258 1.574.526 2.206.728l.657.181-.08.003.468.147a32.893 32.893 0 0 1-3.859-.254 17.738 17.738 0 0 1-5.724-1.343 11.48 11.48 0 0 1-1.483-.702c-1.286 1.499-2.922 3.431-3.773 4.412h5.311c5.675-.599 15.583-2.62 19.868-4.721l-.2-.086a31.493 31.493 0 0 1-10.095 2.432 4.725 4.725 0 0 1-1.134-.112 27.884 27.884 0 0 1-6.255-3.038l.115.076m-16.28-6.92c-.512.518-1.776 2.156-3.146 3.935l-1.164 1.507c3.058.364 6.313.568 8.502.737-1.964 1.176-4.445 2.789-3.929 4.018.745 1.769 4.282 2.022 7.489 2.172h.305c.712-.809 2.553-2.983 3.985-4.655a6.578 6.578 0 0 1-.84-.64c-.293-.265-.569-.515-.83-.754a12.257 12.257 0 0 1-.775-.726 10.647 10.647 0 0 1-3.323-5.101l-.022-.074c-1.468-.371-3.917-1.187-5.193-1.616-.442.523-.815.949-1.059 1.197m10.446.978c.335.468.716.962 1.129 1.46-1.073-1.907-2.385-3.951-3.17-5.381a19.68 19.68 0 0 0 2.041 3.921M2.843 67.162v.006a1.48 1.48 0 0 0 .061.41c.374 1.285 3.797 2.044 7.659 2.532.442-.57.893-1.155 1.332-1.724 1.376-1.785 2.622-3.406 3.183-3.977.209-.212.53-.577.916-1.031l-.229-.078a18.598 18.598 0 0 1-2.483-1.28 14.395 14.395 0 0 1-.706-.452c-6.644 1.93-9.732 3.863-9.733 5.594"/></clipPath><clipPath id="clip-path-7" transform="translate(11.008 .392)"><path class="cls-1" d="m22.556 58.191-.011.121.089-.015-.043-.112Zm37.153-6.655h-.007l-.01.001h-.04l-.037.002h-.003l-.016.001h-.006l-.013.001h-.007l-.02.001h-.002l-.02.001-.002.001-.019.001h-.005l-.017.001-.007.001-.046.003-.004.001-.02.001-.01.001-.01.001-.014.001-.014.001-.011.001-.021.002-.011.001-.019.002h-.005l-.022.002-.008.001-.023.002-.003.001q-.042.003-.087.009h-.008l-.127.014h-.002l-.066.008h-.003l-.066.008-.009.001c-.386.047-.871.115-1.44.201l-.013.002-.369.057-.038.006-.024.004-.041.006-.006.001-.035.006-.016.002c-.602.095-1.281.207-2.022.333-.927.157-1.953.336-3.052.532l-.192.034-.499.09-.383.069c-.636.115-1.292.234-1.962.357l-.238.043-.149.027-.09.017-.304.055-.273.051-.116.021-2.198.408-.003.001-.171.032-.286.053-.08.015-.082.015-.241.045-.014.042-6.246 1.144-1.701.325-3.886.748-.426.082-.056.011-1.271.246-.185.036-.008.001-.09.018a.62.62 0 0 0-.042.008l-.385.074-4.801.932-.178.035a805.718 805.718 0 0 1-2.623.504 8.287 8.287 0 0 1 .488 1.903l.002.014v.002l.002.014a5.926 5.926 0 0 0 .685 1.56c.605 1.102 1.522 2.568 2.402 4.055l.027.045.016.027.101.172c.318.541.628 1.082.914 1.607l.018.033.006.01.013.023.007.012.012.022.008.012.013.022.006.011.015.024.005.009.018.029.003.004.021.035.023.035.001.001.02.032.006.008.017.026.006.009.017.024.006.01.019.027.004.006.023.033.001.001.05.07.002.002.024.034.001.001.024.033.004.004.024.032.002.002c2.109 2.758 7.978 5.669 10.01 6.249h.002l.024.007.002.001.023.006.005.001.021.006.005.001.02.006.024.006a4.725 4.725 0 0 0 1.134.112 27.852 27.852 0 0 0 7.651-1.537l.002-.001a1.69 1.69 0 0 0 .076-.025l.02-.006.069-.023.027-.009.05-.017.044-.015.046-.015.029-.01.057-.019a.634.634 0 0 1 .04-.014l.047-.016.049-.017.027-.009.075-.026.019-.007.146-.051.006-.002.095-.034.004-.001.151-.054.004-.002.094-.034.01-.004.086-.031.016-.006.093-.034.003-.001.048-.018.011-.004.083-.032.019-.007.069-.026.031-.011.035-.014.06-.023.035-.013.036-.014.053-.02.043-.017.029-.011.066-.026.022-.009.073-.028.006-.003.078-.031.005-.002.084-.033.002-.001.171-.069a32.767 32.767 0 0 0 1.529-.67l.005-.003.097-.046.011-.005.101-.048c4.674-2.255 8.927-10.538 9.347-12.529.066-.309.123-.644.171-.999l.001-.005.003-.028.004-.029.001-.003c.029-.227.055-.462.076-.703l.003-.034.002-.019a15.043 15.043 0 0 0 .043-.659v-.002l.002-.024q.013-.315.017-.636l.001-.015v-.308l-.002-.162q-.008-.398-.033-.798l-.01-.146a13.162 13.162 0 0 0-.319-2.098l-.003-.011c-.012-.053-.026-.106-.039-.158l-.006-.022a1.599 1.599 0 0 1-.017-.066l-.005-.016-.018-.067-.008-.026a1.214 1.214 0 0 0-.016-.057l-.009-.03-.016-.056-.009-.028-.017-.058a.183.183 0 0 1-.008-.025l-.019-.06-.008-.023-.023-.072-.161-.015h-.014"/></clipPath><clipPath id="clip-path-9" transform="translate(11.008 .392)"><path class="cls-1" d="M21.488 24.977c-.334.055-1.143.223-2.201.521.116-.016.233-.024.339-.028a31.936 31.936 0 0 1 2.382-.584c-.174.032-.349.063-.52.091m1.17-.214q.267-.046.521-.084l.46-.116s-.426.091-.981.2"/></clipPath><clipPath id="clip-path-10" transform="translate(11.008 .392)"><path class="cls-1" d="M4.509 24.563h41.41v40.663H4.509z"/></clipPath><clipPath id="clip-path-11" transform="translate(11.008 .392)"><path class="cls-1" d="M9.738 59.5a9.806 9.806 0 0 0 2.693 1.968 24.927 24.927 0 0 1-3.472-2.963c.263.359.524.69.779.995m12.911-1.334.006.007.931-.175-.937.168"/></clipPath><clipPath id="clip-path-13" transform="translate(11.008 .392)"><path class="cls-1" d="m21.568 59.958.003.006.011-.066-.014.06"/></clipPath><clipPath id="clip-path-15" transform="translate(11.008 .392)"><path class="cls-1" d="m22.556 58.191.035-.006c-.017-.045-.028-.069-.028-.069Zm21.938-4.09-1.654.311q-.511.098-1.024.193c-1.093.207-2.19.415-3.273.622l-.257.05 6.246-1.144.014-.042-.052.01"/></clipPath><clipPath id="clip-path-16" transform="translate(11.008 .392)"><path class="cls-1" d="M11.889 28.942a13.057 13.057 0 0 0-2.3 2.457c.075-.079.147-.159.22-.237a15.706 15.706 0 0 1 1.679-1.719 11.45 11.45 0 0 1 2.29-1.659 35.294 35.294 0 0 1 4.392-1.949 21.057 21.057 0 0 0-6.281 3.107"/></clipPath><clipPath id="clip-path-18" transform="translate(11.008 .392)"><path class="cls-1" d="M4.509 45.223v.015c0 .109.001.218.004.326.003-.368.008-.731.017-1.089-.014.251-.02.5-.021.748"/></clipPath><clipPath id="clip-path-19" transform="translate(11.008 .392)"><path class="cls-1" d="M38.915 74.989a51.066 51.066 0 0 0-.468-.147l-.785.021a28.6 28.6 0 0 1-2.606-.128 32.893 32.893 0 0 0 3.859.254m-2.213-.652 1.168.321c-.632-.202-1.457-.47-2.206-.728a7.294 7.294 0 0 0 1.038.407m-8.853-1.647a11.48 11.48 0 0 0 1.483.702c-.057-.028-.112-.057-.167-.086q-.65-.345-1.24-.706l-.076.09m-1.241-.883a6.578 6.578 0 0 0 .84.64l.082-.095a16.087 16.087 0 0 1-1.752-1.299c.261.239.537.489.83.754m-4.928-6.581a10.647 10.647 0 0 0 3.323 5.101 10.887 10.887 0 0 1-.903-1.046 13.357 13.357 0 0 1-2.091-4.058l-.043-.009v.012c-.097-.022-.2-.047-.308-.074l.022.074"/></clipPath><clipPath id="clip-path-20" transform="translate(11.008 .392)"><path class="cls-1" d="M21.337 58.215h17.578v16.774H21.337z"/></clipPath><clipPath id="clip-path-21" transform="translate(11.008 .392)"><path class="cls-1" d="m21.966 65.214.043.009-.004-.011-.04-.01.001.012m-.384-5.316-.011.066c.01.025.021.059.034.102a9.41 9.41 0 0 1 .091-.581c-.043.135-.08.274-.114.413"/></clipPath><linearGradient id="linear-gradient" x1="-435.462" y1="548.722" x2="-434.462" y2="548.722" gradientTransform="matrix(-60.2913 0 0 60.2913 -26175.43 -33053.89)" gradientUnits="userSpaceOnUse"><stop offset="0" stop-color="#242177"/><stop offset=".154" stop-color="#403d86"/><stop offset=".486" stop-color="#8785ad"/><stop offset=".969" stop-color="#f8f7ea"/><stop offset="1" stop-color="#fffeee"/></linearGradient><linearGradient id="linear-gradient-2" x1="-435.462" y1="548.737" x2="-434.462" y2="548.737" gradientTransform="matrix(-24.314 0 0 24.314 -10530.274 -13274.888)" gradientUnits="userSpaceOnUse"><stop offset="0" stop-color="#fffeee"/><stop offset="1" stop-color="#eaa95f"/></linearGradient><linearGradient id="linear-gradient-3" x1="-435.462" y1="547.856" x2="-434.462" y2="547.856" gradientTransform="matrix(-24.314 0 0 24.314 -10549.392 -13251.225)" gradientUnits="userSpaceOnUse"><stop offset="0" stop-color="#baafa3"/><stop offset="1" stop-color="#b28457"/></linearGradient><linearGradient id="linear-gradient-4" x1="-435.462" y1="548.647" x2="-434.462" y2="548.647" gradientTransform="matrix(0 18.7668 18.7668 0 -10254.863 8227.763)" gradientUnits="userSpaceOnUse"><stop offset="0" stop-color="#f58b6f"/><stop offset=".286" stop-color="#f36f5c"/><stop offset=".901" stop-color="#ee282c"/><stop offset="1" stop-color="#ed1c24"/></linearGradient><linearGradient id="linear-gradient-5" x1="-435.462" y1="548.291" x2="-434.462" y2="548.291" gradientTransform="translate(-26205.75 -33032.016) scale(-60.2913 60.2913)" gradientUnits="userSpaceOnUse"><stop offset="0" stop-color="#25296c"/><stop offset=".192" stop-color="#41447a"/><stop offset=".605" stop-color="#88899d"/><stop offset="1" stop-color="#d2d0c1"/></linearGradient><linearGradient id="linear-gradient-6" x1="-435.462" y1="547.452" x2="-434.462" y2="547.452" gradientTransform="translate(-10568.786 -13250.966) scale(-24.314 24.314)" gradientUnits="userSpaceOnUse"><stop offset="0" stop-color="#d2d0c1"/><stop offset="1" stop-color="#c79556"/></linearGradient><linearGradient id="linear-gradient-7" x1="-435.462" y1="547.67" x2="-434.462" y2="547.67" gradientTransform="matrix(-24.314 .0007 .0007 24.314 -10563.615 -13255.827)" gradientUnits="userSpaceOnUse"><stop offset="0" stop-color="#a19a8c"/><stop offset="1" stop-color="#9d794f"/></linearGradient><linearGradient id="linear-gradient-8" x1="-435.462" y1="548.312" x2="-434.462" y2="548.312" gradientTransform="matrix(0 18.7668 18.7668 0 -10256.52 8229.288)" gradientUnits="userSpaceOnUse"><stop offset="0" stop-color="#cf7d63"/><stop offset=".405" stop-color="#ce614d"/><stop offset="1" stop-color="#cb3127"/></linearGradient><linearGradient id="linear-gradient-9" x1="-435.462" y1="548.165" x2="-434.462" y2="548.165" gradientTransform="translate(-26209.54 -33021.001) scale(-60.2913 60.2913)" xlink:href="#linear-gradient-5"/><linearGradient id="linear-gradient-10" x1="-435.462" y1="548.011" x2="-434.462" y2="548.011" gradientTransform="translate(-26202.238 -32995.482) scale(-60.2913 60.2913)" xlink:href="#linear-gradient-5"/><linearGradient id="linear-gradient-11" x1="-435.462" y1="548.03" x2="-434.462" y2="548.03" gradientTransform="matrix(-24.314 0 0 24.314 -10544.43 -13254.735)" xlink:href="#linear-gradient-7"/><linearGradient id="linear-gradient-12" x1="-435.462" y1="547.679" x2="-434.462" y2="547.679" gradientTransform="translate(-10560.66 -13253.882) scale(-24.314 24.314)" gradientUnits="userSpaceOnUse"><stop offset="0" stop-color="#8e8a7a"/><stop offset="1" stop-color="#8c6f49"/></linearGradient><style>.cls-1,.cls-13,.cls-15,.cls-16{fill:none}.cls-4{clip-path:url(#clip-path-2)}.cls-6{fill:#fff}.cls-12{fill:#fff67e}.cls-13{stroke:#fbb040;stroke-width:.659px}.cls-13,.cls-15,.cls-16{stroke-linecap:round;stroke-linejoin:round}.cls-14{fill:#231f20}.cls-15,.cls-16{stroke:#231f20}.cls-15{stroke-width:.462px}.cls-16{stroke-width:.593px}.cls-17{fill:#82c341}.cls-18{fill:#426741}.cls-23{clip-path:url(#clip-path-10)}.cls-31{fill:#71a940}.cls-32{fill:#3e623e}.cls-41{clip-path:url(#clip-path-20)}.cls-45{fill:#66983f}</style></defs><g id="Layer_2" data-name="Layer 2"><g id="Layer_1-2" data-name="Layer 1"><g style="clip-path:url(#clip-path)"><path transform="rotate(-89.763 53.181 23.971)" style="fill:url(#linear-gradient)" d="M17.983-18.299h58.995v95.202H17.983z"/></g><g class="cls-4"><path d="M6.1 55.91c2.11-.901 6.933-2.03 8.44-2.706A16.926 16.926 0 0 1 17.855 52c.302 0 1.28-.452 1.507-.452s4.37-.978 6.028-1.354 7.233-1.353 8.288-1.73 5.349-1.804 6.405-1.955a14.564 14.564 0 0 0 3.315-.752 18.448 18.448 0 0 1 2.41-1.43 26.582 26.582 0 0 0 3.693-1.127c.979-.527 5.048-2.256 5.575-2.708a6.9 6.9 0 0 1 2.11-1.053 6.06 6.06 0 0 1 2.336.076c.3.225 3.315.45 5.65 1.203s7.686 2.256 8.59 2.482 3.014 1.128 3.541 1.278 4.522 1.204 4.898 1.354 2.26.978 2.864 1.204a10.435 10.435 0 0 0 1.355.376s2.11-.677 2.638-.903a2.992 2.992 0 0 1 1.507-.301c.377.076 4.069 1.354 4.52 1.579.452.227 11.126 3.84 11.126 3.84l-.041 7.978L6.026 59.52l-3.391-1.504L6.1 55.91" transform="translate(11.008 .392)" style="fill:#8a9c9a"/><path class="cls-6" d="M7.06 55.978c.92-.357 8.943-2.652 10.016-3.009s3.986-1.174 5.162-1.429 8.789-1.53 11.191-2.09 8.586-2.5 10.476-3.215a48.276 48.276 0 0 0 5.162-1.938 54.348 54.348 0 0 1 5.621-2.602c1.329-.459 3.271-1.07 3.731-1.224s3.168.816 5.161 1.428 4.702 1.021 6.849 1.531 4.956 1.377 6.439 1.683a68.897 68.897 0 0 1 6.796 2.091 16.807 16.807 0 0 0 2.504.561 1.357 1.357 0 0 0 .715.153c.41 0 3.782-.815 3.987-.815s4.394 1.427 4.906 1.632c.511.203 7.003 2.04 7.003 2.04s-6.644-2.653-6.848-2.755a52.648 52.648 0 0 0-5.367-1.812c-.459.027-3.945 1.361-4.144 1.204s-5.207-1.89-5.718-1.993-8.075-2.55-8.075-2.55l-10.936-2.755a232.52 232.52 0 0 1-2.811-.765 21.838 21.838 0 0 0-2.555.306c-.153.051-2.708 1.53-2.708 1.53s-4.037 1.99-5.059 2.295-3.373 1.378-3.731 1.531-1.892.765-2.044.816c-.154.051-6.951 1.938-7.309 2.04s-7.103 1.53-7.358 1.633-5.213 1.224-5.468 1.275-4.497 1.02-4.702 1.071-3.782 1.173-3.782 1.173l-6.643 2.245c-.153.051-.461.714-.461.714" transform="translate(11.008 .392)"/><path d="M102.497 62.312v-4.315a5.861 5.861 0 0 0-2.814-1.504c-.289-1.283-1.596-1.55-3.147-1.526.177-.885-.488-1.55-2.594-1.837 0-2.611-3.569-2.677-4.167-2.212-.244-.93-1.485-.996-2.682.442-.71-.885-1.884-.84-2.682.819-1.396-.952-2.726.044-3.7 1.57-.688-.486-2.262-.796-4.013.952a2.615 2.615 0 0 0-2.15-1.616c-.222-1.946-1.705-1.437-2.548-1.194-.399-1.748-2.127-1.305-3.546.31-1.352-.996-3.303-.708-3.702 1.68-1.396-1.127-2.836-.375-3.546 1.55a2.308 2.308 0 0 0-2.682-.952 2.483 2.483 0 0 0-3.347-1.394c-.354-1.061-1.817-1.216-3.125-.331-1.108-.885-2.44-1.217-3.969.553-1.44-1.394-3.28-.73-4.72 1.195a3.522 3.522 0 0 0-4.567 1.128c-.509-.332-2.039-.111-3.812 1.504-.422-1.062-2.97-1.084-4.19.686-1.418-1.261-3.214-1.527-5.408-.398-2.084-1.792-3.857-2.434-5.054-1.858-.554-1.24-2.46-.974-3.19.685-1.22-2.456-3.127-.796-4.146.93-1.929-2.744-2.793-2.125-3.768-1.262-.687-2.102-1.884-2.433-2.97-1.947a2.484 2.484 0 0 0-4.012.53 2.614 2.614 0 0 0-3.702 1.196c-1.796-.398-3.015 1.527-3.059 1.88s-.199 2.722-.155 3.563.222.95.421 1.172h106.746" transform="translate(11.008 .392)" style="fill:#545049"/></g><g style="clip-path:url(#clip-path-3)"><path transform="rotate(-89.763 53.181 61.77)" style="fill:url(#linear-gradient-2)" d="M37.284 19.58h20.394v95.043H37.284z"/></g><g class="cls-4"><path class="cls-6" d="M-1.211 55.74c.562-.51 2.504-1.479 3.322-.51 1.38-1.275 2.913-1.683 3.577-.714 1.43-.204 1.89-.408 2.453.561.46 1.173.562.765.665 1.53 1.226-.612 2.453-.612 3.066.051s1.124.521 1.124.521c-.665-1.388-1.737-2.051-2.3-2s-1.403.303-1.468.738c-.32-1.35-1.035-2.014-1.598-2.115a3.465 3.465 0 0 0-1.372.168c-.723-.831-1.234-.933-1.847-.831a7.011 7.011 0 0 0-2.165 1.362c-.748-.495-1.157-.648-1.668-.444s-1.533.408-1.686.816a2.15 2.15 0 0 0-.103.867M13.71 56.301a2.748 2.748 0 0 1 2.505-.663c.256.204.869.816.869.816.97-1.07 2.095-1.378 2.35-.918s.359.612.716.561a6.273 6.273 0 0 1 2.862.357c.92.46 2.299 1.377 2.402 1.428a4.747 4.747 0 0 0-3.731-2.448c-1.073 0-1.584-.204-1.686-.357a1.266 1.266 0 0 0-1.226-.459c-.614.153-1.63 1.631-1.63 1.631-.517-1.12-.67-1.274-1.437-1.223a2.36 2.36 0 0 0-1.584.51c-.154.255-.41.765-.41.765M25.771 57.27a5.917 5.917 0 0 1 3.066-.357 6.536 6.536 0 0 1 1.957.907 4.97 4.97 0 0 1 2.847-1.366 2.339 2.339 0 0 1 1.79 1.377 3.72 3.72 0 0 0-2.505-.561 6.894 6.894 0 0 0-2.096.816 4.378 4.378 0 0 0-2.81-.714c-.767.102-1.789.306-2.044.357a1.132 1.132 0 0 1-.614-.153l.41-.306" transform="translate(11.008 .392)"/><path class="cls-6" d="M61.495 56.301a2.874 2.874 0 0 0-2.198-1.02c-.612.051-1.38.357-1.38.102s-.561-1.428-1.328-1.582a9.344 9.344 0 0 0-1.635-.255c-.41 0-.971-.56-1.278-.51s-1.328.306-1.788.357a3.707 3.707 0 0 0-2.147-.56 2.274 2.274 0 0 0-1.226.765c-.307.458-.87-.103-1.227-.256a2.754 2.754 0 0 0-1.686.051 4.788 4.788 0 0 0-1.687 1.072c-.357.408-.46.867-.817.714a2.5 2.5 0 0 0-2.146-.102c-.818.46-1.636.51-1.891.816s-.46.255-1.023.306a3.948 3.948 0 0 0-1.481.357l-1.431.816a3.84 3.84 0 0 1 2.095-1.632 6.068 6.068 0 0 1 1.576-.11c.928-1.268 1.797-1.47 2.359-1.42s2.062.226 2.206.291c.91-1.108 1.933-1.924 2.598-1.924s1.897.898 2.123.73c.687-1.036 1.045-1.444 1.914-1.29a13.774 13.774 0 0 1 2.055.736c.96-.737 2.838-.792 3.126.332 1.973-.405 3.098.36 3.25 1.124a3.624 3.624 0 0 1 2.607 1.174 3.34 3.34 0 0 1 .46.918M61.6 54.618a2.288 2.288 0 0 1 2.094-.612c.511.254 1.381.714 1.278.56-.204-1.12-.102-1.836.87-1.989a3.403 3.403 0 0 1 2.3.357c1.072-1.224 2.298-1.58 2.656-1.428s.562.714.664.918c.92-.357 1.891-.408 2.147.153s.357.715.408.868.41.153.818.255a4.702 4.702 0 0 1 2.095 2.142c-.255-1.632-.766-2.092-1.073-2.296a6.9 6.9 0 0 0-1.309-.46c-.07-1.223-.53-1.529-.838-1.478s-1.635.051-1.635.051c-.664-.867-1.226-1.173-1.533-1.07s-1.877 1.49-2.088 1.611c-.978-.54-1.643-.898-2.358-.54a2.46 2.46 0 0 0-1.226 1.223c-.05.255-.205.817-.205.817a3.295 3.295 0 0 0-2.044-.154c-.358.103-.665-.05-.818.357a4.362 4.362 0 0 0-.204.715M77.035 54.363a3.462 3.462 0 0 1 2.504-.357c.562.306.92.357 1.124.612 1.482-1.326 2.76-2.244 3.68-1.785 1.175-1.122 1.175-1.684 1.993-1.326a7.204 7.204 0 0 1 1.175.612c1.277-1.122 1.686-1.122 2.095-.766 1.636-.254 2.505.05 2.913.714s.767.919.767 1.53c1.482-.101 1.431.052 1.993.613s.716.765.766 1.02a3.529 3.529 0 0 1 2.556.969c.46.51 1.073.664 1.124.867a3.953 3.953 0 0 1 2.504 1.02c.358.358 1.022.409 1.022.613-.767-.918-1.278-1.53-1.686-1.683a8.868 8.868 0 0 0-1.882-.523 3.175 3.175 0 0 0-2.973-1.62 2.678 2.678 0 0 0-2.606-1.785 2.705 2.705 0 0 0-2.709-2.5 11.007 11.007 0 0 1-1.635.154c-.563-.613-.818-.561-1.278-.46a3.631 3.631 0 0 0-1.38.918c-.817-.407-1.38-.816-1.737-.51a6.61 6.61 0 0 0-.954 1.489 2.376 2.376 0 0 0-2.419.042 6.783 6.783 0 0 0-1.124 1.326 4.709 4.709 0 0 0-2.198-.102c-.255.102-.97.102-1.226.357a2.426 2.426 0 0 0-.409.56" transform="translate(11.008 .392)"/></g><g style="clip-path:url(#clip-path-5)"><path transform="rotate(-89.763 31.75 64.004)" style="fill:url(#linear-gradient-3)" d="M18.186 46.097h15.726v46.476H18.186z"/></g><g class="cls-4"><path class="cls-12" d="M49.119 17.387c-.326 0-.712-9.93-.712-10.428s0-1.024.712-1.024.712.59.712 1.024-.386 10.428-.712 10.428M49.119 19.222c-.326 0-.712 9.93-.712 10.428s0 1.024.712 1.024.712-.59.712-1.024-.386-10.428-.712-10.428M50.038 18.305c0-.326 9.949-.71 10.447-.71s1.026 0 1.026.71-.591.71-1.026.71-10.447-.385-10.447-.71M48.2 18.304c0-.325-9.95-.71-10.448-.71s-1.025 0-1.025.71.59.71 1.025.71 10.448-.384 10.448-.71M49.474 17.458c-.3-.125 3.167-9.441 3.36-9.9s.393-.945 1.05-.672.43.817.263 1.218-4.372 9.479-4.673 9.354M48.767 19.15c-.3-.124-4.481 8.897-4.672 9.355s-.395.945.262 1.218.884-.271 1.05-.673c.169-.4 3.662-9.773 3.36-9.9M49.969 18.657c.125-.3 9.459 3.162 9.918 3.353s.947.394.674 1.049-.82.429-1.221.263-9.497-4.364-9.371-4.665M48.272 17.952c.126-.301-8.91-4.473-9.37-4.664s-.948-.394-1.22.262.271.882.673 1.049 9.792 3.654 9.917 3.353M49.797 17.683c-.22-.24 6.86-7.229 7.227-7.564s.757-.69 1.238-.167.044.922-.277 1.215-7.968 6.756-8.188 6.516M48.441 18.921c-.22-.24-7.82 6.18-8.187 6.516s-.757.691-.277 1.215.916.126 1.238-.168 7.447-7.323 7.226-7.563M49.74 18.979c.241-.22 7.241 6.847 7.578 7.214s.692.755.167 1.235-.924.044-1.217-.276-6.769-7.953-6.528-8.173M48.5 17.625c.24-.22-6.192-7.806-6.529-8.173-.334-.366-.691-.755-1.216-.276s-.127.915.167 1.235 7.337 7.434 7.578 7.214M49.979 17.984c-.114-.305 9.078-4.127 9.544-4.3s.962-.357 1.21.31-.306.87-.714 1.022-9.927 3.273-10.04 2.968M48.256 18.623c-.114-.305-9.573 2.796-10.04 2.969s-.962.357-.714 1.022.802.46 1.211.309c.407-.151 9.657-3.995 9.543-4.3M49.438 19.163c.306-.113 4.135 9.062 4.308 9.527s.357.96-.31 1.207c-.667.248-.872-.304-1.025-.712-.151-.407-3.278-9.908-2.973-10.022M48.798 17.444c.306-.113-2.8-9.556-2.973-10.021s-.358-.96-1.026-.713c-.666.248-.461.8-.31 1.208s4.003 9.64 4.309 9.525M80.878 17.964a.667.667 0 1 1-.667-.666.667.667 0 0 1 .667.666M81.086 15.7a.86.86 0 1 1-.86-.858.859.859 0 0 1 .86.858M81.294 12.904a1.052 1.052 0 1 1-1.052-1.05 1.051 1.051 0 0 1 1.052 1.05M81.413 9.841a1.157 1.157 0 1 1-1.157-1.154 1.157 1.157 0 0 1 1.157 1.154M81.59 6.276A1.379 1.379 0 1 1 80.21 4.9a1.378 1.378 0 0 1 1.38 1.375M80.878 23.527a.667.667 0 1 0-.667.666.667.667 0 0 0 .667-.666M81.086 25.791a.86.86 0 1 0-.86.858.859.859 0 0 0 .86-.858M81.294 28.587a1.052 1.052 0 1 0-1.052 1.051 1.05 1.05 0 0 0 1.052-1.05M81.413 31.65a1.157 1.157 0 1 0-1.157 1.154 1.156 1.156 0 0 0 1.157-1.154M81.59 35.216a1.379 1.379 0 1 0-1.38 1.376 1.378 1.378 0 0 0 1.38-1.376M82.998 21.41a.666.666 0 1 1 .668-.665.666.666 0 0 1-.668.666M85.266 21.619a.858.858 0 1 1 .86-.858.859.859 0 0 1-.86.858M88.068 21.827a1.051 1.051 0 1 1 1.052-1.051 1.051 1.051 0 0 1-1.052 1.05M91.135 21.945a1.154 1.154 0 1 1 1.156-1.154 1.155 1.155 0 0 1-1.156 1.154M94.708 22.122a1.376 1.376 0 1 1 1.38-1.377 1.378 1.378 0 0 1-1.38 1.377M77.425 21.41a.666.666 0 1 0-.667-.665.667.667 0 0 0 .667.666M75.157 21.619a.858.858 0 1 0-.86-.858.858.858 0 0 0 .86.858M72.355 21.827a1.051 1.051 0 1 0-1.053-1.051 1.053 1.053 0 0 0 1.053 1.05M69.287 21.945a1.154 1.154 0 1 0-1.156-1.154 1.155 1.155 0 0 0 1.156 1.154M65.715 22.122a1.376 1.376 0 1 0-1.38-1.377 1.378 1.378 0 0 0 1.38 1.377M82.269 18.755a.666.666 0 1 1-.205-.919.667.667 0 0 1 .205.92M83.661 16.956a.86.86 0 1 1-.264-1.185.861.861 0 0 1 .264 1.185M85.34 14.708a1.052 1.052 0 1 1-.323-1.45 1.054 1.054 0 0 1 .324 1.45M87.086 12.187a1.156 1.156 0 1 1-.356-1.593 1.158 1.158 0 0 1 .356 1.593M89.153 9.273a1.378 1.378 0 1 1-.424-1.9 1.381 1.381 0 0 1 .424 1.9M79.278 23.45a.667.667 0 1 0-.92.204.666.666 0 0 0 .92-.204M78.238 25.472a.86.86 0 1 0-1.187.264.859.859 0 0 0 1.187-.264M76.91 27.943a1.052 1.052 0 1 0-1.452.323 1.05 1.05 0 0 0 1.452-.323M75.364 30.591a1.156 1.156 0 1 0-1.596.354 1.154 1.154 0 0 0 1.596-.354M73.597 33.695a1.378 1.378 0 1 0-1.904.422 1.375 1.375 0 0 0 1.904-.422M82.206 22.799a.666.666 0 1 1 .92-.204.665.665 0 0 1-.92.204M84.008 24.19a.859.859 0 1 1 1.187-.265.859.859 0 0 1-1.187.264M86.26 25.865a1.051 1.051 0 1 1 1.453-.324 1.049 1.049 0 0 1-1.453.324M88.786 27.608a1.155 1.155 0 1 1 1.596-.355 1.153 1.153 0 0 1-1.596.355M91.706 29.67a1.377 1.377 0 1 1 1.903-.422 1.375 1.375 0 0 1-1.903.423M77.502 19.814a.666.666 0 1 0-.205-.919.668.668 0 0 0 .205.92M75.477 18.775a.858.858 0 1 0-.264-1.185.861.861 0 0 0 .264 1.185M73.001 17.45a1.05 1.05 0 1 0-.323-1.45 1.054 1.054 0 0 0 .323 1.45M70.348 15.907a1.155 1.155 0 1 0-.356-1.593 1.157 1.157 0 0 0 .356 1.593M67.238 14.143a1.377 1.377 0 1 0-.423-1.899 1.38 1.38 0 0 0 .423 1.9" transform="translate(11.008 .392)"/><path class="cls-12" d="M82.986 20.031a.666.666 0 1 1 .277-.9.667.667 0 0 1-.277.9M85.088 19.155a.859.859 0 1 1 .357-1.16.861.861 0 0 1-.357 1.16M87.661 18.03a1.051 1.051 0 1 1 .436-1.42 1.054 1.054 0 0 1-.436 1.42M90.427 16.701a1.155 1.155 0 1 1 .48-1.56 1.158 1.158 0 0 1-.48 1.56M93.668 15.189a1.377 1.377 0 1 1 .572-1.86 1.381 1.381 0 0 1-.572 1.86M78.06 22.635a.666.666 0 1 0-.902-.277.666.666 0 0 0 .903.277M76.154 23.879a.858.858 0 1 0-1.162-.357.857.857 0 0 0 1.162.357M73.776 25.371a1.051 1.051 0 1 0-1.423-.437 1.05 1.05 0 0 0 1.423.437M71.12 26.909a1.155 1.155 0 1 0-1.563-.48 1.153 1.153 0 0 0 1.563.48M68.046 28.735a1.376 1.376 0 1 0-1.864-.572 1.375 1.375 0 0 0 1.864.572M80.927 23.515a.667.667 0 1 1 .902.276.665.665 0 0 1-.902-.276M81.805 25.613a.86.86 0 1 1 1.162.357.858.858 0 0 1-1.163-.357M82.933 28.181a1.052 1.052 0 1 1 1.422.437 1.05 1.05 0 0 1-1.423-.436M84.263 30.943a1.156 1.156 0 1 1 1.564.479 1.154 1.154 0 0 1-1.564-.479M85.778 34.177a1.378 1.378 0 1 1 1.864.572 1.377 1.377 0 0 1-1.864-.572M78.318 18.599a.667.667 0 1 0 .278-.9.668.668 0 0 0-.278.9M77.073 16.696a.86.86 0 1 0 .357-1.16.86.86 0 0 0-.357 1.16M75.578 14.322a1.052 1.052 0 1 0 .437-1.42 1.054 1.054 0 0 0-.437 1.42M74.037 11.67a1.155 1.155 0 1 0 .48-1.56 1.158 1.158 0 0 0-.48 1.56M72.208 8.602a1.378 1.378 0 1 0 .572-1.86 1.38 1.38 0 0 0-.572 1.86" transform="translate(11.008 .392)"/><path class="cls-13" d="M60.113 32.524v8.038M91.371 38.853v3.841"/><path class="cls-14" d="M9.227 54.338a13.365 13.365 0 0 0 1.761-.486c1.226-.395 2.813-.956 4.165-1.423a85.201 85.201 0 0 1 1.783-.6 6.056 6.056 0 0 1 1.048-.275 25.93 25.93 0 0 0 2.671-.58 89.204 89.204 0 0 0 3.368-.913c.856-.255 2.975-.67 5.033-1.063 2.05-.391 4.042-.76 4.532-.888 1.025-.27 3.987-1.2 4.538-1.365.565-.17 4.966-1.324 4.97-1.325l.075.287-.129-.267a38.72 38.72 0 0 1 4.667-1.973 32.344 32.344 0 0 0 4.421-1.836c.645-.322 1.575-.823 2.43-1.275a22.45 22.45 0 0 1 2.023-.995 6.116 6.116 0 0 1 1.747-.18 14.83 14.83 0 0 1 1.455.065 6.65 6.65 0 0 1 .66.15c.934.24 2.72.748 4.901 1.31 1.457.377 3.668.94 5.63 1.468.98.264 1.9.518 2.631.736a12.172 12.172 0 0 1 1.544.527 12.468 12.468 0 0 0 1.41.478c1.04.313 2.44.702 3.685 1.07.623.185 1.208.364 1.692.527a7.676 7.676 0 0 1 1.107.437 12.59 12.59 0 0 0 3.258 1.068 3.798 3.798 0 0 0 .662-.146c.5-.14 1.168-.352 1.785-.53a7.1 7.1 0 0 1 1.539-.33l.07.002a8.909 8.909 0 0 1 1.658.414c.637.202 1.303.427 1.763.548.51.135 1.942.646 3.405 1.187 1.46.54 2.927 1.103 3.467 1.334.498.214 1.925.683 3.207 1.089 1.285.408 2.436.759 2.439.759a.297.297 0 0 1-.173.568c-.001 0-1.157-.352-2.446-.762-1.292-.41-2.702-.871-3.26-1.108-.514-.22-1.987-.786-3.44-1.323-1.45-.537-2.906-1.054-3.35-1.17-.495-.13-1.16-.356-1.791-.556a8.695 8.695 0 0 0-1.52-.388l-.03-.001a3.975 3.975 0 0 0-.795.148c-.54.139-1.217.35-1.81.528-.297.089-.573.169-.805.228a2.673 2.673 0 0 1-.574.103l-.067-.004a12.973 12.973 0 0 1-3.474-1.137 10.888 10.888 0 0 0-1.52-.56c-1.072-.34-2.481-.736-3.706-1.09a76.372 76.372 0 0 1-1.64-.488 7.959 7.959 0 0 1-1.011-.365 12.486 12.486 0 0 0-1.446-.488c-2.175-.646-6.056-1.633-8.241-2.197-1.46-.377-2.741-.728-3.708-.991a118.03 118.03 0 0 0-1.194-.321 6.601 6.601 0 0 0-.586-.135 14.345 14.345 0 0 0-1.381-.06 5.774 5.774 0 0 0-1.547.145c-.307.108-1.097.512-1.945.96-.853.45-1.782.953-2.442 1.282a32.775 32.775 0 0 1-4.52 1.875 38.296 38.296 0 0 0-4.576 1.938l-.053.019-2.274.6c-1.168.309-2.415.64-2.675.72-.545.163-3.501 1.092-4.558 1.37-.552.144-2.515.504-4.572.897-2.048.39-4.186.812-4.974 1.049-.83.248-2.164.61-3.393.919a25.009 25.009 0 0 1-2.774.597 3.23 3.23 0 0 0-.48.117c-.885.259-2.65.887-4.33 1.466-.84.29-1.661.568-2.348.784a11.327 11.327 0 0 1-1.566.414.297.297 0 0 1-.075-.59M-10.528 56.603c1.805 0 16.041.2 17.3.2h.071c2.336-.082 49.986-.1 49.991-.1 1.462 0 13.166.15 15.572.15 2.412 0 16.98.05 19.791.05h14.14a.296.296 0 1 1 0 .594h-14.14c-2.815 0-17.38-.05-19.79-.05-2.416 0-14.122-.15-15.573-.15h-2.052c-9.15.005-45.913.028-47.918.1h-.092c-1.272 0-15.506-.2-17.3-.2a.297.297 0 0 1-.297-.297.297.297 0 0 1 .297-.297" transform="translate(11.008 .392)"/><path class="cls-15" d="M4.84 57.952c-1.358 1.562-4.923 6.026-6.45 7.533s-4.414 4.798-5.375 5.802-3.056 3.74-3.791 4.464" transform="translate(11.008 .392)"/><path class="cls-14" d="M1.668 80.552c.208-.207 1.31-1.47 2.594-2.953 1.288-1.484 2.769-3.201 3.774-4.355.997-1.143 2.487-3.076 3.859-4.858 1.376-1.784 2.623-3.406 3.183-3.977.578-.586 2.018-2.344 3.3-3.94A355.68 355.68 0 0 0 20.8 57.42a.23.23 0 0 1 .363.285s-1.137 1.45-2.424 3.051c-1.29 1.605-2.718 3.352-3.332 3.976-.512.518-1.777 2.155-3.146 3.934-1.374 1.783-2.863 3.717-3.876 4.88-1.004 1.153-2.486 2.87-3.774 4.356-1.29 1.488-2.373 2.731-2.617 2.975a.23.23 0 1 1-.326-.326M20.596 80.618c.426-.515 1.832-2.347 2.812-3.454.968-1.092 4.531-5.324 5.617-6.532l.171.154-.175-.15 11.243-13.06a.23.23 0 0 1 .35.301l-11.243 13.06-.003.003c-1.075 1.195-4.638 5.428-5.614 6.53-.964 1.088-2.365 2.912-2.802 3.442a.23.23 0 0 1-.356-.294" transform="translate(11.008 .392)"/><path class="cls-15" d="M40.057 81.016a35.748 35.748 0 0 1 2.34-2.767c1.14-1.178 3.25-3.587 4.106-4.663L59.321 58.22M75.57 57.952c-1.405 1.705-5.776 6.97-7.885 9.226s-4.773 5.615-6.582 7.721-4.47 4.964-5.425 5.967M91.243 57.952c-2.01 2.306-6.782 7.721-8.79 9.827s-4.823 5.867-6.28 7.521-4.118 4.813-4.821 5.566M106.965 59.356c-1.808 2.156-3.265 3.911-5.224 6.217s-5.024 5.766-6.48 7.471-3.516 4.061-4.27 4.913a36.298 36.298 0 0 0-2.21 3.01" transform="translate(11.008 .392)"/><path class="cls-14" d="M61.564 56.951a3.144 3.144 0 0 0-.728-1.433 2.265 2.265 0 0 0-1.711-.84 2.363 2.363 0 0 0-.518.06.297.297 0 0 1-.334-.165l-.005-.009a2.85 2.85 0 0 0-.578-.754 2.23 2.23 0 0 0-1.55-.628 2.875 2.875 0 0 0-.874.145l-.265-.043a.3.3 0 0 1-.122-.24h.117l-.114.029-.003-.029h.117l-.114.029-.014-.032a1.042 1.042 0 0 0-.363-.34 1.528 1.528 0 0 0-.793-.208 2.847 2.847 0 0 0-1.493.502.296.296 0 0 1-.408-.094l-.007-.008a1.919 1.919 0 0 0-.598-.366 2.876 2.876 0 0 0-1.099-.236 2.008 2.008 0 0 0-1.808 1.105.297.297 0 0 1-.465.059 1.984 1.984 0 0 0-1.439-.594 3.314 3.314 0 0 0-2.716 1.786.297.297 0 0 1-.353.131 5.697 5.697 0 0 0-1.736-.287 3.511 3.511 0 0 0-1.41.268 2.511 2.511 0 0 0-1.167 1.032.297.297 0 0 1-.348.127 1.283 1.283 0 0 0-.399-.056 4.4 4.4 0 0 0-1.856.553 4.199 4.199 0 0 0-.745.488.928.928 0 0 0-.289.337.297.297 0 0 1-.576-.144 1.367 1.367 0 0 1 .481-.646 5.383 5.383 0 0 1 2.985-1.181 1.869 1.869 0 0 1 .586.086l-.093.282-.254-.154a3.127 3.127 0 0 1 1.436-1.268 4.104 4.104 0 0 1 1.649-.317 6.262 6.262 0 0 1 1.929.319l-.097.281-.256-.149a3.9 3.9 0 0 1 3.229-2.082 2.591 2.591 0 0 1 1.858.767l-.209.21-.256-.151a2.614 2.614 0 0 1 2.319-1.395 3.47 3.47 0 0 1 1.404.315 3.047 3.047 0 0 1 .49.274 1.122 1.122 0 0 1 .313.299l-.252.157-.157-.252a3.434 3.434 0 0 1 1.807-.591 2.082 2.082 0 0 1 1.269.407 1.579 1.579 0 0 1 .343.348.702.702 0 0 1 .149.389h-.297l-.09-.282a3.442 3.442 0 0 1 1.054-.174 2.84 2.84 0 0 1 2.038.869 3.348 3.348 0 0 1 .633.866l-.269.125-.065-.289a2.903 2.903 0 0 1 .648-.074 2.857 2.857 0 0 1 2.157 1.041 3.718 3.718 0 0 1 .868 1.732.297.297 0 1 1-.586.093" transform="translate(11.008 .392)"/><path class="cls-16" d="M61.255 55.35c.653-2.357 2.662-2.106 3.415-1.504.1-2.908 3.366-2.307 3.818-1.655 2.26-2.557 3.366-1.003 3.517-.351 2.51-.502 2.51.501 2.46 1.254 1.809.05 2.764 2.607 2.814 3.51" transform="translate(11.008 .392)"/><path class="cls-16" d="M76.675 54.798c.904-1.453 3.266-1.755 4.12-1.053a2.648 2.648 0 0 1 3.565-1.604 1.583 1.583 0 0 1 2.713-.803c1.205-1.654 2.461-1.152 2.662-.5 2.863-.602 4.22.752 4.22 2.356 2.26 0 2.762 1.203 2.612 1.805 2.11.05 2.913.601 3.114 1.504a6.82 6.82 0 0 1 2.706.905" transform="translate(11.008 .392)"/><path class="cls-14" d="M35.167 58.248a5.576 5.576 0 0 0-.573-1.106.95.95 0 0 0-.785-.448l-.16.012a7.087 7.087 0 0 0-1.565.383 2.09 2.09 0 0 0-1.064.781l-.206.142-.24-.066a4.585 4.585 0 0 0-2.863-.915 4.009 4.009 0 0 0-1.33.203 1.142 1.142 0 0 0-.663.468.297.297 0 0 1-.49.062 6.436 6.436 0 0 0-2.09-1.514 5.417 5.417 0 0 0-2.12-.577.976.976 0 0 0-.553.121l-.254.045-.194-.17a1.013 1.013 0 0 0-1-.62 1.736 1.736 0 0 0-1.63 1.212.297.297 0 0 1-.56.03 1.896 1.896 0 0 0-.563-.809 1 1 0 0 0-.63-.215 2.162 2.162 0 0 0-1.375.661 2.977 2.977 0 0 0-.863 1.371.297.297 0 0 1-.532.102 6.606 6.606 0 0 0-1.29-1.439 1.68 1.68 0 0 0-.99-.425 1.083 1.083 0 0 0-.914.643.297.297 0 0 1-.535-.055 4.294 4.294 0 0 0-.898-1.544 1.586 1.586 0 0 0-1.09-.57 1.077 1.077 0 0 0-.664.246.296.296 0 0 1-.398-.032 2.133 2.133 0 0 0-1.594-.755 2.588 2.588 0 0 0-2.017 1.086l-.21.135-.24-.076a1.358 1.358 0 0 0-.904-.259 3.273 3.273 0 0 0-1.537.405 1.748 1.748 0 0 0-.517.422.713.713 0 0 0-.173.445l-.098.221-.23.074a7.236 7.236 0 0 0-.697-.03 6.132 6.132 0 0 0-1.765.228 2.229 2.229 0 0 0-.712.356 1.04 1.04 0 0 0-.37.535.296.296 0 0 1-.367.205.296.296 0 0 1-.205-.366 1.636 1.636 0 0 1 .572-.838 4.87 4.87 0 0 1 2.847-.715 7.537 7.537 0 0 1 .76.035l-.032.295H-1.7a1.314 1.314 0 0 1 .3-.812 3.407 3.407 0 0 1 2.521-1.054 1.92 1.92 0 0 1 1.305.415l-.2.22-.25-.16a3.16 3.16 0 0 1 2.516-1.36 2.733 2.733 0 0 1 2.028.943l-.217.203-.182-.235a1.664 1.664 0 0 1 1.027-.37 2.16 2.16 0 0 1 1.52.752 4.922 4.922 0 0 1 1.03 1.76l-.282.097-.254-.153a1.675 1.675 0 0 1 1.423-.93 2.256 2.256 0 0 1 1.353.55 7.198 7.198 0 0 1 1.413 1.566l-.243.17-.288-.069a3.546 3.546 0 0 1 1.034-1.666 2.724 2.724 0 0 1 1.78-.821 1.598 1.598 0 0 1 .993.337 2.49 2.49 0 0 1 .749 1.054l-.274.113-.285-.084a2.324 2.324 0 0 1 2.2-1.639 1.611 1.611 0 0 1 1.549.984l-.274.115-.175-.24a1.524 1.524 0 0 1 .901-.235 5.97 5.97 0 0 1 2.375.634 7.05 7.05 0 0 1 2.285 1.662l-.225.195-.265-.133a1.701 1.701 0 0 1 .993-.762 4.63 4.63 0 0 1 1.531-.238 5.166 5.166 0 0 1 3.244 1.055l-.191.227-.255-.151a2.644 2.644 0 0 1 1.357-1.03 7.627 7.627 0 0 1 1.699-.42l.244-.018a1.546 1.546 0 0 1 1.258.684 6.092 6.092 0 0 1 .644 1.227.297.297 0 1 1-.544.237" transform="translate(11.008 .392)"/><path class="cls-17" d="M13.282 62.02c-2.302-1.379-5.42-4.295-6.164-5.905a27.596 27.596 0 0 1-2.441-8.466 21.898 21.898 0 0 1 2.068-11.77c1.944-3.675 3.93-6.236 6.868-7.97a29.791 29.791 0 0 1 10.356-3.329 31.384 31.384 0 0 0 .856-3.196 5.217 5.217 0 0 1 1.86-2.396c.746-.412 1.408-.784 1.739-.536s.745.413.414.743a7.816 7.816 0 0 0-1.448 1.446 4.848 4.848 0 0 0-.828 2.147c0 .537-.203 1.49-.04 1.654a26.695 26.695 0 0 1 9.018 2.517c2.069 1.239 5.627 3.84 6.662 5.41a22.102 22.102 0 0 1 3.309 7.227 32.289 32.289 0 0 1 .745 6.648c-.125 1.529-.952 6.4-1.78 7.888-2.688.62-22.133 4.088-22.133 4.088a6.264 6.264 0 0 0-.993 3.552c0 .909.612 2.984.616 3.454-1.733-.398-5.457-1.678-6.201-1.926a18.718 18.718 0 0 1-2.483-1.28" transform="translate(11.008 .392)"/><path class="cls-18" d="M22.322 25.435c-.537.171-1.244.366-1.318.658a2.335 2.335 0 0 1-.537.73c-.03.042-.088-.034-.17-.11a.316.316 0 0 0-.489-.011c-.366.341-.585.536-.609.755s-.098.584-.343.584-.682.025-.78.317a2.198 2.198 0 0 0-.17.853 1.012 1.012 0 0 1-.245.585 4.46 4.46 0 0 1-.464.438 4.446 4.446 0 0 0-1.073 1.072c-.172.365-.562.438-.415.852s.05.365-.122.487-1.123.756-1.684 1.048-1.147.609-1.269.925-.464.244-.17.633c.292.391.414.391.341.634s.098.293-.342.706-.56.488-.659.78-.39.536-.464.95a1.127 1.127 0 0 1-.56.852 5.875 5.875 0 0 0-.782.78 2.9 2.9 0 0 0-.78.998c-.073.269-.244.317-.025.756s.464.609.586.9a1.389 1.389 0 0 1 .024 1.17 3.049 3.049 0 0 0-.415.853c-.146.487-.219.56-.097.95a2.612 2.612 0 0 1 .268.974c.05.609-.17.73-.195 1.388s0 1.803-.025 2.242-.073.998.172 1.193c.243.195.121.512.487.682s.586.146.49.463a3.7 3.7 0 0 0-.173.828 2.204 2.204 0 0 0-.048 1.193 1.957 1.957 0 0 0 .488 1.073 2.521 2.521 0 0 0 .178.225c-.008-.015-.007-.03.163.14.366.365.464.317.464.779s.073.487.44.78.634.365.66.584.121.609.145.829-.025.243.365.584.66.536.708.902a1.485 1.485 0 0 0 .22.852c.22.317.44.268.586.585s-.488.146.317.657.976.585 1.171.73 2.221.829 2.221.829a10.845 10.845 0 0 1-1.464-1.705c-.318-.463-.39-.292-.586-.56s-.097.17-.317-.658.244-.39-.464-1.047a10.166 10.166 0 0 1-.878-.804c-.122-.171-.39-.024-.318-.536a3.812 3.812 0 0 0-.048-1.34 1.262 1.262 0 0 0-.44-.657.182.182 0 0 0-.195-.007c-.11.04-.216.08-.34-.31a2.863 2.863 0 0 1-.197-1.34c.05-.414.024-.657-.146-.804a3.529 3.529 0 0 1-.61-.511c-.196-.244-.268-.707-.659-1.486a2.135 2.135 0 0 1-.244-1.413c0-.316.365-.146.122-.877s-.025-.755-.415-.998-.244-.828.05-1.267a3.814 3.814 0 0 0 .39-2.095 1.782 1.782 0 0 0-.22-.536s-.024 0-.17-.341a1.384 1.384 0 0 1-.148-.61c0-.096.171-.218.27-.315s.463-.244.414-.536-.317-.585-.39-.877-.269-.658.243-.706 1.05-.61.88-.853a.867.867 0 0 1-.196-.633c.024-.196.243-.341.317-.292s.27.389.464.024.438-.731.365-1 .098-.681.244-.705.44-.27.391-.463a8.214 8.214 0 0 1 .22-1.39 3.093 3.093 0 0 1 .39-.948c.05-.123.146.048.464-.196s.512-.243.512-.584a.769.769 0 0 1 .342-.731.292.292 0 0 1 .29-.031.925.925 0 0 0 .393.007c.464-.074 1.074-.342 1.074-.755 0-.415.146-.61.098-.901s.22-.488.268-.561c.014-.021.058-.003.12.015.148.044.405.088.612-.43.293-.73.415-.973.39-1.242a.877.877 0 0 1 .171-.681c.146-.146.366-.098.66-.415a1.4 1.4 0 0 0 .438-1.071.662.662 0 0 1 .172-.633 2.044 2.044 0 0 1 .756-.78c.561-.39 1.27-.122 1.537-.341a1.154 1.154 0 0 0 .342-.61s.244-.291.024-.34a4.066 4.066 0 0 0-1.049.219" transform="translate(11.008 .392)"/><path class="cls-18" d="M20.54 64.628c-.293-.414-.146-.536-.317-.853s-.244-.584-.561-.657-.513.024-.683-.268a.877.877 0 0 1 0-1c.243-.267.487-.193.536-.657.049-.462.001-1.144-.219-1.144a.788.788 0 0 1-.513-.195.765.765 0 0 1-.268-.682c.049-.244.317-.317.366-.488a.615.615 0 0 0-.244-.657.658.658 0 0 0-.329-.037c-.169.009-.33.018-.403-.158a1.626 1.626 0 0 1-.219-1.023 4.833 4.833 0 0 0 .268-.828c.073-.463-.098-.512-.244-.731a1.65 1.65 0 0 1-.268-.78 5.436 5.436 0 0 1 .194-.803.908.908 0 0 0-.122-.902c-.244-.268-1.318-1.51-.976-1.997a.822.822 0 0 0 .025-1.047c-.147-.195-.171 0-.318-.365s-.316-.293-.073-.804.635-1.048.391-1.316a.904.904 0 0 1-.244-.633c-.025-.171.073-.317.317-.536a3.443 3.443 0 0 1 .634-.414s-.195-.195-.195-.828.171-1.023.317-1.097a.633.633 0 0 1 .242-.023.65.65 0 0 0 .564-.171c.195-.268.658-.44.634-.83a1.504 1.504 0 0 0-.342-.754s-.731-.853-.121-1.096 1.098-.536 1.073-.755-.048-.341-.366-.585-.39-.243-.268-.56.463-.584.61-.828.512-.365.512-.56.196-.561.147-.756a1.243 1.243 0 0 0-.244-.657.92.92 0 0 1 .244-1.218c.342-.22-.098-.39-.317-.56s-.464-.122-.318-.56a1.483 1.483 0 0 1 .659-.853c.318-.22.537-.585.439-.804s-.146 0-.195-.39.293-.658.415-.779.659-.463.61-.95-.146-.317.025-.755.415-.317.561-.366.463-.268.439-.486a1.704 1.704 0 0 1-.049-.585.47.47 0 0 1 .342-.366c.22-.073.513-.146.513-.463s-.122-.535.146-.657.879-.414.879-.414l.317-.049a3.276 3.276 0 0 1-.464.779 1.182 1.182 0 0 0-.244.853.938.938 0 0 1-.341.877.984.984 0 0 0-.44.828 1.094 1.094 0 0 1-.39.78c-.171.097-.415.365-.391.584s.293.633.317.78a2.322 2.322 0 0 1-.219.877 5.866 5.866 0 0 1-.513.535l-.122.366a3.793 3.793 0 0 1 .318.633 1.226 1.226 0 0 1-.098.853 1.882 1.882 0 0 0-.293.853 4.303 4.303 0 0 0 .195.803c.025.195-.366.292-.122.755s.366.39.439.682.244.512.123.804c-.123.292-.196.56-.488.682a4.075 4.075 0 0 0-.684.414s-.367.463-.293.658.415.17.488.512a2.17 2.17 0 0 1-.122.9 2.746 2.746 0 0 0-.561.512c-.171.244-.488.78-.683.999a2.879 2.879 0 0 0-.635 1.242c.049.244.294.293.415.439s.537.609.366.877a10.82 10.82 0 0 1-.805.9c-.122.147-.366.123-.293.707s.171.463.122.755-.293.39-.342.828-.219.415-.024.853.415.268.22.755-.367.707-.245.877.464.926.464.926a1.045 1.045 0 0 1 .39.877c-.024.584-.39 1.095-.268 1.486a1.25 1.25 0 0 0 .561.73 3.775 3.775 0 0 1 .538.195c.171.074.512.219.414.634s-.219.779.147.9.536.05.61.17a.908.908 0 0 1-.049.708 1.555 1.555 0 0 0-.122.828 2.546 2.546 0 0 0 .146 1.047c.147.34.708 3.069.855 3.313a.919.919 0 0 1 .146.78c-.098.243.049.365.147.56s.561.755.341.804a17.391 17.391 0 0 1-1.952-.415 1.688 1.688 0 0 1-.562-.365M26.398 62.972a2.64 2.64 0 0 1 .122-1.657c.268-.365.292-.511.122-.852s-.196-.634-.05-.682a3.497 3.497 0 0 0 .538-.341l-.098-.83.244-.461c.074-.073.464-.17.244-.512s-.415-.487-.585-.78-.195-.316-.318-.511c-.121-.195-.341-.341-.073-.585s-.268-.413-.366-.511 0-.414 0-.414.22-.39.293-.561.366-.462.414-.657a9.376 9.376 0 0 1 .66-1.754c.317-.56.366-.584.17-.901s-.195-.293-.024-.658.17-.78-.048-.755c-.221.024-.294.219-.513.122s-.732-.098-.513-.633a1.051 1.051 0 0 0-.097-1.145 1.07 1.07 0 0 1-.293-.268s.366-.731.463-.926.464-.536.464-.803c0-.27.293-.78.074-.951s-.904-.706-.488-1.17c.414-.462.414-.852.317-.973s-.464.049-.367-.22.44-.438.367-.535c-.033-.044-.131-.043-.237-.043-.13.001-.271.001-.324-.08a.777.777 0 0 1 .024-.828c.22-.292.512-.341.61-.73s.147-.244.122-.633-.098-.27.195-.561a.655.655 0 0 0 .122-.779c-.073-.171-.122-.585-.293-.56s-.414.073-.512-.049a.765.765 0 0 1-.195-.609c.048-.268.048-.512.34-.682a1.207 1.207 0 0 0 .513-.487c.049-.122.366-.707.245-.756a5.807 5.807 0 0 0-.66-.121 1.329 1.329 0 0 1-.341-.122c-.195-.097-.463-.049-.537-.438a1.47 1.47 0 0 1 .245-.902c.048-.097.268-.194.268-.365s.122-.512-.025-.658-.462-.122-.44-.487.197-.438.074-.633a.645.645 0 0 0-.39-.244 2.352 2.352 0 0 1-.146-1.169c.122-.487.268-.317 0-.487s-.27-.195-.44-.293-.244-.17-.17-.438a3.825 3.825 0 0 0 .219-.779c0-.22.122-.56 0-.707a.749.749 0 0 1-.024-.657.89.89 0 0 0 0-.561.517.517 0 0 1 .098-.414s.536-.12.536.025-.05.682-.05.682l.22.243s.148.025.123.463.024.926.219.926a.557.557 0 0 1 .439.195c.172.146.489.17.39.365a.605.605 0 0 0-.072.487c.049.146.513.463.635.39s.585.243.634.365.317.244.122.414-.244.61-.341.78a.418.418 0 0 0 .12.584c.246.195.489.415.514.585a2.416 2.416 0 0 1-.073.585s-.22.584-.05.633.39.244.343.438a2.68 2.68 0 0 0-.05.512c.318.098.44.34.684.34a.598.598 0 0 1 .586.488 1.2 1.2 0 0 1-.171.804.992.992 0 0 0-.317.536.46.46 0 0 0 .17.487c.098.073.367.317.318.487s-.05.463-.171.609-.244.585-.122.682.317.17.22.317-.22.487-.05.584a1.5 1.5 0 0 1 .488.39 1.744 1.744 0 0 1 .244.974c-.048.293 0 .61-.267.731a1.153 1.153 0 0 0-.415.317c-.025.146.195.219.195.511a1.32 1.32 0 0 1-.391.829c-.195.194-.268.219-.293.487s-.195.316.098.463.537.17.513.365-.122.219-.196.487-.268.439.123.609a.316.316 0 0 0 .303.012c.075-.042.072-.084.086.159.025.413.05.804-.097.974a8.224 8.224 0 0 1-.463.682 1.909 1.909 0 0 0-.318.585c-.097.195-.488.34-.17.682.317.34.097 1.193.414 1.437s.342.194.342.584a1.171 1.171 0 0 1-.244.682s-.073 0-.024.439-.025.146.244.584.292.341.268.682a2.426 2.426 0 0 1-.146.682.353.353 0 0 0 .17.488c.268.17.367.268.196.438s-.708.366-.464.731.317.292.244.536a13.971 13.971 0 0 1-.146 2.314c-.22.536-.586.828-.44 1.096a1.14 1.14 0 0 1-.048.901c-.098.195-.537.317-.464.731a1.712 1.712 0 0 1-.244.999l-.22.438-.634.561-.464.34-1.22.268-.366-.998" transform="translate(11.008 .392)"/><path class="cls-17" d="M37.662 74.864c-2.328 0-6.288-.384-8.497-1.558A14.914 14.914 0 0 1 24.1 69.28a13.616 13.616 0 0 1-2.4-5.175 12.16 12.16 0 0 1 .144-5.2c.226-.54.528-.814.72-.79s.36.647.504 1.438a21.347 21.347 0 0 0 2.784 6.157 26.437 26.437 0 0 0 5.834 5.942 24.185 24.185 0 0 0 5.016 2.684l1.824.503-.864.024" transform="translate(11.008 .392)"/><path class="cls-18" d="M26.812 25.727c-.049.39 0 .78.317.682a1.097 1.097 0 0 1 .88.146 1.47 1.47 0 0 1 .291.536.525.525 0 0 0 .635.244c.293-.122.611.243.611.243s.414.196.39.463-.098.633.244.658.707.243.878.195a.537.537 0 0 1 .61.243c.098.244.342.44.317.731s.098.292.27.341-.147.463.365.536.732.438.66.706-.416.561-.147.731.39.341.585.122.635-.243.61.097a4.883 4.883 0 0 1-.073.877 1.046 1.046 0 0 0 .073.853 1.684 1.684 0 0 0 .781.584c.39.195.805.341.707.634a.598.598 0 0 0 .147.633c.122.122.44.195.366.438s-.073.561-.146.756.098.511.05.998a2.32 2.32 0 0 1-.294 1c-.123.194.073.121-.342.754s-.512.536-.537.853-.317.268.073.56a2.466 2.466 0 0 0 .537.341.71.71 0 0 1-.146.463.873.873 0 0 0-.22.487c-.048.22-.146.121.098.414s.244.341.414.365c.172.025.757.22.757.22l.147.414-.22.39a2.507 2.507 0 0 1 .317.195c.171.121.147.121.196.34s.024.171-.098.39-.293.463.024.56.635.268.61.39a7.827 7.827 0 0 1-.414.804s-.488.073-.366.44.244.461.244.656-.562.633-.537.926-.293.39-.44.536-.414.122-.195.39.074.632.098.803-.025.122.024.341.317.39.44.463a.97.97 0 0 1 .244.316 2.357 2.357 0 0 1-.17.512c-.148.342-.733.097-.343.585s.488.585.513.706.22.341.048.536-.439.22-.512.61a3.43 3.43 0 0 0 .098 1.046c.024.293.268.682-.049.926s-.61.17-.61.634c0 .462.05.56.122.681s.146.22.122.293a1.452 1.452 0 0 1-.317.536.546.546 0 0 0-.123.536c.025.17.122.121-.049.365s-.683.61-.537.73.245.342.074.464-.659.414-.635.608.074.561-.122.707-.56.414-.56.414l-.343.317s-.415.365-.512.487.342.268.61.268.757-.049.903-.244.635-.34.83-.463c.195-.122.61-.389.61-.633s-.415-.439.171-.73.878-.488.927-.78.122-.39.05-.658a3.946 3.946 0 0 1-.099-.634 3.988 3.988 0 0 0 .635-.705 1.724 1.724 0 0 0 .097-.902 3.613 3.613 0 0 1-.122-.487.682.682 0 0 1 .122-.634 3.115 3.115 0 0 1 .66-.438c.145-.049.218-.755.218-.755a.287.287 0 0 1-.073-.268c.05-.146.074-.219.342-.463s.66-.658.586-.9a7.896 7.896 0 0 0-.22-.95c-.098-.172-.318-.39-.439-.562s-.269-.194-.244-.608a2.41 2.41 0 0 1 .195-.78.452.452 0 0 1 .196-.17l.122-.049a5.495 5.495 0 0 0 .512-1.072c.146-.487.244-.535.098-.755s-.245-.317-.196-.536-.048-.219-.17-.487a3.859 3.859 0 0 1-.172-.682c-.048-.146-.585-.292-.097-.852s.61-.634.61-.853.098-.585-.048-.658a.555.555 0 0 0-.318-.048c-.073 0-.219-.342-.049-.463a1.456 1.456 0 0 0 .317-.536l-.122-.244a5.54 5.54 0 0 0-1.073-.999 1.245 1.245 0 0 1-.61-.73 1.677 1.677 0 0 1 .073-.658c.05-.292.073-.292.024-.463s-.342-.073-.17-.414.341-.998.195-1.096-.318-.17-.318-.292.05-.487.05-.487a5.577 5.577 0 0 1-.123-1.486.602.602 0 0 0-.17-.634.925.925 0 0 1-.196-.414c0-.12.367-.463.147-.95s-.39-.706-.562-.779-.22 0-.39-.195-.415-.17-.317-.536a2.17 2.17 0 0 0 .097-.804 2.357 2.357 0 0 0-.464-.706c-.146-.17-.439-.585-.439-.585l-.268-.803c-.049-.146-.123-.147-.366-.268-.245-.122-.366.073-.415-.317a6.56 6.56 0 0 0-.049-.877c-.073-.146-.17-.512-.439-.487-.132.012-.377-.183-.64-.377a1.411 1.411 0 0 0-.776-.378c-.415.048-.439.17-.658-.025s-.17-.609-.318-.658-.268-.34-.487-.292a.812.812 0 0 1-.733-.365.852.852 0 0 0-.439-.439.625.625 0 0 0-.415-.097c-.244 0-.342-.17-.488-.292a2.154 2.154 0 0 0-.366-.317 1.985 1.985 0 0 0-.342-.122 3.622 3.622 0 0 0-.903-.195c-.146.05-.024.317-.024.317" transform="translate(11.008 .392)"/><path class="cls-18" d="M28.887 25.484c.195.268.122.317.513.389a3.68 3.68 0 0 1 .95.268 1.118 1.118 0 0 1 .342.39c.074.195.294.244.464.268a1.749 1.749 0 0 1 .635.415c.195.17.366.145.635.145s.658.074.854.074a2.184 2.184 0 0 1 .805.219c.146.097.512.292.488.56s-.22.366.073.706c.293.342.123.463.415.366a1.069 1.069 0 0 1 .635.024c.17.024.463.024.512.17a3.879 3.879 0 0 1 .098.609c.048.342.195.73.366.73s.268-.12.512.293a2.87 2.87 0 0 1 .512 1.073c.05.389-.316.73.147.73s.634.122.659.244-.098.34-.073.536a.666.666 0 0 0 .268.487 2.571 2.571 0 0 0 .513.316 1.178 1.178 0 0 1 .512.147c.269.146.39.438.536.584s.416.536.392.658 0 .56 0 1.242-.27.829 0 1.218a6.273 6.273 0 0 0 .56.828c.147.122.22.317.513.439s.562.243.488.51-.195.39-.268.732-.244.56-.074.804a.836.836 0 0 1 .22.634 10.622 10.622 0 0 1-.244 1.266c-.122.487-.414.633-.146 1.047s.293.609.39.73.342.147.196.512-.367.926-.074 1.097.415.097.318.438a5.707 5.707 0 0 0-.318.829 2.164 2.164 0 0 0-.073.754c.049.244-.195.317.049.634s.268.317.268.51-.17.416-.17.708-.074.39-.025.609-.122.487 0 .755a.96.96 0 0 1-.098.682 10.67 10.67 0 0 0-.268 1.242 3.429 3.429 0 0 1-.147.755c-.048.17-.537.244-.463.439s.317.316.049.682-.391.536-.513.706a.836.836 0 0 0-.22.439c-.048.243-.561.9-.536.974s-.268.073-.366.463.854-.341 1-.536 1.17-1.584 1.27-1.754c.097-.17.365-.097.414-.463s.219-.56.219-.828.025-.317.293-.633a5.874 5.874 0 0 0 .439-.585 1.212 1.212 0 0 0 .074-.682.862.862 0 0 1-.074-.634c.074-.17.342-.121.342-.462s-.024-.56-.024-.56l-.024-.292s-.05-.293.195-.317a.593.593 0 0 0 .439-.561c-.024-.194.097-.438-.05-.682a4.224 4.224 0 0 1-.292-.535.658.658 0 0 1 .074-.61 2.899 2.899 0 0 0 .316-.437 1.343 1.343 0 0 0 .147-.464s.098-.073-.05-.195a4.983 4.983 0 0 1-.413-.438l-.122-.39a2.873 2.873 0 0 1-.244-1.485c.17-.512.195-.512.17-.78a2.442 2.442 0 0 0-.244-.877c-.122-.195-.268-.146-.122-.731s.196-.925.074-1.072a.92.92 0 0 1-.074-.706c.049-.292-.024-.292-.024-.584s.146-.536-.05-.853-.145-.536-.34-.61a.895.895 0 0 1-.488-.705c.024-.268.219-.39.219-.536a6.971 6.971 0 0 0-.244-.877 1.595 1.595 0 0 1-.317-.682 2.072 2.072 0 0 0-.098-.561 1.516 1.516 0 0 0-.415-.414c-.22-.121-.244-.024-.39-.414a1.388 1.388 0 0 0-.683-.78.973.973 0 0 0-.464 0 1.219 1.219 0 0 1-.66-.437c-.096-.195-.536-1.121-.683-1.535s-.024-.585-.316-.706a.288.288 0 0 0-.218-.026c-.052.018-.063.036-.15-.121a3.351 3.351 0 0 1-.267-.755c-.122-.39.024-.365-.22-.463s-.268-.22-.463-.487.048-.536-.317-.487a1.172 1.172 0 0 1-.632-.231 1.168 1.168 0 0 0-.613-.232c-.341.049-.366-.024-.44-.243s.099-.268-.146-.414c-.243-.147-.147-.268-.415-.342a9.717 9.717 0 0 0-1.561-.438c-.342 0-.684-.024-.757-.122s-.22-.195-.341-.341a.764.764 0 0 0-.464-.341 2.31 2.31 0 0 0-.538-.024l-.585-.463-.635-.122h-.341s-.586-.195-.61-.097.122.073.122.073" transform="translate(11.008 .392)"/></g><g style="clip-path:url(#clip-path-7)"><path transform="rotate(-12.201 48.844 11.83)" style="fill:url(#linear-gradient-4)" d="M20.523 47.791h41.968v30.682H20.523z"/></g><g class="cls-4"><path class="cls-18" d="M26.893 71.807c-.166-.138-.745-.744-.966-.936s-.138-.496-.193-.634-.413-.44-.523-.605-.222-.22-.222-.468a.632.632 0 0 0-.165-.413l-.358-.413.055-.523-.469-.578s-.33-.44-.22-.66a1.556 1.556 0 0 0 .137-.469l-.33-.523a3.426 3.426 0 0 1-.083-.854 4.219 4.219 0 0 0-.249-1.046 5.717 5.717 0 0 1 0-.688.98.98 0 0 1-.386-.77c.027-.469.083-.634.083-.827a4.016 4.016 0 0 0-.028-.606c-.028-.137.221-.027.25.221s.246 1.321.275 1.486a1.086 1.086 0 0 0 .082.413c.083.166.331.606.441.8a2.646 2.646 0 0 1 .303.825c.028.247.166.385.497.688a1.2 1.2 0 0 1 .497.963 1.209 1.209 0 0 0 .496.992c.276.165.883.44.883.771s-.552.633.083.963 1.02.578 1.075.964.193.523.221.881-.028.248.22.523.36.138.47.578a1.222 1.222 0 0 0 .578.771c.276.22.47.193.801.468a2.09 2.09 0 0 1 .523.578c.083.137-.607-.165-.717-.22s-2.51-1.184-2.51-1.184l-.55-.468" transform="translate(11.008 .392)"/><path class="cls-14" d="M28.247 60.522c-.259-.165-.104-.699.09-.907a.634.634 0 0 1 .655-.178c.134.074.136.51-.013.761s-.422.52-.732.324M31.493 60.403c-.586-.106-.357-.609-.297-.773s.387-.46.566-.446.223.387.163.684-.236.57-.432.535M35.186 61.177c-.223.026-.447-.357-.432-.73s.12-.653.342-.668.525.37.54.77-.14.59-.45.628M34.2 64.763c-.386.028-.533-.42-.489-.763s.209-.535.388-.55.476.297.536.58-.041.705-.435.733M38.447 64.432a.491.491 0 0 1-.595-.55c.014-.342.044-.654.297-.714s.507.238.61.58c.105.342.001.624-.312.684M41.886 65.25c-.205-.028-.343.342-.357.594s.096.678.425.676c.518-.003.55-.428.478-.716a.758.758 0 0 0-.546-.554M40.11 60.522c-.418.018-.547-.222-.562-.58s.098-.754.342-.787c.389-.051.485.206.626.699a.5.5 0 0 1-.406.668M44.916 63.292c-.274.136-.652-.273-.73-.547a.632.632 0 0 1 .187-.651c.133-.076.507.148.646.406s.226.63-.102.792M56.229 54.578c-.231.16-.628-.163-.735-.4a.581.581 0 0 1 .085-.617c.112-.087.479.068.64.284s.288.543.01.733M45.126 59.707c-.469.368-.694-.138-.777-.29a.85.85 0 0 1 .041-.72c.13-.122.438.09.621.333s.271.555.115.677M52.714 56.257c-.47.368-.694-.137-.777-.29a.848.848 0 0 1 .04-.718c.13-.124.439.089.622.331s.272.555.115.677M49.31 58.119c-.189.12-.558-.126-.707-.467s-.179-.64.015-.751.634.104.822.458c.19.355.133.593-.13.76M49.3 60.617c-.31.23-.677-.067-.824-.38-.147-.312-.114-.563.028-.672s.562-.005.765.2a.563.563 0 0 1 .031.851M53.22 61.838a.492.492 0 0 1-.805-.107c-.186-.287-.342-.56-.17-.753s.552-.098.834.12.361.51.14.74M48.331 63.038c-.2.055-.182.448-.097.687s.354.586.656.456c.476-.205.34-.608.16-.845a.756.756 0 0 0-.719-.298M52.99 58.913c-.315.273-.566.165-.8-.106s-.393-.653-.221-.829c.272-.28.507-.139.925.16a.5.5 0 0 1 .097.775" transform="translate(11.008 .392)"/><path class="cls-18" d="M20.067 25.473a5.802 5.802 0 0 1-1.448.826c-.786.289-2.358.578-2.4 1.074s-.58.619-1.117.908a10.239 10.239 0 0 0-.87.578 5.275 5.275 0 0 1-.785.454c-.248.083-.124.496-.371.579a4.582 4.582 0 0 0-1.118.536c-.248.207-.87.248-.91.785s-.497.99-.497 1.32-.206 1.034-.165 1.199.496.248.04.454-1.281.496-1.281.496a1.522 1.522 0 0 0-.663.289.931.931 0 0 0-.206.578l-.704.496a.945.945 0 0 1-.165.867c-.331.413-1.158 1.115-.827 1.693s.413.66.33.99-.58.662-.58.662a.388.388 0 0 0-.123.37 1.172 1.172 0 0 1-.041.91c-.207.372.165.04-.125.826s-.62.95-.372 1.363a5.309 5.309 0 0 1 .33.99.691.691 0 0 1 .042.827c-.248.413-.537.496-.372 1.073a2.223 2.223 0 0 1 .083 1.24 2.422 2.422 0 0 0 .083.867s.745.165.62.66.083.413-.165.95-.414.785-.29.95a4.566 4.566 0 0 1 .58 1.074c0 .165.082-.165.372.743a5.707 5.707 0 0 1 .29 1.569l.289.537s0 .165.372.083.828.413.828.702a6.013 6.013 0 0 0 .248 1.074l.704.867a2.24 2.24 0 0 0 .868.99 7.9 7.9 0 0 1 .538.662 13.824 13.824 0 0 0 1.158 1.693 17.6 17.6 0 0 1-5.998-7.103A24.133 24.133 0 0 1 4.51 46.45a23.446 23.446 0 0 1 .869-7.64 19.063 19.063 0 0 1 3.723-6.896c1.614-1.693 2.648-3.014 4.676-4.13a34.609 34.609 0 0 1 5.212-2.23 3.927 3.927 0 0 1 1.076-.082" transform="translate(11.008 .392)"/></g><g style="clip-path:url(#clip-path-9)"><path transform="rotate(-89.763 27.163 19.7)" style="fill:url(#linear-gradient-5)" d="M20.986 22.853h.953v4.356h-.953z"/></g><g class="cls-23"><path d="M45.92 49.539a3.631 3.631 0 0 1-.239.406 35.853 35.853 0 0 1-.496 2.18 49.68 49.68 0 0 0 .734-2.586" transform="translate(11.008 .392)" style="fill:#798b84"/><path d="m44.612 53.897-.025.016a3.29 3.29 0 0 1-.094.188.987.987 0 0 0 .053-.01l.066-.194" transform="translate(11.008 .392)" style="fill:#4f4f45"/></g><g style="clip-path:url(#clip-path-11)"><path transform="rotate(-89.763 21.973 54.402)" style="fill:url(#linear-gradient-6)" d="M14.507 52.412h3.53v14.641h-3.53z"/></g><path d="M44.671 53.722a5.148 5.148 0 0 1-.084.191l.025-.015.059-.176" transform="translate(11.008 .392)" style="fill:#d1d1cb" class="cls-23"/><g style="clip-path:url(#clip-path-13)"><path transform="rotate(-89.762 27.276 54.6)" style="fill:url(#linear-gradient-7)" d="M21.542 59.924h.066v.014h-.066z"/></g><g class="cls-23"><path class="cls-31" d="M21.23 65.02q.235.068.424.117l-.004-.014c-.168-.042-.316-.079-.42-.103m15.16-10.453a25.205 25.205 0 0 1-4.692.452c-.264 0-.527-.004-.791-.013a.368.368 0 0 1-.043.049c-.172.17-.708.366-.465.73s.318.293.244.537a1.718 1.718 0 0 0-.022.36l.382-.072 5.223-.956a1.844 1.844 0 0 1-.043-.72.588.588 0 0 1 .207-.367m5.862-1.928a20.363 20.363 0 0 1-3.12 1.245 3.661 3.661 0 0 0 .077.368c.074.243-.317.658-.586.9l-.08.076c1.083-.207 2.18-.416 3.273-.622a3.122 3.122 0 0 0 .078-.5 10.7 10.7 0 0 1 .268-1.243 1.463 1.463 0 0 0 .09-.224m3.43-2.694a7.172 7.172 0 0 1-2.009 1.872l.002.169c0 .342-.268.293-.342.463a.863.863 0 0 0 .074.634 1.214 1.214 0 0 1-.074.682 5.94 5.94 0 0 1-.439.584 2.239 2.239 0 0 0-.053.063l1.652-.31a5.148 5.148 0 0 0 .178-.379c.121-.361.308-.932.514-1.597.18-.678.349-1.434.497-2.181m-26.928-.138.006.012c.194.438.414.267.219.755s-.367.706-.244.876.464.926.464.926a1.048 1.048 0 0 1 .39.877c-.024.584-.391 1.096-.268 1.486a1.246 1.246 0 0 0 .561.73 3.672 3.672 0 0 1 .537.195c.171.074.512.22.414.634s-.219.779.147.9.537.05.61.172a.902.902 0 0 1-.049.706 1.556 1.556 0 0 0-.122.828 2.541 2.541 0 0 0 .146 1.047l.003.007.014-.06a5.017 5.017 0 0 1 .475-1.677.046.046 0 0 1 .023-.006h.009c.036.002.077.034.123.09a.504.504 0 0 1 .328-.19h.024a.15.15 0 0 1 .085.05l.937-.166 3.689-.691a3.088 3.088 0 0 1-.341-.45c-.17-.292-.194-.317-.317-.512s-.342-.34-.073-.584-.268-.414-.366-.512 0-.414 0-.414.174-.31.264-.497a13.603 13.603 0 0 1-3.382-1.445 30.784 30.784 0 0 1-4.306-3.087m-6.156-9.84a.365.365 0 0 0-.281.303.87.87 0 0 0 .195.633c.171.244-.366.804-.879.853s-.317.414-.243.706.341.585.39.877-.317.439-.415.536-.268.219-.268.317a1.394 1.394 0 0 0 .146.609c.147.34.171.34.171.34a1.784 1.784 0 0 1 .219.537 3.811 3.811 0 0 1-.39 2.094c-.292.439-.439 1.023-.049 1.267s.171.268.415.999-.122.56-.122.876a2.135 2.135 0 0 0 .244 1.413c.391.779.463 1.243.659 1.486a3.502 3.502 0 0 0 .611.512c.17.146.195.389.145.804a2.859 2.859 0 0 0 .196 1.339c.087.27.164.335.24.335a.318.318 0 0 0 .101-.025.293.293 0 0 1 .104-.025.147.147 0 0 1 .092.032 1.27 1.27 0 0 1 .439.657 3.79 3.79 0 0 1 .048 1.34c-.072.512.196.366.318.536a9.764 9.764 0 0 0 .878.804c.708.657.245.219.464 1.048s.122.39.317.657.269.097.586.56a10.807 10.807 0 0 0 1.444 1.685 49.89 49.89 0 0 0 2.579.865 2.485 2.485 0 0 1-.412-.31c-.292-.413-.146-.534-.316-.851s-.245-.585-.562-.658-.513.024-.683-.268a.88.88 0 0 1 0-1c.244-.267.488-.193.537-.656s0-1.145-.22-1.145a.784.784 0 0 1-.512-.195.767.767 0 0 1-.269-.682c.049-.243.317-.317.366-.487a.616.616 0 0 0-.244-.658.494.494 0 0 0-.217-.04q-.055 0-.111.003c-.037.002-.074.004-.11.004a.273.273 0 0 1-.294-.161 1.63 1.63 0 0 1-.219-1.024 4.833 4.833 0 0 0 .268-.828c.073-.463-.098-.511-.244-.731a1.661 1.661 0 0 1-.268-.78 5.436 5.436 0 0 1 .194-.803.908.908 0 0 0-.121-.901c-.245-.268-1.318-1.511-.977-1.998a.822.822 0 0 0 .025-1.047c-.147-.195-.171 0-.317-.365s-.317-.293-.073-.804a7.614 7.614 0 0 0 .439-.918 16.837 16.837 0 0 1-3.631-7.49.14.14 0 0 1-.078.025c-.119 0-.221-.16-.269-.191a.059.059 0 0 0-.036-.01m10.581-15.29q-.253.038-.522.086a75.9 75.9 0 0 1-.649.122c-.75.152-1.557.349-2.382.584a4.43 4.43 0 0 1 .441.003 5.802 5.802 0 0 1-1.448.826c-.786.289-2.358.578-2.4 1.074s-.58.619-1.117.908a10.239 10.239 0 0 0-.869.578 5.335 5.335 0 0 1-.786.454c-.248.083-.124.496-.372.579a4.576 4.576 0 0 0-1.117.536c-.249.207-.869.248-.91.785s-.497.99-.497 1.32-.207 1.034-.165 1.199.496.248.041.454-1.282.496-1.282.496a1.522 1.522 0 0 0-.663.289.931.931 0 0 0-.206.578l-.704.496a.945.945 0 0 1-.165.867c-.331.413-1.158 1.115-.828 1.693.332.578.414.66.332.99s-.58.662-.58.662a.388.388 0 0 0-.124.37 1.172 1.172 0 0 1-.041.91c-.207.372.165.04-.125.826s-.62.95-.372 1.363a5.309 5.309 0 0 1 .331.99.691.691 0 0 1 .041.827c-.248.413-.537.496-.372 1.073a2.223 2.223 0 0 1 .083 1.24 2.422 2.422 0 0 0 .083.867s.744.165.62.66.083.413-.165.95-.414.785-.29.95a4.561 4.561 0 0 1 .579 1.074c0 .165.083-.165.372.743a5.707 5.707 0 0 1 .29 1.569l.29.537s0 .106.191.106a.88.88 0 0 0 .181-.023.41.41 0 0 1 .085-.01.885.885 0 0 1 .743.712 6.013 6.013 0 0 0 .248 1.074l.703.867a2.239 2.239 0 0 0 .869.99 7.9 7.9 0 0 1 .538.662 13.713 13.713 0 0 0 1.158 1.693 19.367 19.367 0 0 1-3.958-3.74c.223.343.447.665.67.969a24.988 24.988 0 0 0 3.472 2.962 36.752 36.752 0 0 0 3.583 1.688c-.168-.105-.417-.244-1.013-.622-.805-.512-.171-.341-.317-.658s-.366-.268-.586-.585a1.484 1.484 0 0 1-.219-.852c-.05-.366-.318-.56-.709-.901s-.341-.366-.365-.585-.122-.61-.146-.828-.293-.292-.66-.585-.439-.316-.439-.78-.097-.414-.463-.78a.89.89 0 0 0-.165-.148c-.003 0-.001.005.001.009l.005.009s-.027-.04-.183-.234a1.954 1.954 0 0 1-.488-1.072 2.197 2.197 0 0 1 .049-1.194 3.651 3.651 0 0 1 .171-.828c.097-.317-.122-.292-.489-.463s-.244-.487-.487-.682-.196-.754-.172-1.193c.026-.44 0-1.584.025-2.241s.244-.78.195-1.39a2.606 2.606 0 0 0-.268-.973c-.122-.39-.049-.463.098-.95a3.082 3.082 0 0 1 .414-.852 1.39 1.39 0 0 0-.024-1.17c-.122-.292-.366-.462-.586-.901s-.048-.487.025-.755a2.918 2.918 0 0 1 .78-1 5.8 5.8 0 0 1 .781-.778 1.13 1.13 0 0 0 .561-.853c.074-.414.366-.658.464-.95s.22-.365.659-.78c.028-.025.053-.05.075-.073-.015-.39-.022-.787-.02-1.195l-.055-.071c-.229-.305-.07-.327.069-.473.277-5.894 4.801-8.36 10.445-10.05l.202-.05" transform="translate(11.008 .392)"/><path class="cls-32" d="M12.539 36.518a1.823 1.823 0 0 1-.076.074c-.44.414-.561.487-.658.779s-.391.536-.464.95a1.133 1.133 0 0 1-.562.853 5.858 5.858 0 0 0-.781.779 2.919 2.919 0 0 0-.78.999c-.073.268-.244.316-.025.755s.464.609.586.9a1.383 1.383 0 0 1 .024 1.17 3.083 3.083 0 0 0-.414.853c-.147.487-.22.56-.098.95a2.604 2.604 0 0 1 .268.974c.049.609-.171.73-.195 1.389s0 1.802-.024 2.24-.073.999.17 1.194.122.512.488.682.586.146.489.463a3.654 3.654 0 0 0-.171.828 2.207 2.207 0 0 0-.05 1.194 1.961 1.961 0 0 0 .489 1.072c.156.195.184.234.184.234l-.006-.01c-.002-.003-.004-.008-.001-.008.008 0 .043.027.165.149.366.365.464.317.464.78s.072.487.439.779.635.365.659.585.122.609.146.828-.024.243.365.585c.39.34.66.535.709.9a1.477 1.477 0 0 0 .22.853c.219.317.439.269.585.585s-.488.146.317.658c.596.378.845.517 1.013.622.807.335 1.61.644 2.359.916a10.807 10.807 0 0 1-1.444-1.684c-.317-.464-.39-.293-.586-.561-.194-.267-.097.17-.316-.657s.243-.391-.464-1.048a9.71 9.71 0 0 1-.88-.804c-.121-.17-.39-.024-.316-.536a3.809 3.809 0 0 0-.05-1.34 1.265 1.265 0 0 0-.438-.658.147.147 0 0 0-.091-.031.298.298 0 0 0-.105.024.312.312 0 0 1-.101.025c-.076 0-.153-.064-.24-.334a2.857 2.857 0 0 1-.195-1.34c.049-.414.024-.658-.146-.804a3.505 3.505 0 0 1-.611-.511c-.195-.244-.268-.707-.66-1.487a2.141 2.141 0 0 1-.243-1.413c0-.316.366-.146.122-.876s-.024-.756-.415-.999-.243-.828.049-1.267a3.813 3.813 0 0 0 .39-2.095 1.747 1.747 0 0 0-.22-.535s-.023 0-.17-.34a1.394 1.394 0 0 1-.146-.61c0-.097.17-.22.268-.316s.464-.244.415-.536-.317-.585-.39-.877-.27-.658.243-.706 1.05-.61.879-.853a.875.875 0 0 1-.195-.633.364.364 0 0 1 .282-.302.06.06 0 0 1 .036.01c.048.032.149.19.268.19a.14.14 0 0 0 .078-.023 21.528 21.528 0 0 1-.442-3.627m-.007-1.74c-.14.147-.298.169-.07.473l.056.072v-.071c.002-.16.007-.318.014-.473M16.611 47.634a7.322 7.322 0 0 1-.439.918c-.244.51-.074.438.073.804s.171.17.318.365a.822.822 0 0 1-.024 1.047c-.342.487.732 1.73.976 1.998a.911.911 0 0 1 .122.9 5.334 5.334 0 0 0-.195.805 1.661 1.661 0 0 0 .268.779c.146.22.318.268.244.73a4.663 4.663 0 0 1-.268.829 1.638 1.638 0 0 0 .22 1.024.272.272 0 0 0 .294.16l.109-.003c.037-.002.075-.003.112-.003a.494.494 0 0 1 .217.04.616.616 0 0 1 .243.658c-.049.17-.317.244-.366.487a.764.764 0 0 0 .268.682.788.788 0 0 0 .513.195c.22 0 .269.682.22 1.145s-.293.389-.537.657a.88.88 0 0 0 0 .999c.17.292.367.195.683.268.318.073.39.34.562.658s.024.438.317.852a2.506 2.506 0 0 0 .41.309l.28.083c.104.024.25.06.419.104a12.438 12.438 0 0 1-.08-5.16l-.001-.006-.003-.007a2.526 2.526 0 0 1-.147-1.047 1.545 1.545 0 0 1 .123-.828.901.901 0 0 0 .048-.706c-.073-.122-.244-.05-.61-.171-.366-.122-.243-.487-.146-.901s-.244-.56-.415-.634a3.591 3.591 0 0 0-.537-.194 1.253 1.253 0 0 1-.561-.731c-.122-.39.244-.902.268-1.486a1.048 1.048 0 0 0-.39-.877s-.342-.755-.464-.926.049-.39.244-.876-.024-.317-.22-.755l-.004-.012a19.913 19.913 0 0 1-2.143-2.173M26.442 54.339c-.09.188-.264.497-.264.497s-.097.317 0 .414.634.268.366.512-.05.39.073.584c.123.196.147.22.317.512a3.088 3.088 0 0 0 .34.45l3.347-.626a1.718 1.718 0 0 1 .022-.36c.074-.243 0-.17-.244-.536s.293-.56.465-.73a.607.607 0 0 0 .044-.05 18.985 18.985 0 0 1-4.466-.667" transform="translate(11.008 .392)"/><path class="cls-31" d="M22.54 58.114a.508.508 0 0 0-.329.191.912.912 0 0 1 .087.13 3.34 3.34 0 0 1 .1-.215l.158-.029.008-.076.027.07.064-.013-.006-.007a.15.15 0 0 0-.085-.05h-.024" transform="translate(11.008 .392)"/><path class="cls-32" d="M39.132 53.883a25.081 25.081 0 0 1-2.742.683.588.588 0 0 0-.207.367 1.843 1.843 0 0 0 .043.72l2.06-.377.257-.049.08-.075c.27-.243.66-.657.586-.9a3.602 3.602 0 0 1-.077-.369M43.673 51.817a14.103 14.103 0 0 1-1.421.822 1.399 1.399 0 0 1-.09.224 10.67 10.67 0 0 0-.268 1.242 3.122 3.122 0 0 1-.078.5l1.025-.193.053-.063a5.86 5.86 0 0 0 .439-.585 1.212 1.212 0 0 0 .074-.682.862.862 0 0 1-.074-.634c.074-.17.342-.121.342-.462l-.002-.17" transform="translate(11.008 .392)"/></g><g style="clip-path:url(#clip-path-15)"><path transform="rotate(-12.201 40.888 4.84)" style="fill:url(#linear-gradient-8)" d="M22.371 51.814h22.36v8.655h-22.36z"/></g><g style="clip-path:url(#clip-path-16)"><path transform="rotate(-89.764 19.58 23.286)" style="fill:url(#linear-gradient-9)" d="M11.08 24.315h5.599v8.604H11.08z"/></g><g class="cls-23"><path class="cls-31" d="M11.488 29.443a15.512 15.512 0 0 0-1.678 1.72c.58-.624 1.107-1.194 1.678-1.72" transform="translate(11.008 .392)"/></g><g style="clip-path:url(#clip-path-18)"><path transform="rotate(-89.764 10.22 39.689)" style="fill:url(#linear-gradient-10)" d="M3.975 45.007h1.089v.025H3.975z"/></g><g style="clip-path:url(#clip-path-19)"><path transform="rotate(-89.765 35.986 64.74)" style="fill:url(#linear-gradient-11)" d="M25.332 61.422h9.908v17.297h-9.908z"/></g><g class="cls-41"><path d="M27.53 72.352a6.935 6.935 0 0 1-.081.094q.193.127.4.244c.026-.03.05-.06.077-.09q-.201-.124-.395-.249" transform="translate(11.008 .392)" style="fill:#363636"/><path class="cls-31" d="m21.654 65.137.004.014c.108.028.21.053.308.075v-.012a9.806 9.806 0 0 1-.312-.077M30.649 73.715a3.345 3.345 0 0 1-.694-.256c-.11-.055-2.51-1.184-2.51-1.184l-.551-.468c-.166-.137-.746-.743-.966-.936s-.138-.495-.193-.633-.413-.44-.524-.606-.221-.22-.221-.468a.632.632 0 0 0-.165-.413l-.36-.413.056-.523-.47-.578s-.33-.44-.22-.661a1.59 1.59 0 0 0 .139-.468l-.331-.523a3.41 3.41 0 0 1-.083-.853 4.179 4.179 0 0 0-.248-1.046 5.734 5.734 0 0 1 0-.689.98.98 0 0 1-.386-.771c.027-.468.082-.633.082-.825a4.013 4.013 0 0 0-.027-.606c-.01-.041.008-.06.035-.06a.304.304 0 0 1 .213.28c.027.248.248 1.321.276 1.487a1.108 1.108 0 0 0 .082.413c.083.165.33.605.442.798a2.681 2.681 0 0 1 .303.826c.028.248.165.385.497.688a1.2 1.2 0 0 1 .496.964 1.207 1.207 0 0 0 .497.991c.276.165.882.441.882.771s-.551.633.083.963 1.02.58 1.076.964.193.523.22.881-.027.248.22.523.36.138.47.578a1.217 1.217 0 0 0 .579.771c.276.22.469.193.8.468a2.08 2.08 0 0 1 .524.58c.015.024.005.034-.023.034m-8.351-15.28a12.35 12.35 0 0 0-.277 6.791l-.012-.003a13.377 13.377 0 0 0 2.091 4.058 10.773 10.773 0 0 0 .904 1.046q.363.348.774.725a15.895 15.895 0 0 0 1.753 1.3c.129.083.261.166.395.248q.59.361 1.239.706c.055.029.111.058.168.086a24.253 24.253 0 0 0 5.723 1.342c.961.09 1.866.13 2.606.13l.786-.022-.578-.184-1.168-.322a7.088 7.088 0 0 1-1.038-.406c-.706-.242-1.345-.476-1.693-.636a40.702 40.702 0 0 1-5.626-4.13c-2.107-1.941-4.633-6.69-5.129-8.26a16.094 16.094 0 0 0-.918-2.47" transform="translate(11.008 .392)"/><path class="cls-32" d="M23.012 60.735c-.028 0-.044.019-.036.06a3.882 3.882 0 0 1 .028.606c0 .192-.055.358-.083.826a.98.98 0 0 0 .387.77 5.53 5.53 0 0 0 0 .689 4.179 4.179 0 0 1 .248 1.046 3.418 3.418 0 0 0 .083.854l.331.522a1.576 1.576 0 0 1-.139.469c-.109.22.221.66.221.66l.469.579-.055.523.359.413a.63.63 0 0 1 .165.412c0 .248.11.304.221.468.11.166.468.469.523.606s-.027.44.194.633.8.799.965.937l.552.467s2.4 1.129 2.51 1.185a3.401 3.401 0 0 0 .694.255c.027 0 .038-.01.023-.035a2.098 2.098 0 0 0-.524-.58c-.332-.274-.524-.247-.8-.467a1.217 1.217 0 0 1-.579-.771c-.11-.44-.221-.302-.469-.578s-.193-.165-.221-.523-.166-.495-.22-.881-.442-.633-1.076-.963-.083-.633-.083-.964-.606-.605-.882-.771a1.207 1.207 0 0 1-.497-.991 1.197 1.197 0 0 0-.496-.963c-.332-.303-.469-.441-.497-.69a2.69 2.69 0 0 0-.303-.825 24.287 24.287 0 0 1-.442-.798 1.105 1.105 0 0 1-.082-.413c-.028-.165-.249-1.24-.276-1.487a.304.304 0 0 0-.213-.28" transform="translate(11.008 .392)"/></g><g style="clip-path:url(#clip-path-21)"><path transform="rotate(-89.763 27.49 57.023)" style="fill:url(#linear-gradient-12)" d="M18.92 62.123h5.74v.462h-5.74z"/></g><g class="cls-41"><path class="cls-45" d="m21.65 65.124.004.013c.118.032.223.057.311.077v-.012l-.315-.078m.439-6.91h-.009a.086.086 0 0 0-.023.007 5.03 5.03 0 0 0-.474 1.677 6.25 6.25 0 0 1 .113-.412 3.258 3.258 0 0 1 .148-.58 2.03 2.03 0 0 1 .368-.601c-.046-.056-.087-.088-.123-.09" transform="translate(11.008 .392)"/><path d="M21.57 59.964a12.421 12.421 0 0 0 .08 5.16l.315.078a.611.611 0 0 1 .04.01q-.172-.541-.305-1.107a12.303 12.303 0 0 1-.095-4.04 1.446 1.446 0 0 0-.034-.1" transform="translate(11.008 .392)" style="fill:#3b5e3c"/><path class="cls-45" d="M22.211 58.305a2.024 2.024 0 0 0-.368.6 3.307 3.307 0 0 0-.148.58c-.032.169-.063.365-.09.58a12.336 12.336 0 0 0 .094 4.04c.09.378.191.746.306 1.107l.004.01.012.004a12.36 12.36 0 0 1 .276-6.791 1.085 1.085 0 0 0-.086-.13" transform="translate(11.008 .392)"/></g><g class="cls-4"><path d="M22.877 58.14c.382-.035 1.667-.035 1.667-.035s-.313.45.104 1.699 3.28 8.164 8.787 11.371c6.252 3.64 10.393 1.694 13.753.52 5.558-1.941 7.812-5.618 9.621-8.008 2.466-3.259 2.432-9.049 1.98-11.995 1.18-.451 1.493.208 1.493.208.347 1.872.938 6.864-1.11 10.643s-6.287 8.84-10.768 10.504-8.965 2.096-10.508 1.707a20.405 20.405 0 0 1-8.594-5.208c-2.744-3.017-4.758-5.652-5.626-7.974a9.505 9.505 0 0 1-.799-3.432" transform="translate(11.008 .392)" style="fill:#f9f5ba"/><path d="M22.545 58.313a3.834 3.834 0 0 0 .784-.173s.382 1.248.799 2.496 3.522 7.957 9.03 11.164c6.252 3.639 10.984 1.763 14.344.589 5.556-1.942 8.089-6.07 9.898-8.46 2.466-3.258 2.362-9.463 1.91-12.41a.667.667 0 0 1 .973.38c.347 1.873.938 6.865-1.111 10.644s-6.287 8.84-10.767 10.504-8.965 2.096-10.508 1.707a20.396 20.396 0 0 1-8.595-5.208c-2.743-3.016-4.758-5.651-5.626-7.974s-1.131-3.26-1.131-3.26" transform="translate(11.008 .392)" style="fill:#96cd84"/><path class="cls-6" d="M27.439 18.673c.102.152-.237.425-.39.628a6.722 6.722 0 0 0-.84 1.496 12.328 12.328 0 0 0-.42 2.723 5.416 5.416 0 0 0 .1 1.164s.61.254.61-.051a10.752 10.752 0 0 1 .255-3.05 20.216 20.216 0 0 1 1.325-1.78c.255-.254.908-.096.759-.607a1.638 1.638 0 0 0-.414-.744Z" transform="translate(11.008 .392)"/><path class="cls-6" d="M26.523 24.442a16.93 16.93 0 0 1 3.135.496 30.98 30.98 0 0 1 7.18 2.695 25.965 25.965 0 0 1 4.84 4.27 21.045 21.045 0 0 1 2.853 4.729 27.45 27.45 0 0 1 1.172 4.373c.153.56.545 4.43.553 5.24a34.402 34.402 0 0 1-.502 3.607c-.103.66-.816 3.152-.663 2.644a31.964 31.964 0 0 0 .357-5.747 42.797 42.797 0 0 0-1.884-9.355 22.83 22.83 0 0 0-4.79-6.609 19.89 19.89 0 0 0-4.69-3.133c-1.727-.732-5.14-2.104-5.547-2.206a16.08 16.08 0 0 1-2.088-.356 4.476 4.476 0 0 0-.561-.407l.635-.24M23.328 58.14c.828-.205 19.98-3.714 21.915-4.222 1.937-.508 10.086-1.932 10.697-1.983s2.887-.415 3.21-.508a1.173 1.173 0 0 1 .734.124l.335 1.147s-.764-.712-1.222-.56-3.363.458-4.992.763-13.652 3.051-16.046 3.356-11.308 1.83-11.715 1.881-3.158.508-3.31.559-.592-.476-.592-.476Z" transform="translate(11.008 .392)"/><path class="cls-16" d="M44.344 54.09c2.624-4.93 2.556-14.203-1.554-20.684s-12.088-8.688-16.268-8.964a5.834 5.834 0 0 1 1.071-4.137c.587-.724 1.001-.724 1.106-.965a.655.655 0 0 0-.449-.828 3.993 3.993 0 0 0-2.866 1.897c-1.105 1.413-.863 2.93-1.416 4.171-7.529 1.241-12.34 3.207-16.647 10.101-3.833 6.137-2.836 13.418-1.968 16.79 1.278 4.964 4.455 10.514 16.612 13.755" transform="translate(11.008 .392)"/><path class="cls-16" d="M22.07 58.366c-1.55 3.056-.69 9.756 5.112 13.686s13.234 3.16 19.133 1.55c6.362-1.734 16.544-10.444 13.781-22.097a.98.98 0 0 0-.622-.172s-7.599 1.103-11.433 1.965-8.6 1.86-12.088 2.517-8.805 1.495-10.327 1.792c-1.589.31-2.901.448-2.901.448s-.55.105-.655.31Z" transform="translate(11.008 .392)"/><path class="cls-15" d="M39.34 74.676a17.752 17.752 0 0 1-8.982-4.107c-3.246-2.55-6.873-7.86-7.322-11.376" transform="translate(11.008 .392)"/></g></g></g></svg>