<svg xml:space="preserve" width="551.967" height="397.877" xmlns="http://www.w3.org/2000/svg"><defs><clipPath clipPathUnits="userSpaceOnUse" id="a"><path d="M75.396 324.903h434.492v301.206H75.396Z"/></clipPath><clipPath clipPathUnits="userSpaceOnUse" id="b"><path d="M168.602 423.616h270.176v169.646H168.602Z"/></clipPath><clipPath clipPathUnits="userSpaceOnUse" id="c"><path d="M169.503 524.147h268.08v99.932h-268.08z"/></clipPath><clipPath clipPathUnits="userSpaceOnUse" id="d"><path d="M200.619 535.52h208.242v78.389H200.619Z"/></clipPath><clipPath clipPathUnits="userSpaceOnUse" id="e"><path d="M222.094 536.029h166.865v80.881H222.094Z"/></clipPath><clipPath clipPathUnits="userSpaceOnUse" id="f"><path d="M75.396 324.903h434.492v301.206H75.396Z"/></clipPath><clipPath clipPathUnits="userSpaceOnUse" id="g"><path d="M115.003 328.845h178.87v144.04h-178.87z"/></clipPath><clipPath clipPathUnits="userSpaceOnUse" id="h"><path d="M109.186 413.672H273.34v110.334H109.186Z"/></clipPath><clipPath clipPathUnits="userSpaceOnUse" id="i"><path d="M75.396 324.903h434.492v301.206H75.396Z"/></clipPath><clipPath clipPathUnits="userSpaceOnUse" id="j"><path d="M403.969 378.201h18.697v20.314h-18.697z"/></clipPath><clipPath clipPathUnits="userSpaceOnUse" id="k"><path d="M75.396 324.903h434.492v301.206H75.396Z"/></clipPath></defs><g clip-path="url(#a)" transform="matrix(1.33333 0 0 -1.33333 -123.268 833.56)"><path d="M0 0c2.679 3.582 1.035 6.154-3.063 6.618-4.099.462-6.398-4.88-5.245-5.195C-7.154 1.109 0 0 0 0" style="fill:#fff;fill-opacity:1;fill-rule:nonzero;stroke:none" transform="translate(314.219 608.942)"/></g><g clip-path="url(#b)" transform="matrix(1.33333 0 0 -1.33333 -123.268 833.56)"><path style="fill:#e4a255;fill-opacity:1;fill-rule:nonzero;stroke:none" d="m0 0-2.847-2.441-61.037-42.486-12.436-7.601-24.069-16.635-42.933 11.367-40.539 9.878-71.211 19.148-7.998 1.894.554-.392.63-36.872c1.732-.341 3.498-.703 5.058-1.041 1.262-.273 2.388-.528 3.264-.745.438-.109.813-.207 1.12-.296.153-.045.29-.087.416-.13a3.11 3.11 0 0 0 .38-.155l-.001.001.001-.001c.181-.09.365-.197.551-.348.28-.22.542-.579.659-.938.122-.359.139-.675.141-.975-.002-.485-.056-.981-.106-1.681v-.001a31.372 31.372 0 0 1-.044-1.497c-.01-.694-.014-1.541-.014-2.451l.001-.776c3.63-1.284 9.341-4.168 9.692-4.755 4.877 7.859 12.194 11.111 18.292 11.721a20.65 20.65 0 0 0 2.057.101c5.516 0 11.176-2.088 12.984-4.978 2.031-3.253 14.633-18.904 14.633-18.904s4.879-3.861 8.334-4.064c3.454-.203 15.243-2.642 17.479-5.894 1.888-2.747 4.066-9.263 4.086-14.528v-.142a14.778 14.778 0 0 0-.224-2.607 7.687 7.687 0 0 1-.694-.201c.833.12 1.526.192 2 .197h.08c2.862-.032 6.656-3.837 8.179-7.071 1.53-3.248 1.53-14.331-1.337-24.458 0 0 .191.115.621.115.93 0 2.981-.537 6.64-3.936 1.002-.931 1.83-2.122 2.508-3.469 4.529-1.177 8.467-2.157 11.529-2.82 4.053-.878 11.676-2.471 18.383-3.876 3.355-.704 6.48-1.36 8.821-1.858 1.171-.25 2.144-.459 2.856-.616a112.622 112.622 0 0 0 1.02-.231c.067.026.154.063.251.109.763.353 2.139 1.186 3.59 2.102 1.462.918 3.03 1.928 4.362 2.705.775.451 2.894 1.753 5.625 3.447l.572.355c3.979 5.33 8.688 9.32 13.244 11.946.196 1.18 5.706 13.183 12.003 25.912 6.299 12.727 22.826 30.955 41.52 37.841 6.257 2.306 12.667 3.223 18.797 3.223 1.081 0 2.154-.029 3.215-.083C.649-75.124.609-69.89.505-67.441a96.557 96.557 0 0 0-.053 3.762c0 5.357.17 13.881.17 19.951.001 2.578-.032 4.727-.115 5.921-.083 1.22-.135 3.367-.169 6.06a777.48 777.48 0 0 0-.047 9.172c0 4.072.021 8.233.052 11.576.015 1.671.033 3.138.052 4.289.018 1.154.037 1.977.058 2.415.029.608.051 1.178.05 1.692C.507-1.674.421-.926.265-.487c-.076.221-.16.362-.24.459L0 0m-261.842-66.752.147-8.616c2.83.608 5.347.893 7.255.893.523 0 1-.021 1.425-.063v.14c0 .917.004 1.774.014 2.486.01.715.024 1.271.051 1.647v-.001c.054.727.101 1.237.099 1.496a6.693 6.693 0 0 1-.393.12c-.958.273-2.933.725-5.189 1.201-1.091.23-2.252.467-3.409.697m159.175-100.747" transform="translate(436.244 592.113)"/></g><g clip-path="url(#c)" transform="matrix(1.33333 0 0 -1.33333 -123.268 833.56)"><path d="M0 0H-.03c-.208 0-.334-.015-.411-.03l-.188-.065A13.512 13.512 0 0 0-.99-.264c-2.378-1.088-15.852-7.03-20.469-8.953-1.171-.488-3.649-1.607-6.746-3.033-9.308-4.283-24.315-11.367-28.294-13.204-1.278-.589-3.771-1.827-6.822-3.363-4.58-2.306-10.443-5.296-15.557-7.876a802.824 802.824 0 0 0-6.862-3.429c-1.938-.952-3.418-1.659-4.279-2.021-.983-.411-2.959-1.343-5.342-2.503a797.068 797.068 0 0 1-11.933-5.959 568.483 568.483 0 0 1-4.945-2.547 170.37 170.37 0 0 1-1.655-.876 22.158 22.158 0 0 1-.847-.473 7.451 7.451 0 0 1-.93-.658l.645-.456L6.498-87.789l41.74-10.17L73.499-82.52l76.178 52.651a1.092 1.092 0 0 1-.14.079v-.001a7.699 7.699 0 0 1-.575.174c-1.122.307-3.406.827-6.246 1.436-8.536 1.832-22.243 4.523-27.11 5.459-3.561.684-17.058 3.526-30.73 6.355A2859.854 2859.854 0 0 1 65.5-12.412c-5.668 1.131-10.168 1.987-12.159 2.28-2.133.315-6.133 1.069-11.036 2.035C34.959-6.65 25.63-4.733 17.871-3.153c-3.878.79-7.365 1.496-10.009 2.017-1.322.259-2.434.473-3.275.627-.419.076-.772.138-1.044.182-.269.045-.47.072-.531.077C1.47-.101.519 0 0 0m8.681-9.551c2.124 2.736 3.863 3.026 4.462 3.504.59.471 4.033.851 6.879.851.8 0 1.552-.03 2.182-.096 2.868-.302 5.588-1.51 6.493-2.869.904-1.359 1.962-3.172 1.962-3.172a17 17 0 0 0 2.485.18c4.085 0 7.455-1.409 8.086-2.293.388-.543 1.734-1.805 2.951-3.149l72.272-14.341 5.984-2.991v-.001L47.338-86.586-56.784-58.76l-28.124 7.479-.897 1.496 41.589 22.439 26.029 11.072L1.859-8.197l6.822-1.354" style="fill:#fde092;fill-opacity:1;fill-rule:nonzero;stroke:none" transform="translate(286.424 622.106)"/><path d="m0 0-76.178-52.651 12.437 7.6L-2.705-2.565.142-.124A.77.77 0 0 1 0 0m-264.703-25.746 1.775-1.254 7.998-1.894 71.212-19.148 40.539-9.878-121.524 32.174" style="fill:#fdde8f;fill-opacity:1;fill-rule:nonzero;stroke:none" transform="translate(436.101 592.237)"/></g><g clip-path="url(#d)" transform="matrix(1.33333 0 0 -1.33333 -123.268 833.56)"><path d="m0 0-20.046-8.077-26.029-11.071-41.589-22.439v-.001l.897-1.495 28.124-7.48L45.479-78.389l75.1 52.659h-.001l-5.984 2.991L42.322-8.398c1.149-1.27 2.183-2.614 2.183-3.495 0-1.811.302-6.492-.302-7.851l1.508-2.417c.873.135 1.665.187 2.367.187 2.456 0 3.825-.64 3.825-.64 3.927 3.474 6.493 4.077 9.061 4.077 2.564 0 4.376-2.264 5.434-3.322 1.06-1.057 2.115-3.473 2.115-3.473a17.724 17.724 0 0 0 6.849 1.385c2.304 0 4.107-.456 5.081-.78 3.175 2.565 6.549 3.648 9.32 3.648.655 0 1.275-.06 1.852-.176 3.02-.604 5.741-1.962 6.797-3.472 1.055-1.51 2.266-3.322 1.811-4.833-.454-1.51-.793-3.407-1.509-4.227-1.058-1.209 1.961-5.436 1.961-5.436S45.034-77.769 44.209-77.879h-.006c-.455.151-107.361 28.539-107.361 28.539l-.603.755c-1.208 1.812-2.567 5.738-2.416 8.456.15 2.718 1.51 4.681 3.472 5.587 1.639.756 6.224 1.618 8.572 1.618.465 0 .842-.033 1.091-.109 1.512-.452 3.473-.754 3.473-.754-1.206 4.984 0 8.153 1.661 9.21 1.661 1.057 4.531 2.115 6.342 2.115 1.812 0 4.983-1.36 4.983-1.36 1.964 6.796 4.833 9.059 6.494 9.362 1.199.219 4.287 1.066 6.82 1.066.976 0 1.87-.126 2.541-.462 2.417-1.208 5.437-4.379 5.437-4.379 1.661 1.662 2.417 3.021 2.566 4.229.153 1.207 1.81 7.701 4.229 9.06C-6.08-3.588-.795-2.984.112-2.984c.904 0 4.982-1.056 4.982-1.056a19.49 19.49 0 0 0 1.728 2.686L0 0" style="fill:#a07039;fill-opacity:1;fill-rule:nonzero;stroke:none" transform="translate(288.283 613.909)"/></g><g clip-path="url(#e)" transform="matrix(1.33333 0 0 -1.33333 -123.268 833.56)"><path d="M0 0c-2.847 0-6.289-.38-6.879-.851-.599-.479-2.338-.768-4.463-3.504L-.67-6.473c-.773.682 1.274 5.151 4.88 5.151.164 0 .331-.009.5-.028 4.098-.464 5.741-3.036 3.063-6.618 0 0-2.508.389-4.793.771L24.158-11.4c-1.216 1.345-2.562 2.606-2.951 3.15-.63.883-4 2.292-8.085 2.292-.806 0-1.64-.055-2.486-.179 0 0-1.057 1.812-1.961 3.171C7.77-1.606 5.05-.398 2.181-.096A21.57 21.57 0 0 1 0 0" style="fill:#feed57;fill-opacity:1;fill-rule:nonzero;stroke:none" transform="translate(306.446 616.91)"/><path d="M0 0c-3.606 0-5.653-4.469-4.88-5.151l3.65-.724c2.285-.383 4.792-.771 4.792-.771C6.241-3.064 4.598-.492.5-.028.33-.009.163 0 0 0" style="fill:#feed57;fill-opacity:1;fill-rule:nonzero;stroke:none" transform="translate(310.656 615.589)"/><path d="M0 0a19.605 19.605 0 0 1-1.727-2.687S-5.806-1.63-6.71-1.63c-.906 0-6.191-.604-8.608-1.963-2.418-1.359-4.076-7.852-4.228-9.06-.149-1.207-.906-2.566-2.567-4.228 0 0-3.02 3.171-5.436 4.379-.672.336-1.565.461-2.541.461-2.533 0-5.621-.847-6.821-1.065-1.661-.303-4.53-2.567-6.493-9.362 0 0-3.171 1.359-4.983 1.359-1.812 0-4.681-1.057-6.342-2.114-1.661-1.057-2.868-4.227-1.661-9.211 0 0-1.962.302-3.473.755-.249.075-.627.109-1.092.109-2.348 0-6.933-.862-8.571-1.619-1.963-.905-3.322-2.869-3.473-5.587-.151-2.718 1.208-6.643 2.417-8.456l.603-.754S36.927-76.375 37.381-76.525l.001-.001h.005c.825.11 56.467 38.656 56.467 38.656s-3.019 4.227-1.962 5.436c.716.821 1.056 2.718 1.51 4.228.454 1.51-.757 3.323-1.812 4.832-1.056 1.511-3.776 2.869-6.796 3.473a9.49 9.49 0 0 1-1.852.176c-2.772 0-6.145-1.083-9.32-3.649-.975.325-2.778.78-5.082.78-1.982 0-4.335-.337-6.848-1.384 0 0-1.056 2.416-2.116 3.473-1.057 1.057-2.869 3.322-5.434 3.322-2.567 0-5.134-.604-9.061-4.077 0 0-1.369.64-3.825.64-.702 0-1.493-.053-2.366-.187l-1.509 2.416c.605 1.359.302 6.04.302 7.852 0 .881-1.033 2.225-2.183 3.495L14.322-2.842c-1.575.264-3.045.524-3.515.652a.338.338 0 0 0-.135.072L0 0" style="fill:#fce956;fill-opacity:1;fill-rule:nonzero;stroke:none" transform="translate(295.104 612.555)"/><path d="M0 0a.326.326 0 0 1 .135-.072C.606-.2 2.075-.461 3.65-.724L0 0" style="fill:#fce956;fill-opacity:1;fill-rule:nonzero;stroke:none" transform="translate(305.776 610.437)"/></g><g clip-path="url(#f)" transform="matrix(1.33333 0 0 -1.33333 -123.268 833.56)"><path d="M0 0c6.393 5.145 115.386 54.78 116.987 56.25 1.6 1.47 21.654-5.035 21.654-5.035l-5.419-2.167-17.887 3.252L10.728.808l7.046-3.251 10.841-5.421L4.224-2.985Z" style="fill:#fff;fill-opacity:1;fill-rule:nonzero;stroke:none" transform="translate(169.504 567.83)"/><path d="m0 0 1.082-63.414-4.334 3.251L-6.505-.542l2.281 3.527z" style="fill:#fff;fill-opacity:1;fill-rule:nonzero;stroke:none" transform="translate(173.728 564.845)"/><path d="M0 0c1.304 3.167 6.771 5.293 8.804 5.7 2.031.406 8.13.406 8.943-.814.812-1.219 2.846-2.032 1.625-2.845-1.217-.813-2.845.407-6.098 0-3.252-.406-11.789-3.252-11.789-7.317C.674-3.243-.674-1.635 0 0" style="fill:#fff;fill-opacity:1;fill-rule:nonzero;stroke:none" transform="translate(222.105 573.78)"/><path d="M0 0c-4.473-.407-14.634-10.163-13.008-14.635-3.254 6.504-.813 14.228 2.439 15.854 3.252 1.626 6.504 2.033 7.723 2.033C-1.627 3.252 0 0 0 0" style="fill:#fff;fill-opacity:1;fill-rule:nonzero;stroke:none" transform="translate(265.868 586.39)"/><path d="M0 0c1.545 4.236 9.267 8.3 12.926 7.894-3.252 2.439-6.911 2.439-8.942 1.22C1.95 7.894-.083 4.642-.083 4.642Z" style="fill:#fff;fill-opacity:1;fill-rule:nonzero;stroke:none" transform="translate(238.714 580.121)"/><path d="M0 0c.813-1.219 0 1.626 6.504 4.065 6.506 2.44 11.401 2.716 13.221 1.967-5.497 3.317-8.749 4.944-12.002 3.724-3.251-1.22-6.097-4.065-6.91-6.097C0 1.626-1.566.445-1.566.445" style="fill:#fff;fill-opacity:1;fill-rule:nonzero;stroke:none" transform="translate(253.266 589.642)"/><path d="M0 0c-.812-1.627 3.66-3.253 6.911-1.22 3.252 2.032 8.537 6.097 4.877 6.097-3.658 0-6.097.407-8.128-1.219C1.626 2.032 0 0 0 0" style="fill:#fff;fill-opacity:1;fill-rule:nonzero;stroke:none" transform="translate(278.47 604.277)"/><path d="M0 0c-2.846-1.219-2.846-2.439 0-4.878 2.844-2.439 5.691-4.471 6.096-1.627C6.504-3.659 0 0 0 0" style="fill:#fff;fill-opacity:1;fill-rule:nonzero;stroke:none" transform="translate(325.219 607.528)"/><path d="M0 0c2.844 2.439 5.283 4.064 6.911.812 1.626-3.251-.407-7.723-2.441-7.317C2.439-6.098 0 0 0 0" style="fill:#fff;fill-opacity:1;fill-rule:nonzero;stroke:none" transform="translate(291.479 592.488)"/><path d="M0 0c-.813 1.626-1.627 6.91.812 8.943 2.441 2.033 2.847-1.219 2.847-4.472 0-3.252 1.625-6.097 0-6.504C2.033-2.439 0 0 0 0" style="fill:#fff;fill-opacity:1;fill-rule:nonzero;stroke:none" transform="translate(271.559 584.764)"/><path d="M0 0c-1.22 1.626 1.626 5.285 4.065 4.878 2.439-.407 6.098-3.252 2.846-4.471C3.658-.813 0 0 0 0" style="fill:#fff;fill-opacity:1;fill-rule:nonzero;stroke:none" transform="translate(278.877 575.82)"/><path d="M0 0c1.29-3.226 2.439-6.505 5.691-6.912 3.253-.406 4.457 4.817 3.039 6.067C7.315.406-.813 2.032 0 0" style="fill:#fff;fill-opacity:1;fill-rule:nonzero;stroke:none" transform="translate(345.95 592.894)"/><path d="M0 0c-1.22-2.033-.813-2.439 2.031-3.659 2.846-1.219 7.725-2.439 6.505.407C7.316-.407 2.844.812 2.844.812Z" style="fill:#fff;fill-opacity:1;fill-rule:nonzero;stroke:none" transform="translate(363.024 588.016)"/><path d="M0 0c-1.626-2.033-1.626-2.033.813-3.658 2.439-1.626 6.911-.813 5.691 1.219C5.285-.407 0 0 0 0" style="fill:#fff;fill-opacity:1;fill-rule:nonzero;stroke:none" transform="translate(378.064 590.861)"/><path d="M0 0c1.22-3.252 3.659-5.691 6.505-3.658 2.844 2.032 1.219 4.877-.814 4.877C3.659 1.219 0 0 0 0" style="fill:#fff;fill-opacity:1;fill-rule:nonzero;stroke:none" transform="translate(315.462 587.61)"/><path d="M0 0c2.439.813 5.691 1.626 6.098.407.406-1.219-3.659-2.033-4.471-3.66-.814-1.625-5.691-3.252-4.471-.812C-1.626-1.626 0 0 0 0" style="fill:#fff;fill-opacity:1;fill-rule:nonzero;stroke:none" transform="translate(301.234 559.967)"/><path d="M0 0c.813 2.033 3.658 4.472 4.879 3.66C6.096 2.845 6.504 0 4.065-1.626 1.627-3.252 0 0 0 0" style="fill:#fff;fill-opacity:1;fill-rule:nonzero;stroke:none" transform="translate(324.405 566.064)"/><path d="M0 0c.408 1.626 3.252 3.66 4.065 2.032.814-1.625-.405-4.877-1.626-4.877C1.221-2.845 0 0 0 0" style="fill:#fff;fill-opacity:1;fill-rule:nonzero;stroke:none" transform="translate(301.234 577.446)"/><path d="M0 0c-.131 6.878-.775 20.961-1.387 33.771-.306 6.408-.603 12.501-.825 17.231-.11 2.365-.202 4.389-.266 5.943-.064 1.56-.101 2.626-.101 3.16.001.125 0 .211.01.35.076.99.365 1.966.953 2.788.584.825 1.376 1.449 2.345 2.047.296.181.777.444 1.487.822 2.459 1.309 7.422 3.846 12.246 6.258a600.947 600.947 0 0 0 6.793 3.348c2.01.972 3.637 1.735 4.616 2.147.473.197 1.3.581 2.356 1.089 3.709 1.786 10.317 5.14 16.563 8.308 3.124 1.585 6.16 3.125 8.708 4.403 2.549 1.28 4.6 2.293 5.795 2.845 2.628 1.213 10.188 4.773 17.692 8.279a2063.41 2063.41 0 0 0 10.604 4.926c3.115 1.433 5.582 2.55 6.849 3.078 2.415 1.006 7.399 3.175 11.865 5.138 2.234.981 4.341 1.912 5.939 2.622a443.652 443.652 0 0 1 2.569 1.151c.148.067.257.119.267.124.292.147.623.263.959.329.337.067.67.089 1.014.089.832-.004 1.774-.117 3.327-.264.27-.026.593-.078 1.059-.157 1.716-.295 5.154-.976 9.506-1.856 6.522-1.319 15.068-3.08 22.708-4.618 7.631-1.536 14.391-2.855 17.213-3.27 2.14-.317 6.617-1.171 12.31-2.306 8.53-1.701 19.735-4.025 29.47-6.05 9.73-2.025 18.007-3.755 20.616-4.256 3.53-.679 11.662-2.271 19.14-3.797 3.739-.764 7.314-1.51 10.074-2.119 1.381-.304 2.557-.574 3.458-.797.451-.111.832-.211 1.146-.301.157-.045.297-.087.427-.131.132-.044.246-.084.391-.15a3.925 3.925 0 0 0 1.379-1.052c.546-.659.83-1.423.989-2.18.157-.763.198-1.545.199-2.356 0-.599-.024-1.212-.054-1.837a95.557 95.557 0 0 1-.055-2.32c-.056-3.422-.103-9.724-.103-15.815 0-3.262.013-6.466.046-9.134.033-2.664.088-4.814.162-5.888.093-1.361.122-3.52.123-6.131-.001-6.117-.171-14.647-.17-19.952a91.969 91.969 0 0 1 .05-3.631c.124-2.955.157-9.452.157-14.722 0-2.06-.005-3.928-.012-5.312a470.01 470.01 0 0 0-.012-1.68l-.007-.505c-.003-.137-.003-.197-.009-.308a1.533 1.533 0 0 0-3.058.206l.808-.054-.809.039.001.015.808-.054-.809.039.005.21c.014.886.03 3.867.03 7.404.001 5.244-.035 11.769-.155 14.592a98.584 98.584 0 0 0-.053 3.761c.001 5.358.171 13.882.17 19.952.001 2.578-.032 4.727-.114 5.921-.084 1.219-.136 3.366-.169 6.059a756.632 756.632 0 0 0-.047 9.173c0 4.072.021 8.233.051 11.576.016 1.671.033 3.138.052 4.289a94.9 94.9 0 0 0 .059 2.415c.028.608.05 1.178.05 1.692.004.929-.082 1.677-.239 2.115-.076.222-.16.363-.24.46a.836.836 0 0 1-.308.231l.002.003-.001-.004.001.004-.001-.004a8.073 8.073 0 0 1-.575.173c-1.123.308-3.407.828-6.246 1.437-8.536 1.832-22.243 4.523-27.11 5.458-3.561.685-17.058 3.527-30.73 6.356a2922.31 2922.31 0 0 1-19.377 3.955c-5.667 1.13-10.167 1.986-12.158 2.28-2.133.315-6.133 1.069-11.036 2.034-7.346 1.448-16.675 3.364-24.434 4.945-3.879.79-7.365 1.496-10.01 2.016-1.322.26-2.434.474-3.274.627-.42.077-.772.139-1.044.183-.269.045-.47.072-.531.077-1.568.151-2.524.253-3.037.25-.211 0-.339-.015-.416-.03l-.189-.065a11.875 11.875 0 0 0-.36-.169c-2.379-1.089-15.852-7.03-20.469-8.953-1.172-.488-3.649-1.608-6.747-3.033-9.307-4.283-24.315-11.368-28.293-13.204-1.279-.59-3.772-1.827-6.822-3.363-4.58-2.306-10.444-5.296-15.558-7.876a804.003 804.003 0 0 0-6.861-3.429c-1.939-.952-3.418-1.659-4.279-2.021-.983-.411-2.96-1.343-5.343-2.504A792.292 792.292 0 0 1 4.836 64.03c-.66-.346-1.222-.643-1.654-.877-.428-.23-.743-.408-.847-.472-.791-.485-1.219-.877-1.448-1.205-.225-.329-.343-.641-.402-1.275l-.034.002.035-.001-.001-.002-.034.003.035-.001-.001-.097c-.001-.409.035-1.495.099-3.034.222-5.406.784-16.627 1.32-28.003.535-11.382 1.043-22.912 1.16-29.01A1.533 1.533 0 0 0 0 0" style="fill:#231f20;fill-opacity:1;fill-rule:nonzero;stroke:none" transform="translate(169.348 504.924)"/><path d="M0 0c-.948.136-5.968 1.141-6.646 1.141-.676 0-11.11-4.472-13.954-5.556-2.847-1.084-20.868-8.808-30.217-13.821-9.35-5.014-39.433-20.19-41.328-21.003-1.897-.813-2.575-1.491-2.575-1.491s2.847-.812 6.368-1.896c3.523-1.084 26.155-7.182 33.335-9.35 7.181-2.169 47.967-13.009 57.858-15.312 9.892-2.304 35.504-9.216 36.181-9.35 4.741 3.252 26.961 18.022 33.601 22.493 6.643 4.473 43.328 29.96 43.328 29.96-2.015.371-20.248 4.783-33.959 7.654-9.291 1.945-41.481 9-43.377 9.407" style="fill:none;stroke:#231f20;stroke-width:2.554;stroke-linecap:round;stroke-linejoin:round;stroke-miterlimit:10;stroke-dasharray:none;stroke-opacity:1" transform="translate(293.921 612.756)"/><path d="M0 0c14.091-3.93 37.264-9.893 48.645-13.145 11.383-3.252 56.775-15.313 75.339-19.783 18.564-4.473 36.451-9.35 39.838-10.028" style="fill:none;stroke:#231f20;stroke-width:2.554;stroke-linecap:round;stroke-linejoin:round;stroke-miterlimit:10;stroke-dasharray:none;stroke-opacity:1" transform="translate(171.153 566.607)"/><path d="M0 0c7.993 4.743 37.803 23.579 46.477 29.403 8.673 5.827 30.894 22.222 36.991 26.153 6.099 3.929 16.124 11.654 16.938 12.33" style="fill:none;stroke:#231f20;stroke-width:2.554;stroke-linecap:round;stroke-linejoin:round;stroke-miterlimit:10;stroke-dasharray:none;stroke-opacity:1" transform="translate(335.382 523.788)"/><path d="M0 0c.135-6.91.542-34.147.408-43.226C.271-52.303-.813-94.173-.813-98.51" style="fill:none;stroke:#231f20;stroke-width:2.554;stroke-linecap:round;stroke-linejoin:round;stroke-miterlimit:10;stroke-dasharray:none;stroke-opacity:1" transform="translate(334.974 523.652)"/><path d="M0 0c-.135-3.387.136-6.91.271-9.891.134-2.982.134-6.775.134-7.86-.134-1.084.138-1.625-2.302-.813-2.439.813-10.838 2.846-11.381 2.982" style="fill:none;stroke:#231f20;stroke-width:2.554;stroke-linecap:round;stroke-linejoin:round;stroke-miterlimit:10;stroke-dasharray:none;stroke-opacity:1" transform="translate(183.211 562.54)"/><path d="M0 0c2.59-.478 5.647-1.089 8.169-1.634 1.262-.273 2.389-.529 3.264-.746.438-.108.813-.207 1.12-.296.154-.044.29-.087.416-.13.128-.045.237-.084.38-.154h-.001c.181-.091.366-.198.552-.349.28-.22.542-.579.659-.938.122-.359.14-.675.141-.975-.002-.484-.056-.981-.105-1.681v-.001a29.69 29.69 0 0 1-.045-1.497c-.01-.693-.013-1.541-.013-2.451 0-1.819.015-3.89.03-5.503.016-1.614.031-2.768.031-2.771a1.278 1.278 0 0 0-2.554-.034c0 .003-.061 4.642-.061 8.308 0 .917.004 1.774.013 2.486.01.715.025 1.272.052 1.647l-.001-.001c.054.73.102 1.24.1 1.498 0 .105-.008.163-.009.167l.275.051-.253-.114-.022.063.275.051-.253-.114.432.194-.316-.356-.116.162.432.194-.316-.356.129.145-.116-.155-.013.01.129.145-.116-.155-.017.01-.065.035-.001.001.162.323-.145-.331-.017.008.162.323-.145-.331a5.7 5.7 0 0 1-.47.149c-.958.272-2.933.724-5.189 1.2-2.26.477-4.822.985-7.027 1.391A1.277 1.277 0 0 0 0 0" style="fill:#231f20;fill-opacity:1;fill-rule:nonzero;stroke:none" transform="translate(171.246 528.567)"/><path d="M0 0c1.94-.334 4.064-.638 5.842-.892.889-.127 1.692-.242 2.349-.343.663-.104 1.155-.185 1.524-.276a1.277 1.277 0 0 0-.622-2.477 18.21 18.21 0 0 1-1.292.229c-1.909.295-5.252.728-8.235 1.242A1.277 1.277 0 0 0 0 0" style="fill:#231f20;fill-opacity:1;fill-rule:nonzero;stroke:none" transform="translate(171.505 509.057)"/><path d="M0 0c5.012 3.523 9.89 7.452 11.382 8.4a10.67 10.67 0 0 1 2.438 2.168c-.134 3.117 0 16.396 0 17.073" style="fill:none;stroke:#231f20;stroke-width:2.554;stroke-linecap:round;stroke-linejoin:round;stroke-miterlimit:10;stroke-dasharray:none;stroke-opacity:1" transform="translate(335.382 504.14)"/><path d="M0 0c-5.15 1.492-14.093 3.659-14.905 4.065-.814.408-.408-.812-.679-2.167-.272-1.356-.678-10.569-.813-12.195-.134-1.626 0-1.491 1.625-2.169C-13.146-13.142 0-16.259.406-16.531" style="fill:none;stroke:#231f20;stroke-width:2.554;stroke-linecap:round;stroke-linejoin:round;stroke-miterlimit:10;stroke-dasharray:none;stroke-opacity:1" transform="translate(334.84 503.19)"/><path d="M0 0c3.93 2.168 7.995 5.285 10.027 6.64 1.917 1.278 3.795 2.303 3.795 2.303s.544-1.084.407-3.659c-.138-2.574.271-14.768.134-15.717-.135-.95-3.387-2.981-5.284-4.202C7.703-15.52 0-20.46 0-20.46" style="fill:none;stroke:#231f20;stroke-width:2.554;stroke-linecap:round;stroke-linejoin:round;stroke-miterlimit:10;stroke-dasharray:none;stroke-opacity:1" transform="translate(336.058 483.678)"/><path d="M0 0c5.829 3.929 12.604 7.589 13.552 8.265.949.678 2.303 1.356 2.303 1.356V3.929l.405-12.602" style="fill:none;stroke:#231f20;stroke-width:2.554;stroke-linecap:round;stroke-linejoin:round;stroke-miterlimit:10;stroke-dasharray:none;stroke-opacity:1" transform="translate(335.244 443.977)"/><path d="M0 0c14.912-3.931 29.019-7.862 37.062-9.604 4.053-.878 11.677-2.471 18.384-3.877 3.354-.703 6.479-1.36 8.82-1.858 1.171-.249 2.145-.459 2.856-.615a75.696 75.696 0 0 0 1.151-.264c.085-.022.138-.034.25-.071l-.38-1.135v1.2a1.22 1.22 0 0 0 .38-.064l-.38-1.136v1.2-.814l-.126.805.126.009v-.814l-.126.805.059-.376-.079.372.02.004.059-.376-.079.372.002-.014-.003.014h.001l.002-.014-.003.014c.024.004.187.061.397.161.764.352 2.139 1.186 3.591 2.101 1.461.919 3.03 1.929 4.362 2.706.774.451 2.893 1.753 5.624 3.446a3387.403 3387.403 0 0 1 20.42 12.79 254.149 254.149 0 0 1 3.146 2.008 1.53 1.53 0 1 0 1.7-2.549c-.281-.187-.874-.567-1.735-1.115a2752.693 2752.693 0 0 0-14.972-9.412 2380.459 2380.459 0 0 0-7.941-4.943c-2.256-1.396-3.952-2.436-4.698-2.872-1.514-.882-3.487-2.17-5.226-3.246a42.367 42.367 0 0 0-2.391-1.399c-.355-.187-.68-.345-1-.473a4.387 4.387 0 0 0-.497-.166 2.524 2.524 0 0 0-.633-.089 1.882 1.882 0 0 0-.592.094l.27.809-.241-.818-.029.009.27.809-.241-.818-.002.001c-.039.011-.208.052-.438.105-1.773.405-7.598 1.628-13.888 2.946-6.297 1.319-13.077 2.738-16.839 3.553-8.219 1.782-22.295 5.71-37.194 9.636A1.532 1.532 0 0 0 0 0" style="fill:#231f20;fill-opacity:1;fill-rule:nonzero;stroke:none" transform="translate(265.58 440.85)"/><path d="M0 0c-6.642 2.033-5.829 1.491-7.588 2.033-1.761.542-6.37 2.303-6.775 2.303-.408 0-.544-3.659-.813-7.724-.272-4.064-.544-8.535-.407-9.214.135-.678 1.083-.95 3.116-1.49 2.034-.542 12.333-2.305 12.873-2.847" style="fill:none;stroke:#231f20;stroke-width:2.554;stroke-linecap:round;stroke-linejoin:round;stroke-miterlimit:10;stroke-dasharray:none;stroke-opacity:1" transform="translate(334.026 462.54)"/><path d="M0 0c.134-4.608.271-13.821.271-15.583 0-1.762.811-1.083 2.71 0 1.896 1.083 6.096 3.524 7.451 4.2" style="fill:none;stroke:#231f20;stroke-width:2.554;stroke-linecap:round;stroke-linejoin:round;stroke-miterlimit:10;stroke-dasharray:none;stroke-opacity:1" transform="translate(426.845 584.493)"/><path d="M0 0c-3.387-1.626-8.128-4.743-9.079-5.284-.949-.543-1.218-.678-1.218-2.033v-14.635c0-1.083 1.083-.814 2.439-.135 1.354.678 7.587 4.337 7.587 4.337" style="fill:none;stroke:#231f20;stroke-width:2.554;stroke-linecap:round;stroke-linejoin:round;stroke-miterlimit:10;stroke-dasharray:none;stroke-opacity:1" transform="translate(437.82 553.87)"/><path d="M0 0c-2.844-1.627-7.893-3.253-8.129-4.201-.406-1.625-.136-5.826 0-7.588" style="fill:none;stroke:#231f20;stroke-width:2.554;stroke-linecap:round;stroke-linejoin:round;stroke-miterlimit:10;stroke-dasharray:none;stroke-opacity:1" transform="translate(437.276 513.896)"/><path d="M0 0c-2.733 2.544-3.297 6.124-2.637 9.329.658 3.204 5.465 5.089 8.198 5.373 2.733.283 7.822-.848 8.387-.943-1.791 6.313-1.037 9.047 3.864 10.742 4.898 1.698 6.125.566 9.045-.659 1.228 6.408 4.525 10.273 10.463 10.65 5.936.376 9.894-2.735 10.554-4.901 1.506 1.131 2.449 1.696 2.449 1.696.095 7.539 2.075 10.839 7.069 12.439 4.995 1.602 9.989.66 11.308-.094.944 2.828 3.206 6.314 7.824 6.974 4.617.66 12.627 1.884 14.887-5.938 4.052.943 13.852-1.601 16.115-7.821 2.262-6.22-.85-8.953-1.037-9.141 1.508-.377 2.169-1.603 2.262-2.074 2.262 1.508 5.28.472 6.129-.753 4.241 4.901 6.314 4.43 9.519 4.336 3.204-.096 5.391-2.45 7.086-7.821 2.261 3.298 9.218 3.014 12.421 1.6 3.015 3.487 8.952 4.241 13.098 2.545 4.148-1.697 6.128-4.994 6.034-8.198-.096-3.205-2.168-3.299-2.922-3.77 1.885-1.885 3.203-3.676 2.826-5.183" style="fill:none;stroke:#231f20;stroke-width:2.554;stroke-linecap:round;stroke-linejoin:round;stroke-miterlimit:10;stroke-dasharray:none;stroke-opacity:1" transform="translate(225.124 565.92)"/><path d="M0 0c.289-3.11 1.135-7.727 7.262-8.67 6.127-.943 11.875.754 13.478 2.733 1.6 1.978 2.53 4.806 1.972 6.973" style="fill:none;stroke:#231f20;stroke-width:2.554;stroke-linecap:round;stroke-linejoin:round;stroke-miterlimit:10;stroke-dasharray:none;stroke-opacity:1" transform="translate(293.824 609.552)"/><path d="M0 0c-3.581-1.508-8.104-2.922-11.968-1.226-3.863 1.698-6.878 3.958-7.728 8.294" style="fill:none;stroke:#231f20;stroke-width:2.554;stroke-linecap:round;stroke-linejoin:round;stroke-miterlimit:10;stroke-dasharray:none;stroke-opacity:1" transform="translate(331.15 593.72)"/><path d="M0 0c-.187-2.921-3.396-8.387-7.634-10.178-3.402-1.439-6.222-2.544-10.463-.66C-22.321-8.961-24.596.66-14.89 5.277" style="fill:none;stroke:#231f20;stroke-width:2.554;stroke-linecap:round;stroke-linejoin:round;stroke-miterlimit:10;stroke-dasharray:none;stroke-opacity:1" transform="translate(312.397 595.982)"/><path d="M0 0c.752-2.733 3.015-3.865 6.03-3.769 3.016.094 6.786.754 8.859 2.073" style="fill:none;stroke:#231f20;stroke-width:2.554;stroke-linecap:round;stroke-linejoin:round;stroke-miterlimit:10;stroke-dasharray:none;stroke-opacity:1" transform="translate(276.113 597.49)"/><path d="M0 0c-1.504-2.449-4.522-6.878-2.542-10.742 1.982-3.864 7.068-3.582 7.823-3.582" style="fill:none;stroke:#231f20;stroke-width:2.554;stroke-linecap:round;stroke-linejoin:round;stroke-miterlimit:10;stroke-dasharray:none;stroke-opacity:1" transform="translate(272.998 595.511)"/><path d="M0 0c2.639 1.508 6.22 6.408 6.785 8.388" style="fill:none;stroke:#231f20;stroke-width:2.554;stroke-linecap:round;stroke-linejoin:round;stroke-miterlimit:10;stroke-dasharray:none;stroke-opacity:1" transform="translate(283.086 582.506)"/><path d="M0 0c-1.774-2.977.185-8.105 4.429-10.271 4.241-2.169 13.004-4.241 15.078 1.224 2.073 5.465-3.205 10.272-6.974 11.309C8.762 3.298 2.638 4.43 0 0Z" style="fill:none;stroke:#231f20;stroke-width:2.554;stroke-linecap:round;stroke-linejoin:round;stroke-miterlimit:10;stroke-dasharray:none;stroke-opacity:1" transform="translate(276.113 579.02)"/><path d="M0 0c-3.11-2.544-5.464-6.879-2.166-11.403 3.298-4.523 8.104-4.241 11.12-2.545 3.015 1.697 5.654 4.807 6.219 6.88" style="fill:none;stroke:#231f20;stroke-width:2.554;stroke-linecap:round;stroke-linejoin:round;stroke-miterlimit:10;stroke-dasharray:none;stroke-opacity:1" transform="translate(302.786 584.298)"/><path d="M0 0c-1.695-1.79-2.356-6.691-1.603-10.178.755-3.487 3.96-6.313 8.012-6.69 4.053-.376 8.575 1.225 10.46 5.466 1.885 4.24 1.604 7.445 1.225 9.047" style="fill:none;stroke:#231f20;stroke-width:2.554;stroke-linecap:round;stroke-linejoin:round;stroke-miterlimit:10;stroke-dasharray:none;stroke-opacity:1" transform="translate(315.32 593.533)"/><path d="M0 0c-.551-3.204.765-9.33 3.876-12.439 3.111-3.111 7.068-2.827 9.141-2.356 2.076.47 4.996 3.957 3.678 10.649" style="fill:none;stroke:#231f20;stroke-width:2.554;stroke-linecap:round;stroke-linejoin:round;stroke-miterlimit:10;stroke-dasharray:none;stroke-opacity:1" transform="translate(340.005 590.8)"/><path d="M0 0c3.882-1.696 6.236-4.052 5.861-7.067-.379-3.015-1.886-4.429-3.017-4.806" style="fill:none;stroke:#231f20;stroke-width:2.554;stroke-linecap:round;stroke-linejoin:round;stroke-miterlimit:10;stroke-dasharray:none;stroke-opacity:1" transform="translate(369.03 588.914)"/><path d="M0 0c2.264-2.356 6.882-1.414 9.332-.378" style="fill:none;stroke:#231f20;stroke-width:2.554;stroke-linecap:round;stroke-linejoin:round;stroke-miterlimit:10;stroke-dasharray:none;stroke-opacity:1" transform="translate(375.36 579.963)"/><path d="M0 0c3.674 9.895-3.485 12.817-7.068 13.004-3.582.189-7.061-3.434-7.727-7.728-.378-2.449-.005-4.334.94-6.03" style="fill:none;stroke:#231f20;stroke-width:2.554;stroke-linecap:round;stroke-linejoin:round;stroke-miterlimit:10;stroke-dasharray:none;stroke-opacity:1" transform="translate(374.23 565.262)"/><path d="M0 0c-2.005 5.428 1.697 8.764 6.127 11.216 4.428 2.448 9.8 2.636 12.438-1.886 2.639-4.523-.377-10.178-5.561-11.78C7.822-4.052 2.26-6.126 0 0Z" style="fill:none;stroke:#231f20;stroke-width:2.554;stroke-linecap:round;stroke-linejoin:round;stroke-miterlimit:10;stroke-dasharray:none;stroke-opacity:1" transform="translate(324.188 560.739)"/><path d="M0 0c.095 2.638 1.79 4.43 2.546 4.901" style="fill:none;stroke:#231f20;stroke-width:2.554;stroke-linecap:round;stroke-linejoin:round;stroke-miterlimit:10;stroke-dasharray:none;stroke-opacity:1" transform="translate(342.47 571.67)"/><path d="M0 0c3.204-2.167 11.777-2.167 14.041 3.393" style="fill:none;stroke:#231f20;stroke-width:2.554;stroke-linecap:round;stroke-linejoin:round;stroke-miterlimit:10;stroke-dasharray:none;stroke-opacity:1" transform="translate(344.638 565.073)"/><path d="M0 0c2.168-.282 4.239-1.791 4.334-4.523" style="fill:none;stroke:#231f20;stroke-width:2.554;stroke-linecap:round;stroke-linejoin:round;stroke-miterlimit:10;stroke-dasharray:none;stroke-opacity:1" transform="translate(357.36 581.377)"/><path d="M0 0c-1.319 3.581-.66 9.236 2.921 11.12 3.581 1.884 10.366 3.109 14.323.377" style="fill:none;stroke:#231f20;stroke-width:2.554;stroke-linecap:round;stroke-linejoin:round;stroke-miterlimit:10;stroke-dasharray:none;stroke-opacity:1" transform="translate(354.156 551.692)"/><path d="M0 0c4.148-.094 11.405-6.878 8.483-12.062" style="fill:none;stroke:#231f20;stroke-width:2.554;stroke-linecap:round;stroke-linejoin:round;stroke-miterlimit:10;stroke-dasharray:none;stroke-opacity:1" transform="translate(341.714 560.55)"/><path d="M0 0c-2.64-5.277-.756-14.513 7.067-14.608" style="fill:none;stroke:#231f20;stroke-width:2.554;stroke-linecap:round;stroke-linejoin:round;stroke-miterlimit:10;stroke-dasharray:none;stroke-opacity:1" transform="translate(334.459 557.064)"/><path d="M0 0c-.94-3.015 3.583-8.576 6.974-8.67" style="fill:none;stroke:#231f20;stroke-width:2.554;stroke-linecap:round;stroke-linejoin:round;stroke-miterlimit:10;stroke-dasharray:none;stroke-opacity:1" transform="translate(316.737 574.402)"/><path d="M0 0c4.431-.566 6.033-5.748 4.431-8.387" style="fill:none;stroke:#231f20;stroke-width:2.554;stroke-linecap:round;stroke-linejoin:round;stroke-miterlimit:10;stroke-dasharray:none;stroke-opacity:1" transform="translate(333.416 582.413)"/><path d="M0 0c1.325 6.624 8.955 6.784 14.514 4.052 5.56-2.733 8.574-7.822 6.314-12.063-2.262-4.239-10.743-3.674-14.984-1.413S-.755-3.77 0 0Z" style="fill:none;stroke:#231f20;stroke-width:2.554;stroke-linecap:round;stroke-linejoin:round;stroke-miterlimit:10;stroke-dasharray:none;stroke-opacity:1" transform="translate(298.166 556.781)"/><path d="M0 0c1.98.66 4.337.848 5.278.66" style="fill:none;stroke:#231f20;stroke-width:2.554;stroke-linecap:round;stroke-linejoin:round;stroke-miterlimit:10;stroke-dasharray:none;stroke-opacity:1" transform="translate(296.282 570.916)"/><path d="M0 0c-2.073-2.261-.659-12.723 8.577-11.025" style="fill:none;stroke:#231f20;stroke-width:2.554;stroke-linecap:round;stroke-linejoin:round;stroke-miterlimit:10;stroke-dasharray:none;stroke-opacity:1" transform="translate(289.12 565.921)"/><path d="M0 0c2.828-1.603 2.641-4.902.661-6.221" style="fill:none;stroke:#231f20;stroke-width:2.554;stroke-linecap:round;stroke-linejoin:round;stroke-miterlimit:10;stroke-dasharray:none;stroke-opacity:1" transform="translate(308.44 568.75)"/><path d="M0 0c.473 3.581 3.394 6.219 4.809 6.502" style="fill:none;stroke:#231f20;stroke-width:2.554;stroke-linecap:round;stroke-linejoin:round;stroke-miterlimit:10;stroke-dasharray:none;stroke-opacity:1" transform="translate(314.751 560.55)"/><path d="M0 0c3.202-.472 9.706.282 10.553 5.371" style="fill:none;stroke:#231f20;stroke-width:2.554;stroke-linecap:round;stroke-linejoin:round;stroke-miterlimit:10;stroke-dasharray:none;stroke-opacity:1" transform="translate(320.22 551.032)"/><path d="M0 0c2.828-1.413 5.09-11.025-.659-12.25" style="fill:none;stroke:#231f20;stroke-width:2.554;stroke-linecap:round;stroke-linejoin:round;stroke-miterlimit:10;stroke-dasharray:none;stroke-opacity:1" transform="translate(325.872 551.126)"/><path d="M0 0c-4.984 2.315-4.806 9.33-3.111 13.193 1.697 3.863 6.125 7.822 10.367 6.69 4.242-1.13 7.727-6.596 5.655-13.852S5.279-2.451 0 0Z" style="fill:none;stroke:#231f20;stroke-width:2.554;stroke-linecap:round;stroke-linejoin:round;stroke-miterlimit:10;stroke-dasharray:none;stroke-opacity:1" transform="translate(255.095 569.032)"/><path d="M0 0c-1.224-3.582 1.978-7.727 7.35-7.916 5.373-.189 13.007 1.602 13.949 7.727" style="fill:none;stroke:#231f20;stroke-width:2.554;stroke-linecap:round;stroke-linejoin:round;stroke-miterlimit:10;stroke-dasharray:none;stroke-opacity:1" transform="translate(261.503 567.524)"/><path d="M0 0c1.886 1.414 5.185 1.602 6.409.942" style="fill:none;stroke:#231f20;stroke-width:2.554;stroke-linecap:round;stroke-linejoin:round;stroke-miterlimit:10;stroke-dasharray:none;stroke-opacity:1" transform="translate(268.76 575.722)"/><path d="M0 0c1.696-1.036 2.734-2.073 3.204-3.392" style="fill:none;stroke:#231f20;stroke-width:2.554;stroke-linecap:round;stroke-linejoin:round;stroke-miterlimit:10;stroke-dasharray:none;stroke-opacity:1" transform="translate(251.609 589.764)"/><path d="M0 0c3.96-2.26 6.128-8.009 4.715-11.967-1.413-3.958-4.806-5.466-7.256-5.748" style="fill:none;stroke:#231f20;stroke-width:2.554;stroke-linecap:round;stroke-linejoin:round;stroke-miterlimit:10;stroke-dasharray:none;stroke-opacity:1" transform="translate(239.072 579.68)"/><path d="M0 0c2.168 2.827 4.146 3.675 6.786 3.675" style="fill:none;stroke:#231f20;stroke-width:2.554;stroke-linecap:round;stroke-linejoin:round;stroke-miterlimit:10;stroke-dasharray:none;stroke-opacity:1" transform="translate(244.445 569.314)"/><path d="M0 0c1.507-2.544 1.506-7.632-2.923-10.178" style="fill:none;stroke:#231f20;stroke-width:2.554;stroke-linecap:round;stroke-linejoin:round;stroke-miterlimit:10;stroke-dasharray:none;stroke-opacity:1" transform="translate(256.886 567.618)"/><path d="M0 0c-.66-2.074-.284-4.429 1.226-5.748" style="fill:none;stroke:#231f20;stroke-width:2.554;stroke-linecap:round;stroke-linejoin:round;stroke-miterlimit:10;stroke-dasharray:none;stroke-opacity:1" transform="translate(268.383 559.042)"/><path d="M0 0c3.11-1.224 5.277-10.367 2.827-14.041" style="fill:none;stroke:#231f20;stroke-width:2.554;stroke-linecap:round;stroke-linejoin:round;stroke-miterlimit:10;stroke-dasharray:none;stroke-opacity:1" transform="translate(281.67 563.565)"/><path d="M0 0c-1.318-1.036-3.394-4.995-2.733-6.785" style="fill:none;stroke:#231f20;stroke-width:2.554;stroke-linecap:round;stroke-linejoin:round;stroke-miterlimit:10;stroke-dasharray:none;stroke-opacity:1" transform="translate(292.707 554.707)"/><path d="M0 0c.66-.659.755-2.356.755-2.733" style="fill:none;stroke:#231f20;stroke-width:2.554;stroke-linecap:round;stroke-linejoin:round;stroke-miterlimit:10;stroke-dasharray:none;stroke-opacity:1" transform="translate(308.163 545.66)"/></g><g clip-path="url(#g)" transform="matrix(1.33333 0 0 -1.33333 -123.268 833.56)"><path style="fill:#e91f25;fill-opacity:1;fill-rule:nonzero;stroke:none" d="M0 0a1.532 1.532 0 0 1-.389-3.014c10.137-2.671 19.893-5.343 27.683-7.34-.368 1.237-.819 2.428-1.369 3.518C18.556-4.921 9.628-2.486.392-.051A1.518 1.518 0 0 1 0 0m9.314 31.983h-.08c-.475-.004-1.168-.077-2-.196-4.007-1.358-7.695-5.975-8.657-7.32-6.282-2.154-13.676-2.882-17.137-2.882a15.408 15.408 0 0 0-1.207.038c-2.33.001-20.72-9.888-28.353-14.047l46.08-8.705.535-.122A1.534 1.534 0 0 0 .391-.05c9.236-2.435 18.165-4.87 25.534-6.785-.679 1.347-1.507 2.54-2.509 3.47C19.757.031 17.707.568 16.776.568c-.429 0-.62-.115-.62-.115 2.866 10.128 2.866 21.21 1.337 24.458-1.523 3.235-5.318 7.04-8.179 7.071M-71.952 8.816C-77.032.076-81.707-4.803-85.16-5.818c-9.758-6.3-36.795-14.455-36.795-14.455-3.394-2.663-10.413-6.289-14.403-6.289-.544 0-1.03.068-1.445.214-5.73 0-8.668-.512-9.74-.755-1.315-1.36-2.193-2.78-2.346-4.16-.575-5.16-.956-10.32 5.35-15.288 6.305-4.967 12.04-8.215 12.803-9.169-4.013-6.69-3.442-10.51-2.486-14.332.956-3.823 3.632-11.275 8.982-12.994 2.675-.859 5.971-1.193 8.86-1.193 2.892 0 5.376.334 6.427.811.954-6.879 1.53-11.082 5.923-17.006 4.393-5.923 7.832-10.508 18.534-11.464a42.356 42.356 0 0 1 3.664-.159h.265c10.441.027 24.175 3.263 34.476 7.993 11.657 5.351 24.27 9.172 29.045 10.508 4.776 1.338 20.635 7.836 28.853 14.142 8.216 6.304 12.42 10.89 12.994 13.566.572 2.674-1.34 24.075-6.115 32.674 6.303 1.336 9.935 5.16 10.7 8.79.504 2.4.51 8.64-1.092 14.03C19.504-8.358 9.748-5.686-.389-3.014A1.532 1.532 0 0 0-1.505-1.25l-.534.121-46.08 8.706c-2.033-1.107-3.302-1.808-3.302-1.808-1.17 0-2.863-.038-4.786-.038-5.764 0-13.61.343-15.745 3.086" transform="translate(265.189 440.902)"/></g><g clip-path="url(#h)" transform="matrix(1.33333 0 0 -1.33333 -123.268 833.56)"><path style="fill:#148748;fill-opacity:1;fill-rule:nonzero;stroke:none;stroke-width:.999998" d="M-56.598 51.317c-8.258.007-16.128-4.799-20.349-11.82-5.562 3.482-12.114 6.834-18.868 4.956-10.622-2.024-23.435-6.714-26.414-18.409.852-7.592-9.383-.715-14.354-3.528-8.213.102-14.15-6.968-15.265-14.63-.666-11.3-1.532-22.701-3.917-33.818-3.334-5.343-7.503-11.198-7.426-17.877 1.406-5.232 4.13-15.369 10.455-14.734 6.686.564 13.716-.48 19.506 3.845 5.961 4.358 13.586 5.15 20.288 8.042 8.587 3.233 17.5 6.344 24.906 11.823 5.536 2.991 6.414 15.004 13.25 9.68 6.626-.627 14.333-2.688 20.179 1.35 9.136 4.668 17.956 10.269 27.659 13.638 6.812.59 15.716-.262 20.398 5.394C-2.166-.939 3.416 1.165.34 8.1c-.676 7.252-5.596 13.257-13.166 13.841-7.42 1.173-15.782 2.55-19.683 9.905-4.569 5.334-8.365 11.388-13.122 16.492-3.217 2.12-7.161 2.933-10.968 2.98zm-30.025-9.438c.025-3.843.06-6.832.006-1.22zm-2.539-1.076c.07-5.336.293-6.735 0 0zm-12.04-4.427-.613-.205zm3.512-3.103c.036-1.95.11-6.57.035-2.082l-.035 2.082zm-2.96-2.252c2.576-1.931 3.882-2.914.507-.38l-.317.237z" transform="translate(272.423 472.688)"/></g><g clip-path="url(#i)" transform="matrix(1.33333 0 0 -1.33333 -123.268 833.56)"><path d="M0 0c.09.273 14.451 17.54 17.995 21.175 3.542 3.635 11.359 7.542 11.359 7.542s12.541-8.541 13.54-10.45c1.001-1.909-2.27-2.908-2.998-3.635-.728-.728-32.807-22.72-33.989-22.72-1.182 0-2.998 2.272-3.091 2.726C2.727-4.907 0 0 0 0" style="fill:#4b4748;fill-opacity:1;fill-rule:nonzero;stroke:none" transform="translate(208.376 440.346)"/><path d="M0 0c-.818 2.363.816 9.906 1.363 12.815.546 2.908.639 5.907 3.999 6.18 3.363.272 23.085-.638 28.717-1.455 5.634-.818 8.452-.635 9.179-1.453.728-.819 2.088-7.362 1.727-8.816-.363-1.453-3.362-1.818-4.544-1.909-1.182-.09-19.811-1.728-25.81-2.999C8.633 1.091 3.092-.09 2.182-.09 1.271-.09 0 0 0 0" style="fill:#4b4748;fill-opacity:1;fill-rule:nonzero;stroke:none" transform="translate(143.577 416.445)"/><path d="M0 0c2.818 1.908 12.089 10.27 14.723 13.632 2.635 3.362 7.815 10.179 7.359 11.178-3.088 1.636-37.803 15.995-48.981 17.176-1.909-.455-2.545-2.18-1.727-3.816C-27.809 36.533-5.27 5.543-3.18 2.909-1.091.274 0 0 0 0" style="fill:#fff200;fill-opacity:1;fill-rule:nonzero;stroke:none" transform="translate(123.04 439.256)"/><path d="M0 0c3.454-2.09 18.179-3.363 22.813-3.999 4.633-.637 10.451-.728 10.631-.273-.273 6.27-3.817 33.806-3.726 35.534.09 1.726-1.088 13.176-2.181 13.266-1.091.09-2.545-.18-3.726-1.999-1.181-1.818-12.812-20.813-15.36-25.446C5.907 12.448 1.364 5.178.547 3.27-.271 1.361 0 0 0 0" style="fill:#fff200;fill-opacity:1;fill-rule:nonzero;stroke:none" transform="translate(219.374 493.147)"/><path d="M0 0c-1.982-2.76-3.705-6.726-3.102-10.174.602-3.448.084-8.191 3.275-12.069 3.19-3.881 9.484-7.156 15.347-6.641 5.863.519 12.76 2.76 15.347 6.727 2.587 3.967 3.362 5.861 3.362 9.655 0 3.795-1.638 12.847-5.689 14.829-4.054 1.984-9.915.691-9.915.691L4.399.69Z" style="fill:#fff;fill-opacity:1;fill-rule:nonzero;stroke:none" transform="translate(155.343 418.178)"/><path d="M0 0c-.778-3.017 0-9.224 1.033-12.587 1.034-3.364 5.087-8.967 13.536-9.398 8.449-.43 15.432 3.708 18.107 6.984 2.673 3.276 3.536 8.19 3.536 11.035 0 2.845-1.811 12.158-6.985 14.917-5.173 2.758-8.363 3.362-8.967 3.189-.604-.173-15.432-9.828-15.432-9.828Z" style="fill:#fff;fill-opacity:1;fill-rule:nonzero;stroke:none" transform="translate(219.575 435.851)"/><path d="M0 0c-.344 2.156-4.398 24.918-3.19 26.039 1.206 1.122 5.863-4.397 7.243-5.431 1.38-1.034 8.966-8.275 8.966-9.226 0-.948-6.035-5.001-6.898-6.035C5.26 4.314 0 0 0 0" style="fill:#fff;fill-opacity:1;fill-rule:nonzero;stroke:none" transform="translate(181.808 349.204)"/><path d="M0 0c.087 1.898 3.018 22.676 3.534 23.28.519.603 2.414-.95 3.795-2.416 1.379-1.465 10.517-18.018 10-19.57-.518-1.552-5.692-.777-6.725-1.035C9.57 0 1.897-.087 1.466-.258 1.034-.429 0 0 0 0" style="fill:#fff;fill-opacity:1;fill-rule:nonzero;stroke:none" transform="translate(249.401 381.105)"/><path d="M0 0c0 4.152 15.973 31.608 18.831 35.643 2.859 4.035 7.858 7.807 7.858 7.807s-.291-2.259-.796-3.772c-.506-1.514-8.242-18.327-9.754-21.857-1.511-3.531-5.041-9.248-6.051-11.937-1.009-2.69-2.858-7.735-4.371-8.07C4.204-2.522 0-.506 0 0" style="fill:#fff;fill-opacity:1;fill-rule:nonzero;stroke:none" transform="translate(220.221 494.225)"/><path d="M0 0c.406-5.285-4.472-10.976-2.033-19.107 2.439-8.13 4.879-10.162 4.879-10.162s.273-4.608-3.115-1.899c-3.39 2.712-8.268 8.809-7.86 14.095.406 5.284 2.031 11.381 3.252 13.414C-3.659-1.627 0 0 0 0" style="fill:#fff;fill-opacity:1;fill-rule:nonzero;stroke:none" transform="translate(117.425 444.84)"/><path d="m0 0 4.47-1.626c-.406 7.724.408 11.382 4.472 14.228 4.065 2.846 14.227 4.877 17.48 3.658 3.252-1.219 6.504 1.219 8.131 5.285 1.626 4.065 6.504 10.569 12.602 13.414 6.096 2.846 12.194 4.066 16.259 2.439 4.065-1.626 8.537-4.064 11.788-2.439 3.252 1.626 6.099 2.846 10.163 6.098 4.065 3.252 10.57 5.285 14.228 3.659 3.659-1.626 9.757-3.659 10.975-4.472-2.438 5.691-6.909 11.383-13.414 10.164-6.504-1.221-17.07-4.745-21.95-12.739-5.285 3.388-11.383 8.673-25.61 3.795-14.228-4.879-18.967-11.112-20.053-21.41-7.591 2.304-14.095 2.71-19.583-.542C4.47 16.26 1.626 12.195.405 8.943-.815 5.691 0 0 0 0" style="fill:#fff;fill-opacity:1;fill-rule:nonzero;stroke:none" transform="translate(120.271 474.515)"/><path d="M0 0c-4.878.811-9.349 0-10.163-3.662-.813-3.657 2.439-8.941 3.659-12.194 1.219-3.252 8.537-8.129 10.163-9.348 1.626-1.22 2.439-1.628 2.032-5.692-.406-4.065-1.219-8.537 1.22-12.196 2.438-3.658 5.69-10.977 11.789-11.787-7.319-.815-13.415-.408-16.667 8.535-3.253 8.945-2.5 14.829.579 19.61-7.49 4.375-17.653 11.285-18.873 19.82-1.219 8.54 1.22 9.758 5.693 10.57 4.47.814 8.129-.812 9.756-1.625C.812 1.218 0 0 0 0" style="fill:#fff;fill-opacity:1;fill-rule:nonzero;stroke:none" transform="translate(130.84 411.914)"/><path d="M0 0c0-5.284 2.033-15.041 3.659-20.326 1.626-5.284 6.911-11.383 10.57-14.635 3.658-3.25 9.348-6.095 14.228-6.504 4.877-.406 17.479 1.627 21.138 3.254-8.944-.408-16.261.405-20.733 3.25-4.472 2.846-13.414 7.317-17.074 15.041C8.132-12.195 4.472-7.724 2.846-4.472 1.22-1.22 0 0 0 0" style="fill:#fff;fill-opacity:1;fill-rule:nonzero;stroke:none" transform="translate(153.196 369.636)"/><path d="M0 0c3.66 2.643 6.098 5.081 9.349 3.455 3.253-1.625 6.912-6.911 7.318-4.065.407 2.846-.813 8.13-4.065 8.13-3.253 0-7.724.813-8.942-1.625C2.439 3.455 0 0 0 0" style="fill:#fff;fill-opacity:1;fill-rule:nonzero;stroke:none" transform="translate(263.767 465.368)"/><path d="M0 0c2.439-1.219 2.846 0 2.033 4.065-.812 4.066-2.033 3.252 0 6.504 2.032 3.252 4.065.815 4.879 4.066.812 3.252 0 6.504 1.22 9.756 1.218 3.252 3.252 4.065 6.503 4.877 3.252.814 5.691 1.627 7.724 3.252 2.032 1.627 3.251 1.627 5.691 2.034 2.439.407 2.439 2.845-.407 2.845-2.845 0-8.943 0-11.789-2.845-2.845-2.847-7.317-.407-8.942-2.847-1.627-2.439-2.44-13.008-2.847-15.04-4.47-.405-8.942-2.846-8.536-6.911.407-4.065 1.627-7.722 1.627-7.722Z" style="fill:#fff;fill-opacity:1;fill-rule:nonzero;stroke:none" transform="translate(192.221 375.327)"/><path d="M0 0c-9.838 5.312-29.909 10.823-48.603 3.934-18.694-6.886-35.221-25.114-41.52-37.842-6.297-12.728-11.807-24.731-12.003-25.912-11.61-6.69-24.203-22.236-23.219-46.243.984-24.006 15.937-35.617 28.332-43.879 12.396-8.267 15.643-10.649 23.12-14.191 7.476-3.543 16.431-5.29 26.663-8.046 10.234-2.754 31.875-4.918 43.88 2.166 12.005 7.084 19.679 14.757 24.008 24.204 4.329 9.443 8.655 21.447 4.721 30.305 5.51 13.575 12.986 29.513 14.364 40.533 1.378 11.019 4.331 26.366-3.935 42.109-8.266 15.743-13.713 21.43-20.994 25.958C7.534-2.379 3.378-.785 0 0" style="fill:#fff;fill-opacity:1;fill-rule:nonzero;stroke:none" transform="translate(463.493 505.149)"/><path d="M0 0c4.065 8.944 15.448 21.139 23.578 27.236 8.13 6.098 17.886 8.944 26.016 10.163 8.131 1.22 27.236.813 33.739-3.659-.136-.233-.274-.47-.415-.707-5.782-9.705-16.146-22.967-28.445-26.936C41.871 2.033 26.016-.407 16.26-.812 6.504-1.219 0 0 0 0" style="fill:#4b4748;fill-opacity:1;fill-rule:nonzero;stroke:none" transform="translate(377.861 468.801)"/><path d="M0 0c-1.218-6.911-.812-19.919 0-26.017.813-6.097 4.065-23.17 13.415-34.553 9.349-11.383 22.764-21.951 25.203-23.577 4.879 12.194 6.506 28.861 5.693 36.585-.814 7.724-11.384 26.017-24.798 37.399C6.098 1.22.398 1.731.398 1.731Z" style="fill:#4b4748;fill-opacity:1;fill-rule:nonzero;stroke:none" transform="translate(460.382 500.103)"/><path d="M0 0c2.914 5.019 6.329 7.318 10.485 5.341 4.153-1.977 5.933-6.429 3.857-10.386-2.078-3.956-9.002-9.101-12.365-5.54C-1.385-7.023-1.781-3.067 0 0" style="fill:#4b4748;fill-opacity:1;fill-rule:nonzero;stroke:none" transform="translate(419.613 456.28)"/><path d="M0 0c1.331 3.986 4.253 5.737 7.023 5.835 2.769.099 5.639-.593 6.726-3.264 1.088-2.671 1.484-6.429-.494-9.199-1.978-2.77-4.944-5.936-8.408-4.749-3.464 1.188-5.736 2.573-5.936 5.244C-1.287-3.464-.2-.595 0 0" style="fill:#4b4748;fill-opacity:1;fill-rule:nonzero;stroke:none" transform="translate(442.957 447.279)"/></g><g clip-path="url(#j)" transform="matrix(1.33333 0 0 -1.33333 -123.268 833.56)"><path d="M0 0c-.032 0-.065-.001-.098-.004-1.384-.1-6.627-3.263-9.397-5.637 0 0-.395-2.868-.297-5.144.1-2.276 1.978-5.637 5.341-8.606.747-.659 1.693-.922 2.728-.922 3.627 0 8.341 3.241 9.341 4.087 1.286 1.091 1.483 7.122 1.088 10.288-.281 2.243-.71 3.294-1.605 3.294-.368 0-.815-.177-1.363-.522-1.235-.781-2.599-1.776-3.417-1.776-.426 0-.703.27-.736.982C1.488-1.932 1.296 0 0 0" style="fill:#ed2025;fill-opacity:1;fill-rule:nonzero;stroke:none" transform="translate(413.776 398.514)"/></g><g clip-path="url(#k)" transform="matrix(1.33333 0 0 -1.33333 -123.268 833.56)"><path d="M0 0c4.119 9.054 10.161 12.161 19.888 11.589 9.726-.573 15.099-5.724 17.421-12.591 2.319-6.868.143-13.878-3.486-18.6-3.627-4.722-13.499-12.161-25.693-5.722C-4.063-18.887-1.887-4.151 0 0" style="fill:#f685c8;fill-opacity:1;fill-rule:nonzero;stroke:none" transform="translate(351.745 418.654)"/><path d="M0 0c4.118 9.054 10.161 12.163 19.888 11.588 9.726-.573 15.097-5.723 17.42-12.591 2.32-6.868.143-13.876-3.485-18.599-3.628-4.72-13.499-12.162-25.693-5.723C-4.065-18.887-1.887-4.15 0 0" style="fill:#f685c8;fill-opacity:1;fill-rule:nonzero;stroke:none" transform="translate(437.112 382.07)"/><path d="M0 0c-6.098-4.063-8.132-10.568-7.318-16.937.813-6.368 3.251-10.704 7.318-14.365-3.93-4.469-3.115-10.296.677-15.852 3.793-5.555 12.874-11.653 15.447-12.871-1.626-1.763-3.522-6.506-2.846-11.519.678-5.013 5.015-13.416 8.944-15.448 3.93-2.033 11.924-1.625 14.634 0" style="fill:none;stroke:#231f20;stroke-width:3.064;stroke-linecap:round;stroke-linejoin:round;stroke-miterlimit:10;stroke-dasharray:none;stroke-opacity:1" transform="translate(117.155 444.974)"/><path d="M0 0c.813-3.115 4.337-15.311 6.234-18.969 1.896-3.657 9.348-12.194 16.123-14.092 6.777-1.897 19.107-.407 32.251 4.472 13.143 4.879 23.71 9.484 24.66 10.162 7.048 2.168 29.812 8.808 38.077 13.823 8.265 5.012 16.532 13.683 17.753 18.425 1.217 4.745-1.356 19.92-2.848 23.309-1.49 3.386-3.115 8.672-4.472 10.568" style="fill:none;stroke:#231f20;stroke-width:3.064;stroke-linecap:round;stroke-linejoin:round;stroke-miterlimit:10;stroke-dasharray:none;stroke-opacity:1" transform="translate(153.47 362.182)"/><path d="M0 0c1.491 7.316 2.846 10.975 9.349 11.382 6.506.406 11.111-5.148 10.977-14.362-.135-9.216-1.76-14.635-2.303-16.396 4.064-1.491 6.776-3.387 9.349-7.995 2.574-4.607 4.744-12.601 2.439-17.616-2.304-5.014-5.963-7.994-9.891-7.724" style="fill:none;stroke:#231f20;stroke-width:3.064;stroke-linecap:round;stroke-linejoin:round;stroke-miterlimit:10;stroke-dasharray:none;stroke-opacity:1" transform="translate(263.09 460.829)"/><path d="M0 0c5.015 0 23.985-1.355 21.138-23.035" style="fill:none;stroke:#231f20;stroke-width:3.064;stroke-linecap:round;stroke-linejoin:round;stroke-miterlimit:10;stroke-dasharray:none;stroke-opacity:1" transform="translate(251.98 496.33)"/><path d="M0 0c-3.659 4.336-15.717 20.868-19.918 26.152-4.203 5.285-9.081 13.551-9.081 14.77 0 1.22.813 2.034 4.337 1.085 3.524-.95 18.971-5.419 24.662-7.318 5.691-1.898 21.003-7.858 22.086-8.942" style="fill:none;stroke:#231f20;stroke-width:3.064;stroke-linecap:round;stroke-linejoin:round;stroke-miterlimit:10;stroke-dasharray:none;stroke-opacity:1" transform="translate(122.982 438.606)"/><path d="M0 0c2.304 5.962 16.668 31.572 19.649 35.908 2.979 4.335 5.42 7.452 6.233 8.401.813.948 2.302 0 2.573-3.252.271-3.251 2.981-27.237 3.252-33.063.271-5.827 1.222-11.247.949-13.008" style="fill:none;stroke:#231f20;stroke-width:3.064;stroke-linecap:round;stroke-linejoin:round;stroke-miterlimit:10;stroke-dasharray:none;stroke-opacity:1" transform="translate(219.323 493.214)"/><path d="M0 0c-1.084 2.033-5.825 5.826-8.807 6.911-2.98 1.085-6.234 1.083-11.111 0-4.88-1.084-12.739-4.471-15.177-11.519 0 0-2.439 1.763-5.148 3.524C-42.955.677-49.052 1.491-57.047.135c-7.994-1.355-9.077-3.523-15.446-6.639s-8.809-10.569-8.266-15.719c-.676 0-4.743 1.763-10.163 1.763-5.419 0-6.91-.407-12.601-4.473-5.691-4.065-8.266-10.025-6.911-16.395" style="fill:none;stroke:#231f20;stroke-width:3.064;stroke-linecap:round;stroke-linejoin:round;stroke-miterlimit:10;stroke-dasharray:none;stroke-opacity:1" transform="translate(230.57 516.791)"/><path d="M0 0c7.634-1.896 27.551-4.201 28.634-4.471" style="fill:none;stroke:#231f20;stroke-width:3.064;stroke-linecap:round;stroke-linejoin:round;stroke-miterlimit:10;stroke-dasharray:none;stroke-opacity:1" transform="translate(221.175 492.671)"/><path d="M0 0c4.742 4.673 17.886 19.171 19.105 21.34" style="fill:none;stroke:#231f20;stroke-width:3.064;stroke-linecap:round;stroke-linejoin:round;stroke-miterlimit:10;stroke-dasharray:none;stroke-opacity:1" transform="translate(124.743 440.167)"/><path d="M0 0c4.877 2.71 9.757 1.626 14.771-3.115" style="fill:none;stroke:#231f20;stroke-width:3.064;stroke-linecap:round;stroke-linejoin:round;stroke-miterlimit:10;stroke-dasharray:none;stroke-opacity:1" transform="translate(118.374 413.945)"/><path d="M0 0c3.794 0 10.738 3.523 11.958 7.587" style="fill:none;stroke:#231f20;stroke-width:3.064;stroke-linecap:round;stroke-linejoin:round;stroke-miterlimit:10;stroke-dasharray:none;stroke-opacity:1" transform="translate(131.112 414.759)"/><path d="M0 0c5.554 1.76 13.28 9.284 13.821 16.159" style="fill:none;stroke:#231f20;stroke-width:3.064;stroke-linecap:round;stroke-linejoin:round;stroke-miterlimit:10;stroke-dasharray:none;stroke-opacity:1" transform="translate(179.08 434.678)"/><path d="M0 0c2.981-2.168 12.466-4.335 18.563-2.168" style="fill:none;stroke:#231f20;stroke-width:3.064;stroke-linecap:round;stroke-linejoin:round;stroke-miterlimit:10;stroke-dasharray:none;stroke-opacity:1" transform="translate(193.714 449.582)"/><path d="M0 0c3.93-1.491 15.183-.136 16.8 2.574" style="fill:none;stroke:#231f20;stroke-width:3.064;stroke-linecap:round;stroke-linejoin:round;stroke-miterlimit:10;stroke-dasharray:none;stroke-opacity:1" transform="translate(245.895 462.861)"/><path d="M0 0c-1.357-2.576-.95-9.35 3.386-15.042 4.338-5.69 11.927-7.382 19.786-4.231C31.03-16.125 35.5-11.518 35.908-4.336c.405 7.181-4.064 18.022-13.822 19.24" style="fill:none;stroke:#231f20;stroke-width:3.064;stroke-linecap:round;stroke-linejoin:round;stroke-miterlimit:10;stroke-dasharray:none;stroke-opacity:1" transform="translate(219.73 434.678)"/><path d="M0 0c3.116 2.156 12.735 10.42 17.479 13.265 4.743 2.848 18.834 11.249 19.513 12.197.677.948-1.627 2.71-2.439 3.523-.813.813-10.557 7.725-11.377 8.265-.819.542-6.781-4.327-11.387-9.141C7.181 23.295-3.796 12.048-4.744 10.421c-.947-1.625-.948-2.032 0-3.524C-3.795 5.407 0 0 0 0Z" style="fill:none;stroke:#231f20;stroke-width:3.064;stroke-linecap:round;stroke-linejoin:round;stroke-miterlimit:10;stroke-dasharray:none;stroke-opacity:1" transform="translate(214.175 431.708)"/><path d="M0 0c-1.221 7.995 9.079 13.143 15.041 6.246" style="fill:none;stroke:#231f20;stroke-width:3.064;stroke-linecap:round;stroke-linejoin:round;stroke-miterlimit:10;stroke-dasharray:none;stroke-opacity:1" transform="translate(230.57 425.463)"/><path d="M0 0c2.737-.99 6.999-6.271 7.628-13.398.63-7.127-3.841-13.49-11.769-16.456-7.932-2.965-14.339-2.573-19.476 2.462-5.137 5.033-9.135 16.057-2.747 23.53" style="fill:none;stroke:#231f20;stroke-width:3.064;stroke-linecap:round;stroke-linejoin:round;stroke-miterlimit:10;stroke-dasharray:none;stroke-opacity:1" transform="translate(182.188 420.933)"/><path d="M0 0c-3.756-.507-16.431-.879-21.855-1.97-5.421-1.091-21.494-4.374-22.635-4.129-1.14.242-.625 3.096-.57 4.245.052 1.149 2.597 12.82 2.839 13.771.24.954 7.928 1.372 14.576.916 6.646-.457 22.337-1.373 24.13-1.937 1.797-.562 2.074-.862 2.374-2.603C-.838 6.553 0 0 0 0Z" style="fill:none;stroke:#231f20;stroke-width:3.064;stroke-linecap:round;stroke-linejoin:round;stroke-miterlimit:10;stroke-dasharray:none;stroke-opacity:1" transform="translate(188.293 422.482)"/><path d="M0 0c-4.482 6.73-15.562 3.597-15.323-5.514" style="fill:none;stroke:#231f20;stroke-width:3.064;stroke-linecap:round;stroke-linejoin:round;stroke-miterlimit:10;stroke-dasharray:none;stroke-opacity:1" transform="translate(180.383 406.822)"/><path d="M0 0c-8.402-3.523-14.093.406-15.719 6.64-1.626 6.233 1.086 11.788 7.86 11.381-1.356 7.588-.543 17.616 11.653 17.345 6.369 4.877 14.092 7.045 21.003-5.284 6.504 4.741 10.296 3.584 13.279-2.611 2.981-6.198.542-15.683-5.962-14.869" style="fill:none;stroke:#231f20;stroke-width:3.064;stroke-linecap:round;stroke-linejoin:round;stroke-miterlimit:10;stroke-dasharray:none;stroke-opacity:1" transform="translate(204.012 373.836)"/><path d="M0 0c13.686 14.634 28.184 24.525 43.225 29.538 15.042 5.016 33.693 7.457 50.134 5.963" style="fill:none;stroke:#231f20;stroke-width:3.064;stroke-linecap:round;stroke-linejoin:round;stroke-miterlimit:10;stroke-dasharray:none;stroke-opacity:1" transform="translate(179.08 345.517)"/><path d="M0 0c-1.57 5.904-4.279 21.214-4.414 24.737-.135 3.523 1.899 2.033 3.389.814C.464 24.33 11.391 13.889 13.111 11.589" style="fill:none;stroke:#231f20;stroke-width:3.064;stroke-linecap:round;stroke-linejoin:round;stroke-miterlimit:10;stroke-dasharray:none;stroke-opacity:1" transform="translate(182.273 348.828)"/><path d="M0 0c.948 6.475 1.898 19.619 2.574 21.922.678 2.303 3.251.332 4.606-2.068C8.537 17.45 15.988 5.042 17.208 0" style="fill:none;stroke:#231f20;stroke-width:3.064;stroke-linecap:round;stroke-linejoin:round;stroke-miterlimit:10;stroke-dasharray:none;stroke-opacity:1" transform="translate(249.54 381.454)"/><path d="M0 0c3.522 2.575 9.349 7.724 10.027 8.944" style="fill:none;stroke:#231f20;stroke-width:3.064;stroke-linecap:round;stroke-linejoin:round;stroke-miterlimit:10;stroke-dasharray:none;stroke-opacity:1" transform="translate(114.174 451.75)"/><path d="M0 0c3.697 2.942 8.711 7.414 9.661 9.448" style="fill:none;stroke:#231f20;stroke-width:3.064;stroke-linecap:round;stroke-linejoin:round;stroke-miterlimit:10;stroke-dasharray:none;stroke-opacity:1" transform="translate(107.495 458.97)"/><path d="M0 0c3.794-.678 7.453-1.357 8.808-1.084" style="fill:none;stroke:#231f20;stroke-width:3.064;stroke-linecap:round;stroke-linejoin:round;stroke-miterlimit:10;stroke-dasharray:none;stroke-opacity:1" transform="translate(240.733 514.76)"/><path d="M0 0c3.37-.675 10.007-1.76 11.769-1.626" style="fill:none;stroke:#231f20;stroke-width:3.064;stroke-linecap:round;stroke-linejoin:round;stroke-miterlimit:10;stroke-dasharray:none;stroke-opacity:1" transform="translate(238.04 505.543)"/><path d="M0 0c-9.839 5.312-29.909 10.823-48.603 3.934-18.694-6.886-35.221-25.114-41.52-37.842-6.297-12.728-11.807-24.731-12.003-25.911-11.61-6.691-24.203-22.237-23.219-46.244.984-24.006 15.937-35.616 28.332-43.879 12.396-8.266 15.643-10.649 23.12-14.191 7.476-3.542 16.431-5.29 26.663-8.046 10.234-2.753 31.875-4.918 43.88 2.166 12.005 7.084 19.679 14.757 24.008 24.204 4.329 9.443 8.655 21.447 4.721 30.305 5.509 13.575 12.986 29.513 14.364 40.533 1.378 11.02 4.331 26.366-3.935 42.109-8.266 15.743-13.713 21.43-20.994 25.958C7.534-2.379 3.378-.785 0 0Z" style="fill:none;stroke:#231f20;stroke-width:3.064;stroke-linecap:round;stroke-linejoin:round;stroke-miterlimit:10;stroke-dasharray:none;stroke-opacity:1" transform="translate(463.493 505.148)"/><path d="M0 0c-7.089-11.02-19.878-29.444-44.673-33.908-24.792-4.464-41.519-2.423-44.077 0" style="fill:none;stroke:#231f20;stroke-width:3.064;stroke-linecap:round;stroke-linejoin:round;stroke-miterlimit:10;stroke-dasharray:none;stroke-opacity:1" transform="translate(463.493 505.148)"/><path d="M0 0c-1.586-10.493-1.78-29.581 4.321-44.928 6.097-15.348 25.175-34.952 34.331-40.105" style="fill:none;stroke:#231f20;stroke-width:3.064;stroke-linecap:round;stroke-linejoin:round;stroke-miterlimit:10;stroke-dasharray:none;stroke-opacity:1" transform="translate(460.94 501.276)"/><path d="M0 0c2.141 4.731 7.352 6.565 10.968 4.161 3.615-2.403 4.378-6.969 2.283-10.963-2.091-3.995-5.324-7.038-10.753-4.828C-2.426-9.624-1.745-3.851 0 0Z" style="fill:none;stroke:#231f20;stroke-width:1.702;stroke-linecap:round;stroke-linejoin:round;stroke-miterlimit:10;stroke-dasharray:none;stroke-opacity:1" transform="translate(420.22 457.054)"/><path d="M0 0c2.143 4.732 7.354 6.566 10.969 4.161 3.614-2.403 4.379-6.969 2.285-10.963C11.16-10.796 7.927-13.84 2.5-11.629-2.424-9.624-1.742-3.851 0 0Z" style="fill:none;stroke:#231f20;stroke-width:1.702;stroke-linecap:round;stroke-linejoin:round;stroke-miterlimit:10;stroke-dasharray:none;stroke-opacity:1" transform="translate(443.21 448.258)"/><path d="M0 0c9.838 8.988 20.466 7.217 26.368 2.887 5.902-4.33 6.689-17.317 3.737-23.613" style="fill:none;stroke:#231f20;stroke-width:3.064;stroke-linecap:round;stroke-linejoin:round;stroke-miterlimit:10;stroke-dasharray:none;stroke-opacity:1" transform="translate(385.172 438.112)"/><path d="M0 0c6.296 9.051 12.987 15.151 22.629 12.593 9.641-2.558 13.576-15.544 13.38-19.086" style="fill:none;stroke:#231f20;stroke-width:3.064;stroke-linecap:round;stroke-linejoin:round;stroke-miterlimit:10;stroke-dasharray:none;stroke-opacity:1" transform="translate(431.021 410.893)"/><path d="M0 0c2.69 1.941 7.082 5.706 8.46 6.297 1.378.592 2.558-.786 2.558-2.361 0-1.574-.392-3.736.789-3.148 1.178.591 5.155 3.74 5.627 1.378.471-2.362 1.651-8.656.864-11.021-2.836-2.793-9.027-6.295-13.182-4.335C.663-11.089-.197-4.329 0 0Z" style="fill:none;stroke:#231f20;stroke-width:3.064;stroke-linecap:round;stroke-linejoin:round;stroke-miterlimit:10;stroke-dasharray:none;stroke-opacity:1" transform="translate(404.06 392.59)"/></g></svg>