<svg xmlns="http://www.w3.org/2000/svg" viewBox="0 0 70.734 91.735"><defs><clipPath id="clip-path"><path class="cls-1" d="M5.317 82.726h54.696v8.565H5.317z"/></clipPath><clipPath id="clip-path-2"><path class="cls-1" d="M16.349 68.051h32.387v18.494H16.349z"/></clipPath><clipPath id="clip-path-3"><path class="cls-1" d="M.92 32.775h18.905v18.253H.92z"/></clipPath><clipPath id="clip-path-4"><path class="cls-1" d="M.396 46.263h62.169v23.021H.396z"/></clipPath><clipPath id="clip-path-5"><path class="cls-1" d="M17.669 7.399h29.185v37.379H17.669z"/></clipPath><clipPath id="clip-path-6"><path class="cls-1" d="M18.334 16.048h9.972V32.62h-9.972z"/></clipPath><clipPath id="clip-path-7"><path class="cls-1" d="M20.552 18.168h5.637v12.184h-5.637z"/></clipPath><clipPath id="clip-path-8"><path class="cls-1" d="M27.246.601h9.971v16.572h-9.971z"/></clipPath><clipPath id="clip-path-9"><path class="cls-1" d="M29.464 2.721h5.637v12.184h-5.637z"/></clipPath><clipPath id="clip-path-10"><path class="cls-1" d="M35.761 16.098h10.111v16.578H35.761z"/></clipPath><clipPath id="clip-path-11"><path class="cls-1" d="M37.979 18.218h5.637v12.184h-5.637z"/></clipPath><clipPath id="clip-path-12"><path class="cls-1" d="M47.597 25.866h18.27V48.69h-18.27z"/></clipPath><clipPath id="clip-path-13"><path class="cls-1" d="M14.041 42.299h13.406v13.096H14.041z"/></clipPath><clipPath id="clip-path-14"><path class="cls-1" d="M24.613 38.192h16.239v13.095H24.613z"/></clipPath><clipPath id="clip-path-15"><path class="cls-1" d="M36.806 43.558h12.81v11.904h-12.81z"/></clipPath><clipPath id="clip-path-16"><path class="cls-1" d="M14.079 52.253H48.24V69.78H14.079z"/></clipPath><clipPath id="clip-path-17"><path class="cls-1" d="M6.961 64.39h11.933v12.884H6.961z"/></clipPath><clipPath id="clip-path-18"><path class="cls-1" d="M16.739 71.222h31.683v14.173H16.739z"/></clipPath><clipPath id="clip-path-19"><path class="cls-1" d="M19.165 46.312h4.247v3.944h-4.247z"/></clipPath><clipPath id="clip-path-20"><path class="cls-1" d="M8.325 65.219h9.257v6.432H8.325z"/></clipPath><clipPath id="clip-path-21"><path class="cls-1" d="M13.451 70.108h2.777v5.387h-2.777z"/></clipPath><clipPath id="clip-path-22"><path class="cls-1" d="M45.583 65.119h9.473v6.959h-9.473z"/></clipPath><clipPath id="clip-path-23"><path class="cls-1" d="M46.631 69.871h3.251v5.91h-3.251z"/></clipPath><clipPath id="clip-path-24"><path class="cls-1" d="M5.931 63.791h9.473v.982H5.931z"/></clipPath><clipPath id="clip-path-25"><path class="cls-1" d="M46.926 63.803h11.066v1.255H46.926z"/></clipPath><clipPath id="clip-path-26"><path class="cls-1" d="M4.102 14.626h7.003v6.155H4.102z"/></clipPath><clipPath id="clip-path-27"><path class="cls-1" d="M7.131 16.977h1.722v1.72H7.131z"/></clipPath><clipPath id="clip-path-28"><path class="cls-1" d="M11.607 2.023h7.003v6.155h-7.003z"/></clipPath><clipPath id="clip-path-29"><path class="cls-1" d="M14.637 4.374h1.721v1.719h-1.721z"/></clipPath><clipPath id="clip-path-30"><path class="cls-1" d="M8.08 26.298h7.003v6.156H8.08z"/></clipPath><clipPath id="clip-path-31"><path class="cls-1" d="M11.11 28.65h1.722v1.719H11.11z"/></clipPath><clipPath id="clip-path-32"><path class="cls-1" d="M53.064 24.151h7.003v6.155h-7.003z"/></clipPath><clipPath id="clip-path-33"><path class="cls-1" d="M56.094 26.503h1.721v1.719h-1.721z"/></clipPath><clipPath id="clip-path-34"><path class="cls-1" d="M63.433 26.595h3.727v6.155h-3.727z"/></clipPath><clipPath id="clip-path-35"><path class="cls-1" d="M66.463 28.946h.698v1.72h-.698z"/></clipPath><clipPath id="clip-path-36"><path class="cls-1" d="M49.779 31.344h7.004v6.155h-7.004z"/></clipPath><clipPath id="clip-path-37"><path class="cls-1" d="M52.81 33.696h1.721v1.719H52.81z"/></clipPath><clipPath id="clip-path-38"><path class="cls-1" d="M53.935 39.061h7.004v6.155h-7.004z"/></clipPath><clipPath id="clip-path-39"><path class="cls-1" d="M56.965 41.412h1.722v1.719h-1.722z"/></clipPath><style>.cls-1,.cls-69,.cls-70,.cls-71,.cls-72,.cls-74,.cls-94{fill:none}.cls-95{fill:#f38ebb}.cls-12{fill:#00834b}.cls-20{fill:#fffac7}.cls-21{fill:#fcf8c3}.cls-23{fill:#e4c957}.cls-32{fill:#ef3b5b}.cls-35{fill:#e93959}.cls-36{fill:#ea3c5a}.cls-44{fill:#ee375a}.cls-47{fill:#ffe700}.cls-51{fill:#68bc63}.cls-52{fill:#6abf64}.cls-55{fill:#ee223a}.cls-56{fill:#cbe2a4}.cls-57{fill:#fff}.cls-59{fill:#ffec00}.cls-60{fill:#fff200}.cls-62{fill:#f3f4c5}.cls-69,.cls-70,.cls-71,.cls-72,.cls-74,.cls-94,.cls-95{stroke:#231f20;stroke-linecap:round;stroke-linejoin:round}.cls-69{stroke-width:.801px}.cls-70,.cls-95{stroke-width:.579px}.cls-71{stroke-width:.668px}.cls-72{stroke-width:.445px}.cls-73{fill:#231f20}.cls-74{stroke-width:.556px}.cls-76{fill:#f38dba}.cls-78{fill:#ffe800}.cls-80{fill:#ec89b5}.cls-89{fill:#f38bb6}.cls-93{fill:#f38bb9}.cls-94{stroke-width:.334px}</style></defs><g id="Layer_2" data-name="Layer 2"><g id="Layer_1-2" data-name="Layer 1"><path style="fill:#f38ebb" d="M66.463 27.828h2.989v3.893h-2.989z"/><g style="clip-path:url(#clip-path)"><path d="M14.565 82.726h-.477c-.8.001-1.371.005-1.371.005a16.775 16.775 0 0 1-1.306 1.451c-.145.049-4.497 1.113-4.497 1.113l-1.596 1.692 3.24.87 1.45 1.79 4.353-1.934-1.112 1.5s.732.823.905.823l.013-.002c.146-.049 2.854-.629 2.854-.629l.048.387 3.095.92 2.03-1.21.05 1.015 2.61.726 2.08-2.273a8.53 8.53 0 0 0 .29 1.838c.146.048 2.854.483 2.854.483l.725-.725 3.966.63.242-.872 2.32.532 1.113-.726 3.676 1.113 1.402-1.209 2.273.92 1.644-1.5 4.74.87 1.305-1.354 3.579-.29.048-1.064 2.902-.58-2.273-2.515-2.756.145-.677-1.306-5.997.097-.257-.006c-.065 1.32-.15 2.983-.15 2.983l-16.027.11c-2.56-.054-14.358-.054-14.469-.444s-.501-2.671-.501-2.671l-.027-.685c-.753-.013-1.589-.017-2.314-.018" style="fill:#ffcc10"/></g><g style="clip-path:url(#clip-path-2)"><path d="m48.07 83.096-.018.185-9.498-.075.021.058 9.478.188.017-.356M32.485 77.09a1.021 1.021 0 0 0-.554.105c-.083.084-1.78 2.393-1.892 2.672s-.306.639-.334.723l.195.083c.111 0 4.73.084 4.73.084a38.633 38.633 0 0 0-1.808-3.645 2.494 2.494 0 0 0-.337-.022m-7.031-1.408c-1.382 0-2.614.014-2.677.039 0 0 .306.36.445.5a6.582 6.582 0 0 0 2.115.473h.047a15.64 15.64 0 0 0 3.96-.945c-.276-.046-2.196-.067-3.89-.067m22.95-.001a16.928 16.928 0 0 1-1.872.055c-1.243 0-2.636-.024-2.636-.024-.519 1.038-1.039 1.892-2.115 2.114a13.824 13.824 0 0 1-2.668.273 7.876 7.876 0 0 1-2.192-.273 11.064 11.064 0 0 1-2.003-.705 13.392 13.392 0 0 1 2.411 3.154c2.033.07 10.132.177 10.857.185l.218-4.78m-13.607-.043 1.141.5a9.918 9.918 0 0 0 1.67.418 3.772 3.772 0 0 0 .517.03 8.113 8.113 0 0 0 1.514-.141 4.3 4.3 0 0 0 1.308-.78l-6.15-.027m-4.379-6.65-11.54.099a8.237 8.237 0 0 1-.116.974 20.275 20.275 0 0 1-2.232 3.737l.349 8.946c.077 0 .152.003.227.004l-.172-2.074s2.249-.061 3.189-.061c.156 0 .277.002.344.006.274.016 2.133.032 3.886.032 1.283 0 2.509-.01 3.015-.032.056-.084 1.725-2.031 2.421-3.144a17.558 17.558 0 0 1-3.339.946 5.365 5.365 0 0 1-.817.057 8.937 8.937 0 0 1-3.106-.558 9.65 9.65 0 0 1-2.449-2.031 5.6 5.6 0 0 0-1.167-.058c-.895 0-1.977.03-1.977.03l-.084-.185-.111-2.115c.245-.005.488-.008.726-.008 1.427 0 2.666.082 2.762.082a4.098 4.098 0 0 1 3.71-2.412h.111a8.488 8.488 0 0 1 4.637 1.448 13.262 13.262 0 0 0 2.3 1.447c.088-.82.615-.993 1.234-.993.166 0 .338.012.51.028a2.316 2.316 0 0 1 1.41.63 12.285 12.285 0 0 1 5.565-2.411 8.448 8.448 0 0 1 .845-.041c1.231 0 2.422.256 2.754.709a3.004 3.004 0 0 1 .556 1.41 15.678 15.678 0 0 1 2.485.185l2.061 2.024.013-.282a19.657 19.657 0 0 1-1.849-1.834 16.55 16.55 0 0 1-1.983-4.207 3.793 3.793 0 0 0-.018-.191l-.436.14-9.953-.216-1.533.71-1.868-.783-.36-.008" style="fill:#fdc798"/><path d="m16.879 82.744.027.685s.389 2.282.5 2.67 11.91.39 14.469.446l16.027-.111s.086-1.662.15-2.982l-9.478-.188c.285.778.459 1.167.35 1.167a21.376 21.376 0 0 1-2.212.789.098.098 0 0 1-.051-.01 15.3 15.3 0 0 1-1.075-1.966c-.167.018-.666.025-1.323.025-1.981 0-5.393-.063-5.393-.063a9.072 9.072 0 0 1-1.04 2.19c-.11 0-2.818-.26-2.818-.52a9.834 9.834 0 0 1 .668-1.595c-.316.019-1.01.025-1.871.025-2.578 0-6.662-.062-6.662-.062l-.041-.496-.227-.004" style="fill:#fdc594"/></g><g style="clip-path:url(#clip-path-3)"><path d="M19.147 42.165a4.123 4.123 0 0 0-.55.193.83.83 0 0 0 .009.094 3.149 3.149 0 0 1-.01.326 5.207 5.207 0 0 1 .615-.282l-.064-.331m-17.631-1.64c.079.758.21 1.63.365 2.424a10.003 10.003 0 0 0 .606 2.174 7.533 7.533 0 0 0 1.087 1.407 37.08 37.08 0 0 1-.473-4.118c.04-.101.304-.142.607-.142a3.416 3.416 0 0 1 .85.101c.26.078 1.462.358 2.284.547a12.49 12.49 0 0 0-3.721-1.976 14.82 14.82 0 0 0-1.224-.338 8.498 8.498 0 0 0-.381-.08m16.398-1.753a.396.396 0 0 1-.09.011.38.38 0 0 1-.06-.005c-.107.311-.238.631-.13.72.04.034.125.12.228.23a8.334 8.334 0 0 0-.07-.098.571.571 0 0 1-.122-.329v-.021a.85.85 0 0 1 .244-.508m-5.054-5.379a6.034 6.034 0 0 0-.099.406 5.221 5.221 0 0 0-.069.517 35.477 35.477 0 0 0-.155 2.837c0 .154.004.282.01.363.056.717.11 1.21.11 1.211a.4.4 0 0 1-.193.39.406.406 0 0 1-.205.055.401.401 0 0 1-.229-.072 9.026 9.026 0 0 0-1.713-.843c-.648-.256-1.288-.469-1.694-.61a5.762 5.762 0 0 0-1.208-.23c-.142-.015-.275-.026-.392-.036a25.209 25.209 0 0 0 .561 4.131 27.262 27.262 0 0 0 .382 1.367.4.4 0 0 1-.148.447l3.258 4.025a44.976 44.976 0 0 1-1.74-6.274c.074-.446.829-.653 1.11-.653a.366.366 0 0 1 .063.005c.203.04 4.251 1.052 4.534 1.134s1.255.242 1.255.242c-1.619-1.578-2.226-1.741-2.267-2.024a28.967 28.967 0 0 1-.162-3.846c.054-.217.173-.296.324-.296a1.463 1.463 0 0 1 .648.256c.265.159 1.191.597 1.832.925a5.883 5.883 0 0 0-1.33-1.663c-.46-.38-1.053-.821-1.566-1.176a16.292 16.292 0 0 0-.682-.451 4.087 4.087 0 0 0-.235-.137" style="fill:#c4e3c7"/></g><path d="M8 50.427a23.83 23.83 0 0 1-4.292-3.238 36.727 36.727 0 0 1-.607-4.777c.081-.202 1.052-.162 1.457-.041s3.077.729 3.077.729l3.44 4.25a45.268 45.268 0 0 1-1.74-6.274c.081-.486.971-.688 1.174-.648s4.25 1.052 4.534 1.134 1.255.243 1.255.243c-1.619-1.58-2.227-1.741-2.268-2.024a29.163 29.163 0 0 1-.16-3.846c.12-.486.566-.284.97-.041s2.348 1.134 2.47 1.296.607.809.566 1.174-.402 1-.243 1.133.972 1.053.972 1.053-.04 1.619 0 1.902a63.343 63.343 0 0 1-.647 6.437 50.47 50.47 0 0 1-5.79 1.659C11.845 50.427 8 50.427 8 50.427" style="fill:#6ec38b"/><g style="clip-path:url(#clip-path-4)"><path class="cls-12" d="M50.47 65.856c.412.325.841.684 1.222 1.026.233-.072.379-.115.41-.122.079-.015.658-.147 1.423-.323a18.039 18.039 0 0 1-1.855.245.23.23 0 0 1-.089-.011c-.088-.048-.56-.402-1.111-.815m-44.665-.18c1.942.587 5.393 1.074 5.502 1.184a.55.55 0 0 0 .121.054l.116-.1c-.763-.128-3.988-.743-5.739-1.137m42.673-1.251c-.034 0-.176.01-.373.029a4.87 4.87 0 0 1 .833.335 5.919 5.919 0 0 1 .663.416 9.492 9.492 0 0 0-1.123-.78M5.919 63.96c-.739.197-1.64.47-1.395 1.068a.482.482 0 0 0 .167.184A4.61 4.61 0 0 1 5.92 63.96m1.983-13.553a.408.408 0 0 1-.11.097c.06.291.141.612.247.958-.247-.049-5.099-.891-5.594-.99a1.948 1.948 0 0 0-.375-.042c-.327 0-.579.123-.615.488-.049.495.693 1.584 2.08 3.019 0 0-1.733-.049-2.229-.098a.97.97 0 0 0-.094-.005c-.483 0-1.069.351-.698 1.094a9.165 9.165 0 0 0 3.763 2.921s-1.089.346-1.04.644 2.228 1.584 3.664 2.277a8.922 8.922 0 0 0-1.535 1.436 4.76 4.76 0 0 0 1.264 1.515 48.656 48.656 0 0 1 5.895-.99l.168-.001a4.131 4.131 0 0 1 2.323.45 1.997 1.997 0 0 1 .388 1.041v.002a.068.068 0 0 1-.003.028 1.718 1.718 0 0 1-.033.188 3.699 3.699 0 0 1 .573-.05h.08a2.742 2.742 0 0 1 1.87.643 2.971 2.971 0 0 1 .773 1.982 4.34 4.34 0 0 1 .23 1.465 17.108 17.108 0 0 1 2.682-.427h.025a.98.98 0 0 1 .201.018c.242.056 2.307.074 4.953.074l1.993-.003c-5.055-2.131-13.233-5.6-13.233-5.737 0-.198-1.435-.644-1.435-.644l1.138-2.475 4.357-1.189 3.002-3.888-.18.027-1.188 1.138c-.413 0-.766.022-1.07.022a1.353 1.353 0 0 1-1.356-.616 5.564 5.564 0 0 1-.446-2.426 5.087 5.087 0 0 1-2.124.43 3.607 3.607 0 0 1-.549-.034 3.12 3.12 0 0 1-1.139-1.386 4.828 4.828 0 0 1-.265-.646 16.703 16.703 0 0 1-2.064.311h-.024a.292.292 0 0 1-.133-.02 4.05 4.05 0 0 0-1.232-.1c-.884 0-1.91.051-1.91.051a24.28 24.28 0 0 1-.995-.552m31.107-.426a1.564 1.564 0 0 1-.286.485l.26-.142a1.469 1.469 0 0 0 .026-.343M26.233 47.21a5.437 5.437 0 0 0-.11.025 2.457 2.457 0 0 0-.16 1.852 4.126 4.126 0 0 0 1.484 1.733c-.216.558-1.508 1.078-2.46 1.078a2.05 2.05 0 0 1-.412-.038c-.247 1.782-.89 2.227-1.039 2.227-.094 0-.518.06-.822.102l3.693.096a23.677 23.677 0 0 1 2.565-2.03h.01c.19.048 3.814 1.194 4.268 1.194a.116.116 0 0 0 .04-.005c.197-.099 3.415-1.189 3.415-1.189l2.822 2.08 3.367.396 1.386 3.12s3.762.99 3.762 1.237.198 3.465.198 3.465L36.273 68.1c2.004-.016 3.393-.029 3.393-.029l4.766.206c-.095-.579-.167-1.125.008-1.213a3.638 3.638 0 0 1 1.716-2.437 4.022 4.022 0 0 1-.496-.18c.225-.47 2.512-1.49 3.165-1.654a6.102 6.102 0 0 1 1.107-.064 29.042 29.042 0 0 1 3.752.228c.592.143 4.063 1.286 4.492 1.796a1.377 1.377 0 0 1 .27.396 1.595 1.595 0 0 0 .142-.12 7.5 7.5 0 0 0-2.278-1.585s.264-.35.377-.35a.04.04 0 0 1 .02.004l.011.002a3.185 3.185 0 0 0 .93-.844c.048-.149-.348-.743-1.239-1.535a24.38 24.38 0 0 0 3.713-1.98c.15-.099-.099-.445-1.485-.842 0 0 1.287-.643 1.684-.792A7.614 7.614 0 0 0 62.5 54.68a.682.682 0 0 0 .067-.265v-.007c-.003-.365-.523-.445-1.537-.445-.394 0-.86.012-1.402.024 0 0 1.09-1.188 1.387-1.584.296-.396.742-1.683.395-1.93a1.096 1.096 0 0 0-.5-.07 30.886 30.886 0 0 0-5.738.911s.05-.446.15-1.04.296-1.287-.1-1.436a.953.953 0 0 0-.27-.024 32.226 32.226 0 0 0-5.59.842 1.562 1.562 0 0 1-.032 1.757 2.929 2.929 0 0 1-2.199 1.295 1.151 1.151 0 0 1-.623-.156c.167 1.665-.472 2.911-2.035 2.911a3.928 3.928 0 0 1-.984-.139 4.217 4.217 0 0 0-.743-.743 7.764 7.764 0 0 1-.99-1.832 4.538 4.538 0 0 1-.953.08 11.253 11.253 0 0 1-3.404-.476c-.347-.247-.792-1.039-.495-1.039a2.358 2.358 0 0 0 .62-.232 9.531 9.531 0 0 1-1.87.205 2.822 2.822 0 0 1-2.018-.567 6.177 6.177 0 0 1-.792-1.04 3.465 3.465 0 0 1-2.227 1.189 5.01 5.01 0 0 1-.964.087 4.117 4.117 0 0 1-3.096-1.177 2.338 2.338 0 0 1-.323-2.57"/><path d="M39.667 68.07s-1.39.013-3.394.03l-2.094.97 9.952.215.437-.14c-.031-.258-.086-.568-.136-.869l-4.765-.206M21.6 68.052h-.025a17.105 17.105 0 0 0-2.682.427c.002.206-.004.411-.016.608l11.54-.099.36.008a841.598 841.598 0 0 1-2.03-.855l-1.992.003c-2.646 0-4.712-.019-4.953-.074a.911.911 0 0 0-.202-.018" style="fill:#00824a"/><path class="cls-12" d="M14.104 50.097a12.433 12.433 0 0 1-1.885.458.157.157 0 0 1-.05-.006c-.324-.122-4.17-.122-4.17-.122a1.427 1.427 0 0 1-.083-.04l-.014.019c.453.262.826.469.994.553 0 0 1.027-.052 1.91-.052a4.104 4.104 0 0 1 1.234.1.27.27 0 0 0 .132.02h.025a16.723 16.723 0 0 0 2.063-.31 4.611 4.611 0 0 1-.156-.62"/><path d="M7.965 48.639c-.231 0-.351.41-.285 1.133h.002a.4.4 0 0 1 .29.487.38.38 0 0 1-.056.127c.033.017.06.031.083.04 0 0 3.846 0 4.17.122a.16.16 0 0 0 .05.006 12.46 12.46 0 0 0 1.885-.458 4.077 4.077 0 0 1-.057-.484 7.31 7.31 0 0 1-.776.054 1.075 1.075 0 0 1-.33-.035 35.765 35.765 0 0 0-4.95-.99.118.118 0 0 0-.026-.003" style="fill:#00834a"/></g><g style="clip-path:url(#clip-path-5)"><path d="M37.218 7.956c-.02 3.522-1.059 9.218-4.012 9.218a2.469 2.469 0 0 1-.405-.034c-3.684-.614-4.897-3.088-5.38-6.998l.07 8.649c.267.761.421 1.6.628 2.4.587 2.275-.08 11.43-3.825 11.43a2.47 2.47 0 0 1-.404-.035 5.567 5.567 0 0 1-4.827-4.25l-.082.105c-.107-.305-.18-.425-.233-.425-.144-.001-.127.895-.164 1.366-.008.11-.012.432-.014.89a7.694 7.694 0 0 1 .015.941l-.016.115c.002 2.541.023 6.64-.084 6.817a5.037 5.037 0 0 1-.265.295.408.408 0 0 1-.046.135 7.087 7.087 0 0 1 .442.922c.042.17.278 1.37.53 2.669a4.162 4.162 0 0 1 1.06-.174 1.082 1.082 0 0 1 .408.064A4.172 4.172 0 0 1 22.2 43.69a8.61 8.61 0 0 1 .775-.334 2.708 2.708 0 0 1 1.386-.417 1.613 1.613 0 0 1 .165.008l.02.079.084.003a3.002 3.002 0 0 1 .094-1.121 2.56 2.56 0 0 1 1.678-1.661 2.14 2.14 0 0 1 .996-.27 4.342 4.342 0 0 1 .545.017 5.527 5.527 0 0 1 2.376.577c.594-1.832 1.387-2.327 2.673-2.476a4.74 4.74 0 0 1 .525-.028 4.952 4.952 0 0 1 3.04.92 4.25 4.25 0 0 1 .636 2.363 1.348 1.348 0 0 0 .412.337 8.328 8.328 0 0 1 .968.131 2.455 2.455 0 0 1 2.242 1.773l.116-.003a1.751 1.751 0 0 1 1.715 1.191 3.609 3.609 0 0 1 .866-.612 3.21 3.21 0 0 1 1.778-.609h.05a2.41 2.41 0 0 1 .43.043c.054-1.969.194-3.179.194-3.179a6.99 6.99 0 0 0 .891-1.089c0-.148-.99-.84-1.04-1.188s0-11.585 0-11.585l-.068-.079c-.378 3.179-1.626 6.195-3.953 6.195a2.923 2.923 0 0 1-.477-.04c-4.102-.684-5.14-3.672-5.52-8.382-.198-2.45.427-5.474 2.138-7.062-.06-1.199-.445-8.783-.536-9.148-.008-.03-.071-.059-.181-.087" style="fill:#2ab34d"/><path d="M18.175 38.574a.404.404 0 0 1-.212.183.285.285 0 0 1-.05.014.862.862 0 0 0-.244.509v.02a.586.586 0 0 0 .124.33l.069.097c.295.315.743.823.743.823s-.034 1.365-.008 1.808a4.24 4.24 0 0 1 .55-.193 167.866 167.866 0 0 0-.53-2.668 7.236 7.236 0 0 0-.442-.923" style="fill:#27b34c"/><path d="m18.39 42.49-.003.011.001.009.002-.02m-.528-2.763a7.62 7.62 0 0 1 .624 1.14s-.079 1.434-.096 1.623a.505.505 0 0 1 .207-.132c-.025-.442.009-1.808.009-1.808s-.448-.508-.744-.823" style="fill:#21b24c"/></g><g style="clip-path:url(#clip-path-6)"><path class="cls-20" d="M23.345 16.048h-.067c-3.806.027-5.19 4.67-4.908 8.155a19.27 19.27 0 0 0 .694 4.133c.212-.266.82-1.025 1.635-2q-.05-.325-.074-.66a21.355 21.355 0 0 1 0-3.51c0-2.099.845-3.997 2.614-3.997h.084c1.805.06 2.222 1.19 2.486 2.589a12.816 12.816 0 0 1 1.688-1.378l-.005-.59c-.52-1.48-1.466-2.673-4.058-2.74l-.09-.002"/><path class="cls-21" d="m27.492 18.79.005.59a12.75 12.75 0 0 0-1.687 1.377l.009.05c.264 1.42.629 5.822.1 7.283-.452 1.255-.786 2.241-1.875 2.262h-.07a2.558 2.558 0 0 1-.53-.071c-1.425-.329-2.44-1.975-2.744-3.945-.816.975-1.423 1.733-1.636 2a5.567 5.567 0 0 0 4.827 4.25 2.47 2.47 0 0 0 .404.034c3.745 0 4.412-9.155 3.824-11.43-.206-.8-.36-1.638-.627-2.4"/></g><g style="clip-path:url(#clip-path-7)"><path class="cls-23" d="M23.24 18.168c-1.77 0-2.615 1.9-2.615 3.998a21.23 21.23 0 0 0 0 3.51c.016.223.041.444.074.66a69.022 69.022 0 0 1 5.11-5.578c-.264-1.398-.68-2.528-2.486-2.589l-.084-.001"/><path class="cls-23" d="M25.81 20.758a68.85 68.85 0 0 0-5.11 5.579c.304 1.969 1.318 3.616 2.744 3.945a2.552 2.552 0 0 0 .53.07h.07c1.088-.02 1.422-1.006 1.876-2.261.527-1.461.162-5.864-.102-7.284l-.009-.05"/></g><g style="clip-path:url(#clip-path-8)"><path class="cls-20" d="M32.256.602h-.067c-3.465.025-4.922 3.874-4.943 7.194v.147c.002.276.014.549.035.815.04.479.084.94.14 1.384L27.396 7.4s.868.022 2.093.062c.02-.36.046-.589.046-.742 0-2.099.846-3.998 2.614-3.998l.084.001c1.826.061 2.232 1.217 2.496 2.637.093.501.2 1.374.273 2.357a16.721 16.721 0 0 1 2.214.24 9.62 9.62 0 0 0-.187-2.213c-.607-2.355-.759-5.039-4.685-5.141l-.089-.001"/><path class="cls-21" d="m27.398 7.4.023 2.742c.483 3.91 1.696 6.383 5.38 6.997a2.367 2.367 0 0 0 .406.035c2.953 0 3.992-5.695 4.01-9.217a16.779 16.779 0 0 0-2.213-.24c.057.746.095 1.557.097 2.318v.112a8.516 8.516 0 0 1-.27 2.497c-.457 1.269-.793 2.262-1.91 2.262a2.519 2.519 0 0 1-.564-.07c-1.583-.366-2.658-2.354-2.821-4.606a21.067 21.067 0 0 1-.046-2.768c-1.224-.04-2.092-.062-2.092-.062"/></g><g style="clip-path:url(#clip-path-9)"><path class="cls-23" d="M32.15 2.721c-1.768 0-2.614 1.9-2.614 3.998 0 .153-.025.382-.046.743 1.609.053 3.834.14 5.514.254-.075-.983-.181-1.855-.274-2.356-.263-1.42-.67-2.577-2.495-2.638h-.084"/><path class="cls-23" d="M29.49 7.462a21.054 21.054 0 0 0 .046 2.767c.162 2.252 1.238 4.24 2.82 4.606a2.519 2.519 0 0 0 .564.07c1.117 0 1.453-.993 1.912-2.262a8.552 8.552 0 0 0 .269-2.497v-.112c-.002-.76-.041-1.57-.097-2.318-1.68-.114-3.905-.2-5.514-.254"/></g><g style="clip-path:url(#clip-path-10)"><path class="cls-20" d="M40.737 16.098a4.003 4.003 0 0 0-2.803 1.094c.007.103.009.159.009.159l1.242 1.453a2.092 2.092 0 0 1 1.48-.586h.085c1.826.062 2.232 1.218 2.496 2.638a28.373 28.373 0 0 1 .32 3.073l2.18 2.55a15.658 15.658 0 0 0-.2-5.24c-.577-2.361-.76-5.038-4.684-5.14l-.124-.001"/><path class="cls-21" d="M37.935 17.192c-1.711 1.588-2.336 4.61-2.138 7.062.379 4.71 1.418 7.698 5.52 8.382a2.924 2.924 0 0 0 .477.04c2.327 0 3.574-3.016 3.953-6.195l-2.181-2.552c.03.533.049 1.079.05 1.602v.112a8.518 8.518 0 0 1-.27 2.497c-.454 1.26-.79 2.25-1.89 2.262h-.041a2.559 2.559 0 0 1-.543-.07c-1.583-.366-2.658-2.354-2.82-4.606a25.23 25.23 0 0 1-.072-1.782v-.085c.002-.926.072-1.39.072-1.643a4.758 4.758 0 0 1 1.133-3.412l-1.242-1.453-.008-.16"/></g><g style="clip-path:url(#clip-path-11)"><path class="cls-23" d="M40.666 18.217a2.092 2.092 0 0 0-1.481.587l4.38 5.125a27.843 27.843 0 0 0-.32-3.073c-.263-1.42-.67-2.577-2.495-2.638h-.084"/><path class="cls-23" d="M39.185 18.804a4.758 4.758 0 0 0-1.133 3.412c0 .253-.07.717-.072 1.643v.085c0 .47.019 1.054.072 1.782.162 2.252 1.237 4.24 2.82 4.605a2.5 2.5 0 0 0 .543.07h.04c1.102-.011 1.437-1 1.892-2.261a8.518 8.518 0 0 0 .269-2.497v-.112c-.001-.523-.02-1.07-.05-1.602l-4.381-5.125"/></g><g style="clip-path:url(#clip-path-12)"><path d="M64.742 32.644h-.001m-1.514-6.522c-.146.017-.43.035-.717.067a4.22 4.22 0 0 0-.402.058l-.063.016a5.56 5.56 0 0 0-.137.26 28.255 28.255 0 0 0-.941 2.082c-.098.25-.332.717-.644 1.317-.466.895-1.097 2.06-1.627 3.032-.528.969-.964 1.762-1.015 1.866-.083.167-.284.568-.511.977a5.51 5.51 0 0 1-.71 1.063c-.064.064-.25.282-.466.549-.331.405-.758.94-1.12 1.38-.181.22-.345.416-.478.563l-.177.187-.084.073a.412.412 0 0 1-.173.082l-.013.006c-.041.017-.127.068-.22.118l-.154.075a.615.615 0 0 1-.23.05l-.236-.07-.17-.22c-.058-.176-.538-1.724-.712-2.275a.968.968 0 0 1-.553-.484 2.18 2.18 0 0 0-.395.116.956.956 0 0 0-.217.137l-.016.019v.004c.049.165.245.959.444 1.77.198.809.39 1.605.42 1.74a5.683 5.683 0 0 1 .174 1.088.834.834 0 0 1-.086.408h-.001a10.35 10.35 0 0 1-.387.587 19.057 19.057 0 0 1-3.188 3.659.352.352 0 0 1-.222.078.362.362 0 0 1-.167-.041l-.03.063a.37.37 0 0 1-.01.088 2.645 2.645 0 0 1-.395.792l.247.446a6.886 6.886 0 0 1 .882.569c.05-.048.166-.167.289-.31.496-.57 1.318-1.62 1.78-2.146.59-.67 1.816-2.305 2.409-3.01.154-.183.426-.53.75-.952a1.1 1.1 0 0 1 .774-1.023c.697-.934 1.413-1.926 1.703-2.398l.07-.082.227-.128c.255-.103.664-.211 1.182-.372a14.877 14.877 0 0 0 1.72-.634 21.15 21.15 0 0 0 2.96-1.925 48.749 48.749 0 0 0 1.479-1.14c.409-.328.72-.6.815-.7a3.283 3.283 0 0 0 .408-.511.937.937 0 0 0 .106-.222 1.647 1.647 0 0 0-.63-.2h-.017l-.037.004c-.112.104-.395.39-.694.687a12.237 12.237 0 0 1-.957.88 9.852 9.852 0 0 1-.756.486 64.676 64.676 0 0 1-2.436 1.39c-.094.05-.171.09-.233.12l-.085.039a.415.415 0 0 1-.124.036h-.001c-.02.003-.173.054-.316.1a1.816 1.816 0 0 1-.486.105.449.449 0 0 1-.212-.048l-.15-.134-.061-.211.006-.07a.695.695 0 0 1 .066-.184 6.762 6.762 0 0 1 .397-.644c.16-.237.324-.467.424-.598a4.092 4.092 0 0 0 .218-.36c.304-.54.774-1.474.882-1.747a8.47 8.47 0 0 1 .315-.638c.447-.85 1.23-2.262 1.49-2.785v-.001c.169-.333.447-1.02.694-1.645l.338-.855c.084-.21.146-.366.193-.47" style="fill:#e6a766"/></g><path d="M18.337 33.243a36.293 36.293 0 0 1-3.119-4.703 22.085 22.085 0 0 1-.99-2.327 36.495 36.495 0 0 0-3.812-1.782c-.644-.248-1.634-.644-1.634-.644l-.049-1.238s2.772.397 3.267.495 1.782.495 1.782.495c-.396-2.129-.495-4.703-.594-4.95s-1.287-3.268-1.287-3.268a35.29 35.29 0 0 1-4.01-2.97 16.098 16.098 0 0 1-2.327-2.823c.1-.148.742-.792.891-.643s3.02 2.376 3.465 2.822a6.862 6.862 0 0 0 1.634.94c-.445-2.08-1.188-6.832-1.188-7.327s-.198-3.218.05-3.218 1.534.347 1.485.644A39.636 39.636 0 0 0 12.1 7.35c.148.792 1.238 6.238 1.485 7.129a17.747 17.747 0 0 0 .644 1.832 8.113 8.113 0 0 1 2.624-3.119c.247-.05.99.099.99.248a4.71 4.71 0 0 1-.495 1.485c-.248.346-1.436 2.921-1.535 3.168a8.686 8.686 0 0 0-.644 1.387c0 .247.446 3.267.545 3.763a15.135 15.135 0 0 0 .743 2.871c.247.297 1.733 1.88 1.881 2.178a14.253 14.253 0 0 1 .248 2.921c-.05.347-.248 2.03-.248 2.03" style="fill:#e5a663"/><g style="clip-path:url(#clip-path-13)"><path class="cls-32" d="M20.188 42.299h-.041a2.76 2.76 0 0 0-.936.197c.307 1.58.615 3.192.615 3.192L18.274 48.9l.914-.181c-.053-.3-.014-.55.155-.655.22-.138.338-.22.466-.22a.66.66 0 0 1 .35.148 1.575 1.575 0 0 0 .636.273c.064 0 .085-.031.035-.105-.143-.216-.407-1.248-.072-1.416a1.5 1.5 0 0 1 .626-.152.44.44 0 0 1 .334.105 2.865 2.865 0 0 1 .312.575s.552-.935.696-.959l.008-.001h.006c.15.005.469.45.585.984a3.898 3.898 0 0 1 .07.539c.955-.207 1.88-.412 2.728-.601a3.012 3.012 0 0 1 .582-.822 6.08 6.08 0 0 1-1.55-1.903 4.18 4.18 0 0 1-.32-.647 5.932 5.932 0 0 1-.29-.836l-.031-.001a4.504 4.504 0 0 0-1.54.331 2.827 2.827 0 0 0-.626.532c-.53-.283-.884-1.575-2.16-1.589"/><path d="M19.21 42.496a5.27 5.27 0 0 0-.612.282c-.072 1.315-.497 6.039-.64 6.11a9.91 9.91 0 0 1-.471.163c.256-.048.519-.099.787-.151l1.552-3.212s-.31-1.611-.615-3.192" style="fill:#ed3c5b"/><path d="M18.597 42.778a7.83 7.83 0 0 0-.458.267A2.936 2.936 0 0 0 17 46.907a3.3 3.3 0 0 0-2.326.841 2.265 2.265 0 0 0-.627 1.863c.832-.092 2.044-.296 3.439-.56.271-.089.444-.149.471-.163a61.157 61.157 0 0 0 .64-6.11" style="fill:#eb3c5a"/><path class="cls-35" d="M26.123 47.233c-.848.19-1.773.394-2.728.602a4.921 4.921 0 0 1-.022 1.092c-.048.144-.144.695-.504.863a5.405 5.405 0 0 1-2.06.466 1.347 1.347 0 0 1-1.058-.346 2.82 2.82 0 0 1-.563-1.192c-.31.062-.615.123-.914.181l-.528 1.092s-1.881.42-3.486.725a4.759 4.759 0 0 0 .266.647 3.12 3.12 0 0 0 1.138 1.386 3.66 3.66 0 0 0 .55.032 5.091 5.091 0 0 0 2.124-.429 5.564 5.564 0 0 0 .445 2.427 1.353 1.353 0 0 0 1.356.616c.305 0 .657-.022 1.07-.022l1.188-1.139.18-.026.018-.023.12.003c.303-.044.728-.102.82-.102.149 0 .793-.446 1.04-2.228a2.035 2.035 0 0 0 .412.04c.952 0 2.245-.522 2.46-1.079a4.119 4.119 0 0 1-1.485-1.734 2.457 2.457 0 0 1 .16-1.852"/><path class="cls-35" d="M18.274 48.9c-.268.052-.531.103-.787.151-.733.242-2.181.699-3.383 1.046a4.604 4.604 0 0 0 .156.62 132.14 132.14 0 0 0 3.486-.725l.528-1.092"/><path class="cls-35" d="M17.486 49.051c-1.395.264-2.607.468-3.439.56a4.335 4.335 0 0 0 .056.486c1.203-.347 2.65-.805 3.383-1.046"/><path class="cls-36" d="M24.36 42.938a2.72 2.72 0 0 0-1.386.417 4.52 4.52 0 0 1 1.539-.33h.032l-.019-.079a1.649 1.649 0 0 0-.166-.008"/></g><g style="clip-path:url(#clip-path-14)"><path d="M33.994 38.192h-.034a3.796 3.796 0 0 0-3.642 2.378 10.44 10.44 0 0 0-2.376-.577H27.9a4.35 4.35 0 0 0-1.498.253c-.697.401-1.212 1.271-1.628 2.8a.998.998 0 0 0-.144-.018 3.214 3.214 0 0 0 .206.834 6.83 6.83 0 0 0 .32.647 6.915 6.915 0 0 0 1.746 1.853 2.068 2.068 0 0 0-.669.846c2.389-.535 4.135-.945 4.135-.945l8.24 1.49a2.315 2.315 0 0 0-.22-.549c.06-.012.12-.026.177-.04a1.036 1.036 0 0 0-.028-.059c.092-.002.182-.006.268-.014a3.665 3.665 0 0 0 1.984-1.696 3.356 3.356 0 0 0 .062-.66v-.016a4.914 4.914 0 0 0-.334-1.723 1.447 1.447 0 0 0-.085-.182 2.958 2.958 0 0 0-1.86-.997 4.33 4.33 0 0 0-.411-.019c-.165 0-.268.01-.268.01a1.5 1.5 0 0 1-.288-.122q-.198-.016-.405-.027a7.59 7.59 0 0 0-.008-.309 1.018 1.018 0 0 1-.091-.137 3.411 3.411 0 0 0-2.525-2.97 3.263 3.263 0 0 0-.582-.05" style="fill:#f05a77"/><path d="M30.368 46.264s-1.746.41-4.135.945a2.338 2.338 0 0 0 .323 2.57 4.118 4.118 0 0 0 3.096 1.177 4.986 4.986 0 0 0 .964-.088 3.463 3.463 0 0 0 2.228-1.188 6.108 6.108 0 0 0 .792 1.04 2.819 2.819 0 0 0 2.017.566 9.523 9.523 0 0 0 1.869-.204c.406-.192.904-.456 1.2-.617a1.587 1.587 0 0 0 .288-.484 9.684 9.684 0 0 0-.402-2.23l-8.24-1.488" style="fill:#eb5774"/><path d="M38.572 41.818a2.962 2.962 0 0 1 1.86.996 2.283 2.283 0 0 0-1.86-.996m-1.38-.468c.006.138.008.247.008.309q.207.01.405.027a1.335 1.335 0 0 1-.413-.336m-10.79-1.103a2.557 2.557 0 0 0-1.678 1.66 2.966 2.966 0 0 0-.094 1.122.808.808 0 0 1 .143.017c.417-1.529.931-2.399 1.63-2.799m1.54-.254a10.502 10.502 0 0 1 2.375.577 5.528 5.528 0 0 0-2.376-.577" style="fill:#ec5975"/><path d="M24.836 43.862a4.176 4.176 0 0 0 .32.647 7.078 7.078 0 0 1-.32-.647" style="fill:#f05574"/></g><g style="clip-path:url(#clip-path-15)"><path class="cls-32" d="M40.814 43.59s.05.842.1 1.535a1.858 1.858 0 0 1-.125.271 2.012 2.012 0 0 1-1.984 1.695 4.25 4.25 0 0 1-.239.072c.103.211.194.422.272.63L49.28 49.68l.081-.023a4.21 4.21 0 0 0-.358-.579.367.367 0 0 1-.108.017.357.357 0 0 1-.31-.53 7.324 7.324 0 0 0-.74-.716s-.149-.05-.248-.446l.406-.88a.772.772 0 0 0-.002-.082.35.35 0 0 1-.08-.074.355.355 0 0 1-.026-.407 4.327 4.327 0 0 0-1.338-2.022 1.945 1.945 0 0 0-.787-.337 11.47 11.47 0 0 0-.005.188 2.562 2.562 0 0 0-.487-.04 3.986 3.986 0 0 0-1.766.418 4.496 4.496 0 0 0-.916.86 2.617 2.617 0 0 0-1.782-1.436"/><path class="cls-35" d="M38.838 47.794a3.227 3.227 0 0 1 .172 2.187 1.518 1.518 0 0 1-.028.343s-.101.056-.259.142a1.98 1.98 0 0 1-1.127.6 2.17 2.17 0 0 1-.074.016 2.337 2.337 0 0 1-.619.232c-.297 0 .149.792.495 1.039a11.252 11.252 0 0 0 3.404.475 4.607 4.607 0 0 0 .953-.078 7.775 7.775 0 0 0 .99 1.83 4.214 4.214 0 0 1 .743.744 3.94 3.94 0 0 0 .985.139c1.562 0 2.201-1.246 2.034-2.911a1.144 1.144 0 0 0 .623.156 2.932 2.932 0 0 0 2.2-1.295 1.563 1.563 0 0 0 .031-1.757l-.081.024-10.442-1.886"/><path class="cls-36" d="M45.34 43.558h-.05a3.187 3.187 0 0 0-1.778.609 3.972 3.972 0 0 1 1.766-.42 2.594 2.594 0 0 1 .487.04l.004-.186a2.313 2.313 0 0 0-.43-.043"/><path d="m48.003 46.522-.406.88a2.657 2.657 0 0 0 .395-.792.37.37 0 0 0 .011-.088" style="fill:#ef3959"/><path class="cls-44" d="M38.566 47.163q-.087.022-.177.042a2.287 2.287 0 0 1 .219.547l.23.042a6.82 6.82 0 0 0-.272-.631m2.223-1.767a3.657 3.657 0 0 1-1.984 1.695 2.01 2.01 0 0 0 1.984-1.695M38.723 50.465a26.25 26.25 0 0 1-1.201.616l.074-.015a1.981 1.981 0 0 0 1.127-.601m-.115-2.713a9.686 9.686 0 0 1 .402 2.229 3.227 3.227 0 0 0-.172-2.187l-.23-.042"/></g><g style="clip-path:url(#clip-path-16)"><path d="m30.777 68.996 1.868.784 1.534-.71-3.402-.074" style="fill:#ffe900"/><path class="cls-47" d="M28.975 52.253h-.003a23.555 23.555 0 0 0-2.565 2.031l-3.693-.096-.137.02-3.002 3.888-4.357 1.188-1.138 2.475s1.435.446 1.435.644c0 .137 8.178 3.606 13.233 5.738 2.584-.007 5.4-.026 7.525-.043l11.968-5.546s-.199-3.218-.199-3.466-3.762-1.238-3.762-1.238l-1.386-3.119-3.367-.396-2.822-2.079s-3.218 1.09-3.416 1.188a.091.091 0 0 1-.039.006c-.454 0-4.078-1.147-4.268-1.194h-.007"/><path class="cls-47" d="M36.273 68.099c-2.125.016-4.941.035-7.525.042l1.831.772.198.083 3.402.074 2.094-.971M22.595 54.185l-.018.023.137-.02-.119-.003"/></g><g style="clip-path:url(#clip-path-17)"><path d="M16.229 70.109c-.19.284-1.732 3.536-2.777 5.387.094-.451 1.186-3.797 1.423-4.651a6.892 6.892 0 0 1 1.353-.736m-4.8-3.195-.115.1a32.464 32.464 0 0 0-4.352 5.949 13.72 13.72 0 0 1 1.596-.63c.193 0 1.837-.29 4.304-.821 0 0-.436 3.82-.436 4.4 0 .55.174 1.362.316 1.362a.041.041 0 0 0 .024-.008c.144-.096 2.707-2.127 3.094-2.562.106-.118.357-.458.67-.905l-.18-4.616a6.33 6.33 0 0 1 1.337-.42c-.905-.259-2.212-.632-3.406-.98-1.356.781-3.6 2.2-5.954 3.869A19.538 19.538 0 0 1 13 67.407a34.45 34.45 0 0 1-1.571-.493" style="fill:#6dc067"/><path d="M17.686 68.762a6.309 6.309 0 0 0-1.336.421l.18 4.615a20.234 20.234 0 0 0 2.23-3.737 8.008 8.008 0 0 0 .118-.975l-.045.001-1.147-.325" style="fill:#6ebf65"/><path class="cls-51" d="M16.021 64.389h-.08a3.687 3.687 0 0 0-.572.05 2.276 2.276 0 0 1-.393.967c-.184.122-3.308 1.428-3.308 1.428a6.44 6.44 0 0 1-.124-.02l-.115.099c.244.091.829.272 1.571.494a23.202 23.202 0 0 1 2.991-1.831 4.023 4.023 0 0 1 1.137-.357h.036a.52.52 0 0 1 .37.142.16.16 0 0 1 .048.111v.014c-.016.446-1.477 1.403-2.184 1.703a12.643 12.643 0 0 0-1.119.594c1.195.349 2.501.722 3.407.979.369-.093.785-.191 1.207-.283a4.336 4.336 0 0 0-.229-1.465 2.973 2.973 0 0 0-.773-1.983 2.737 2.737 0 0 0-1.87-.642"/><path class="cls-51" d="M18.893 68.479c-.423.092-.839.19-1.208.283l1.148.325h.045c.013-.198.019-.402.016-.608"/></g><path class="cls-52" d="M50.389 77.266c-.822-.919-3.29-2.998-3.82-3.724a16.534 16.534 0 0 1-1.983-4.207c-.05-.724-.435-2.127-.145-2.272a3.44 3.44 0 0 1 2.273-2.66 3.192 3.192 0 0 1 2.224.386 16.624 16.624 0 0 1 3.918 3.338c.386.726 3.336 5.029 3.336 5.029a38.52 38.52 0 0 0-4.691-1.5c-.241-.096-1.112-.385-1.112-.241a20.871 20.871 0 0 1 .435 4.74 3.908 3.908 0 0 1-.435 1.111"/><g style="clip-path:url(#clip-path-18)"><path d="M48.185 80.46c-.037.834-.06 1.368-.06 1.41 0 .073-.024.577-.055 1.227a19.193 19.193 0 0 0 .166-2.635c-.004 0-.022-.002-.05-.002m.218-4.801v.022l.017-.005-.017-.018" style="fill:#ee243b"/><path class="cls-55" d="M34.63 80.757s-4.619-.083-4.73-.083l-.195-.084c.028-.083.222-.445.334-.723s1.808-2.588 1.892-2.67a1.01 1.01 0 0 1 .553-.107 2.668 2.668 0 0 1 .337.022 38.639 38.639 0 0 1 1.808 3.645m-9.246-4.06-.047-.002a6.633 6.633 0 0 1-2.114-.473c-.14-.139-.446-.5-.446-.5.063-.026 1.295-.04 2.678-.04 1.693 0 3.613.021 3.89.067a15.593 15.593 0 0 1-3.96.947m12.741-.11a3.786 3.786 0 0 1-.518-.03 9.935 9.935 0 0 1-1.67-.418l-1.14-.5 6.15.028a4.305 4.305 0 0 1-1.309.78 8.195 8.195 0 0 1-1.513.14m-14.139-5.364h-.049a4.098 4.098 0 0 0-3.71 2.413c-.096 0-1.336-.081-2.763-.081-.238 0-.48.001-.725.006l.111 2.115.083.185s1.082-.03 1.977-.03a5.586 5.586 0 0 1 1.167.058 9.65 9.65 0 0 0 2.45 2.031 8.939 8.939 0 0 0 3.105.558 5.223 5.223 0 0 0 .817-.056 17.502 17.502 0 0 0 3.34-.947c-.696 1.114-2.366 3.062-2.422 3.145-.505.024-1.732.032-3.015.032-1.753 0-3.612-.016-3.885-.032a6.736 6.736 0 0 0-.345-.007c-.94 0-3.189.062-3.189.062l.172 2.073a9.425 9.425 0 0 1 1.946.13l19.523.386-.02-.057 9.497.075.02-.185c.03-.648.054-1.154.054-1.226 0-.042.023-.576.06-1.41-.724-.008-8.824-.113-10.856-.185a13.39 13.39 0 0 0-2.412-3.153 11.184 11.184 0 0 0 2.004.705 7.906 7.906 0 0 0 2.191.272 13.847 13.847 0 0 0 2.67-.272c1.074-.223 1.594-1.077 2.113-2.115 0 0 1.394.024 2.636.024a16.68 16.68 0 0 0 1.872-.055l.001-.023-2.06-2.024a15.684 15.684 0 0 0-2.486-.185 3.005 3.005 0 0 0-.556-1.41c-.332-.453-1.523-.709-2.754-.709-.283 0-.568.014-.845.042a12.287 12.287 0 0 0-5.565 2.412 2.31 2.31 0 0 0-1.41-.631 5.523 5.523 0 0 0-.509-.028c-.62 0-1.147.172-1.234.992a13.259 13.259 0 0 1-2.3-1.446 8.49 8.49 0 0 0-4.638-1.447c-.02-.002-.04-.002-.06-.002"/><path class="cls-55" d="m17.106 82.748.04.496s4.086.062 6.663.062c.862 0 1.555-.007 1.87-.025a9.836 9.836 0 0 0-.667 1.595c0 .26 2.708.52 2.82.52a9.113 9.113 0 0 0 1.039-2.19s3.41.063 5.392.063c.657 0 1.157-.007 1.323-.025a15.306 15.306 0 0 0 1.075 1.966.114.114 0 0 0 .05.009 21.394 21.394 0 0 0 2.214-.788c.108 0-.066-.39-.35-1.167l-19.523-.387a9.349 9.349 0 0 0-1.946-.13"/></g><path class="cls-56" d="M19.091 28.918c.341.794.59 1.423.671 1.665a18.224 18.224 0 0 1 .134 2.469c0 .778.027 4.75.054 5.1s1.02.939 1.906 1.1a21.63 21.63 0 0 0 4.724-.134c1.02-.188.456.456-.081.698a10.451 10.451 0 0 1-3.784.483 16.212 16.212 0 0 1-3.222-.778c-.429-.242-1.019-.323-.939-.618s-.027-8.75-.054-9.126a23.528 23.528 0 0 1 .027-2.416 9.51 9.51 0 0 1 .564 1.557M27.627 11.282c.027.644.107 7.972.107 8.321s.698 1.315.94.698a53.115 53.115 0 0 0 .053-6.174c-.456-1.127-1.1-2.845-1.1-2.845M29.48 22.932a6.546 6.546 0 0 0 3.301.832 14.262 14.262 0 0 0 2.819-.698c.457-.08.617.939.376 1.1a8.723 8.723 0 0 1-2.953.564c-1.047-.027-3.624-.08-4.08-.751s-.537-.86-.376-.913.618-.322.913-.134M36.164 27.387c.027.322-.027 11.032 0 11.166a5.143 5.143 0 0 0 2.523 1.477c1.397.268 4.403.456 5.638-.054s1.663-.832 1.636-1.154-.08-.913-.08-.913a3.958 3.958 0 0 1-.912.537 10.165 10.165 0 0 1-4.483.805c-1.906-.188-2.523-.402-2.898-.886s-.27-1.583-.27-2.979-.213-5.556-.187-5.852a12.312 12.312 0 0 0-.805-2.013ZM18.556 40.325c.43.35 1.315.43 1.449.537s-.053 1.181-.053 1.181a8.175 8.175 0 0 0-1.53.778c.054-1.556.134-2.496.134-2.496"/><path class="cls-57" d="M2.369 40.566c1.198.737 3.087 2.577 4.429 3.677s1.799 1.235 1.476.484a8.225 8.225 0 0 0-1.181-2.013 18.747 18.747 0 0 0-3.435-2.04c-.752-.162-1.638-.323-1.29-.108M6.932 37.533c1.113.583 4.053 1.825 4.671 2.255a6.184 6.184 0 0 0 1.959 1.208c.644.107 2.174.563 1.852.134a16.93 16.93 0 0 0-3.623-2.577A10.637 10.637 0 0 0 8.65 37.48c-1.155-.16-2.281-.24-1.718.054M13.16 33.56c.403.457 1.557 1.773 2.174 2.417a10.958 10.958 0 0 0 1.826 1.745c.241.026-.108-1.074-.591-1.718a17.125 17.125 0 0 0-2.872-2.523c-.457-.242-.832-.323-.752-.215s.215.295.215.295M14.959 51.758c.813.616 1.422.322 1.18-.188s-.993-1.718-.617-2.308a2.847 2.847 0 0 1 1.772-.913c.43-.08.779-.885.672-1.341s-.27-2.175.965-2.55 2.309-.805 2.846-.268.913.483 1.208.295a6.758 6.758 0 0 1 1.395-.86c.162-.858.08-1.02.08-1.02a6.938 6.938 0 0 0-2.12 1.102c-1.342-1.344-2.442-1.934-4.402-.619a2.615 2.615 0 0 0-.966 3.785 2.79 2.79 0 0 0-2.657 1.798c-.242.993-.35 2.335.644 3.087M25.16 44.618c.45.35.912.564.858 0s-.296-2.04.886-2.577a3.274 3.274 0 0 1 2.9.295c.374.27 1.018-.214 1.153-.778a2.461 2.461 0 0 1 2.174-1.852c1.37-.054 2.604.054 3.087.644s.94.913.886.43a3.197 3.197 0 0 0-2.926-2.765c-2.309-.16-3.677 1.29-3.57 1.986s-.16.993-.564.752a2.967 2.967 0 0 0-2.953-.59c-1.449.617-2.603 1.825-2.362 3.032s.188 1.235.43 1.423M41.374 44.994c.698.268.779.59 1.154.913s.806.187 1.316-.323a1.503 1.503 0 0 1 1.77-.402c.645.295 1.666.617 1.8 1.288s.214 1.558.456 1.101a2.213 2.213 0 0 0 .188-1.959 3.236 3.236 0 0 0-2.604-1.826 3.279 3.279 0 0 0-2.362.86c-.188.321-.322.616-.456.43s-.698-1.182-1.128-1.29-.295.86-.295.993.16.215.16.215M49.739 49.766c.832-.752 4.354-1.42 5.32-1.286s.645.189.376.59a3.494 3.494 0 0 1-1.315 1.02c-.214.027-4.94 2.068-5.261 1.96s.296-.51.4-.676a4.725 4.725 0 0 0 .336-1.007ZM52.851 52.988c-.588.018-1.245.228-.974-.049a9.626 9.626 0 0 1 3.333-1.578c1.702-.468 4.59-.847 5.377-.97s1.284 0 .93.423-.667.775-1.135.795a28.918 28.918 0 0 0-3.555.443c-1.949.338-3.729.93-3.976.936M54.45 55.337c-.063-.267.65-.728 1.782-.959a28.11 28.11 0 0 1 5.335-.236c1.18.104 1.546.198 1.157.536s-.703.72-1.236.65-1.4.047-2.679.034-2.907-.062-3.428-.047-.886.221-.932.022M54.548 58.884c-.158-.335.608-.832 1.926-.966a6.988 6.988 0 0 1 3.04.187c.203.216.304.645-.372.752a20.12 20.12 0 0 1-3.04.135c-.507-.054-1.453.107-1.554-.108"/><path class="cls-57" d="M7.65 48.798c-.301.702.295.993.859 1.235s2.469.188 3.221.348a17.257 17.257 0 0 1 2.845 1.047 3.106 3.106 0 0 0-1.825-1.932 17.413 17.413 0 0 0-3.301-.805c-.752 0-1.719-.081-1.799.107M1.568 50.739c.196-.325 1.289-.322 2.148-.16a48.947 48.947 0 0 1 6.173 1.717c.779.429 3.02 1.072 2.162 1.045s-5.757-.91-6.86-1.099a11.844 11.844 0 0 1-3.327-.886c-.27-.322-.377-.483-.296-.617M.816 54.256c.549-.66 2.55-.054 3.65.08s6.986.879 7.657 1.309-.673.44-1.56.359-5.586-.621-6.687-.621-2.31.108-2.658-.214-.671-.591-.402-.913M3.586 58.52c-.26.607.912.484 1.986.51s3.702-.044 4.698-.026c1.253.023 3.1.637 3.34.502s-.867-.502-1.51-.743a24.408 24.408 0 0 0-5.078-.806 7.227 7.227 0 0 0-3.436.564M15.05 62.41c.509-.813.404-1.395.78-1.583a13.409 13.409 0 0 1 3.516-.376c.993.053 1.556-.188 1.664-.832a12.251 12.251 0 0 1 1.396-3.275c.322-.269 2.926.214 3.543.214s1.02-.483 1.503-1.234 1.155-1.692 1.69-1.503a17.685 17.685 0 0 0 3.007.94 15.268 15.268 0 0 0 2.578-.833c.455-.134 1.046-.403 1.583.027s1.933 1.584 2.2 1.744a3.306 3.306 0 0 0 1.692-.053c.376-.134 1.047-.161 1.128.241a26.244 26.244 0 0 0 1.315 2.497c.08.188.697.35 1.073.322a6.426 6.426 0 0 1 2.336.617 3.391 3.391 0 0 1 .832 1.45 1.553 1.553 0 0 0 .858.993c.215.08.43-1.584.404-2.067s-.108-1.074-.108-1.074l-3.758-1.208c-.08-.053-1.262-3.006-1.396-3.14s-3.006-.054-3.194-.161-2.63-2.121-2.845-2.201a22.73 22.73 0 0 0-3.436 1.181c-.483.215-1.96-.322-2.362-.403s-1.664-.322-1.852-.322a4.854 4.854 0 0 0-1.691.779 14.15 14.15 0 0 1-1.45 1.422c-.241.108-2.631.027-2.98.054a1.508 1.508 0 0 0-1.637.805 27.435 27.435 0 0 1-2.39 3.194c-.133.108-3.3 1.074-3.596 1.262a4.769 4.769 0 0 0-1.1 1.772c0 .295-.268.697 0 .75s.564.216.698 0"/><g style="clip-path:url(#clip-path-19)"><path class="cls-59" d="M22.74 46.312h-.015c-.144.025-.696.96-.696.96a2.897 2.897 0 0 0-.31-.575.442.442 0 0 0-.336-.105 1.492 1.492 0 0 0-.625.152c-.336.168-.072 1.2.072 1.416.05.074.028.106-.036.106a1.588 1.588 0 0 1-.636-.274.662.662 0 0 0-.35-.148c-.128 0-.245.082-.466.22-.168.105-.207.355-.155.655a285.37 285.37 0 0 0 4.208-.884 4.066 4.066 0 0 0-.07-.54c-.116-.533-.435-.978-.586-.983"/><path class="cls-59" d="M23.395 47.835c-1.389.302-2.842.61-4.208.883a2.82 2.82 0 0 0 .563 1.192 1.351 1.351 0 0 0 1.06.346 5.424 5.424 0 0 0 2.06-.465c.36-.169.455-.72.503-.864a4.921 4.921 0 0 0 .022-1.092"/></g><path class="cls-60" d="M30.857 45.64c-.198-.692.143-1.846.528-1.918a.863.863 0 0 1 .935.36c.192.312.288.719.384.575s.287-.863.72-1.08a.948.948 0 0 1 .96 0 1.09 1.09 0 0 1 .287.865c-.048.239.48.024.744.144s.408.79.288 1.103a2.84 2.84 0 0 1-1.967 1.439 3.742 3.742 0 0 1-2.208-.48 1.808 1.808 0 0 1-.67-1.007M41.724 50.103a2.132 2.132 0 0 1-.288-1.631c.24-.576.72-.96 1.032-.816a1.011 1.011 0 0 1 .504 1.176c.935-.864 1.295-.696 1.463-.504a1.162 1.162 0 0 1 .048.935c.791-.12.984.312.72.72a2.146 2.146 0 0 1-1.896 1.08 2.015 2.015 0 0 1-1.583-.96"/><g style="clip-path:url(#clip-path-20)"><path class="cls-62" d="M13 67.406a19.54 19.54 0 0 0-4.674 4.246c2.355-1.669 4.598-3.088 5.954-3.869-.452-.131-.888-.26-1.28-.377"/><path class="cls-62" d="M17.164 65.22h-.036a4.028 4.028 0 0 0-1.137.355A23.524 23.524 0 0 0 13 67.406c.393.117.828.245 1.28.377a12.456 12.456 0 0 1 1.12-.595c.706-.299 2.167-1.257 2.183-1.702v-.014a.157.157 0 0 0-.048-.11.517.517 0 0 0-.37-.143"/></g><path class="cls-62" d="M16.229 70.108a6.886 6.886 0 0 0-1.353.736c-.237.854-1.33 4.201-1.424 4.651 1.045-1.85 2.587-5.102 2.777-5.387" style="clip-path:url(#clip-path-21)"/><path class="cls-62" d="M45.656 65.12h-.007c-.028 0-.063.017-.065.094v.015l.003.038a8.493 8.493 0 0 0 2.113 1.78 82.463 82.463 0 0 1 7.357 5.031 42.767 42.767 0 0 0-5.435-5.269 8.172 8.172 0 0 0-3.94-1.685.104.104 0 0 0-.026-.005" style="clip-path:url(#clip-path-22)"/><path class="cls-62" d="m46.631 69.872.048.26a52.61 52.61 0 0 1 3.203 5.65c-.83-2.421-1.613-4.7-1.875-5.103a6.657 6.657 0 0 1-1.376-.807" style="clip-path:url(#clip-path-23)"/><path class="cls-52" d="M11.668 66.834c-.572-.081-6.88-1.286-7.003-1.469s.94-1.287 1.41-1.491a46.026 46.026 0 0 1 6.451-1.143 4.394 4.394 0 0 1 2.49.449 1.977 1.977 0 0 1 .388 1.041 2.658 2.658 0 0 1-.428 1.185c-.184.122-3.308 1.428-3.308 1.428M45.66 64.445c.226-.47 2.512-1.49 3.166-1.653a25.647 25.647 0 0 1 4.859.163c.592.144 4.062 1.287 4.49 1.797s.369.552-.223.796a46.52 46.52 0 0 1-6.37 1.123c-.225-.123-2.96-2.246-3.103-2.246s-2.185.205-2.286.205a3.091 3.091 0 0 1-.532-.185"/><g style="clip-path:url(#clip-path-24)"><path d="m15.404 64.222-.003.028a.065.065 0 0 0 .003-.028" style="fill:#f1f1c3"/><path class="cls-62" d="M14.788 63.791c-.786 0-7.82.562-8.856.981 3.494-.176 6.76-.384 7.924-.384a3.03 3.03 0 0 1 .385.016 2.814 2.814 0 0 0 .43.032c.369 0 .696-.068.73-.186l.004-.028a.551.551 0 0 0-.572-.43h-.045"/></g><path class="cls-62" d="M48.49 63.803a6.284 6.284 0 0 0-1.563.132l.49.225a13.986 13.986 0 0 0 2.372.348l.078-.001.064-.001c1.118 0 6.422.472 8.061.552-.04-.061-2.878-.612-4.573-.878a38.33 38.33 0 0 0-4.929-.377" style="clip-path:url(#clip-path-25)"/><path class="cls-57" d="M16.431 73.518c.078-.155 1.32-1.784 1.32-1.784s0 4.345.154 5.78c.155 1.435.892 8.34.815 8.69s-1.357-.079-1.435-.273-.814-9.852-.814-10.008-.04-2.405-.04-2.405M20.622 75.148c.465-1.436.504-2.134 2.094-2.6a8.313 8.313 0 0 1 5.896 0c-2.055-.97-3.801-1.59-5.314-1.201-1.513.387-2.521.852-2.715 1.667a5.29 5.29 0 0 0 .039 2.134M31.328 76.117a4.78 4.78 0 0 1-.31-2.638 4.188 4.188 0 0 1 2.25-.465c.464.078.852.66.542.582-.93-.117-2.134.077-2.25.504a7.226 7.226 0 0 0 .04 1.63c0 .193-.04.697-.04.697ZM34.508 73.868a13.673 13.673 0 0 1 4.926-1.784c1.281 0 2.638-.233 3.26.465s1.124.892.97.62-1.088-2.055-2.562-2.094a6.073 6.073 0 0 0-2.909.582c-.465.233-2.677 1.086-2.677 1.086ZM29.116 78.367c-.31.35-3.806 5.544-3.918 5.896s.304.748.582.776.582-1.358.776-1.823 3.142-5.043 3.374-5.43-.814.581-.814.581M5.687 87.289h1.008l1.436-1.241 4.616-1.164s-1.358-.35-1.474-.35-3.957.66-3.957.66l-1.513 1.513ZM9.14 87.56s3.18-1.164 3.063-1.086-1.512 1.164-1.512 1.164l-.233.736s-.543.621-.659.621-.815-.969-.815-.969ZM14.143 88.064c-.194.116-1.092 1.092-.895 1.148a5.513 5.513 0 0 1 .92.821s.673-1.814.751-1.93a12.802 12.802 0 0 0 1.125-1.396c-.155.038-1.513.931-1.513.931ZM17.052 89.577l.815-1.125 1.707-.776-1.009 1.513a7.023 7.023 0 0 1 .698.233 9.307 9.307 0 0 1 .854.776s.426.466-.039.35-2.599-.428-2.599-.428ZM22.405 89.927l1.591-2.057-.854 1.785s.892.66 1.01.698a4.23 4.23 0 0 1 .703.89 19.523 19.523 0 0 0-2.1-.58 4.192 4.192 0 0 1-.505-.271ZM11.777 83.991a5.606 5.606 0 0 1 1.396-1.318c.195 0 3.336.31 3.104.31s-2.29.35-2.29.35c-.116.076-.697.775-.891.814s-1.513.154-1.513.154Z"/><path class="cls-69" d="M32.71.401a3.503 3.503 0 0 1 2.953 1.765 12.226 12.226 0 0 1 1.657 4.935 13.242 13.242 0 0 1-.397 5.691c-.504 1.73-1.98 4.43-4.214 4.25-2.143-.172-4.683-2.089-5.079-6.447s.145-6.016 1.045-7.709A4.362 4.362 0 0 1 32.71.401Z"/><path class="cls-70" d="M32.312 2.49c-1.134.076-1.893 1.153-2.254 2.485a11.913 11.913 0 0 0-.432 4.647c.18 2.089 1.045 4.79 2.686 5.151 1.106.243 2.321-.973 2.79-2.954a17.732 17.732 0 0 0 0-6.339c-.289-1.405-1.185-3.098-2.79-2.99Z"/><path class="cls-69" d="M23.63 15.998a3.503 3.503 0 0 1 2.954 1.765 12.226 12.226 0 0 1 1.657 4.935 13.242 13.242 0 0 1-.397 5.69c-.504 1.73-1.98 4.43-4.214 4.25-2.143-.171-4.683-2.088-5.079-6.447s.145-6.015 1.045-7.708a4.361 4.361 0 0 1 4.034-2.485Z"/><path class="cls-70" d="M23.233 18.086c-1.134.076-1.893 1.153-2.254 2.485a11.913 11.913 0 0 0-.432 4.647c.18 2.09 1.045 4.791 2.686 5.151 1.106.243 2.32-.972 2.789-2.954a17.732 17.732 0 0 0 0-6.339c-.288-1.405-1.184-3.098-2.79-2.99Z"/><path class="cls-69" d="M41.197 15.998a3.503 3.503 0 0 1 2.954 1.765 12.21 12.21 0 0 1 1.657 4.935 13.258 13.258 0 0 1-.396 5.69c-.505 1.73-1.98 4.43-4.215 4.25-2.143-.171-4.683-2.088-5.079-6.447s.145-6.015 1.045-7.708a4.361 4.361 0 0 1 4.034-2.485Z"/><path class="cls-70" d="M40.8 18.086c-1.134.076-1.893 1.153-2.254 2.485a11.913 11.913 0 0 0-.432 4.647c.18 2.09 1.045 4.791 2.686 5.151 1.106.243 2.321-.972 2.789-2.954a17.732 17.732 0 0 0 0-6.339c-.288-1.405-1.184-3.098-2.789-2.99ZM29.252 24.322a9.724 9.724 0 0 0 3.782.68 5.69 5.69 0 0 0 2.774-.504M19.31 39.519a10.436 10.436 0 0 0 6.16 1.008"/><path class="cls-69" d="M18.458 25.29c.099 2.953-.066 6.916-.04 8.32.028 1.36.013 4.097.04 4.539-.408.504-.948.576-.876 1.225s.702.792.837 1.116c.027.433.039 2.125.039 2.125M28.369 25.29c-.099 2.953.066 6.916.039 8.32s-.015 4.143-.039 4.539c.408.504.948.576.876 1.225s-.228.415-.451.576"/><path class="cls-70" d="M44.595 39.95c-1.62.829-5.367.753-6.988.137"/><path class="cls-69" d="M45.922 25.29c-.1 2.953.066 6.916.039 8.32s-.015 4.143-.04 4.539c.409.504.949.576.877 1.225s-.702.792-.837 1.116c-.027.433-.071 3.067-.071 3.067M36.01 25.29c.1 2.953-.065 6.916-.038 8.32s.014 4.143.038 4.539M27.499 9.658c-.05 2.377-.104 9.249 0 9.762M37.458 9.658c.036 1.928.323 7.454.25 7.983M24.53 42.953a3.04 3.04 0 0 0-2.14.816 2.349 2.349 0 0 0-2.794-1.484 4.822 4.822 0 0 0-2.597 1.735c-.594.808-.705 1.493.185 2.977a2.775 2.775 0 0 0-2.448.742c-.594.482-1.017 1.29-.334 3.34a3.08 3.08 0 0 0 2.115 1.705 3.01 3.01 0 0 0 1.973-.482 2.982 2.982 0 0 0 .8 2.746 3.739 3.739 0 0 0 2.193.19"/><path class="cls-71" d="M23.936 54.046a2.14 2.14 0 0 0 .594-2.299c1.595.223 2.745-.298 3.005-.89"/><path class="cls-69" d="M26.941 46.292a4.022 4.022 0 0 1-2.152-2.56 2.794 2.794 0 0 1 .445-2.486 3.035 3.035 0 0 1 2.301-1.296 4.041 4.041 0 0 1 2.708.705 3.275 3.275 0 0 1 3.19-2.506c1.262.055 2.523.278 3.08 1.057a3.228 3.228 0 0 1 .705 2.3c1.521.148 3.08.445 3.413 1.633s.334 2.522-.297 3.153a2.879 2.879 0 0 1-2.003.816c.741 1.076 1.112 2.337.52 3.042a3.157 3.157 0 0 1-2.808 1.225c-1.422-.074-2.647-.482-3.092-1.855a4.279 4.279 0 0 1-4.157 1.484 3.393 3.393 0 0 1-2.485-1.41c-.555-.965-.296-2.82.632-3.302ZM40.853 43.658a1.652 1.652 0 0 1 1.819 1.262 2.138 2.138 0 0 1 2.41-1.283 3.208 3.208 0 0 1 2.487 1.505 2.78 2.78 0 0 1 .148 2.745c1.707 1.04 2.263 1.819 1.67 3.34a2.218 2.218 0 0 1-2.857 1.41c.223 1.892-.44 2.45-1.295 2.654a4.994 4.994 0 0 1-1.357.166"/><path class="cls-71" d="M38.553 52.636c.594.111 2.968.297 3.265 0a3.661 3.661 0 0 0 .63 1.632"/><path class="cls-72" d="M32.95 47.18c-1.282-.162-2.297-1.032-2.189-2.044s.424-1.642.971-1.508a1.652 1.652 0 0 1 .98 1.038c.47-1.192.686-1.336 1.301-1.228s.686.614.542 1.228c1.084-.361 1.445.109.939 1.084a2.371 2.371 0 0 1-2.544 1.43ZM22.14 49.994c-1.083.361-2.568.154-2.832-.785s.06-1.337.458-1.409 1.017.456 1.017.456c-.296-.739-.217-1.519.216-1.628a.842.842 0 0 1 1.045.575c.397-.709.504-1.015.9-.697a3.233 3.233 0 0 1 .399 2.608c-.193.651-1.202.88-1.202.88ZM43.562 51.043a2.105 2.105 0 0 0 1.484-.881c.408-.62.37-1.087-.594-.939a.595.595 0 0 0-.18-1.016 1.368 1.368 0 0 0-1.304.539.957.957 0 0 0 0-.636c-.111-.408-.818-.95-1.335 0a2.226 2.226 0 0 0 .435 2.414 1.31 1.31 0 0 0 1.494.519Z"/><path class="cls-69" d="M32.74 69.724s-9.66-4.08-11.146-4.682-6.66-2.947-7.385-3.23a5.324 5.324 0 0 1 .928-2.35 34.98 34.98 0 0 1 4.193-1.357 35.289 35.289 0 0 1 3.207-3.885c.254-.248 2.926.066 3.549.124.798-.742 2.599-1.89 2.865-2.1a18.323 18.323 0 0 1 4.192 1.064 13.373 13.373 0 0 1 3.644-1.192 18.31 18.31 0 0 1 3.156 2.238c1.138.039 2.716.13 3.008.178a21.548 21.548 0 0 1 1.46 3.279 25.23 25.23 0 0 1 3.569 1.115 14.095 14.095 0 0 1 .276 3.64c-2.509 1.343-9.524 4.324-11.653 5.276s-3.533 1.71-3.863 1.882Z"/><path class="cls-72" d="M19.979 58.714c1.364.928 5.156 3.921 6.733 5.04 1.579 1.12 5.427 4.59 5.427 4.59M26.385 55.237c.413.818 1.942 3.916 2.716 5.667s2.9 6.116 3.066 6.631M33.011 53.927c-.125 1.462-.23 13.462-.203 13.856M39.52 54.925c-1.05 1.614-4.079 8.328-4.754 9.772s-1.435 2.879-1.435 2.879M33.42 68.463c1.146-1.242 5.437-5.162 6.727-6.291s3.764-3.572 3.915-3.678"/><path class="cls-73" d="M17.448 38.52a7.85 7.85 0 0 0-2.105-3.364 25.39 25.39 0 0 0-1.567-1.176 14.999 14.999 0 0 0-.682-.451 2.717 2.717 0 0 0-.35-.194l.001-.001v.001l.02-.112v.113l-.02-.001.02-.112v-.072l.13.134-.13.051v-.185l.13.134-.053-.054.063.042-.01.012-.053-.054.063.042a2.569 2.569 0 0 0-.145.525 5.021 5.021 0 0 0-.068.517 35.479 35.479 0 0 0-.155 2.837c0 .154.003.282.01.363.055.717.11 1.21.11 1.211a.4.4 0 0 1-.627.373 9.02 9.02 0 0 0-1.713-.843c-.649-.256-1.288-.469-1.695-.61a5.683 5.683 0 0 0-1.207-.23c-.198-.02-.377-.034-.523-.047l-.196-.018-.184-.037.126-.38.4.041a3.353 3.353 0 0 0-.016.345 24.862 24.862 0 0 0 .561 4.191 26.93 26.93 0 0 0 .383 1.367.401.401 0 0 1-.639.429 12.644 12.644 0 0 0-4.207-2.365 14.992 14.992 0 0 0-1.223-.338 4.839 4.839 0 0 0-.744-.131h-.002l-.022-.323.211.235c-.116.087-.16.087-.178.086l-.01.002-.023-.323.211.235-.267-.298.4-.032a27.235 27.235 0 0 0 .407 2.894 10.067 10.067 0 0 0 .607 2.174 7.907 7.907 0 0 0 1.18 1.507 14.31 14.31 0 0 0 1.573 1.449c.474.363 1.007.774 1.47 1.103.232.165.446.31.622.415a1.708 1.708 0 0 0 .35.176.4.4 0 1 1-.195.777 2.268 2.268 0 0 1-.568-.266c-.607-.366-1.455-1.025-2.166-1.568a15.129 15.129 0 0 1-1.669-1.536 8.531 8.531 0 0 1-1.31-1.691 10.476 10.476 0 0 1-.68-2.386 28.167 28.167 0 0 1-.42-2.984.403.403 0 0 1 .132-.331.45.45 0 0 1 .227-.107l.12-.009a4.972 4.972 0 0 1 .923.151c.393.09.853.214 1.291.356a13.473 13.473 0 0 1 4.475 2.514L7.584 43l-.382.121c0-.005-.198-.624-.396-1.416a25.243 25.243 0 0 1-.585-4.385c0-.154.005-.296.018-.427a.401.401 0 0 1 .525-.339l-.062.186.045-.191.017.005-.062.186.045-.191.018.003c.112.017.458.036.85.079a6.074 6.074 0 0 1 1.268.258c.401.138 1.055.356 1.728.622a9.744 9.744 0 0 1 1.877.93l-.229.329-.399.044c0-.003-.056-.508-.112-1.237a5.747 5.747 0 0 1-.012-.425c0-.522.035-1.285.081-1.976.024-.346.05-.672.077-.942a5.74 5.74 0 0 1 .086-.62v.001a4.439 4.439 0 0 1 .162-.6.874.874 0 0 1 .193-.305.615.615 0 0 1 .43-.175l.232.04a2.83 2.83 0 0 1 .518.272 24.938 24.938 0 0 1 2.337 1.691 8.59 8.59 0 0 1 2.347 3.704.4.4 0 1 1-.75.278"/><path class="cls-69" d="M13.817 49.956a11.682 11.682 0 0 0-3.255-.974 21.635 21.635 0 0 0-2.866-.236c-.223.18-.139.57 0 .932s.278 1.558.39 1.864a14.984 14.984 0 0 0-4.063-.974c-1.224-.111-2.393-.334-2.56-.028a1.436 1.436 0 0 0 .278 1.252 17.137 17.137 0 0 0 1.976 2.254 11.01 11.01 0 0 0-2.922 0 .446.446 0 0 0-.25.779 12.966 12.966 0 0 0 2.031 2.17c.584.307 1.836.919 1.836.919-.89.167-1.363.5-1.28.695a7.392 7.392 0 0 0 1.81 1.169 21.277 21.277 0 0 0 2.281 1.002 3.563 3.563 0 0 0-1.642.796c-.154.119-.556.678-.25.873.306.195 1.363 1.113 1.53 1.197a5.951 5.951 0 0 0-2.143 1.196c-.306.25-.11.5.362.696a51.051 51.051 0 0 0 6.344 1.168M17.824 64.925a4.156 4.156 0 0 0-2.922-.612 21.205 21.205 0 0 0-4.145 3.255 31.048 31.048 0 0 0-3.868 5.565 16.895 16.895 0 0 1 3.311-1.167c.751-.14 2.337-.557 2.671-.612-.195 1.195-.5 3.755-.515 4.451a4.994 4.994 0 0 0 .181 1.613c.084.084.779-.583 1.03-.778a21.032 21.032 0 0 0 3.923-4.62 13.36 13.36 0 0 0 1.336-4.098 1.247 1.247 0 0 0-.223-.993 2.693 2.693 0 0 0-.78-2.004Z"/><path class="cls-74" d="M12.871 71.353a12.27 12.27 0 0 0 3.172-1.28 7.1 7.1 0 0 0 2.55-3.367M6.861 63.645a24.897 24.897 0 0 1 7.624-.834 1.027 1.027 0 0 1 1.021 1.124M6.861 60.645c1.614.556 5.537.997 6.539.691M4.412 57.914c3.116.028 8.035-.056 9.639 1.725M3.717 54.046c1.836.14 9.314 1.17 10.333 2.643M8.085 51.706c2.17.724 5.51 1.663 6.65 2.71M3.717 46.809c-.76-2.72-.634-4.143-.381-4.333a12.32 12.32 0 0 1 4.249.728M7.585 43a31.621 31.621 0 0 0 4.511 5.454M12.259 38.77a17.757 17.757 0 0 1 4.962 3.845M11.117 46.587a24.345 24.345 0 0 1-1.668-5.535c.055-.664 1.193-.573 2.522-.397a9.277 9.277 0 0 1 3.447 1.251M14.05 39.519a12.754 12.754 0 0 1 0-3.653c.134-.221.735-.031 1.115.127s1.2.705 1.676.948"/><path class="cls-69" d="M49.616 49.793a9.216 9.216 0 0 1 2.92-.81 21.862 21.862 0 0 1 2.865-.238c.223.181.14.571 0 .933s-.278 1.558-.39 1.864a14.967 14.967 0 0 1 4.063-.974c1.224-.11 2.393-.334 2.56-.028a1.434 1.434 0 0 1-.279 1.252 17.13 17.13 0 0 1-1.975 2.254 10.955 10.955 0 0 1 2.921 0 .447.447 0 0 1 .251.78 13.04 13.04 0 0 1-2.03 2.17c-.586.305-1.838.918-1.838.918.891.166 1.364.5 1.28.695a7.383 7.383 0 0 1-1.809 1.17 21.526 21.526 0 0 1-2.28 1 3.567 3.567 0 0 1 1.641.797c.153.12.556.678.25.873s-1.364 1.113-1.53 1.196a5.928 5.928 0 0 1 2.142 1.197c.306.25.111.501-.362.695a50.841 50.841 0 0 1-6.343 1.17M45.273 64.925a4.155 4.155 0 0 1 2.922-.612 21.205 21.205 0 0 1 4.145 3.255 31.048 31.048 0 0 1 3.868 5.565 20.22 20.22 0 0 0-3.311-1.168 51.147 51.147 0 0 0-2.671-.612c.195 1.196.5 3.756.515 4.452a4.994 4.994 0 0 1-.181 1.613c-.084.084-.78-.584-1.03-.779a21.032 21.032 0 0 1-3.923-4.618 13.36 13.36 0 0 1-1.336-4.1 1.243 1.243 0 0 1 .223-.993 2.689 2.689 0 0 1 .779-2.003Z"/><path class="cls-74" d="M50.226 71.353a12.255 12.255 0 0 1-3.172-1.28 7.094 7.094 0 0 1-2.55-3.367M56.236 63.645c-1.753-.472-5.627-1.448-7.624-.834M56.236 60.645c-1.614.556-5.537.997-6.54.691M58.684 57.914c-3.116.028-8.034-.056-9.638 1.725M59.38 54.046c-1.836.14-9.314 1.17-10.333 2.643M55.011 51.542c-2.17.724-5.509 1.827-6.65 2.875"/><path class="cls-71" d="M18.83 69.03c2.361-.032 5.589.032 6.85 0s3.324-.036 4.341-.01M35.3 69.27c2.362-.032 3.229.065 4.49.033s3.325-.037 4.34-.01"/><path class="cls-69" d="M48.281 75.787c.046 1.484-.202 8.904-.342 10.536-.363.26-10.759.223-15.433.223s-11.575-.186-12.688-.223-2.263 0-2.412-.26a14.977 14.977 0 0 1-.386-2.67 33.8 33.8 0 0 1-.096-1.373c-.074-1.558-.445-6.53-.355-8.578"/><path class="cls-69" d="M30.762 73.857c.297-1.113 3.08-1.076 3.376 0 .928-1.15 3.39-2.096 5.578-2.448s3.845.616 4.031 2.033-.166 3.46-1.076 3.983c-1.41.813-4.823 1.366-8.718-.897a15.462 15.462 0 0 1 3.71 5.01 11.44 11.44 0 0 1 1.078 2.781 5.045 5.045 0 0 1-1.969.742c-.259-.074-.519-.593-.705-1.039-.185-.444-2.335-6.158-3.264-7.049a4.127 4.127 0 0 1-.817 0 16.922 16.922 0 0 0-2.71 4.341c-.629 1.373-1.222 3.574-1.445 3.753s-.8.155-1.773 0-1.009-.265-.972-.45a9.269 9.269 0 0 1 .668-1.596 33.063 33.063 0 0 1 3.153-4.415c.965-.927 1.818-1.929 2.078-2.152-1.633 1.187-4.415 2.344-6.789 1.784s-4.23-1.673-3.896-4.047 1.818-2.634 3.525-2.838a7.671 7.671 0 0 1 4.526.983c1.075.631 2.411 1.521 2.411 1.521Z"/><path class="cls-74" d="M34.138 73.857c0 .965-.31 2.968-1.335 3.116M30.762 73.857c.074.705-.074 2.44 1.224 3.116M34.324 74.97a10.02 10.02 0 0 1 5.392-1.528c1.027.044 1.657.526 1.768 1.157s-.52 1.261-1.261 1.633a5.1 5.1 0 0 1-2.931.222 25.284 25.284 0 0 1-3.153-1.039M30.577 74.785a21.403 21.403 0 0 0-6.01-1.347c-1.694.075-2.183.372-2.226 1.347-.041.916 1.113 1.74 2.708 1.778a19.71 19.71 0 0 0 5.713-1.296M17.002 83.175c2.853-.005 8.436-.031 8.668 0M28.722 83.16c1.558-.028 6.15.012 6.58.007M38.742 83.15c1.259.019 9.189.055 9.36 0M17.002 80.684c1.666-.037 5.561 0 6.711 0s3.271.057 3.451-.016M29.835 80.685c1.15-.002 4.419.037 4.638-.018M37.329 80.387h10.773M16.776 75.824h3.486M16.776 73.597h3.486"/><path class="cls-74" d="M22.753 75.662c1.442.013 5.71-.049 6.522.038M34.992 75.614c2.412.062 5.686.013 6.089 0M44.062 75.663c1.28-.025 3.817.08 4.04.08M44.062 73.56c1.28-.025 2.022.079 2.245.079"/><path class="cls-69" d="M16.776 82.755s-3.858-.122-4.007-.058a20.369 20.369 0 0 0-1.335 1.733s-4.235.709-4.325.763a14.757 14.757 0 0 0-1.76 2.057c.112.074 3.19.334 3.302.408s1.225 1.744 1.336 1.818 4.222-1.633 4.222-1.633L12.86 89.29l1.349.928 2.793-.964v.593s3.109 1.002 3.26.965 2.078-1.262 2.078-1.262l-.257 1.002s2.744.705 2.929.779a19.363 19.363 0 0 0 2.152-2.522v2.04l3.042.297.556-.371s3.859.596 4.007.558 0-.892 0-.892a22.907 22.907 0 0 0 2.56.26c.223-.075 1.413-.594 1.413-.594a21.065 21.065 0 0 1 2.037.594 10.275 10.275 0 0 0 1.447.408l1.373-1.04s1.929.78 2.152.854 1.67-1.373 1.855-1.447 4.563.853 4.563.853a10.505 10.505 0 0 0 1.039-1.298 37.023 37.023 0 0 1 3.71-.334c.185-.074-.038-.567 0-1.001.297 0 3.19-.453 3.19-.453s-2.04-2.256-2.226-2.405a16.331 16.331 0 0 0-2.708.038l-1.039-1.373-5.602.05"/><path class="cls-74" d="M15.07 84.097c.481 0-3.266.297-3.266.297M8.651 87.658l6.563-2.189M14.209 87.843l2.01-1.261M17.002 89.254l3.446-2.247M22.34 89.55l2.932-2.968M27.164 88.808l.964-2.003M31.245 86.805c-.075.148-.409 3.858-.483 3.97M33.953 86.805c.037.223.816 3.636.816 3.636M36.995 86.805l1.484 2.968M40.853 86.805l2.569 3.116M45.185 86.805l2.421 2.671M48.102 86.323l5.105 2.708M48.287 85.193l8.148 1.354.445.916M51.39 85.024l3.784-.149"/><path class="cls-73" d="M47.977 45.865a14.95 14.95 0 0 0 2.245-2.412c.322-.418.6-.803.802-1.096.201-.288.337-.502.352-.53l.107.06-.118-.036.011-.023.107.06-.118-.037.003-.02.003-.063a5.304 5.304 0 0 0-.157-.933 202.938 202.938 0 0 0-.85-3.46l-.033-.216a.729.729 0 0 1 .236-.525 1.607 1.607 0 0 1 .393-.261 3.184 3.184 0 0 1 .72-.207c.238-.047.437-.075.441-.076a.357.357 0 0 1 .328.13 2.978 2.978 0 0 1 .448.918v-.001c.166.525.667 2.138.718 2.29l-.276.093.158-.244.118.151-.276.093.158-.244-.152.234v-.28l.152.047-.152.233v-.123l-.045-.152.045-.005v.156l-.045-.15.178-.094a1.128 1.128 0 0 1 .35-.147l.048.295-.162-.254.113-.04.05.294-.163-.254.082.13-.09-.123.008-.007.082.13-.09-.123.006-.007c.058-.05.23-.24.427-.477.3-.357.686-.84 1.03-1.263.346-.429.632-.783.788-.94a5.233 5.233 0 0 0 .59-.906c.218-.392.414-.784.496-.949.051-.101.251-.465.541-.997.433-.792 1.055-1.93 1.6-2.95.54-1.012 1.014-1.932 1.118-2.206.172-.443.436-1.034.674-1.538.12-.252.231-.48.321-.658l.12-.226.101-.162a.51.51 0 0 1 .242-.16 3.911 3.911 0 0 1 .793-.136c.276-.027.553-.047.603-.055l.085-.006a.74.74 0 0 1 .468.178.649.649 0 0 1 .176.81c-.02.039-.097.225-.19.459-.286.719-.768 1.982-1.055 2.556-.186.373-.592 1.115-.975 1.823-.19.354-.376.697-.523.976a9.875 9.875 0 0 0-.285.57c-.095.238-.327.71-.57 1.18a21.68 21.68 0 0 1-.352.653 4.36 4.36 0 0 1-.272.442c-.097.128-.295.406-.465.662a8.258 8.258 0 0 0-.22.349l-.064.115-.01.024-.153-.06.16.029-.008.03-.152-.06.16.03-.304-.054h.308l-.004.054-.304-.054h-.017l.273-.177.052.177h-.325l.273-.177-.265.17.093-.302.172.132-.265.17.093-.302-.065.212v-.223l.065.01-.065.213v-.214l-.001-.01h.001v.01l-.001-.01a2.28 2.28 0 0 0 .328-.09l.199-.063a.96.96 0 0 1 .2-.046h-.001l.023.283-.1-.267.077-.016.023.283-.1-.267s.076-.034.17-.084a50.948 50.948 0 0 0 1.723-.963c.334-.194.657-.385.92-.546.262-.16.47-.294.544-.351a11.912 11.912 0 0 0 .889-.822c.329-.325.615-.62.752-.741a.713.713 0 0 1 .48-.155 1.997 1.997 0 0 1 .661.135 1.533 1.533 0 0 1 .538.31.604.604 0 0 1 .167.428 1.252 1.252 0 0 1-.219.633 3.979 3.979 0 0 1-.497.628 11.182 11.182 0 0 1-.886.766 48.893 48.893 0 0 1-2.347 1.768 16.318 16.318 0 0 1-2.245 1.39 16.66 16.66 0 0 1-2.022.733c-.282.085-.524.155-.7.212l-.205.072-.046.02-.002.002-.088-.137.106.123-.018.014-.088-.137.106.123-.233-.27.304.187c-.608.98-2.687 3.737-3.288 4.455-.57.678-1.793 2.31-2.42 3.024-.293.334-.77.929-1.204 1.459-.218.265-.425.514-.598.712a7.119 7.119 0 0 1-.234.256l-.21.18a.356.356 0 1 1-.378-.602l.054.086-.06-.083.006-.003.054.086-.06-.083a3.278 3.278 0 0 0 .315-.333c.497-.57 1.319-1.62 1.78-2.145.591-.67 1.817-2.305 2.409-3.011.56-.665 2.673-3.471 3.228-4.372l.07-.083.226-.128c.256-.102.665-.21 1.183-.372a15.014 15.014 0 0 0 1.72-.634 20.968 20.968 0 0 0 2.959-1.925 44.938 44.938 0 0 0 1.479-1.14c.41-.328.722-.6.815-.7a3.36 3.36 0 0 0 .409-.511.685.685 0 0 0 .113-.26h.069l-.064.023-.005-.023h.069l-.064.023.126-.046-.096.094-.03-.048.126-.046-.096.094-.02-.016a1.537 1.537 0 0 0-.669-.216l-.052.005-.026-.101.067.076-.041.025-.026-.101.067.076v-.001c-.084.073-.393.387-.72.712a12.187 12.187 0 0 1-.957.88c-.148.112-.413.278-.756.486-.512.308-1.177.692-1.728 1-.276.155-.523.29-.709.389-.093.05-.171.09-.233.12l-.085.04a.422.422 0 0 1-.144.038h-.002l-.013-.176.036.174-.023.002-.013-.176.036.174c-.015 0-.171.052-.318.1a1.807 1.807 0 0 1-.486.104.44.44 0 0 1-.211-.047l-.15-.135-.062-.21.006-.071a.681.681 0 0 1 .066-.183 6.639 6.639 0 0 1 .397-.644c.161-.238.325-.468.425-.6a4.02 4.02 0 0 0 .217-.358c.304-.54.774-1.475.882-1.748a9.38 9.38 0 0 1 .315-.637c.447-.85 1.231-2.263 1.492-2.786.167-.334.446-1.02.693-1.645.124-.314.241-.615.337-.856.098-.244.166-.414.215-.514l.039.019h-.042l.003-.02.039.02h.031l-.065.035-.008-.035h.073l-.065.035.006-.003-.005.005-.001-.002.006-.003-.005.005-.019-.012-.005-.002.011-.047v.048l-.011-.001.011-.047v-.067l.016.114h-.016v-.114l.016.114c-.134.018-.438.036-.748.07a5.05 5.05 0 0 0-.402.058l-.106.027-.006.002-.088-.2.168.133-.08.067-.088-.2.168.133h-.001l-.088-.07.094.063-.006.008-.088-.071.094.063a4.664 4.664 0 0 0-.173.322 28.257 28.257 0 0 0-.94 2.08c-.099.252-.332.718-.645 1.319-.466.895-1.096 2.059-1.626 3.032-.528.968-.964 1.76-1.016 1.865a23.91 23.91 0 0 1-.511.977 5.434 5.434 0 0 1-.709 1.063h.001c-.065.064-.25.282-.468.549-.33.405-.757.94-1.119 1.38-.181.22-.346.416-.478.564l-.177.186-.085.073a.405.405 0 0 1-.19.086l-.023-.138.04.135-.017.003-.023-.138.04.135-.013.005c-.04.018-.126.068-.219.119l-.154.075a.623.623 0 0 1-.23.049l-.236-.068-.17-.222c-.06-.178-.555-1.775-.721-2.301a2.865 2.865 0 0 0-.226-.53l-.078-.127-.019-.027-.004-.005.1-.076-.099.078-.001-.002.1-.076-.099.078.279-.222.05.352s-.185.027-.403.07a2.807 2.807 0 0 0-.539.145.932.932 0 0 0-.217.137l-.022.025-.026-.013h.029l-.003.013-.026-.013h.029l.003.01a225.372 225.372 0 0 1 .864 3.51 5.805 5.805 0 0 1 .173 1.089.82.82 0 0 1-.086.408v.002c-.048.082-.176.28-.388.586a19.081 19.081 0 0 1-3.188 3.659.356.356 0 0 1-.444-.557M17.875 28.447c-.269-.418-.728-1.07-1.137-1.7a14.786 14.786 0 0 1-.552-.906 3.083 3.083 0 0 1-.324-.76c-.069-.325-.304-1.417-.526-2.485a107.94 107.94 0 0 1-.3-1.49c-.082-.433-.137-.738-.149-.908a6.284 6.284 0 0 1-.013-.392 2.551 2.551 0 0 1 .192-1.084c.067-.138.391-.914.728-1.703.342-.798.693-1.61.882-1.942.17-.296.367-.621.525-.903a2.75 2.75 0 0 0 .271-.578l.196.03h-.199l.003-.03.196.03h-.04l-.142.076-.017-.075h.158l-.14.075.033-.018-.03.023-.004-.005.034-.018-.03.023a.677.677 0 0 0-.24-.147 1.066 1.066 0 0 0-.366-.085l-.038.003h-.004l-.02-.07.03.066-.01.004-.02-.07.03.066a2.67 2.67 0 0 0-.51.468c-.232.253-.482.56-.67.811a12.2 12.2 0 0 0-.664 1.04c-.11.19-.213.37-.29.514a5.103 5.103 0 0 0-.144.276.356.356 0 0 1-.667-.035 79.113 79.113 0 0 1-.584-1.94 13.135 13.135 0 0 1-.427-1.814c-.02-.258-.2-1.064-.383-1.845-.183-.792-.369-1.566-.417-1.929-.037-.287-.197-1.073-.35-1.897a17.713 17.713 0 0 1-.317-2.26l-.003-.218c.001-.639.073-1.16.071-1.458l-.01-.163-.008-.035h.003-.002.002-.002l.078-.047-.072.056-.006-.008.078-.047-.072.056-.046-.04a3.074 3.074 0 0 0-.592-.315 4.26 4.26 0 0 0-.302-.116l-.094-.029-.017-.003.034-.186v.188l-.034-.002.034-.186v-.134l.1.305-.1.017v-.322l.1.305h.001l-.104-.313.289.164a.315.315 0 0 1-.185.149l-.104-.313.289.164-.155-.088.169.059-.014.029-.155-.088.169.059a1.38 1.38 0 0 0-.035.17 8.33 8.33 0 0 0-.095 1.203 2.41 2.41 0 0 0 .03.444c.06.308.182 1.228.321 2.274.139 1.04.291 2.188.4 2.885.111.71.222 1.506.322 2.163.05.328.097.622.139.849a3.032 3.032 0 0 0 .097.419.356.356 0 0 1-.539.425 26.249 26.249 0 0 1-2.208-1.595c-.82-.711-2.566-2.124-2.838-2.342l.082-.104v.134l-.083-.03.083-.104v.136a.994.994 0 0 0-.285.203c-.116.106-.218.218-.291.292l-.126-.126h.189l-.063.126-.126-.126h.189a1.119 1.119 0 0 0 .146.361 3.32 3.32 0 0 0 .388.55c.077.089.305.317.598.597.878.842 2.402 2.228 2.897 2.624a11.293 11.293 0 0 0 1.275.813c.221.127.423.241.578.335l.2.129.088.072a.387.387 0 0 1 .123.219l-.35.065.343-.097c.231.824.783 2.194.977 2.684a5.89 5.89 0 0 1 .21.616 1.49 1.49 0 0 1 .064.365h-.356l.355-.02c.026.456.151 1.446.307 2.389.079.473.165.937.25 1.32a4.969 4.969 0 0 0 .23.811.356.356 0 0 1-.407.494c-.918-.219-2.798-.606-3.526-.774a7.69 7.69 0 0 0-1.421-.189l-.095.004-.018-.128.043.121-.025.007-.018-.128.043.121-.107-.296.26.172a.304.304 0 0 1-.153.124l-.107-.296.26.172v.001l-.244-.163.283.08-.039.083-.244-.163.283.08-.101-.028.103.018-.002.01-.101-.028.103.018a2.964 2.964 0 0 0-.012.298c0 .156.006.337.016.481l.016.177.006.042-.185.039.168-.084.017.045-.185.039.168-.084-.195.098.126-.187c-.003.004.014-.006.069.089l-.195.098.126-.187a2.634 2.634 0 0 0 .421.178c.207.073.441.146.613.193.231.065.835.265 1.478.504a10.773 10.773 0 0 1 1.661.732c.307.195.607.391.842.555.118.082.22.156.303.223l.113.1.114.149.015.033a37.411 37.411 0 0 0 1.78 3.39 11.578 11.578 0 0 0 1.052 1.563c.389.504.756.939.958 1.203a.356.356 0 1 1-.566.433c-.181-.237-.558-.685-.956-1.201a12.284 12.284 0 0 1-1.119-1.666 37.48 37.48 0 0 1-1.816-3.47l.334-.126-.319.159.204-.101-.176.145-.028-.044.204-.101-.176.145.036-.03-.035.032-.001-.002.036-.03-.035.032a3.429 3.429 0 0 0-.392-.295c-.212-.146-.48-.32-.755-.495a10.45 10.45 0 0 0-1.526-.665 23.65 23.65 0 0 0-1.419-.485c-.218-.06-.507-.151-.759-.244a4.188 4.188 0 0 1-.342-.142l-.143-.081a.47.47 0 0 1-.169-.184v.001l-.043-.127a2.962 2.962 0 0 1-.04-.381 8.997 8.997 0 0 1-.013-.466c0-.107.002-.205.008-.29l.013-.122a.452.452 0 0 1 .069-.189v.001a.391.391 0 0 1 .198-.152.939.939 0 0 1 .312-.04 8.314 8.314 0 0 1 1.581.208c.711.164 2.593.552 3.531.775l-.082.347-.324.148a5.374 5.374 0 0 1-.277-.953 32.07 32.07 0 0 1-.573-3.823v-.02h.002l-.003.001.001-.001h.002l-.003.001a3.473 3.473 0 0 0-.224-.72c-.193-.491-.748-1.861-1-2.752l-.007-.032.294-.054-.211.218c-.004-.014-.043-.013-.083-.164l.294-.054-.211.218.031-.032-.028.035-.003-.003.031-.032-.028.035a3.459 3.459 0 0 0-.294-.184 16.728 16.728 0 0 1-1.801-1.125c-.364-.292-1.149-.994-1.903-1.69a71.44 71.44 0 0 1-1.042-.976c-.3-.288-.525-.509-.641-.642a4.062 4.062 0 0 1-.475-.674 1.58 1.58 0 0 1-.236-.706.526.526 0 0 1 .146-.378c.058-.057.205-.221.378-.371a1.902 1.902 0 0 1 .296-.214.821.821 0 0 1 .406-.121.582.582 0 0 1 .362.126c.281.225 2.021 1.633 2.86 2.36a25.848 25.848 0 0 0 2.162 1.558l-.21.288-.329.137a3.18 3.18 0 0 1-.139-.562c-.134-.723-.299-1.979-.465-3.032-.111-.714-.263-1.861-.402-2.903-.137-1.036-.264-1.983-.314-2.227a3.176 3.176 0 0 1-.044-.584 9.39 9.39 0 0 1 .066-1.046c.019-.156.04-.293.063-.403l.04-.154.04-.092a.366.366 0 0 1 .21-.176h.001l.123-.02a.695.695 0 0 1 .184.031 4.734 4.734 0 0 1 .73.289 3.194 3.194 0 0 1 .388.216 1.009 1.009 0 0 1 .319.302 1.08 1.08 0 0 1 .119.565c-.001.386-.071.868-.07 1.458l.002.198a17.24 17.24 0 0 0 .306 2.151c.151.822.309 1.585.355 1.934.034.274.222 1.076.405 1.86.184.796.364 1.566.399 1.944a13.064 13.064 0 0 0 .403 1.68c.206.724.44 1.483.578 1.924l-.34.106-.328-.14c.034-.077.09-.183.173-.336a16.427 16.427 0 0 1 1.01-1.642c.203-.269.462-.588.715-.864a2.88 2.88 0 0 1 .736-.632.776.776 0 0 1 .331-.065 1.8 1.8 0 0 1 .766.198 1.281 1.281 0 0 1 .329.227.618.618 0 0 1 .203.438l-.006.077a2.853 2.853 0 0 1-.354.818c-.167.299-.365.624-.528.909-.143.248-.511 1.083-.845 1.868-.34.795-.649 1.54-.742 1.734a1.91 1.91 0 0 0-.12.773c0 .115.004.233.011.351.002.065.057.4.138.815.242 1.264.719 3.47.823 3.961a2.513 2.513 0 0 0 .251.564c.424.772 1.24 1.908 1.664 2.564a.356.356 0 0 1-.599.386"/><path class="cls-76" d="M7.924 18.697a1.465 1.465 0 0 1-.68-.325 1.233 1.233 0 0 1 .152-1.247.711.711 0 0 1 .468-.147 2.048 2.048 0 0 1 .344.035.714.714 0 0 1 .63.568c.02.305.05.71-.133.873a1.465 1.465 0 0 1-.78.243m-.303-4.071h-.004a4.065 4.065 0 0 0-.499.033c-.948.12-1.085 1-.86 1.964a2.05 2.05 0 0 0-.798-.153 2.34 2.34 0 0 0-.478.05c-.579.119-.877.597-.882 1.345v.035q.002.164.021.342l.034.07a1.2 1.2 0 0 0 1.28.758 2.723 2.723 0 0 0 .598-.07 2.864 2.864 0 0 0-.069 1.085c.103.397.482.534.81.672a.33.33 0 0 0 .127.024h.02a4.013 4.013 0 0 0 1.695-.85.799.799 0 0 0 .54.218 1.663 1.663 0 0 0 1.011-.53c.241-.222.276-.86-.207-1.532a2.688 2.688 0 0 0 .741-.258 1.293 1.293 0 0 0 .396-1.12c-.04-.481-.553-.851-1.352-.851a3.102 3.102 0 0 0-.663.076 1.526 1.526 0 0 0-.19-.861 1.49 1.49 0 0 0-1.27-.447" style="clip-path:url(#clip-path-26)"/><path class="cls-78" d="M7.865 16.978a.71.71 0 0 0-.468.147 1.23 1.23 0 0 0-.152 1.247 1.461 1.461 0 0 0 .68.325 1.47 1.47 0 0 0 .78-.243c.183-.163.152-.568.132-.873a.713.713 0 0 0-.628-.568 2.048 2.048 0 0 0-.344-.035" style="clip-path:url(#clip-path-27)"/><g style="clip-path:url(#clip-path-28)"><path class="cls-76" d="M14.637 5.339a1.266 1.266 0 0 1 .266-.817.708.708 0 0 1 .468-.147 2.036 2.036 0 0 1 .343.035.714.714 0 0 1 .629.568c.02.304.05.71-.132.872a1.458 1.458 0 0 1-.781.244 1.461 1.461 0 0 1-.68-.325.618.618 0 0 1-.113-.4v-.03m.506-3.316h-.033a4.033 4.033 0 0 0-.485.033c-.947.12-1.085.999-.861 1.964a2.042 2.042 0 0 0-.796-.153 2.35 2.35 0 0 0-.479.05 1.093 1.093 0 0 0-.329.122c-.012.188-.021.39-.021.607l.003.198a12.567 12.567 0 0 0 .194 1.53 1.89 1.89 0 0 0 .606.093 2.716 2.716 0 0 0 .598-.07 2.864 2.864 0 0 0-.069 1.085c.104.396.483.534.809.672a.346.346 0 0 0 .135.024h.007a3.963 3.963 0 0 0 1.702-.851.792.792 0 0 0 .54.219 1.664 1.664 0 0 0 1.01-.53c.241-.222.276-.86-.207-1.532a2.688 2.688 0 0 0 .741-.258 1.293 1.293 0 0 0 .396-1.12c-.041-.481-.553-.852-1.352-.852a3.058 3.058 0 0 0-.663.077 1.526 1.526 0 0 0-.19-.861 1.479 1.479 0 0 0-1.256-.447"/><path class="cls-80" d="M12.16 4.04c-.436.252-.617.81-.532 1.6l.034.068a.982.982 0 0 0 .674.665 12.543 12.543 0 0 1-.194-1.53l-.003-.198c0-.216.009-.418.021-.606"/></g><path class="cls-78" d="M15.37 4.375a.707.707 0 0 0-.467.147 1.268 1.268 0 0 0-.266.817v.031a.622.622 0 0 0 .114.4 1.469 1.469 0 0 0 .679.324 1.466 1.466 0 0 0 .78-.243c.184-.163.153-.568.133-.873a.714.714 0 0 0-.63-.568 2.026 2.026 0 0 0-.342-.035" style="clip-path:url(#clip-path-29)"/><g style="clip-path:url(#clip-path-30)"><path class="cls-76" d="M11.903 30.37a1.466 1.466 0 0 1-.68-.326 1.233 1.233 0 0 1 .152-1.247.71.71 0 0 1 .468-.147 2.048 2.048 0 0 1 .344.035.714.714 0 0 1 .63.568c.02.305.05.71-.133.873a1.465 1.465 0 0 1-.78.243m-.295-4.07h-.02a3.945 3.945 0 0 0-.49.032c-.949.121-1.086 1-.862 1.964a2.028 2.028 0 0 0-.796-.153 2.35 2.35 0 0 0-.479.05c-.672.138-.965.758-.86 1.722l.033.07a1.2 1.2 0 0 0 1.281.758 2.708 2.708 0 0 0 .597-.07 2.865 2.865 0 0 0-.069 1.085c.104.397.482.534.81.672a.35.35 0 0 0 .134.024h.005a3.965 3.965 0 0 0 1.703-.85.799.799 0 0 0 .54.218 1.663 1.663 0 0 0 1.011-.529c.241-.223.275-.86-.207-1.533a2.688 2.688 0 0 0 .741-.258 1.161 1.161 0 0 0 .366-.637 36.7 36.7 0 0 1-.683-1.24 2.063 2.063 0 0 0-.639-.094 3.102 3.102 0 0 0-.663.076 1.527 1.527 0 0 0-.19-.86 1.485 1.485 0 0 0-1.263-.448"/><path class="cls-80" d="M14.364 27.623c.214.412.452.833.683 1.241a1.515 1.515 0 0 0 .037-.322v-.028a2.083 2.083 0 0 0-.007-.132.924.924 0 0 0-.713-.758"/></g><path class="cls-78" d="M11.844 28.65a.708.708 0 0 0-.468.147 1.228 1.228 0 0 0-.152 1.247 1.465 1.465 0 0 0 .68.325 1.47 1.47 0 0 0 .78-.243c.183-.163.153-.568.132-.873a.712.712 0 0 0-.628-.568 2.048 2.048 0 0 0-.344-.035" style="clip-path:url(#clip-path-31)"/><path class="cls-76" d="M56.094 27.474a1.27 1.27 0 0 1 .265-.824.712.712 0 0 1 .47-.147 2.046 2.046 0 0 1 .342.035.713.713 0 0 1 .63.568c.005.103.013.218.014.331v.024a.705.705 0 0 1-.147.517 1.459 1.459 0 0 1-.765.244h-.026a1.498 1.498 0 0 1-.67-.325.626.626 0 0 1-.113-.407v-.016m.526-3.323h-.073a4.13 4.13 0 0 0-.465.033c-.948.12-1.086 1-.86 1.964a2.028 2.028 0 0 0-.797-.153 2.344 2.344 0 0 0-.479.05c-.58.118-.878.596-.882 1.345v.034c.001.11.008.223.02.343l.035.07a1.2 1.2 0 0 0 1.28.758 2.707 2.707 0 0 0 .597-.07 2.872 2.872 0 0 0-.068 1.085c.103.396.482.534.81.672a.364.364 0 0 0 .137.024 3.95 3.95 0 0 0 1.706-.85.792.792 0 0 0 .54.218 1.663 1.663 0 0 0 1.01-.529c.241-.224.276-.86-.207-1.533a2.7 2.7 0 0 0 .741-.259 1.29 1.29 0 0 0 .396-1.119c-.04-.48-.553-.852-1.352-.852a3.045 3.045 0 0 0-.663.077 1.53 1.53 0 0 0-.19-.862 1.466 1.466 0 0 0-1.236-.446" style="clip-path:url(#clip-path-32)"/><path class="cls-78" d="M56.828 26.503a.712.712 0 0 0-.469.147 1.28 1.28 0 0 0-.265.825v.015a.625.625 0 0 0 .113.407 1.497 1.497 0 0 0 .67.325h.027a1.458 1.458 0 0 0 .764-.244.705.705 0 0 0 .147-.517v-.024c0-.113-.009-.228-.015-.331a.714.714 0 0 0-.629-.568 2.047 2.047 0 0 0-.343-.035" style="clip-path:url(#clip-path-33)"/><g style="clip-path:url(#clip-path-34)"><path class="cls-76" d="M66.981 26.595h-.057a4.058 4.058 0 0 0-.473.033c-.948.12-1.085 1-.862 1.964a2.016 2.016 0 0 0-.795-.153 2.35 2.35 0 0 0-.479.05c-.672.137-.965.757-.861 1.722l.033.07a1.202 1.202 0 0 0 1.281.758 2.723 2.723 0 0 0 .598-.07 2.892 2.892 0 0 0-.071 1.078l.118.041a1.513 1.513 0 0 1 .538.31.6.6 0 0 1 .161.33.357.357 0 0 0 .132.022 2.235 2.235 0 0 0 .916-.334v-1.764a1.62 1.62 0 0 1-.584-.31 1.23 1.23 0 0 1 .152-1.248.693.693 0 0 1 .432-.147v-2.346c-.058-.003-.117-.006-.179-.006"/><path class="cls-80" d="m65.295 32.048.002.007c.103.396.482.534.809.672l.006.002a.591.591 0 0 0-.161-.33 1.516 1.516 0 0 0-.538-.311 3.55 3.55 0 0 0-.118-.04"/></g><path class="cls-78" d="M67.16 28.948a.691.691 0 0 0-.432.146 1.232 1.232 0 0 0-.152 1.248 1.634 1.634 0 0 0 .584.31v-1.704" style="clip-path:url(#clip-path-35)"/><g style="clip-path:url(#clip-path-36)"><path class="cls-76" d="M52.81 34.656a1.267 1.267 0 0 1 .265-.813.712.712 0 0 1 .469-.147 2.047 2.047 0 0 1 .343.035.714.714 0 0 1 .629.568c.02.304.051.71-.132.872a1.075 1.075 0 0 1-1.461-.081.62.62 0 0 1-.113-.396v-.038m.489-3.312a3.918 3.918 0 0 0-.501.033c-.948.12-1.086 1-.861 1.964a2.028 2.028 0 0 0-.796-.153 2.35 2.35 0 0 0-.479.05c-.58.12-.878.596-.882 1.345v.034c.001.11.008.223.02.343l.035.07a1.2 1.2 0 0 0 1.281.758 2.699 2.699 0 0 0 .596-.07 4.199 4.199 0 0 0-.081.457 9.408 9.408 0 0 1 .49-.085.274.274 0 0 1 .05-.004.357.357 0 0 1 .278.134 2.965 2.965 0 0 1 .448.917l.087.275a5.677 5.677 0 0 0 1.313-.764.792.792 0 0 0 .54.22 1.663 1.663 0 0 0 1.01-.53c.241-.224.276-.86-.207-1.533a2.7 2.7 0 0 0 .741-.259 1.246 1.246 0 0 0 .402-.959v-.026c0-.044-.002-.088-.006-.134-.041-.48-.553-.852-1.352-.852a3.058 3.058 0 0 0-.663.077 1.531 1.531 0 0 0-.19-.862 1.494 1.494 0 0 0-1.273-.446"/><path class="cls-89" d="m51.997 36.831-.18.033-.143.03a.97.97 0 0 0 .552.484l-.008-.026v-.001a2.838 2.838 0 0 0-.22-.52"/><path class="cls-80" d="M52.171 36.086a.274.274 0 0 0-.05.004 7.891 7.891 0 0 0-.49.085 1.848 1.848 0 0 0 .013.628.651.651 0 0 0 .03.091l.144-.03.179-.033a2.805 2.805 0 0 1 .221.52v.001l.008.026c.076.034.153.066.227.097a.345.345 0 0 0 .134.024h.007a1.24 1.24 0 0 0 .39-.087l-.087-.275a2.963 2.963 0 0 0-.448-.917.357.357 0 0 0-.278-.134"/></g><path class="cls-78" d="M53.544 33.696a.707.707 0 0 0-.468.147 1.267 1.267 0 0 0-.266.813v.038a.62.62 0 0 0 .114.396 1.075 1.075 0 0 0 1.46.082c.183-.163.152-.569.132-.873a.714.714 0 0 0-.63-.568 2.026 2.026 0 0 0-.342-.035" style="clip-path:url(#clip-path-37)"/><g style="clip-path:url(#clip-path-38)"><path class="cls-76" d="M56.965 42.371a1.266 1.266 0 0 1 .265-.812.712.712 0 0 1 .47-.146 2.047 2.047 0 0 1 .342.035.715.715 0 0 1 .63.567c.02.304.05.71-.132.872a1.075 1.075 0 0 1-1.461-.08.616.616 0 0 1-.113-.395v-.04m.494-3.312h-.008a4.05 4.05 0 0 0-.498.033l-.006.001c-.221.341-.563.827-.946 1.354a3.559 3.559 0 0 0 .09.61 1.825 1.825 0 0 0-.444-.126 85.102 85.102 0 0 1-1.555 2.05 1.328 1.328 0 0 0 1.178.522 2.707 2.707 0 0 0 .597-.07 2.872 2.872 0 0 0-.068 1.086c.103.397.482.534.809.672a.362.362 0 0 0 .138.024 3.947 3.947 0 0 0 1.705-.851.795.795 0 0 0 .54.219 1.658 1.658 0 0 0 1.01-.529c.242-.223.276-.861-.206-1.533a2.687 2.687 0 0 0 .741-.258 1.293 1.293 0 0 0 .396-1.12c-.041-.481-.553-.852-1.352-.852a3.06 3.06 0 0 0-.664.077 1.536 1.536 0 0 0-.189-.862 1.491 1.491 0 0 0-1.268-.446"/><path class="cls-89" d="M54.728 40.976a1.099 1.099 0 0 0-.773 1.023c.238-.31.504-.662.773-1.023"/><path class="cls-80" d="M55.297 40.905a2.344 2.344 0 0 0-.48.05l-.088.02c-.27.362-.536.714-.774 1.024a2.896 2.896 0 0 0 0 .678l.036.069a.897.897 0 0 0 .102.237c.406-.515.997-1.292 1.555-2.05a2.174 2.174 0 0 0-.351-.028m1.65-1.81c-.737.096-.981.655-.945 1.354.383-.527.725-1.013.946-1.354"/></g><path class="cls-78" d="M57.7 41.412a.712.712 0 0 0-.47.147 1.272 1.272 0 0 0-.265.813v.04a.627.627 0 0 0 .113.395 1.076 1.076 0 0 0 1.461.08c.183-.162.152-.568.132-.872a.714.714 0 0 0-.629-.568 2.037 2.037 0 0 0-.343-.035" style="clip-path:url(#clip-path-39)"/><path class="cls-93" d="M15.293 11.825c-.06-.76 1.08-1.137 1.596-1.148a1.806 1.806 0 0 1 1.447.757 2.29 2.29 0 0 1-.023 1.15 1.34 1.34 0 0 1-1.297 1.113 1.855 1.855 0 0 1-1.62-1.034 3.001 3.001 0 0 1-.104-.838M7.28 8.857c-.06-.76 1.08-1.137 1.595-1.149a1.81 1.81 0 0 1 1.447.758 2.29 2.29 0 0 1-.023 1.15 1.341 1.341 0 0 1-1.297 1.113 1.855 1.855 0 0 1-1.619-1.034 3.002 3.002 0 0 1-.104-.838M47.495 42.395c-.06-.76 1.08-1.137 1.596-1.148a1.806 1.806 0 0 1 1.447.757 2.29 2.29 0 0 1-.023 1.15 1.34 1.34 0 0 1-1.297 1.113 1.855 1.855 0 0 1-1.62-1.034 3.001 3.001 0 0 1-.103-.838M62.186 37.795c-.059-.76 1.08-1.137 1.596-1.148a1.805 1.805 0 0 1 1.447.758 2.286 2.286 0 0 1-.023 1.148 1.34 1.34 0 0 1-1.297 1.114 1.858 1.858 0 0 1-1.62-1.034 3.025 3.025 0 0 1-.103-.838M60.484 23.95c-.06-.76 1.079-1.137 1.596-1.148a1.806 1.806 0 0 1 1.447.757 2.29 2.29 0 0 1-.023 1.15 1.34 1.34 0 0 1-1.297 1.113 1.858 1.858 0 0 1-1.62-1.034 3.025 3.025 0 0 1-.103-.838"/><path class="cls-70" d="M6.283 16.525a1.319 1.319 0 0 1 .996-1.934c1.057-.111 1.71.278 1.753.807s.153.979-.387 1.18M9.129 15.997c.529-.363 1.77-.312 1.934.5.18.897-.167 1.308-.46 1.474a1.81 1.81 0 0 1-.625.223"/><path class="cls-70" d="M9.249 17.991c.478.098.979.273 1.077.773a1.028 1.028 0 0 1-.446 1.224 1.189 1.189 0 0 1-1.74-.946M8.336 19.78a1.372 1.372 0 0 1-1.781.821c-1.032-.533-.807-1.238-.487-1.656"/><path class="cls-70" d="M6.18 16.483c-.53-.222-2.213-.222-2.088 1.294.12 1.44 1.061 1.432 1.483 1.39a1.191 1.191 0 0 0 .896-.778"/><path class="cls-94" d="M7.334 17.24a.908.908 0 0 1 1.419.091c.237.483.07 1.391-.723 1.391-.613 0-.963-.32-.963-.849"/><path class="cls-70" d="M13.788 3.921a1.319 1.319 0 0 1 .996-1.933c1.057-.111 1.711.278 1.753.807s.153.979-.387 1.18M16.634 3.394c.53-.363 1.77-.312 1.934.5.181.897-.167 1.307-.46 1.474a1.81 1.81 0 0 1-.625.223"/><path class="cls-70" d="M16.754 5.388c.478.097.98.272 1.076.773a1.026 1.026 0 0 1-.445 1.224 1.189 1.189 0 0 1-1.739-.946M15.841 7.177a1.372 1.372 0 0 1-1.78.821c-1.033-.533-.808-1.238-.488-1.656"/><path class="cls-70" d="M13.685 3.88c-.53-.223-2.212-.223-2.087 1.294.119 1.441 1.06 1.432 1.483 1.391a1.191 1.191 0 0 0 .896-.779"/><path class="cls-94" d="M14.84 4.636a.908.908 0 0 1 1.419.092c.237.483.07 1.391-.723 1.391-.613 0-.963-.32-.963-.849"/><path class="cls-70" d="M10.262 28.197a1.318 1.318 0 0 1 .996-1.934c1.057-.111 1.71.278 1.753.807s.153.98-.387 1.18M13.107 27.67c.53-.364 1.77-.313 1.935.5.18.896-.168 1.307-.46 1.473a1.812 1.812 0 0 1-.626.223"/><path class="cls-70" d="M13.228 29.664c.478.097.979.272 1.076.773a1.026 1.026 0 0 1-.445 1.224 1.188 1.188 0 0 1-1.74-.946M12.315 31.453a1.372 1.372 0 0 1-1.781.82c-1.033-.532-.808-1.237-.487-1.655"/><path class="cls-70" d="M10.158 28.155c-.529-.223-2.212-.223-2.087 1.294.12 1.441 1.061 1.432 1.483 1.391a1.194 1.194 0 0 0 .896-.779"/><path class="cls-94" d="M11.313 28.912a.908.908 0 0 1 1.419.092c.237.483.07 1.39-.723 1.39-.612 0-.963-.32-.963-.848"/><path class="cls-70" d="M55.245 26.05a1.319 1.319 0 0 1 .996-1.934c1.057-.111 1.711.278 1.753.807s.153.979-.387 1.18M58.091 25.522c.53-.363 1.77-.312 1.934.5.181.897-.167 1.308-.459 1.475a1.82 1.82 0 0 1-.626.222"/><path class="cls-70" d="M58.211 27.517c.48.097.98.272 1.077.773a1.028 1.028 0 0 1-.446 1.224 1.188 1.188 0 0 1-1.739-.946M57.298 29.305a1.372 1.372 0 0 1-1.78.821c-1.033-.533-.808-1.238-.488-1.656"/><path class="cls-70" d="M55.142 26.008c-.53-.223-2.212-.223-2.087 1.294.119 1.441 1.06 1.432 1.483 1.391a1.195 1.195 0 0 0 .896-.779"/><path class="cls-94" d="M56.297 26.764a.908.908 0 0 1 1.419.092c.237.483.07 1.391-.723 1.391-.612 0-.962-.32-.962-.849"/><path class="cls-95" d="M65.614 28.494a1.319 1.319 0 0 1 .996-1.934c1.057-.111 1.711.278 1.753.807s.153.979-.387 1.18M68.46 27.966c.529-.363 1.77-.312 1.934.5.181.897-.167 1.308-.459 1.475a1.823 1.823 0 0 1-.626.222"/><path class="cls-95" d="M68.58 29.96c.478.098.979.272 1.077.773a1.028 1.028 0 0 1-.446 1.224 1.188 1.188 0 0 1-1.739-.946M67.667 31.75a1.372 1.372 0 0 1-1.78.82c-1.033-.533-.808-1.238-.488-1.656"/><path class="cls-70" d="M65.511 28.452c-.529-.223-2.212-.223-2.087 1.294.119 1.441 1.06 1.432 1.483 1.391a1.194 1.194 0 0 0 .896-.779"/><path d="M66.666 29.208a.908.908 0 0 1 1.419.092c.237.483.07 1.391-.723 1.391-.613 0-.963-.319-.963-.849" style="fill:#fee700;stroke-width:.334px;stroke:#231f20;stroke-linecap:round;stroke-linejoin:round"/><path class="cls-70" d="M51.961 33.243a1.318 1.318 0 0 1 .996-1.934c1.057-.111 1.711.278 1.753.807s.153.979-.387 1.18M54.807 32.715c.529-.363 1.771-.312 1.934.5.181.897-.167 1.308-.459 1.475a1.823 1.823 0 0 1-.626.222"/><path class="cls-70" d="M54.927 34.71c.478.097.98.271 1.076.772a1.026 1.026 0 0 1-.445 1.224 1.188 1.188 0 0 1-1.739-.946M54.014 36.498a1.372 1.372 0 0 1-1.78.821c-1.033-.533-.808-1.238-.487-1.656"/><path class="cls-70" d="M51.858 33.2c-.53-.222-2.212-.222-2.087 1.295.119 1.44 1.06 1.432 1.483 1.39a1.194 1.194 0 0 0 .896-.778"/><path class="cls-94" d="M53.012 33.957a.908.908 0 0 1 1.42.092c.236.483.07 1.391-.724 1.391-.612 0-.962-.319-.962-.849"/><path class="cls-70" d="M56.117 40.96a1.319 1.319 0 0 1 .996-1.935c1.057-.11 1.71.278 1.753.807s.153.98-.387 1.18M58.962 40.432c.53-.363 1.77-.312 1.934.5.181.897-.167 1.307-.459 1.475a1.823 1.823 0 0 1-.626.222"/><path class="cls-70" d="M59.083 42.426c.478.097.979.272 1.077.773a1.028 1.028 0 0 1-.446 1.224 1.188 1.188 0 0 1-1.74-.946M58.17 44.215a1.372 1.372 0 0 1-1.781.82c-1.032-.532-.807-1.237-.487-1.655"/><path class="cls-70" d="M56.013 40.917c-.529-.223-2.212-.223-2.087 1.294.12 1.441 1.061 1.432 1.483 1.391a1.195 1.195 0 0 0 .896-.779"/><path class="cls-94" d="M57.168 41.674a.908.908 0 0 1 1.419.092c.237.483.07 1.39-.723 1.39-.612 0-.963-.32-.963-.85"/><path class="cls-70" d="M15.316 12.168a1.426 1.426 0 0 1 1.614-1.56 1.343 1.343 0 0 1 1.425 1.602 1.36 1.36 0 0 1-1.56 1.457 1.473 1.473 0 0 1-1.479-1.499ZM7.303 9.2a1.426 1.426 0 0 1 1.614-1.561 1.343 1.343 0 0 1 1.425 1.603A1.36 1.36 0 0 1 8.781 10.7 1.473 1.473 0 0 1 7.303 9.2ZM47.519 42.738a1.427 1.427 0 0 1 1.614-1.562 1.344 1.344 0 0 1 1.425 1.604 1.36 1.36 0 0 1-1.562 1.457 1.474 1.474 0 0 1-1.477-1.499ZM62.21 38.138a1.426 1.426 0 0 1 1.614-1.561 1.343 1.343 0 0 1 1.425 1.603 1.36 1.36 0 0 1-1.562 1.457 1.473 1.473 0 0 1-1.477-1.5ZM60.508 24.293a1.426 1.426 0 0 1 1.614-1.561 1.343 1.343 0 0 1 1.425 1.603 1.36 1.36 0 0 1-1.562 1.457 1.474 1.474 0 0 1-1.477-1.499Z"/></g></g></svg>