<svg xmlns="http://www.w3.org/2000/svg" viewBox="0 0 90.583 80.204"><defs><style>.cls-4{fill:#006838}.cls-5{fill:#084430}.cls-6{fill:#fff}.cls-12,.cls-7{fill:none;stroke:#231f20;stroke-linecap:round;stroke-linejoin:round}.cls-7{stroke-width:.697px}.cls-10{fill:#ce8b1e}.cls-11{fill:#ad7515}.cls-12{stroke-width:.542px}</style></defs><g id="Layer_2" data-name="Layer 2"><g id="Layer_1-2" data-name="Layer 1"><path d="m36.648 33.038 2.855-3.916-1.468-.245 1.795-2.691-1.07-.117c.048-.123 1.643-2.651 1.938-3.363a7.702 7.702 0 0 0-1.67.54 23.465 23.465 0 0 0 1.866-3.486 8.513 8.513 0 0 0-1.178-.22 16.108 16.108 0 0 0 1.424-3.388 1.418 1.418 0 0 1-1.03.073 11.237 11.237 0 0 0 1.57-4.1s-.344.124-1.449.565a28.25 28.25 0 0 0 1.448-4.296 6.721 6.721 0 0 1-1.227.222 19.067 19.067 0 0 1 2.504-2.872 29.57 29.57 0 0 0-7.487 2.135s.098-.491.196-.86a26.222 26.222 0 0 0-5.769 2.432.812.812 0 0 0 .172-.786 17.906 17.906 0 0 0-4.689 2.406 1.344 1.344 0 0 0 .05-.81 21.378 21.378 0 0 0-4.886 3.363 2.85 2.85 0 0 0-.147-.884 19.877 19.877 0 0 0-3.805 4.443 1.388 1.388 0 0 0-.392-.86 10.68 10.68 0 0 0-3.463 4.076 2.046 2.046 0 0 0-.564-.86 9.982 9.982 0 0 0-2.037 3.634s-.295-.712-.639-.884a17.468 17.468 0 0 1-1.57 2.578 14.098 14.098 0 0 0-2.308 6.039s-.393-.417-.762-.884a24.746 24.746 0 0 0-1.79 8.346s-.492-.417-.91-.711a13.064 13.064 0 0 0-.368 2.062 18.288 18.288 0 0 0 .393 5.45 3.052 3.052 0 0 0-.688.22 14.682 14.682 0 0 0 .05 4.566c.368 2.38.908 3.266 2.111 5.573l3.84 1.33 26.925-20.507 2.23-3.313" style="fill:#3a8546"/><path d="M3.752 77.254a3.6 3.6 0 0 1 .712-1.007 2.651 2.651 0 0 1 .884.074 32.981 32.981 0 0 1 3.903 1.3 13.407 13.407 0 0 0 4.762.81c.099-.048.319-.367.958-1.03 1.914 1.718 6.235 1.67 7.143 1.67 0 0 .246-.05.884-.982 1.006.908 6.014 1.644 7.34 1.767a1.932 1.932 0 0 0 .393-1.301s.49.196 1.473.466a51.245 51.245 0 0 0 8.665-.05s.123-.195 0-.907c.54-.074 4.81-.147 6.97-.516a35.712 35.712 0 0 0 6.703-2.062 2.393 2.393 0 0 1-.442-.712 38.873 38.873 0 0 0 6.064-1.694 7.143 7.143 0 0 0 2.33-1.227 11.459 11.459 0 0 1-.98-.638 1.056 1.056 0 0 1 .515-.295 11.074 11.074 0 0 0 5.278-3.56 12.15 12.15 0 0 0-1.301-.147s-.05-.171.442-.393c.49-.22 3.584-1.767 4.713-3.216a16.271 16.271 0 0 1-2.185-.073 18.633 18.633 0 0 0 4.198-3.34s-.441-.024-1.178-.122a22.439 22.439 0 0 0 3.486-3.24 2.869 2.869 0 0 1-.958-.024 11.648 11.648 0 0 0 2.75-3.192s-.344-.123-1.007-.295a21.678 21.678 0 0 0 3.192-4.124s-.074-.27-1.08-.122a35.228 35.228 0 0 0 2.945-4.493 4.806 4.806 0 0 0-1.178 0 25.881 25.881 0 0 0 2.872-3.657c.074-.05-.074-.32-.687-.688a17.585 17.585 0 0 0 2.626-3.584s-.098-.368-.834-.614a19.06 19.06 0 0 0 3.289-2.602s.025-.27-.957-.491a31.514 31.514 0 0 1 3.78-4.246 31.135 31.135 0 0 0-6.628-.001s.196-.32.613-.86a44.894 44.894 0 0 0-4.934.32 2.21 2.21 0 0 1 .369-.638 19.477 19.477 0 0 0-4.124.565 2.934 2.934 0 0 1 .245-.786 14.011 14.011 0 0 0-3.412.27 2.643 2.643 0 0 1 .197-.908 24.628 24.628 0 0 0-4.885.614 3.046 3.046 0 0 0-.681-.843l-2.936 1.469c-.735-.898-1.061-.653-1.061-.653s-3.834 1.387-4.08 1.63l.164-.977a23.845 23.845 0 0 0-3.507 1.142 3.467 3.467 0 0 0-.245-1.061c-2.04.816-5.058 2.284-5.058 2.284.816-.98.489-1.305.489-1.305-1.631.816-3.344 1.713-3.344 1.713.163-1.06-.164-.98-.164-.98l-3.018 1.47-.816-.98a21.041 21.041 0 0 0-2.284 1.633c-.245.326-.816-.816-.816-.816l-2.202 1.305-.98.489a20.338 20.338 0 0 0-5.498 1.403 1.408 1.408 0 0 1-.197-.614 14.296 14.296 0 0 0-3.436 1.939.593.593 0 0 0-.27-.663 10.409 10.409 0 0 0-3.02 2.063 2.59 2.59 0 0 1-.417-.59 18.795 18.795 0 0 0-2.971 2.382s-.196-.344-.466-.81a24.69 24.69 0 0 0-3.535 2.504 2.224 2.224 0 0 0-.442-.663 9.524 9.524 0 0 0-3.437 3.51 2.966 2.966 0 0 0-.663-.883 12.92 12.92 0 0 0-2.626 3.485s-.467-.27-1.08-.687c0 0-.712 1.227-1.424 2.798a15.156 15.156 0 0 0-1.473 4.468 4.967 4.967 0 0 1-.786-.858 5.52 5.52 0 0 0-.957 1.988 25.184 25.184 0 0 0-1.203 5.4 8.449 8.449 0 0 1-.908-.981 12.232 12.232 0 0 0-.491 1.988 17.592 17.592 0 0 0-.246 5.254 8.939 8.939 0 0 0-1.13-.91 24.9 24.9 0 0 0-.048 4.444 19.155 19.155 0 0 0 1.473 6.554 6.763 6.763 0 0 0-.614.933" style="fill:#69b345"/><path d="M36.716 49.859c-2.083.729-6.457 2.708-6.144 3.333s2.708.521 5.519-.313a21.264 21.264 0 0 1 8.019-.624c2.604.208 2.916-1.25 5.207-.626a39.635 39.635 0 0 0 7.707 1.25c2.916.208 7.915.105 9.685-3.02s1.25-3.853 1.458-5.207.104-1.562 1.77-1.979 1.875-2.291 3.75-3.54 4.06-3.125 2.395-4.062-4.583 0-6.353 1.145-4.582 2.5-6.04 2.604-10.31 1.77-12.497 3.75c-2.187 1.978-7.915 4.685-9.581 5.623a23.631 23.631 0 0 1-4.895 1.666" style="fill:#529f47"/><path class="cls-4" d="M24.95 56.415c3.26-.585 14.462-.084 19.394-.25s17.887-2.676 21.9-4.682a53.6 53.6 0 0 1 7.857-3.259c-2.257 1.002-7.776 4.123-10.45 5.126s-10.687 2.53-17.47 3.315c-4.954.575-13.623.085-17.051.168a34.705 34.705 0 0 0-5.767.67c-.334 0 1.588-1.088 1.588-1.088"/><path class="cls-4" d="M52.786 55.58c1.589 1.002 8.61 1.504 12.12 1.587a13.714 13.714 0 0 0 6.604-1.338c-1.84.251-4.346 1.171-7.69 1.004a85.883 85.883 0 0 1-10.031-1.672 1.388 1.388 0 0 0-1.003.418M9.487 69.371A16.89 16.89 0 0 1 20.27 67.95c5.015.836 11.953 2.758 18.974 2.842s16.551-.334 20.312-2.341c-2.34 1.421-7.105 2.759-10.95 3.093a79.309 79.309 0 0 1-16.049-.752c-5.209-.799-13.7-2.686-16.793-2.268a29.879 29.879 0 0 0-7.28 1.766c-.585.418 1.003-.919 1.003-.919"/><path class="cls-4" d="M35.4 71.043c3.176-1.337 7.189-3.678 11.786-5.6s8.777-3.26 10.532-4.264c-1.254 1.087-3.511 1.756-6.185 2.843a62.116 62.116 0 0 0-7.942 3.594 51.812 51.812 0 0 1-6.519 3.427 3.146 3.146 0 0 1-1.672 0M17.428 60.928c-.167-2.924-.334-7.605 2.257-11.533s6.52-9.197 9.446-11.036a33.313 33.313 0 0 0-4.013 4.18 47.651 47.651 0 0 0-5.767 9.278c-.836 2.257-1.171 7.523-1.338 8.443-.167.918-.585.668-.585.668"/><path class="cls-4" d="M21.19 47.806c1.671-1.505 6.602-5.183 9.027-6.102a12.028 12.028 0 0 1 3.01-.92 37.149 37.149 0 0 0-6.103 3.26c-1.756 1.254-6.353 4.43-6.938 5.099s1.003-1.337 1.003-1.337M53.705 45.549c2.591 0 9.111 1.087 12.455.25s8.776-2.758 9.863-3.678a22.944 22.944 0 0 1-7.189 3.26 32.84 32.84 0 0 1-9.696 1.087 60.406 60.406 0 0 1-6.603-1.087c-.25 0 1.17.168 1.17.168"/><path class="cls-4" d="M5.475 74.303c1.354-2.71 8.86-11.201 14.544-15.714s13.876-7.19 17.972-8.443 17.97-5.266 22.736-7.523 9.612-6.771 12.204-8.108a40.727 40.727 0 0 1 8.526-2.591c-3.01.919-7.774 2.59-10.365 4.764a45.602 45.602 0 0 1-9.362 5.935c-2.424 1.003-14.294 4.848-18.64 6.436s-11.201 3.093-17.386 7.273-8.694 5.6-13.208 10.532S6.31 73.8 6.31 73.8s-1.338 1.505-.836.502"/><path class="cls-4" d="M8.568 70.625c-.418-2.007-1.756-9.446-1.17-12.789s2.006-7.607 2.925-8.61c.084.836-.083.752-.668 2.257a27.747 27.747 0 0 0-1.923 9.78 51.152 51.152 0 0 0 1.254 8.693c.167.502-.418.67-.418.67"/><path class="cls-5" d="M8.902 46.134c.669-4.263 5.35-12.956 9.78-19.058S31.889 14.538 34.73 13.45a72.817 72.817 0 0 0-8.61 6.603 70.883 70.883 0 0 0-10.95 13.458 88.895 88.895 0 0 0-6.018 13.124c-.084.334-.251-.502-.251-.502"/><path class="cls-5" d="M10.323 41.787c.418-2.925 1.839-6.77 1.755-10.114s-.334-5.1-.752-5.684c1.003.25 1.588 3.594 1.338 5.517a26.468 26.468 0 0 1-.92 5.349 21.755 21.755 0 0 0-.752 4.598ZM13.666 36.02a35.143 35.143 0 0 1 10.198-5.684 41.466 41.466 0 0 1 9.111-2.34c-1.672.5-6.102 1.42-8.777 2.674s-7.69 3.761-9.696 5.433a10.054 10.054 0 0 0-2.424 2.508Z"/><path class="cls-5" d="M23.112 30.67c1.505-1.505 8.86-7.774 10.783-8.777s1.003-.167.167.418-4.848 3.511-6.603 5.099-3.26 3.26-3.26 3.26Z"/><path class="cls-6" d="M2.158 75.365a40.907 40.907 0 0 1-.834-8.92 3.546 3.546 0 0 0 1.755.415c.583-.167-.287-2.333-.121-3.25a31.168 31.168 0 0 0 .033-3.918s.754 1.123 1.17.79 1.195-5.722 1.445-6.139.907.047 1.324-.12.87-3.1 1.203-3.85 1.064-3.296 1.565-3.13 1.129.195 1.296-.222 1.175-2.62 1.592-2.786.426.398.842.481.9-1.613 1.818-2.446a7.043 7.043 0 0 1 1.667-1.168 18.496 18.496 0 0 0 2.584-1.167 2.264 2.264 0 0 1 1.584-.167 28.292 28.292 0 0 1 3.168-2.417c.417-.084.25.583.584.583a14.445 14.445 0 0 0 2.334-1.583c.25-.167.417.25.417.25s2.667-1.334 3-1.585c.334-.249 1.418.168 1.418.168s3.084-1.835 3.418-1.918.584.75.584.75 3.084-1.25 3.584-1.5 1.668.25 1.668.25l1.5-1.167 1.167.583s2.168-1 2.418-1.083 1.25.333 1.5.333a8.134 8.134 0 0 0 1.335-.584 3.502 3.502 0 0 1 1.5.167s3.75-1.75 4.084-1.834-.333.75-.083.75 3.5-.75 3.5-.75l.418.584 4.169-1.418.666.251s2.335-.834 2.668-.917 1.084.416 1.084.416 3.334-.417 3.584-.5.084.834.084.834l3.918-.334s-.25.834 0 .834 3.5-.333 3.5-.333l.918.5 3.418-.334-.25.751s2.834-.084 3.335-.167 2.5-.167 2.5-.167l.5 1 1.546-1.485s-6.126-.069-6.628 0c.614-.86.33-1.015.33-1.015s-4.217.283-4.651.475c.484-.809.369-.639.369-.639l-4.124.565c.238-1.152-.096-.985-.096-.985l-3.07.47.196-.909s-4.391.455-4.885.614a14.124 14.124 0 0 0-.681-.842l-2.936 1.468-.795-.8-4.344 1.78.162-.98-3.507 1.142-.245-1.06-5.058 2.284.489-1.306-3.344 1.714-.163-.98-2.83 1.157-.751-.834-2.538 1.8-.816-.817-3.671 2.04.439-1.272-5.448 2.43s-.793-1.173-3.633 1.325a4.487 4.487 0 0 1-.27-.663s-2.32.91-2.736 1.743a1.442 1.442 0 0 1-.701-.27 29.813 29.813 0 0 1-2.467 2.104 1.585 1.585 0 0 0-.97-.533s-3.12 1.807-3.535 2.504l-.441-.663a27.116 27.116 0 0 0-3.057 3.11 6.587 6.587 0 0 1-1.044-.483s-2.211 2.82-2.626 3.485a6.356 6.356 0 0 0-1.08-.687 54.341 54.341 0 0 0-2.753 6.938l-.667-.666s-2.511 5.63-2.423 7.525a4.57 4.57 0 0 0-.908-.982s-1.004 5.378-.587 6.88a5.069 5.069 0 0 1-1.28-.546 30.218 30.218 0 0 0-.137 6.13 19.276 19.276 0 0 0 1.25 4.335Z"/><path class="cls-6" d="M3.654 55.528s.505.58.338-.92-2.001-5.752-1.334-8.42a1.493 1.493 0 0 0 .25-.833c0-.417-.584-4.92-.25-5.586s.75-.333.75-.333.917-5.335 1.667-6.502.5-.5.75-.417-.333-.584.584-2.418 2.668-5.502 3.252-5.835.416.416.416.416a17.5 17.5 0 0 1 1.918-3.084c.5-.334.417.834.583.584a52.462 52.462 0 0 1 3.418-4.42c.417-.25.084 1.085.084 1.085a12.608 12.608 0 0 1 2.417-2.918l1.584-1.417.417.417a30.726 30.726 0 0 1 3.75-3.085c1.002-.5.252.667.252.667s2.834-1.584 3.75-2.084.83.604.83.604a10.727 10.727 0 0 1 3.172-2.104 4.832 4.832 0 0 1 2.082-.388l.169.638a25.616 25.616 0 0 1 3.585-1.501c1.083-.25 2.477-.552 2.477-.552a12.484 12.484 0 0 1-1.011 1.415c-.333.333.425.473.842.64s.11.748.026 1.415-.191 2.098-.191 2.098 1.29-3.408 1.449-4.296c-.424.03-.925.114-.925.114s1.734-2.278 2.2-2.765a28.37 28.37 0 0 0-7.118 1.93c0-.5-.171-.653-.171-.653s-5.208 2.039-5.77 2.43c.356-.61.172-.785.172-.785s-4.31 2.135-4.69 2.406c.05-.81-.212-.812-.212-.812s-4.41 2.895-4.622 3.365c.12-.782-.148-.884-.148-.884a19.984 19.984 0 0 0-3.4 4.02 3.982 3.982 0 0 0-.797-.436s-2.804 2.629-3.462 4.075l-.565-.86a13.719 13.719 0 0 0-1.761 3.224 4.397 4.397 0 0 0-.914-.474s-.837 1.224-1.92 2.808a11.56 11.56 0 0 0-1.584 4c-.167.669-.375 1.809-.375 1.809l-.761-.884s.302.16-.365 1.744a19.329 19.329 0 0 0-1.427 6.602c-.49-.516-.91-.907-.91-.711a11.648 11.648 0 0 0-.498 2.946c.084 1.167.584 4.25.584 4.25-.747.537-.75.335-.834 1.002a13.792 13.792 0 0 0-.166 4.335 13.48 13.48 0 0 0 1.584 3.835 10.333 10.333 0 0 1 .829 1.503"/><path class="cls-7" d="M3.752 77.254a3.6 3.6 0 0 1 .712-1.007 2.651 2.651 0 0 1 .884.074 32.981 32.981 0 0 1 3.903 1.3 13.407 13.407 0 0 0 4.762.81c.099-.048.319-.367.958-1.03 1.914 1.718 6.235 1.67 7.143 1.67 0 0 .246-.05.884-.982 1.006.908 6.014 1.644 7.34 1.767a1.932 1.932 0 0 0 .393-1.301s.49.196 1.473.466a51.245 51.245 0 0 0 8.665-.05s.123-.195 0-.907c.54-.074 4.81-.147 6.97-.516a35.712 35.712 0 0 0 6.703-2.062 2.393 2.393 0 0 1-.442-.712 38.873 38.873 0 0 0 6.064-1.694 7.143 7.143 0 0 0 2.33-1.227 11.459 11.459 0 0 1-.98-.638 1.056 1.056 0 0 1 .515-.295 11.074 11.074 0 0 0 5.278-3.56 12.15 12.15 0 0 0-1.301-.147s-.05-.171.442-.393c.49-.22 3.584-1.767 4.713-3.216a16.271 16.271 0 0 1-2.185-.073 18.633 18.633 0 0 0 4.198-3.34s-.441-.024-1.178-.122a22.439 22.439 0 0 0 3.486-3.24 2.869 2.869 0 0 1-.958-.024 11.648 11.648 0 0 0 2.75-3.192s-.344-.123-1.007-.295a21.678 21.678 0 0 0 3.192-4.124s-.074-.27-1.08-.122a35.228 35.228 0 0 0 2.945-4.493 4.806 4.806 0 0 0-1.178 0 25.881 25.881 0 0 0 2.872-3.657c.074-.05-.074-.32-.687-.688a17.585 17.585 0 0 0 2.626-3.584s-.098-.368-.834-.614a19.06 19.06 0 0 0 3.289-2.602s.025-.27-.957-.491a31.514 31.514 0 0 1 3.78-4.246 31.135 31.135 0 0 0-6.628-.001s.196-.32.613-.86a44.894 44.894 0 0 0-4.934.32 2.21 2.21 0 0 1 .369-.638 19.477 19.477 0 0 0-4.124.565 2.934 2.934 0 0 1 .245-.786 14.011 14.011 0 0 0-3.412.27 2.643 2.643 0 0 1 .197-.908 24.628 24.628 0 0 0-4.885.614 3.046 3.046 0 0 0-.681-.843l-2.936 1.469c-.735-.898-1.061-.653-1.061-.653s-3.834 1.387-4.08 1.63l.164-.977a23.845 23.845 0 0 0-3.507 1.142 3.467 3.467 0 0 0-.245-1.061c-2.04.816-5.058 2.284-5.058 2.284.816-.98.489-1.305.489-1.305-1.631.816-3.344 1.713-3.344 1.713.163-1.06-.164-.98-.164-.98l-3.018 1.47-.816-.98a21.041 21.041 0 0 0-2.284 1.633c-.245.326-.816-.816-.816-.816l-3.181 1.794-.191-1.06c-1.84.147-3.688 1.824-5.308 2.463a1.408 1.408 0 0 1-.197-.614 14.296 14.296 0 0 0-3.436 1.939.593.593 0 0 0-.27-.663 10.409 10.409 0 0 0-3.02 2.063 2.59 2.59 0 0 1-.417-.59 18.795 18.795 0 0 0-2.971 2.382s-.196-.344-.466-.81a24.69 24.69 0 0 0-3.535 2.504 2.224 2.224 0 0 0-.442-.663 9.524 9.524 0 0 0-3.437 3.51 2.966 2.966 0 0 0-.663-.883 12.92 12.92 0 0 0-2.626 3.485s-.467-.27-1.08-.687c0 0-.712 1.227-1.424 2.798a15.156 15.156 0 0 0-1.473 4.468 4.967 4.967 0 0 1-.786-.858 5.52 5.52 0 0 0-.957 1.988 25.184 25.184 0 0 0-1.203 5.4 8.449 8.449 0 0 1-.908-.981 12.232 12.232 0 0 0-.491 1.988 17.592 17.592 0 0 0-.246 5.254 8.939 8.939 0 0 0-1.13-.91 24.9 24.9 0 0 0-.048 4.444 19.155 19.155 0 0 0 1.473 6.554 6.763 6.763 0 0 0-.614.933"/><path class="cls-7" d="M3.654 55.528C2.45 53.22 1.91 52.336 1.543 49.955a14.667 14.667 0 0 1-.05-4.565 3.036 3.036 0 0 1 .688-.221 18.288 18.288 0 0 1-.393-5.45 13.318 13.318 0 0 1 .368-2.062c.418.294.909.71.909.71a24.723 24.723 0 0 1 1.792-8.345c.368.466.76.884.76.884a14.084 14.084 0 0 1 2.309-6.04 17.664 17.664 0 0 0 1.57-2.577c.344.172.639.884.639.884a9.982 9.982 0 0 1 2.037-3.633 2.054 2.054 0 0 1 .565.859 10.67 10.67 0 0 1 3.462-4.075 1.375 1.375 0 0 1 .392.859 19.874 19.874 0 0 1 3.805-4.443 2.832 2.832 0 0 1 .148.884 21.36 21.36 0 0 1 4.884-3.363 1.344 1.344 0 0 1-.05.81 17.921 17.921 0 0 1 4.69-2.406.812.812 0 0 1-.172.786 26.209 26.209 0 0 1 5.77-2.431c-.1.368-.196.859-.196.859a29.606 29.606 0 0 1 7.486-2.136 19.12 19.12 0 0 0-2.504 2.873 6.84 6.84 0 0 0 1.228-.222 28.359 28.359 0 0 1-1.45 4.296c1.106-.442 1.45-.564 1.45-.564a11.248 11.248 0 0 1-1.571 4.099 1.424 1.424 0 0 0 1.03-.073 16.01 16.01 0 0 1-1.423 3.387 8.585 8.585 0 0 1 1.178.22 23.465 23.465 0 0 1-1.866 3.487 7.702 7.702 0 0 1 1.67-.54c-.295.712-1.89 3.24-1.94 3.363l1.072.116-1.795 2.692 1.469.245-2.856 3.916"/><path d="M49.136 47.48c-.695.833-2.709 2.292-3.647 2.361s-2.29-.208-3.125-.104a17.756 17.756 0 0 0-3.889 1.563 8.973 8.973 0 0 1-3.68 1.007c-1.91.173-3.578.52-4.203-.208-.625-.73-.764-1.424-.07-1.702s3.473-.833 4.063-1.424a9.347 9.347 0 0 0 1.737-2.431 7.862 7.862 0 0 1 .937-1.771c.105-.07 23.024-17.884 23.024-17.884a5.32 5.32 0 0 0 2.57-1.285c.972-1.007 1.736-3.646 2.292-4.896a17.812 17.812 0 0 1 1.805-3.403c.382-.348.243-.556.243-.556a46.292 46.292 0 0 1-.764-6.737c.139-1.632.382-6.807.521-7.154-.451-1.077-.521-1.736-.069-2.188a1.905 1.905 0 0 1 1.944-.173c.695.243 1.216 1.006.903 1.389a4.834 4.834 0 0 1-1.014.82 42.63 42.63 0 0 0-.097 5.778c.035 1.076.312 3.889.451 5.104a15.134 15.134 0 0 0 .661 2.639 72.724 72.724 0 0 1 2.246 1.046 38.75 38.75 0 0 1 3.796-4.31c.66-.625 3.541-3.16 4.201-3.646s1.154-.82 1.154-.82c-.216-1.263.27-2.201 1.069-2.201a2.147 2.147 0 0 1 1.91 1.076 1.707 1.707 0 0 1-.417 1.98c-.59.45-1.093.182-1.363.299-1.068 1.02-3.012 2.236-3.429 2.792s-2.084 2.813-3.16 4.236a23.791 23.791 0 0 0-2.396 3.438 2.668 2.668 0 0 0 .486 1.563c.278.347.729 1.18.521 1.459s-.764.347-1.042.625a3.29 3.29 0 0 0-.868 1.666c-.07.66-.764 3.925-1.215 6.182a31.774 31.774 0 0 1-2.292 6.633 15.309 15.309 0 0 1-2.57 4.098 4.161 4.161 0 0 1-2.188 1.076 27.165 27.165 0 0 0-3.264.52c-1.354.348-2.223.313-3.16 1.078a7.897 7.897 0 0 1-2.674 1.632 23.499 23.499 0 0 1-3.125.069 6.988 6.988 0 0 0-2.813.764" style="fill:#ffeca3"/><path d="M31.923 42.153a15.111 15.111 0 0 1-2.296-4.846c-.319-1.403-.637-6.696.51-10.011a10.493 10.493 0 0 1 4.974-5.994 20.569 20.569 0 0 1 8.162-2.742c2.87-.192 6.441-.638 8.991 1.084a30.402 30.402 0 0 1 5.722 4.909c.591.83.847.893 1.548.638s1.594-.446 1.721 0-.733 1.096-.972 1.696-.626 1.329-.305 1.857a12.752 12.752 0 0 1 .895 4.036c.064 1.402 0 5.1-1.977 6.95s-3.06 2.615-4.08 2.615a7.4 7.4 0 0 1-1.403.063c-.447-.063-.638-.382-.893-.063a12.597 12.597 0 0 1-2.487 1.849 18.306 18.306 0 0 1-5.102 1.658c-3.25.7-7.779.574-8.799.127a14.287 14.287 0 0 1-3.444-2.678 7.083 7.083 0 0 0-.765-1.148" style="fill:#ffc755"/><path class="cls-10" d="M44.33 28.384a8.674 8.674 0 0 0 .662-3.543c.055-.818-.331-3.544-.166-4.252s0-1.635.551-1.308a6.945 6.945 0 0 1 1.709 2.29 12.958 12.958 0 0 1 .221 3.433 10.416 10.416 0 0 1-.716 3.053.98.98 0 0 1-1.048.49c-.276 0-1.213-.163-1.213-.163M49.567 30.238c.938-.382 2.646-1.418 2.922-3.107a32.925 32.925 0 0 0 .55-3.87c0-.818-.385-1.854.057-2.181s.44-.272.826.764c.387 1.035.882 3.979.44 5.178a22.886 22.886 0 0 1-2.094 3.924c-.386.49-.881.927-1.047.818s-1.654-1.526-1.654-1.526"/><path class="cls-10" d="M51.497 32.036a7.23 7.23 0 0 1 .827 1.581 9.3 9.3 0 0 0 2.04-2.017 6.857 6.857 0 0 0 1.488-3.38c.11-1.526 0-2.234-.276-2.562-.275-.326-.606.654-.882 1.472a10.674 10.674 0 0 1-1.433 3.216 9.77 9.77 0 0 1-1.764 1.69M43.338 28.33c.497-.491.882-3.216.662-4.361s-.552-1.69-1.38-2.017-.22.436-.11.873a8.88 8.88 0 0 1 .222 2.561 9.015 9.015 0 0 1-.993 2.89l-.275.599a7.126 7.126 0 0 0 1.047-.163 3.944 3.944 0 0 0 .827-.382M39.81 29.093c-.332-.6-1.655-3.107-1.599-4.47s.551-1.744.771-1.417.548 2.4 1.048 3.107c.386.545.717 1.582.937 1.799s.717.599.276.817a12.79 12.79 0 0 1-1.269.49ZM32.202 27.567c0-.436.276-.491.937-.055a10.171 10.171 0 0 0 2.756 1.417 16.171 16.171 0 0 1 2.426.764c.276.109.771.217.441.436s-.827.817-1.102.763a7.626 7.626 0 0 1-2.37-.71c-1.049-.544-2.096-.926-2.26-1.361a6.999 6.999 0 0 0-.828-1.254M31.76 33.563c0-.327.497-.654 1.324-.436a11.982 11.982 0 0 0 1.929.218 3.522 3.522 0 0 0 1.158-.381 7 7 0 0 1-.606 1.689c-.276.328-1.378 0-2.261-.218a5.543 5.543 0 0 1-1.543-.653ZM31.706 36.67c.11-.491.22-.873.882-.817.66.053 1.599.272 1.874.272a2.944 2.944 0 0 0 .992-.109c.22-.11.332.981.056 1.199a1.997 1.997 0 0 1-1.6.436 3.913 3.913 0 0 1-1.818-.545 4.732 4.732 0 0 0-.386-.436M34.738 41.576c-.092-.333.386-.655.882-.818a1.934 1.934 0 0 0 .827-.6s.662.654.882.927-.331.654-.937.872-1.49.218-1.654-.381M37.384 43.702c-.43-.107-.44-.6-.055-1.09s.441-.763.606-.872 1.268.6 1.268.6-.66.653-1.048.98-.55.437-.77.382"/><path class="cls-11" d="M38.431 45.991a5.686 5.686 0 0 0-.77-.109c-.167 0-.884-.109-1.049-.109a5.11 5.11 0 0 1 1.82-.38c1.322-.165 1.873.544 4.74-.71s4.191-1.362 5.844-3.216 2.205-2.399 2.426-3.925a14.685 14.685 0 0 0-.22-4.36 8.785 8.785 0 0 0-1.82-2.726c1.93 1.471 3.198 2.616 3.583 5.614a12.395 12.395 0 0 1-.276 5.506c-.275.926-.33.981-1.212 1.581a19.153 19.153 0 0 1-5.789 2.398 32.746 32.746 0 0 1-5.182.71 15.056 15.056 0 0 1-2.095-.274"/><path class="cls-10" d="M37.329 40.704c-.186-.64-.055-1.362.607-1.035s1.542 1.362 3.251 1.362 3.032-.163 4.08-1.581 1.489-2.343.937-3.325.717.164.937.436 1.048 2.508.166 3.708a4.89 4.89 0 0 1-3.197 2.125 9.679 9.679 0 0 1-4.245.218 5.733 5.733 0 0 1-2.536-1.908"/><path class="cls-10" d="M42.235 37.542c0 .345-.607-.818-1.158-1.2s-1.213-.108-1.764-.217-.55-.872.441-1.144a2.392 2.392 0 0 1 2.756 1.417 3.2 3.2 0 0 0-.275 1.144M44.165 35.307a2.413 2.413 0 0 0-1.49-2.235c-.991-.327-.33-.818.498-.6a4.824 4.824 0 0 1 2.315 2.235 2.128 2.128 0 0 1 0 .927 7.192 7.192 0 0 0-1.433-.054ZM58.94 25.714a14.838 14.838 0 0 0-1.71 3.87c-.44 1.58-.496 3.27-.882 4.579s-.276 1.854-.993 2.562a7.004 7.004 0 0 1-2.039 1.525c-.497.165-.717.983-.11 1.092a2.801 2.801 0 0 0 3.252-1.636 11.422 11.422 0 0 0 1.764-5.888c.166-2.617.386-5.07 1.102-5.669s1.103-.708.828-.818a1.433 1.433 0 0 0-1.213.382"/><path class="cls-11" d="M52.985 40.05c.441 1.036.662 1.526 1.764.872a15.844 15.844 0 0 0 4.41-4.197 8.711 8.711 0 0 0 1.434-5.07c.496 1.472.551 4.416-.386 5.942s-1.157 2.453-3.087 3.325-3.032 1.363-3.859 1.091a1.134 1.134 0 0 1-.717-1.2Z"/><path class="cls-6" d="M30.202 51.014a4.744 4.744 0 0 0 4.676-.492c1.722-1.23 2.953-2.584 2.83-3.322a1.081 1.081 0 0 0-.862-.86s-.938 2.286-1.599 2.46c-.662.172-3.938 1.476-3.938 1.476ZM36.132 45.98C34.878 44 32.048 41.54 31.31 38.463s-1.354-5.413-.74-7.75 1.6-5.415 3.447-6.892a25.387 25.387 0 0 1 8.489-3.937 24.23 24.23 0 0 1 8.367.246c2.707.615 4.06 1.23 4.184 1.476-2.792-1.964-6.768-3.937-10.09-3.445s-7.874 1.723-10.335 3.445a12.3 12.3 0 0 0-4.8 6.522 19.953 19.953 0 0 0-.245 8.121 10.852 10.852 0 0 0 2.336 5.903A32.259 32.259 0 0 0 35 45.231Z"/><path class="cls-6" d="M35.862 35.142c-.123 1.108 0 4.061.369 3.076s-.018-3.854 2.262-5.777a8.833 8.833 0 0 1 7.705-2.22c3.322.615 4.06 1.107 5.536 2.46a7.24 7.24 0 0 0-6.191-4.133c-2.175.073-5.375-.05-6.851 1.18a8.421 8.421 0 0 0-2.584 3.692 7.102 7.102 0 0 0-.246 1.722M60.347 27.39c.861.493 2.215 1.6 3.568-.491s1.354-3.815 1.846-5.291a7.608 7.608 0 0 1 1.846-3.445 3.758 3.758 0 0 1 2.584-.615c-1.23-.616-2.544-.86-3.24-.245a11.518 11.518 0 0 0-2.297 4.059c-.247 1.107-.739 3.076-1.477 3.814a5.488 5.488 0 0 1-1.723 1.108Z"/><path class="cls-6" d="M69.083 2.167c-.246-.492-.492-1.23-.984-.861s-.492-.246-.492.369l-.657 1.18c.41 1.035.164 4.726.287 6.572a50.708 50.708 0 0 0 1.231 7.874c-.616.123-1.275-.554-1.275-.554.044-2.153-.834-4.924-.764-6.737s.193-6.12.316-6.49-.246-1.107-.369-1.845.738-1.23 1.353-1.23a1.557 1.557 0 0 1 1.6.738.644.644 0 0 1-.246.984M70.929 16.809c.738.615 1.23 1.23 1.723 1.107s.738-1.23 1.722-2.461a27.32 27.32 0 0 1 3.692-3.814c1.107-.861 3.445-2.83 3.445-2.83s.338-.63-.385-.315a39.986 39.986 0 0 0-6.137 5.237c-1.107 1.353-2.46 3.076-2.46 3.076Z"/><path class="cls-6" d="M81.634 6.842c.984-.86.984-.615 1.599-.492s.883.194.872 1.02c-.872.087-1.364-.159-1.98.333s-1 .792-1 .792l.017-1.53Z"/><path class="cls-7" d="M36.416 45.962a13.042 13.042 0 0 1-6.275-7.452 19.216 19.216 0 0 1 .023-11.512c1.292-3.6 5.19-7.082 12.297-8.397s11.396 1.938 12.757 3.16 2.445 2.515 2.768 2.792.808.76 1.085.623a6.042 6.042 0 0 1 1.384-.346.637.637 0 0 1 .669.76c-.116.416-.6.924-.693 1.27 1.408-.415 2.747-.807 3.254-2.47a41.027 41.027 0 0 1 1.868-4.797 7.047 7.047 0 0 1 1.708-2.63c-.047-1.085-.716-5.122-.67-8.005a40.844 40.844 0 0 1 .462-6.276c-.9-.6-.877-2.584 1.13-2.307s1.638 2.215.53 2.33a25.857 25.857 0 0 0-.16 5.33 36.34 36.34 0 0 0 .76 6.898 9.88 9.88 0 0 0 .415 1.291 10.501 10.501 0 0 1 2.247 1.046 55.782 55.782 0 0 1 5.105-5.598 29.49 29.49 0 0 1 4.045-3.176c-.323-.877.44-2.676 1.823-2.1a1.647 1.647 0 0 1 .761 2.769c-.853.83-1.315.46-1.384.484-1.2 1.269-2.076 1.13-4.683 4.453s-4.038 5.352-4.199 5.652c-.208.485-.277.785-.092.969a5.858 5.858 0 0 1 .853 1.569c.115.438.254.969.14 1.107s-.417.162-.693.23a1.217 1.217 0 0 0-.923.716 19.35 19.35 0 0 0-1.108 4.637 30.621 30.621 0 0 1-2.237 8.375c-1.015 2.076-2.215 4.429-3.392 5.19s-1.684.993-4.245 1.223a7.686 7.686 0 0 0-4.66 1.639c-1.73 1.084-1.776 1.66-4.776 1.384s-3.437 1.13-4.568 1.89a5.828 5.828 0 0 1-4.336 1.224c-1.569-.37-2.169-.37-3.323.323s-3.253 2.03-5.42 2.123-3.3.299-4.2-.531-.53-1.361 1.223-1.73a8.255 8.255 0 0 0 4.152-2.376 3.134 3.134 0 0 0 .578-1.754Z"/><path class="cls-7" d="M44.26 38.28c-.769.677-1.815.031-1.723-1.169s1.6-1.999 3.415-1.476 1.999 2.461 1.845 3.66a4.519 4.519 0 0 1-4.367 3.384c-2.708.092-6.891.277-7.66-5.352s3.476-8.398 7.413-8.582 8.306 1.138 9.382 5.629.462 7.444-1.384 9.136-4.829 2.306-6.675 2.522-6.398.4-7.967-.124M52.503 42.002c.061.708 2.061.677 3.814-.246a8.346 8.346 0 0 0 4.43-6.921 11.088 11.088 0 0 0-.769-6.091c-.092-.707-.154-1.446.453-1.884"/><path class="cls-12" d="M53.272 38.556a3.786 3.786 0 0 0 3.076-3.63c.185-2.06.615-5.936 1.57-6.828M51.57 31.89a8.311 8.311 0 0 0 3.046-6.564M49.442 30.027a8.656 8.656 0 0 0 3.4-5.707 7.02 7.02 0 0 0-.414-4.17M43.794 18.613c1.123 1.124 1.567 4.583 1.478 6.742a7.197 7.197 0 0 1-.71 3.252M41.665 28.845a6.2 6.2 0 0 0 1.33-3.785 6.731 6.731 0 0 0-.71-3.046M33.71 23.847c.799 1.804 4.259 5.59 5.885 5.855M32.498 27.987c1.271 1.804 4.406 2.898 5.293 2.957M30.488 32.984c1.774 1.331 4.376 2.158 5.115 2.04M32.084 36.828a3.95 3.95 0 0 0 3.46.77M42.02 42.949a2.674 2.674 0 0 1-1.982 1.626M44.326 42.742a1.998 1.998 0 0 1-1.124 1.538M43.971 34.492c.473.177.68.502.68.71M45.39 33.576a2.105 2.105 0 0 1 .622 1.774M47.135 32.836c.65.74.561 2.691.236 3.844"/></g></g></svg>