<svg xmlns="http://www.w3.org/2000/svg" viewBox="0 0 97.341 83.329"><defs><style>.cls-1{fill:#e4483d}.cls-4{fill:#0062af}.cls-7{fill:#fde2d8}.cls-8{fill:#4c3b34}.cls-9{fill:#f06aa7}.cls-11{fill:#f7941d}.cls-13{fill:#fff200}.cls-15{fill:#fff}.cls-16{fill:#f9c2c6}.cls-17,.cls-18{fill:none;stroke:#231f20;stroke-linecap:round;stroke-linejoin:round}.cls-17{stroke-width:.661px}.cls-18{stroke-width:.514px}.cls-19{fill:#231f20}</style></defs><g id="Layer_2" data-name="Layer 2"><g id="Layer_1-2" data-name="Layer 1"><path class="cls-1" d="M30.17 27.206c.565.464 2.621.618 2.954-.085.366-2.321 3.101-17.063 3.101-17.063l.832-4.678a25.317 25.317 0 0 0-2.863 0c-.033.107-4.025 21.826-4.025 21.826"/><path class="cls-1" d="m31.28 10.83-.948-2.38 29.064.071a21.736 21.736 0 0 1-1.01 2.215l-12.673.09Z"/><path class="cls-1" d="m59.13 25.888-1.631-11.795-1.731-8.642-3.097.036 3.68 22.013a6.019 6.019 0 0 0 2.817-.89c.298-.24-.038-.722-.038-.722"/><path class="cls-1" d="M43.116 8.736c-.033-.107 0-3.357 0-3.357H29.4a33.98 33.98 0 0 1-2.231-3.32c-.1-.43-.665-1.359-.599-1.5a1.448 1.448 0 0 1 .965-.215c.167.071 6.459 1.035 6.858 1.143.4.106 9.988.25 10.787.321s7.624-.036 8.656-.107 6.026-.75 6.026-.75 3.296-.429 3.496-.465.299.18.233.358-2.597 4.642-2.697 4.678-13.683-.179-13.683-.179-.167 3.5-.267 3.536-3.262.143-3.262.143Z"/><path d="M71.557 68.502c-1.265-.09-8.813-.994-9.04-1.175s-3.841-2.667-3.841-2.667.407-5.875.588-6.553a26.865 26.865 0 0 0-3.751-2.034 15.015 15.015 0 0 1-.995-2.938c.18-.135 1.718-2.44 1.718-2.44s4.023-8.135 4.61-8.813 6.463-3.887 6.463-3.887l1.989-2.259 1.49.271 1.993 1.892 1.578-1.53 1.944-.407 1.355 1.084 1.31.136 5.786 3.57s.09.723.136.904 3.39 4.7 3.39 4.7l3.796 5.921 3.119 5.107s-8.768 7.096-8.903 7.096-2.803 1.401-2.803 1.401l-9.716 2.983Z" style="fill:#66cef6"/><path d="M60.482 74.557c.114.038 1.447.8 1.447.8a6.013 6.013 0 0 1 1.142.685c0 .114-.076.952-.076.952s4.454 1.256 4.948 1.37a14.313 14.313 0 0 0 2.209.228 7.57 7.57 0 0 0 .457-1.409 19.42 19.42 0 0 0 1.979.191c.304-.038 2.208-.266 2.437-.342s.304 1.256.342 1.446.496.077.647.114 3.845-.723 4.683-.952 1.751-.228 1.789-.418-.228-.952 0-1.104 1.789-.57 1.941-.647 1.067-.38.952-.533-1.865-8.223-1.941-8.604-.876-2.588-.876-2.588-3.464-9.175-3.578-9.175-1.828-2.132-1.828-2.132-3.083.38-3.312.38-6.015-.456-6.129-.456-3.616 4.301-3.616 4.301l-.267 6.738-.685 2.056Z" style="fill:#848689"/><path class="cls-4" d="M60.394 61.927a20.316 20.316 0 0 0 1.947 1.377c.235.1 5.908 2.148 6.143 2.081s.369-.94.336-1.242.302-13.328.302-13.697-.202-6.245-.302-6.647-.772-2.954-.873-3.29-1.208-2.987-1.208-2.987-1.746.671-1.981.772a41.674 41.674 0 0 0-3.927 2.183c.033.134.67 1.208.772 1.376s1.443 2.751 1.544 3.02a23.966 23.966 0 0 1 .738 2.854c-.067.1-.336 1.04-.336 1.04l-2.081 8.526ZM80.406 64.257c-.416.128-3.2.544-3.584.576-.385.032-.865.192-.865-.032a8.121 8.121 0 0 1 0-1.248c.064-.192.224-11.522.256-11.97s.448-7.297.64-7.713.352-2.913.481-3.232c.127-.32 1.024-3.65 1.12-3.65a21.533 21.533 0 0 1 2.496.96c.288.194 3.97 2.85 3.97 2.85a5.679 5.679 0 0 1-.257.832c-.096.16-1.728 2.848-1.792 3.008s-.577 1.505-.609 1.665.128 1.696.128 1.696 1.473 9.217 1.536 9.473.481 2.592.576 2.784a11.748 11.748 0 0 1 .641 2.048c0 .32 0 .577-.288.64s-2.529.865-2.625.897-1.824.416-1.824.416"/><path d="M52.003 78.653c-.413.046-6.105.734-6.38.688s-6.885.047-7.137.024-3.603-.505-3.603-.505a12.682 12.682 0 0 1-.735-4.935c-.734-.367-.917-.619-.917-.826s.16-4.452.206-4.773c-1.285-1.445-3.006-4.314-3.12-6.058a10.637 10.637 0 0 1 .71-4.59c.436-.896 2.387-4.154 2.617-4.843s.78-2.157.918-2.57a26.186 26.186 0 0 1 .826-2.616 33.6 33.6 0 0 1 3.373-4.154 8.317 8.317 0 0 1 1.928-1.102l2.226.643a11.531 11.531 0 0 0 .964.826 2.495 2.495 0 0 0 1.29-.827 24.22 24.22 0 0 1 2.726-.595c.07.023 1.24 1.125 1.4 1.216s1.79.804 2.02.964a20.512 20.512 0 0 1 1.63 2.8c.137.343.39 1.812.481 2.133s2.226 7.758 2.891 8.79 1.676 2.433 1.745 2.662a15.092 15.092 0 0 1-.092 2.203 23.39 23.39 0 0 1-1.33 3.627 6.211 6.211 0 0 1-1.195 1.607c-.55.436-1.583.803-1.927.459a19.814 19.814 0 0 0-.184 3.12c-.023.299.092 1.102-.115 1.194s-.986.32-.986.435-.023 1.447-.023 1.653.045 1.859.045 2.272a3.609 3.609 0 0 1-.045.964.257.257 0 0 1-.207.115" style="fill:#f6b1cf"/><path d="M35.181 47.075c-.092-.245.153-.796.398-1.255a13.701 13.701 0 0 1 1.438-1.804c.214-.214 1.162-.703 1.285-.551a17.436 17.436 0 0 1 1.53 2.172c1.775-.122 7.986-.122 8.14-.091 1.377-1.285 1.652-1.683 1.835-1.714a9.93 9.93 0 0 1 1.99 1.408 13.55 13.55 0 0 1 1.07 1.775c.062.214.031.887-.092.948a12.209 12.209 0 0 0-1.713.765 6.407 6.407 0 0 0-.734 1.347c.03.183-.123 2.6-.153 2.815s-.582 1.59-.704 1.958a17.43 17.43 0 0 1-1.194 2.02 24.88 24.88 0 0 1-1.866 1.836 17.837 17.837 0 0 0 1.255 3.243c.367.55 3.55 4.773 3.855 4.988a13.354 13.354 0 0 1 1.744 1.774c0 .123.214 4.254.153 4.407a29.41 29.41 0 0 1-3.64.642c-.093 0-9.15.276-11.047.214a52.133 52.133 0 0 1-5.294-.397 15.532 15.532 0 0 1-.245-1.96c0-.274.153-3.212.245-3.288s1.224.78 1.316.718 3.121-2.662 3.182-2.815 1.867-2.265 1.99-2.448 2.294-4.1 2.11-4.376a6.216 6.216 0 0 0-1.009-.857S38.241 55 38.058 54.51a11.371 11.371 0 0 1-.55-2.815 15.501 15.501 0 0 0 .243-2.08 17.964 17.964 0 0 0-1.316-1.347c-.122-.092-.918-.887-.918-.887Z" style="fill:#fff797"/><path class="cls-7" d="M6.628 25.613a5.209 5.209 0 0 0 1.249 2.3c.369.254 1.532-.058 1.844 0s.823 1.645 1.05 1.93a31.097 31.097 0 0 0 3.775 2.1 6.614 6.614 0 0 1 1.078.68s2.157 1.928 2.61 2.382.597.171.597.171l1.22-2.725a23.748 23.748 0 0 0 2.47-.795 26.48 26.48 0 0 0 2.157-1.589c.198-.227.936-1.788 1.106-1.986s1.164-.256 1.419-.34a4.605 4.605 0 0 0 1.164-1.39 3.228 3.228 0 0 0-.03-1.562c-.17-.284-.623-.454-.964-.71a10.612 10.612 0 0 1-1.078-1.163l-2.298-6.044s-11.267.34-11.352.37-3.008 3.546-3.094 3.631-2.923 4.74-2.923 4.74M2.882 55.892c-.312.426-.511 1.107-.256 1.42s.795.793.88.964.256.54.454.54a11.652 11.652 0 0 1 1.249.226c.256.057.539.426.937.312a1.86 1.86 0 0 0 .879-.653c.114-.17.426-.51.398-.766s-.029-.539-.256-.68-2.156-.682-2.242-.739-2.043-.624-2.043-.624M27.657 56.489a17.605 17.605 0 0 1 1.561-1.192c.17-.028.624.68.624.937a6.41 6.41 0 0 1-.283 1.531 1.75 1.75 0 0 1-.653.626 5.038 5.038 0 0 1-1.164.34 10.791 10.791 0 0 1-.255-1.816ZM40.939 62.249c.17-.426.85-1.59.908-1.731s.34-.851.51-.936a2.937 2.937 0 0 1 1.22.14 3.58 3.58 0 0 1 .54 1.477c-.085.142-.255.652-.34.795s-.114.567-.37.652-.68.228-.907.057a2.538 2.538 0 0 0-.738-.284s-.482.085-.596 0l-.227-.17M44.486 61.823a4.938 4.938 0 0 1-.17-1.674c.085-.199.567-.426.738-.51a6.814 6.814 0 0 1 1.135-.143l.37.284.652 1.248s.312.937.34 1.107.2.37-.17.426a4.541 4.541 0 0 1-1.05-.057l-.539.256a3.887 3.887 0 0 1-.909-.227 3.474 3.474 0 0 0-.369-.454ZM89.326 54.559a4.512 4.512 0 0 1 1.164-1.391 6.482 6.482 0 0 1 1.192-.37 3.738 3.738 0 0 1 1.135-.056 3.955 3.955 0 0 1 1.249.738c.17.227.652.68.596.909s0 .737-.142.936-.738.795-.738.795a.932.932 0 0 1-.454.34 5.873 5.873 0 0 1-1.08.17 13.538 13.538 0 0 1-1.333-.312c-.085-.028-.51-.312-.54-.454s-.282-.851-.282-.851l-.54-.227-.453.028ZM62.933 27.994c-.369-.057-1.22 1.022-1.249 1.306a4.395 4.395 0 0 0 .511 2.185 3.599 3.599 0 0 0 1.76 1.277c.68.17 1.532-.17 1.674-.028a5.79 5.79 0 0 0 .908 1.277 25.625 25.625 0 0 0 3.888 2.043 2.52 2.52 0 0 1 1.022.71 10.75 10.75 0 0 0 1.334 1.135c.113-.029 1.674-1.788 1.674-1.788s1.817-.568 2.242-.68a21.3 21.3 0 0 0 2.611-1.988s.738-.795 1.022-.85a5.437 5.437 0 0 0 2.043-.938 6.409 6.409 0 0 0 .936-2.043c0-.312.114-1.192-.198-1.362s-.766-.682-1.192-.738-1.078-.426-1.107-.766-.142-1.22-.199-1.505-5.647-3.632-5.846-3.803-5.733-.539-5.903-.51-3.519 1.901-3.519 1.901l-1.703 2.242ZM36.966 37.813a2.112 2.112 0 0 1-1.646.17c-.539-.197-1.419-.85-1.448-1.304a9.56 9.56 0 0 1 .03-2.016 3.453 3.453 0 0 1 .794-1.276 3.493 3.493 0 0 0 .822-1.392 18.046 18.046 0 0 1 1.306-2.979 8.445 8.445 0 0 1 1.844-.54 8.144 8.144 0 0 0 2.016-1.418 7.739 7.739 0 0 1 1.844-.965s5.08.086 5.392.199a12.728 12.728 0 0 1 1.646 1.788 28.192 28.192 0 0 1 2.725 1.674c0 .142.567 1.76.567 1.76a21.857 21.857 0 0 0 1.136 2.1 4.713 4.713 0 0 1 .54 1.078 5.492 5.492 0 0 1 .056 2.157 1.98 1.98 0 0 1-.682.908 6.523 6.523 0 0 1-1.305.398l-.965-.227s-.993 1.73-1.135 2.015a11.357 11.357 0 0 1-1.788 2.014 8.675 8.675 0 0 1-1.987.738 8.731 8.731 0 0 0-1.56.34c-.029.086-1.079 1.108-1.136 1.023s-1.248-1.107-1.248-1.107a23.643 23.643 0 0 1-2.696-.851c-.256-.2-1.278-.767-1.278-.767s-1.39-2.61-1.504-2.667a3.342 3.342 0 0 1-.34-.852"/><path class="cls-8" d="M9.028 19.423c.45.36.33.81.3 1.23a1.659 1.659 0 0 1-.42.9 1.759 1.759 0 0 1 .18 1.231 5.993 5.993 0 0 1-.27.63l.27 1.44a8.339 8.339 0 0 0 1.59-.87c0-.15.63-3 .75-3.33s.45-1.14.45-1.14.09 1.86.12 2.1.57 1.8.57 1.8l.63-.18s.63-2.46.93-3.15.72-1.77.72-1.77c-.09 1.41-.21 2.88-.18 3.09s.09 1.02.12 1.23H17.7c.33 0 2.49.09 2.49.09.03-1.89.06-4.41.06-4.41a15.415 15.415 0 0 1 1.14 2.34 17.264 17.264 0 0 0 .57 2.37c.63.03.841 0 .841-.12s.33-2.25.33-2.25l.3-1.92c.36 1.68.66 3.27.66 3.27l.09 1.26a15.382 15.382 0 0 0 2.31 1.26s.9-.54.87-.63.09-3.54-.03-3.99-.48-1.74-.57-1.92-.48-.84-.6-.84-2.49-2.43-2.58-2.492-1.051-.509-1.081-.66-.24-1.74-.78-1.98-1.8-.75-2.43-.3c-.69-1.53-1.26-1.83-1.89-1.77a2.467 2.467 0 0 0-2.221 2.04 1.906 1.906 0 0 0-2.28-.15 3.562 3.562 0 0 0-1.23 1.53c-.06.3-.33 1.08-.33 1.08l-1.531 2.731ZM36.925 34.41a4.644 4.644 0 0 0-1.283-.753c-.266-.044-1.151-.044-1.151-.044a20.019 20.019 0 0 1 .973-5.089 10.789 10.789 0 0 1 .797-1.417 4.527 4.527 0 0 0 1.284-.133c.929.753 1.504.93 1.903.62s.309-1.283.708-1.372c.929-.531 1.372-1.106 1.195-1.549s-.974-.974-.974-.974c-.09-1.549.044-2.478.53-2.876a10.237 10.237 0 0 1 3.144-.974 9.786 9.786 0 0 1 2.567.487c.309.221 1.37.531 1.548.929a7.889 7.889 0 0 1 .354 1.904c0 .309-.088 1.681-.088 1.681 2.08.708 4.204 2.168 4.692 3.143a31.406 31.406 0 0 1 1.106 4.957 5.876 5.876 0 0 1 .088.973 1.22 1.22 0 0 0-1.549.044 2.712 2.712 0 0 1-.619.443h-.531a14.736 14.736 0 0 0-1.638-5.71c.133 2.479.044 4.913.044 4.913l-.708.133a38.657 38.657 0 0 0-1.903-5.886c.31 3.275.398 5.753.398 5.753-1.15-.044-6.107 0-6.506.044a49.276 49.276 0 0 1 .266-6.151c-1.062 1.77-1.726 6.151-1.815 6.329-.486.044-.84.044-.84.044a12.633 12.633 0 0 1 .132-5.001c-.796.177-.752.619-.885.841s-.885 3.407-.974 3.629-.265 1.062-.265 1.062M34.933 40.739l-.177-2.877c.885.62 1.328.354 1.55.22s.751-.441.751-.441a14.074 14.074 0 0 0 1.726 3.319l.576.354c-1.638-.088-2.877-.221-3.054-.221s-1.372-.354-1.372-.354M49.583 41.27a13.481 13.481 0 0 0 1.859-2.876 3.002 3.002 0 0 1 .353-.753c.709.62 1.329.575 1.505.398a6.377 6.377 0 0 1 .753-.531 28.424 28.424 0 0 1-.753 3.364c0 .133-.088.575-.221.575a16.524 16.524 0 0 1-2.257 0ZM63.878 28.436l-.945-.442c-.692-1.682-1.666-3.143-1.577-3.364a15.64 15.64 0 0 0 1.018-2.213 2.314 2.314 0 0 1-.708-1.283s1.947-1.594 2.168-1.77a19.846 19.846 0 0 1 1.86-.842 10.81 10.81 0 0 1 3.893-3.098 10.957 10.957 0 0 1 3.63-.575c.752.177 1.947.531 1.947.531l-.177 1.151a16.61 16.61 0 0 1 5.001 1.24 16.862 16.862 0 0 0 1.771 1.061 10.906 10.906 0 0 1 1.194 1.062c-.752.62-1.415.887-1.372 1.019.62 1.46.885 2.567.974 2.744a10.858 10.858 0 0 1 .221 1.372l-1.327 2.567s-.575.354-.62.22-.84-1.503-1.018-1.503-1.593.22-1.593.22l-.885-1.593-1.77.62s-1.992-1.947-2.435-2.213a21.795 21.795 0 0 1-1.062 1.992 14.192 14.192 0 0 0-4.116-2.788c-.885 1.328-2.3 3.585-2.3 3.585a6.862 6.862 0 0 0-.887-.354l-.353 1.017Z"/><path class="cls-9" d="M9.98 18.396c-.433.866-1.154.99-1.608.721a1.572 1.572 0 0 1-.68-.968c-.659.804-1.175 1.051-1.649.494-.762.536-1.298.351-1.422-.267s.083-.907.33-1.03c-1.072-.207-1.67-.496-1.381-1.36s1.484-.619 1.731-.764c.042-1.237.578-1.73 1.629-1.113.35-1.505.865-2.144 1.916-1.402 1.134-1.05 1.69-.989 1.794-.39s.37.66.37.66a.884.884 0 0 1 .701.576l-.329 1.092a1.194 1.194 0 0 1 .741 1.402 1.62 1.62 0 0 1-.7.7c.721.68.783 1.092.288 1.505a1.544 1.544 0 0 1-1.236.371 20.511 20.511 0 0 0-.495-.227M22.058 16.294c-.106-.673-.124-1.38 1.113-1.4.206-1.403.66-1.877 1.401-1.753s1.052.721 1.01 1.772c1.278.392 1.32 1.072 1.258 1.567s-1.114.845-1.32.824c-.06 1.031-.638 1.113-1.092.97s-.763-1.093-.804-1.217c-.7.124-1.504-.37-1.566-.763"/><path d="M6.476 19.076a1.122 1.122 0 0 1-.544.453c-.2.09-.725.67-.707.816s.308.635.272.798-.326.235-.4.38a1.889 1.889 0 0 0-.198.707 3.61 3.61 0 0 0 .526 1.016c.145.163-.326.435-.345.743s.109 1.142.508 1.378a1.562 1.562 0 0 0 1.812-.273c.979.309 1.469-.072 1.56-.29a2.437 2.437 0 0 0-.142-1.39 3.146 3.146 0 0 0 .09-1.86 2.467 2.467 0 0 0 .12-2.13c-.068-.13-.63-.258-.757-.348a4.254 4.254 0 0 1-.435-.78c-.037-.054-.653.38-.744.472a3.784 3.784 0 0 1-.616.308" style="fill:#ef4136"/><path class="cls-11" d="M35.733 26.377c-.241-.77-.263-1.87 1.343-1.958-.287-1.651.33-1.981.88-2.025s1.011-.022 1.716 1.189c1.585.11 1.607.593 1.65 1.232s-.264 1.078-1.078 1.276c.11 1.342-.462 1.496-.946 1.562s-1.409-.154-1.606-.726a2.894 2.894 0 0 1-1.717-.154c-.044-.066-.242-.396-.242-.396M48.1 24.484c.232-1.004.969-1.408 1.893-.792.748-1.32 1.166-1.1 1.518-.99s.77.528.792 1.716c1.474.814 1.474 1.386 1.32 1.914a1.221 1.221 0 0 1-1.804.661 1.415 1.415 0 0 1-1.893.615c-.285-.13-.484-1.452-.44-1.694-.902-.286-1.518-.858-1.386-1.43"/><path d="M.635 53.593a1.16 1.16 0 0 1-.275-.856 10.025 10.025 0 0 0 1.56-1.623c.337-.581 2.937-4.283 3.488-6.088s1.408-5.417 1.622-5.967a21.386 21.386 0 0 1 1.346-3.428 13.984 13.984 0 0 1 2.081-1.713 17.49 17.49 0 0 1 2.326-1.714 7.258 7.258 0 0 1 1.407-.428c1.132.306 1.193.52 1.224.612a15.814 15.814 0 0 0 2.295 2.325c.643.398.918.337.918.337a11.109 11.109 0 0 0 .95-1.407c.06-.245.474-1.192.474-1.192a2.005 2.005 0 0 1 1.238.182 5.754 5.754 0 0 1 2.754 1.958c1.01 1.438 3.243 4.13 3.794 6.824s1.897 7.068 2.173 8.139a10.265 10.265 0 0 0 1.163 2.325 3.717 3.717 0 0 1 .275.98 23.2 23.2 0 0 0-2.723 2.937c-.276.245-1.238 1.118-1.238 1.118.136 2.279.255 1.816.255 1.816l1.38-.456s.001 1.164-.03 1.653-.06 4.376-.092 5.14.122 2.724.153 3.61a14.297 14.297 0 0 1-.244 2.418c-.03.184.305-.214-.03.184a5.505 5.505 0 0 1-.95.949c-.275.183-1.224.367-1.193.52a22.835 22.835 0 0 1-.03 3.243 4.926 4.926 0 0 1-.062 1.316 1.024 1.024 0 0 1-.704.337c-.214 0-7.864-.092-9.455-.062a52.441 52.441 0 0 1-5.63-.428 5.245 5.245 0 0 1-.673-.306s.122-16.095-.092-16.217-1.1-.49-1.1-.49-.522-1.867-.614-1.958a6.904 6.904 0 0 0-.764-.857 47.04 47.04 0 0 1-4.56-1.47 12.703 12.703 0 0 1-1.774-1.498Z" style="fill:#ef4b6e"/><path class="cls-13" d="M12.176 43.223a6.373 6.373 0 0 1 .041-1.217c.083-.144 1.753-1.465 1.753-1.465l2.6.64.68-3.012s1.63.97 1.692.99 5.22 3.693 5.22 3.693l-2.95-.104-4.168.104-3.568.288Z"/><path d="M13.235 52.451a2.635 2.635 0 0 1-.398-1.076s-.724-3.577-.701-3.927-.281-2.244-.211-2.502.14-1.707.14-1.707a44.605 44.605 0 0 1 4.677-.42c.117 0 6.546-.071 7.972.046a3.744 3.744 0 0 1 1.707.351s.21 1.613.21 1.73-.07 3.764-.07 3.764.093 1.59.093 1.894.188 1.449.024 1.589a2.837 2.837 0 0 1-1.052.234c-.164 0-8.042.024-8.23 0s-2.992.117-2.992.117Z" style="fill:#b1d574"/><path class="cls-13" d="M12.39 47.598c.194.048 8.94-.218 9.57-.266s4.578-.22 4.578-.22a7.136 7.136 0 0 1 .023 1.599c-.119-.023-13.25.365-13.323.34s-1.018-.048-1.018-.048Z"/><path class="cls-9" d="M22.457 47.996a1.407 1.407 0 0 1-.113-1.725.975.975 0 0 1-.477-1.361 1.305 1.305 0 0 1 1.248-.136c.794-1.271 1.089-1.066 1.475-.976a1.225 1.225 0 0 1 .703 1.248c1.112.43 1.249.93 1.226 1.18s-.704.613-.84.68c.136.977.09 1.158-.227 1.249s-1.43-.182-1.43-.613a1.486 1.486 0 0 1-1.225.522Z"/><path class="cls-15" d="M11.627 77.322c.263.056 12.339.337 13.202.3a9.08 9.08 0 0 1 .469 2.625 3.358 3.358 0 0 1-.938 1.351 3.11 3.11 0 0 1-1.237.112 25.413 25.413 0 0 1-3.057-1.538c-.394 1.426-1.162 1.8-1.425 1.857a10.537 10.537 0 0 1-2.738-.525c-.32-.207-2.701-1.988-2.813-2.063s-1.276-1.275-1.276-1.275Z"/><path class="cls-11" d="M38.723 55.518c-.244-.36-.685-1.077-.522-1.468a11.318 11.318 0 0 0 .49-2.448c-.066-.18-.457-.424-.507-.767-.048-.342-.113-.848-.244-.897s-1.599-.36-1.354-1.42 1.11-.913 1.533-.864c.343-1.436.751-1.534 1.371-1.501s1.175.995 1.158 1.452c1.061.326 1.208.636 1.191 1.207a1.485 1.485 0 0 1-.604 1.142c-.163.049-.913.164-.913.164a1.474 1.474 0 0 1-.13 1.01c-.017.083.424 1.29.473 1.453s.897 3.41.864 3.475a3.761 3.761 0 0 1-.913.327 8.681 8.681 0 0 1-1.453 0c-.048-.066-.44-.865-.44-.865M48.414 56.497a8.623 8.623 0 0 1-1.974-.326 4.897 4.897 0 0 1 .099-1.501c.113-.261.847-3.378.864-3.574a9.866 9.866 0 0 0-.146-1.11s-1.632.164-1.42-1.19 1.206-1.077 1.402-1.077c.083-1.272.849-1.68 1.306-1.631a1.688 1.688 0 0 1 1.142 1.419c1.37.359 1.567.979 1.502 1.387s-1.306 1.06-1.535 1.044a2.306 2.306 0 0 1-.604 1.55c.36 1.403.605 2.807.605 2.888s-.85 1.892-.85 1.892Z"/><path class="cls-15" d="M38.885 81.068c-.29-.128-1.285-.578-1.317-.867s-.29-1.06-.065-1.093 2.732.13 2.732.13-.097-14.3.064-14.91 1.124-.096 1.124-.096l.29-1.575.706-.16.16 1.542a9.978 9.978 0 0 0 3.022.032l-.161-1.349.77-.193s.483.257.483.45-.032 1.35-.032 1.35c.867.128 1.189.353 1.156.481s-.321 7.165-.321 7.872.193 5.72.128 6.073-.16 2.25-.16 2.41-.225 1.253-.225 1.253-.321.642-.418.642S40.62 82 40.427 82s-1.542-.321-1.542-.321l.225-.546ZM72.444 57.06a2.28 2.28 0 0 1-1.898-.962 3.084 3.084 0 0 1-.141-2.11 3.655 3.655 0 0 1 1.03-.938c-.913-.96-1.312-.89-1.101-1.242a5.28 5.28 0 0 1 .962-1.03c.14-.095.656.303.797.702s.468.773.515.68a13.99 13.99 0 0 1 1.102-1.36c.14-.094.539.305.75.399s.398.375.375.468-.726 1.078-.726 1.078-.235.54-.141.634.726.562.75 1.007a6.705 6.705 0 0 1-.211 1.688 1.847 1.847 0 0 1-.727.751 5.165 5.165 0 0 1-1.336.234M87.236 58.137c.022-.281.022-.398.257-.469s.89-.234.89-.398a12.25 12.25 0 0 1 .565-1.922c.14-.258.467-.61.678-.587s.657.212.657.329a6.787 6.787 0 0 1-.305.89 6.74 6.74 0 0 0-.117 1.383c1.43-.023 4.032-.046 4.125-.023s.305.164.258-.047-.305-.984-.305-1.078a3.415 3.415 0 0 1 .61-.75c.117-.094.797.539.797.539s.328 1.359.351 1.594.704.141.75.211a1.585 1.585 0 0 0 .423.187s0 1.805-.024 2.086.07 11.533.047 12.471.188 3.914.188 4.922.012 1.507-.129 1.484-5.005.111-5.919-.007-3.305-.07-3.47-.211a4.009 4.009 0 0 1-.257-1.547c0-.398-.024-12.142 0-12.705s-.07-2.508-.07-2.907.023-2.039 0-2.25 0-1.195 0-1.195M76.452 78.835a13.913 13.913 0 0 0 1.29 2.016 10.302 10.302 0 0 0 2.953 1.83c.867.21 1.406.326 1.922-.025s1.125-.727 1.15-1.219a4.229 4.229 0 0 0-.61-1.969c-.282-.328-1.689-1.829-1.759-1.969a20.545 20.545 0 0 0-2.977.797ZM68.341 78.554a25.388 25.388 0 0 1-1.828 2.743 9.197 9.197 0 0 1-2.626 1.523 5.99 5.99 0 0 1-2.367-.211c-.306-.211-1.43-.89-1.384-1.312a5.86 5.86 0 0 1 .844-1.852 13.489 13.489 0 0 1 1.619-1.407 5.992 5.992 0 0 1 1.054-.843c.094 0 2.016.562 2.157.609s1.336.375 1.476.398 1.056.352 1.056.352"/><path class="cls-16" d="M13.803 28.257a1.21 1.21 0 1 1-1.204-1.093 1.152 1.152 0 0 1 1.204 1.093M23.775 28.081a1.21 1.21 0 1 1-1.204-1.093 1.153 1.153 0 0 1 1.204 1.093M40.78 38.87a1.21 1.21 0 1 1-1.204-1.093 1.153 1.153 0 0 1 1.204 1.093M50.212 38.87a1.21 1.21 0 1 1-1.204-1.093 1.153 1.153 0 0 1 1.204 1.093M69.217 31.939a1.21 1.21 0 1 1-1.203-1.093 1.153 1.153 0 0 1 1.203 1.093M78.649 32.01a1.21 1.21 0 1 1-1.204-1.092 1.153 1.153 0 0 1 1.204 1.093M2.46 78.6c.619 0 5.735-.205 5.982-.164-.041-1.362-.165-8.788-.124-10.19s.289-6.52.042-6.684a21.007 21.007 0 0 0-3.26 0c-.907 0-2.723 0-2.929.04 0 1.61.33 5.282.248 6.602s-.124 7.468-.083 8.21.124 2.187.124 2.187M89.224 59.714c.619 0 5.735.206 5.982.165-.041 1.362-.165 8.788-.123 10.191s.289 6.518.04 6.683a20.996 20.996 0 0 1-3.258 0c-.908 0-2.723 0-2.93-.04 0-1.61.33-5.282.248-6.602s-.124-7.468-.083-8.21.124-2.187.124-2.187M41.531 65.604c.041-.247.618-.206.618-.206s3.59.247 4.003.289c.041.742.041 2.35.041 3.548s-.124 2.846-.082 3.96-.207 3.259-.124 4.538.041 2.105.041 2.6.041.908.041.908a1.717 1.717 0 0 1-.66.33c-.247.04-4.456-.454-4.62-.495a2.164 2.164 0 0 1 .536-.537c.247-.165.247-.66.247-.66s.042-8.582.124-9.696-.124-3.59-.082-3.795a3.209 3.209 0 0 0-.083-.784"/><path class="cls-7" d="M56.296 57.651c-.195-.252-.721-1.384-.435-1.418a3.773 3.773 0 0 1 1.453.594 1.309 1.309 0 0 1 .297.492 1.336 1.336 0 0 1-.24.652c-.126.081-.48.355-.64.31-.161-.047-.435-.63-.435-.63"/><path class="cls-15" d="M8.709 16.996c-.103-.415-.023-.938.48-1.053a.772.772 0 0 1 .96.618c.116.435-.365.71-.662.755s-.71-.045-.778-.32M37.928 25.446c-.103-.415-.023-.938.481-1.053a.774.774 0 0 1 .961.618c.114.435-.367.71-.664.755s-.709-.045-.778-.32M23.608 46.376c-.103-.415-.023-.938.48-1.053a.774.774 0 0 1 .962.618c.114.435-.366.71-.664.755s-.71-.045-.778-.32M38.583 49.012c-.104-.415-.023-.938.48-1.053a.772.772 0 0 1 .96.618c.116.435-.365.71-.662.755s-.71-.045-.778-.32M50.388 24.783a.785.785 0 0 1 1.109-.328.772.772 0 0 1 .165 1.13c-.253.372-.775.189-1.005-.005s-.432-.565-.27-.797M47.828 48.348a.788.788 0 0 1 1.11-.329.774.774 0 0 1 .165 1.131c-.253.372-.776.19-1.006-.005s-.43-.565-.269-.797M24.106 15.829c-.035-.3.023-.641.435-.687a.564.564 0 0 1 .663.595c-.023.343-.206.664-.549.664s-.503-.183-.549-.572M9.098 14.021c-.023-.32.343-.503.618-.458s.343.481.32.664a.488.488 0 0 1-.275.343 3.764 3.764 0 0 1-.663-.458M6.513 17.201a.771.771 0 0 1-.55-.846c.091-.366.297-.595.618-.572a.753.753 0 0 1 .503.32 4.244 4.244 0 0 1-.274.962ZM8.229 15.92c.09-.572.8-1.465 1.487-1.121a1.427 1.427 0 0 0-1.487-.32 2.397 2.397 0 0 0-.252.915c.046.091.252.526.252.526M7.13 13.93a1.762 1.762 0 0 1 1.625-.961 1.043 1.043 0 0 0-1.282-.137c-.091.091-.457.389-.457.48s.114.618.114.618M9.03 12.923c.365-.297 1.212-.755 1.44-.458-.137-.48-.549-.549-.686-.457s-.549.32-.572.412-.183.503-.183.503M5.597 15.097a1.244 1.244 0 0 1 1.258-.641 1.038 1.038 0 0 0-1.235-.343 1.69 1.69 0 0 0-.32.686c0 .092.297.298.297.298M3.767 16.767a1.214 1.214 0 0 1 .16-1.212c.229-.23.709-.16 1.19 0a1.43 1.43 0 0 0-.869.686 1.506 1.506 0 0 0-.161.732c0 .114-.32-.206-.32-.206M22.345 16.63c0-.435.206-1.029.48-1.121a1.225 1.225 0 0 1 .778-.092c-.251-.411-.48-.549-.64-.526s-.778.184-.801.275a1.864 1.864 0 0 0-.137.64c.045.138.32.824.32.824M23.466 14.708a1.126 1.126 0 0 1 1.213-.732 1.42 1.42 0 0 1 .732.549c-.069-1.396-.824-1.373-1.03-1.327a3.221 3.221 0 0 0-.847.595 7.04 7.04 0 0 0-.068.915M5.415 20.474a1.099 1.099 0 0 1 1.03-.801c.297.092.41.32.16.366a1.841 1.841 0 0 0-.87.435c-.091.16-.183.549-.251.366a1.167 1.167 0 0 1-.07-.366M7.337 20.222c.206-.366.709-.801 1.167-.503s-.023.32-.115.343-.663.137-.823.412-.275.32-.298.183a1.424 1.424 0 0 1 .069-.435M7.108 22.555c.046-.458.183-.71.297-.755s.687.183.549.274-.457.092-.55.367-.044.458-.182.412-.114-.297-.114-.297M5.14 22.715a1.112 1.112 0 0 1 .206-1.03c.183-.114.435-.503.961-.023-.046.184-.092.138-.321.23s-.572.251-.572.594-.023.526-.091.481a1.089 1.089 0 0 1-.183-.251M5.53 25.095a1.12 1.12 0 0 1-.184-1.03c.137-.274.321-.48.55-.434s.365.114.16.274-.435.298-.389.618.228.732.114.755-.252-.183-.252-.183M7.085 24.569c-.137-.298-.137-.846.092-.938s.64-.07.617.046-.343.114-.343.457.114.412-.023.549-.343-.114-.343-.114M.825 53.808c-.417-.357-.871-1.073-.465-1.072 1.417-1.427 3.024-3.034 3.5-4.284s1.785-3.809 1.964-4.403 1.13-5.059 1.369-5.594.535-2.38 1.309-3.036a31.196 31.196 0 0 1 2.916-2.2c.773-.477 2.63-1.636 2.773-1.443.5.37.32.073-.631.787s-3.273 1.785-4.046 3.392a17.818 17.818 0 0 0-2.024 5.237 28.928 28.928 0 0 1-2.38 6.963 28.108 28.108 0 0 1-2.738 3.69c-.476.713-1.547 1.963-1.547 1.963M12.124 16.047c1.199-.626 6.792-2.173 10.363-1.102a14.448 14.448 0 0 0-6.19-1.072 37.46 37.46 0 0 0-4.224 1.19c-.18.12.05.984.05.984M11.716 14.17c1.13-1.368 2.023-2.201 2.678-2.141s.784-.047.784-.047c-.785-.548-1.082-.727-1.678-.548a2.53 2.53 0 0 0-1.368 1.07 5.752 5.752 0 0 0-.42 1.049ZM15.179 11.982a3.073 3.073 0 0 1 2.607-.965c.535.238 1.13.357 1.249.476-.535-1.19-.654-1.488-1.25-1.488a2.361 2.361 0 0 0-1.666.595c-.238.357-.94 1.382-.94 1.382M19.154 12.029l.178.595c1.072-.297 2.381-.714 2.976.357a3.062 3.062 0 0 0-1.666-1.428 1.779 1.779 0 0 0-1.07 0 1.107 1.107 0 0 0-.418.476M41.709 24.707c1.07-.12 2.738-1.131 6.487.238-1.964-.12-5.594-.178-7.023.417a2.31 2.31 0 0 1 .536-.655M40.46 23.278c.653-1.19.513-1.843 2.142-2.083 2.023-.297 3.094-.833 5.564.07a3.816 3.816 0 0 0-3.72-1.557c-1.368.237-2.618.356-3.095.832-.475.477-.952.774-1.01 1.012a13.141 13.141 0 0 0 .118 1.726M36.134 26.989a5.234 5.234 0 0 0 1.41-.014 11.402 11.402 0 0 0-2.047 3.729 16.388 16.388 0 0 0-.566 2.76c-.318.106-.53.07-.53-.106s.636-3.362.636-3.468 1.097-2.901 1.097-2.901"/><path class="cls-15" d="M40.556 42.378c-.671.354-1.945 1.31-2.087 1.31a1.97 1.97 0 0 0-.885.176c-.142.142-2.229 2.088-2.264 2.194a6.83 6.83 0 0 0 .07 1.167 4.76 4.76 0 0 1-.177 1.875 35.804 35.804 0 0 1-1.804 3.963c-.6.955-1.58 2.886-1.982 3.75a11.543 11.543 0 0 0-.99 3.043c-.07.814-.602 3.892 1.38 6.227-.354-1.663-1.522-4.776.212-8.173s3.22-6.262 3.467-6.97a23.224 23.224 0 0 0 .566-3.078c-.07-.849-.14-1.344.037-1.592a20.109 20.109 0 0 1 1.733-1.84 1.6 1.6 0 0 1 .92-.318 5.637 5.637 0 0 0 1.592-.99c.283-.319.743-.744.743-.744l-.398.015M35.25 38.203c-.036.283.636 2.689.424 2.725s-1.027-.213-1.027-.354-.14-2.548-.14-2.548ZM34.117 68.876c-.071.46.283 4.953.035 4.918s-.884-.495-.85-.85-.105-3.22-.034-3.431.283-1.168.283-1.168Z"/><path class="cls-15" d="M34.754 73.935c0 .354.566 4.352.53 4.953s-.777.036-.777-.282-.39-3.432-.39-3.432l.036-1.38ZM62.603 26.871a4.928 4.928 0 0 1-.591-2.118c.098-.197 1.034-2.118 1.034-2.118l-.394-1.183s3.005-2.56 3.3-2.659c.64 0 .838.147 1.035-.247s4.189-4.115 8.178-3.165c-1.134-.578-3.892-.38-4.14-.38a50.725 50.725 0 0 0-4.63 2.314c-.147.147-1.034 1.133-1.034 1.133s-2.71 1.33-2.807 1.477-1.005 1.492-1.005 1.492l.825 1-1.2 1.744s.345.937.395 1.085 1.034 1.625 1.034 1.625M74.966 16.821l1.035.492s5.122 1.33 6.304 2.217c-.787-1.182-3.447-2.168-3.644-2.217s-3.547-.541-3.695-.492M69.302 35.983s.788 0 .739.148-2.76 2.512-2.76 2.512l-.738-.099s-4.433 2.07-4.532 2.217-.275.803-.408 1.091a20.009 20.009 0 0 1-.823 2.111c-.246.345-4.383 7.98-4.532 8.177s-1.38 2.168-1.38 2.168l-.048-1.035 6.026-11.39-.066-1.713 5.074-2.216 1.182-.542.64-.049 1.183-.887ZM63.833 64.01c-.098.197-3.35 10.548-3.35 10.548a4.126 4.126 0 0 0 .838.535 11.919 11.919 0 0 0 .591-2.315c.1-.443 2.02-7.438 2.02-7.586s.296-1.231.296-1.231ZM78.406 37.786c.344.069 6.692 3.173 6.348 2.967s-3.372-2.44-3.587-2.622-2.712-1.142-2.712-1.142ZM49.42 44.066l-.276.414 2.968 1.449s-1.036-1.242-1.174-1.45a9.095 9.095 0 0 0-1.643-.823M20.988 32.61s2.415 2.484 3.382 3.796a43.75 43.75 0 0 1 2.76 4.347 34.543 34.543 0 0 0-1.725-4.485c-.345-.345-3.175-2.968-3.175-2.968Z"/><path class="cls-17" d="M20.797 32.186a13.6 13.6 0 0 0 2.904-1.487 7.078 7.078 0 0 0 2.172-2.81c1.771-.047 2.172-.684 2.455-1.983s-.543-1.628-1.18-1.865a20.76 20.76 0 0 0 .118-3.352 4.852 4.852 0 0 0-1.063-3.47c.118-.095.543-.165.614-.732a1.296 1.296 0 0 0-1.204-1.534c.19-1.464-.614-1.677-.944-1.747a1.139 1.139 0 0 0-1.393 1.062s-.425-.213-.685-.331a2.43 2.43 0 0 0-3.423-2.242c-.518-2.81-3.705-1.724-4.06.306-1.321-1.298-2.927-.165-3.493 1.653-.048-.094.047-.85-1.04-.685.308-1.794-1.534-1.11-1.793-.118-.898-1.015-2.326.167-1.771 1.464-1.227-1.016-2.202.149-1.565 1.093-.755-.165-1.574-.306-1.882.607-.282.836.095 1.18 1.464 1.274-.236.095-.52.473-.378 1.18s1.086.45 1.252.378.448.095.354.567a1.021 1.021 0 0 0-.59 1.818c-1.04.307-1.016 1.44-.048 2.243-1.51.637.118 2.715 1.18 2.1.048 2.409 1.677 2.858 2.905 2.29a7.66 7.66 0 0 0 4.155 3.943 12.293 12.293 0 0 0-3.588 2.172 6.894 6.894 0 0 0-3.164 4.532c-.779 2.739-.614 4.698-2.597 8.381a26.815 26.815 0 0 1-4.178 5.973 6.382 6.382 0 0 0 2.809 2.926c-.874.851-.591 1.63-.047 2.054-.779.261-.992 1.11-1.086 2.078a7.581 7.581 0 0 0-1.228.189s-.047 1.392-.141 2.573.188 7.577.141 9.395 0 7.768 0 8.122c1.913.094 3.777.023 5.147 0s3.895.071 4.226 0c.024-1.417.07-3.235.07-3.235.661.236 1.181.425 1.252.448a13.12 13.12 0 0 0 4.013 3.778c1.487.803 3.456 1.373 4.1.112a2.629 2.629 0 0 0 .376-1.63 4.455 4.455 0 0 0 3.739 1.943 1.612 1.612 0 0 0 1.558-2.078c-.259-.92-.59-1.912-.59-1.912a5.228 5.228 0 0 0 1.795-.118 1.021 1.021 0 0 0 .212-.661c-.047-.331 0-3.258.071-4.131a3.201 3.201 0 0 0 2.455-2.857c.023-1.417-.166-3.942-.119-6.114s0-5.17.048-5.406c1.015-.614.708-2.691.236-3.211.968-1.203 2.125-2.573 2.125-2.573a12.479 12.479 0 0 1-1.7-3.564c-.331-1.275-1.841-7.625-3.683-11.26a11.406 11.406 0 0 0-4.674-5.076 7.278 7.278 0 0 0-.591-.355"/><path class="cls-18" d="M7.068 23.506a1.155 1.155 0 0 0 .768 1.786 1.086 1.086 0 0 0 1.04-1.724"/><path class="cls-18" d="M8.852 21.751c.45.354.354 1.89-.779 1.865a1.126 1.126 0 0 1-.567-2.077"/><path class="cls-18" d="M5.737 23.46c.307.143 1.331.128 1.331-.32M5.76 21.185a1.298 1.298 0 0 0 1.487.047M7.642 19.628c-.595.153-.702 2.005.502 2.052s1.37-.779 1.298-1.251a2.25 2.25 0 0 0-.4-.968M9.088 24.796a9.491 9.491 0 0 0 .874 3.305M13.762 31.737a10.39 10.39 0 0 0 7.318.307M25.849 27.798a11.156 11.156 0 0 0 .638-3.309"/><path class="cls-18" d="M27.03 24.206c-.212-.047-.425.331-.425.331a14.777 14.777 0 0 0-2.337-1.464 33.42 33.42 0 0 0-.968-5.17 20.592 20.592 0 0 1-.685 5.076c-.401-.071-.637-.118-.637-.118a13.776 13.776 0 0 0-1.889-4.911c.095 2.644.142 4.675.095 4.746a25.875 25.875 0 0 0-5.336.118 22.748 22.748 0 0 1 .118-4.958 17.743 17.743 0 0 0-1.747 5.288 2.308 2.308 0 0 0-.685.26c-.259-1.512-.779-3.046-.637-4.108-.779.944-1.157 4.155-1.228 4.674a11.693 11.693 0 0 0-1.203.732M23.276 14.267a3.321 3.321 0 0 0-.024.637c-.85-.047-1.345.237-1.25 1.181.094.947.896 1.062 1.652.944.141 1.063.543 1.323 1.204 1.204s.708-.543.661-1.015a1.955 1.955 0 0 0 1.11-.26M8.05 16.062c-.402-.991-.072-1.511.613-1.723s1.11.142 1.416.92c.685-.708 1.724-.661 2.031.047a1.022 1.022 0 0 1-.756 1.417.879.879 0 0 1 .425 1.464c-.354.33-1.346.708-1.747.094a1.244 1.244 0 0 1-1.605.968.87.87 0 0 1-.425-1.345c-1.228.259-1.18-.426-1.228-.992a.857.857 0 0 1 1.275-.85Z"/><path class="cls-18" d="M7.053 14.357c.472.165.547.477.736.76M11.378 14.551a3.541 3.541 0 0 1 .449-1.11M12.086 15.188c1.04-.92 7.413-2.007 10.152-.283M12.102 42.076a55.119 55.119 0 0 0 6.494-6.875 9.985 9.985 0 0 0 1.407-2.8M20.09 39.862c1.042-1.246 2.874-4.105 3.182-5.717"/><path class="cls-18" d="M10.87 33.618c.895.967 4.706 4.105 5.483 4.266M15.283 32.313a17.033 17.033 0 0 0 3.313 2.888M12.175 40.785a8.667 8.667 0 0 0-.103 2.683c.044.894-.029 1.978.162 4.118s.601 2.565.762 5.907a31.652 31.652 0 0 1-.029 5.643c-.118.616-.382.983-.88.821s-1.436-.924-2.873-1.774a28.629 28.629 0 0 0-4.94-1.979 4.72 4.72 0 0 1-1.202-.498"/><path class="cls-18" d="M12.22 43.247a69.712 69.712 0 0 1 9.058-.513 35.476 35.476 0 0 1 4.78.293c.35.044.35.381.365.528-.015.19.25 2.404.205 3.723s.015 2.976-.029 3.547.117 1.012.044 1.247-.586.205-.909.22-4.368.131-7.08.146-4.896.043-5.585-.015M13.993 40.507a16.449 16.449 0 0 1 2.507.806"/><path class="cls-18" d="M16.397 42.632c.308-1.378.762-4.485.836-4.559 1.04.733 3.327 2.287 4.632 3.196s2.257 1.48 2.33 1.554M12.234 47.513c1.158.088 8.18-.147 9.704-.22M12.498 49.067c2.682 0 12.401-.073 13.97-.44"/><path class="cls-18" d="M22.348 46.355c-1.275-.044-.777-2.316.88-1.597a1.034 1.034 0 1 1 2.037.249c1.422.19 1.261 1.598.484 1.773.44 1.496-1.056 1.965-1.657.88-.967.982-2.843.264-1.744-1.305ZM12.594 60.006a28.3 28.3 0 0 0-.043 3.755 29.747 29.747 0 0 1 0 5.178c-.237 1.64-.043 2.33-.755 2.806s-1.49.776-1.64.603M7.372 57.525a.9.9 0 0 1-.086 1.035c-.216.173-.281.13-.346.13.065.475-.517.777-.97.669a1.834 1.834 0 0 1-.691-.302c-.41.065-1.079-.194-1.143-.497-.346.15-.626-.215-.95-.69"/><path class="cls-18" d="M6.293 58.13a2.696 2.696 0 0 0 .647.387M4.998 58.172a2.975 2.975 0 0 0 .388.842M3.92 57.849a3.28 3.28 0 0 0 .238.626M7.933 57.74a3.681 3.681 0 0 1 1.08 2.46c.69.152 1.056.195 1.056.195a10.408 10.408 0 0 1 .022 1.489c-.043.604-.065 4.51-.087 5.784s.108 4.423.13 5.523-.022 3.258-.022 3.84"/><path class="cls-18" d="M3.726 58.669c-.367.216-.54 1.014-.583 1.424 1.338.043 2.05-.022 3.043.021s1.532.044 1.532.044a2.516 2.516 0 0 0-.518-1.446M26.62 52.282a8.053 8.053 0 0 1 .67 2.87 24.543 24.543 0 0 1 .194 6.474c-.368 2.934-.475 3.778-.626 5.915s-.216 4.293-.216 5.243M27.743 58.715a2.02 2.02 0 0 0 1.403-.518"/><path class="cls-18" d="M27.506 56.838c.69-.798 1.446-1.402 1.899-1.855M11.41 77.249a46.459 46.459 0 0 0 7.875.41c2.007-.022 4.596-.065 5.459-.13M19.07 77.767a5.407 5.407 0 0 1 .892 1.909M14.236 80.097a2.428 2.428 0 0 1 2.935-.302c.617.616.258 1.187-.173 1.812M19.544 78.846c-.777-.151-2.158.496-1.92 1.316s1.424 1.014 1.855 1.036M20.04 79.19a2.287 2.287 0 0 1 2.805.692c.345.755-.41 1.143-.475 1.359M24.593 78.414c-.82.453-1.575.842-1.338 1.532s1.209.906 1.683.993"/><path class="cls-19" d="M13.831 25.649a.521.521 0 1 1-.516-.59.556.556 0 0 1 .516.59M40.45 36.15a.521.521 0 1 1-.516-.59.556.556 0 0 1 .516.59M49.367 36.15a.521.521 0 1 1-.516-.59.556.556 0 0 1 .516.59M68.695 29.214a.521.521 0 1 1-.516-.589.556.556 0 0 1 .516.59M77.37 29.214a.521.521 0 1 1-.516-.589.556.556 0 0 1 .516.59M22.62 25.649a.521.521 0 1 1-.516-.59.556.556 0 0 1 .517.59"/><path class="cls-18" d="M17.778 26.284c.275.314.429.627-.031.742M73.044 29.858c.276.314.428.627-.03.742M15.001 28.548c.398 1.92 4.842 2.417 5.431.076"/><path class="cls-17" d="M35.457 47.504a21.787 21.787 0 0 1-2.234 5.906 20.16 20.16 0 0 0-2.815 6.517 8.658 8.658 0 0 0 1.163 5.967 8.32 8.32 0 0 0 1.836 2.234 45.85 45.85 0 0 0-.214 5.018c.06.428.244.55.948.704a20.535 20.535 0 0 0 .49 4.804c.275.398 1.326.507 2.672.568a1.813 1.813 0 0 0 1.857 1.758 5.428 5.428 0 0 1-.215.703s4.376.765 6.028 1.041a17.042 17.042 0 0 0 2.05.275l.643-1.836c1.316-.092 2.172-.642 2.111-2.05 1.928-.153 2.173-.306 2.326-.49a3.026 3.026 0 0 0 .183-1.499c-.061-.49-.245-3.519-.214-3.641 1.102-.306 1.377-.399 1.377-.735s-.123-3.61-.183-4.069c.734.581.907.439 1.376.214a7.467 7.467 0 0 0 2.907-4.345c.551-2.357.459-3.458.337-3.825s-1.866-3.183-2.325-4.529-1.806-5.783-2.142-6.915-.337-1.347-.429-1.53c.153-.367-.214-1.439-1.407-2.632s-1.622-1.193-2.112-1.254a14.497 14.497 0 0 0-1.621-1.408 4.687 4.687 0 0 0 1.591-1.132 24.517 24.517 0 0 0 3.58.061c.367-.183.826-2.509 1.01-3.824a3.027 3.027 0 0 0 .275-3.611c-.031-1.163-.459-4.957-1.836-6.763a1.186 1.186 0 0 0 1.163-1.407 1.5 1.5 0 0 0-1.285-1.377c.275-1.652-1.438-2.754-2.356-.704-.613-.336-1.285-.367-1.653.184.368-1.591-.061-3.764-3.458-3.886s-4.62 1.315-4.59 2.264a13.009 13.009 0 0 0 .092 1.346 2.347 2.347 0 0 0-.673 0c-.428-1.224-1.255-1.53-2.05-1.254s-.979 1.162-.642 2.081c-1.347.305-1.377.856-1.377 1.407a1.487 1.487 0 0 0 .734 1.163c-1.316 1.224-1.897 5.171-1.928 6.548-.948.551-.898 3.218.173 4.136a17.592 17.592 0 0 0 .194 2.932c.123.337 1.439.49 2.326.521s1.897.091 1.897.091a6.85 6.85 0 0 0 1.408.979c-1.102.735-1.959 1.316-2.02 1.408-.428-.153-.826.153-1.652.826a5.88 5.88 0 0 0-1.622 2.234c-.061.337.306.826.306.826Z"/><path class="cls-18" d="M36.375 27.002a3.26 3.26 0 0 0 1.346-.214c.459 1.163 2.693 1.377 2.448-.642 2.02-.52 1.163-2.357.306-2.418M48.278 24.095c-.184.49-.306 1.47 1.194 1.775-.49 1.47 1.07 2.754 2.203 1.132a2.89 2.89 0 0 0 1.1.061"/><path class="cls-18" d="M41.515 24.585a11.716 11.716 0 0 1 6.487.184M36.376 34.231c0 1.346.549 5.133 2.752 6.97M49.318 41.353a9.944 9.944 0 0 0 2.907-6.916M40.26 42.088a9.54 9.54 0 0 0 7.559.275"/><path class="cls-18" d="M34.484 33.69a1.568 1.568 0 0 1 1.776.406 1.781 1.781 0 0 0 .81.386s.233-4.42 1.932-5.83a14.985 14.985 0 0 0-.117 5.213 4.277 4.277 0 0 1 .754 0c.211-1.834.694-5.366 1.89-6.505a51.402 51.402 0 0 0-.386 6.254c1.68-.077 5.675-.174 6.582-.097a51.644 51.644 0 0 0-.347-6.177 46.948 46.948 0 0 1 1.776 6.312 6.007 6.007 0 0 0 .792.02 40.522 40.522 0 0 0-.154-5.231 15.597 15.597 0 0 1 1.736 5.54l-.018.482a1.473 1.473 0 0 1 .83-.038c.578-.734 1.273-1.1 1.813-.464M34.6 37.628c.734.541 1.95.734 2.258-.019M51.741 37.706c.154.502 1.505.637 2.2-.174M42.187 39.21c.405 1.622 3.802 2.472 4.999 0M44.792 36.933a.428.428 0 0 1-.212.463M38.326 43.727a13.575 13.575 0 0 1 1.525 1.892c1.602-.039 6.023-.06 8.166.017.752-.868 1.003-1.023 1.524-1.6M35.508 47.375a2.659 2.659 0 0 0 1.061 1.043M52.9 47.568c-.502.348-1.158.887-1.621 1.177M38.075 47.606c.02-1.216.502-1.564 1.448-1.564s1.081 1.043 1.042 1.68c1.371.02 1.37.752 1.235 1.563s-1.235.752-1.447.695c.04 1.332-.656 1.524-1.545 1.448-.639-.055-.77-.753-.79-1.583-1.39-.077-1.468-.753-1.449-1.293s.444-.888 1.506-.946ZM38.751 51.524a18.915 18.915 0 0 0-.54 2.915"/><path class="cls-18" d="M40.257 50.81c.096.792 1.197 4.845 1.216 5.193s-1.64.521-2.181.386M49.657 47.606c-.019-1.216-.5-1.564-1.447-1.564s-1.082 1.043-1.043 1.68c-1.37.02-1.37.752-1.235 1.563s1.235.752 1.447.695c-.038 1.332.657 1.524 1.545 1.448.64-.055.772-.753.791-1.583 1.39-.077 1.467-.753 1.448-1.293s-.444-.888-1.506-.946ZM48.982 51.524a18.915 18.915 0 0 1 .54 2.915"/><path class="cls-18" d="M47.476 50.81c-.096.792-1.196 4.845-1.216 5.193s1.64.521 2.18.386M42.438 45.463a12.444 12.444 0 0 0 2.644-2.316"/><path class="cls-18" d="M42.901 42.973a4.136 4.136 0 0 0 1.274 1.14M37.786 50.385a6.755 6.755 0 0 0 .521 4.555 15.13 15.13 0 0 0 3.514 4.229c.327.25.057 1.138-.078 1.35a18.951 18.951 0 0 1-3.649 5.714c-2.374 2.373-3.319 2.972-3.532 2.856s-1.255-1.178-1.409-1.215M50.43 49.884A12.394 12.394 0 0 1 49.426 55a11.678 11.678 0 0 1-2.586 3.436c-.502.406-.734.31-.367 1.39a28.871 28.871 0 0 0 4.344 6.544 13.296 13.296 0 0 0 2.508 2.277M46.107 59.59c-.694-.263-2.062.13-1.893 1.367s.581 1.594 1.012 1.706a.929.929 0 0 0 .9-.187 3.01 3.01 0 0 0 .337-.469M46.294 62.514c.15.094 1.05.056 1.163-.225"/><path class="cls-18" d="M42.22 59.59c.694-.263 2.062.13 1.893 1.367s-.581 1.594-1.012 1.706a.929.929 0 0 1-.9-.187 3.085 3.085 0 0 1-.337-.469M42.033 62.514c-.15.094-1.05.056-1.162-.225M41.647 62.661a5.388 5.388 0 0 0-.251 1.467c-.618.039-1.1.117-1.1.117a39.549 39.549 0 0 0-.136 4.052c-.038 2.182.02 6.563 0 8.243s0 3.492-.038 3.628-.87.907-.87 1.024M47.495 81.095c.058-.888.077-4.672.096-5.482s.213-7.624.116-8.763.02-2.22-.057-2.375-1.023-.328-1.023-.328c-.078-.965.096-1.042-.136-1.524"/><path class="cls-18" d="M42.65 62.7c-.251.251-.154 1.1-.135 1.37 1.563.039 3.03-.018 3.127.02a4.178 4.178 0 0 0-.27-1.294M34.1 73.74a44.105 44.105 0 0 0 5.983.27M47.61 73.76a29.668 29.668 0 0 0 4.518-.387M37.013 79.144c.927.04 2.625.116 3.127.096M47.669 79.28c.965-.059 1.64-.194 2.239-.252"/><path class="cls-17" d="M55.52 55.976c.477.214 3.622 1.764 3.742 1.811a9.84 9.84 0 0 1-.191 2.455c-.143.977-.5 3.91-.524 4.194s.381.548.548.74 3.431 2.097 3.503 2.145c-.358 1.381-2.002 6.698-2.026 7.08s.453.595.62.69 1.954.906 1.954.906c-.406.84-.119.953-.119.953l.644.405c-.691.62-1.669.763-2.693 2.097s-1.144 2.503.5 3.17 3.98-.596 4.814-1.31a12.416 12.416 0 0 0 2.026-2.837 4.313 4.313 0 0 0 1.977-.048 4.622 4.622 0 0 0 .215-1.286 12.622 12.622 0 0 0 4.695-.164c.238 1.192.31 1.737.31 1.737h.953a6.498 6.498 0 0 0 2.764 3.193c1.287.834 2.955 1.05 3.909.286s.429-2.073-.31-3.002-1.406-1.717-1.406-1.717a29.846 29.846 0 0 0 1.096-.476 7.642 7.642 0 0 0-.095-1.049c.906-.286 2.788-.786 2.883-.858 0-.5-1.859-8.766-1.978-9.148 1.239-.572 3.766-1.958 4.028-2.1-.072 1.215-.024 5.29-.048 7.316s-.048 7.126-.048 7.317.072.357.143.357a16.766 16.766 0 0 1 2.098.048c.548.095 3.587-.058 4.731.038a18.928 18.928 0 0 0 2.669-.048c.072 0 .107-.395.107-.538s-.239-10.964-.168-12.227-.071-7.674-.047-7.959-.048-.358-.048-.358l-.977-.143a2.373 2.373 0 0 0-1.215-2.264 2.455 2.455 0 0 0-.429-2.122 4.411 4.411 0 0 0-1.931-.715 33.84 33.84 0 0 0-3.932-6.03c-1.644-1.979-2.931-4.076-3.574-4.862a3.027 3.027 0 0 0 .095-.787 12.588 12.588 0 0 0-3.432-2.479c-2.55-1.406-3.074-1.358-3.074-1.358l-.429.214s-1.406-1.072-1.883-1.453a6.731 6.731 0 0 0 3.789-3.099c1.788-.072 3.194-.93 3.48-2.456.272-1.453-.453-2.479-1.192-2.55a3.463 3.463 0 0 1-.643-.072l.191-.452a10.976 10.976 0 0 0 1.096-2.36 9.369 9.369 0 0 0-1.239-3.86c.071-.072 1.358-1.025 1.358-1.025s-.119-.477-1.644-1.43a13.306 13.306 0 0 0-6.315-1.883 2.177 2.177 0 0 1 .738-1.192 10.703 10.703 0 0 0-3.193-.453c-2.431-.119-5.624 1.311-6.554 3.385a6.914 6.914 0 0 0-4.29 3.074c.024.071.191.43.954 1.001.023.12-1.168 1.74-1.24 2.073a19.802 19.802 0 0 0 1.883 3.6c-.906 0-1.978.93-1.43 2.574a2.838 2.838 0 0 0 3.646 1.86 7.214 7.214 0 0 0 3.957 3.192c-.763.93-1.907 1.931-2.193 2.312-.31-.5-.596-.5-.596-.5s-5.624 2.931-5.696 3.027a3.713 3.713 0 0 0 .263 1.072c-.93 1.478-4.075 7.507-4.576 8.294s-1.787 3.194-1.811 3.241"/><path class="cls-18" d="M63.288 28.114c.095.072.525.358.525.358a17.654 17.654 0 0 1 .953-2.765c.214-.334.88.524.88.524.669-1.382 1.622-3.336 2.313-3.837a9.533 9.533 0 0 1 2.622 1.645 6.462 6.462 0 0 1 1.287 1.5 15.317 15.317 0 0 0 1.144-2.215 7.404 7.404 0 0 1 2.526 2.407c1.096-.524 1.74-.667 1.835-.786a9.48 9.48 0 0 1 .953 1.644 2.76 2.76 0 0 1 1.478-.286c.429.619 1.024 1.144 1.048 1.478a.992.992 0 0 0 .5-.287M80.804 27.852a10.581 10.581 0 0 1-1.144 4.838"/><path class="cls-18" d="M63.931 28.114a14.246 14.246 0 0 0 1.692 4.766M67.005 26.04c.262-1.025 2.55-1.049 2.788-.119M75.776 26.04c.262-1.025 2.55-1.049 2.788-.119M70.414 32.096a7.673 7.673 0 0 0 2.55 1.692c.38.048 1.835-1.311 2.073-1.787M69.27 35.647a9.9 9.9 0 0 0 6.935 0"/><path class="cls-18" d="M74.322 36.174c-.882.93-4.648 5.553-5.553 6.625M77.873 37.413c-.763 1.096-1.93 3.384-3.265 5.338s-5.124 7.293-5.41 7.698M70.843 36.174a9.526 9.526 0 0 0 1.978 1.716M68.174 37.222a33.86 33.86 0 0 0 2.502 3.194M67.125 38.03c.405 1.385 1.24 3.696 1.716 5.984s.262 4.791.214 7.985-.333 12.537-.357 12.87a.556.556 0 0 1-.239.453 35.049 35.049 0 0 1-4.766-1.573 11.963 11.963 0 0 1-3.289-1.763 2.859 2.859 0 0 1 .048-1.097c.048-.214 2.312-9.128 2.574-10.033s.786-3.24.834-3.313"/><path class="cls-18" d="M61.215 41.56c.238.454 1.144 1.883 1.764 3.123a26.764 26.764 0 0 1 1.358 3.86M84.57 41.537a44.63 44.63 0 0 0-2.312 4.385 60.687 60.687 0 0 0-.525 1.358"/><path class="cls-18" d="M82.186 46.231c0 .644.167 1.954.358 3.67s1.644 9.176 2.097 10.773a15.787 15.787 0 0 0 .596 1.811 1.8 1.8 0 0 1-.548.477c-.096.024-3.456 1.168-5.434 1.55a12.246 12.246 0 0 1-3.122.332c-.286-.024-.238-.023-.214-.452s0-3.528.095-4.719.31-10.512.477-12.299.428-4.814.643-5.696a43.92 43.92 0 0 1 1.311-4.575M72.583 57.027a2.183 2.183 0 0 1-2.241-2.002c-.071-1.12.382-1.716 1.24-1.883a6.101 6.101 0 0 0-1.335-1.12 1.318 1.318 0 0 1 .715-.93c.095-.047.143-.31.286-.43s1.049 1.002 1.287 1.598a3.277 3.277 0 0 1 1.477-1.692c.19.429.334.62.43.62s.5-.024.57.119a8.978 8.978 0 0 1-1.285 1.835c.929.548 1.144.906 1.025 2.12a2.024 2.024 0 0 1-2.17 1.765Z"/><path class="cls-18" d="M69.222 52.618a9.493 9.493 0 0 0 1.74.072M69.198 54.5c.31.049.882.096 1.002.096M74.084 52.713a12.828 12.828 0 0 0 2.002-.095M74.87 54.715a6.78 6.78 0 0 0 1.24-.024M86.343 51.206a13.321 13.321 0 0 1 1.102 4.53M92.171 52.69a4.132 4.132 0 0 0-2.216.691 2.346 2.346 0 0 0-.715 1.43c.477-.048.953.095 1.025.286-.167.596.214 1.334.715 1.096.142.525 1.025.525 1.311.286a.752.752 0 0 0 1.167-.214c.382.143.811-.405 1.001-.977"/><path class="cls-18" d="M93.578 55.478a5.124 5.124 0 0 1-.12.786M92.553 55.502a3.998 3.998 0 0 1-.262.977M90.98 56.193c.286-.071.572-.857.572-.977M90.265 55.096c0-.07.238-.881.238-.881M89.145 54.906a4.247 4.247 0 0 0-.692 2.526 3.246 3.246 0 0 0-1.096.31c-.07 1.001-.118 2.526-.095 3.146s.167 2.216.143 3.146"/><path class="cls-18" d="M90.146 55.788a2.6 2.6 0 0 0-.334 1.668c1.93 0 4.123-.07 4.48-.024a3.143 3.143 0 0 0-.404-1.215M82.496 63.7c.12.62.74 2.053.906 2.649M79.851 64.559c.238 1.263 2.407 11.32 2.55 11.916M73.226 57.099c.214 2.026 1.216 11.225 1.477 13.584.263 2.359.525 5.889.668 6.557M72.106 57.195c-.167 2.503-.81 9.199-.953 11.177s-.668 7.817-.692 8.65M66.1 64.798c-.262 1.382-1.954 8.01-2.145 8.94a15.201 15.201 0 0 1-.715 2.24M62.716 67.347c.358-1.144.93-3.169 1.073-3.408M63.646 77.289a25.277 25.277 0 0 0 4.957 1.12M76.371 78.647a25.894 25.894 0 0 0 5.34-1.359M63.239 82.594c-1.043-.423-1.917-1.132-.588-1.795 1.37-.684 3.14-.604 3.306.68M60.326 81.508c.53.121 1.435.045 1.66-.528.227-.574-.06-1.782-.619-1.706M77.503 80.21c1.117-.618 3.109-.242 3.592.498s.137 1.314-.543 1.782M82.152 78.776c-.543.211-1.57 1.283-.56 1.917s1.647.347 1.888-.09"/><path class="cls-17" d="M30.086 27.101 34.07 5.512M33.164 27.264l3.84-21.822M52.577 5.605l3.773 21.894M55.654 5.442l3.514 21.168M29.394 5.339h31.475S63.19 1.326 63.48.946s.096-.588-.84-.381-6.061.865-8.383.969-7.418.242-9.288.242-9.836-.173-10.642-.311-6.095-.796-7.16-1.073-.418.45-.322.83a31.757 31.757 0 0 0 2.548 4.117ZM33.425 8.418l-3.16.069 1.064 2.25h1.741M56.289 8.418l3.161.069-1.065 2.25h-1.741M36.263 10.84h17.156M36.489 8.487h16.608M43.067 5.512v2.733M46.969 5.581v2.594"/><path class="cls-18" d="M28.781 3.921h32.636"/><path class="cls-17" d="M6.908 25.503c.275-.161.32-.298.32-.436"/><path class="cls-18" d="M7.528 18.17c-.186.495-.495 1.071-1.402.577M57.68 57.377a1.142 1.142 0 0 1-.984.904"/></g></g></svg>