<svg xmlns="http://www.w3.org/2000/svg" viewBox="0 0 98.621 74.407"><defs><style>.cls-2{fill:#fff}.cls-6{fill:#d9a559}.cls-10{fill:#9d5c37}.cls-11{fill:#d4925d}.cls-12{fill:#b97749}.cls-13{fill:#793c29}.cls-18{fill:#8dc63f}.cls-19{fill:#ffdfa4}.cls-21{fill:none;stroke:#231f20;stroke-linecap:round;stroke-linejoin:round;stroke-width:.617px}</style></defs><g id="Layer_2" data-name="Layer 2"><g id="Layer_1-2" data-name="Layer 1"><path d="M46.816 51.643c-3.814-1.04-7.032-.943-11.062-5.659s-9.345-13.719-10.46-20.493 1.115-13.29 4.545-16.377 7.116-5.402 10.975-6.259 7.46-.858 8.317-1.286a13.11 13.11 0 0 1 6.688-1.2c3 .342 7.288 1.457 10.118 3.772a49.52 49.52 0 0 1 8.145 8.489 21.51 21.51 0 0 1 3 9.774c.087 3.344-.856 11.49-2.056 14.32s-5.145 9.346-11.32 12.09-7.115 3.086-10.116 3.258a26.287 26.287 0 0 1-6.775-.429" style="fill:#fec260"/><path class="cls-2" d="M32.122 7.042c2.058-.686 9.763-3.158 11.306-3.329s2.981-.257 4.146-.503c1.63-.343 3.21-.479 3.895-.565a28.237 28.237 0 0 1 5.151-.25 19.116 19.116 0 0 1 6.572 1.917 32.025 32.025 0 0 1 4.546 3.547 29.065 29.065 0 0 1 3.831 4.082 16.166 16.166 0 0 1 2.073 3.455 14.054 14.054 0 0 1 1.194 3.895 44.398 44.398 0 0 1 .88 7.475c-.086 1.286.125 7.6.125 7.6s1.054-6.303 1.054-7.589a95.606 95.606 0 0 0-1.287-10.975 41.03 41.03 0 0 0-4.973-7.546c-.943-.857-6.088-5.573-8.145-6.259s-6.174-2.315-8.489-1.8-6.345 1.63-7.803 1.8a84.31 84.31 0 0 0-8.737 1.841c-.343.258-5.339 3.204-5.339 3.204"/><path d="M28.123 11.944a20.857 20.857 0 0 0 .686 8.832c.943 3.687 9.86 14.919 17.32 18.349s12.176 2.743 16.72 2.572 11.575-4.46 12.69-5.573c-4.03 7.459-12.004 14.919-18.692 15.69s-13.633 1.287-18.606-4.286-11.06-16.206-11.747-18.35a24.357 24.357 0 0 1-1.372-4.715c-.172-1.544-.257-5.917.514-8.146a31.598 31.598 0 0 1 2.23-4.716Z" style="fill:#f5bb4e"/><path d="M45.3 9.457a12.445 12.445 0 0 0 6.518 1.143c3.429-.228 5.487-.228 6.287-.228s-1.714 1.486-2.858 1.715a14.25 14.25 0 0 1-6.06-.458c-1.714-.686-3.543-1.6-3.543-1.6Z" style="fill:#dd9e52"/><path d="m13.204 29.521-.343-2.315.943 1.972.515-2.144.257 1.973 1.286-2.316.343 1.801 1.115-2.058.257 2.144 1.372-2.315.343 1.972 1.2-2.058.257 1.715.858-1.972.943 1.972.257-1.629 1.115 1.715 1.2-1.372.086 1.543 1.801-1.2-.258 1.886 1.887-2.144-.858 2.487 1.801-1.458-.429 1.63 2.315-2.058-1.029 2.4 2.487-.857-1.715 1.543s3.258-.428 3.001-.428a14.379 14.379 0 0 0-2.058 1.63l2.83-1.03-1.886 1.458 2.4.085-1.029 1.115 2.487-.515-1.972 1.458 2.486-.514-1.629 2.143 2.23-.686-1.029 1.286 2.486.343-2.058.772 2.315.515-2.486 1.286 3.172.428-2.572.515 2.915 1.115-1.972 1.286 1.887.6s-2.315.514-2.058.514a22.644 22.644 0 0 1 2.315.858l-2.229.6 1.714 1.372-2.229.943 1.629.943s-1.826.335-1.311.421a6.108 6.108 0 0 1 1.997 1.551 10.568 10.568 0 0 0-2.143.686l1.714.944-1.8 1.286.514 1.543-2.572.429.943 1.543-1.886.858.171 1.8s-1.286.772-1.543.686a16.473 16.473 0 0 0-2.487.429l-1.543 1.029h-1.886l-2.315 1.629-1.029.6-1.029.257-.6-1.629-.686 1.887-1.372-1.887-1.029 2.23-.686-2.058-1.715 2.401-.6-1.887s-1.715 2.058-1.801 1.715-.086-2.315-.086-2.315l-2.143 1.886v-2.143l-2.315 1.715.085-2.144-2.143 1.458.686-2.144-2.744 1.458.857-2.487s-2.4 1.029-2.4.686a7.495 7.495 0 0 1 1.029-1.715l-2.487.429 1.458-2.487-2.144.343.857-1.372H1.543l1.286-2.057-2.487-1.115 2.744-1.2L0 50.53l2.486-.6L.257 48.47l2.658-.6-2.23-1.372 2.23-.686-2.058-1.114 1.972-.6-1.629-.944 1.629-.086-1.2-1.37s2.057-.259 1.714-.344a12.96 12.96 0 0 1-1.886-1.8l2.401.6-1.372-3.43 1.629 1.886-.257-2.83 1.029 1.372-.257-3.43 1.715 1.544-.258-3.173 1.629 1.715-.428-3.258 1.543 2.486v-3.344l1.972 1.544-.257-2.229 1.458 1.8-.429-3.087Z" style="fill:#b37430"/><path class="cls-6" d="M15.214 36.318c-.093-.28-1.305-5.312-1.305-5.312l2.004 4.8.047-1.911-.28-3.775.978 3.215.793-3.54.279 2.887 2.516-2.795s-.512 2.47-.606 2.61a11.555 11.555 0 0 0 1.445-.793l-.047 1.351.932-3.168.187 3.355 2.516-2.377-.56 1.678 2.843-2.516-1.491 3.215 2.423-2.237-.652 2.75 1.863-1.91-.42 2.003 2.61-2.144-1.537 3.215 2.003-.371-.652 1.21 2.842-1.538-2.143 2.005 3.914-.747-2.936 2.097 2.842-.233-1.584.793 3.169.513-3.17 1.257s2.937.653 2.75.653a17.121 17.121 0 0 0-1.724.653l2.144 1.025-2.61.606 3.122 2.609-2.422-.7.745 2.377-1.491-.373 1.817 2.377L33.2 48.2s1.49 3.587 1.398 3.308c-.094-.28-3.122-3.448-3.122-3.448s1.397 4.007 1.351 3.821-2.656-2.33-2.656-2.33l2.376 4.333-3.355-2.656.094 4.147-1.631-3.82s.839 3.68.792 3.541-1.678-2.283-1.678-2.283v1.863l-1.258-1.164-.885 3.448-1.118-2.377s-.653 3.495-.653 3.215-.326-1.724-.326-1.724a20.798 20.798 0 0 1-1.91 2.61c-.14-.094.093-1.445.093-1.445l-2.982 2.144.885-1.678-1.863 2.283-1.678-2.562-.372 2.19-.42-2.703a23.84 23.84 0 0 0-4.007.14 15.833 15.833 0 0 0 2.516-.839l-3.401.14 1.398-1.817-1.771.792.652-1.212-3.215.839 1.864-1.631-3.169.326L7.852 52.3l-3.495-1.025 2.656-.466-2.656-2.237 2.33.094-1.165-1.212 1.258-.046-2.33-3.169 2.61 1.538-.792-2.004 1.35.373-2.515-2.376 2.423.605-1.072-1.817 1.445.606-1.864-2.936 2.376 1.911-1.491-4.567 1.817 3.168.56-1.77s1.118 1.351.932 1.304a42.916 42.916 0 0 1-1.166-4.52l1.911 3.03-.419-3.356 1.164 2.377-.186-3.076 1.677 2.982-.139-2.888 1.211 2.33-.279-1.818Z"/><path d="M78.684 37.524c9.832 0 20.006 3.097 19.435 16.806-.572 13.719-14.92 16.406-20.292 16.29s-13.434-1.142-17.835-6.172-5.614-12.667-2.744-18.407c3.315-6.63 9.889-8.231 14.92-8.288Z" style="fill:#f99d1c"/><path class="cls-2" d="M59.334 43.412c2.83-3.773 4.2-4.116 6.688-4.716a60.043 60.043 0 0 1 9.346-1.372 78.535 78.535 0 0 1 9.86.686 19.434 19.434 0 0 1 7.632 2.915 12.465 12.465 0 0 1 4.63 6.517 20.95 20.95 0 0 1-.286 12.89c.4-6.574 0-11.918-3.43-15.948s-8.06-4.973-11.49-5.145-7.773-.8-10.774-.2-5.402.429-8.49 2.229-3.686 2.144-3.686 2.144"/><path d="M63.421 44.04c.114-.17 2.744-2.457 2.744-2.457l1.143.114 1.772-.8 1.6.057-.4-1.372 1.201-.914 1.03-.801.513-1.028 1.086-.686.801-.858 1.485 1.544 1.372.4 1.144.4.514.743 1.487.629.571 1.086-.286.686 1.486-1.03 1.487.344.857.686 1.43-.114 1.486.742 1.085 1.372s.515.686.287.686a12.334 12.334 0 0 0-1.773 1.6l-.743 1.259-.686.343-.743-.343.172.743-.629.57s-.229.573-.286.744-.114.515-.286.572-.743.343-.743.343l-.572.857-.57.972-.23.114a6.595 6.595 0 0 0-1.543-.4c-.286.057-2.4-.114-2.573-.114a4.786 4.786 0 0 1-.914-.4l-1.6.57-.915-.856-.8-.8-.629-.972-1.715.114h-1.715a5.25 5.25 0 0 1-.914-.63 6.537 6.537 0 0 0-1.087-.684l-1.657-.63-.4-.8-1.087-.743-1.2-.571Z" style="fill:#4da347"/><path d="M11.575 53.1c-.686-.513-2.658-2.057-2.915-3.515s-.943-3.944-.515-5.316a14.89 14.89 0 0 1 1.544-3.601c.428-.514 1.2-1.715 1.2-1.715l-.086-1.114 1.715.17s1.629-.513 1.972-1.028.943-1.63.943-1.63l2.487.173s.857-.515 1.543-.858a9.53 9.53 0 0 1 2.916-.343 6.496 6.496 0 0 1 2.229.515 7.07 7.07 0 0 0 2.229.857c.343 0 1.887.086 1.887.086s1.2 1.372 1.457 1.629a23.888 23.888 0 0 0 2.058 1.286 5.425 5.425 0 0 1 .772 1.715c0 .514.514 3.6.6 4.116s.257 1.543-.257 2.057a2.236 2.236 0 0 1-1.715.772c-.514-.086-3.687-.086-3.687-.086s-2.915 2.058-3.001 2.487-1.372 3.43-1.63 4.373a6.562 6.562 0 0 1-2.314 2.486 3.891 3.891 0 0 1-1.715.429c-.43-.086-1.715.172-2.401.172s-1.715-.43-1.801-.772a7.862 7.862 0 0 0-1.114-1.801c-.257-.257-1.887-1.372-1.887-1.372Z" style="fill:#fed4a3"/><path class="cls-10" d="M10.932 49.971c-.472-.815-1.415-1.758-1.33-2.658a25.784 25.784 0 0 1 .43-3.987 4.877 4.877 0 0 1 1.029-2.272 10.058 10.058 0 0 1 2.786-1.158 16.207 16.207 0 0 0 2.4-.943 3.515 3.515 0 0 1 2.016-2.229c.6-.386 2.7-.986 3-1.201a3.786 3.786 0 0 1 .9-.386 53.359 53.359 0 0 0 4.889 1.844 6.961 6.961 0 0 1 2.658 1.5 13.649 13.649 0 0 1 1.629 2.573 16.302 16.302 0 0 1 .514 2.615 4.89 4.89 0 0 1-.557 2.272 18.094 18.094 0 0 0-3.473-.257 7.774 7.774 0 0 0-2.786 1.114 13.517 13.517 0 0 0-1.672 2.273c-.257.6-1.286 2.4-1.63 3.044s-.514 1.414-1.114 1.714a8.58 8.58 0 0 1-2.615 1.201 1.232 1.232 0 0 1-1.415-.772 6.043 6.043 0 0 0-1.415-1.415 14.5 14.5 0 0 1-2.315-.686c-.257-.214-1.33-.857-1.415-1.114s-.514-1.072-.514-1.072M23.064 69.606a8.863 8.863 0 0 1 .13-4.502c.47-1.114.9-1.8 1.2-2.572s.772-1.2.986-1.886.6-1.672.6-1.672a40.301 40.301 0 0 0 5.016.43 34.176 34.176 0 0 1 3.987.3 8.913 8.913 0 0 1 2.916 1.585 2.951 2.951 0 0 1 .985 1.886 15.307 15.307 0 0 1-1.972 4.46 21.606 21.606 0 0 1-4.545 3.043c-.6.171-4.03 1.415-4.458 1.457s-3.387.172-3.516.172a6.55 6.55 0 0 1-1.329-2.7"/><path class="cls-10" d="M34.04 59.403a9.134 9.134 0 0 1 2.615-3.215 16.16 16.16 0 0 1 3.601-.944 17.956 17.956 0 0 0 3.387-.728 5.573 5.573 0 0 0 1.244-.73c1.371 1.5 1.843 2.487 2.658 3.002a11.91 11.91 0 0 1 2.572 2.272 6.843 6.843 0 0 1 1.029 2.915 6.543 6.543 0 0 1-.643 3.3c-.6.945-2.744 1.673-3.902 1.716a43.54 43.54 0 0 1-5.573-.214 9.87 9.87 0 0 1-1.458-.686 7.933 7.933 0 0 0-1.5-4.587 23.198 23.198 0 0 0-2.487-1.544c-.257-.085-1.543-.557-1.543-.557"/><path class="cls-11" d="M23.88 71.45a24.998 24.998 0 0 0 4.586-.6 31.304 31.304 0 0 0 4.545-2.187c.643-.557 2.53-1.8 2.872-2.186a22.42 22.42 0 0 0 2.015-2.144c.086-.3.815-2.1.815-2.1a5.925 5.925 0 0 1 .857 3.858 13.512 13.512 0 0 1-1.415 3.73 20.656 20.656 0 0 1-2.658 2.444 7.66 7.66 0 0 1-2.915 1.543 13.202 13.202 0 0 1-4.33.386 19.201 19.201 0 0 1-3.3-1.158 6.316 6.316 0 0 1-1.073-1.586"/><path class="cls-11" d="M38.798 68.577a21.408 21.408 0 0 0 .73-2.958 10.593 10.593 0 0 1-.087-.815 12.16 12.16 0 0 0 3.901 1.072 16.694 16.694 0 0 0 3.73-.129 6.177 6.177 0 0 0 2.23-.9 7.34 7.34 0 0 0 1.843-1.243 7.597 7.597 0 0 1-2.4 4.46 8.75 8.75 0 0 1-2.915 1.713 13.466 13.466 0 0 1-3.73 0 8.906 8.906 0 0 1-1.886-.428c-.215-.129-1.415-.772-1.415-.772"/><path class="cls-2" d="m24.636 32.723-.257-4.63.943 4.544-.686.086zM27.266 34.066l2.572-4.373-1.886 4.887-.686-.514zM8.094 39.815c-.173 0-2.658-2.258-2.658-2.258l2.138 1.282Z"/><path class="cls-6" d="m7.631 55.33-2.315 2.144 2.315-1.372v-.772zM9.946 57.902l-1.029 3.43 1.886-2.916-.857-.514zM12.347 58.417l.686-.257.6 3.429-1.286-3.172zM18.006 59.617l-.6 2.487 1.372-2.401-.772-.086zM22.807 58.16l-.171 3.43.771-3.43h-.6zM26.837 55.502c.086.257.43 2.4.43 2.4l-1.116-2.314ZM30.353 55.587a27.995 27.995 0 0 1 2.744 1.286c-.257 0-3.173-.686-3.173-.686Z"/><path class="cls-2" d="m35.01 47.957 3.377.839-2.82-1.315-.557.476zM33.354 52.415s2.144 2.572 1.886 2.572a18.227 18.227 0 0 1-2.23-2.23ZM37.126 42.897l1.801.257h-2.916l1.115-.257zM4.63 47.442l-.263.106-1.881.751 2.315-.428-.171-.429zM4.973 51.9a18.27 18.27 0 0 0-2.658.6h2.744Z"/><path class="cls-12" d="m24.382 71.588 2.35-.214c1.496 1.567 6.34 1.425 8.12 1.211-3.49 1.78-5.77 1.852-6.909 1.638a14.544 14.544 0 0 1-2.992-1.187ZM38.84 68.882s.711-2.492.782-2.208c2.991 1.923 5.484 2.564 7.977 2.208a5.252 5.252 0 0 1-4.559.926c-1.566-.214-3.346-.641-3.346-.641Z"/><path class="cls-13" d="M25.95 59.553a30.44 30.44 0 0 1-2.422 4.344 7.858 7.858 0 0 0-.64 5.199 7.573 7.573 0 0 0 .991 2.354c1.144-.004 2.853-.075 2.853-.075-.997-1.638-2.706-3.133-1.709-6.41a31.641 31.641 0 0 0 1.211-4.913 2.301 2.301 0 0 0-.254-1.078ZM34.424 59.268a5.276 5.276 0 0 1 1.78-2.564 11.728 11.728 0 0 1 3.063-.926c-1.354.64-2.564 1.639-2.707 2.35s.143 1.923-.071 1.852-1.21-.285-1.21-.285ZM16.62 38.544a5.296 5.296 0 0 1 3.062-1.85 4.148 4.148 0 0 0 2.065-1.07c.784 1.781 1.068 3.205 1.852 3.846s2.564 1.923 3.134 2.421a6.42 6.42 0 0 1 1.21 2.421 5.961 5.961 0 0 1-.119 1.372 11.65 11.65 0 0 0-2.516 1.192c-.712-2.207-.641-2.706-1.994-3.988a19.758 19.758 0 0 1-3.133-3.276 11.26 11.26 0 0 0-1.14-1.78 3.026 3.026 0 0 1-1.638.783c-.213 0-.783-.071-.783-.071"/><path class="cls-13" d="M19.041 37.832a22.062 22.062 0 0 0-5.199 3.276c-1.852 1.78-1.353 5.27.998 8.76s4.486 3.774 5.781 3.962a4.963 4.963 0 0 1-2.615 1.2c-.894.106-1.956-2.1-2.312-2.385a6.741 6.741 0 0 0-2.136-.499 3.298 3.298 0 0 1-2.208-1.353 9.461 9.461 0 0 1-1.852-4.629c-.214-1.78 1.14-3.917 1.353-4.558s1.353-1.353 3.49-2.065 3.418-.926 4.415-1.567"/><path class="cls-2" d="M23.137 36.15c1.25.5 3.4 1.226 4.348 1.672s1.505.669 1.95 1.616-.223.557-.78-.111a14.776 14.776 0 0 0-3.4-2.006c-.78-.391-2.508-1.171-2.508-1.171s-.167-.223.39 0M29.43 60.217a6.97 6.97 0 0 0 3.414.865c1.421.066 2.316-.04 3.204.503s1.486.366.647-.451c-.841-.817-2.741-.916-4.016-.812a12.03 12.03 0 0 1-2.657-.124c-.457-.043-.823-.146-.592.019M18.868 39.488a7.116 7.116 0 0 0 1.728 3.164c.939 1.112 1.64 1.71 1.852 2.755s.76 1.37.789.171-1.22-2.695-2.186-3.579a12.288 12.288 0 0 1-1.756-2.08c-.287-.373-.464-.719-.427-.431M45.036 55.929a6.957 6.957 0 0 0 2.107 2.823c1.06.946 1.822 1.428 2.17 2.41s.923 1.22.786.057-1.551-2.44-2.606-3.161a11.997 11.997 0 0 1-1.985-1.771c-.328-.321-.547-.632-.472-.358"/><path d="M51.111 12.138c-.703-.084-.808 0-.808-.365a44.109 44.109 0 0 1 .365-5.063 31.608 31.608 0 0 1 1.061-3.006c.31-.704.282-1.462.62-1.743a6.38 6.38 0 0 1 2.304-.506c.422 0 1.181.477 1.21.758s-.647 1.069-1.069 1.63a5.542 5.542 0 0 0-.9 1.829c-.169.618-.646 2.136-.73 2.81s-.198 1.604-.254 2.08a13.086 13.086 0 0 1-.056 1.66c-.113.113-.984.084-1.097.113a2.538 2.538 0 0 1-.646-.197" style="fill:#b67b33"/><path d="M51.94 3.013c-.06.15-.695 1.076-.336 1.03s.807-.829 1.076-1.098a1.614 1.614 0 0 1 .851-.313 1.378 1.378 0 0 0 .538.29 2.126 2.126 0 0 0 .942.045c.403-.067.851-.179.851-.38s.022-.494-.112-.628-.515-.538-.874-.538a7.235 7.235 0 0 0-1.143.09 5.19 5.19 0 0 0-.829.224 2.681 2.681 0 0 0-.583.358 5.34 5.34 0 0 0-.381.92" style="fill:#d19a30"/><path d="M59.677 43.24a17.792 17.792 0 0 0-.257 9.346c.943 3.859 2.658 10.289 13.804 12.176s13.977.686 17.749-.944 5.402-3.001 7.03-6.516c-2.4 5.145-1.885 7.117-7.115 9.775s-9.09 4.287-15.348 3.515-12.09-1.886-15.177-5.487a17.346 17.346 0 0 1-4.63-10.547c-.343-3.858.857-7.717 1.886-9.174a8.905 8.905 0 0 1 2.058-2.144" style="fill:#f68b29"/><path d="M86.31 54.055c-.853-.789.119-2.697 1.19-3.34a6.859 6.859 0 0 0 2.977-3.469c.358-1.414 1.072-2.956 2.263-2.57s2.738 3.341.238 6.167-5.835 3.983-6.668 3.212" style="fill:#fdba12"/><path class="cls-18" d="m79.912 42.126 2.773-2.372 1.428.657.915.372s-.486 1.086-.743 1a8.345 8.345 0 0 1-1.029-.6l-.772.772s-.6.342-.857.257a13.3 13.3 0 0 0-1.715-.086M86.343 42.554l.43-1.029s.513.172.856.257a7.504 7.504 0 0 1 1.401 1.001c.057.628-.972.971-.972.971l-1.115-.257-1.2.257a7.169 7.169 0 0 1-1.372 0c-.257-.085 1.372-.77 1.372-.77ZM82.313 45.04l1.801-.342 1.03.429 1.027-.43.686.6-.057 1.03a10.687 10.687 0 0 1-1.829-.343c-.343-.171-2.658-.943-2.658-.943M80.856 45.641l1.801.772.771.171 1.487 1.058-.572 1.315-1.343.028-.086-1.286-.6-1.029-1.458-1.029zM79.226 50.271a13.93 13.93 0 0 1-.686-2.658c.172-.686.772 0 1.115 0s.6.686.6.686l1.543 2.658ZM74.511 49.757l.772-2.315.428-1.286-.686.343-.601.686-1.17 1.086.657.629.6.857zM65.765 45.641s1.715.171 2.144.171a20.132 20.132 0 0 0 2.057-.343l1.887-.6-1.715 1.63s-1.2.771-1.458.942-1.286-.514-1.286-.514l-1.228-.486ZM63.421 44.04a8.327 8.327 0 0 0 2.172-.285l1.03-.086 1.285.172.857-.258-1.886-1.114-.714-.886-1 1.057-.687.686ZM72.796 40.668s-1.115-.686-1.372-.857.058-1.144.058-1.144l1.029-.8.799.057.172 1.458.429 1.029.17 1.029ZM75.968 36.467l.857.772h.944s1.258-.057 1.143.4a6.508 6.508 0 0 1-.8 1.4l-.258 1.028c-.343.172-.857-1.372-.857-1.372a3.677 3.677 0 0 1-.6-.6c-.172-.257-.6-.943-.6-.943ZM77.511 41.697a5.627 5.627 0 0 1 .773-1.286l.6-.686.542-1.343 1.488.628s.627.8.198.886a8.21 8.21 0 0 0-1.714 1.2l-1.2.687Z"/><path class="cls-2" d="m80.084 42.112 2.72-2.358 1.556.416s.747.9.299.9a10.341 10.341 0 0 1-1.436-.207 5.936 5.936 0 0 1-1.704.937Z"/><path class="cls-2" d="M84.518 41.238s.613.521 1.123.347 2.145-.26 2.043.174a6.396 6.396 0 0 0 .076 1.564l.793.623.887-.774-1.245-1.067a7.544 7.544 0 0 0-1.328-1.127c-.306-.087-1.123-.433-1.123-.433ZM74.11 36.152c.4.057 1.687.314 1.687.657a4.532 4.532 0 0 0 .6 1.286s1.285-.257 1.285 0a3.273 3.273 0 0 0 .43.943l1.029-.685 1.114.428-1.571-1.257-1.516-.286a5.393 5.393 0 0 1-1.2-.772c-.172-.257-1.057-1.17-1.057-1.17ZM82.142 45.555c.257 0 2.83.43 2.83.43l.572 1.085a.904.904 0 0 0-.63.572c-.457.4-1.486-1.058-1.486-1.058a3.668 3.668 0 0 0-1.286-1.029M76.225 43.111a4.65 4.65 0 0 1 1.93-.213c.171 0 .514.128.578.32a3.176 3.176 0 0 1 .107 1.309 2.66 2.66 0 0 1-.407.793c-.107.107-.407.214-.364.064s.085-1.093.085-1.2-.3-.407-.407-.364a3.452 3.452 0 0 1-.665 0c-.235 0-.9 0-.964-.13s.107-.579.107-.579"/><path class="cls-19" d="m40.27 15.745.915-.914.114 1.372c-1.029.228-1.029-.458-1.029-.458M51.017 19.632s-.23-1.258.114-1.258 1.6.23 1.6.23-.113.914-.456 1.028a4.457 4.457 0 0 1-1.258 0M43.014 20.89l1.486-1.029.458 1.144-1.029.686-.915-.801zM55.818 21.69l1.258-.915.343 1.143a1.034 1.034 0 0 1-1.6-.228M63.364 21.919l.572-1.03 1.029.916c-1.143.686-1.601.114-1.601.114M34.44 11.858c.686-.915 1.029-.229 1.029-.229l-.572 1.03ZM41.07 11.286l1.373-.228-.23 1.257c-.8 0-1.142-1.029-1.142-1.029M68.851 19.06l.686-1.257a1.648 1.648 0 0 1 .457 1.715ZM57.305 15.63l1.257-.685.115 1.029c-1.03.572-1.372-.343-1.372-.343M49.302 27.292l.457-1.143c.801.343.458 1.6.458 1.6ZM55.59 28.435V26.95h1.257l.115 1.03a5.45 5.45 0 0 1-1.372.456M61.992 29.007l-.228-1.486a2.528 2.528 0 0 1 1.257.57ZM67.823 27.292l-.228-1.258c.914.115.914.801.914.801ZM71.71 24.548v-1.029s.914-.915 1.143-.572a3.196 3.196 0 0 1 .229 1.258ZM71.481 14.83l1.372.229-.343 1.029c-.8.115-1.029-1.257-1.029-1.257M62.22 8.085l1.259-.343-.23.915a.746.746 0 0 1-1.028-.572M63.364 14.773c1.715-1.2 1.886 0 1.886 0s.172 1.03-.343 1.2-1.543-1.2-1.543-1.2M54.447 32.708c1.21-.847 1.331 0 1.331 0s.12.726-.241.848c-.364.12-1.09-.848-1.09-.848M66.45 31.422c1.21-.847 1.333 0 1.333 0s.12.726-.242.847c-.364.121-1.09-.847-1.09-.847M42.785 29.964c1.21-.847 1.332 0 1.332 0s.12.726-.242.847-1.09-.847-1.09-.847M66.108 10.486l1.543-.514a1.345 1.345 0 0 1-.686 1.543ZM33.868 19.061h2.058l-.515 1.543-1.543-1.543zM39.184 25.406c1.2-.686 1.543.17 1.543.17-1.2.859-1.543-.17-1.543-.17M44.748 9.806a5.807 5.807 0 0 0 3.832 3.267 12.8 12.8 0 0 0 5.967.125c1.884-.44 4.523-2.45 5.528-3.078s.628-.879-.063-.44-2.746 2.3-4.765 2.406a24.694 24.694 0 0 1-6.06-.457 11.264 11.264 0 0 1-3.543-1.6Z"/><path d="M54.562 3.842A13.04 13.04 0 0 0 52.5 6.935 23.108 23.108 0 0 0 51.648 12c.045.38 1.1.045 1.1.045s.402-2.734.402-3.048.807-3.048.83-3.227a9.043 9.043 0 0 1 .65-1.345c.111-.179.627-.852.627-.852Z" style="fill:#926226"/><path class="cls-2" d="m31.98 35.357 1.944-2.058-2.058 3.43.114-1.372zM34.669 37.581l2.372-1.2-2.486 2.001.114-.801zM20.378 31.065l.572-2.972.114 2.972h-.686zM17.291 32.208l-.114-2.63.8 2.516-.686.114z"/><path class="cls-21" d="M25.422 26.392a18.915 18.915 0 0 1 .686-11.232c1.715-4.588 3.987-7.031 6.988-8.832a34.892 34.892 0 0 1 8.918-3.944c2.83-.73 6.044-.515 7.631-1.115s3.858-1.63 9.517-.343 10.256 5.446 14.491 11.233c4.33 5.916 3.387 14.619 2.83 18.349a41.834 41.834 0 0 1-.987 5.144"/><path class="cls-21" d="M44.543 9.114c1.415 1.886 4.716 3.001 7.288 3.087a14.92 14.92 0 0 0 7.031-1.887"/><path class="cls-21" d="M52.775 11.9a24.512 24.512 0 0 1 .9-5.444 5.41 5.41 0 0 1 1.672-2.958c.385-.171.3-.471.6-.729s-.129-.986-1.072-1.157a2.827 2.827 0 0 0-2.358.557c-.686.515-.857 1.302-1.244 2.487a22.665 22.665 0 0 0-.857 7.279"/><path class="cls-21" d="M53.203 2.64a1.327 1.327 0 0 0 1.672.173M38.81 48.889c1.715 1.6 7.062 2.868 9.463 2.983s5.259.399 7.089 0M71.996 41.297a9.341 9.341 0 0 0-2.515-.571c-.286 0-.972.514-1.544.686a2.222 2.222 0 0 1-1.315.114c-.285-.114-1.143.684-1.657 1.143s-1.658 1.543-1.658 1.543l2.172.972s.686.686.629 1.029.972.572 1.258.686a4.477 4.477 0 0 1 1.486.972 2.473 2.473 0 0 0 1.944.572c.742-.115 2.514-.172 2.514-.172.686.57.915 1.715 1.372 1.886s.686.8.915.686 1.314-.685 1.6-.457a2.969 2.969 0 0 0 1.544.286c.286-.057 2.858.057 3.373.743a9.237 9.237 0 0 0 1.086-1.887c.057-.343.8-.4 1.143-.628s.515-1.143.515-1.143l.685-.686-.457-.744s1.029.458 1.6.172.915-1.43 1.2-1.83a5.33 5.33 0 0 1 1.373-1.2c.343-.171-.572-.743-.915-1.43S86.4 40.668 86.4 40.668s-1.144.116-1.315.116A3.324 3.324 0 0 1 84 40.04c-.286-.286-1.372-.229-1.372-.229l-1.886 1.2"/><path class="cls-21" d="M70.624 40.61c-.23-.456-.515-.742-.23-1.2a1.982 1.982 0 0 1 1.2-.857c.459-.115.916-.857 1.088-1.257a2.37 2.37 0 0 1 1.029-.858 10.48 10.48 0 0 0 1.143-1.2 12.602 12.602 0 0 1 1.37 1.315 2.42 2.42 0 0 0 1.545.686c.514.057 1.2.457 1.258.8s1.143.456 1.429.57 1.2.858 1.029 1.715M76.112 45.012c0-.458.17-1.029 0-1.372s.285-.686.8-.8 1.485-.115 1.714.343a3.024 3.024 0 0 1-.056 2.001"/><path class="cls-21" d="M76.969 43.869a2.107 2.107 0 0 0 1.372-.228M76.683 45.584a2.459 2.459 0 0 0 1.543-.172M70.223 43.583a8.527 8.527 0 0 1 2.572.857c.286.115.858-.514.572-.97M76.225 41.297a97.981 97.981 0 0 1-.343-1.658M81.37 43.64a2.924 2.924 0 0 1 1.601-.457c.343.058 2 .287 2 .287l.629-.744M81.77 45.584a4.905 4.905 0 0 1 3.316.743M73.31 48.042a10.75 10.75 0 0 1 .743-1.944M80.284 46.727l1.658.457-.058.915M77.197 47.184l-.171.629"/><path class="cls-21" d="M72.339 37.753c-5.031.057-11.604 1.658-14.92 8.289-2.87 5.739-1.657 13.376 2.744 18.406s12.462 6.059 17.835 6.173 19.72-2.572 20.292-16.291c.572-13.708-9.603-16.806-19.434-16.806M11.804 31.293c0-.343-.572-3.087-.572-3.087M12.49 28.435l1.372 2.058M15.005 29.922a10.06 10.06 0 0 1 .457-2.287M17.405 27.063l.114 2.287M10.317 32.665l-2.858-1.143M9.06 34.151c-.114-.343-.114-3.887-.114-3.887M5.516 33.008l2.515 2.172M7.46 36.552c-.344 0-3.774-1.143-3.774-1.143M4.83 39.868c-.457 0-3.201.686-3.201.686M4.487 38.496l-1.601-1.601M1.857 55.302l2.744-.915M5.173 56.216l-1.258 3.201M6.316 57.245l-.572 2.63M7.459 58.503l-2.858 1.829M7.345 60.103l.457 2.629M6.087 62.047c.343-.114 2.744-1.83 2.744-1.83M9.86 60.56c0 .343-.343 3.43-.343 3.43M10.889 64.104l1.143-2.401M13.176 61.818l.915 2.858M15.576 64.676l1.143-2.515M17.977 62.047l.572 2.743M20.264 64.447c0-.343.686-2.972.686-2.972M19.578 62.275l2.172 1.486M23.122 60.675l.229 2.401M19.35 29.807a29.807 29.807 0 0 1 1.371-3.2M18.777 26.835l.572 1.029M21.864 29.121l.114-2.515M22.207 27.864l1.143-.457M25.523 29.693l-.8-2.515M26.666 29.464l.572-1.829M28.609 29.922l.343-2.402M30.324 30.264l2.401-.342M31.582 31.065l-.229-2.858M32.496 32.093l2.63-1.142M34.554 34.266l.915-1.715M33.983 33.008l3.316.114M36.04 35.981l1.715-1.715M37.184 37.81l1.715-2.172M37.069 35.981l2.63 1.715M37.755 40.325c.343-.343 2.63-1.829 2.63-1.829M39.013 40.44l2.287.571M38.899 42.269l1.143-1.029M41.185 42.84a18.828 18.828 0 0 0-2.515 1.03M38.784 45.241a13.965 13.965 0 0 1 1.944.571M40.614 46.842l-2.287 1.028M37.948 49.998l1.967 1.629M39.757 52.553l-3.374-.681M37.044 52.915a9.35 9.35 0 0 1 .94 1.472M36.269 54.73l-1.143-1.372M33.868 55.073v2.058M32.268 57.588l-2.401-.458M16.034 32.551l.229-1.486M22.664 32.208l.457-1.829M29.981 34.38l.114-2.287M32.954 37.124l1.601-.686M34.897 39.639l1.029-.8M35.469 46.27l2.515.114M33.182 50.386l.8 1.829M30.096 52.215l1.943 2.058M29.867 53.93l-.114 1.829M34.897 49.471l1.829.686M27.58 55.988l.229 2.172M25.408 57.702l1.029.572M21.75 58.503l-.229 1.601M19.12 58.846l-.457 1.601M15.119 60.789l1.715-1.601M13.518 60.332l-.457-1.829M11.575 57.131l-.915 1.601M8.831 57.702l-.229-1.829M5.058 52.901l1.829-.457M4.029 50.843l1.03-1.486M4.601 46.727l1.715.343M10.846 37.924a4.508 4.508 0 0 0 2.572-.172c.215 0 1.115-.814 1.115-.814l.943-1.5a23.242 23.242 0 0 0 2.915-.086c.215-.129 1.544-.858 1.672-.9a7.226 7.226 0 0 1 2.316-.172c.557.171 3.901 1.2 4.03 1.286s1.671.043 1.972.172a17.72 17.72 0 0 1 1.672 1.543 23.817 23.817 0 0 0 2.23 1.843c.213.043.428.772.47 1.072s.815 4.373.815 4.545.086.857.086 1.157-1.115 1.286-1.415 1.286-2.186-.043-2.487-.085a10.124 10.124 0 0 0-3.772 1.243 10.358 10.358 0 0 0-1.972 3.687 14.63 14.63 0 0 1-1.972 3.644 4.96 4.96 0 0 1-1.758 1.157c-.343 0-1.672.086-2.015.13s-1.544.385-1.844.213-1.457-.728-1.586-1.157a6.1 6.1 0 0 0-.9-1.672c-.215-.172-2.7-1.844-3.216-2.272a12.83 12.83 0 0 1-2.272-3.344 18.51 18.51 0 0 1-.343-4.33 31.614 31.614 0 0 1 1.586-3.73c.215-.343.944-1.372 1.072-1.629a3.731 3.731 0 0 0 .086-1.115Z"/><path class="cls-21" d="M25.08 46.842a5.132 5.132 0 0 0-.643-2.487 13.648 13.648 0 0 0-2.53-2.958 16.018 16.018 0 0 1-2.958-3.644 7.664 7.664 0 0 1-1.457.815c-1.029.47-3.644.986-4.888 1.715a4.737 4.737 0 0 0-2.701 3.772"/><path class="cls-21" d="M16.205 38.825c.214-1.073 1.801-2.273 3.087-2.659a16.207 16.207 0 0 0 2.701-.985 31.245 31.245 0 0 0 4.501 1.629 7.094 7.094 0 0 1 3.944 2.83c.858 1.37 2.23 4.543.858 6.215"/><path class="cls-21" d="M22.25 37.067a10.404 10.404 0 0 0 2.83 3.644c1.843 1.5 3.258 2.958 2.743 4.716M9.817 44.355a7.133 7.133 0 0 0-.086 3.3 10.594 10.594 0 0 0 1.887 3.217 2.63 2.63 0 0 0 1.886 1.329 6.427 6.427 0 0 1 2.401.857 9.703 9.703 0 0 1 1.03 1.543c.213.343.942.429 1.071.429.685-.214 2.272-.686 2.83-1.5a9.563 9.563 0 0 0 1.371-2.444 10.05 10.05 0 0 1 1.715-2.83 8.465 8.465 0 0 1 2.101-1.972 5.653 5.653 0 0 1 2.786-.686 5.503 5.503 0 0 0 1.415.258c.343 0 1.972.385 2.401-.086M11.146 41.14a6.626 6.626 0 0 1 1.458-1.93 3.764 3.764 0 0 1 2.701-.085M26.066 58.974a20.534 20.534 0 0 1-2.015 4.244 7.676 7.676 0 0 0-1.2 5.402c.3 2.23 1.629 4.845 4.5 5.316a10.953 10.953 0 0 0 8.618-2.1c2.7-2.058 4.673-5.574 2.744-9.389s-6.688-2.873-9.174-3.044a21.806 21.806 0 0 1-3.474-.429Z"/><path class="cls-21" d="M34.168 59.231c.472-1.972 2.701-3.43 4.93-3.73s5.06-.729 5.831-1.672a11.037 11.037 0 0 0 3.087 3.301c1.114.858 3.901 3.26 2.915 7.16a7.176 7.176 0 0 1-7.974 5.53c-3.3-.428-4.073-1.157-4.073-1.157"/><path class="cls-21" d="M23.836 71.407a15.825 15.825 0 0 0 9.09-2.744c3.814-2.486 5.23-4.458 5.486-6.259M39.527 64.89c1.458.858 5.488.944 6.902.858a5.092 5.092 0 0 0 2.873-.987M28.869 49.372l1.851 1.211M27.302 50.796l.499 1.994M10.21 52.933l-1.567 1.068M8.145 40.897l-1.78-1.495M12.703 35.699l-1.068-2.209M13.842 34.915l-.57-1.994"/></g></g></svg>