<svg xmlns="http://www.w3.org/2000/svg" viewBox="0 0 86.468 109.145"><defs><style>.cls-2{fill:#fff}.cls-5{fill:#ffd38e}.cls-6{fill:#ec008c}.cls-7{fill:#f281b3}.cls-10{fill:#fff203}.cls-11{fill:#ed1c24}.cls-12{fill:#d7df23}.cls-13{fill:#38c6f4}.cls-14{fill:#fde2d8}.cls-15{fill:#f9c2c6}.cls-16{fill:#4c3b34}.cls-17{fill:#c0c2c4}.cls-18{fill:#231f20}.cls-19,.cls-20{fill:none;stroke:#231f20;stroke-linecap:round;stroke-linejoin:round}.cls-19{stroke-width:.862px}.cls-20{stroke-width:.671px}</style></defs><g id="Layer_2" data-name="Layer 2"><g id="Layer_1-2" data-name="Layer 1"><path d="M28.139 108.45c-1.796-.358-6.587.018-12.576-3.113.958-6.108 2.276-15.091 2.276-15.091l2.755-1.437 8.862.359.24 15.09Z" style="fill:#f391bc"/><path class="cls-2" d="M21.79 41.141c.36-.599 1.079-2.276 1.079-2.276l10.899-4.91s3.234 3.234 3.114 4.072-.24 9.701-.72 9.941-7.544 1.677-7.544 1.677l-6.707-4.312Z"/><path d="M28.139 74.436c-.12 1.557.24 16.648 0 17.127-3.713.24-9.581-.719-10.3-1.317s-.6-2.275 0-3.832 1.916-8.265 1.916-8.265a6.568 6.568 0 0 1-5.39-2.993 14.561 14.561 0 0 1-1.796-6.708c-.12-2.993 1.318-12.934 1.557-15.21s2.036-8.503 2.755-9.222a24.135 24.135 0 0 1 3.353-2.635c.36-.12 1.917-.838 1.917-.838 1.676 3.952 4.91 5.629 6.108 6.587s4.43.839 5.509.839c1.677-2.156 2.515-4.073 2.515-5.87a24.593 24.593 0 0 1 3.474 0s.119 3.474 1.078 5.03a14.146 14.146 0 0 0 3.712 3.594c-.12 2.515-.6 4.312-.958 4.67s-15.45 19.044-15.45 19.044" style="fill:#fff9b2"/><path d="M75.958 106.758c-6.108 1.916-33.567 2.412-36.92 2.052-.36-8.384-4.193-43.596-7.906-47.308.6-1.916 2.157-6.348 13.175-7.785.6-2.755 21.798.359 22.157.12a2.444 2.444 0 0 1 1.078-.24s10.9 5.629 13.175 8.504c-1.677 4.311-8.743 24.432-5.27 42.278a4.661 4.661 0 0 0 .511 2.379" style="fill:#2bb673"/><path class="cls-5" d="M28.139 108.45c2.994.24 8.025.36 10.899.36 0-6.228-1.557-18.684-2.036-21.558s-3.234-18.085-4.072-21.08a22.495 22.495 0 0 0-1.797-4.67 34 34 0 0 0-2.994 12.456c-.12 3.473-.48 11.498-.6 16.288s.36 14.373.36 14.85c0 .48.24 3.355.24 3.355"/><path class="cls-2" d="M38.89 103.53c-.263.3-2.482 3.647-2.783 3.686a33.137 33.137 0 0 1-3.988-3.273c-.451-.45-2.031-2.633-2.219-2.859s-.903-1.053-.715-1.24 2.445-2.183 2.633-2.296c0 0 5.492-2.596 5.642-2.52s4.778-1.656 4.778-1.656l1.241-2.069s7.262-15.535 7.262-15.648 1.617-3.875 1.617-3.875l4.89.903s12.715 12.49 12.979 12.865 2.407 3.573 2.107 3.762-4.59 1.166-4.74 1.204-15.537 4.212-15.537 4.212l-6.131 1.467L41.11 98.3Z"/><path class="cls-5" d="M60.955 98.15c3.114 1.199 11.258 3.834 15.33 4.313s8.264-.48 9.103-2.635 1.077-4.671.718-9.222-.838-12.097-2.036-16.408-3.713-11.26-3.713-11.26a115.962 115.962 0 0 0-4.072 14.014c-.359 1.797-2.994 13.414-2.994 13.414a23.679 23.679 0 0 0-5.27.479l-2.754 4.073ZM47.541 62.46l8.144-5.03 7.666 3.952-.719 3.953s-6.947 5.868-7.306 5.868a12.035 12.035 0 0 1-3.473-1.796c-.36-.479-4.312-6.947-4.312-6.947"/><path class="cls-5" d="M46.343 62.939c-.838-2.036-2.276-7.785-2.156-8.504a27.14 27.14 0 0 1 1.51-3.493 16.555 16.555 0 0 0 3.042.5s4.552 5.029 6.947 5.988a1200.791 1200.791 0 0 0-9.343 5.509"/><path class="cls-6" d="M70.357 69.586c-.42-.18.24-2.216.479-2.695a9.889 9.889 0 0 1 1.437-2.096 2.068 2.068 0 0 1 1.737.18c.659.36.958.66.838 1.736 1.857-1.257 2.875-.419 3.533.12a2.42 2.42 0 0 1 .779 1.976c-.06.48-.66.958-.66 1.258 1.019 1.197.24 2.275.12 2.815-.12.538-4.25.18-4.55.06s-2.874-1.857-2.874-1.857Z"/><path class="cls-7" d="M62.931 65.634a2.906 2.906 0 0 1 1.557-2.335c1.018-.36 1.737-.78 2.455-.24a3.466 3.466 0 0 1 .84 2.515c2.394-1.437 3.352-.72 3.891-.18a1.793 1.793 0 0 1 .48 1.857 3.818 3.818 0 0 1-1.019 1.437c1.856 1.078 2.096 2.395 1.797 3.054s-1.557 1.198-1.857 1.318a63.871 63.871 0 0 1-6.886-1.078c-.18-.12-1.617-3.294-1.617-3.294Z"/><path class="cls-5" d="M55.685 57.43c.24.359 7.426 2.994 9.102 4.911 2.037-6.109 2.635-8.384 2.516-9.223S65.2 51.033 65.2 51.033l-2.567.409a23.42 23.42 0 0 1-2.755 3.233c-.839.599-4.192 2.755-4.192 2.755"/><path d="M70.836 73.838c-.06-.42 1.437-1.078 1.437-1.078.72-1.198.898-1.497 1.138-1.497s2.156-.3 2.336 1.317c2.035-1.616 5.15 1.378 3.592 3.593 2.695 1.198 1.857 3.055 1.737 3.714a4.497 4.497 0 0 1-1.617 2.155c-.539.3-5.509-1.617-5.749-1.617a25.669 25.669 0 0 1-3.832-2.874 16.758 16.758 0 0 1 0-2.455 13.505 13.505 0 0 1 .958-1.258" style="fill:#ef4136"/><path class="cls-7" d="M68.56 83.06c-.898.359-1.916.958-1.976 1.737s-.18 1.856.419 2.335a5.718 5.718 0 0 0 2.036.898c.299 2.216 1.198 2.875 2.276 2.935s2.455.06 2.874-1.498c1.976 1.078 3.114.899 3.713 0a2.883 2.883 0 0 0 .18-3.293c2.096-.718 2.275-2.096 2.156-2.815a2.72 2.72 0 0 0-2.156-1.976c.538-2.156-.12-2.694-.719-3.234a2.047 2.047 0 0 0-3.054.599c-1.437-.359-3.653-.958-3.653-.958a17.537 17.537 0 0 0-2.276 1.258c-.06.179 0 1.976 0 1.976Z"/><path d="M59.997 75.096a6.265 6.265 0 0 1-3.234.957c-1.198-.18-2.096-.418-2.515-1.436a6.984 6.984 0 0 1-.18-2.816c-1.617-.657-2.096-1.137-1.976-2.214a3.153 3.153 0 0 1 2.575-2.636c-.479-2.275-.479-2.934 1.198-3.712s3.413.12 3.233 1.735c2.276-1.796 3.833-1.317 4.372-.718a2.594 2.594 0 0 1 .12 2.755c1.437 1.018 1.317 3.353 1.197 3.713a35.084 35.084 0 0 1-2.215 3.293 26.82 26.82 0 0 1-2.575 1.078" style="fill:#f15a29"/><path class="cls-2" d="M55.087 61.262c-.12-1.198 0-1.318.958-1.437s1.317.48 1.198 1.197a.889.889 0 0 1-.958.84 3.626 3.626 0 0 1-1.198-.6"/><path class="cls-6" d="M65.506 81.084c-.419.899-2.755 2.036-4.072.359s-1.198-2.994-.12-3.593c-1.976-.718-3.114-2.814-1.796-4.551s2.036-.48 2.515-.12c0-3.233.958-3.473 2.275-3.473a2.664 2.664 0 0 1 2.874 1.916c2.576-2.275 3.953-.958 4.492.12s.66 2.994-.898 3.294c2.275.898 2.335 2.336 1.856 3.054a2.308 2.308 0 0 1-2.994.599c1.018 2.515.898 2.934-.24 3.653s-2.934.599-3.293.119a4.966 4.966 0 0 1-.599-1.377"/><path class="cls-10" d="M56.276 70.291a2.689 2.689 0 0 1 1.147-3.003c.873-.437 2.238.273 2.675.546s.273 1.693-.327 2.184a5.997 5.997 0 0 1-2.348 1.038 1.317 1.317 0 0 1-1.037-.219ZM64.848 77.334c-.484-.484-1.092-2.13-.765-2.511a3.812 3.812 0 0 1 2.567-.82 2.346 2.346 0 0 1 1.583 1.202 2.465 2.465 0 0 1-.383 1.856 2.575 2.575 0 0 1-1.473.6 2.215 2.215 0 0 1-1.53-.327M72.437 83.94a2.77 2.77 0 0 1 .025-.158 2.77 2.77 0 0 1 2.595-2.08 2.34 2.34 0 0 1 1.365 1.965c0 .601-.873 2.566-1.474 2.675s-1.856-.054-2.02-.437a2.572 2.572 0 0 1-.49-1.965M72.632 78.09a10.015 10.015 0 0 1 .077-2.066c0-.164.71-.328 1.311-.328s1.201.983 1.31 1.42a1.047 1.047 0 0 1-.437 1.037c-.273.219-.437.873-.873.765a10.002 10.002 0 0 1-1.256-.492ZM71.891 68.98a3.042 3.042 0 0 1 2.13-.054 1.512 1.512 0 0 1 1.036 1.365c0 .273.055.656-.164.71s-2.019.273-2.019.273l-.6-1.53ZM64.848 69.472a.855.855 0 0 1 .273-.928 3.616 3.616 0 0 1 2.402 0 2.27 2.27 0 0 1 .983 1.583 1.14 1.14 0 0 1-.437 1.147 8.38 8.38 0 0 1-.886.348 6.503 6.503 0 0 0-.861-1.276c-.218-.109-.928-.492-.928-.492Z"/><path class="cls-11" d="M41.222 96.006c-.6-.414-1.053-.866-1.016-1.393.04-.526-.075-1.466.49-1.993a4.097 4.097 0 0 1 2.557-.45 2.598 2.598 0 0 1 1.392 1.203c.264.564.528 1.316.678 1.617s.64.451.451 1.204-.075 1.091-.526 1.28a6.737 6.737 0 0 1-1.693.638c-.414 0-.752.264-1.016-.037a7.118 7.118 0 0 1-.828-1.242 7.82 7.82 0 0 0-.489-.827"/><path class="cls-11" d="M39.943 94.087a19.565 19.565 0 0 1-2.257-1.278 2.27 2.27 0 0 1-1.166-1.731 15.802 15.802 0 0 1 1.542-3.611 16.196 16.196 0 0 1 1.73-1.881 2.296 2.296 0 0 1 1.618-.602 3.826 3.826 0 0 1 1.73.978 3.753 3.753 0 0 1 .377 1.88c0 .453-.264 2.446-.34 2.823a10.47 10.47 0 0 1-.413 1.579c-.113.188-.564.94-.79 1.016s-2.031.827-2.031.827M43.216 98.188c0 .263.489 2.971.564 3.31a5.943 5.943 0 0 0 .677 1.543 2.475 2.475 0 0 0 1.166.225 35.998 35.998 0 0 0 3.95-.715c.376-.188 1.204-.037 1.392-.94a4.437 4.437 0 0 0-.075-2.332c-.188-.226-1.166-1.204-1.354-1.392a4.894 4.894 0 0 0-1.167-.828 423.38 423.38 0 0 0-2.558-.978 6.51 6.51 0 0 1-.827 1.016c-.263.188-1.768 1.091-1.768 1.091"/><path class="cls-11" d="M40.658 95.856c-.113.075-.941 2.408-1.166 2.972a32.963 32.963 0 0 1-1.656 3.46 14.052 14.052 0 0 0-1.316 1.618c-.075.264.452.565.79.64s2.82.827 2.82.827a9.572 9.572 0 0 1 .98 1.054c.112.225.375 1.24.526.789s1.354-4.59 1.467-5.191a18.464 18.464 0 0 0 .338-3.573 19.604 19.604 0 0 0-.64-2.257c-.112-.34-.638-1.581-.826-1.581a5.147 5.147 0 0 0-1.016.489ZM40.169 95.592a16.916 16.916 0 0 0-2.934.49 20.806 20.806 0 0 0-2.22 1.202c-.564.301-1.58 1.054-1.88 1.242s-1.242.49-1.618.714c-.376.227-.827.753-.79.452s.338-1.392.075-1.88a5.705 5.705 0 0 0-.902-1.167 5.784 5.784 0 0 1-1.016-1.354c-.151-.414.94-.602.94-.602l2.445-1.053s1.882-.3 2.295-.3 2.257.074 2.558.112 1.919.225 2.069.301.903-.038 1.053.113.678.601.678.865-.753.865-.753.865"/><path class="cls-12" d="M52.298 70.045c-.41 0-1.9-.103-2.106.308s.102 1.388.462 1.439.976.976.976.976-.205.77.103.874a4.384 4.384 0 0 0 1.336.256c.514 0 1.336.925 1.233-.051a11.964 11.964 0 0 0-.234-2.045c-.126-.216-1.204-.37-1.307-.524s-.463-1.233-.463-1.233M57.23 75.85a1.984 1.984 0 0 0-.41.463c-.103.206.256.925.462 1.027a3.294 3.294 0 0 1 .617.668l-.411 1.233s-.155.566.154.617a7.116 7.116 0 0 0 1.284-.103l.77 1.233c.669.257 1.388.41 1.337.205s-.72-1.797-.565-2.26a8.469 8.469 0 0 1 .668-1.284s-1.182-.154-1.234-.411-.667-.72-.72-1.028a2.927 2.927 0 0 0-.513-.873ZM63.652 82.323c-.205.155-.977 1.492-.77 1.492a9.118 9.118 0 0 1 1.386.615l.31.72a12.406 12.406 0 0 0-.258 1.232c0 .206.205.155.514.155a9.649 9.649 0 0 1 1.13.36c.308.051 1.541.153 1.233-.104a2.36 2.36 0 0 1-.668-1.54 3.667 3.667 0 0 1 .514-1.388c.154-.153 1.182-1.027.976-1.027a3.566 3.566 0 0 1-1.387-.412 9.09 9.09 0 0 1-.668-.924l-.617-.309s-.462.617-.667.668a10.956 10.956 0 0 0-1.028.462M68.071 87.77c-.154.103-.72.514-.617.719a6.458 6.458 0 0 1 .257.823v1.438c0 .206.103.257.308.411s1.593.719 1.593.925.36.155.617.103 1.482-.935 1.284-1.079-.668-.052-.925-.411-.925-.873-.976-1.131c-.052-.256-.41-1.335-.41-1.335l-.669-.258Z"/><path class="cls-13" d="M5.098 30.75c-.75-.137-2.655-1.09-2.791-1.838s-.34-1.566 0-1.974 1.566-.409 1.566-.409l.817 1.43a9.305 9.305 0 0 1 1.02 1.701 3.85 3.85 0 0 1-.612 1.089M36.61 13.734a3.17 3.17 0 0 1 1.702 1.089c.272.476-.272 2.927-.272 2.927s-1.075-.346-1.158-.545a8.521 8.521 0 0 1-.34-2.45Z"/><path class="cls-14" d="M30.273 42.027c-.22 0-6.916-1.208-7.63-2.47.33-.713.659-.549.33-.713s-4.995-.44-6.148-.769a23.501 23.501 0 0 1-3.952-1.81c-1.372.657-3.787.657-4.666-.11a7.456 7.456 0 0 1-2.47-3.843c-.274-1.592-.603-2.635.385-2.855s.493-5.269.603-5.653 2.47-6.148 2.635-6.477 6.368-7.026 6.972-7.41 6.97-1.098 7.41-.824 3.952 2.91 3.952 2.91 5.433 3.896 5.708 3.896a29.094 29.094 0 0 1 2.8 1.153c1.262.275 1.92 2.416 1.975 3.13a3.307 3.307 0 0 1-.548 2.085 23.216 23.216 0 0 0-1.812 4.007c-.054.44-.658.55-.823.603a11.628 11.628 0 0 0-.55 1.921c-.11.275-.767 2.745-.767 2.745l-.88 4.281s-.657 2.415-.767 2.8-.933 2.14-.933 2.14Z"/><path class="cls-14" d="M39.605 41.971c-.549 0-2.36.769-3.403-.054a9.405 9.405 0 0 1-2.909-3.953c-.33-1.316-.057-5.871.383-6.42a5.635 5.635 0 0 1 1.922-1.21.862.862 0 0 1 .878.11l2.58 2.69s2.47-3.567 2.744-4.006a8.293 8.293 0 0 1-1.097-4.391 23.617 23.617 0 0 1 1.591-6.148c.88-1.701 4.556-3.513 6.258-4.61a20.446 20.446 0 0 1 7.52-2.086c1.482 0 6.367 1.646 7.19 2.03s6.093 3.733 6.642 4.5a8.732 8.732 0 0 1 1.097 3.24 12.004 12.004 0 0 1 .22 3.239c-.164 1.152-.988 3.128-.823 3.787a8.518 8.518 0 0 1 2.8 4.007c2.25-2.69 2.907-2.47 3.951-2.251s2.251 2.47 2.251 3.458-.166 3.788-.769 4.83-1.537 2.855-2.14 3.02-2.69.658-3.624-.11c-.603 2.964-1.098 6.477-2.854 7.41s-5.27 2.69-7.246 2.525c-1.866 1.482-6.477 5.653-7.025 5.763-.934-.22-6.587-5.05-7.08-5.818-1.922-.22-5.654-1.153-6.533-2.361a17.136 17.136 0 0 1-2.36-4.884c-.11-.934-.164-2.306-.164-2.306M31.975 59.317c-.385-.824-.768-1.921-.165-2.47a1.567 1.567 0 0 1 1.427-.33c.494-1.756 1.098-1.646 2.086-1.481a2.09 2.09 0 0 1 2.251-1.427c1.262-1.482 1.811-.934 2.36-.88a5.21 5.21 0 0 1 2.415 2.636c.219.933.439 1.647-.164 1.976s-1.812.604-2.196-.055c-.604 1.866-1.483 2.196-2.306 1.427a1.504 1.504 0 0 1-2.689.384c-.44 1.757-2.196.879-2.36.769s-.659-.55-.659-.55M70.452 58.273a2.448 2.448 0 0 1-1.537-2.086c0-.933-.055-2.14.44-2.69a1.928 1.928 0 0 1 1.92-.329c.494.165.99.768.934.933s1.482-1.537 2.25 1.208c1.592-.495 2.031-.055 2.14 1.317 2.141.11 2.416 1.372 2.251 2.086s.164 1.043-.933 1.592-1.92.384-2.086-.33c-1.098.988-2.085-.164-2.25-.823-1.208.66-2.25-.604-2.36-1.153-.22.33-.769.275-.769.275M53.765 96.366c-.4-1.004-1.152-1.647-.768-2.854s.33-2.086 1.646-1.482c.165-2.525 1.043-2.525 1.866-2.25 1.098-2.361 2.196-1.483 2.69-1.043 1.702-1.702 2.196-1.098 2.635-.385s1.592 2.855 2.415 3.238c1.921-.548 3.732-1.152 3.732-1.152.66.933.605 1.207.605 1.427a3.567 3.567 0 0 1-1.538 2.854 16.42 16.42 0 0 1-4.665 2.909 8.209 8.209 0 0 1-4.995.879 9.412 9.412 0 0 1-3.623-2.141"/><path class="cls-15" d="M47.317 40.43a2.11 2.11 0 1 1-2.1-1.907 2.01 2.01 0 0 1 2.1 1.906M18.794 33.516a1.92 1.92 0 1 1-1.912-1.736 1.83 1.83 0 0 1 1.912 1.736M32.585 27.373a1.92 1.92 0 1 1-1.912-1.736 1.83 1.83 0 0 1 1.912 1.736M68.893 40a2.11 2.11 0 1 1-2.1-1.907 2.01 2.01 0 0 1 2.1 1.907"/><path class="cls-16" d="M8.783 29.174a14.105 14.105 0 0 0-3.02.447 30.678 30.678 0 0 1-3.522-6.598 21.579 21.579 0 0 1-.391-10.455 16.244 16.244 0 0 1 4.809-8.052 11.88 11.88 0 0 1 9.393-1.901C18.568.155 23.432.099 25.949.882a15.356 15.356 0 0 1 7.492 5.982 32.224 32.224 0 0 1 2.908 6.486c.11.504-.24 3.547-.147 3.703-1.028-.236-2.538 1.498-2.761 2.392-.95-.391-3.3-3.746-4.138-4.193s-3.858-1.175-4.92-1.846a41.424 41.424 0 0 1-3.58-2.46 12.713 12.713 0 0 1-1.955 5.48 16.567 16.567 0 0 1-3.914 3.522 26.298 26.298 0 0 1-3.802 5.424c-.336-2.852-.671-3.243-.671-3.243a21.948 21.948 0 0 0-1.231 2.348c-.055.336-.447 1.789-.447 2.125s.28 1.118.168 1.454a6.628 6.628 0 0 0-.168 1.118M2.633 29.23c1.174.895 2.237 1.733 2.684 1.51.503 1.733 1.342 3.746 1.789 4.081a34.407 34.407 0 0 0 2.908 2.013c.67 2.404.782 2.405.782 3.858s-.28 2.46.056 3.355a15.537 15.537 0 0 0 1.174 3.02 11.296 11.296 0 0 0 1.622 2.18 25.347 25.347 0 0 1-4.361-1.398 12.018 12.018 0 0 1-.28 3.187c-1.342-2.46-3.187-3.075-3.69-3.858s-3.354-4.473-4.026-6.989-1.343-5.424-.783-7.213a21.137 21.137 0 0 1 1.454-3.411ZM37.69 17.935a5.966 5.966 0 0 0 .95-2.628.729.729 0 0 1 .448-.67s2.404-.28 2.963.223a9.364 9.364 0 0 1 1.678 1.733c.112.336-.951 1.342-1.119 1.622s-1.062 1.565-1.062 1.565-2.963.951-3.131 1.286a9.883 9.883 0 0 0-.727-3.13"/><path class="cls-17" d="M41.603 19.556c-.336.056-3.07 1.204-3.522 1.957a18.11 18.11 0 0 0-2.013 4.138 40.641 40.641 0 0 0-.224 4.584c1.845 1.23 2.907 2.516 3.019 3.131 2.293-3.578 3.02-4.473 3.02-4.473a16.25 16.25 0 0 1-.951-6.318c.112-.559.67-3.019.67-3.019M70.734 19.724c1.79-.168 2.46.391 2.908.95a12.409 12.409 0 0 1 2.236 3.97 19.864 19.864 0 0 1 .727 4.026c0 .727.056 1.342-.112 1.454a9.846 9.846 0 0 0-2.795 1.957c-.615.894-.615 1.342-.615.894a21.022 21.022 0 0 0-1.622-3.578c-.167-.224-.95-.336-.782-.839s.503-3.243.503-3.243a33.51 33.51 0 0 1-.18-3.653 8.44 8.44 0 0 0-.268-1.938M45.237 28.726c-.336 0-.559-.783-.056-1.398a4.295 4.295 0 0 1 2.628-1.118 3.833 3.833 0 0 1 1.453.783c-1.788 1.342-2.795 2.068-3.018 2.516s-.616 1.453-.728.894a2.955 2.955 0 0 1 .057-1.174l-.25-.373ZM63.13 26.993a4.986 4.986 0 0 1 2.516-.783 4.758 4.758 0 0 1 1.733.95c.224.336.839 1.175.503 1.455s-.614.055-.614.447.223 1.062-.113 1.118-1.062-1.062-1.174-1.342a7.32 7.32 0 0 0-1.733-1.286c-.168-.056-1.118-.56-1.118-.56"/><path class="cls-2" d="M3.873 26.53C2.468 20.833 3 11.028 7.405 7.344s6.598-4.946 8.785-4.76c-3.925-.175-5.812-.624-8.24.994a14.191 14.191 0 0 0-6.021 8.987c-.63 4.044-.63 6.83.09 9.347a25.923 25.923 0 0 0 1.854 4.618M22.78.162c-1.797.18-5.451.08-6.59 2.421a19.138 19.138 0 0 0 6.585-.632 11.136 11.136 0 0 1 5.397-.44A27.479 27.479 0 0 0 22.78.161M2.289 29.37a9.64 9.64 0 0 0-1.707 7.64 19.473 19.473 0 0 0 5.302 10.156c-2.337-4.045-3.87-8.367-3.601-11.782s.35-6.154.35-6.154M21.79 41.141c-.716 1.083-2.611 2.511-3.6 5.297s-3.407 10.075-3.677 14.84-1.078 8.896-.72 10.873.54 3.056 1.169 3.954c-1.797-2.606-3.056-4.313-2.696-7.279s.899-10.246 1.259-12.852a58.637 58.637 0 0 1 1.707-8.628 11.55 11.55 0 0 1 2.157-3.684c.54-.54 2.275-1.866 2.845-2.28a2.396 2.396 0 0 1 1.557-.24M19.995 78.981s1.88-.413 1.7.215c-.179.63-2.067 8.404-2.157 9.032-.09.63-.442 2.526-.442 2.526a45.731 45.731 0 0 1-.539 5.482c-.449 2.607-1.528 7.46-1.707 7.73s-1.136 1.753-1.287 1.371 2.275-15.09 2.275-15.09a1.427 1.427 0 0 1-.539-1.2c.09-.719 1.797-7.909 1.797-7.909ZM19.726 65.41c1.258-.179 2.785.09 4.224-1.079a52.374 52.374 0 0 1 7.01-3.774.58.58 0 0 0-.899-.539c-.36.269-7.099 3.415-7.459 3.685s-2.876 1.707-2.876 1.707M31.05 62.085a32.541 32.541 0 0 0-2.517 8.718c-.179 2.517-.809 12.851-.719 17.795s.09 11.503.09 13.031.27 5.662.27 5.842a110.91 110.91 0 0 1 1.078-20.312c.09-1.797.397-9.984.667-13.49a30.979 30.979 0 0 1 1.617-7.279c.809-2.157.143-3.586.323-3.855a11.351 11.351 0 0 0 .269-1.708 8.24 8.24 0 0 1 .505-.961s-.505-1.286-.774-1.016a16.148 16.148 0 0 0-1.079 2.247ZM36.45 29.86c.1-1.216.268-6.135 4.927-7.958a6.755 6.755 0 0 1 .136-1.766c.035-.356-.405-.405-.405-.405s-2.04.34-2.69 1.335a28 28 0 0 0-2.273 5.452c0 .506-.203 3.14-.203 3.14Z"/><path class="cls-2" d="M41.311 21.15c1.114-1.621 9.218-10.028 20.055-8.306a17.828 17.828 0 0 0-9.116-.405c-1.013.405-7.495 3.444-7.9 4.052a33.78 33.78 0 0 1-2.533 2.633l-.506 2.026"/><path class="cls-18" d="M48.952 34.132a1.244 1.244 0 1 1-1.234-1.406 1.328 1.328 0 0 1 1.234 1.406M17.129 28.218a1.033 1.033 0 1 1-1.477-.479 1.102 1.102 0 0 1 1.477.48M29.585 22.41a1.033 1.033 0 1 1-1.477-.48 1.102 1.102 0 0 1 1.477.48"/><path class="cls-19" d="M56.433 53.874a14.23 14.23 0 0 0 6.25-2.483 15.607 15.607 0 0 0 5.053-1.028c2.74-.942 4.794-4.452 4.88-8.562 2.825.428 4.367.856 6.25-3.767s-.342-7.45-2.482-7.792c.513-7.621-2.911-10.19-5.91-10.789-1.968-4.025-10.445-7.364-13.7-7.364h-1.368c-3.253 0-11.731 3.339-13.7 7.364-2.997.599-6.422 3.168-5.908 10.789-2.141.342-4.367 3.168-2.483 7.792s3.425 4.195 6.25 3.767c.086 4.11 2.14 7.62 4.88 8.562a15.604 15.604 0 0 0 5.052 1.028 14.229 14.229 0 0 0 6.252 2.483ZM65.559 51.212c1.079.9 1.662 1.717 1.662 2.23a2.642 2.642 0 0 0 1.627.6c1.37-1.713 2.484-1.285 2.998-.086 1.883-.856 2.482.257 2.568 1.456 2.227-.6 2.227.256 2.227 1.198 2.225.771 2.225 1.456 1.969 3.34 1.883 1.798 2.055 2.312 2.055 2.312a3.155 3.155 0 0 1-.343.856c1.627 2.826 4.11 10.79 4.795 18.24s1.54 15.154.256 17.724a5.97 5.97 0 0 1-4.537 3.253 40.607 40.607 0 0 1-5.481.086c.343 1.798.603 4.337.603 4.337M45.697 50.942a7.168 7.168 0 0 0-1.425 2.501 16.81 16.81 0 0 0-2.397 1.2c-1.541-2.142-2.825-2.57-4.281-1.029-1.627 0-1.97.6-2.055 1.284a1.875 1.875 0 0 0-2.398 1.542c-1.284-.257-2.141 1.113-1.284 2.568a6.745 6.745 0 0 0-1.113 2.4l.513.512a23.907 23.907 0 0 0-2.825 8.648c-.685 4.881-1.132 31.415-.293 37.523"/><path class="cls-19" d="M32.542 33.837a12.518 12.518 0 0 1-4.622 3.767c-2.74 1.456-9.505.6-10.96.257s-2.398-.343-3.939-1.969c-.343 0-1.713 1.198-3.425.685.684.6 1.456 2.74 1.2 5.566-.258 2.825.77 4.281 2.824 7.363a10.454 10.454 0 0 1-4.623-2.226 30.124 30.124 0 0 1-.085 3.682c-.087-.6-.173-1.199-1.713-2.398a20.402 20.402 0 0 1-6.08-9.333c-1.455-4.71-.427-8.477 1.456-10.018-.514-1.113-.856-2.398 1.199-2.484C2.49 24.246-.252 16.197 3.26 9.176s8.563-7.02 12.93-6.593c2.778-3.082 9.673-2.569 12.927-.257s7.021 8.734 7.193 11.217c1.37.257 1.97.428 2.14 1.456 1.798-1.113 4.795 0 5.395 1.798"/><path class="cls-19" d="M22.782 38.375a12.713 12.713 0 0 1-.942 2.312c-1.198.77-3.768 2.055-5.138 4.11s-2.91 8.39-3.168 11.56c-.256 3.168-1.713 13.272-.428 16.354s3.339 5.652 6.85 5.052c-.942 4.88-2.312 10.19-2.57 11.132s.173 1.284.43 1.455c-.514 2.912-2.167 13.96-2.253 14.987"/><path class="cls-20" d="M41.706 19.453c-.601 2.055-1.628 6.165-.001 9.247a21.953 21.953 0 0 0-2.654 4.88c-1.285-2.054-2.396-3.423-3.253-3.338M70.475 19.453c.855 3.082 1.37 6.336.085 9.076 1.284 1.54 2.226 2.226 2.482 4.538 1.713-2.055 2.912-2.911 3.683-2.74M49.31 27.117c-1.309.654-3.27 1.67-3.562 3.343-.509.073-.363-1.526-.363-1.526-.8.363-.582-1.381.218-1.962a2.56 2.56 0 0 1 3.706.145Z"/><path class="cls-18" d="M63.693 34.132a1.244 1.244 0 1 0 1.233-1.406 1.328 1.328 0 0 0-1.233 1.406"/><path class="cls-20" d="M63.335 27.117c1.308.654 3.27 1.67 3.561 3.343.51.073.363-1.526.363-1.526.8.363.582-1.381-.218-1.962a2.56 2.56 0 0 0-3.706.145ZM55.268 35.62c1.09-1.09 1.599-.581 1.89 0s-.727 2.18-1.018 2.18M49.6 42.596c1.018 4.36 9.447 6.686 11.918-.073M49.19 39.877c-.8.727-2.69 2.762-2.544 2.98s.29.581.653.727M61.882 39.689a13.717 13.717 0 0 1 2.253 1.599c.218.291-.291 1.381-.436 1.526M39.05 33.58a25.327 25.327 0 0 0 .593 7.926M73.043 33.067a51.54 51.54 0 0 1-.478 8.512M48.728 51.462c.58 1.381 6.25 5.814 6.686 5.96-1.89 1.38-8.503 5.232-9.011 5.813-1.018-3.198-2.442-7.375-2.13-9.792M62.39 51.898c-1.017 1.962-5.958 4.869-6.613 5.378 4.869 2.253 7.704 3.779 8.867 4.869a23.656 23.656 0 0 0 2.577-8.702M33.888 31.14c1.856-4.97-.18-9.88-.72-11.916M13.021 35.892c-1.29-2.236-3.506-5.41-4.045-6.787M8.976 29.404c-1.916-.719-3.773-.18-3.294 2.216s1.36 3.986 3.914 4.957"/><path class="cls-20" d="M8.616 29.284c.06-.898.54-1.138.24-2.515s1.077-4.312 1.437-5.09c.36 1.736.778 2.754.54 4.012a17.384 17.384 0 0 0 5.15-12.037"/><path class="cls-20" d="M14.844 20.182c1.198-.898 5.39-3.713 5.81-9.282 3.233 2.515 4.61 3.294 7.125 3.773s4.192 4.19 4.791 4.37M33.468 19.403c.66-2.276 1.856-2.695 3.234-2.335s1.856 2.754 1.437 4.251M36.31 13.544a11.864 11.864 0 0 1 .033 3.105M38.45 15c-.011 1.11.049 1.828-.61 2.546M3.774 26.73a13.323 13.323 0 0 0 1.848 2.854M2.575 29.213a4.154 4.154 0 0 0 2.928 1.568M11.79 23.176c.718-1.677 2.695-3.114 4.072-2.276"/><path class="cls-20" d="M24.067 17.906c.479-1.916 2.815-2.575 3.773-.898M23.707 28.506a.69.69 0 0 0 .48-1.078M20.773 33.117c1.557 1.138 4.731 1.258 5.809.539a4.47 4.47 0 0 0 1.437-4.132M22.69 39.225c1.017 1.318 5.39 2.815 7.485 2.515-.659 1.797-1.857 4.132-3.833 4.252M32.45 36.59c-.06 1.437-1.796 4.551-2.036 5.03 2.455 1.677 4.431 1.557 5.39.958"/><path class="cls-20" d="M22.09 40.842a9.804 9.804 0 0 0 6.168 6.049c3.593 1.257 5.57 1.317 6.168.897s1.797-4.431 1.617-5.868M23.767 51.92c.599 1.676 1.078 8.324.838 10.78"/><path class="cls-20" d="M19.755 65.454c2.096-1.497 9.162-4.97 11.318-5.39M41.875 54.642c.636 1.53.576 2.13-.023 2.728a1.357 1.357 0 0 1-1.976-.24"/><path class="cls-20" d="M37.66 53.837c1.437.958 2.953 3.862 1.737 4.85-.959.779-1.497.36-1.737 0M35.504 55.154c1.198 1.437 2.515 3.593 1.677 4.252a1.738 1.738 0 0 1-2.216-.24M33.141 56.44c1.225 1.349 2.243 3.744 1.165 3.804a2.452 2.452 0 0 1-2.449-1.235M19.956 77.763c2.913-.93 5.667-1.53 7.883-3.506M17.816 90.35a28.454 28.454 0 0 0 9.844.974M69.04 54.196c-.24 1.078-.359 3.054.599 3.713s1.437.539 1.796-.54a5.826 5.826 0 0 0 .411-3.413M71.255 57.968a1.96 1.96 0 0 0 1.796 1.377c.54-.058 1.527-3.435 1.362-3.933M73.471 59.286a1.746 1.746 0 0 0 1.737 1.138c.419-.06 1.547-3.076 1.432-3.814M75.806 59.945c.18.539.779.958 1.259.719s1.136-.36 1.436-1.318M47.658 62.645a34.783 34.783 0 0 0 4.46 6.581M63.551 61.585c-.279.67-.335 1.785-.78 2.064M55.186 61.14c0-.892.39-1.059.836-1.059s.95.167.95.836a.863.863 0 0 1-.893.948c-.447 0-.893-.056-.893-.725ZM80.322 63.118a20.215 20.215 0 0 0-1.323 4.323"/><path class="cls-20" d="M64.666 69.56c.28-.502.167-2.342-1.227-2.342 1.896-4.071-2.732-4.35-4.349-2.063.167-1.897-.949-2.454-2.622-2.176-1.673.28-2.509 1.116-1.84 3.848-3.178.614-3.29 4.796-.502 5.075-1.059 2.9 1.505 5.41 4.852 3.458"/><path class="cls-20" d="M63.551 64.15c1.784-2.062 4.963-1.616 4.294 1.507 2.342-2.008 3.96-.39 4.238.39a2.33 2.33 0 0 1-.948 2.677c2.175.502 2.512 3.96.783 4.127"/><path class="cls-20" d="M73.144 71.4c1.784-.558 2.343.056 2.51 1.227 2.453-1.952 5.803 2.007 3.572 3.903 2.788.502 2.454 5.41 0 5.41M61.935 73.073a2.532 2.532 0 0 1 1.673-3.402c.725-.279 3.29-.056 3.57 1.896 2.007-1.56 3.73-.815 4.238-.167.614.78.725 3.568-.669 3.681 1.896-.335 2.341 1.673 1.84 2.732a2.195 2.195 0 0 1-2.733 1.171c.948 2.008.223 3.123-1.06 3.625s-3.178-.11-3.178-1.617c-.893 1.896-3.097 1.358-3.904.725-1.282-1.004-1.673-3.067-.279-3.848-2.23-.056-2.844-2.343-2.398-3.737s2.454-1.95 2.9-1.059Z"/><path class="cls-20" d="M72.645 78.426a3.236 3.236 0 0 1 1.561.335c.95-1.004 1.841-1.45 2.956-.78A2.269 2.269 0 0 1 78 81.381c1.617.39 2.453 1.06 2.063 2.9a2.311 2.311 0 0 1-2.119 1.896 2.404 2.404 0 0 1-.558 3.513c-.836.558-2.677.39-3.179-.39-.11 1.394-2.119 2.063-3.346 1.505a2.436 2.436 0 0 1-1.673-2.788 2.477 2.477 0 0 1-2.62-2.9 2.331 2.331 0 0 1 2.118-2.23M51.956 70.005c-.725 0-2.175-.056-1.896.892s.557.725 1.06 1.171.278.502.39 1.227 1.784.948 2.286.725M56.975 76.084c-.168.893-.056.725.558 1.283s.055.669-.168 1.505.335 1.228 1.227 1.06.391.502.893 1.004a2.021 2.021 0 0 0 1.784.446"/><path class="cls-20" d="M63.388 82.497c-.613.836-1.004 1.617-.167 1.673s1.283.112 1.227.669-.502 2.008.334 1.729.781.335 1.283.446a1.69 1.69 0 0 0 .836 0M67.962 87.795c-.447.725-.782.948-.168 1.84s-.502 1.227.67 1.673 1.394 1.338 1.95.837c.56-.502 1.005-.837.894-1.06M71.754 65.377a1.886 1.886 0 0 1 3.235 1.505c2.342-2.23 5.186.726 3.457 3.236 1.004.724.502 2.397.335 2.565M65.062 74.132c1.433-.76 3.011-.056 3.123 1.17s-.223 2.12-1.506 2.343-2.175-.167-2.453-1.171a1.804 1.804 0 0 1 .836-2.342ZM74.878 81.883c1.177.107 1.674 1.784 1.227 2.9s-1.394 1.896-2.342 1.394a2.148 2.148 0 0 1-1.115-2.621 2.241 2.241 0 0 1 2.23-1.673ZM72.703 76.027c1.227-.892 3.29.056 2.566 1.841M72.145 68.945c1.45-.948 3.458.502 2.677 2.12M65.062 68.722a1.938 1.938 0 0 1 3.123 2.065M56.419 70.396a2.199 2.199 0 0 1 .892-2.956c1.06-.67 2.454-.613 2.733.39a2.015 2.015 0 0 1-1.004 2.677c-1.283.67-2.343.67-2.621-.111Z"/><path class="cls-20" d="M65.954 93.037c-.948-.223-3.012-2.398-3.569-3.737s-1.952-2.286-3.067-.278c-.39-1.06-2.119-1.283-2.677.724-.836-.669-2.23-.167-1.95 2.454-.169-.334-.615-.613-1.508.223s-.039 3.447 1.507 4.852c.613.557 3.066 1.952 7.026.502s6.302-3.179 6.915-6.246"/><path class="cls-20" d="M64.002 91.42a31.537 31.537 0 0 0 3.681-1.059M60.935 98.223c3.848 1.45 11.154 3.737 14.555 4.016M73.262 90.75c3.067.279 4.852.446 5.187.67M51.625 73.741c-.502 1.282-7.864 17.176-8.533 18.18M46.048 96.16c2.008-.335 6.246-1.505 6.525-1.45M59.318 89.022a5.58 5.58 0 0 0 .727 3.067 40.61 40.61 0 0 0 1.506 2.23M56.641 89.746a8.334 8.334 0 0 0 .894 3.682 13.169 13.169 0 0 0 1.06 1.671M54.69 92.2a10.46 10.46 0 0 0 1.396 3.346"/><path class="cls-20" d="M40.248 95.155a2.313 2.313 0 0 1 1.115-2.844 1.81 1.81 0 0 1 2.789.669c.78 1.17 1.952 2.789 1.338 3.792A2.502 2.502 0 0 1 42.813 98a2.036 2.036 0 0 1-1.227-1.562c-.111-.67-1.06-.503-1.338-1.283Z"/><path class="cls-20" d="M43.093 98.222c.223 2.063.613 4.852 1.895 5.074 1.284.224 6.19-.558 6.19-2.453s-2.23-4.183-5.297-4.629M39.803 94.095c-1.227-1.06-3.681-1.505-2.844-4.071s2.956-5.186 4.46-4.796 2.288 1.004 2.176 2.9a20.601 20.601 0 0 1-.39 3.513M40.694 95.935c-1.171 3.234-2.565 7.027-4.238 8.253 2.565.502 4.406 1.06 5.186 2.9a17.77 17.77 0 0 0 1.506-8.198"/><path class="cls-20" d="M38.965 93.648c-3.513-.5-7.361-.78-10.038 1.673 1.562 1.84 2.453 2.9 2.063 4.518 4.127-3.124 7.807-4.742 9.202-4.072"/><path class="cls-20" d="M30.993 98.443a7.272 7.272 0 0 0-1.898 1.34c1.059 2.62 5.356 6.635 7.196 7.248a7.436 7.436 0 0 0 1.67-2.452M31.292 61.622c1.757 2.555 5.83 22.596 5.75 27.627M35.264 26.723a3.507 3.507 0 0 0 .87-1.452M39.037 104.858a36.938 36.938 0 0 1 0 3.952"/></g></g></svg>