<svg xmlns="http://www.w3.org/2000/svg" viewBox="0 0 73.487 53.008"><defs><style>.cls-1{fill:none;stroke:#6d6e71;stroke-width:1.417px}.cls-2{fill:#fd0}</style></defs><g id="Layer_2" data-name="Layer 2"><g id="Layer_1-2" data-name="Layer 1"><path class="cls-1" d="M23.244 51.307V1.701h-8.008c-1.063 7.582-7.512 9.992-14.527 9.85v7.583H13.18v32.173ZM62.716 26.291c0 5.598 0 17.717-8.22 17.717-8.08 0-8.08-12.119-8.08-17.717 0-5.173 0-17.29 8.08-17.29 8.22 0 8.22 12.118 8.22 17.29Zm10.063 0C72.779 6.945 64.417.71 54.496.71c-9.78 0-18.142 6.237-18.142 25.582 0 19.772 8.362 26.008 18.142 26.008 9.92.001 18.283-6.236 18.283-26.008Z"/><path class="cls-2" d="M23.244 1.7v49.607H13.18V19.133H.707v-7.582q13.11.284 14.528-9.85ZM36.354 26.291q0-13.535 5.386-20.055Q46.345.71 54.495.708q8.22 0 12.898 5.528 5.385 6.449 5.385 20.055 0 26.008-18.283 26.008-18.142 0-18.141-26.008Zm10.063 0a45.811 45.811 0 0 0 .992 10.985q1.842 6.732 7.086 6.732 5.316 0 7.229-6.732a45.864 45.864 0 0 0 .992-10.985q0-17.29-8.22-17.291-8.08 0-8.08 17.291Z"/></g></g></svg>