<svg xmlns="http://www.w3.org/2000/svg" viewBox="0 0 72.07 50.599"><defs><style>.cls-1{fill:#f37021}</style></defs><g id="Layer_2" data-name="Layer 2"><g id="Layer_1-2" data-name="Layer 1"><path class="cls-1" d="M22.535.992V50.6H12.473V18.425H0v-7.582q13.109.284 14.527-9.85ZM46.417 20.055h-9.638q-.284-8.786 4.5-14.42Q46.062 0 54.78 0a17.717 17.717 0 0 1 11.906 4.11 14.352 14.352 0 0 1 5.102 11.41 15.872 15.872 0 0 1-4.393 11.268q-2.198 2.338-9.638 7.157-6.522 4.323-9.142 8.008H72.07V50.6H35.646a20.532 20.532 0 0 1 4.606-13.252q2.905-3.402 11.055-8.93 5.81-3.967 6.874-4.89a9.682 9.682 0 0 0 3.544-7.228 7.526 7.526 0 0 0-2.091-5.563 7.25 7.25 0 0 0-5.35-2.09 6.626 6.626 0 0 0-6.166 3.756 15.55 15.55 0 0 0-1.701 7.653Z"/></g></g></svg>