<svg xmlns="http://www.w3.org/2000/svg" viewBox="0 0 72.07 51.591"><defs><style>.cls-1{fill:#ed1c24}</style></defs><g id="Layer_2" data-name="Layer 2"><g id="Layer_1-2" data-name="Layer 1"><path class="cls-1" d="M22.535.992V50.6H12.473V18.426H0v-7.583q13.109.284 14.527-9.85ZM71.22 13.748h-9.567a8.111 8.111 0 0 0-2.302-4.394 6.003 6.003 0 0 0-4.359-1.771q-4.82 0-7.37 5.457a25.855 25.855 0 0 0-2.126 9.638l.142.141q3.896-5.528 11.196-5.527a14.621 14.621 0 0 1 11.41 5.102 16.064 16.064 0 0 1 3.826 11.055 18.244 18.244 0 0 1-4.854 12.933 16.326 16.326 0 0 1-12.508 5.209q-10.348 0-15.165-8.15-3.898-6.52-3.898-17.504 0-10.417 4.465-17.503A16.698 16.698 0 0 1 55.134 0a16.37 16.37 0 0 1 10.878 3.65 15.204 15.204 0 0 1 5.208 10.098ZM54.425 24.874a7.092 7.092 0 0 0-5.917 2.657 10.275 10.275 0 0 0-2.091 6.556 9.696 9.696 0 0 0 2.126 6.307 7.119 7.119 0 0 0 5.882 2.906 6.79 6.79 0 0 0 5.598-2.835 10.04 10.04 0 0 0 1.985-6.236 10.945 10.945 0 0 0-1.843-6.45 6.636 6.636 0 0 0-5.74-2.905Z"/></g></g></svg>