<svg xmlns="http://www.w3.org/2000/svg" viewBox="0 0 72.07 51.591"><defs><style>.cls-1{fill:#ed1c24}</style></defs><g id="Layer_2" data-name="Layer 2"><g id="Layer_1-2" data-name="Layer 1"><path class="cls-1" d="M22.535.992V50.6H12.473V18.426H0v-7.583q13.109.284 14.527-9.85ZM36.496 37.843h9.566a8.093 8.093 0 0 0 2.304 4.393 5.996 5.996 0 0 0 4.359 1.772q4.817 0 7.369-5.456a25.89 25.89 0 0 0 2.126-9.638l-.142-.143Q58.18 34.3 50.882 34.3a14.616 14.616 0 0 1-11.41-5.103 16.055 16.055 0 0 1-3.827-11.055A18.242 18.242 0 0 1 40.5 5.209 16.325 16.325 0 0 1 53.008 0q10.346 0 15.165 8.15 3.896 6.521 3.897 17.503 0 10.418-4.464 17.504a16.698 16.698 0 0 1-15.024 8.434 16.365 16.365 0 0 1-10.878-3.65 15.195 15.195 0 0 1-5.208-10.098Zm16.795-11.126a7.276 7.276 0 0 0 6.024-2.764 10.195 10.195 0 0 0 1.984-6.45 9.7 9.7 0 0 0-2.126-6.306 7.124 7.124 0 0 0-5.882-2.905 6.594 6.594 0 0 0-5.492 2.728 10.14 10.14 0 0 0-2.091 6.343 10.934 10.934 0 0 0 1.843 6.449 6.746 6.746 0 0 0 5.74 2.905Z"/></g></g></svg>