<svg xmlns="http://www.w3.org/2000/svg" viewBox="0 0 37.846 52.015"><g data-name="Layer 2"><g data-name="Layer 1"><path d="M37.138 51.306v-8.645H13.68c3.614-5.103 9.426-7.938 14.315-11.41s8.859-7.583 8.859-15.024C36.855 6.52 28.918.708 19.847.708c-11.906 0-18.355 8.716-18 20.055h9.637c0-5.244 1.914-11.41 7.867-11.41 4.322 0 7.44 2.978 7.44 7.655-.07 6.094-6.023 9.142-10.417 12.118-8.575 5.81-15.59 10.7-15.661 22.18Z" style="fill:none;stroke:#6d6e71;stroke-width:1.417px"/><path d="M11.484 20.763H1.847q-.284-8.786 4.5-14.421t13.5-5.634a17.717 17.717 0 0 1 11.905 4.11 14.35 14.35 0 0 1 5.103 11.41 15.872 15.872 0 0 1-4.394 11.267q-2.197 2.339-9.638 7.158-6.521 4.323-9.142 8.008h23.457v8.645H.713a20.53 20.53 0 0 1 4.606-13.252q2.905-3.401 11.055-8.929 5.81-3.967 6.874-4.89a9.683 9.683 0 0 0 3.543-7.229 7.525 7.525 0 0 0-2.09-5.563 7.25 7.25 0 0 0-5.35-2.09 6.627 6.627 0 0 0-6.166 3.757 15.55 15.55 0 0 0-1.7 7.653Z" style="fill:#fd0"/></g></g></svg>