<svg xmlns="http://www.w3.org/2000/svg" viewBox="0 0 38.277 52.017"><g data-name="Layer 2"><g data-name="Layer 1"><path d="M37.568 33.449c0-9.283-5.528-16.866-15.307-16.866a12.612 12.612 0 0 0-9.709 3.827l-.14-.142L14.394 9h20.48V.709H7.166L2.277 28.134h9.071c1.984-2.693 3.968-3.968 7.582-3.968 5.386 0 8.575 4.11 8.575 9.283 0 4.96-3.33 9.567-8.575 9.567a8.012 8.012 0 0 1-8.149-7.441H.718C.86 45.99 9.505 51.234 19.143 51.306A17.954 17.954 0 0 0 37.568 33.45Z" style="fill:none;stroke:#6d6e71;stroke-width:1.417px"/><path d="M34.875.708V9h-20.48l-1.984 11.267.142.143a13.006 13.006 0 0 1 9.708-3.828A14.186 14.186 0 0 1 33.6 21.543a17.762 17.762 0 0 1 3.97 11.906 16.93 16.93 0 0 1-5.422 12.755 17.915 17.915 0 0 1-13.004 5.103q-7.725-.072-12.756-3.969a14.248 14.248 0 0 1-5.67-11.763h10.064a8.147 8.147 0 0 0 2.622 5.385 7.93 7.93 0 0 0 5.527 2.055 7.701 7.701 0 0 0 6.201-2.834 10.15 10.15 0 0 0 2.374-6.733 9.763 9.763 0 0 0-2.303-6.626 7.87 7.87 0 0 0-6.272-2.657 8.985 8.985 0 0 0-7.583 3.968h-9.07L7.167.708Z" style="fill:#fd0"/></g></g></svg>