<svg xmlns="http://www.w3.org/2000/svg" xmlns:xlink="http://www.w3.org/1999/xlink" viewBox="0 0 126.933 108.264"><defs><clipPath id="clip-path"><path class="cls-1" d="M0 0h126.933v108.265H0z"/></clipPath><clipPath id="clip-path-2"><path class="cls-1" d="M39.696 31.024a5.64 5.64 0 1 0 5.641-5.641 5.642 5.642 0 0 0-5.641 5.641"/></clipPath><clipPath id="clip-path-3"><path class="cls-1" d="M76.974 25.137a5.64 5.64 0 1 0 5.639-5.64 5.64 5.64 0 0 0-5.639 5.64"/></clipPath><radialGradient id="radial-gradient" cx="-1030.262" cy="872.374" r="1" gradientTransform="matrix(5.6408 0 0 -5.6408 5856.808 4951.886)" gradientUnits="userSpaceOnUse"><stop offset="0" stop-color="#f6b1cf"/><stop offset="1" stop-color="#fff"/></radialGradient><radialGradient id="radial-gradient-2" cx="-1030.249" cy="872.38" r="1" gradientTransform="matrix(5.6404 0 0 -5.6404 5893.64 4945.72)" xlink:href="#radial-gradient"/><style>.cls-1,.cls-4{fill:none}.cls-3{fill:#fff}.cls-4{stroke:#231f20;stroke-linecap:round;stroke-linejoin:round;stroke-width:1.46px}</style></defs><g id="Layer_2" data-name="Layer 2"><g id="Layer_1-2" data-name="Layer 1"><g style="clip-path:url(#clip-path)"><path class="cls-3" d="M49.453 49.553S25.336 32.696 24.817 29.066c-1.186-8.299-.454-9.018-.273-13.202.18-4.182-2.547-4.729-3.637-3.274-1.092 1.456-1.91 9.384-1.91 9.384s-5.724-6.127-7.725-8.492c-2-2.363-4.728.727-3.09 2.728 1.635 2.001 4.909 5.093 4.909 5.093s-7.82-6.183-9.092-4.365-.364 3.093 2.182 4.728 4.91 3.273 4.91 3.273-9.24-2.82-10.15-.637c-.906 2.18 1.274 3.091 3.275 3.637s6.517 1.994 6.517 1.994-9.081-1.564-9.445 1.345 3.092 2.728 5.456 2.91 8.165.208 11.985 4.21 24.55 25.278 26.369 31.46c.562 1.911.706 6.358.64 11.59-.152 11.698-1.367 26.087-1.367 26.087h43.098s-2.728-34.404 0-42.769 19.095-29.278 24.005-31.643c4.909-2.363 13.095 1.273 13.64-1.273.545-2.547-7.82-3.818-7.82-3.818s8.909-.002 8.909-2.184-3.635-2.182-6-2.182h-4.001s9.458-2 8.913-5.09c-.548-3.093-5.093-.549-6.366-.184s-5.456 1.82-5.456 1.82 10.184-5.638 8.002-7.82c-2.184-2.182-4.912-.183-6.73.908s-5.817 5.456-7.09 5.456c-1.276 0-3.64-9.456-6.367-7.637s.182 7.094.909 9.457-.181 5.455-2.545 7.82S80.57 47.477 80.57 47.477Z"/><path class="cls-4" d="M49.453 49.553S25.336 32.696 24.817 29.066c-1.186-8.299-.454-9.018-.273-13.202.18-4.182-2.547-4.729-3.637-3.274-1.092 1.456-1.91 9.384-1.91 9.384s-5.724-6.127-7.725-8.492c-2-2.363-4.728.727-3.09 2.728 1.635 2.001 4.909 5.093 4.909 5.093s-7.82-6.183-9.092-4.365-.364 3.093 2.182 4.728 4.91 3.273 4.91 3.273-9.24-2.82-10.15-.637c-.906 2.18 1.274 3.091 3.275 3.637s6.517 1.994 6.517 1.994-9.081-1.564-9.445 1.345 3.092 2.728 5.456 2.91 8.165.208 11.985 4.21 24.55 25.278 26.369 31.46c.562 1.911.706 6.358.64 11.59-.152 11.698-1.367 26.087-1.367 26.087h43.098s-2.728-34.404 0-42.769 19.095-29.278 24.005-31.643c4.909-2.363 13.095 1.273 13.64-1.273.545-2.547-7.82-3.818-7.82-3.818s8.909-.002 8.909-2.184-3.635-2.182-6-2.182h-4.001s9.458-2 8.913-5.09c-.548-3.093-5.093-.549-6.366-.184s-5.456 1.82-5.456 1.82 10.184-5.638 8.002-7.82c-2.184-2.182-4.912-.183-6.73.908s-5.817 5.456-7.09 5.456c-1.276 0-3.64-9.456-6.367-7.637s.182 7.094.909 9.457-.181 5.455-2.545 7.82S80.57 47.477 80.57 47.477Z"/><path class="cls-3" d="M90.199 27.795A27.064 27.064 0 1 1 63.133.73a27.064 27.064 0 0 1 27.066 27.064"/><path class="cls-4" d="M90.199 27.795A27.064 27.064 0 1 1 63.133.73a27.064 27.064 0 0 1 27.066 27.064Z"/><path class="cls-4" d="M55.75 21.333s-1.544-3.002-4.566-2.204c-3.105.822-2.991 5.195-2.991 5.195M72.435 19.412s.86-3.955 3.785-3.955c2.923 0 3.44 3.438 3.44 3.438M67.953 24.074s-.903-2.107-2.557-1.956c-1.656.151-2.408 2.858-2.408 2.858"/><path d="M75.66 28.976a76.465 76.465 0 0 1-10.978 1.995 48.98 48.98 0 0 1-10.181.402s.406 14.263 11.977 13.374c10.38-.798 10.181-11.38 9.182-15.771" style="fill:#fabfbf"/><path class="cls-4" d="M75.66 28.976a76.465 76.465 0 0 1-10.978 1.995 48.98 48.98 0 0 1-10.181.402s.406 14.263 11.977 13.374c10.38-.798 10.18-11.38 9.182-15.771Z"/></g><g style="clip-path:url(#clip-path-2)"><path style="fill:url(#radial-gradient)" d="M39.696 25.382h11.281v11.283H39.696z"/></g><g style="clip-path:url(#clip-path-3)"><path style="fill:url(#radial-gradient-2)" d="M76.974 19.496h11.279v11.282H76.974z"/></g></g></g></svg>