<svg xmlns="http://www.w3.org/2000/svg" viewBox="0 0 157.132 130.109"><defs><clipPath id="clip-path"><path style="fill:none" d="M0 0h157.133v130.108H0z"/></clipPath><style>.cls-4{fill:none}.cls-2{fill:#fff}.cls-3{clip-path:url(#clip-path)}.cls-4{stroke:#231f20;stroke-linecap:round;stroke-linejoin:round;stroke-width:1.46px}</style></defs><g id="Layer_2" data-name="Layer 2"><g id="Layer_1-2" data-name="Layer 1"><path class="cls-2" d="m71.061 77.686-2.914 20.571 37.457-2.314 4.371-5.057-30.086-19.629"/><g class="cls-3"><path class="cls-2" d="M70.642 96.126c.46 9.38-1.985 33.253-1.985 33.253l43.412-.034c-1.748-6.621-5.103-35.22-5.103-35.22"/><path class="cls-4" d="M70.642 96.126c.46 9.38-1.985 33.253-1.985 33.253l43.412-.034c-1.748-6.621-5.103-35.22-5.103-35.22"/><path class="cls-2" d="M106.865 93.723c1.301 3.802 6.354 12.257 6.354 12.257a38.277 38.277 0 0 1-4.744.801 2.69 2.69 0 0 1-2.4-1.289c-3.513-4.162-8.726-3.987-8.816-2.26-.1 1.9 4.29 2.645 4.29 2.645-2.758.077-5.537.297-6.684.361-2.516.14-4.276.578-4.154 2.276.117 1.592 7.055 1.023 7.055 1.023a31.212 31.212 0 0 1-3.566.17c-2.647-.123-5.038.1-4.573 2.056.47 1.97 8.424 1.473 8.424 1.473s-2.29.123-3.47.113c-1.106-.01-4.42-.839-4.342 1.46.075 2.18 7.243 1.668 7.243 1.668-1.65.114-5.406-.07-5.518 1.537-.13 1.882 4.801 2.161 7.681 2.161 2.957 0 5.918-.933 8.222-1.034 3.11-.13 18.222-1.066 19.411-8.307 1.002-6.105-1.67-12.909-9.407-24.015-5.15-7.398-9.227-12.637-14.708-15.509l-4.103-1.3s-19.552-2.073-23.722.116"/><path class="cls-4" d="M106.865 93.723c1.301 3.802 6.354 12.257 6.354 12.257a38.277 38.277 0 0 1-4.744.801 2.69 2.69 0 0 1-2.4-1.289c-3.513-4.162-8.726-3.987-8.816-2.26-.1 1.9 4.29 2.645 4.29 2.645-2.758.077-5.537.297-6.684.361-2.516.14-4.276.578-4.154 2.276.117 1.592 7.055 1.023 7.055 1.023a31.212 31.212 0 0 1-3.566.17c-2.647-.123-5.038.1-4.573 2.056.47 1.97 8.424 1.473 8.424 1.473s-2.29.123-3.47.113c-1.106-.01-4.42-.839-4.342 1.46.075 2.18 7.243 1.668 7.243 1.668-1.65.114-5.406-.07-5.518 1.537-.13 1.882 4.801 2.161 7.681 2.161 2.957 0 5.918-.933 8.222-1.034 3.11-.13 18.222-1.066 19.411-8.307 1.002-6.105-1.67-12.909-9.407-24.015-5.15-7.398-9.227-12.637-14.708-15.509l-4.103-1.3s-19.552-2.073-23.722.116"/><path class="cls-2" d="M117.9 52.682a27.064 27.064 0 1 1-22.603-30.886A27.064 27.064 0 0 1 117.9 52.682"/><path class="cls-4" d="M117.9 52.682a27.064 27.064 0 1 1-22.603-30.886A27.064 27.064 0 0 1 117.9 52.682Z"/><path class="cls-4" d="M84.969 40.858s-1.277 4.64-5.102 4.7c-2.875.045-3.605-3.164-3.605-3.164M99.238 41.858s-.89 3.955 2.547 4.582c3.439.625 4.595-1.427 4.595-1.427M93.935 51.46s-1.158-2.134-2.535-2.254c-1.379-.119-2.77 2.27-2.77 2.27M82.703 62.097s3.292-5.633 9.123-4.822c5.83.808 7.74 6.502 7.74 6.502"/><path class="cls-2" d="M35.944 50.72s8.434 5.096 16.343-4.561 2.855-16.083 2.855-16.083 9.686-10.141-2.475-22.684c-11.649-12.013-20.903-3.04-20.903-3.04S20.741-6.291 6.678 8.912c-11.252 12.164-4.56 29.645 3.801 29.645 0 0-5 10.6 5.21 16.349 8.092 4.554 17.22-.139 20.255-4.186"/><path class="cls-4" d="M35.944 50.72s8.434 5.096 16.343-4.561 2.855-16.083 2.855-16.083 9.686-10.141-2.475-22.684c-11.649-12.013-20.903-3.04-20.903-3.04S20.741-6.291 6.678 8.912c-11.252 12.164-4.56 29.645 3.801 29.645 0 0-5 10.6 5.21 16.349 8.092 4.554 17.22-.14 20.255-4.186Z"/><path class="cls-2" d="M53.725 39.872s-3.443 2.125-2.628 4.323c.817 2.198 4.57 2.153 6.388-.157 1.815-2.31-.364-6.367-3.76-4.166"/><path class="cls-4" d="M53.725 39.872s-3.443 2.125-2.628 4.323c.817 2.198 4.57 2.153 6.388-.157 1.815-2.31-.364-6.367-3.76-4.166Z"/><path class="cls-2" d="M58.301 45.924c-1.495 1.282-2.116 4.691.828 4.414 2.943-.275 3.402-3.034 2.575-4.137-.919-1.226-2.115-1.38-3.403-.277"/><path class="cls-4" d="M58.301 45.924c-1.495 1.282-2.116 4.691.828 4.414 2.943-.275 3.402-3.034 2.575-4.137-.919-1.226-2.115-1.381-3.403-.277Z"/><path d="M31.415 13.705c-3.587-.063-11.22 6.346-13.887 12.048s-6.326 16.41 11.219 17.29c16.7.835 17.475-7.909 14.807-15.175-2.666-7.265-6.989-14.07-12.139-14.163" style="fill:#f3f0dd"/><path class="cls-4" d="M31.415 13.705c-3.587-.063-11.22 6.346-13.887 12.048s-6.326 16.41 11.219 17.29c16.7.835 17.475-7.909 14.807-15.175-2.666-7.265-6.989-14.07-12.139-14.163Z"/><path d="m38.128 32.139-16.095.645s-.643-10.067-.184-12.733c.461-2.668 6.9-6.989 10.117-6.53s6.346 4.782 6.346 4.782.828 11.129-.184 13.836" style="fill:#231f20"/><path class="cls-4" d="m38.128 32.139-16.095.645s-.643-10.067-.184-12.733c.461-2.668 6.9-6.989 10.117-6.53s6.346 4.782 6.346 4.782.828 11.129-.184 13.836ZM28.036 38.349a1.26 1.26 0 0 0 1.655 1.104c1.565-.276 1.38-2.024 1.38-2.024M33.994 36.913s.736 1.196 1.84.92 1.103-1.013 1.103-1.013M39.324 34.581a1.081 1.081 0 0 0 1.471.461c1.013-.461.645-1.197.645-1.197M131.848 97.803s-.645-4.875 1.471-8.093 6.347-4.14 8.002-1.84c1.656 2.299-1.012 6.53-3.403 3.403s-.092-7.633 2.575-9.565c2.667-1.93 8.277-1.93 9.841 1.565 1.562 3.494-2.207 6.712-4.139 3.31a7.971 7.971 0 0 1 1.839-10.116 7.17 7.17 0 0 1 8.369.275"/></g><g class="cls-3"><path class="cls-2" d="M70.63 96.349s4.027-7.634 4.504-12.66c.163-1.738-1.625-2.653-2.58-6.532-.354-1.435.69-8.334 3.243-8.31 3.367.032.676 4.162 1.029 5.043.376.947 1.574-5.431 2.044-6.673s2.074-6.955 4.779-6.286c1.529.377.449 3.803-.397 7.077a23.227 23.227 0 0 1-1.201 3.3s1.13-3.221 3.302-2.398c2.17.82.9 3.9.9 3.9a1.9 1.9 0 0 1 2.602-1.4c2.069.785.874 3.58.874 3.58s1.427-2.178 2.996-.418c1.895 2.127-3.527 8.672-5.09 10.918-1.561 2.248-1.405 16.673-9.23 22.895-3.458 2.75-7.65 3.422-10.963 2.049-2.901-1.201-5.245-4.368-6.42-8.405-1.837-6.321-.59-16.054 6.385-24.8a42.484 42.484 0 0 1 6.023-5.78"/><path class="cls-4" d="M70.63 96.349s4.027-7.634 4.504-12.66c.163-1.738-1.625-2.653-2.58-6.532-.354-1.435.69-8.334 3.243-8.31 3.367.032.676 4.162 1.029 5.043.376.947 1.574-5.431 2.044-6.673s2.074-6.955 4.779-6.286c1.529.377.449 3.803-.397 7.077a23.227 23.227 0 0 1-1.201 3.3s1.13-3.221 3.302-2.398c2.17.82.9 3.9.9 3.9a1.9 1.9 0 0 1 2.602-1.4c2.069.785.874 3.58.874 3.58s1.427-2.178 2.996-.418c1.895 2.127-3.527 8.672-5.09 10.918-1.561 2.248-1.405 16.673-9.23 22.895-3.458 2.75-7.65 3.422-10.963 2.049-2.901-1.201-5.245-4.368-6.42-8.405-1.837-6.321-.59-16.054 6.385-24.8a42.484 42.484 0 0 1 6.023-5.78"/></g></g></g></svg>