<svg xmlns="http://www.w3.org/2000/svg" viewBox="0 0 100.63 100.877"><defs><style>.cls-1{fill:none;stroke:#00c0f3;stroke-width:.425px}</style></defs><g id="Layer_2" data-name="Layer 2"><g id="Layer_1-2" data-name="Layer 1"><path class="cls-1" d="M0 100.665h100.63M0 67.358h100.63"/><path d="m50.563 33.768-18-25.795a2.978 2.978 0 0 0-2.622-1.488c-2.268 0-4.323 1.488-4.323 3.543a2.533 2.533 0 0 0 .425 1.488L46.453 40.5v23.882c0 1.984 1.63 3.189 3.685 3.189s3.756-1.205 3.756-3.189V40.5l20.551-28.913a3.025 3.025 0 0 0 .567-1.63c0-1.701-2.055-3.472-4.323-3.472a3.09 3.09 0 0 0-2.622 1.488Z" style="stroke:#6d6e71;stroke-width:1.417px;fill:none"/><text transform="translate(23.137 63.957)" style="font-size:70.8661px;fill:#fd0;font-family:JKHandwriting-Medium,JKHandwriting Medium;font-weight:500">Y</text></g></g></svg>