<?xml version="1.0" standalone="no"?>
<!DOCTYPE svg PUBLIC "-//W3C//DTD SVG 1.1//EN" "http://www.w3.org/Graphics/SVG/1.1/DTD/svg11.dtd" >
<svg xmlns="http://www.w3.org/2000/svg" xmlns:xlink="http://www.w3.org/1999/xlink" version="1.1" viewBox="-10 0 2058 2048">
   <path fill="currentColor"
d="M1648 313q66 0 119 33q72 46 72 131q0 53 -45 133q-127 221 -318 388q-107 93 -165 93q-41 0 -68 -36q-20 -26 -20 -51q0 -40 51 -89q152 -146 231 -294q22 -41 22 -54q0 -16 -27 -16q-24 0 -64 3q-21 2 -136 9q-85 6 -727 59q-216 18 -233 18q-127 0 -127 -117
q0 -100 102 -119q12 -2 711 -50q609 -41 622 -41zM1004 727q52 0 93 33q25 19 33 43q10 30 10 103q0 267 -40 421q-87 331 -394 517q-49 29 -87 29q-45 0 -68 -31q-21 -28 -21 -59q0 -37 28 -72q12 -16 65 -59q189 -153 236 -417q23 -131 23 -328l-1 -55q0 -75 56 -107
q31 -18 67 -18z" />
</svg>
