<?xml version="1.0" standalone="no"?>
<!DOCTYPE svg PUBLIC "-//W3C//DTD SVG 1.1//EN" "http://www.w3.org/Graphics/SVG/1.1/DTD/svg11.dtd" >
<svg xmlns="http://www.w3.org/2000/svg" xmlns:xlink="http://www.w3.org/1999/xlink" version="1.1" viewBox="-10 0 2058 2048">
   <path fill="currentColor"
d="M881 520v-264q0 -55 33 -88q36 -35 93 -35q78 0 111 60q15 27 15 63v250l32 -2q353 -23 394 -26q22 -2 34 -2q88 0 138 58q49 56 49 151q0 79 -32 218q-77 333 -271 569q-151 183 -369 318q-146 92 -210 92q-53 0 -77 -35q-20 -28 -20 -60q0 -46 38 -77q11 -9 61 -39
q213 -129 379 -337q111 -141 172 -327q51 -157 51 -263q0 -36 -36 -36q-23 0 -58 3q-215 21 -869 55l31 315q1 10 1 16q4 81 -79 109q-26 9 -55 9q-62 0 -95 -46q-17 -24 -20 -55l-49 -486q-2 -17 -2 -23q0 -118 132 -118q76 0 105 55l22 -1l103 -6q198 -12 248 -15z" />
</svg>
