<?xml version="1.0" standalone="no"?>
<!DOCTYPE svg PUBLIC "-//W3C//DTD SVG 1.1//EN" "http://www.w3.org/Graphics/SVG/1.1/DTD/svg11.dtd" >
<svg xmlns="http://www.w3.org/2000/svg" xmlns:xlink="http://www.w3.org/1999/xlink" version="1.1" viewBox="-10 0 2058 2048">
   <path fill="currentColor"
d="M881 737q-295 25 -361 25q-57 0 -91 -35q-29 -30 -29 -80q0 -81 63 -109q27 -13 123 -17q389 -19 840 -76q17 -2 29 -2q81 0 110 63q11 24 11 56q0 99 -101 117q-88 15 -342 38v581l49 -2q581 -33 620 -33q53 0 85 26q41 33 41 97q0 88 -74 112q-26 8 -153 14
q-751 32 -1414 85q-19 1 -28 1q-58 0 -93 -33q-33 -33 -33 -88q0 -91 85 -115q20 -6 79 -9q43 -2 138 -9q152 -11 398 -28l48 -3v-576z" />
</svg>
