<svg xmlns="http://www.w3.org/2000/svg" viewBox="-10 0 1600 1707" width="1600" height="1707"><path d="m871 415-1-21q-5-206-7-251-1-16-1-24Q862 0 983 0q132 0 132 129v270q68-5 264-21 72-6 93-6 118 0 118 126 0 109-145 115-70 3-213 12-59 4-115 8 3 366 4 449 6 293 6 419 0 82-37 137-46 69-125 69-39 0-92-27-271-135-287-144-56-32-56-83 0-19 9-36 22-42 72-42 33 0 209 52 23 7 34 7 21 0 21-38V846q-310 337-682 552-79 46-118 46-40 0-65-37-20-30-20-56 0-40 36-70 12-11 78-54 243-160 479-412 69-73 136-158l-39 3-332 23q-196 14-207 14-120 0-120-116 0-95 86-117 19-5 87-8 298-14 677-41z" style="fill:currentColor"/></svg>