<?xml version="1.0" standalone="no"?>
<!DOCTYPE svg PUBLIC "-//W3C//DTD SVG 1.1//EN" "http://www.w3.org/Graphics/SVG/1.1/DTD/svg11.dtd" >
<svg xmlns="http://www.w3.org/2000/svg" xmlns:xlink="http://www.w3.org/1999/xlink" version="1.1" viewBox="-10 0 2058 2048">
   <path fill="currentColor"
d="M1094 583l-1 -21q-5 -206 -7 -251q-1 -16 -1 -24q0 -119 121 -119q132 0 132 129v270q68 -5 264 -21q72 -6 93 -6q118 0 118 126q0 109 -145 115q-70 3 -213 12q-59 4 -115 8q3 366 4 449q6 293 6 419q0 82 -37 137q-46 69 -125 69q-39 0 -92 -27q-271 -135 -287 -144
q-56 -32 -56 -83q0 -19 9 -36q22 -42 72 -42q33 0 209 52q23 7 34 7q21 0 21 -38v-550q-310 337 -682 552q-79 46 -118 46q-40 0 -65 -37q-20 -30 -20 -56q0 -40 36 -70q12 -11 78 -54q243 -160 479 -412q69 -73 136 -158l-39 3l-332 23q-196 14 -207 14q-120 0 -120 -116
q0 -95 86 -117q19 -5 87 -8q298 -14 677 -41z" />
</svg>
