<?xml version="1.0" standalone="no"?>
<!DOCTYPE svg PUBLIC "-//W3C//DTD SVG 1.1//EN" "http://www.w3.org/Graphics/SVG/1.1/DTD/svg11.dtd" >
<svg xmlns="http://www.w3.org/2000/svg" xmlns:xlink="http://www.w3.org/1999/xlink" version="1.1" viewBox="-10 0 2058 2048">
   <path fill="currentColor"
d="M844 604q41 -175 59 -317q15 -121 129 -121q132 0 132 118q0 80 -48 297q142 -11 319 -30q24 -2 42 -2q82 0 139 41q74 54 74 156q0 35 -26 210q-75 502 -200 751q-78 155 -207 155q-69 0 -144 -53q-226 -158 -226 -234q0 -24 15 -47q17 -26 50 -26q34 0 84 25
q130 67 162 67q29 0 52 -42q70 -133 131 -411q49 -223 49 -310q0 -43 -38 -43q-65 0 -341 27q-192 577 -602 898q-89 70 -136 70q-37 0 -64 -28q-32 -34 -32 -69q0 -37 34 -74q8 -8 68 -63q250 -228 407 -577q25 -57 54 -139q-317 34 -370 34q-123 0 -123 -122
q0 -110 153 -116q135 -5 404 -25z" />
</svg>
