<svg xmlns="http://www.w3.org/2000/svg" viewBox="-10 0 1473 1696" width="1473" height="1696"><path d="M617 438q41-175 59-317Q691 0 805 0q132 0 132 118 0 80-48 297 142-11 319-30 24-2 42-2 82 0 139 41 74 54 74 156 0 35-26 210-75 502-200 751-78 155-207 155-69 0-144-53-226-158-226-234 0-24 15-47 17-26 50-26 34 0 84 25 130 67 162 67 29 0 52-42 70-133 131-411 49-223 49-310 0-43-38-43-65 0-341 27-192 577-602 898-89 70-136 70-37 0-64-28-32-34-32-69 0-37 34-74 8-8 68-63 250-228 407-577 25-57 54-139-317 34-370 34-123 0-123-122 0-110 153-116 135-5 404-25Z" style="fill:currentColor"/></svg>