<svg xmlns="http://www.w3.org/2000/svg" viewBox="-10 0 1629 1766" width="1629" height="1766"><path d="m573 408-50-250q-4-22-4-41 0-70 54-99 32-18 74-18 103 0 124 107l51 252q247-52 346-76 26-7 48-7 73 0 104 59 15 29 15 62 0 87-101 113-72 18-332 71l-35 7 58 283q128-26 530-111 29-6 47-6 76 0 105 64 12 27 12 59 0 75-75 105-16 6-69 17-140 28-456 95l-47 10 100 500q4 18 4 40 0 75-58 105-32 17-75 17-100 0-123-113l-98-496-41 9-341 73q-216 46-236 46-73 0-102-65-12-28-12-63 0-77 82-105 12-4 352-75l205-43 46-10-55-285-30 6q-362 67-406 67-112 0-112-122 0-99 134-118 159-24 367-64Z" style="fill:currentColor"/></svg>