<?xml version="1.0" standalone="no"?>
<!DOCTYPE svg PUBLIC "-//W3C//DTD SVG 1.1//EN" "http://www.w3.org/Graphics/SVG/1.1/DTD/svg11.dtd" >
<svg xmlns="http://www.w3.org/2000/svg" xmlns:xlink="http://www.w3.org/1999/xlink" version="1.1" viewBox="-10 0 2058 2048">
   <path fill="currentColor"
d="M1106 325l361 -14q199 -8 199 162q0 103 -81 308q-218 552 -736 902q-245 165 -337 165q-49 0 -77 -42q-18 -28 -18 -54q0 -41 45 -76q13 -10 79 -48q224 -129 432 -345q260 -272 372 -597q36 -104 36 -126q0 -24 -30 -22h-5l-344 19q-187 253 -439 428q-54 37 -97 37
q-38 0 -61 -28q-21 -27 -21 -56q0 -40 33 -75q11 -12 58 -53q149 -131 288 -348q52 -81 85 -151q40 -85 124 -85q34 0 63 13q57 26 71 86z" />
</svg>
