<?xml version="1.0" standalone="no"?>
<!DOCTYPE svg PUBLIC "-//W3C//DTD SVG 1.1//EN" "http://www.w3.org/Graphics/SVG/1.1/DTD/svg11.dtd" >
<svg xmlns="http://www.w3.org/2000/svg" xmlns:xlink="http://www.w3.org/1999/xlink" version="1.1" viewBox="-10 0 2058 2048">
   <path fill="currentColor"
d="M617 858q-119 154 -248 264q-51 42 -91 42q-39 0 -67 -34q-21 -25 -21 -54t20 -56q7 -9 54 -61q119 -131 233 -346q84 -160 127 -291q33 -104 130 -104q43 0 78 18q63 32 63 98q0 71 -119 284l74 -5q715 -57 861 -70q17 -1 25 -1q56 0 90 37q32 33 32 87q0 101 -106 114
q-35 5 -353 25q-44 638 -498 969q-110 81 -165 81q-50 0 -74 -38q-17 -25 -17 -52q0 -35 25 -63q9 -9 76 -66q145 -123 246 -319q107 -207 137 -494q-217 16 -512 35z" />
</svg>
