<?xml version="1.0" standalone="no"?>
<!DOCTYPE svg PUBLIC "-//W3C//DTD SVG 1.1//EN" "http://www.w3.org/Graphics/SVG/1.1/DTD/svg11.dtd" >
<svg xmlns="http://www.w3.org/2000/svg" xmlns:xlink="http://www.w3.org/1999/xlink" version="1.1" viewBox="-10 0 2058 2048">
   <path fill="currentColor"
d="M1332 1374q32 -223 80 -642q2 -21 2 -29q0 -28 -31 -28q-14 0 -66 5q-73 7 -318 26q-277 22 -467 40q-21 2 -32 2q-56 0 -89 -35q-28 -30 -28 -78q0 -86 64 -115q22 -10 112 -17q830 -68 891 -74q18 -2 30 -2q128 0 177 108q18 40 18 86q0 14 -7 75q-56 465 -85 678
q66 28 66 109q0 80 -70 107q-26 10 -114 14q-280 13 -950 64q-21 2 -30 2q-116 0 -116 -121q0 -106 108 -119q117 -14 855 -56z" />
</svg>
