<svg xmlns="http://www.w3.org/2000/svg" viewBox="-10 0 1813 1709" width="1813" height="1709"><path d="M1123 459V117q0-51 31-82 36-35 96-35 84 0 116 60 13 24 13 57v321q171-10 280-21 17-2 28-2 116 0 116 113 0 89-62 111-20 8-72 12l-205 15-63 4-24 2q-18 352-102 564-106 264-361 438-52 35-96 35-43 0-69-33-23-29-23-60 0-34 21-61 10-14 70-63 198-163 266-474 28-129 38-326l-38 3q-196 14-363 27l-31 3v313q0 38-18 66-32 51-107 51-80 0-110-59-13-25-13-58V743l-22 2q-215 15-271 20-27 2-40 2-118 0-118-122 0-75 54-104 25-13 72-15 14-1 154-9l139-7 32-2V201q0-43 21-71 33-44 102-44 82 0 112 58 13 25 13 57v290q248-17 434-32z" style="fill:currentColor"/></svg>