<?xml version="1.0" standalone="no"?>
<!DOCTYPE svg PUBLIC "-//W3C//DTD SVG 1.1//EN" "http://www.w3.org/Graphics/SVG/1.1/DTD/svg11.dtd" >
<svg xmlns="http://www.w3.org/2000/svg" xmlns:xlink="http://www.w3.org/1999/xlink" version="1.1" viewBox="-10 0 2058 2048">
   <path fill="currentColor"
d="M572 265q91 0 303 130q64 39 94 64q58 47 58 111q0 42 -30 79q-45 54 -105 54q-51 0 -105 -55q-88 -91 -261 -216q-53 -39 -53 -83q0 -24 15 -47q26 -37 84 -37zM330 718q62 0 182 44q141 51 235 120q65 48 65 117q0 43 -30 82q-39 52 -101 52q-45 0 -102 -46
q-113 -93 -291 -194q-59 -34 -59 -86q0 -24 13 -47q24 -42 88 -42zM1751 652q29 0 57 16q50 29 50 86t-94 213q-155 259 -422 475q-319 258 -708 390q-44 15 -74 15q-79 0 -116 -72q-18 -35 -18 -69q0 -75 69 -112q10 -5 130 -47q324 -113 605 -337q270 -215 417 -482
q42 -76 104 -76z" />
</svg>
