<svg xmlns="http://www.w3.org/2000/svg" viewBox="-10 0 1629 1582" width="1629" height="1582"><path d="M333 0q91 0 303 130 64 39 94 64 58 47 58 111 0 42-30 79-45 54-105 54-51 0-105-55-88-91-261-216-53-39-53-83 0-24 15-47 26-37 84-37ZM91 453q62 0 182 44 141 51 235 120 65 48 65 117 0 43-30 82-39 52-101 52-45 0-102-46-113-93-291-194-59-34-59-86 0-24 13-47 24-42 88-42Zm1421-66q29 0 57 16 50 29 50 86t-94 213q-155 259-422 475-319 258-708 390-44 15-74 15-79 0-116-72-18-35-18-69 0-75 69-112 10-5 130-47 324-113 605-337 270-215 417-482 42-76 104-76z" style="fill:currentColor"/></svg>