<?xml version="1.0" standalone="no"?>
<!DOCTYPE svg PUBLIC "-//W3C//DTD SVG 1.1//EN" "http://www.w3.org/Graphics/SVG/1.1/DTD/svg11.dtd" >
<svg xmlns="http://www.w3.org/2000/svg" xmlns:xlink="http://www.w3.org/1999/xlink" version="1.1" viewBox="-10 0 2058 2048">
   <path fill="currentColor"
d="M1053 1257q-282 286 -584 463q-125 73 -170 73q-53 0 -82 -48q-16 -26 -16 -49q0 -44 41 -80q10 -9 71 -48q242 -154 505 -412q266 -262 391 -516q21 -43 21 -58q0 -18 -20 -18q-14 0 -45 5q-59 9 -466 39q-70 5 -121 9q-20 2 -30 2q-81 0 -111 -60q-13 -26 -13 -59
q0 -83 79 -109q24 -8 106 -12q281 -12 716 -59q18 -2 33 -2q87 0 140 51q48 45 48 116q0 53 -53 162q-103 215 -303 461q330 206 514 386q83 82 83 149q0 52 -39 92q-40 42 -94 42q-53 0 -94 -39q-5 -5 -35 -38q-206 -221 -472 -443z" />
</svg>
