<?xml version="1.0" standalone="no"?>
<!DOCTYPE svg PUBLIC "-//W3C//DTD SVG 1.1//EN" "http://www.w3.org/Graphics/SVG/1.1/DTD/svg11.dtd" >
<svg xmlns="http://www.w3.org/2000/svg" xmlns:xlink="http://www.w3.org/1999/xlink" version="1.1" viewBox="-10 0 2058 2048">
   <path fill="currentColor"
d="M651 739q-1 -254 -4 -299q-4 -79 -4 -120q0 -120 128 -120q106 0 123 90q3 14 9 266l1 90l1 32l51 -13q568 -140 607 -151q30 -8 55 -8q71 0 123 43q53 44 53 110q0 96 -186 326q-176 218 -260 218q-38 0 -64 -29q-20 -22 -20 -49q0 -38 48 -98q97 -121 150 -224
q12 -22 12 -30q0 -6 -9 -6q-17 0 -518 131l-44 11v35l-2 434q0 73 36 105q33 30 120 30q298 0 483 -26q27 -4 42 -4q75 0 102 71q10 27 10 60q0 98 -105 118q-92 17 -534 17q-176 0 -267 -47q-86 -45 -120 -134q-21 -55 -21 -159q0 -127 3 -398l1 -38q-74 18 -171 43
q-142 36 -172 36q-59 0 -84 -49q-18 -35 -18 -71q0 -76 78 -106q10 -4 239 -57l98 -23z" />
</svg>
