<?xml version="1.0" standalone="no"?>
<!DOCTYPE svg PUBLIC "-//W3C//DTD SVG 1.1//EN" "http://www.w3.org/Graphics/SVG/1.1/DTD/svg11.dtd" >
<svg xmlns="http://www.w3.org/2000/svg" xmlns:xlink="http://www.w3.org/1999/xlink" version="1.1" viewBox="-10 0 2058 2048">
   <path fill="currentColor"
d="M425 385q77 0 209 132q187 187 187 292q0 72 -65 113q-45 29 -93 29q-58 0 -92 -49q-8 -11 -25 -48q-71 -159 -191 -312q-27 -34 -27 -68q0 -39 29 -63q31 -26 68 -26zM1601 307q32 0 61 11q82 32 82 124q0 43 -24 149q-154 666 -690 1061q-123 90 -247 152
q-53 26 -93 26q-48 0 -74 -37q-21 -29 -21 -59q0 -43 35 -75q12 -12 119 -83q144 -96 293 -259q351 -382 429 -883q20 -127 130 -127z" />
</svg>
