<?xml version="1.0" standalone="no"?>
<!DOCTYPE svg PUBLIC "-//W3C//DTD SVG 1.1//EN" "http://www.w3.org/Graphics/SVG/1.1/DTD/svg11.dtd" >
<svg xmlns="http://www.w3.org/2000/svg" xmlns:xlink="http://www.w3.org/1999/xlink" version="1.1" viewBox="-10 0 2058 2048">
   <path fill="currentColor"
d="M1098 313l379 -14l16 -1q185 0 185 158q0 48 -24 133q-198 698 -810 1107q-240 160 -328 160q-46 0 -72 -40q-18 -28 -18 -53q0 -40 38 -73q13 -11 72 -47q294 -180 511 -423q-144 -148 -262 -242q-55 -43 -55 -85q0 -26 17 -49q28 -37 74 -37q38 0 93 25q159 71 288 177
q125 -202 180 -393q16 -55 16 -68q0 -22 -32 -22h-6l-371 19q-208 277 -426 423q-70 47 -116 47q-42 0 -64 -33q-15 -22 -15 -48q0 -35 29 -71q10 -12 62 -59q173 -158 314 -385q38 -62 67 -120q42 -85 126 -85q60 0 100 41q23 23 32 58z" />
</svg>
