<svg xmlns="http://www.w3.org/2000/svg" viewBox="-10 0 1688 1733" width="1688" height="1733"><path d="M730 702V458q0-25 8-45-317 91-395 91-90 0-90-91 0-47 37-70 14-9 92-30 264-72 528-212 72-38 123-72 45-29 89-29 63 0 103 53 26 35 26 79 0 66-70 106-98 57-263 118 66 33 66 102v227l42-3 252-17q276-17 284-17 116 0 116 114 0 76-44 101-29 17-118 21-227 10-534 31-18 262-95 428-100 214-308 354-54 36-97 36-48 0-77-44-18-28-18-53 0-44 59-95 177-152 239-349 34-107 43-261-361 29-576 51-23 2-35 2-51 0-84-25-43-33-43-98 0-83 81-105 16-4 71-8 452-36 588-46z" style="fill:currentColor"/></svg>