<?xml version="1.0" standalone="no"?>
<!DOCTYPE svg PUBLIC "-//W3C//DTD SVG 1.1//EN" "http://www.w3.org/Graphics/SVG/1.1/DTD/svg11.dtd" >
<svg xmlns="http://www.w3.org/2000/svg" xmlns:xlink="http://www.w3.org/1999/xlink" version="1.1" viewBox="-10 0 2058 2048">
   <path fill="currentColor"
d="M306 434q68 0 199 159q144 175 144 269q0 59 -47 99q-45 39 -100 39q-78 0 -116 -101q-59 -163 -144 -299q-29 -47 -29 -79q0 -31 25 -56q30 -31 68 -31zM821 270q65 0 147 119q86 126 132 253q16 45 16 84q0 77 -58 116q-39 25 -84 25q-80 0 -112 -74q-5 -11 -15 -51
q-46 -186 -103 -316q-17 -40 -17 -72q0 -43 35 -66q27 -18 59 -18zM1636 330q40 0 77 19q65 34 65 113q0 69 -44 238q-186 708 -795 1060q-102 59 -148 59q-55 0 -81 -48q-14 -26 -14 -50q0 -52 73 -101q363 -242 550 -586q139 -255 194 -575q23 -129 123 -129z" />
</svg>
