<?xml version="1.0" standalone="no"?>
<!DOCTYPE svg PUBLIC "-//W3C//DTD SVG 1.1//EN" "http://www.w3.org/Graphics/SVG/1.1/DTD/svg11.dtd" >
<svg xmlns="http://www.w3.org/2000/svg" xmlns:xlink="http://www.w3.org/1999/xlink" version="1.1" viewBox="-10 0 2058 2048">
   <path fill="currentColor"
d="M914 692v-385q0 -54 37 -86q36 -31 93 -31q77 0 113 56q17 26 17 61v369l41 -3q381 -27 496 -38q16 -1 24 -1q54 0 89 33q34 32 34 83q0 76 -48 106q-30 18 -113 22q-259 12 -523 31v29q0 518 -286 772q-135 120 -211 120q-47 0 -76 -38q-19 -25 -19 -54q0 -47 50 -92
q194 -177 251 -408q31 -128 31 -284v-24q-334 25 -557 46q-22 2 -33 2q-60 0 -93 -34q-30 -31 -30 -84q0 -96 87 -119q18 -5 418 -34l161 -12z" />
</svg>
