<?xml version="1.0" standalone="no"?>
<!DOCTYPE svg PUBLIC "-//W3C//DTD SVG 1.1//EN" "http://www.w3.org/Graphics/SVG/1.1/DTD/svg11.dtd" >
<svg xmlns="http://www.w3.org/2000/svg" xmlns:xlink="http://www.w3.org/1999/xlink" version="1.1" viewBox="-10 0 2058 2048">
   <path fill="currentColor"
d="M1758 1202q57 0 90 26q46 35 46 98q0 85 -69 113q-23 9 -135 14q-662 32 -1404 98q-23 2 -35 2q-118 0 -118 -127q0 -90 85 -115q18 -5 143 -14q1265 -95 1397 -95zM1343 479q49 0 85 33t36 90q0 105 -128 125q-153 23 -402 44q-232 20 -306 20q-61 0 -95 -36
q-29 -32 -29 -84q0 -85 65 -112q23 -10 103 -12q309 -8 605 -59q51 -9 66 -9z" />
</svg>
