<svg xmlns="http://www.w3.org/2000/svg" viewBox="-10 0 1280 1546" width="1280" height="1546"><path d="M780 681q129-205 181-365 13-41 13-55 0-19-27-19-13 0-49 4-228 23-542 41-24 1-30 1-119 0-119-119 0-86 70-109 22-7 101-10 398-17 678-48 19-2 32-2 99 0 150 68 32 42 32 101 0 39-22 109-85 270-261 538 144 105 218 171 59 53 59 114 0 47-33 86-40 47-100 47-52 0-104-50-68-67-189-173-304 345-665 510-55 25-94 25-50 0-74-42-15-27-15-53 0-45 38-79 11-9 71-46 308-185 550-469-136-102-241-168-68-43-68-96 0-22 14-45 24-39 74-39 36 0 83 24 124 62 269 148z" style="fill:currentColor"/></svg>