<svg xmlns="http://www.w3.org/2000/svg" viewBox="-10 0 1642 1862" width="1642" height="1862"><path d="M704 1187q-248 156-491 250-95 37-133 37-51 0-74-37-16-26-16-53 0-53 49-85 16-11 69-34 248-108 493-278 235-164 381-330 35-40 35-52 0-11-18-11-8 0-39 4-96 14-581 61-20 2-29 2-46 0-77-25-38-31-38-90 0-85 72-109 19-6 91-9 331-16 759-68 21-2 35-2 58 0 100 30 60 42 60 112 0 60-55 136-144 199-374 393 27 29 27 65v666q0 102-122 102-124 0-124-102zM616 0q95 0 255 90 59 33 95 64 47 41 47 96 0 47-39 86-41 42-94 42-51 0-103-54-86-91-192-157-59-37-59-88 0-28 20-48 31-31 70-31Zm526 987q45 0 136 42 354 161 354 292 0 47-36 91t-92 44q-52 0-111-58-117-114-290-236-55-40-55-86 0-23 12-45 24-44 82-44z" style="fill:currentColor"/></svg>