<?xml version="1.0" standalone="no"?>
<!DOCTYPE svg PUBLIC "-//W3C//DTD SVG 1.1//EN" "http://www.w3.org/Graphics/SVG/1.1/DTD/svg11.dtd" >
<svg xmlns="http://www.w3.org/2000/svg" xmlns:xlink="http://www.w3.org/1999/xlink" version="1.1" viewBox="-10 0 2058 2048">
   <path fill="currentColor"
d="M674 619q30 0 58 13q79 36 79 118q0 73 -92 248q-125 237 -310 419q-136 133 -202 133q-38 0 -69 -34q-25 -27 -25 -62q0 -42 42 -88q245 -267 386 -649q36 -98 133 -98zM1342 578q51 0 115 63q155 151 304 373q164 246 164 345q0 73 -63 112q-39 25 -78 25
q-79 0 -117 -69q-4 -7 -28 -56q-176 -376 -372 -626q-27 -35 -27 -75t31 -66q32 -26 71 -26z" />
</svg>
