<?xml version="1.0" standalone="no"?>
<!DOCTYPE svg PUBLIC "-//W3C//DTD SVG 1.1//EN" "http://www.w3.org/Graphics/SVG/1.1/DTD/svg11.dtd" >
<svg xmlns="http://www.w3.org/2000/svg" xmlns:xlink="http://www.w3.org/1999/xlink" version="1.1" viewBox="-10 0 2058 2048">
   <path fill="currentColor"
d="M676 964v377q0 108 81 130q78 21 270 21q263 0 532 -35q18 -2 29 -2q63 0 96 52q24 39 24 89q0 96 -114 114q-144 22 -583 22q-228 0 -319 -18q-165 -34 -227 -143q-43 -74 -43 -193v-1051q0 -108 127 -108t127 108v412q471 -72 750 -132q35 -8 59 -8q82 0 112 63
q14 31 14 67q0 96 -108 116q-146 29 -765 111z" />
</svg>
