<?xml version="1.0" standalone="no"?>
<!DOCTYPE svg PUBLIC "-//W3C//DTD SVG 1.1//EN" "http://www.w3.org/Graphics/SVG/1.1/DTD/svg11.dtd" >
<svg xmlns="http://www.w3.org/2000/svg" xmlns:xlink="http://www.w3.org/1999/xlink" version="1.1" viewBox="-10 0 2058 2048">
   <path fill="currentColor"
d="M1504 356q96 0 155 60q52 52 52 134q0 56 -30 178t-67 217q-190 485 -625 751q-173 106 -249 106q-49 0 -74 -39q-18 -29 -18 -57q0 -55 69 -94q293 -169 479 -437q165 -235 228 -515q5 -22 5 -34q0 -24 -28 -24q-22 0 -55 3q-57 5 -516 36q-170 12 -373 29q-20 2 -29 2
q-125 0 -125 -128q0 -97 93 -115q42 -9 896 -60q85 -5 132 -9q62 -4 80 -4z" />
</svg>
