<?xml version="1.0" standalone="no"?>
<!DOCTYPE svg PUBLIC "-//W3C//DTD SVG 1.1//EN" "http://www.w3.org/Graphics/SVG/1.1/DTD/svg11.dtd" >
<svg xmlns="http://www.w3.org/2000/svg" xmlns:xlink="http://www.w3.org/1999/xlink" version="1.1" viewBox="-10 0 2058 2048">
   <path fill="currentColor"
d="M1050 1214q255 -190 424 -422q33 -45 33 -56q0 -13 -29 -13q-102 0 -1150 80q-22 2 -28 2q-59 0 -91 -40q-27 -33 -27 -84q0 -99 90 -119q16 -3 436 -34q881 -53 940 -53q93 0 148 47q54 46 54 117q0 72 -85 188q-206 280 -567 526q79 84 119 136q46 62 46 117
q0 78 -64 119q-38 24 -76 24q-49 0 -83 -35q-12 -12 -42 -56q-118 -168 -306 -366q-43 -46 -94 -94q-40 -38 -40 -82q0 -40 30 -70q28 -28 65 -28q43 0 105 43q87 61 192 153z" />
</svg>
