<?xml version="1.0" standalone="no"?>
<!DOCTYPE svg PUBLIC "-//W3C//DTD SVG 1.1//EN" "http://www.w3.org/Graphics/SVG/1.1/DTD/svg11.dtd" >
<svg xmlns="http://www.w3.org/2000/svg" xmlns:xlink="http://www.w3.org/1999/xlink" version="1.1" viewBox="-10 0 2058 2048">
   <path fill="currentColor"
d="M742 244q52 0 190 29q271 56 447 153q92 51 92 135q0 39 -27 76q-37 52 -104 52q-40 0 -115 -40q-255 -137 -502 -212q-92 -28 -92 -97q0 -38 24 -64q30 -32 87 -32zM758 748q45 0 161 29q243 61 377 135q96 53 96 139q0 44 -30 82q-38 46 -97 46q-44 0 -113 -40
q-221 -129 -431 -209q-71 -27 -71 -89q0 -93 108 -93zM644 1266q48 0 194 40q382 106 593 236q90 56 90 140q0 48 -32 86q-38 47 -97 47q-47 0 -130 -45q-355 -193 -634 -302q-91 -36 -91 -98q0 -104 107 -104z" />
</svg>
