<svg xmlns="http://www.w3.org/2000/svg" viewBox="-10 0 1574 1454" width="1574" height="1454"><path d="M1219 1216q-391 87-866 171-169 29-192 29-71 0-118-40-53-46-53-120 0-50 28-99 10-18 55-85 178-267 389-683 87-172 143-300Q643 0 726 0q41 0 81 23 65 38 65 105 0 37-19 76-82 169-252 455-149 250-275 438-14 21-14 32 0 13 22 13 9 0 64-8 530-75 710-106-95-150-145-222-31-44-31-79 0-40 33-71 26-24 59-24 50 0 111 56 112 103 255 298 92 124 142 214 32 56 32 110 0 65-50 107-45 37-103 37-76 0-115-82-35-76-77-156z" style="fill:currentColor"/></svg>