<?xml version="1.0" standalone="no"?>
<!DOCTYPE svg PUBLIC "-//W3C//DTD SVG 1.1//EN" "http://www.w3.org/Graphics/SVG/1.1/DTD/svg11.dtd" >
<svg xmlns="http://www.w3.org/2000/svg" xmlns:xlink="http://www.w3.org/1999/xlink" version="1.1" viewBox="-10 0 2058 2048">
   <path fill="currentColor"
d="M817 583l-22 2q-241 13 -269 13q-123 0 -123 -121q0 -77 74 -101q22 -8 98 -9q182 -5 514 -43q133 -15 205 -27q29 -5 47 -5q108 0 108 116q0 93 -99 115q-118 27 -388 48q46 19 63 55q10 19 9 91q-1 52 2 157q633 -45 717 -45q66 0 98 49q21 30 21 72q0 90 -79 112
q-16 4 -80 6q-219 5 -677 40q2 134 2 270q1 64 13 90q22 47 116 47q199 0 363 -25q23 -3 34 -3q74 0 106 66q14 30 14 67q0 81 -75 111q-63 26 -446 26q-287 0 -357 -171q-22 -56 -24 -131q0 -13 -1 -216q0 -34 -1 -109l-36 3q-379 33 -445 39q-18 2 -28 2q-114 0 -114 -123
q0 -96 90 -114q11 -3 379 -31l114 -8l40 -3v-18l-3 -175q0 -77 25 -105q6 -7 15 -14z" />
</svg>
