<svg xmlns="http://www.w3.org/2000/svg" viewBox="-10 0 1715 1465" width="1715" height="1465"><path d="m650 291-22 2q-241 13-269 13-123 0-123-121 0-77 74-101 22-8 98-9 182-5 514-43 133-15 205-27 29-5 47-5 108 0 108 116 0 93-99 115-118 27-388 48 46 19 63 55 10 19 9 91-1 52 2 157 633-45 717-45 66 0 98 49 21 30 21 72 0 90-79 112-16 4-80 6-219 5-677 40 2 134 2 270 1 64 13 90 22 47 116 47 199 0 363-25 23-3 34-3 74 0 106 66 14 30 14 67 0 81-75 111-63 26-446 26-287 0-357-171-22-56-24-131 0-13-1-216 0-34-1-109l-36 3q-379 33-445 39-18 2-28 2-114 0-114-123 0-96 90-114 11-3 379-31l114-8 40-3v-18l-3-175q0-77 25-105 6-7 15-14z" style="fill:currentColor"/></svg>