<?xml version="1.0" standalone="no"?>
<!DOCTYPE svg PUBLIC "-//W3C//DTD SVG 1.1//EN" "http://www.w3.org/Graphics/SVG/1.1/DTD/svg11.dtd" >
<svg xmlns="http://www.w3.org/2000/svg" xmlns:xlink="http://www.w3.org/1999/xlink" version="1.1" viewBox="-10 0 2058 2048">
   <path fill="currentColor"
d="M715 694l-7 -25q-79 -326 -79 -351q0 -74 70 -101q35 -14 71 -14q89 0 113 116q30 142 75 322q466 -107 668 -160q40 -10 73 -10q74 0 122 44q46 43 46 111q0 58 -50 156q-104 200 -269 360q-89 85 -144 85q-38 0 -65 -27q-29 -29 -29 -64q0 -38 51 -93
q118 -128 175 -257q13 -29 13 -41q0 -15 -16 -15q-10 0 -49 10q-180 49 -470 120q140 566 218 844q8 30 8 52q0 86 -83 111q-28 8 -58 8q-83 0 -109 -93q-63 -224 -220 -863q-418 101 -453 101q-71 0 -98 -63q-14 -32 -14 -63q0 -95 134 -121q148 -29 376 -79z" />
</svg>
