<?xml version="1.0" standalone="no"?>
<!DOCTYPE svg PUBLIC "-//W3C//DTD SVG 1.1//EN" "http://www.w3.org/Graphics/SVG/1.1/DTD/svg11.dtd" >
<svg xmlns="http://www.w3.org/2000/svg" xmlns:xlink="http://www.w3.org/1999/xlink" version="1.1" viewBox="-10 0 2058 2048">
   <path fill="currentColor"
d="M1143 1290q78 -471 78 -535q0 -35 -31 -35q-16 0 -43 4q-57 8 -433 39q-101 9 -112 9q-125 0 -125 -127q0 -84 81 -108q21 -6 89 -10q91 -4 519 -36q121 -9 131 -9q78 0 131 45q63 55 63 151q0 20 -7 68q-58 409 -77 528l30 -2q320 -17 353 -17q64 0 95 40q28 36 28 87
q0 85 -68 109q-20 7 -135 11q-412 13 -1422 91q-19 1 -28 1q-54 0 -85 -34q-32 -35 -32 -92q0 -95 90 -113q10 -2 615 -44l226 -16z" />
</svg>
