<?xml version="1.0" standalone="no"?>
<!DOCTYPE svg PUBLIC "-//W3C//DTD SVG 1.1//EN" "http://www.w3.org/Graphics/SVG/1.1/DTD/svg11.dtd" >
<svg xmlns="http://www.w3.org/2000/svg" xmlns:xlink="http://www.w3.org/1999/xlink" version="1.1" viewBox="-10 0 2058 2048">
   <path fill="currentColor"
d="M627 442q127 0 127 145q0 520 -194 836q-82 135 -196 224q-41 32 -88 32q-32 0 -57 -22q-29 -26 -29 -64q0 -43 39 -88q162 -186 221 -444q46 -201 47 -487q1 -59 27 -89q38 -43 103 -43zM1202 368v1020q0 39 18 39q37 0 193 -108q222 -151 366 -310q50 -56 94 -56
q36 0 71 29q34 28 34 75q0 41 -33 87q-116 161 -351 346q-184 145 -351 227q-63 31 -111 31q-53 0 -106 -37q-76 -53 -76 -167v-1176q0 -66 57 -97q30 -17 66 -17q55 0 92 31q37 32 37 83z" />
</svg>
