<svg xmlns="http://www.w3.org/2000/svg" viewBox="-10 0 1788 1494" width="1788" height="1494"><path d="M427 188q127 0 127 145 0 520-194 836-82 135-196 224-41 32-88 32-32 0-57-22-29-26-29-64 0-43 39-88 162-186 221-444 46-201 47-487 1-59 27-89 38-43 103-43zm575-74v1020q0 39 18 39 37 0 193-108 222-151 366-310 50-56 94-56 36 0 71 29 34 28 34 75 0 41-33 87-116 161-351 346-184 145-351 227-63 31-111 31-53 0-106-37-76-53-76-167V114q0-66 57-97 30-17 66-17 55 0 92 31 37 32 37 83z" style="fill:currentColor"/></svg>