<?xml version="1.0" standalone="no"?>
<!DOCTYPE svg PUBLIC "-//W3C//DTD SVG 1.1//EN" "http://www.w3.org/Graphics/SVG/1.1/DTD/svg11.dtd" >
<svg xmlns="http://www.w3.org/2000/svg" xmlns:xlink="http://www.w3.org/1999/xlink" version="1.1" viewBox="-10 0 2058 2048">
   <path fill="currentColor"
d="M772 381v1020q0 44 19 44q35 0 189 -84q346 -191 586 -446q43 -45 94 -45q34 0 62 23q36 29 36 77q0 40 -35 87q-187 252 -516 469q-213 140 -413 212q-51 18 -92 18q-84 0 -148 -78q-40 -50 -40 -132v-1165q0 -66 56 -97q32 -18 73 -18q60 0 97 35q32 31 32 80z" />
</svg>
