<?xml version="1.0" standalone="no"?>
<!DOCTYPE svg PUBLIC "-//W3C//DTD SVG 1.1//EN" "http://www.w3.org/Graphics/SVG/1.1/DTD/svg11.dtd" >
<svg xmlns="http://www.w3.org/2000/svg" xmlns:xlink="http://www.w3.org/1999/xlink" version="1.1" viewBox="-10 0 2058 2048">
   <path fill="currentColor"
d="M502 502l68 -6q881 -66 947 -66q90 0 150 59q56 55 56 140q0 58 -112 648l-10 50q68 28 68 121q0 90 -91 109q-17 4 -87 3q-521 0 -844 29q-27 85 -133 85q-77 0 -104 -78q-6 -18 -15 -105q-20 -181 -100 -735q-23 -158 -23 -173q0 -81 70 -110q33 -14 70 -14q55 0 90 43
zM1364 1323q48 -286 90 -590q3 -18 3 -28q0 -34 -40 -34q-62 0 -650 47q-110 9 -220 17q40 359 77 627l65 -4q435 -26 675 -35z" />
</svg>
