<?xml version="1.0" standalone="no"?>
<!DOCTYPE svg PUBLIC "-//W3C//DTD SVG 1.1//EN" "http://www.w3.org/Graphics/SVG/1.1/DTD/svg11.dtd" >
<svg xmlns="http://www.w3.org/2000/svg" xmlns:xlink="http://www.w3.org/1999/xlink" version="1.1" viewBox="-10 0 2058 2048">
   <path fill="currentColor"
d="M1450 336q35 -37 100 -37q74 0 110 52q24 36 24 85q0 80 -34 269q-130 724 -707 1099q-62 40 -108 40q-43 0 -70 -31q-26 -30 -26 -63q0 -40 34 -73q10 -10 67 -54q274 -214 432 -577l-50 4l-483 40q-280 22 -290 22q-49 0 -83 -36q-30 -32 -30 -79q0 -83 74 -108
q21 -7 96 -11q38 -3 791 -65l53 -4q30 -124 45 -238l-57 5l-236 18l-420 34q-207 15 -217 15q-53 0 -85 -40q-24 -31 -24 -74q0 -92 86 -114q47 -12 1008 -79z" />
</svg>
