<?xml version="1.0" encoding="utf-8"?>
<!-- Generator: Adobe Illustrator 15.0.2, SVG Export Plug-In . SVG Version: 6.00 Build 0)  -->
<!DOCTYPE svg PUBLIC "-//W3C//DTD SVG 1.1//EN" "http://www.w3.org/Graphics/SVG/1.1/DTD/svg11.dtd">
<svg version="1.1" id="Layer_1" xmlns="http://www.w3.org/2000/svg" xmlns:xlink="http://www.w3.org/1999/xlink" x="0px" y="0px"
	 width="100px" height="100px" viewBox="0 0 100 100" enable-background="new 0 0 100 100" xml:space="preserve">
<g>
	<g>
		<path fill="#FFFFFF" d="M5.599,87.061c0,4.971,4.029,9,9,9h72c4.97,0,9-4.029,9-9v-72c0-4.971-4.03-9-9-9h-72
			c-4.971,0-9,4.029-9,9V87.061z"/>
		<path fill="none" stroke="#7FAA38" stroke-width="3" d="M5.599,87.061c0,4.971,4.029,9,9,9h72c4.97,0,9-4.029,9-9v-72
			c0-4.971-4.03-9-9-9h-72c-4.971,0-9,4.029-9,9V87.061z"/>
	</g>
	<g>
		<circle fill="#7FAA38" cx="59.281" cy="59.741" r="35.015"/>
		<g>
			<path fill="#FFFFFF" d="M81.132,39.682c-0.006,0.008-0.018,0.006-0.025,0.011c0.689,0.118,1.2-0.249,1.901-0.17
				c0.841,0.094,1.566,0.635,2.465,0.741c0.385,0.044,0.466-0.269,0.862-0.247c-0.373-1.094-1.861-1.02-2.484-1.874
				c0.706-0.082,0.172-0.606,0.353-0.701c-0.284,0.06-1.197,0.255-1.166,0.367c0.065,0.228,0.523,0.29,0.709,0.309
				c-0.363,0.539-1.059,0.192-1.386-0.102c-0.8-0.717-0.608-0.47-1.432-0.36c0.099,0.203-0.146,0.29-0.23,0.534
				C80.905,39.02,80.388,38.857,81.132,39.682z"/>
			<path fill="#FFFFFF" d="M35.778,40.296c0.175,0.396,1.104-0.96,1.246-1.119c0.455-0.511,1.697-0.746,0.757,0.263
				c0.145,0,0.153-0.046,0.3-0.081c-0.083,0.187-0.14,0.269-0.083,0.365c0.172-0.001,0.675-0.562,0.854-0.742
				c0.073,0.195,0.887-0.126-0.331-0.464c-0.416-0.115-0.068-1.176-0.646-0.749c-0.141-0.377-1.769,0.448-2.1,0.653
				c0.587-0.016,0.952-0.247,1.584-0.354c-0.114,0.144-0.218,0.176-0.329,0.26c0.407-0.008,0.827,0.145,1.291,0.141
				c-0.515,0.257-1.298,0.117-1.768,0.667c0.166-0.068,0.279-0.157,0.395-0.157C36.732,39.119,35.635,39.972,35.778,40.296z"/>
			<path fill="#FFFFFF" d="M88.479,41.499c0.068,0.009,0.116,0.002,0.155-0.012c-0.74-0.199-1.39-1.618-2.163-1.452
				C87.22,40.182,87.645,41.396,88.479,41.499z"/>
			<path fill="#FFFFFF" d="M38.928,39.791c0.019-0.131,1.35-0.017,1.598-0.396C40.313,39.393,38.879,39.506,38.928,39.791z"/>
			<path fill="#FFFFFF" d="M48.116,29.183c0.013-0.01,0.032-0.018,0.051-0.024c-0.165,0.015-0.334,0.027-0.495,0.034
				c0.208,0.018,0.406,0.074,0.61,0.06C48.263,29.24,48.093,29.198,48.116,29.183z"/>
			<path fill="#FFFFFF" d="M49.006,29.065c-0.017,0.002-0.09,0.012-0.194,0.024C48.894,29.083,48.964,29.078,49.006,29.065z"/>
			<path fill="#FFFFFF" d="M37.443,40.132c-0.085,0.124-0.163,0.31-0.039,0.313c0.255,0.002,0.804-0.187,1.193-0.325
				C38.428,40.19,37.43,40.262,37.443,40.132z"/>
			<path fill="#FFFFFF" d="M48.043,32.102c-0.032-0.004-0.065-0.008-0.087-0.006C47.992,32.106,48.016,32.105,48.043,32.102z"/>
			<path fill="#FFFFFF" d="M34.771,54.632c0,0.006,0.001,0.002,0.001-0.008C34.772,54.626,34.776,54.628,34.771,54.632z"/>
			<path fill="#FFFFFF" d="M60.304,28.978c-0.097,0.005-0.178,0.008-0.213,0.009C60.202,29,60.214,29,60.304,28.978z"/>
			<path fill="#FFFFFF" d="M56.119,28.92c0.03,0.008,0.159,0.004,0.331-0.006C56.321,28.913,56.208,28.914,56.119,28.92z"/>
			<path fill="#FFFFFF" d="M57.375,28.991c0.049-0.003,0.351-0.047,0.654-0.087c-0.162,0.014-0.332,0.021-0.503,0.023
				C57.427,28.961,57.343,28.992,57.375,28.991z"/>
			<path fill="#FFFFFF" d="M41.121,31.948c0.002,0.024-0.096,0.076-0.162,0.116C41.054,32.04,41.114,32.003,41.121,31.948z"/>
			<path fill="#FFFFFF" d="M37.999,32.058c-0.071,0.051,0.412-0.026,0.559-0.049C38.277,32,38.066,32.008,37.999,32.058z"/>
			<path fill="#FFFFFF" d="M45.988,31.577c0.087-0.07,0.191-0.104,0.308-0.107C46.2,31.455,46.098,31.486,45.988,31.577z"/>
			<path fill="#FFFFFF" d="M38.558,32.009c0.012,0,0.022,0,0.035,0c0.004-0.002,0.008-0.004,0.011-0.007
				C38.606,32.001,38.586,32.004,38.558,32.009z"/>
			<path fill="#FFFFFF" d="M45.087,30.681c0.006,0,0.012,0,0.019,0.001C45.127,30.673,45.116,30.674,45.087,30.681z"/>
			<path fill="#FFFFFF" d="M27.81,47.733c0.519-0.909,1.173-1.33,2.068-1.812c0.602-0.326,1.018,0.58,1.458,0.384
				c-0.064-0.15,0.133-0.296,0.295-0.548c-0.102,0.044-0.078,0.047-0.166-0.013c0.261-0.086,0.494-0.034,0.727-0.085
				c-0.083,0.144,1.436,0.387,1.445,0.417c0.067,0.222-0.966,2.841-0.418,2.917c0.608,0.08,1.089-1.741,1.134-2.15
				c0.175-1.624,1.394-2.196,2.745-2.787c-0.008-0.011-0.015-0.022-0.021-0.032c0.336-0.223,0.748-0.278,1.07-0.529
				c-0.248-0.279,0.127-0.193,0.27-0.386c-0.063-0.019-0.123-0.034-0.12-0.144c0.188-0.047,0.313-0.156,0.375-0.326
				c-0.028,0-0.069-0.003-0.099-0.004c-0.04-0.116,0.373-0.812,0.474-0.913c-0.021,0.053-0.178,0.729-0.209,0.728
				c0.476,0.011,0.563-0.778,0.801-0.922c-0.078-0.19,1.26-0.678,1.566-0.757c-0.077-0.089-0.386-0.012-0.492-0.013
				c0.536-0.234,1.267-0.2,1.762-0.382c-0.8,0.018,0.65-1.188,1.132-1.085c0.457,0.099,1.404-0.553,1.978-0.57
				c-0.114,0.15-0.072,0.21,0.128,0.181c-0.76,0.037-1.36,1-0.787,0.7c0.347-0.182,1.884-0.421,2.031-0.714
				c0.081-0.168-1.709-0.054-0.912-1.038c-0.072,0-0.211-0.034-0.339-0.035c0.226-0.143,0.648-0.079,0.8-0.348
				c0.178-0.316-2.058,0.194-2.171,0.206c0.924-0.739,5.372-0.586,4.93-2.083c-0.131,0.041-1.583,0.42-1.609,0.244
				c0.333-0.102,1.154-0.175,1.329-0.341c0.109-0.129-1.152-0.021-0.902-0.435l0.015-0.025c-0.298,0.004-0.402-0.105-0.524-0.182
				c0.758-0.242-0.191-1.515-0.631-0.921c0.055,0.071,0.126,0.12,0.203,0.159c-0.197-0.064-0.349-0.107-0.125-0.506
				c-0.364,0.67-1.849,0.242-2.341,0.005c-1.724-0.826-1.199,0.317-2.493,0.61c0.026,0.62,0.895,0.622-0.297,1.098
				c-0.961,0.383-0.395,0.591-0.887,1.136c-0.431,0.009-0.596-0.032-0.636-0.104c0.077,0.031,0.156,0.049,0.238,0.043
				c0.104-0.13-0.116-0.134-0.248-0.104c0.042-0.186,0.534-0.492,0.197-0.732c-1.011,0.035-0.886-0.702-2.138-0.647
				c0.343-0.353,0.401-0.561-0.125-0.475c0.676-0.457,1.98-0.857,2.521-1.346c-0.045-0.042-0.096-0.07-0.149-0.09
				c0.621,0.056,1.663-0.056,2.072-0.413c-0.29-0.029-0.656,0.013-0.619-0.14c0.286,0.09,0.641,0.088,1.013,0.037
				c-0.331,0.138-0.777,0.39-0.938,0.527c0.087-0.01,0.299-0.036,0.438-0.02c-0.082,0.059-0.175,0.119-0.051,0.113
				c0.488-0.021,1.303-0.107,1.791-0.247c-0.026-0.063-0.246-0.027-0.343-0.089c-0.03-0.021,0.043-0.061,0.032-0.098
				c-0.048-0.124-0.525-0.188-0.636-0.14c0.007-0.036,0-0.059,0.003-0.092c0.114-0.024,0.229-0.056,0.342-0.088
				c-0.046,0.036-0.012,0.073,0.113,0.073c-0.019-0.042,0.045-0.106-0.098-0.077c0.682-0.192,1.333-0.508,1.659-0.789
				c-0.169,0.006-0.368-0.074-0.54-0.09c0.243-0.009,0.455-0.016,0.575-0.014c-0.166,0.125,0.631-0.083,0.846,0.035
				c-0.009,0-0.017,0.003-0.025,0.004c0.064,0.01,0.127,0.037,0.186,0.093c-0.085,0.024-0.169,0.047-0.254,0.07
				c0.015-0.018,0.511,0.003,0.624,0.058c-0.206-0.024-0.395,0.021-0.568,0.136c-0.013,0.011,0.669,0.205,0.678-0.072
				c0.424,0.305-0.842,0.533-0.49,0.653c-0.446,0.194-1.29,0.063-1.6,0.48c-0.054,0.073,1.387-0.088,1.525-0.019
				c0.337,0.169,0.985,0.561,1.529,0.443c0.431-0.101-0.387-0.493-0.382-0.487c0.74-0.123,0.717,0.246,0.913-0.391
				c-0.259,0.034-0.332-0.214-0.516-0.195c0.042-0.124,0.105-0.05,0.147-0.133c0.341,0.051,1.039,0.249,1.102-0.188
				c0.004-0.027-0.931-0.346-0.998-0.368c0.079-0.059,0.129-0.061,0.239-0.095c-0.083-0.04-0.172-0.049-0.266-0.028
				c0.068-0.044,0.147-0.043,0.236-0.058c-0.069-0.069-0.15-0.094-0.243-0.074c0.009-0.019,0.017-0.039,0.025-0.057
				c-0.773-0.031-1.447-0.273-2.262-0.283c0.041,0,0.129-0.162,0.121-0.186c-0.115-0.327-2.031,0.323-1.58,0.122
				c-0.216,0,0.474-0.181,0.624-0.211c-0.403-0.023-0.766-0.021-1.173,0.06c0.142-0.048,0.28-0.075,0.413-0.144
				c-0.854,0.035-1.17,0.029-1.79,0.468c0.202,0.008,0.394-0.042,0.572-0.149c-0.039,0.002-0.078,0.003-0.117,0.005
				c0.217-0.106,0.595-0.075,0.809-0.143c-0.13,0.069-0.901,0.155-0.782,0.394c-0.001,0,0.533,0.011,0.596,0.038
				c-0.171,0.142-0.38,0.161-0.626,0.058c-0.217,0.175,1.524,0.193,1.535,0.193c-0.213,0.058-1.067,0.825-1.36,0.551
				c-0.042-0.185,0.061-0.272,0.309-0.263c0.201-0.165-0.833,0.074-0.784,0.072c0.256-0.21-0.213-0.12,0.175-0.232
				c-0.091-0.038-0.356,0.017-0.379-0.045c0.124-0.039,0.248-0.078,0.371-0.116c0.281-0.213-0.903-0.188-1.233,0.056
				c-0.087,0.064,0.431,0.11,0.337,0.183c-0.084,0.05-0.168,0.098-0.254,0.143c0.09-0.023,0.156-0.034,0.255-0.057
				c-0.127,0.188-0.618,0.122-0.92,0.361c-0.188,0.031-0.156-0.002-0.083-0.048c-0.431,0.116-1.625-0.027-2.367-0.055
				c-0.274,0.23-0.768,0.27-0.933,0.212c-0.951-0.325-1.706,0.338-2.334,0.901c-1.909,1.709-3.632,3.624-5.129,5.703
				c-3.048,4.229-5.138,9.125-6.079,14.253c0.281-0.008,0.38,1.124,0.729,1.217c0.291,0.074,0.599-0.771,0.77-0.113
				c0.236,0.058,0.124,1.198,0.219,1.43c0.239,0.604,0.695,0.932,1.165,1.083c-0.145,0.518-0.063,0.95-0.027,1.469
				c0.039,0.57-0.434,1.153-0.299,1.689c0.044,0.017,0.089,0.032,0.134,0.048c-0.007-0.067,0.037-0.182,0.095-0.261
				c0.533,0.182,0.187,2.904,0.896,3.196c0.361,0.154,0.421-1.6,1.165-1.341c0.367,0.139,0.066,1.075,0.101,1.333
				c0.004,0.013,0.594-0.533,0.646-0.614c-0.122-0.442-0.138-1.646-0.931-1.305c-1.669,0.72-0.952-2.188-0.617-3.056
				c0.385-0.995,1.816-2.827-0.113-2.945c-1.6-0.099,0.245-1.593,0.449-1.95c0.15-0.174,0.282-0.325,0.431-0.638
				c0.219-0.47,0.622-0.815,0.848-1.283c-1.809-0.326-1.881,2.02-3.549,1.654c-1.222-0.252,1.421-4.651,1.559-4.968
				C27.794,47.726,27.803,47.73,27.81,47.733z M48.043,32.102c-0.027,0.004-0.051,0.005-0.087-0.006
				C47.978,32.094,48.011,32.098,48.043,32.102z M37.405,40.445c-0.125-0.003-0.046-0.189,0.039-0.313
				c-0.014,0.129,0.985,0.058,1.155-0.012C38.209,40.259,37.66,40.447,37.405,40.445z M40.525,39.395
				c-0.248,0.379-1.579,0.265-1.598,0.396C38.879,39.506,40.313,39.393,40.525,39.395z M36.554,39.138
				c0.47-0.551,1.252-0.411,1.768-0.667c-0.464,0.004-0.884-0.149-1.291-0.141c0.11-0.084,0.214-0.116,0.329-0.26
				c-0.632,0.107-0.997,0.338-1.584,0.354c0.332-0.205,1.959-1.03,2.1-0.653c0.578-0.427,0.23,0.634,0.646,0.749
				c1.218,0.338,0.404,0.659,0.331,0.464c-0.179,0.181-0.682,0.741-0.854,0.742c-0.057-0.097,0-0.179,0.083-0.365
				c-0.147,0.035-0.155,0.081-0.3,0.081c0.94-1.009-0.302-0.774-0.757-0.263c-0.141,0.158-1.071,1.515-1.246,1.119
				c-0.143-0.325,0.954-1.178,1.17-1.316C36.833,38.98,36.72,39.069,36.554,39.138z"/>
			<path fill="#FFFFFF" d="M47.581,38.397c0.023-0.044-0.042-0.07-0.05-0.117c-0.212,0.089-0.394,0.219-0.546,0.391
				c-0.073,0.148,0.529,0.12,0.635-0.096C47.272,38.569,47.52,38.523,47.581,38.397z"/>
			<path fill="#FFFFFF" d="M48.969,37.521c-0.069,0.014-0.137,0.027-0.206,0.042c0,0,0.02-0.043,0.024-0.053
				c-0.093-0.001-0.185-0.002-0.277-0.003c0.014-0.081,0.062-0.13,0.142-0.147c-0.164-0.082-0.326-0.072-0.484,0.029
				c0.015-0.034,0.851-0.712,0.637-0.713c-0.68,0-1.179,0.963-1.817,1.158c-0.001,0.032,0.05,0.055,0.094,0.055
				c-0.078,0.168-0.33,0.118-0.406,0.275c-0.008,0.015,1.606,0.134,1.789,0.136c-0.102,0.039-0.187,0.101-0.255,0.184
				c-0.034,0.076,0.694-0.308,0.687-0.303c0.309,0.322,0.274,0.787,0.594-0.038c-0.113,0.045-0.076,0.069-0.235,0.066
				c0.092-0.237,0.058-0.115,0.188-0.352c-0.062-0.001-0.147,0.01-0.188,0.032c0.068-0.167,0.125-0.265,0.164-0.362
				C49.328,37.557,49.125,37.555,48.969,37.521z"/>
			<path fill="#FFFFFF" d="M41.705,33.512c0.181-0.021,0.567-0.156,0.734-0.232c-0.237-0.062-0.439,0.055-0.652,0.151
				C41.76,33.458,41.732,33.484,41.705,33.512z"/>
			<path fill="#FFFFFF" d="M39.325,30.149c-0.199-0.021-0.365,0.05-0.496,0.217c0.161,0.023,0.279-0.023,0.356-0.137
				C39.393,30.213,39.44,30.186,39.325,30.149z"/>
			<path fill="#FFFFFF" d="M39.447,30.295c0.091,0.013,0.169-0.008,0.246-0.051c-0.09,0.004-0.18,0.008-0.27,0.012
				C39.369,30.287,39.408,30.297,39.447,30.295z"/>
			<path fill="#FFFFFF" d="M39.974,30.06c-0.076-0.048-0.158-0.047-0.243,0.001C39.801,30.128,39.882,30.127,39.974,30.06z"/>
			<path fill="#FFFFFF" d="M46.561,37.094c0.21,0.162,0.604,0.452,0.882,0.25C47.205,37.217,47.042,37.023,46.561,37.094z"/>
			<path fill="#FFFFFF" d="M40.732,30.033c-0.354,0.021-0.293,0.007,0.184-0.042c-0.003-0.023-0.02-0.037-0.045-0.047
				c0.041-0.003,0.081-0.01,0.121-0.015c-0.236,0.003-0.662-0.023-0.791,0.048c0.112-0.035,0.224-0.039,0.337-0.016
				c-0.285,0.063-0.592,0.195-0.39,0.187C40.319,30.141,40.629,30.099,40.732,30.033z"/>
			<path fill="#FFFFFF" d="M36.609,32.031c-0.077,0.062-0.156,0.121-0.232,0.185c0.092-0.022,0.242-0.026,0.312-0.051
				C36.71,32.059,36.716,32.028,36.609,32.031z"/>
			<path fill="#FFFFFF" d="M41.148,29.91c-0.053,0.009-0.105,0.013-0.157,0.019C41.074,29.927,41.133,29.923,41.148,29.91z"/>
			<path fill="#FFFFFF" d="M37.028,31.958c0.111,0.109,2.52,0.027,2.927-0.163c0,0-0.056-0.109-0.08-0.091
				c0.131-0.096,0.427-0.066,0.577-0.106c-0.308-0.242-0.554,0.027-0.345-0.415c0.044-0.092,0.522-0.392,0.557-0.38
				c-0.57-0.198-0.999,0.461-1.42,0.485c0.077-0.003-0.639-0.256-1.082-0.141c0.026-0.117-0.009-0.158-0.078-0.154
				c0.016-0.024,0.021-0.057,0.01-0.104c-0.068,0.05-0.138,0.097-0.206,0.147c0.021,0.003,0.034,0.002,0.052,0.003
				c-0.277,0.133-0.719,0.51-0.83,0.597c0.138-0.02,0.41-0.067,0.574,0.009c-0.433,0.042-0.625,0.023-0.978,0.308
				C36.833,31.945,37,31.933,37.028,31.958z"/>
			<path fill="#FFFFFF" d="M38.898,30.63c0.036-0.021,0.111-0.045,0.164-0.051c0.001,0.008-0.002,0.013-0.002,0.021
				c0.627-0.141,1.561,0.137,2.137-0.208c0.069-0.042-0.749,0.017-0.354-0.183c-0.074,0.004-0.816,0.139-0.467,0.146
				c-0.051,0.042-0.111,0.064-0.18,0.063c0.022,0.006,0.054,0.007,0.143,0.003c-0.435,0.169-0.854-0.114-1.257-0.07
				c-0.03,0.018-0.021,0.027,0.005,0.033c-0.083,0-0.165,0.015-0.245,0.046c0.013,0.006,0.032,0.01,0.053,0.013
				c-0.104-0.003-0.17-0.001-0.254,0.059c0.019,0.004,0.041,0.007,0.061,0.011c-0.119-0.015-0.218,0.038-0.295,0.156
				C38.571,30.678,38.735,30.667,38.898,30.63z"/>
			<path fill="#FFFFFF" d="M39.06,30.6c-0.108,0.023-0.209,0.057-0.295,0.111C38.967,30.765,39.064,30.726,39.06,30.6z"/>
			<path fill="#FFFFFF" d="M35.071,48.37c-0.043,0.061-0.058,0.188-0.002,0.173C35.069,48.485,35.07,48.429,35.071,48.37z"/>
			<path fill="#FFFFFF" d="M50.72,68.487c-0.73-0.147-1.146-0.588-1.84-0.783s-1.454,0.029-2.049,0.087
				c-0.132-0.551-0.309-0.531-0.79-0.732c-1.273-0.533-0.675,0.646-1.327,0.707c-0.659,0.076-1.397-0.776-0.879-1.461
				c0.34-0.45-0.896-2.236-1.623-2.182c-0.628,0.021-2.281-0.128-2.672-0.7c-0.486-0.736-2.26-0.926-2.418-1.738
				c0.057,0.033,0.185,0.008,0.24-0.051c-0.486,0-1.185,0.476-1.551,0.345c-0.259-0.095-1.023,0.006-1.205-0.201
				c-0.247-0.282-0.764-0.651-1.182-0.636c0.041,0.224,0.275,0.116,0.384,0.336c-1.183,0.071-0.318,1.272-0.541,1.284
				c-0.522,0.031-0.381-1.091-0.383-1.326c0.149-0.118,0.169-0.232,0.06-0.349c-0.212-0.299-0.388,0.213-0.549,0.284
				c-0.724,0.319-1.915,0.976-1.729,1.947c-0.909,0.375,0,1.553,0.151,2.256c-0.084,0.162-0.025,0.272,0.176,0.338
				c0.014,0.738-0.976,1.523-0.993,2.248c-0.019,0.847-0.248,0.959,0.526,1.38c0.011,0.511-0.548,0.75-0.401,1.326
				c0.154,0.612,0.685,0.638,0.958,1.011c0.533,0.781,1.214,1.603,1.883,2.325c0.797,0.86,1,1.983,2.307,2.211
				c1.019,0.14,2.159,0.777,2.566,1.729c0.371,0.867,0.5,1.771,0.813,2.655c0.147,0.936,0.063,2.57,0.632,3.318
				c0.529,1.297,0.615,2.111,0.62,3.422c0.003,0.674,0.382,0.744,0.604,1.225c0.218,0.468-0.145,0.878,0.554,1.289
				c0.023-0.158,0.106-0.237,0.25-0.239c0.619,1.289,3.066,1.981,4.384,2.513c0.101-0.521-1.915-0.858-0.893-1.482
				c0.62-0.292,0.125-1.105-0.025-1.438c0.114-0.032,0.652,0.149,0.495-0.202c0.104,0.224-1.492-0.501-0.857-0.673
				c0.34-0.091,1.18,0.174,0.939-0.385c0.013-0.286-0.532-0.876-0.016-1.005c0.439-0.108,1.179-0.207,1.394-0.688
				c0.602-1.354-0.675-0.978-1.021-1.873c0.073,0.189,1.881-0.087,1.993-0.674c0.167-0.876,0.488-1.64,0.606-2.509
				c0.002,0.006,0.004,0.012,0.006,0.016c-0.006-0.335,0.1-0.631,0.318-0.884c-0.13-0.381-0.25-0.764-0.363-1.15
				c-0.08-0.446,0.523-1.086,0.848-1.291c1.175-0.74,1.378-1.229,1.719-2.572c0.113-0.788-0.692-2.58-0.417-3.104
				C50.79,71.711,52.286,68.825,50.72,68.487z"/>
			<path fill="#FFFFFF" d="M35.086,52.264c0.245,0.014,0.38-0.091,0.407-0.316C35.439,52.007,34.846,52.196,35.086,52.264z"/>
			<path fill="#FFFFFF" d="M51.03,31.101c0.022-0.009,0.032-0.017,0.05-0.026C51.057,31.077,51.037,31.083,51.03,31.101z"/>
			<path fill="#FFFFFF" d="M90.854,57.024c-1.196,0.217-1.652,0.563-1.983-0.883c-0.231-1.004-1.956-1.697-2.188-2.765
				c-0.174-0.81-0.371-1.092-0.9-1.687c-0.493-0.554-0.315-1.508-0.71-2.188c-0.344-0.59-0.425-1.21-0.74-1.823
				c-0.472-0.907-1.445-2.13-1.498-3.149c0.315,0.34,0.665,1.268,1.038,1.328c0.227-0.992,0.259-1.248-0.124-2.206
				c-0.651,0.178-1.223-0.232-1.844-0.002c-0.843,0.31-1.496,0.204-2.339-0.098c-0.597-0.214-2.993-1.614-2.961,0.013
				c0.035,1.885-2.211-0.565-2.791-0.754c-0.624-0.203-1.664,0.152-1.654-0.928c0.004-0.611,0.23-1.078,0.271-1.624
				c-0.18,0.172-0.344,0.159-0.494-0.04c-0.272-0.422-0.655,0.131-0.957,0.142c-0.632,0.021-1.198,0.004-1.818,0.028
				c-0.934,0.034-1.924,0.53-2.718,0.983c-0.988,0.574-1.865-0.266-2.428,0.489c0.012-0.001,0.021-0.002,0.033-0.003
				c-0.495,0.656-1.075,1.243-1.555,1.912c-0.332,0.461-0.213,1.061-0.381,1.58c-0.153,0.49-0.705,0.955-1.171,1.125
				c-0.841,0.311-1.176,1.268-1.522,2.031c-0.282,0.62-0.51,1.198-0.844,1.789c-0.438,0.772,0.152,2,0.123,2.841
				c-0.021,0.594-0.243,1.283-0.561,1.784c-0.312,0.49,0.094,1.08,0.08,1.724c-0.019,0-0.035,0.002-0.053,0.002
				c0.323,0.515,0.718,0.982,1.125,1.431c0.725,0.8,0.88,1.877,1.652,2.657c0.584,0.586,1.274,1.512,2.204,1.19
				c0.426-0.146,0.77-0.413,1.241-0.425c0.393-0.01,0.697,0.334,1.078,0.326c0.907-0.022,1.806-1.287,2.901-1.315
				c0.8-0.02,0.729,1.349,1.421,1.335c2.24-0.046,1.972,1.557,1.403,3.109c-0.365,0.999,0.618,1.942,1.173,2.646
				c0.555,0.704,0.618,1.761,0.847,2.617c0.213,0.8,0.601,2.055,0.404,2.884c-0.191,0.825-0.882,1.411-1.036,2.264
				c-0.217,1.192,0.235,2.363,0.763,3.405c0.503,0.999,0.532,1.417,0.651,2.511c0.26,2.377,2.074,4.09,2.047,6.362
				c0.234-0.137,0.969,0.321,1.608-0.017c0.673-0.354,1.253-0.189,1.946-0.26c0.049-0.284,1.334-0.738,1.593-1.092
				c0.618-0.839,0.981-1.805,1.65-2.598c0.727-0.858-0.095-1.49,0.764-2.207c0.808-0.675,1.065-0.406,1.111-1.705
				c0.02-0.563-1.042-1.935,0.106-2.166c0.133-0.818,0.949-1.172,1.575-1.561c1.788-1.105,0.408-2.671,1.131-4.219
				c0.263-0.564-0.592-1.222-0.584-1.84c0.008-0.594-0.132-1.17-0.126-1.765c0.004-0.588,0.491-0.888,0.609-1.431
				c0.45-2.055,2.205-2.621,3.289-4.206c0.934-1.369,2.776-4.603,2.08-6.265C92.16,56.529,91.53,56.878,90.854,57.024z"/>
			<path fill="#FFFFFF" d="M89.928,76.543c0.172-0.313,0.336-0.634,0.497-0.953C90.177,75.756,89.979,75.998,89.928,76.543z"/>
			<path fill="#FFFFFF" d="M57.164,30.808c0.088-0.268,0.608,0.429,0.752-0.001c-0.139-0.078-0.286-0.138-0.44-0.182
				c0.271-0.005,0.711,0.202,0.953-0.078c-0.045-0.008-0.085-0.032-0.074-0.062c0.186-0.011,0.394-0.053,0.476-0.12
				c-0.13,0.018-0.249-0.007-0.359-0.072c0.051-0.141,0.293,0.032,0.363-0.148c0.072-0.194-0.383-0.168-0.362-0.219
				c0.1-0.233,0.828,0.096,0.926-0.142c-0.115-0.06-0.238-0.098-0.37-0.113c0.059-0.002,0.132-0.016,0.186-0.029
				c-0.213-0.054-0.428-0.068-0.646-0.042c0.253-0.132,1.637-0.441,1.739-0.623c0.384-0.017,1.111-0.065,1.215-0.232
				c0.034-0.055-3.396,0.361-3.595,0.391c0.044-0.036,0.752-0.263,0.767-0.285c0.013-0.02-0.135-0.01-0.333,0.012
				c0.245-0.042,0.451-0.11,0.579-0.219c-1.813-0.04-3.775-0.144-5.549,0.266c0.02,0.016,0.067,0.015,0.101,0.031
				c-0.094-0.002-0.184,0.014-0.271,0.047c0.086,0.061,0.183,0.089,0.291,0.083c-0.15,0.009-0.86-0.134-0.944,0.004
				c-0.014,0.021,0.007,0.036,0.012,0.055c-0.14-0.052-0.334-0.085-0.403,0.039c-0.259,0.018-2.044,0.09-2.234,0.462
				c0.105,0.042,0.217,0.053,0.332,0.031c-0.192,0.366-1.006,0.047-1.158,0.37c-0.053,0.11,0.732,0.051,0.804,0.047
				c-0.156,0.179-0.595-0.018-0.727,0.181c0.108-0.021,0.215-0.01,0.318,0.034c-0.03,0.028-0.063,0.032-0.114,0.052
				c0.112,0.061,0.223,0.076,0.336,0.046c-0.013-0.002-0.027-0.014-0.037-0.021c0.342-0.094,1.633-0.094,1.396,0.521
				c0.162,0.039,0.153,0.101-0.011,0.183c0.14-0.011,0.527,0.211,0.58,0.222c-0.107,0.169-0.337-0.035-0.497,0.003
				c-0.013,0.101,0.393,0.119,0.561,0.156c-0.18,0.214-0.647,0.274-0.735,0.56c0.038-0.018,0.076-0.013,0.11,0.003
				c-0.226,0.307,0.165,0.355,0.265,0.479c-0.493,0.263,0.854,0.878,1.043,0.894c0.286,0.022,0.942-1.089,1.49-1.192
				c-0.008,0.029-0.017,0.057-0.024,0.087c0.591,0.016,0.896-0.323,1.414-0.471c0.796,0.013,1.638-0.125,2.392-0.384
				c-0.186-0.034-0.986-0.021-0.945-0.152c0.254-0.027,0.115-0.027,0.154-0.166c0.119,0.039,0.984,0.36,1.042,0.168
				C58.012,31,57.296,30.88,57.164,30.808z M60.304,28.978C60.214,29,60.202,29,60.091,28.987
				C60.126,28.986,60.207,28.983,60.304,28.978z M57.375,28.991c-0.032,0.001,0.052-0.03,0.151-0.064
				c0.171-0.002,0.341-0.009,0.503-0.023C57.726,28.943,57.424,28.988,57.375,28.991z M56.119,28.92
				c0.089-0.006,0.202-0.007,0.331-0.006C56.278,28.924,56.149,28.928,56.119,28.92z"/>
			<path fill="#FFFFFF" d="M34.737,48.076c-0.072-0.009-0.212,0.059-0.279,0.134c0.085,0.012,0.22,0.049,0.375,0.046
				C34.833,48.193,34.838,48.089,34.737,48.076z"/>
			<path fill="#FFFFFF" d="M58.578,31.844c-0.028-0.003-0.069,0.015-0.106,0.024c0.97,0.093,1.51,0.5,2.543,0.053
				c0.078-0.129-0.342-0.338-0.058-0.414c-0.129-0.011-1.207-0.124-1.224,0.001c-0.15-0.084-0.331,0.042-0.434-0.107
				c-0.112,0.058-0.427,0.18-0.295-0.132c-0.143-0.016-0.362,0.051-0.497,0.068c-0.021,0.051,0.401,0.25,0.383,0.237
				c-0.12,0.016-0.383,0.026-0.523,0.014c0.051,0.073,0.252,0.023,0.384,0.062C58.686,31.721,58.633,31.758,58.578,31.844z"/>
			<path fill="#FFFFFF" d="M47.474,36.912C47.222,37.11,47.763,36.956,47.474,36.912L47.474,36.912z"/>
			<path fill="#FFFFFF" d="M32.269,54.655c-0.122-0.025-0.576,0.559,0.451,0.518c0.025-0.106,0.024-0.191-0.05-0.263
				c0.004,0.02,0.007,0.04,0.011,0.058C32.607,54.896,32.451,54.697,32.269,54.655z"/>
			<path fill="#FFFFFF" d="M33.873,55.202c0.328-0.896,1.09,0.494,1.098,0.496c0.121,0.023,0.637-0.778,0.674-0.431
				c0.001,0.008,1.116,0.008,1.161,0.014c0.001,0.031-0.137-0.462-0.201-0.696c-0.201-0.361-0.131-0.904-0.67-0.991
				c-0.261-0.041-0.542,0.188-0.728-0.101c-0.395-0.61-0.423,0.967-0.434,1.127C34.673,54.57,33.029,54.709,33.873,55.202z
				 M34.771,54.624c0,0.01-0.001,0.014-0.001,0.008C34.776,54.628,34.772,54.626,34.771,54.624z"/>
			<path fill="#FFFFFF" d="M46.042,38.25c-0.035,0.011-0.082,0.043-0.1,0.078c-0.058,0.104,0.599,0.483,0.775,0.116
				C46.438,38.532,46.212,38.467,46.042,38.25z"/>
			<path fill="#FFFFFF" d="M34.308,53.325c-0.221-0.313,0.127-0.588-0.353-0.725c0.042-0.267-0.661-1.278-0.969-1.581
				c-0.959-0.939-1.623-0.758-2.498,0.354c0.857,0.112,0.957-1.086,1.239-0.132c1.083,0.132,1.306,1.276,1.001,1.997
				C33.276,53.325,33.805,54,34.308,53.325z"/>
			<path fill="#FFFFFF" d="M37.362,55.743c-0.124,0.383,0.546,0.578,0.732,0.313C38.088,55.878,37.482,55.364,37.362,55.743z"/>
			<path fill="#FFFFFF" d="M36.604,54.585c0.004,0.006,0.007,0.016,0.011,0.021C36.555,54.399,36.566,54.444,36.604,54.585z"/>
			<path fill="#FFFFFF" d="M34.275,49.561c0.033-0.071-0.035-0.419-0.082-0.327C34.167,49.288,34.101,49.927,34.275,49.561z"/>
			<path fill="#FFFFFF" d="M31.154,51.489c-0.119,0.026-0.198,0.104-0.237,0.231c0.073-0.154,0.12,0.363,0.382-0.389
				C31.209,51.231,31.213,51.359,31.154,51.489z"/>
			<path fill="#FFFFFF" d="M43.327,30.381c-0.018,0-0.139,0.022-0.194,0.056c0.016,0,1.025,0.028,0.754-0.116
				C43.699,30.266,43.511,30.287,43.327,30.381z"/>
			<path fill="#FFFFFF" d="M72.589,39.299c0.148,1.249,0.978-0.479-0.186-0.299C72.43,39.11,72.577,39.191,72.589,39.299z"/>
			<path fill="#FFFFFF" d="M64.805,33.918c0.724,0.048,1.172-0.161,1.189-0.815c0.002-0.098,0.604-0.465-0.207-0.518
				c-0.138-0.011-0.843-0.042-0.58,0.245c-0.104,0.058-0.559,0.002-0.568,0.163c0.085,0.071,0.17,0.141,0.257,0.212
				C64.836,33.398,64.052,33.865,64.805,33.918z"/>
			<path fill="#FFFFFF" d="M72.755,38.767c0.036-0.077,0.046-0.362,0.073-0.515c-0.05-0.016-0.071-0.084-0.079-0.148
				c-0.101,0.075-0.211,0.117-0.331,0.125C72.507,38.338,72.598,38.725,72.755,38.767z"/>
			<path fill="#FFFFFF" d="M80.639,42.46c-0.278-0.104-0.663-0.218-0.995-0.193C79.852,42.385,80.39,42.577,80.639,42.46z"/>
			<path fill="#FFFFFF" d="M69.958,39.316c0.014,0.012,0.35,0.265,0.332,0.082C70.244,39.202,70.134,39.174,69.958,39.316z"/>
			<path fill="#FFFFFF" d="M66.68,32.986c-0.083,0.022-0.097,0.057-0.099,0.104c0.085,0.006,0.126,0.009,0.153,0.011
				c0-0.046,0.015-0.082,0.015-0.11C66.734,32.99,66.693,32.987,66.68,32.986z"/>
			<path fill="#FFFFFF" d="M65.811,31.72c0.146,0.01,0.259-0.077,0.263-0.162C66.044,31.556,65.534,31.704,65.811,31.72z"/>
			<path fill="#FFFFFF" d="M65.928,31.807c-0.006,0.104,0.103,0.135,0.304,0.173c-0.012,0.26,0.045,0.196,0.041,0.516
				c0.036,0.003,0.071,0.005,0.109,0.008c-0.028-0.037-0.067-0.065,0.002-0.129c0.464,0.235,0.095,0.086,0.091,0.4
				c-0.002,0.139,0.58,0.076,0.663,0.082c-0.162,0.206,0.018,0.243,0.238,0.244c0.002,0.295-0.398,0.289-0.627,0.272
				c0,0.341-0.285,0.381-0.285,0.564c0,0.049,0.765,0.188,0.869,0.083c0.006,0.164-0.786,0.293-0.955,0.578
				c0.286,0.016,2.708-0.201,2.702-0.313c-0.097-0.021-0.193-0.042-0.288-0.063c0.327-0.379,0.327-0.729,0.012-0.582
				c-0.056,0.015-0.069,0.042-0.166,0.054c-0.023-0.545-0.858-1.102-1.405-1.243c0.055-0.131,0.524-0.319,0.472-0.539
				c-0.419,0.188-0.697,0.149-0.835-0.121c0.118-0.051,0.23-0.111,0.337-0.18c0.015-0.46-1.158,0.152-0.915,0.245
				C66.289,31.899,65.957,31.809,65.928,31.807z"/>
			<path fill="#FFFFFF" d="M41.231,30.521c0.117,0.02,0.192-0.014,0.226-0.102c-0.143,0.022-0.254,0.043-0.385,0.105
				C41.144,30.518,41.148,30.524,41.231,30.521z"/>
			<path fill="#FFFFFF" d="M74.37,40.488c0.025,0.18,0.949,0.69,1.152,0.709c0.014,0.002,0.023-0.513,0.054-0.646
				C75.38,40.499,74.533,40.427,74.37,40.488z"/>
			<path fill="#FFFFFF" d="M69.852,28.739c0-0.003,0-0.005,0-0.008c-0.004,0-0.006,0.002-0.012,0.003
				C69.844,28.736,69.85,28.737,69.852,28.739z"/>
			<path fill="#FFFFFF" d="M76.703,32.438c0.165,0.016,0.24-0.131,0.246-0.256c-0.097-0.035-0.434-0.139-0.144,0.082
				c-0.101-0.001-0.166,0.04-0.269,0.039C76.551,32.353,76.584,32.428,76.703,32.438z"/>
			<path fill="#FFFFFF" d="M69.84,28.734c-0.103,0.02,0.099,0.099,0.236,0.118C70.025,28.793,69.929,28.778,69.84,28.734z"/>
			<path fill="#FFFFFF" d="M70.271,28.813c-0.023-0.001-0.037,0.001-0.059,0.003c0.104,0.079,0.533,0.039,0.76,0.031
				c-0.188,0.026-0.516,0.08-0.516,0.072c0.005,0.086,0.585,0.066,0.658,0.087c-0.194,0.009-0.361-0.009-0.553-0.009
				c0.029,0.42,1.18,0.01,1.561-0.073c0.046,0.03,0.119,0.077,0.178,0.086c-0.012,0.049-0.114,0.027-0.122,0.087
				c0.12,0.011,0.317,0.018,0.435,0.032c-0.026,0.017-0.024,0.035,0.004,0.065c0.236-0.015,0.333-0.07,0.596-0.087
				c-0.276-0.14-0.622-0.182-0.89-0.215c0.027,0.001,0.064,0.003,0.093,0.001c-0.067-0.029-0.145-0.055-0.226-0.08
				c0.52,0.054,1.432-0.098,1.627-0.13c-0.541-0.269-1.459-0.139-2.047-0.15c0.014,0.009,0.029,0.018,0.047,0.026
				c-0.049-0.001-0.099-0.002-0.146-0.004c0.002,0.005,0.002,0.009,0.002,0.013c-0.097-0.009-0.194-0.014-0.291-0.014
				c0.054,0.111,0.363,0.096,0.435,0.098c0.016,0.001,0.381,0.018,0.417,0.02c-0.133,0.007-0.265,0.009-0.397,0.004
				c0.016,0.029,0.048,0.05,0.085,0.07c-0.213-0.044-0.426-0.069-0.584-0.047c-0.004-0.019,0.02-0.034,0.018-0.051
				c-0.004-0.017-0.719-0.204-0.375,0.091c-0.06-0.01-0.59-0.085-0.429-0.051c-0.055-0.019-0.13-0.022-0.205-0.043
				c0.022-0.011,0.052-0.018,0.087-0.031c-0.205-0.042-0.406-0.031-0.605,0.031c0.074,0.035,0.153,0.061,0.234,0.075
				C70.037,28.758,70.146,28.784,70.271,28.813z"/>
			<path fill="#FFFFFF" d="M72.546,32.67c0.008,0.019,0.021,0.037,0.023,0.058C72.563,32.688,72.556,32.671,72.546,32.67z"/>
			<path fill="#FFFFFF" d="M75.296,32.669c0.074-0.1,0.151-0.197,0.23-0.293C75.443,32.371,75.114,32.524,75.296,32.669z"/>
			<path fill="#FFFFFF" d="M67.888,34.857c0.008,0.149,0.083,0.25,0.089,0.385c-0.143,0.019-1.291-0.211-1.287,0.046
				c0,0.373,1.97,0.584,1.537,1.305c0.011-0.005,0.021-0.011,0.03-0.016c0.049,0.996-0.229,0.734-0.947,0.829
				c-0.646-0.051-1.271-0.22-1.911-0.271c-0.748-0.054-0.446,0.434-0.446,0.798c0,0.261-0.507,2.188,0.071,2.231
				c0.568,0.041,0.781-0.169,1.137,0.383c0.278,0.432,1.155-0.235,1.623-0.056c0.396-0.156,0.839-0.478,1.121-0.876
				c-0.934-0.406,1.202-1.321,1.226-1.404c-0.404-1.036,1.139-0.215,1.606-0.451c0.953-0.483,1.078-0.208,1.801,0.545
				c-0.135-0.293,3.136,2.264,2.117,2.164c0.069,0.434,0.618-0.415,0.63-0.329c-0.118-0.709-0.493-0.622,0.479-0.364
				c-0.012-0.599-1.046-0.466-1.141-1.002c-0.677-0.066-1.743-0.974-1.834-1.629c-0.061-0.42,1.996,1.004,2.174,1.021
				c0.081,0.468,1.077,0.573,1.206,1.288c0.079,0.42,0.926,1.256,1.32,1.299c-0.215,0.438,0.099,0.688,0.612,0.745
				c-0.085-0.045-0.212-0.613-0.229-0.707c0.215,0.189,0.456,0.334,0.713,0.201c-0.435-0.365-0.644-0.722-1.022-1.087
				c-0.063-0.324,0.563,0.113,0.57,0.114c0.008-0.108-0.01-0.19-0.063-0.303c0.373-0.069,0.427-0.233,0.819,0.046
				c0.509,0.362,0.442-0.112,0.906-0.046c-0.004,0.063,0.138,0.145,0.159,0.189c-0.203,0.079-1.375-0.118-1.276,0.326
				c0.068,0.317,0.566,0.109,0.07,0.615c0.454,0.23,0.705,0.492,1.084,0.82c-0.01,0.028-0.063,0.064-0.106,0.075
				c1.283,0.127,2.337,0.646,3.603,0.304c0.155,0.587,0.023,1.042-0.012,1.632c-0.01,0.173,0.043,0.757-0.104,0.87
				c-0.052,0.042,0.532,1.141,0.542,1.375c0.069,1.558,2.398,2.413,2.721,3.834c0.195,0.86,0.896,1.378,1.396,2.052
				c0.667,0.901,0.914,1.569,1.409,2.536c0.93,1.818,2.149,0.336,3.632-0.083c-0.257-1.721-0.638-3.401-1.131-5.033
				c-0.387-0.244-0.168-0.64-0.34-0.986c-0.142,0.017-0.049,0.244-0.221,0.272c-0.247-0.68-1.08-1.031-1.424-1.722
				c-0.69-1.404,0.751-0.51,1.179,0.091c-0.758-1.986-1.676-3.911-2.862-5.629c0.036-0.016,0.073-0.022,0.111-0.022
				c-1.733-2.871-3.879-5.492-6.347-7.763c-1.616-1.488-4.246-4.196-6.433-4.385c0.097-0.327-1.019-0.125-0.691-0.068
				c-0.455,0.066-0.971-0.075-1.403,0.068c0.054,0.019,0.04,0.014,0.107,0.038c-0.16-0.021-0.318-0.005-0.473,0.046
				c0.105,0.002,0.105,0.005,0.189,0.019c-0.025,0.003-0.941-0.08-0.971,0.041c0,0,0.12,0.02,0.18,0.024
				c-0.046,0.005-0.166,0.02-0.217,0.047c0.282,0.016,0.381-0.035,0.667-0.04c-0.071,0.217-2.124,1.049-2.385,1.064
				c0.114,0.02,0.166,0.035,0.306,0.062c-0.402-0.048-2.173,0.293-1.247,0.935c-0.081,0.042-0.145,0.1-0.191,0.177
				c0.154-0.026,0.154-0.026,0.338-0.013c0.023,0.218-0.214,0.077-0.202,0.212c0.048,0.477,1.364,0.136,1.513,0.045
				c0.46-0.278,0.576,0.017,0.845,0.41c0.101,0.153,0.522,0.971,0.729,0.994c0.236,0.019,1.293-0.238,1.276-0.582
				c-0.88-0.153,0.514-0.731,0.496-0.803c-0.106-0.414-0.665-0.283-0.738-0.737c-0.071-0.437,1.338-0.312,1.245-0.598
				c0.12-0.167,1.123-0.706,1.372-0.089c0.021,0.051-1.258,0.512-1.364,0.503c0.131,0.162,0.099,0.342,0.361,0.417
				c-0.464,0.573,2.623,0.491,2.868,0.757c-0.647,0.242-1.356-0.229-1.964,0.086c-0.197,0.102,0.499,0.362,0.505,0.572
				c-0.006-0.237-1.591,0.118-1.462,0.99c-0.164-0.007-0.326-0.013-0.488-0.02c-0.004-0.019,0.014-0.063,0.032-0.099
				c-0.397-0.144-2.023,0.425-1.948-0.072c-0.433-0.074-0.945-0.043-1.372-0.08c-0.037,0.102-0.016-0.047,0.023-0.236
				c0.097,0.036,0.253-0.021,0.274,0.123c0.031-0.206-0.071-0.266-0.234-0.292c0.043-0.168,0.093-0.317,0.126-0.312
				c-0.056-0.106-0.186-0.194-0.223-0.439c-0.842,0.331-0.85,0.329-0.388,1.121c0.21,0.357-0.631,0.313-0.864,0.294
				c-0.785-0.063-0.698,0.633-1.348,0.773C68.934,34.589,68.804,34.929,67.888,34.857z M88.635,41.487
				c-0.039,0.014-0.087,0.021-0.155,0.012c-0.835-0.104-1.26-1.317-2.008-1.463C87.245,39.87,87.895,41.288,88.635,41.487z
				 M80.929,37.658c0.823-0.11,0.632-0.356,1.432,0.36c0.327,0.294,1.022,0.64,1.386,0.102c-0.186-0.019-0.644-0.081-0.709-0.309
				c-0.031-0.112,0.882-0.307,1.166-0.367c-0.181,0.095,0.354,0.619-0.353,0.701c0.623,0.854,2.111,0.78,2.484,1.874
				c-0.396-0.022-0.478,0.291-0.862,0.247c-0.898-0.106-1.624-0.647-2.465-0.741c-0.701-0.079-1.212,0.288-1.901,0.17
				c0.008-0.005,0.02-0.003,0.025-0.011c-0.744-0.825-0.227-0.662-0.434-1.49C80.783,37.948,81.027,37.861,80.929,37.658z"/>
			<path fill="#FFFFFF" d="M72.857,33.282c-0.023-0.054-0.055-0.054-0.095,0.001c0.411,0.278,0.303-0.228,0.564-0.257
				c-0.315-0.532-0.901,0.026-0.296,0.153C73.037,33.226,72.952,33.281,72.857,33.282z"/>
			<path fill="#FFFFFF" d="M84.182,42.585c-0.246,0.016-0.604,0.122-0.807,0.203C83.478,43.226,84.191,42.795,84.182,42.585z"/>
			<path fill="#FFFFFF" d="M42.764,29.934c-0.069,0.009-0.136,0.023-0.187,0.025c0.106-0.004,0.191-0.01,0.264-0.026
				c0.301-0.007,0.577-0.049,0.497-0.121c0.032-0.011,0.085-0.024,0.116-0.033c-0.178-0.167-0.888-0.088-1.119-0.069
				c-0.063,0.035-0.056,0.043,0.057,0.039c-0.031,0.012-0.075,0.025-0.111,0.032c0.033,0.016,0.104-0.004,0.28-0.01
				c-0.108,0.069-0.231,0.096-0.367,0.079C42.247,29.908,42.504,29.934,42.764,29.934z"/>
			<path fill="#FFFFFF" d="M41.799,30.108c0.057-0.003,0.133-0.021,0.18-0.043c-0.131-0.016-0.033-0.081-0.242-0.073
				C41.666,30.033,41.71,30.112,41.799,30.108z"/>
			<path fill="#FFFFFF" d="M42.626,30.329c-0.11,0.031-0.346,0.057-0.464,0.134c0.186-0.118,1.094,0.165,1.09-0.303
				c0,0.005-0.726-0.003-0.792,0.008c-0.042,0.044,0.073,0.04,0.215,0.034c-0.191,0.119-0.352-0.044-0.523,0.059
				c0.005,0.014,0.029,0.031,0.062,0.045C42.369,30.294,42.521,30.292,42.626,30.329z"/>
			<path fill="#FFFFFF" d="M44.376,30.293c-0.566,0.101,0.508,0.121,0.665,0.117c0.582-0.335,1.813,0.263,2.475-0.151
				c0,0-0.061,0.005-0.119,0.001c0.056-0.024,0.114-0.039,0.174-0.041c-0.028-0.168-2.663,0.063-2.475,0.012
				c-0.069-0.031-0.366,0.026-0.281-0.06c0.117-0.005,0.236-0.009,0.353-0.014c-0.049-0.135-1.404-0.149-1.535-0.068
				c0.137,0.06,0.281,0.091,0.434,0.089C44.237,30.074,44.341,30.113,44.376,30.293z"/>
			<path fill="#FFFFFF" d="M41.467,31.793c0.186-0.402-0.928-0.007-0.701-0.048C40.179,31.834,41.303,31.835,41.467,31.793z"/>
			<path fill="#FFFFFF" d="M40.938,31.015c0.309,0.429,1.133,0.146,1.46-0.057c-0.042-0.006-0.145-0.009-0.175-0.011
				c0.229-0.159-0.087-0.06-0.206-0.049c0.168-0.035,0.331-0.086,0.489-0.155c-0.058,0.038-1.527,0.105-0.867,0.121
				C41.391,31.032,41.167,30.863,40.938,31.015z"/>
			<path fill="#FFFFFF" d="M44.494,29.952c0.092,0.003,0.174-0.023,0.244-0.074c-0.24,0.023-0.485,0.002-0.723,0.061
				C44.015,29.938,44.452,29.954,44.494,29.952z"/>
			<path fill="#FFFFFF" d="M42.213,30.306c-0.005,0-0.01,0-0.015,0c0.012,0.003,0.023,0.006,0.027,0.006
				C42.22,30.311,42.217,30.308,42.213,30.306z"/>
			<path fill="#FFFFFF" d="M41.75,30.319c-0.011,0.011-0.022,0.021-0.032,0.033c0.125-0.005,0.304-0.031,0.48-0.046
				c-0.105-0.027-0.498-0.178-0.496-0.065c0-0.002-0.001-0.005-0.002-0.007l-0.101,0.06C41.632,30.312,41.65,30.333,41.75,30.319z"
				/>
			<path fill="#FFFFFF" d="M44.194,29.567c0.034-0.019,0.066-0.037,0.1-0.055c-0.057,0.002-0.173,0.003-0.284,0.009
				C43.89,29.587,44.332,29.563,44.194,29.567z"/>
			<path fill="#FFFFFF" d="M45.354,29.726c-0.043,0.016-0.079,0.014-0.114,0.012c-0.01,0.004-0.025,0.007-0.031,0.012
				C45.273,29.745,45.313,29.735,45.354,29.726z"/>
			<path fill="#FFFFFF" d="M45.132,29.552c-0.086,0.002-0.156,0.01-0.187,0.029C45.019,29.57,45.074,29.563,45.132,29.552z"/>
			<path fill="#FFFFFF" d="M44.42,29.847c0.206-0.242-0.673-0.182-0.457-0.002C43.537,29.892,44.217,29.853,44.42,29.847z"/>
			<path fill="#FFFFFF" d="M45.199,29.539c-0.024,0.007-0.045,0.01-0.067,0.014c0.234-0.006,0.596,0.032,0.702,0.039
				c-0.25,0.003-0.497,0.029-0.741,0.077c0.039,0.049,0.09,0.067,0.147,0.07c0.162-0.063,0.787-0.015,0.985-0.022
				c0.013-0.022-0.014-0.026-0.019-0.052c0.229-0.054,0.622-0.085,0.848,0.091c-0.143,0.008-1.19-0.11-0.73,0.094
				c-0.174,0.013-0.343,0.04-0.51,0.081c0.832-0.08,2.152,0.397,2.717-0.148c0.028-0.027-0.208-0.014-0.302-0.006
				c0.138-0.12,0.442-0.061,0.512-0.224c0.337-0.021,0.512-0.106,0.857-0.175c-0.005-0.034-0.074-0.042-0.143-0.053
				c0.13-0.001,0.211,0,0.253-0.055c-0.066,0.003-0.131,0.005-0.197,0.008c0.741-0.189,1.545-0.168,2.286-0.377
				c-0.138,0.001-0.371,0.02-0.416,0.004c0.072-0.012,0.908-0.011,0.953-0.104c0.062-0.125-1.343,0.087-0.81-0.046
				c-1.029-0.367-3.927-0.11-4.948,0.271c0.188-0.006,0.371-0.025,0.56-0.031c-0.11,0.012-0.17,0.02-0.295,0.047
				c0.216,0.036,0.423-0.047,0.641-0.037c-0.233,0.024-0.415,0.022-0.619,0.09c0.124-0.004,0.249-0.008,0.373-0.012
				c-0.088,0.012-0.175,0.024-0.263,0.035c0.04,0.059,0.214,0.081,0.444,0.083c0.13,0.039,0.082,0.057-0.138,0.055
				c0.09,0.013,0.331,0.1,0.304,0.118c-0.461,0.318-0.536-0.044-0.815,0.118c0.143-0.082,0.188-0.119-0.028-0.115
				c0.004,0.005,0.007,0.011,0.011,0.017c-0.189,0.106-0.769-0.139-1.051-0.138c-0.059,0.034,0.077,0.032,0.149,0.044
				c-0.166,0.003-0.331,0.015-0.495,0.035c0.015,0.024,0.039,0.028,0.06,0.041c-0.129-0.005-0.265-0.014-0.361,0.04
				c0.08,0.042,0.166,0.056,0.258,0.046c-0.141,0-0.291,0.003-0.436,0.008C44.757,29.545,44.917,29.548,45.199,29.539z
				 M47.673,29.193c0.16-0.007,0.33-0.02,0.495-0.034c-0.019,0.007-0.039,0.015-0.051,0.024c-0.023,0.015,0.147,0.057,0.167,0.069
				C48.079,29.267,47.88,29.211,47.673,29.193z M48.812,29.089c0.104-0.013,0.178-0.022,0.194-0.024
				C48.964,29.078,48.894,29.083,48.812,29.089z"/>
			<path fill="#FFFFFF" d="M45.813,29.928c-0.181,0.018-0.34,0.062-0.462,0.148C45.502,30.014,45.656,29.966,45.813,29.928z"/>
			<path fill="#FFFFFF" d="M44.42,29.847c-0.003,0.003-0.001,0.005-0.004,0.009C44.503,29.847,44.486,29.845,44.42,29.847z"/>
			<path fill="#FFFFFF" d="M47.247,29.254c0.013,0,0.02-0.001,0.032,0C47.263,29.252,47.251,29.251,47.247,29.254z"/>
			<path fill="#FFFFFF" d="M46.757,30.586c-0.086,0.066,0.255,0.145,0.276,0.144c0.234-0.008,0.7,0.006,0.926-0.102
				C47.675,30.571,47.028,30.383,46.757,30.586z"/>
		</g>
	</g>
</g>
</svg>
