<svg xmlns="http://www.w3.org/2000/svg" viewBox="-10 0 1626 1560" width="1626" height="1560"><path d="M1425 0q66 0 119 33 72 46 72 131 0 53-45 133-127 221-318 388-107 93-165 93-41 0-68-36-20-26-20-51 0-40 51-89 152-146 231-294 22-41 22-54 0-16-27-16-24 0-64 3-21 2-136 9-85 6-727 59-216 18-233 18-127 0-127-117 0-100 102-119 12-2 711-50 609-41 622-41ZM781 414q52 0 93 33 25 19 33 43 10 30 10 103 0 267-40 421-87 331-394 517-49 29-87 29-45 0-68-31-21-28-21-59 0-37 28-72 12-16 65-59 189-153 236-417 23-131 23-328l-1-55q0-75 56-107 31-18 67-18z" style="fill:currentColor"/></svg>