<svg xmlns="http://www.w3.org/2000/svg" viewBox="-10 0 1509 1749" width="1509" height="1749"><path d="M600 387V123q0-55 33-88 36-35 93-35 78 0 111 60 15 27 15 63v250l32-2q353-23 394-26 22-2 34-2 88 0 138 58 49 56 49 151 0 79-32 218-77 333-271 569-151 183-369 318-146 92-210 92-53 0-77-35-20-28-20-60 0-46 38-77 11-9 61-39 213-129 379-337 111-141 172-327 51-157 51-263 0-36-36-36-23 0-58 3-215 21-869 55l31 315q1 10 1 16 4 81-79 109-26 9-55 9-62 0-95-46-17-24-20-55L-8 495q-2-17-2-23 0-118 132-118 76 0 105 55l22-1 103-6q198-12 248-15z" style="fill:currentColor"/></svg>