<?xml version="1.0" standalone="no"?>
<!DOCTYPE svg PUBLIC "-//W3C//DTD SVG 1.1//EN" "http://www.w3.org/Graphics/SVG/1.1/DTD/svg11.dtd" >
<svg xmlns="http://www.w3.org/2000/svg" xmlns:xlink="http://www.w3.org/1999/xlink" version="1.1" viewBox="-10 0 2058 2048">
   <path fill="currentColor"
d="M797 559l-50 -250q-4 -22 -4 -41q0 -70 54 -99q32 -18 74 -18q103 0 124 107l51 252q247 -52 346 -76q26 -7 48 -7q73 0 104 59q15 29 15 62q0 87 -101 113q-72 18 -332 71l-35 7l58 283q128 -26 530 -111q29 -6 47 -6q76 0 105 64q12 27 12 59q0 75 -75 105
q-16 6 -69 17q-140 28 -456 95l-47 10l100 500q4 18 4 40q0 75 -58 105q-32 17 -75 17q-100 0 -123 -113l-98 -496l-41 9l-341 73q-216 46 -236 46q-73 0 -102 -65q-12 -28 -12 -63q0 -77 82 -105q12 -4 352 -75l205 -43l46 -10l-55 -285l-30 6q-362 67 -406 67
q-112 0 -112 -122q0 -99 134 -118q159 -24 367 -64z" />
</svg>
