<?xml version="1.0" standalone="no"?>
<!DOCTYPE svg PUBLIC "-//W3C//DTD SVG 1.1//EN" "http://www.w3.org/Graphics/SVG/1.1/DTD/svg11.dtd" >
<svg xmlns="http://www.w3.org/2000/svg" xmlns:xlink="http://www.w3.org/1999/xlink" version="1.1" viewBox="-10 0 2058 2048">
   <path fill="currentColor"
d="M1251 637v-342q0 -51 31 -82q36 -35 96 -35q84 0 116 60q13 24 13 57v321q171 -10 280 -21q17 -2 28 -2q116 0 116 113q0 89 -62 111q-20 8 -72 12l-205 15l-63 4l-24 2q-18 352 -102 564q-106 264 -361 438q-52 35 -96 35q-43 0 -69 -33q-23 -29 -23 -60q0 -34 21 -61
q10 -14 70 -63q198 -163 266 -474q28 -129 38 -326l-38 3q-196 14 -363 27l-31 3v313q0 38 -18 66q-32 51 -107 51q-80 0 -110 -59q-13 -25 -13 -58v-295l-22 2q-215 15 -271 20q-27 2 -40 2q-118 0 -118 -122q0 -75 54 -104q25 -13 72 -15q14 -1 154 -9l139 -7l32 -2v-307
q0 -43 21 -71q33 -44 102 -44q82 0 112 58q13 25 13 57v290q248 -17 434 -32z" />
</svg>
