<svg xmlns="http://www.w3.org/2000/svg" viewBox="-10 0 1586 1475" width="1586" height="1475"><path d="M842 939q-282 286-584 463-125 73-170 73-53 0-82-48-16-26-16-49 0-44 41-80 10-9 71-48 242-154 505-412 266-262 391-516 21-43 21-58 0-18-20-18-14 0-45 5-59 9-466 39-70 5-121 9-20 2-30 2-81 0-111-60-13-26-13-59 0-83 79-109 24-8 106-12 281-12 716-59 18-2 33-2 87 0 140 51 48 45 48 116 0 53-53 162-103 215-303 461 330 206 514 386 83 82 83 149 0 52-39 92-40 42-94 42-53 0-94-39-5-5-35-38-206-221-472-443z" style="fill:currentColor"/></svg>