<svg xmlns="http://www.w3.org/2000/svg" viewBox="-10 0 1588 1549" width="1588" height="1549"><path d="M435 539q-1-254-4-299-4-79-4-120Q427 0 555 0q106 0 123 90 3 14 9 266l1 90 1 32 51-13q568-140 607-151 30-8 55-8 71 0 123 43 53 44 53 110 0 96-186 326-176 218-260 218-38 0-64-29-20-22-20-49 0-38 48-98 97-121 150-224 12-22 12-30 0-6-9-6-17 0-518 131l-44 11v35l-2 434q0 73 36 105 33 30 120 30 298 0 483-26 27-4 42-4 75 0 102 71 10 27 10 60 0 98-105 118-92 17-534 17-176 0-267-47-86-45-120-134-21-55-21-159 0-127 3-398l1-38q-74 18-171 43-142 36-172 36-59 0-84-49-18-35-18-71 0-76 78-106 10-4 239-57l98-23z" style="fill:currentColor"/></svg>