<svg xmlns="http://www.w3.org/2000/svg" viewBox="-10 0 1310 1642" width="1310" height="1642"><path d="m720 99 379-14 16-1q185 0 185 158 0 48-24 133-198 698-810 1107-240 160-328 160-46 0-72-40-18-28-18-53 0-40 38-73 13-11 72-47 294-180 511-423-144-148-262-242-55-43-55-85 0-26 17-49 28-37 74-37 38 0 93 25 159 71 288 177 125-202 180-393 16-55 16-68 0-22-32-22h-6l-371 19Q403 608 185 754q-70 47-116 47-42 0-64-33-15-22-15-48 0-35 29-71 10-12 62-59 173-158 314-385 38-62 67-120Q504 0 588 0q60 0 100 41 23 23 32 58z" style="fill:currentColor"/></svg>