<?xml version="1.0" standalone="no"?>
<!DOCTYPE svg PUBLIC "-//W3C//DTD SVG 1.1//EN" "http://www.w3.org/Graphics/SVG/1.1/DTD/svg11.dtd" >
<svg xmlns="http://www.w3.org/2000/svg" xmlns:xlink="http://www.w3.org/1999/xlink" version="1.1" viewBox="-10 0 2058 2048">
   <path fill="currentColor"
d="M916 852v-244q0 -25 8 -45q-317 91 -395 91q-90 0 -90 -91q0 -47 37 -70q14 -9 92 -30q264 -72 528 -212q72 -38 123 -72q45 -29 89 -29q63 0 103 53q26 35 26 79q0 66 -70 106q-98 57 -263 118q66 33 66 102v227l42 -3l252 -17q276 -17 284 -17q116 0 116 114
q0 76 -44 101q-29 17 -118 21q-227 10 -534 31q-18 262 -95 428q-100 214 -308 354q-54 36 -97 36q-48 0 -77 -44q-18 -28 -18 -53q0 -44 59 -95q177 -152 239 -349q34 -107 43 -261q-361 29 -576 51q-23 2 -35 2q-51 0 -84 -25q-43 -33 -43 -98q0 -83 81 -105q16 -4 71 -8
q452 -36 588 -46z" />
</svg>
