<svg xmlns="http://www.w3.org/2000/svg" viewBox="-10 0 1565 1549" width="1565" height="1549"><path d="M83 164q68 0 199 159 144 175 144 269 0 59-47 99-45 39-100 39-78 0-116-101-59-163-144-299-29-47-29-79 0-31 25-56 30-31 68-31ZM598 0q65 0 147 119 86 126 132 253 16 45 16 84 0 77-58 116-39 25-84 25-80 0-112-74-5-11-15-51-46-186-103-316-17-40-17-72 0-43 35-66 27-18 59-18Zm815 60q40 0 77 19 65 34 65 113 0 69-44 238-186 708-795 1060-102 59-148 59-55 0-81-48-14-26-14-50 0-52 73-101 363-242 550-586 139-255 194-575 23-129 123-129z" style="fill:currentColor"/></svg>