<?xml version="1.0" standalone="no"?>
<!DOCTYPE svg PUBLIC "-//W3C//DTD SVG 1.1//EN" "http://www.w3.org/Graphics/SVG/1.1/DTD/svg11.dtd" >
<svg xmlns="http://www.w3.org/2000/svg" xmlns:xlink="http://www.w3.org/1999/xlink" version="1.1" viewBox="-10 0 2058 2048">
   <path fill="currentColor"
d="M942 1026q-291 17 -627 44q-26 2 -34 2q-74 0 -102 -58q-14 -27 -14 -65q0 -99 106 -111q137 -16 1271 -76q210 -11 218 -11q57 0 90 34q30 31 30 83q0 89 -69 113q-22 7 -85 9q-138 4 -467 18l-49 1q-17 473 -287 720q-156 143 -246 143q-44 0 -71 -35q-24 -32 -24 -64
q0 -39 31 -69q10 -11 63 -51q165 -125 228 -352q30 -110 38 -275zM1384 241q54 0 87 32q32 30 32 80q0 98 -90 119q-52 13 -270 31q-296 25 -501 25q-147 0 -147 -120q0 -80 72 -105q25 -8 109 -9q270 0 586 -38q31 -3 73 -10q33 -5 49 -5z" />
</svg>
