<svg xmlns="http://www.w3.org/2000/svg" viewBox="-10 0 1715 1631" width="1715" height="1631"><path d="M767 785q-291 17-627 44-26 2-34 2-74 0-102-58-14-27-14-65 0-99 106-111 137-16 1271-76 210-11 218-11 57 0 90 34 30 31 30 83 0 89-69 113-22 7-85 9-138 4-467 18l-49 1q-17 473-287 720-156 143-246 143-44 0-71-35-24-32-24-64 0-39 31-69 10-11 63-51 165-125 228-352 30-110 38-275zM1209 0q54 0 87 32 32 30 32 80 0 98-90 119-52 13-270 31-296 25-501 25-147 0-147-120 0-80 72-105 25-8 109-9 270 0 586-38 31-3 73-10 33-5 49-5z" style="fill:currentColor"/></svg>