<?xml version="1.0" standalone="no"?>
<!DOCTYPE svg PUBLIC "-//W3C//DTD SVG 1.1//EN" "http://www.w3.org/Graphics/SVG/1.1/DTD/svg11.dtd" >
<svg xmlns="http://www.w3.org/2000/svg" xmlns:xlink="http://www.w3.org/1999/xlink" version="1.1" viewBox="-10 0 2058 2048">
   <path fill="currentColor"
d="M1108 940q129 -205 181 -365q13 -41 13 -55q0 -19 -27 -19q-13 0 -49 4q-228 23 -542 41q-24 1 -30 1q-119 0 -119 -119q0 -86 70 -109q22 -7 101 -10q398 -17 678 -48q19 -2 32 -2q99 0 150 68q32 42 32 101q0 39 -22 109q-85 270 -261 538q144 105 218 171
q59 53 59 114q0 47 -33 86q-40 47 -100 47q-52 0 -104 -50q-68 -67 -189 -173q-304 345 -665 510q-55 25 -94 25q-50 0 -74 -42q-15 -27 -15 -53q0 -45 38 -79q11 -9 71 -46q308 -185 550 -469q-136 -102 -241 -168q-68 -43 -68 -96q0 -22 14 -45q24 -39 74 -39q36 0 83 24
q124 62 269 148z" />
</svg>
