<?xml version="1.0" standalone="no"?>
<!DOCTYPE svg PUBLIC "-//W3C//DTD SVG 1.1//EN" "http://www.w3.org/Graphics/SVG/1.1/DTD/svg11.dtd" >
<svg xmlns="http://www.w3.org/2000/svg" xmlns:xlink="http://www.w3.org/1999/xlink" version="1.1" viewBox="-10 0 2058 2048">
   <path fill="currentColor"
d="M899 1270q-248 156 -491 250q-95 37 -133 37q-51 0 -74 -37q-16 -26 -16 -53q0 -53 49 -85q16 -11 69 -34q248 -108 493 -278q235 -164 381 -330q35 -40 35 -52q0 -11 -18 -11q-8 0 -39 4q-96 14 -581 61q-20 2 -29 2q-46 0 -77 -25q-38 -31 -38 -90q0 -85 72 -109
q19 -6 91 -9q331 -16 759 -68q21 -2 35 -2q58 0 100 30q60 42 60 112q0 60 -55 136q-144 199 -374 393q27 29 27 65v666q0 102 -122 102q-124 0 -124 -102v-573zM811 83q95 0 255 90q59 33 95 64q47 41 47 96q0 47 -39 86q-41 42 -94 42q-51 0 -103 -54q-86 -91 -192 -157
q-59 -37 -59 -88q0 -28 20 -48q31 -31 70 -31zM1337 1070q45 0 136 42q354 161 354 292q0 47 -36 91t-92 44q-52 0 -111 -58q-117 -114 -290 -236q-55 -40 -55 -86q0 -23 12 -45q24 -44 82 -44z" />
</svg>
