<?xml version="1.0" standalone="no"?>
<!DOCTYPE svg PUBLIC "-//W3C//DTD SVG 1.1//EN" "http://www.w3.org/Graphics/SVG/1.1/DTD/svg11.dtd" >
<svg xmlns="http://www.w3.org/2000/svg" xmlns:xlink="http://www.w3.org/1999/xlink" version="1.1" viewBox="-10 0 2058 2048">
   <path fill="currentColor"
d="M771 517q62 0 138 48q34 21 116 87q591 483 814 650q67 50 67 120q0 59 -43 103q-41 40 -94 40q-52 0 -97 -36q-112 -89 -686 -605q-134 -119 -144 -127q-36 -28 -63 -28q-31 0 -91 68q-192 219 -332 355q-48 47 -102 47q-48 0 -87 -36q-47 -44 -47 -94q0 -44 34 -78
q5 -6 41 -36q126 -103 368 -356q61 -63 93 -85q56 -37 115 -37z" />
</svg>
