<svg xmlns="http://www.w3.org/2000/svg" viewBox="-10 0 1684 1733" width="1684" height="1733"><path d="M725 416V117q0-52 31-82 35-35 94-35 79 0 111 59 14 25 14 58v283l38-3 125-10 224-18q106-9 118-9 48 0 80 35 31 34 31 86 0 108-99 119-67 7-515 35 3 431 5 629 3 193 3 229 0 103-39 162-52 78-135 78-39 0-87-27-130-75-247-152-54-35-54-82 0-21 12-44 22-42 72-42 23 0 55 13 125 49 145 49 13 0 19-10 7-12 7-71l-1-144-3-332-2-174v-65l-39 2-233 16q-253 17-260 17-54 0-84-32-29-31-29-84 0-89 67-115 23-8 80-10 94-4 455-27zM325 864q29 0 54 14 53 30 53 95 0 56-45 171-69 179-156 275-50 56-111 56-43 0-79-27-51-38-51-97 0-50 54-114 107-125 183-296 34-77 98-77zm956-42q93 0 286 256 107 144 107 216 0 66-58 107-44 31-88 31-76 0-119-102-77-183-190-345-31-44-31-78 0-31 23-54 30-31 70-31z" style="fill:currentColor"/></svg>