<?xml version="1.0" standalone="no"?>
<!DOCTYPE svg PUBLIC "-//W3C//DTD SVG 1.1//EN" "http://www.w3.org/Graphics/SVG/1.1/DTD/svg11.dtd" >
<svg xmlns="http://www.w3.org/2000/svg" xmlns:xlink="http://www.w3.org/1999/xlink" version="1.1" viewBox="-10 0 2058 2048">
   <path fill="currentColor"
d="M895 571v-299q0 -52 31 -82q35 -35 94 -35q79 0 111 59q14 25 14 58v283l38 -3l125 -10l224 -18q106 -9 118 -9q48 0 80 35q31 34 31 86q0 108 -99 119q-67 7 -515 35q3 431 5 629q3 193 3 229q0 103 -39 162q-52 78 -135 78q-39 0 -87 -27q-130 -75 -247 -152
q-54 -35 -54 -82q0 -21 12 -44q22 -42 72 -42q23 0 55 13q125 49 145 49q13 0 19 -10q7 -12 7 -71l-1 -144l-3 -332l-2 -174v-65l-39 2l-233 16q-253 17 -260 17q-54 0 -84 -32q-29 -31 -29 -84q0 -89 67 -115q23 -8 80 -10q94 -4 455 -27zM495 1019q29 0 54 14q53 30 53 95
q0 56 -45 171q-69 179 -156 275q-50 56 -111 56q-43 0 -79 -27q-51 -38 -51 -97q0 -50 54 -114q107 -125 183 -296q34 -77 98 -77zM1451 977q93 0 286 256q107 144 107 216q0 66 -58 107q-44 31 -88 31q-76 0 -119 -102q-77 -183 -190 -345q-31 -44 -31 -78q0 -31 23 -54
q30 -31 70 -31z" />
</svg>
