<svg xmlns="http://www.w3.org/2000/svg" viewBox="-10 0 984 1571" width="984" height="1571"><path d="M195 0q52 0 190 29 271 56 447 153 92 51 92 135 0 39-27 76-37 52-104 52-40 0-115-40-255-137-502-212-92-28-92-97 0-38 24-64 30-32 87-32Zm16 504q45 0 161 29 243 61 377 135 96 53 96 139 0 44-30 82-38 46-97 46-44 0-113-40-221-129-431-209-71-27-71-89 0-93 108-93ZM97 1022q48 0 194 40 382 106 593 236 90 56 90 140 0 48-32 86-38 47-97 47-47 0-130-45-355-193-634-302-91-36-91-98 0-104 107-104z" style="fill:currentColor"/></svg>