<?xml version="1.0" standalone="no"?>
<!DOCTYPE svg PUBLIC "-//W3C//DTD SVG 1.1//EN" "http://www.w3.org/Graphics/SVG/1.1/DTD/svg11.dtd" >
<svg xmlns="http://www.w3.org/2000/svg" xmlns:xlink="http://www.w3.org/1999/xlink" version="1.1" viewBox="-10 0 2058 2048">
   <path fill="currentColor"
d="M1485 1505q-391 87 -866 171q-169 29 -192 29q-71 0 -118 -40q-53 -46 -53 -120q0 -50 28 -99q10 -18 55 -85q178 -267 389 -683q87 -172 143 -300q38 -89 121 -89q41 0 81 23q65 38 65 105q0 37 -19 76q-82 169 -252 455q-149 250 -275 438q-14 21 -14 32q0 13 22 13
q9 0 64 -8q530 -75 710 -106q-95 -150 -145 -222q-31 -44 -31 -79q0 -40 33 -71q26 -24 59 -24q50 0 111 56q112 103 255 298q92 124 142 214q32 56 32 110q0 65 -50 107q-45 37 -103 37q-76 0 -115 -82q-35 -76 -77 -156z" />
</svg>
