<?xml version="1.0" standalone="no"?>
<!DOCTYPE svg PUBLIC "-//W3C//DTD SVG 1.1//EN" "http://www.w3.org/Graphics/SVG/1.1/DTD/svg11.dtd" >
<svg xmlns="http://www.w3.org/2000/svg" xmlns:xlink="http://www.w3.org/1999/xlink" version="1.1" viewBox="-10 0 2058 2048">
   <path fill="currentColor"
d="M1028 841q131 -227 235 -519q39 -112 128 -112q35 0 65 12q78 32 78 114q0 33 -24 95q-107 279 -267 548q127 91 215 176q54 52 54 118q0 65 -50 105q-34 28 -79 28q-57 0 -113 -57q-79 -80 -174 -159q-266 334 -588 524q-126 74 -180 74q-46 0 -74 -38q-21 -29 -21 -58
q0 -43 40 -79q11 -9 72 -49q296 -194 556 -532q-135 -101 -255 -170q-66 -38 -66 -91q0 -22 10 -42q26 -52 88 -52q79 0 350 164z" />
</svg>
