<svg xmlns="http://www.w3.org/2000/svg" viewBox="-10 0 1662 1672" width="1662" height="1672"><path d="m500 491-7-25q-79-326-79-351 0-74 70-101 35-14 71-14 89 0 113 116 30 142 75 322 466-107 668-160 40-10 73-10 74 0 122 44 46 43 46 111 0 58-50 156-104 200-269 360-89 85-144 85-38 0-65-27-29-29-29-64 0-38 51-93 118-128 175-257 13-29 13-41 0-15-16-15-10 0-49 10-180 49-470 120 140 566 218 844 8 30 8 52 0 86-83 111-28 8-58 8-83 0-109-93-63-224-220-863-418 101-453 101-71 0-98-63-14-32-14-63 0-95 134-121 148-29 376-79Z" style="fill:currentColor"/></svg>