<?xml version="1.0" standalone="no"?>
<!DOCTYPE svg PUBLIC "-//W3C//DTD SVG 1.1//EN" "http://www.w3.org/Graphics/SVG/1.1/DTD/svg11.dtd" >
<svg xmlns="http://www.w3.org/2000/svg" xmlns:xlink="http://www.w3.org/1999/xlink" version="1.1" viewBox="-10 0 2058 2048">
   <path fill="currentColor"
d="M1356 872l1 -16q12 -164 14 -186q2 -19 2 -29q0 -37 -37 -37q-111 0 -554 42q-232 22 -259 22q-112 0 -112 -124q0 -81 76 -104q16 -4 337 -28q545 -40 596 -44q19 -2 30 -2q127 0 176 110q18 40 18 88q0 18 -23 277q-18 205 -62 551q70 25 70 114q0 84 -72 107
q-21 7 -99 11q-867 49 -941 54q-16 1 -24 1q-114 0 -114 -124q0 -80 71 -102q19 -5 87 -8q146 -7 714 -43l56 -3q18 -164 29 -302q-216 12 -756 51q-19 1 -29 1q-110 0 -110 -111q0 -101 101 -112q80 -9 761 -50z" />
</svg>
