<svg xmlns="http://www.w3.org/2000/svg" viewBox="-10 0 1265 1313" width="1265" height="1313"><path d="m967 506 1-16q12-164 14-186 2-19 2-29 0-37-37-37-111 0-554 42-232 22-259 22-112 0-112-124 0-81 76-104 16-4 337-28Q980 6 1031 2q19-2 30-2 127 0 176 110 18 40 18 88 0 18-23 277-18 205-62 551 70 25 70 114 0 84-72 107-21 7-99 11-867 49-941 54-16 1-24 1-114 0-114-124 0-80 71-102 19-5 87-8 146-7 714-43l56-3q18-164 29-302-216 12-756 51-19 1-29 1-110 0-110-111 0-101 101-112 80-9 761-50z" style="fill:currentColor"/></svg>