<?xml version="1.0" standalone="no"?>
<!DOCTYPE svg PUBLIC "-//W3C//DTD SVG 1.1//EN" "http://www.w3.org/Graphics/SVG/1.1/DTD/svg11.dtd" >
<svg xmlns="http://www.w3.org/2000/svg" xmlns:xlink="http://www.w3.org/1999/xlink" version="1.1" viewBox="-10 0 2058 2048">
   <path fill="currentColor"
d="M1377 249q52 0 82 41q23 32 23 75q0 101 -95 116q-75 11 -221 24q-39 3 -327 19q-176 10 -236 10q-126 0 -126 -117q0 -89 74 -111q19 -5 87 -6q276 -4 646 -41q13 -2 64 -8q19 -2 29 -2zM1536 708q114 0 164 80q28 46 28 108q0 90 -61 233q-134 316 -447 545
q-166 121 -347 188q-45 17 -77 17q-44 0 -68 -36q-20 -29 -20 -62q0 -45 42 -76q9 -6 88 -47q197 -102 373 -289q146 -156 216 -320q24 -55 24 -77q0 -24 -36 -24q-16 0 -360 22l-428 30q-245 18 -253 18q-61 0 -94 -45q-20 -29 -20 -70q0 -107 102 -121q64 -9 969 -62
q72 -4 111 -7q79 -5 94 -5z" />
</svg>
