<svg xmlns="http://www.w3.org/2000/svg" viewBox="-10 0 1468 1630" width="1468" height="1630"><path d="M1107 0q52 0 82 41 23 32 23 75 0 101-95 116-75 11-221 24-39 3-327 19-176 10-236 10-126 0-126-117 0-89 74-111 19-5 87-6 276-4 646-41 13-2 64-8 19-2 29-2zm159 459q114 0 164 80 28 46 28 108 0 90-61 233-134 316-447 545-166 121-347 188-45 17-77 17-44 0-68-36-20-29-20-62 0-45 42-76 9-6 88-47 197-102 373-289 146-156 216-320 24-55 24-77 0-24-36-24-16 0-360 22l-428 30q-245 18-253 18-61 0-94-45-20-29-20-70 0-107 102-121 64-9 969-62 72-4 111-7 79-5 94-5z" style="fill:currentColor"/></svg>