<?xml version="1.0" standalone="no"?>
<!DOCTYPE svg PUBLIC "-//W3C//DTD SVG 1.1//EN" "http://www.w3.org/Graphics/SVG/1.1/DTD/svg11.dtd" >
<svg xmlns="http://www.w3.org/2000/svg" xmlns:xlink="http://www.w3.org/1999/xlink" version="1.1" viewBox="-10 0 2058 2048">
   <path fill="currentColor"
d="M776 354v698q0 54 -34 84q-35 31 -95 31q-84 0 -114 -57q-13 -24 -13 -58v-698q0 -70 56 -100q32 -17 70 -17q65 0 101 38q29 31 29 79zM1495 264v616q0 304 -73 514q-95 273 -353 458q-49 35 -95 35q-42 0 -64 -26t-22 -58q0 -43 46 -91q119 -123 165 -196
q99 -159 126 -383q14 -109 14 -251v-618q0 -104 126 -104q130 0 130 104z" />
</svg>
