<?xml version="1.0" standalone="no"?>
<!DOCTYPE svg PUBLIC "-//W3C//DTD SVG 1.1//EN" "http://www.w3.org/Graphics/SVG/1.1/DTD/svg11.dtd" >
<svg xmlns="http://www.w3.org/2000/svg" xmlns:xlink="http://www.w3.org/1999/xlink" version="1.1" viewBox="-10 0 2058 2048">
   <path fill="currentColor"
d="M545 616l35 367q1 11 1 19q0 127 -132 127q-109 0 -119 -113l-47 -521q-1 -10 -1 -22q0 -125 125 -125q68 0 101 45l72 -5q864 -52 949 -52q100 0 152 53q52 52 52 137q0 83 -49 270q-84 320 -238 544q-186 272 -469 434q-43 25 -76 25q-44 0 -71 -35q-21 -27 -21 -55
q0 -37 30 -68q9 -9 52 -42q189 -143 337 -371q124 -193 191 -457q30 -121 30 -172q0 -21 -14 -28q-9 -4 -40 -4q-130 0 -783 45z" />
</svg>
