<?xml version="1.0" standalone="no"?>
<!DOCTYPE svg PUBLIC "-//W3C//DTD SVG 1.1//EN" "http://www.w3.org/Graphics/SVG/1.1/DTD/svg11.dtd" >
<svg xmlns="http://www.w3.org/2000/svg" xmlns:xlink="http://www.w3.org/1999/xlink" version="1.1" viewBox="-10 0 2058 2048">
   <path fill="currentColor"
d="M460 366q41 0 141 36q187 66 309 156q64 47 64 117q0 39 -25 78q-38 58 -102 58q-55 0 -121 -51q-167 -132 -304 -210q-69 -39 -69 -92q0 -92 107 -92zM1746 686q34 0 65 23q41 30 41 81q0 42 -33 91q-230 344 -607 596q-314 209 -648 299q-35 9 -61 9q-85 0 -121 -78
q-16 -35 -16 -67q0 -73 73 -109q15 -7 133 -42q430 -126 801 -454q142 -126 268 -287q48 -62 105 -62z" />
</svg>
