<svg xmlns="http://www.w3.org/2000/svg" viewBox="0 0 90.834 89.063"><defs><style>.cls-1{fill:#cf8c56}.cls-2{fill:#fff}.cls-4{fill:#b8babc}.cls-5{fill:#ed1c24}.cls-6{fill:#840000}.cls-16,.cls-7,.cls-9{fill:none;stroke:#231f20;stroke-linecap:round;stroke-linejoin:round}.cls-7{stroke-width:.393px}.cls-8{fill:#231f20}.cls-9{stroke-width:.55px}.cls-11{fill:#fff200}.cls-12{fill:#945236}.cls-13{fill:#fde2d8}.cls-14{fill:#4c3b34}.cls-15{fill:#f9c2c6}.cls-16{stroke-width:.628px}</style></defs><g id="Layer_2" data-name="Layer 2"><g id="Layer_1-2" data-name="Layer 1"><path class="cls-1" d="M7.965 69.314h4.263v17.415H7.965zM31.82 69.314h4.263v17.415H31.82z"/><path class="cls-2" d="M4.699 4.825h32.925v63.219H4.699z"/><path d="M8.601 68.278a2.278 2.278 0 0 0 2.359-.41c.308-.411-.307-2.77-.41-3.18s-.82-.616-.308-.923.923-2.155.923-2.155.001-1.948-.41-2.36a5.69 5.69 0 0 1-.82-1.537 9.834 9.834 0 0 0 1.436-2.462l.512-2.36-.205-2.461-1.128-1.334-.41-1.025 1.025-1.642a18.686 18.686 0 0 0 0-2.461 3.963 3.963 0 0 0-1.025-1.847.717.717 0 0 1-.103-1.128c.411-.513 1.334-1.95 1.334-1.95l.41-2.358s.308-1.641-.308-2.36a14.469 14.469 0 0 1-1.436-1.641c-.205-.41.205-1.128.205-1.128s1.129-1.846 1.026-2.256.102-1.847-.308-2.155 0-1.025-.512-1.333.307-1.334.41-1.744.718-2.256.718-2.256-.308-2.565-.411-2.873-.41-2.051-.717-2.154-.924-.615-.513-.82 1.128-2.052 1.23-2.36a4.332 4.332 0 0 0-.307-1.846c-.205-.513-.411-1.538.102-1.744a2.78 2.78 0 0 1 2.052.103c.308.308 2.051.103 2.051.103a5.114 5.114 0 0 0 1.744-1.026 2.898 2.898 0 0 1 .616 1.026c.205.615.923.307 1.333.512s.82.718 1.539.616 1.298.11 1.743 0c.821-.205 2.667-.821 2.667-.821.718 0 1.334.41 1.642.205a3.74 3.74 0 0 0 .718-.923l.102.308a3.357 3.357 0 0 1 1.334.615c.41.41 1.846.206 1.846.206s2.599-1.584 2.872-1.334c1.231 1.128 1.949.923 1.949.923.718 0 2.036.872 2.146.23s.829-1.153.623-1.666-.469-2.883-1.26-3.134-17.28-1.166-17.28-1.166l-14.628.62s-.374 12.194-.476 12.604 1.333 40.107 1.333 40.107l.103 8.308Z" style="fill:#dedfe0"/><path class="cls-2" d="M10.13 4.059a5.052 5.052 0 0 1 .219-.986l1.279-.914 1.315-.365 1.206-.438s1.571.584 1.68.584a7.438 7.438 0 0 1 1.242.95c.073.11.402 1.644.402 1.644l.453 1.364a9.182 9.182 0 0 1-.928 1.303 11.988 11.988 0 0 1-.95.84c-.109.037-.767.292-.986.402a6.977 6.977 0 0 1-1.352.402c-.182 0-1.424-.292-1.571-.292s-1.461-.33-1.461-.33-.328-.876-.402-1.095a9.361 9.361 0 0 1-.402-1.388c.037-.11.256-1.681.256-1.681"/><path class="cls-4" d="m11.994 6.068.584 1.133a5.465 5.465 0 0 0 1.242.474c.11-.073 1.243-.876 1.316-.986s.402-1.242.402-1.242l-.512-1.425a11.682 11.682 0 0 1 .073 1.973c-.11.036-1.571.913-1.571.913l-.84-.438ZM15.172 2.451a15.953 15.953 0 0 1 1.571 1.571 4.252 4.252 0 0 1-.512.877c-.109.073-.255-.329-.255-.475a4.592 4.592 0 0 0-.329-1.096 8.211 8.211 0 0 0-.804-.804ZM14.843 7.858s.694-.913.767-1.023.548-1.242.548-1.242l-.036 1.242a4.345 4.345 0 0 1-.585.548 7.35 7.35 0 0 0-.694.475M10.752 5.264l.145-1.68a4.98 4.98 0 0 1 1.023-.549c.256-.036 0 .512-.146.695s-.84 1.497-.84 1.497l-.219.44Z"/><path class="cls-2" d="M26.885 4.059a4.98 4.98 0 0 1 .219-.986l1.279-.914 1.315-.365 1.206-.438s1.57.584 1.68.584a7.438 7.438 0 0 1 1.242.95c.073.11.402 1.644.402 1.644l.453 1.364a9.182 9.182 0 0 1-.928 1.303 11.988 11.988 0 0 1-.95.84c-.11.037-.767.292-.986.402a6.977 6.977 0 0 1-1.352.402c-.182 0-1.425-.292-1.571-.292s-1.461-.33-1.461-.33-.328-.876-.402-1.095a9.361 9.361 0 0 1-.402-1.388c.037-.11.256-1.681.256-1.681"/><path class="cls-4" d="m28.748 6.068.584 1.133a5.465 5.465 0 0 0 1.242.474c.11-.073 1.243-.876 1.316-.986s.402-1.242.402-1.242l-.512-1.425a11.693 11.693 0 0 1 .073 1.973c-.109.036-1.571.913-1.571.913l-.84-.438ZM31.927 2.451a15.844 15.844 0 0 1 1.57 1.571 4.247 4.247 0 0 1-.511.877c-.11.073-.255-.329-.255-.475a4.592 4.592 0 0 0-.33-1.096 8.211 8.211 0 0 0-.803-.804ZM31.598 7.858s.694-.913.767-1.023.548-1.242.548-1.242l-.036 1.242a4.345 4.345 0 0 1-.585.548 7.354 7.354 0 0 0-.694.475M27.506 5.264l.146-1.68a4.978 4.978 0 0 1 1.023-.549c.256-.036 0 .512-.146.695s-.84 1.497-.84 1.497l-.219.44Z"/><path class="cls-2" d="M35.524 11.782a4.979 4.979 0 0 1 .219-.986l1.279-.914 1.315-.365 1.206-.438s1.571.584 1.68.584a7.432 7.432 0 0 1 1.242.95 16.673 16.673 0 0 1 .11 1.818l.745 1.19a9.177 9.177 0 0 1-.928 1.303 11.79 11.79 0 0 1-.95.84c-.109.037-.767.292-.986.401a6.977 6.977 0 0 1-1.352.402c-.182 0-1.425-.292-1.571-.292a6.358 6.358 0 0 1-.979-.442s-1.171-.696-1.244-.915.304-1.099.262-1.768c-.007-.115-.048-1.369-.048-1.369"/><path class="cls-4" d="m37.387 13.79.585 1.134a5.456 5.456 0 0 0 1.241.474c.11-.073 1.243-.876 1.316-.986s.402-1.242.402-1.242l-.512-1.425a11.693 11.693 0 0 1 .073 1.973c-.109.037-1.57.913-1.57.913l-.84-.438ZM40.566 10.174a15.963 15.963 0 0 1 1.57 1.571 4.252 4.252 0 0 1-.511.877c-.11.073-.255-.329-.255-.475a4.59 4.59 0 0 0-.33-1.096 8.2 8.2 0 0 0-.803-.804ZM40.237 15.581s.694-.913.767-1.023.548-1.242.548-1.242l-.036 1.242a4.407 4.407 0 0 1-.585.548 7.35 7.35 0 0 0-.694.475M36.145 12.987l.146-1.68a4.977 4.977 0 0 1 1.023-.549c.256-.036 0 .512-.146.695s-.84 1.497-.84 1.497l-.22.44Z"/><path class="cls-2" d="M35.524 27.652a4.98 4.98 0 0 1 .219-.986l1.279-.914 1.315-.365 1.206-.438s1.571.584 1.68.584a7.438 7.438 0 0 1 1.242.95 16.655 16.655 0 0 1 .11 1.817l.745 1.19a9.182 9.182 0 0 1-.928 1.304 11.988 11.988 0 0 1-.95.84c-.109.037-.767.292-.986.402s-1.196.307-1.352.402c-.783.478-1.425-.292-1.571-.292a6.358 6.358 0 0 1-.979-.442s-1.171-.697-1.244-.916.304-1.098.262-1.767c-.007-.116-.048-1.37-.048-1.37"/><path class="cls-4" d="m37.387 29.66.585 1.134a5.456 5.456 0 0 0 1.241.474c.11-.073 1.243-.876 1.316-.986s.402-1.242.402-1.242l-.512-1.425a11.694 11.694 0 0 1 .073 1.973c-.109.037-1.57.913-1.57.913l-.84-.438ZM40.566 26.044a15.953 15.953 0 0 1 1.57 1.571 4.252 4.252 0 0 1-.511.877c-.11.073-.255-.329-.255-.475a4.591 4.591 0 0 0-.33-1.096 8.2 8.2 0 0 0-.803-.804ZM40.237 31.451s.694-.913.767-1.023.548-1.242.548-1.242l-.036 1.242a4.413 4.413 0 0 1-.585.548 7.333 7.333 0 0 0-.694.475M36.145 28.857l.146-1.68a4.972 4.972 0 0 1 1.023-.549c.256-.036 0 .512-.146.695s-.84 1.497-.84 1.497l-.22.44Z"/><path class="cls-2" d="M35.524 43.686a4.98 4.98 0 0 1 .219-.986l1.279-.914 1.315-.365 1.206-.438s1.571.584 1.68.584a7.438 7.438 0 0 1 1.242.95 16.655 16.655 0 0 1 .11 1.817l.745 1.191a9.182 9.182 0 0 1-.928 1.303 11.988 11.988 0 0 1-.95.84c-.109.037-.767.292-.986.402s-1.196.307-1.352.402c-.783.478-1.425-.292-1.571-.292a6.358 6.358 0 0 1-.979-.442s-1.171-.697-1.244-.916.304-1.098.262-1.768c-.007-.115-.048-1.368-.048-1.368"/><path class="cls-4" d="m37.387 45.695.585 1.133a5.504 5.504 0 0 0 1.241.475c.11-.073 1.243-.877 1.316-.987s.402-1.242.402-1.242l-.512-1.425a11.694 11.694 0 0 1 .073 1.973c-.109.037-1.57.913-1.57.913l-.84-.438ZM40.566 42.079a15.953 15.953 0 0 1 1.57 1.571 4.241 4.241 0 0 1-.511.876c-.11.074-.255-.328-.255-.475a4.597 4.597 0 0 0-.33-1.095 8.2 8.2 0 0 0-.803-.804ZM40.237 47.486s.694-.913.767-1.023.548-1.242.548-1.242l-.036 1.242a4.406 4.406 0 0 1-.585.548 7.332 7.332 0 0 0-.694.475M36.145 44.892l.146-1.68a4.977 4.977 0 0 1 1.023-.549c.256-.036 0 .512-.146.694s-.84 1.498-.84 1.498l-.22.44Z"/><path class="cls-2" d="M35.524 59.721a4.975 4.975 0 0 1 .219-.987l1.279-.913 1.315-.365 1.206-.439s1.571.585 1.68.585a7.438 7.438 0 0 1 1.242.95 16.64 16.64 0 0 1 .11 1.817l.745 1.191a9.129 9.129 0 0 1-.928 1.302 11.841 11.841 0 0 1-.95.841c-.109.036-.767.292-.986.402s-1.196.307-1.352.402c-.783.478-1.425-.292-1.571-.292a6.351 6.351 0 0 1-.979-.443s-1.171-.696-1.244-.916.304-1.097.262-1.767c-.007-.115-.048-1.368-.048-1.368"/><path class="cls-4" d="m37.387 61.73.585 1.132a5.504 5.504 0 0 0 1.241.476c.11-.074 1.243-.877 1.316-.987s.402-1.242.402-1.242l-.512-1.425a11.693 11.693 0 0 1 .073 1.973c-.109.037-1.57.913-1.57.913l-.84-.438ZM40.566 58.114a15.953 15.953 0 0 1 1.57 1.57 4.252 4.252 0 0 1-.511.878c-.11.073-.255-.33-.255-.476a4.597 4.597 0 0 0-.33-1.095 8.2 8.2 0 0 0-.803-.804ZM40.237 63.52s.694-.913.767-1.022.548-1.242.548-1.242l-.036 1.242a4.473 4.473 0 0 1-.585.548 7.332 7.332 0 0 0-.694.475M36.145 60.927l.146-1.681a4.924 4.924 0 0 1 1.023-.548c.256-.036 0 .511-.146.694s-.84 1.498-.84 1.498l-.22.439Z"/><path class="cls-2" d="M27.016 67.968a5.051 5.051 0 0 1 .219-.986l1.279-.914 1.315-.365 1.206-.438s1.57.584 1.68.584a7.432 7.432 0 0 1 1.242.95 16.638 16.638 0 0 1 .11 1.817l.745 1.19a9.177 9.177 0 0 1-.928 1.304 12.015 12.015 0 0 1-.95.84c-.11.037-.767.292-.986.402s-1.196.307-1.352.402c-.783.478-1.425-.292-1.571-.292a6.351 6.351 0 0 1-.98-.443s-1.17-.696-1.243-.916.304-1.097.262-1.767c-.007-.115-.048-1.368-.048-1.368"/><path class="cls-4" d="m28.88 69.977.583 1.132a5.47 5.47 0 0 0 1.242.475c.11-.073 1.243-.876 1.316-.986s.402-1.242.402-1.242l-.512-1.425a11.694 11.694 0 0 1 .073 1.973c-.109.036-1.57.913-1.57.913l-.84-.438ZM32.057 66.36a15.952 15.952 0 0 1 1.571 1.571 4.249 4.249 0 0 1-.512.877c-.109.073-.255-.329-.255-.475a4.59 4.59 0 0 0-.329-1.096 8.203 8.203 0 0 0-.804-.804ZM31.729 71.767s.694-.913.767-1.023.547-1.242.547-1.242l-.035 1.242a4.41 4.41 0 0 1-.586.548 7.335 7.335 0 0 0-.693.475M27.637 69.173l.146-1.68a4.93 4.93 0 0 1 1.023-.549c.256-.036 0 .512-.146.694s-.84 1.498-.84 1.498l-.22.44Z"/><path class="cls-2" d="M10.065 67.968a5.044 5.044 0 0 1 .219-.986l1.279-.914 1.315-.365 1.206-.438s1.57.584 1.68.584a7.432 7.432 0 0 1 1.242.95 16.64 16.64 0 0 1 .11 1.817l.744 1.19a9.177 9.177 0 0 1-.928 1.304 12.036 12.036 0 0 1-.95.84c-.109.037-.767.292-.986.402s-1.196.307-1.352.402c-.783.478-1.425-.292-1.57-.292a6.35 6.35 0 0 1-.98-.443s-1.17-.696-1.244-.916.304-1.097.262-1.767c-.007-.115-.048-1.368-.048-1.368"/><path class="cls-4" d="m11.928 69.977.584 1.132a5.47 5.47 0 0 0 1.242.475c.11-.073 1.243-.876 1.316-.986s.402-1.242.402-1.242l-.512-1.425a11.694 11.694 0 0 1 .073 1.973c-.109.036-1.57.913-1.57.913l-.84-.438ZM15.107 66.36a16.05 16.05 0 0 1 1.57 1.571 4.245 4.245 0 0 1-.511.877c-.11.073-.255-.329-.255-.475a4.59 4.59 0 0 0-.33-1.096 8.203 8.203 0 0 0-.803-.804ZM14.778 71.767s.694-.913.767-1.023.548-1.242.548-1.242l-.036 1.242a4.473 4.473 0 0 1-.585.548 7.335 7.335 0 0 0-.694.475M10.686 69.173l.146-1.68a4.93 4.93 0 0 1 1.023-.549c.256-.036 0 .512-.146.694s-.84 1.498-.84 1.498l-.22.44Z"/><path class="cls-2" d="M1.917 59.629a5.052 5.052 0 0 1 .22-.986l1.278-.914 1.315-.365 1.206-.438s1.571.583 1.68.583a7.438 7.438 0 0 1 1.242.95 16.673 16.673 0 0 1 .11 1.819l.745 1.19a9.182 9.182 0 0 1-.928 1.302 11.784 11.784 0 0 1-.95.84c-.109.038-.767.293-.986.403s-1.196.306-1.352.401c-.783.479-1.425-.291-1.57-.291a6.358 6.358 0 0 1-.98-.443s-1.17-.696-1.244-.915.304-1.098.262-1.767c-.007-.116-.048-1.37-.048-1.37"/><path class="cls-4" d="m3.78 61.638.585 1.133a5.512 5.512 0 0 0 1.242.474c.11-.072 1.243-.876 1.316-.986s.402-1.242.402-1.242l-.512-1.425a11.694 11.694 0 0 1 .073 1.973c-.11.036-1.571.913-1.571.913l-.84-.438ZM6.96 58.021a15.94 15.94 0 0 1 1.57 1.571 4.245 4.245 0 0 1-.512.877c-.109.073-.255-.329-.255-.475a4.599 4.599 0 0 0-.329-1.096 8.203 8.203 0 0 0-.804-.804ZM6.63 63.428s.694-.913.767-1.023.548-1.242.548-1.242l-.036 1.242a4.406 4.406 0 0 1-.585.548 7.526 7.526 0 0 0-.693.475M2.539 60.834l.146-1.68a4.974 4.974 0 0 1 1.023-.549c.256-.036 0 .512-.146.695s-.84 1.497-.84 1.497l-.22.44Z"/><path class="cls-2" d="M1.917 43.594a5.051 5.051 0 0 1 .22-.986l1.278-.914 1.315-.365 1.206-.438s1.571.584 1.68.584a7.432 7.432 0 0 1 1.242.95 16.654 16.654 0 0 1 .11 1.817l.745 1.191a9.177 9.177 0 0 1-.928 1.303 12.015 12.015 0 0 1-.95.84c-.109.037-.767.292-.986.402s-1.196.307-1.352.402c-.783.478-1.425-.292-1.57-.292a6.358 6.358 0 0 1-.98-.442s-1.17-.697-1.244-.916.304-1.098.262-1.768c-.007-.115-.048-1.368-.048-1.368"/><path class="cls-4" d="m3.78 45.603.585 1.133a5.512 5.512 0 0 0 1.242.474c.11-.073 1.243-.876 1.316-.986s.402-1.242.402-1.242l-.512-1.425a11.694 11.694 0 0 1 .073 1.973c-.11.036-1.571.913-1.571.913l-.84-.438ZM6.96 41.987a15.94 15.94 0 0 1 1.57 1.57 4.245 4.245 0 0 1-.512.878c-.109.073-.255-.33-.255-.475a4.599 4.599 0 0 0-.329-1.096 8.203 8.203 0 0 0-.804-.804ZM6.63 47.394s.694-.913.767-1.023.548-1.242.548-1.242L7.91 46.37a4.407 4.407 0 0 1-.585.548 7.35 7.35 0 0 0-.693.475M2.539 44.8l.146-1.681a4.98 4.98 0 0 1 1.023-.548c.256-.036 0 .512-.146.694s-.84 1.498-.84 1.498l-.22.439Z"/><path class="cls-2" d="M1.917 27.56a5.052 5.052 0 0 1 .22-.987l1.278-.914 1.315-.365 1.206-.438s1.571.584 1.68.584a7.433 7.433 0 0 1 1.242.95 16.652 16.652 0 0 1 .11 1.817l.745 1.191a9.177 9.177 0 0 1-.928 1.303 12.015 12.015 0 0 1-.95.84c-.109.037-.767.292-.986.402s-1.196.307-1.352.402c-.783.478-1.425-.292-1.57-.292a6.358 6.358 0 0 1-.98-.442s-1.17-.697-1.244-.916.304-1.098.262-1.767c-.007-.116-.048-1.369-.048-1.369"/><path class="cls-4" d="m3.78 29.569.585 1.133a5.465 5.465 0 0 0 1.242.473c.11-.073 1.243-.876 1.316-.986s.402-1.242.402-1.242l-.512-1.425a11.694 11.694 0 0 1 .073 1.973c-.11.037-1.571.913-1.571.913l-.84-.438ZM6.96 25.952a15.94 15.94 0 0 1 1.57 1.57 4.245 4.245 0 0 1-.512.878c-.109.073-.255-.33-.255-.475a4.585 4.585 0 0 0-.329-1.096 8.203 8.203 0 0 0-.804-.804ZM6.63 31.359s.694-.913.767-1.023.548-1.242.548-1.242l-.036 1.242a4.407 4.407 0 0 1-.585.548 7.35 7.35 0 0 0-.693.475M2.539 28.765l.146-1.681a4.98 4.98 0 0 1 1.023-.548c.256-.036 0 .512-.146.695s-.84 1.497-.84 1.497l-.22.44Z"/><path class="cls-2" d="M1.917 11.72a5.051 5.051 0 0 1 .22-.985l1.278-.914 1.315-.365 1.206-.438s1.571.584 1.68.584a7.432 7.432 0 0 1 1.242.95 16.654 16.654 0 0 1 .11 1.817l.745 1.19a9.182 9.182 0 0 1-.928 1.304 12.03 12.03 0 0 1-.95.84c-.109.037-.767.292-.986.402s-1.196.307-1.352.402c-.783.478-1.425-.292-1.57-.292a6.358 6.358 0 0 1-.98-.442s-1.17-.697-1.244-.916.304-1.098.262-1.768c-.007-.115-.048-1.368-.048-1.368"/><path class="cls-4" d="m3.78 13.73.585 1.133a5.47 5.47 0 0 0 1.242.474c.11-.073 1.243-.876 1.316-.986s.402-1.242.402-1.242l-.512-1.425a11.694 11.694 0 0 1 .073 1.973c-.11.037-1.571.913-1.571.913l-.84-.438ZM6.96 10.114a15.942 15.942 0 0 1 1.57 1.57 4.273 4.273 0 0 1-.512.878c-.109.073-.255-.33-.255-.476a4.593 4.593 0 0 0-.329-1.096 8.211 8.211 0 0 0-.804-.803ZM6.63 15.52s.694-.913.767-1.023.548-1.242.548-1.242l-.036 1.242a4.406 4.406 0 0 1-.585.548 7.332 7.332 0 0 0-.693.475M2.539 12.927l.146-1.681a4.98 4.98 0 0 1 1.023-.548c.256-.036 0 .511-.146.694s-.84 1.498-.84 1.498l-.22.439Z"/><path class="cls-5" d="M34.535 6.044a7.668 7.668 0 0 1-.505-1.748c.04-.156 1.457-2.409 1.515-2.525S36.963.508 36.963.508l1.224.427 1.476-.582a6.242 6.242 0 0 1 .836.02c.077.038 1.67 1.242 1.67 1.242s1.07 1.574 1.127 1.613.233 1.806.233 1.806l-.272 2.117s-1.088 1.632-1.146 1.69a7.258 7.258 0 0 1-1.185.72 3.391 3.391 0 0 0-.913-.33c-.097.018-2.117.484-2.214.484a14.12 14.12 0 0 1-1.69-.544c-.098-.077-1.807-1.145-1.846-1.243a7.664 7.664 0 0 1 .155-1.087Z"/><path class="cls-6" d="M37.642 7.993c-1.506-.112 3.135-.871 3.135-.871s.964-1.824.964-1.97-.767-2.777-.767-2.777 1.46 2.85 1.425 2.996l-.577 2.448a8.326 8.326 0 0 1-1.48.522c-.105.03-2.7-.348-2.7-.348"/><path class="cls-2" d="M34.266 4.424c.073-.146 2.74-3.215 2.74-3.215l1.534.402 1.133-.658s1.205.11 1.315.11 1.717.877 1.57.767S40.646.226 40.646.226a23.046 23.046 0 0 1-2.47.435c-.11-.073-1.206-.402-1.206-.402l-1.534 1.608-1.206 1.9v.767Z"/><path class="cls-2" d="M36.458 4.57a6.645 6.645 0 0 1 .95-1.571c.146 0 1.096-.438 1.278-.438a8.03 8.03 0 0 1 1.243.584s.438.512.255.402a6.603 6.603 0 0 0-1.644-.365 15.273 15.273 0 0 0-1.388.73s-.036 1.242-.073 1.388a4.32 4.32 0 0 1-.402.658l-.621-1.023Z"/><path class="cls-2" d="M38.54 5.556c-.146.037-.913-.292-.913-.439a8.853 8.853 0 0 1 .474-1.132 4.716 4.716 0 0 1 .804-.073 5.711 5.711 0 0 1 .658.767 6 6 0 0 0-.804-.329c-.109 0-.402.256-.402.256l.11.658Z"/><path class="cls-5" d="M34.535 21.686a7.668 7.668 0 0 1-.505-1.748c.04-.156 1.457-2.409 1.515-2.525s1.418-1.263 1.418-1.263l1.224.428 1.476-.583a6.242 6.242 0 0 1 .836.02c.077.038 1.67 1.242 1.67 1.242s1.07 1.574 1.127 1.612.233 1.807.233 1.807l-.272 2.117s-1.088 1.632-1.146 1.69a7.272 7.272 0 0 1-1.185.72 3.388 3.388 0 0 0-.913-.33c-.097.019-2.117.485-2.214.485a14.12 14.12 0 0 1-1.69-.544c-.098-.077-1.807-1.145-1.846-1.243a7.662 7.662 0 0 1 .155-1.087Z"/><path class="cls-6" d="M37.642 23.635c-1.506-.112 3.135-.871 3.135-.871s.964-1.824.964-1.97-.767-2.777-.767-2.777 1.46 2.85 1.425 2.996l-.577 2.448a8.376 8.376 0 0 1-1.48.523c-.105.029-2.7-.35-2.7-.35"/><path class="cls-2" d="M34.266 20.066c.073-.146 2.74-3.215 2.74-3.215l1.534.402 1.133-.658s1.205.11 1.315.11 1.717.877 1.57.767-1.913-1.604-1.913-1.604a23.046 23.046 0 0 1-2.47.435c-.11-.073-1.206-.402-1.206-.402l-1.534 1.608-1.206 1.9v.767Z"/><path class="cls-2" d="M36.458 20.212a6.645 6.645 0 0 1 .95-1.57c.146 0 1.096-.44 1.278-.44a8.024 8.024 0 0 1 1.243.585s.438.512.255.402a6.598 6.598 0 0 0-1.644-.365 15.25 15.25 0 0 0-1.388.73s-.036 1.242-.073 1.388a4.32 4.32 0 0 1-.402.658l-.621-1.023Z"/><path class="cls-2" d="M38.54 21.198c-.146.036-.913-.292-.913-.439a8.855 8.855 0 0 1 .474-1.132 4.716 4.716 0 0 1 .804-.073 5.711 5.711 0 0 1 .658.767 5.999 5.999 0 0 0-.804-.329c-.109 0-.402.256-.402.256l.11.658Z"/><path class="cls-5" d="M34.535 37.59a7.654 7.654 0 0 1-.505-1.748c.04-.156 1.457-2.409 1.515-2.525s1.418-1.263 1.418-1.263l1.224.427 1.476-.582a6.242 6.242 0 0 1 .836.019c.077.039 1.67 1.243 1.67 1.243s1.07 1.574 1.127 1.613.233 1.806.233 1.806l-.272 2.117s-1.088 1.632-1.146 1.69a7.188 7.188 0 0 1-1.185.719 3.391 3.391 0 0 0-.913-.33c-.097.019-2.117.485-2.214.485a14.295 14.295 0 0 1-1.69-.543c-.098-.078-1.807-1.146-1.846-1.244a7.664 7.664 0 0 1 .155-1.087Z"/><path class="cls-6" d="M37.642 39.539c-1.506-.112 3.135-.871 3.135-.871s.964-1.824.964-1.97-.767-2.777-.767-2.777 1.46 2.85 1.425 2.996l-.577 2.448a8.33 8.33 0 0 1-1.48.522c-.105.03-2.7-.348-2.7-.348"/><path class="cls-2" d="M34.266 35.97c.073-.146 2.74-3.215 2.74-3.215l1.534.402 1.133-.658s1.205.11 1.315.11 1.717.877 1.57.767-1.913-1.604-1.913-1.604a23.045 23.045 0 0 1-2.47.435c-.11-.073-1.206-.402-1.206-.402l-1.534 1.608-1.206 1.9v.767Z"/><path class="cls-2" d="M36.458 36.116a6.645 6.645 0 0 1 .95-1.571c.146 0 1.096-.438 1.278-.438a8.03 8.03 0 0 1 1.243.584s.438.512.255.402a6.603 6.603 0 0 0-1.644-.365 15.273 15.273 0 0 0-1.388.73s-.036 1.243-.073 1.389a4.352 4.352 0 0 1-.402.657l-.621-1.023Z"/><path class="cls-2" d="M38.54 37.102c-.146.037-.913-.292-.913-.439a8.853 8.853 0 0 1 .474-1.132 4.716 4.716 0 0 1 .804-.073 5.711 5.711 0 0 1 .658.767 6 6 0 0 0-.804-.329c-.109 0-.402.256-.402.256l.11.658Z"/><path class="cls-5" d="M34.535 53.69a7.667 7.667 0 0 1-.505-1.748c.04-.156 1.457-2.409 1.515-2.525s1.418-1.263 1.418-1.263l1.224.427 1.476-.583a6.256 6.256 0 0 1 .836.02c.077.04 1.67 1.243 1.67 1.243s1.07 1.574 1.127 1.613.233 1.806.233 1.806l-.272 2.117s-1.088 1.632-1.146 1.69a7.258 7.258 0 0 1-1.185.72 3.42 3.42 0 0 0-.913-.332c-.097.02-2.117.486-2.214.486a14.12 14.12 0 0 1-1.69-.544c-.098-.077-1.807-1.146-1.846-1.243a7.664 7.664 0 0 1 .155-1.087Z"/><path class="cls-6" d="M37.642 55.639c-1.506-.112 3.135-.871 3.135-.871s.964-1.824.964-1.97-.767-2.777-.767-2.777 1.46 2.85 1.425 2.996l-.577 2.448a8.33 8.33 0 0 1-1.48.522c-.105.03-2.7-.348-2.7-.348"/><path class="cls-2" d="M34.266 52.07c.073-.146 2.74-3.215 2.74-3.215l1.534.402 1.133-.658s1.205.11 1.315.11 1.717.877 1.57.767-1.913-1.604-1.913-1.604a23.045 23.045 0 0 1-2.47.435c-.11-.073-1.206-.402-1.206-.402l-1.534 1.608-1.206 1.9v.767Z"/><path class="cls-2" d="M36.458 52.216a6.645 6.645 0 0 1 .95-1.57c.146 0 1.096-.44 1.278-.44a8.024 8.024 0 0 1 1.243.585s.438.512.255.402a6.603 6.603 0 0 0-1.644-.365 15.273 15.273 0 0 0-1.388.73s-.036 1.242-.073 1.388a4.32 4.32 0 0 1-.402.658l-.621-1.023Z"/><path class="cls-2" d="M38.54 53.202c-.146.037-.913-.292-.913-.439a8.855 8.855 0 0 1 .474-1.132 4.716 4.716 0 0 1 .804-.073 5.711 5.711 0 0 1 .658.767 5.999 5.999 0 0 0-.804-.329c-.109 0-.402.256-.402.256l.11.658Z"/><path class="cls-5" d="M34.535 69.79a7.667 7.667 0 0 1-.505-1.747c.04-.156 1.457-2.41 1.515-2.526s1.418-1.262 1.418-1.262l1.224.427 1.476-.583a6.256 6.256 0 0 1 .836.02c.077.039 1.67 1.243 1.67 1.243s1.07 1.574 1.127 1.612.233 1.807.233 1.807l-.272 2.117s-1.088 1.632-1.146 1.69a7.258 7.258 0 0 1-1.185.719 3.39 3.39 0 0 0-.913-.331c-.097.02-2.117.486-2.214.486a14.12 14.12 0 0 1-1.69-.544c-.098-.078-1.807-1.146-1.846-1.243a7.68 7.68 0 0 1 .155-1.088Z"/><path class="cls-6" d="M37.642 71.74c-1.506-.113 3.135-.872 3.135-.872s.964-1.825.964-1.97c0-.147-.767-2.777-.767-2.777s1.46 2.85 1.425 2.996l-.577 2.448a8.365 8.365 0 0 1-1.48.523c-.105.03-2.7-.349-2.7-.349"/><path class="cls-2" d="M34.266 68.17c.073-.147 2.74-3.215 2.74-3.215l1.534.402 1.133-.658s1.205.11 1.315.11 1.717.877 1.57.767-1.913-1.604-1.913-1.604a23.046 23.046 0 0 1-2.47.435c-.11-.073-1.206-.402-1.206-.402l-1.534 1.607-1.206 1.9v.768Z"/><path class="cls-2" d="M36.458 68.316a6.645 6.645 0 0 1 .95-1.57c.146 0 1.096-.439 1.278-.439a8.03 8.03 0 0 1 1.243.584s.438.512.255.402a6.696 6.696 0 0 0-1.644-.366 15.51 15.51 0 0 0-1.388.731s-.036 1.242-.073 1.388a4.32 4.32 0 0 1-.402.658l-.621-1.023Z"/><path class="cls-2" d="M38.54 69.303c-.146.036-.913-.293-.913-.438a8.812 8.812 0 0 1 .474-1.133 4.716 4.716 0 0 1 .804-.073 5.65 5.65 0 0 1 .658.767 6 6 0 0 0-.804-.33c-.109 0-.402.257-.402.257l.11.657Z"/><path class="cls-5" d="M17.846 69.79a7.662 7.662 0 0 1-.505-1.747c.04-.156 1.457-2.41 1.515-2.526s1.418-1.262 1.418-1.262l1.224.427 1.476-.583a6.235 6.235 0 0 1 .835.02c.078.039 1.671 1.243 1.671 1.243s1.07 1.574 1.127 1.612.233 1.807.233 1.807l-.272 2.117s-1.088 1.632-1.146 1.69a7.254 7.254 0 0 1-1.185.719 3.39 3.39 0 0 0-.913-.331c-.097.02-2.117.486-2.215.486a14.157 14.157 0 0 1-1.69-.544c-.097-.078-1.806-1.146-1.845-1.243a7.68 7.68 0 0 1 .155-1.088Z"/><path class="cls-6" d="M20.953 71.74c-1.506-.113 3.135-.872 3.135-.872s.964-1.825.964-1.97c0-.147-.767-2.777-.767-2.777s1.46 2.85 1.424 2.996-.576 2.448-.576 2.448a8.365 8.365 0 0 1-1.48.523c-.106.03-2.7-.349-2.7-.349"/><path class="cls-2" d="M17.576 68.17c.073-.147 2.74-3.215 2.74-3.215l1.534.402 1.133-.658s1.206.11 1.315.11 1.717.877 1.571.767-1.914-1.604-1.914-1.604a23.046 23.046 0 0 1-2.47.435c-.11-.073-1.206-.402-1.206-.402l-1.534 1.607-1.206 1.9v.768Z"/><path class="cls-2" d="M19.768 68.316a6.615 6.615 0 0 1 .95-1.57c.146 0 1.096-.439 1.278-.439a8.028 8.028 0 0 1 1.243.584s.438.512.255.402a6.696 6.696 0 0 0-1.644-.366 15.51 15.51 0 0 0-1.388.731s-.036 1.242-.073 1.388a4.32 4.32 0 0 1-.402.658l-.62-1.023Z"/><path class="cls-2" d="M21.85 69.303c-.145.036-.912-.293-.912-.438a8.812 8.812 0 0 1 .474-1.133 4.716 4.716 0 0 1 .804-.073 5.65 5.65 0 0 1 .658.767 6 6 0 0 0-.804-.33c-.11 0-.402.257-.402.257l.11.657Z"/><path class="cls-5" d="M.764 69.79a7.667 7.667 0 0 1-.505-1.747c.04-.156 1.457-2.41 1.515-2.526s1.418-1.262 1.418-1.262l1.224.427 1.476-.583a6.235 6.235 0 0 1 .835.02c.078.039 1.671 1.243 1.671 1.243s1.07 1.574 1.127 1.612.233 1.807.233 1.807l-.272 2.117s-1.088 1.632-1.146 1.69a7.258 7.258 0 0 1-1.185.719 3.39 3.39 0 0 0-.913-.331c-.097.02-2.117.486-2.215.486a14.164 14.164 0 0 1-1.69-.544C2.24 72.84.531 71.772.492 71.675a7.68 7.68 0 0 1 .155-1.088Z"/><path class="cls-6" d="M3.87 71.74c-1.505-.113 3.136-.872 3.136-.872s.964-1.825.964-1.97c0-.147-.767-2.777-.767-2.777s1.46 2.85 1.424 2.996-.576 2.448-.576 2.448a8.365 8.365 0 0 1-1.48.523c-.106.03-2.7-.349-2.7-.349"/><path class="cls-2" d="M.495 68.17c.073-.147 2.74-3.215 2.74-3.215l1.534.402 1.133-.658s1.206.11 1.315.11 1.717.877 1.57.767-1.913-1.604-1.913-1.604a23.05 23.05 0 0 1-2.47.435c-.11-.073-1.206-.402-1.206-.402l-1.534 1.607-1.206 1.9v.768Z"/><path class="cls-2" d="M2.687 68.316a6.615 6.615 0 0 1 .95-1.57c.146 0 1.096-.439 1.278-.439a8.028 8.028 0 0 1 1.243.584s.438.512.255.402a6.696 6.696 0 0 0-1.644-.366 15.649 15.649 0 0 0-1.388.731s-.036 1.242-.073 1.388a4.32 4.32 0 0 1-.402.658l-.621-1.023Z"/><path class="cls-2" d="M4.769 69.303c-.146.036-.913-.293-.913-.438a8.812 8.812 0 0 1 .474-1.133 4.716 4.716 0 0 1 .804-.073 5.65 5.65 0 0 1 .658.767 6 6 0 0 0-.804-.33c-.11 0-.402.257-.402.257l.11.657Z"/><path class="cls-5" d="M.764 53.69a7.667 7.667 0 0 1-.505-1.748c.04-.156 1.457-2.409 1.515-2.525s1.418-1.263 1.418-1.263l1.224.427 1.476-.583a6.235 6.235 0 0 1 .835.02c.078.04 1.671 1.243 1.671 1.243s1.07 1.574 1.127 1.613.233 1.806.233 1.806l-.272 2.117s-1.088 1.632-1.146 1.69a7.258 7.258 0 0 1-1.185.72 3.42 3.42 0 0 0-.913-.332c-.097.02-2.117.486-2.215.486a14.163 14.163 0 0 1-1.69-.544C2.24 56.74.531 55.671.492 55.574a7.664 7.664 0 0 1 .155-1.087Z"/><path class="cls-6" d="M3.87 55.639c-1.505-.112 3.136-.871 3.136-.871s.964-1.824.964-1.97-.767-2.777-.767-2.777 1.46 2.85 1.424 2.996-.576 2.448-.576 2.448a8.33 8.33 0 0 1-1.48.522c-.106.03-2.7-.348-2.7-.348"/><path class="cls-2" d="M.495 52.07c.073-.146 2.74-3.215 2.74-3.215l1.534.402 1.133-.658s1.206.11 1.315.11 1.717.877 1.57.767-1.913-1.604-1.913-1.604a23.05 23.05 0 0 1-2.47.435c-.11-.073-1.206-.402-1.206-.402l-1.534 1.608-1.206 1.9v.767Z"/><path class="cls-2" d="M2.687 52.216a6.615 6.615 0 0 1 .95-1.57c.146 0 1.096-.44 1.278-.44a8.022 8.022 0 0 1 1.243.585s.438.512.255.402a6.603 6.603 0 0 0-1.644-.365 15.408 15.408 0 0 0-1.388.73s-.036 1.242-.073 1.388a4.32 4.32 0 0 1-.402.658l-.621-1.023Z"/><path class="cls-2" d="M4.769 53.202c-.146.037-.913-.292-.913-.439a8.855 8.855 0 0 1 .474-1.132 4.716 4.716 0 0 1 .804-.073 5.711 5.711 0 0 1 .658.767 5.999 5.999 0 0 0-.804-.329c-.11 0-.402.256-.402.256l.11.658Z"/><path class="cls-5" d="M.764 37.604a7.668 7.668 0 0 1-.505-1.748c.04-.156 1.457-2.41 1.515-2.525s1.418-1.263 1.418-1.263l1.224.427 1.476-.582a6.22 6.22 0 0 1 .835.019c.078.039 1.671 1.243 1.671 1.243s1.07 1.574 1.127 1.613.233 1.806.233 1.806l-.272 2.117S8.398 40.343 8.34 40.4a7.188 7.188 0 0 1-1.185.719 3.391 3.391 0 0 0-.913-.33c-.097.019-2.117.485-2.215.485a14.163 14.163 0 0 1-1.69-.544C2.24 40.654.531 39.586.492 39.488A7.664 7.664 0 0 1 .647 38.4Z"/><path class="cls-6" d="M3.87 39.553c-1.505-.112 3.136-.871 3.136-.871s.964-1.824.964-1.97-.767-2.777-.767-2.777 1.46 2.85 1.424 2.996-.576 2.448-.576 2.448a8.365 8.365 0 0 1-1.48.523c-.106.029-2.7-.35-2.7-.35"/><path class="cls-2" d="M.495 35.983c.073-.145 2.74-3.214 2.74-3.214l1.534.402 1.133-.658s1.206.11 1.315.11 1.717.877 1.57.767-1.913-1.605-1.913-1.605a23.05 23.05 0 0 1-2.47.436c-.11-.073-1.206-.402-1.206-.402l-1.534 1.608-1.206 1.9v.767Z"/><path class="cls-2" d="M2.687 36.13a6.615 6.615 0 0 1 .95-1.571c.146 0 1.096-.438 1.278-.438a8.028 8.028 0 0 1 1.243.584s.438.512.255.402a6.603 6.603 0 0 0-1.644-.365 15.408 15.408 0 0 0-1.388.73s-.036 1.243-.073 1.389a4.352 4.352 0 0 1-.402.657l-.621-1.023Z"/><path class="cls-2" d="M4.769 37.116c-.146.037-.913-.292-.913-.439a8.855 8.855 0 0 1 .474-1.132 4.716 4.716 0 0 1 .804-.073 5.656 5.656 0 0 1 .658.767 5.999 5.999 0 0 0-.804-.329c-.109 0-.402.256-.402.256l.11.658Z"/><path class="cls-5" d="M.764 21.896a7.654 7.654 0 0 1-.505-1.748c.04-.156 1.457-2.409 1.515-2.525s1.418-1.263 1.418-1.263l1.224.428 1.476-.582a6.22 6.22 0 0 1 .835.019c.078.038 1.671 1.242 1.671 1.242s1.07 1.574 1.127 1.613.233 1.806.233 1.806l-.272 2.117s-1.088 1.632-1.146 1.69a7.258 7.258 0 0 1-1.185.72 3.391 3.391 0 0 0-.913-.33c-.097.019-2.117.485-2.215.485a14.163 14.163 0 0 1-1.69-.544C2.24 24.947.531 23.879.492 23.78a7.664 7.664 0 0 1 .155-1.087Z"/><path class="cls-6" d="M3.87 23.845c-1.505-.112 3.136-.87 3.136-.87s.964-1.825.964-1.97-.767-2.778-.767-2.778 1.46 2.85 1.424 2.996-.576 2.448-.576 2.448a8.376 8.376 0 0 1-1.48.523c-.106.03-2.7-.349-2.7-.349"/><path class="cls-2" d="M.495 20.276c.073-.146 2.74-3.215 2.74-3.215l1.534.402 1.133-.658s1.206.11 1.315.11 1.717.877 1.57.767-1.913-1.604-1.913-1.604a23.05 23.05 0 0 1-2.47.435c-.11-.073-1.206-.402-1.206-.402l-1.534 1.608-1.206 1.9v.767Z"/><path class="cls-2" d="M2.687 20.422a6.615 6.615 0 0 1 .95-1.57c.146 0 1.096-.44 1.278-.44a8.022 8.022 0 0 1 1.243.585s.438.512.255.402a6.603 6.603 0 0 0-1.644-.365 15.408 15.408 0 0 0-1.388.73s-.036 1.242-.073 1.388a4.32 4.32 0 0 1-.402.658l-.621-1.023Z"/><path class="cls-2" d="M4.769 21.409c-.146.037-.913-.292-.913-.438a8.812 8.812 0 0 1 .474-1.133 4.716 4.716 0 0 1 .804-.073 5.711 5.711 0 0 1 .658.767 5.999 5.999 0 0 0-.804-.33c-.11 0-.402.257-.402.257l.11.658Z"/><path class="cls-5" d="M.764 5.9A7.667 7.667 0 0 1 .26 4.154c.04-.156 1.457-2.41 1.515-2.525S3.192.365 3.192.365l1.224.427L5.892.21a6.22 6.22 0 0 1 .835.019c.078.039 1.671 1.243 1.671 1.243s1.07 1.574 1.127 1.613.233 1.806.233 1.806l-.272 2.117S8.398 8.64 8.34 8.698a7.258 7.258 0 0 1-1.185.719 3.385 3.385 0 0 0-.913-.33c-.097.019-2.117.485-2.215.485a14.163 14.163 0 0 1-1.69-.544C2.24 8.95.531 7.883.492 7.785a7.664 7.664 0 0 1 .155-1.087Z"/><path class="cls-6" d="M3.87 7.85c-1.505-.112 3.136-.871 3.136-.871s.964-1.824.964-1.97-.767-2.777-.767-2.777 1.46 2.85 1.424 2.996-.576 2.448-.576 2.448a8.365 8.365 0 0 1-1.48.523c-.106.029-2.7-.349-2.7-.349"/><path class="cls-2" d="M.495 4.28c.073-.146 2.74-3.215 2.74-3.215l1.534.402L5.902.809s1.206.11 1.315.11 1.717.877 1.57.767S6.875.082 6.875.082a23.05 23.05 0 0 1-2.47.435C4.294.444 3.197.115 3.197.115L1.663 1.723l-1.206 1.9v.767Z"/><path class="cls-2" d="M2.687 4.426a6.615 6.615 0 0 1 .95-1.57c.146 0 1.096-.438 1.278-.438A8.028 8.028 0 0 1 6.158 3s.438.513.255.403a6.594 6.594 0 0 0-1.644-.365 15.383 15.383 0 0 0-1.388.73s-.036 1.242-.073 1.388a4.352 4.352 0 0 1-.402.657l-.621-1.022Z"/><path class="cls-2" d="M4.769 5.413c-.146.036-.913-.292-.913-.44a8.853 8.853 0 0 1 .474-1.131 4.716 4.716 0 0 1 .804-.073 5.711 5.711 0 0 1 .658.767 6 6 0 0 0-.804-.33c-.11 0-.402.257-.402.257l.11.658Z"/><path class="cls-5" d="M17.877 5.9a7.667 7.667 0 0 1-.505-1.747c.039-.156 1.457-2.41 1.515-2.525S20.305.365 20.305.365l1.224.427L23.005.21a6.239 6.239 0 0 1 .836.019c.077.039 1.67 1.243 1.67 1.243s1.069 1.574 1.127 1.613.233 1.806.233 1.806l-.272 2.117s-1.088 1.632-1.146 1.69a7.258 7.258 0 0 1-1.185.72 3.385 3.385 0 0 0-.913-.33c-.097.018-2.117.484-2.214.484a14.12 14.12 0 0 1-1.691-.544c-.097-.077-1.806-1.145-1.845-1.243a7.664 7.664 0 0 1 .155-1.087Z"/><path class="cls-6" d="M20.983 7.85c-1.506-.112 3.135-.871 3.135-.871s.964-1.824.964-1.97-.767-2.777-.767-2.777 1.461 2.85 1.424 2.996-.576 2.448-.576 2.448a8.37 8.37 0 0 1-1.48.523c-.106.029-2.7-.349-2.7-.349"/><path class="cls-2" d="M17.607 4.28c.073-.146 2.74-3.215 2.74-3.215l1.534.402 1.133-.658s1.205.11 1.315.11 1.717.877 1.571.767S23.986.082 23.986.082a23.046 23.046 0 0 1-2.47.435C21.406.444 20.31.115 20.31.115l-1.534 1.608-1.206 1.9v.767Z"/><path class="cls-2" d="M19.8 4.426a6.645 6.645 0 0 1 .95-1.57c.145 0 1.095-.438 1.277-.438A8.03 8.03 0 0 1 23.27 3s.438.513.255.403a6.594 6.594 0 0 0-1.644-.365 15.383 15.383 0 0 0-1.388.73s-.036 1.242-.073 1.388a4.352 4.352 0 0 1-.402.657l-.62-1.022Z"/><path class="cls-2" d="M21.882 5.413c-.147.036-.914-.292-.914-.44a8.853 8.853 0 0 1 .474-1.131 4.716 4.716 0 0 1 .804-.073 5.711 5.711 0 0 1 .658.767 6 6 0 0 0-.804-.33c-.11 0-.402.257-.402.257l.11.658Z"/><path class="cls-7" d="M10.113 67.112a2.392 2.392 0 0 1 1.636-1.243 8.138 8.138 0 0 0 1.604-.557 3.944 3.944 0 0 1 1.832.066c.393.262 1.473 1.178 1.702 1.374s.163 1.44.196 1.669.393.688.49.982-.523 1.374-.817 1.767a2.895 2.895 0 0 1-1.342.85c-.327.066-.687.557-1.047.59a6.715 6.715 0 0 1-2.16-.131c-.261-.197-1.374-.262-1.603-.524a12.623 12.623 0 0 1-.786-1.931"/><path class="cls-7" d="M11.945 69.075c0 .164.066 1.08.36 1.244a13.705 13.705 0 0 0 1.31.523 4.682 4.682 0 0 0 1.341-1.112 9.405 9.405 0 0 0-.328-1.996 4.58 4.58 0 0 0-1.636 0"/><path class="cls-7" d="M12.96 69.173c.066.196.524.491.524.491l.392-.622s.099-.425-.229-.458M6.517 64.056c.36-.033.389-.282.717-.348a2.91 2.91 0 0 0 1.34-.85c.296-.393.917-1.473.819-1.767s-.458-.753-.49-.982.032-1.473-.197-1.669-1.31-1.113-1.702-1.374A3.933 3.933 0 0 0 5.172 57a8.141 8.141 0 0 1-1.604.556A2.591 2.591 0 0 0 1.932 58.8a2.438 2.438 0 0 0 .05 1.252 2.315 2.315 0 0 1-.216 1.062 3.41 3.41 0 0 0-.072 1.495 4.769 4.769 0 0 0 1.809 1.399"/><path class="cls-7" d="M3.764 60.764c0 .163.066 1.08.36 1.243a13.518 13.518 0 0 0 1.31.524 4.686 4.686 0 0 0 1.341-1.113 9.415 9.415 0 0 0-.328-1.996 4.58 4.58 0 0 0-1.636 0"/><path class="cls-7" d="M4.779 60.862c.066.196.524.49.524.49l.392-.621s.099-.426-.23-.458M.885 69.86c-.098-.228-.654-1.537-.687-1.766a23.437 23.437 0 0 1 2.06-3.174c.296-.36 1.179-1.016 1.67-.623a1.233 1.233 0 0 0 1.146.263c.13-.066 1.439-.689 1.668-.525a20.06 20.06 0 0 1 2.29 1.899c.198.327.95 1.308.885 1.8a10.998 10.998 0 0 0-.131 2.061 3.045 3.045 0 0 1-.524 1.701 5.863 5.863 0 0 1-1.767 1.637c-.163.032-1.178-.622-1.407-.393a5.812 5.812 0 0 1-1.931.916 19.7 19.7 0 0 1-2.323-1.309c-.458-.262-1.407-.72-1.31-1.178s.36-1.308.36-1.308Z"/><path class="cls-7" d="M3.96 67.44a2.768 2.768 0 0 1 1.67-.427c.524.1 1.08 1.244 1.113 1.408a8.796 8.796 0 0 1-.558 2.258 4.6 4.6 0 0 1-1.669.196 9.255 9.255 0 0 1-1.44-.916 3.921 3.921 0 0 1 .131-.949"/><path class="cls-7" d="M4.811 68.454c.196-.131.752 0 .72.36a.665.665 0 0 1-.687.589l-.458-.36M2.128 67.406c0-.654 1.112-1.57 1.571-1.374M6.517 48.021c.36-.033.389-.282.717-.348a2.901 2.901 0 0 0 1.34-.85c.296-.393.917-1.473.819-1.767s-.458-.753-.49-.982.032-1.473-.197-1.669-1.31-1.113-1.702-1.374a3.931 3.931 0 0 0-1.832-.066 8.148 8.148 0 0 1-1.604.556 2.591 2.591 0 0 0-1.636 1.244 2.443 2.443 0 0 0 .05 1.253 2.313 2.313 0 0 1-.216 1.061 3.41 3.41 0 0 0-.072 1.495 4.748 4.748 0 0 0 1.809 1.4"/><path class="cls-7" d="M3.764 44.729c0 .164.066 1.08.36 1.243a13.492 13.492 0 0 0 1.31.524 4.67 4.67 0 0 0 1.341-1.113 9.426 9.426 0 0 0-.328-1.996 4.58 4.58 0 0 0-1.636 0"/><path class="cls-7" d="M4.779 44.827c.066.196.524.49.524.49l.392-.621s.099-.425-.23-.458M3.932 57.417a14.7 14.7 0 0 1-2.098-1.104c-.458-.262-1.407-.72-1.31-1.178s.36-1.309.36-1.309c-.097-.229-.653-1.538-.686-1.767a23.372 23.372 0 0 1 2.06-3.174c.296-.36 1.179-1.015 1.67-.622a1.236 1.236 0 0 0 1.146.262c.13-.066 1.439-.688 1.669-.524a20.14 20.14 0 0 1 2.29 1.898c.197.327.949 1.309.884 1.8a10.986 10.986 0 0 0-.131 2.06 3.049 3.049 0 0 1-.524 1.703 5.846 5.846 0 0 1-1.767 1.636"/><path class="cls-7" d="M3.96 51.404a2.761 2.761 0 0 1 1.67-.425c.524.098 1.08 1.243 1.113 1.407a8.797 8.797 0 0 1-.558 2.258 4.596 4.596 0 0 1-1.669.196 9.248 9.248 0 0 1-1.44-.916 3.93 3.93 0 0 1 .131-.949"/><path class="cls-7" d="M4.811 52.419c.196-.131.752 0 .72.36a.665.665 0 0 1-.687.589l-.458-.36M2.128 51.371c0-.654 1.112-1.57 1.571-1.374M6.517 32.085c.36-.033.389-.282.717-.347a2.912 2.912 0 0 0 1.34-.851c.296-.393.917-1.473.819-1.767s-.458-.753-.49-.982.032-1.473-.197-1.67-1.31-1.112-1.702-1.373a3.945 3.945 0 0 0-1.832-.066 8.148 8.148 0 0 1-1.604.556 2.591 2.591 0 0 0-1.636 1.244 2.443 2.443 0 0 0 .05 1.253 2.313 2.313 0 0 1-.216 1.06 3.41 3.41 0 0 0-.072 1.496 4.748 4.748 0 0 0 1.809 1.399"/><path class="cls-7" d="M3.764 28.792c0 .164.066 1.08.36 1.244a13.705 13.705 0 0 0 1.31.523 4.682 4.682 0 0 0 1.341-1.112 9.425 9.425 0 0 0-.328-1.997 4.58 4.58 0 0 0-1.636 0"/><path class="cls-7" d="M4.779 28.89c.066.196.524.491.524.491l.392-.622s.099-.425-.23-.458M3.932 41.48a14.71 14.71 0 0 1-2.098-1.103c-.458-.262-1.407-.72-1.31-1.179s.36-1.308.36-1.308c-.097-.23-.653-1.538-.686-1.767a23.49 23.49 0 0 1 2.06-3.175c.296-.36 1.179-1.015 1.67-.622a1.233 1.233 0 0 0 1.146.263c.13-.066 1.439-.688 1.669-.524a20.14 20.14 0 0 1 2.29 1.898c.197.327.949 1.308.884 1.8a10.992 10.992 0 0 0-.131 2.062 3.048 3.048 0 0 1-.524 1.7 5.846 5.846 0 0 1-1.767 1.637"/><path class="cls-7" d="M3.96 35.468a2.76 2.76 0 0 1 1.67-.425c.524.098 1.08 1.243 1.113 1.407a8.796 8.796 0 0 1-.558 2.258 4.598 4.598 0 0 1-1.669.196 9.248 9.248 0 0 1-1.44-.916 3.929 3.929 0 0 1 .131-.95"/><path class="cls-7" d="M4.811 36.482c.196-.13.752 0 .72.36a.665.665 0 0 1-.687.59l-.458-.36M2.128 35.435c0-.654 1.112-1.571 1.571-1.374M6.517 16.213c.36-.033.389-.282.717-.347a2.912 2.912 0 0 0 1.34-.85c.296-.393.917-1.474.819-1.768s-.458-.752-.49-.981.032-1.473-.197-1.67-1.31-1.112-1.702-1.373a3.931 3.931 0 0 0-1.832-.067 8.141 8.141 0 0 1-1.604.556 2.591 2.591 0 0 0-1.636 1.245 2.442 2.442 0 0 0 .05 1.252 2.313 2.313 0 0 1-.216 1.061 3.41 3.41 0 0 0-.072 1.495 4.747 4.747 0 0 0 1.809 1.4"/><path class="cls-7" d="M3.764 12.92c0 .165.066 1.08.36 1.245a13.705 13.705 0 0 0 1.31.523 4.682 4.682 0 0 0 1.341-1.112 9.425 9.425 0 0 0-.328-1.997 4.584 4.584 0 0 0-1.636 0"/><path class="cls-7" d="M4.779 13.019c.066.196.524.491.524.491l.392-.622s.099-.425-.23-.458M3.932 25.61a14.71 14.71 0 0 1-2.098-1.105c-.458-.262-1.407-.72-1.31-1.178s.36-1.309.36-1.309C.788 21.79.232 20.48.199 20.251a23.371 23.371 0 0 1 2.06-3.174c.296-.36 1.179-1.015 1.67-.622a1.233 1.233 0 0 0 1.146.262c.13-.066 1.439-.688 1.669-.524a20.13 20.13 0 0 1 2.29 1.898c.197.327.949 1.31.884 1.8a10.992 10.992 0 0 0-.131 2.062 3.048 3.048 0 0 1-.524 1.701 5.844 5.844 0 0 1-1.767 1.636"/><path class="cls-7" d="M3.96 19.597a2.761 2.761 0 0 1 1.67-.425c.524.098 1.08 1.243 1.113 1.407a8.798 8.798 0 0 1-.558 2.258 4.6 4.6 0 0 1-1.669.196 9.248 9.248 0 0 1-1.44-.916 3.929 3.929 0 0 1 .131-.95"/><path class="cls-7" d="M4.811 20.611c.196-.13.752 0 .72.36a.665.665 0 0 1-.687.59l-.458-.36M2.128 19.564c0-.654 1.112-1.571 1.571-1.375M40.222 64.056c.36-.033.39-.282.717-.348a2.91 2.91 0 0 0 1.341-.85c.295-.393.916-1.473.818-1.767s-.458-.753-.49-.982.032-1.473-.197-1.669-1.309-1.113-1.702-1.374A3.933 3.933 0 0 0 38.877 57a8.138 8.138 0 0 1-1.604.556 2.589 2.589 0 0 0-1.636 1.244 2.438 2.438 0 0 0 .051 1.252 2.315 2.315 0 0 1-.217 1.062 3.41 3.41 0 0 0-.072 1.495 4.769 4.769 0 0 0 1.81 1.399"/><path class="cls-7" d="M37.47 60.764c0 .163.066 1.08.36 1.243a13.518 13.518 0 0 0 1.309.524 4.686 4.686 0 0 0 1.342-1.113 9.48 9.48 0 0 0-.327-1.996 4.585 4.585 0 0 0-1.637 0"/><path class="cls-7" d="M38.484 60.862c.065.196.524.49.524.49l.392-.621s.098-.426-.229-.458M40.222 48.021c.36-.033.39-.282.717-.348a2.901 2.901 0 0 0 1.341-.85c.295-.393.916-1.473.818-1.767s-.458-.753-.49-.982.032-1.473-.197-1.669-1.309-1.113-1.702-1.374a3.932 3.932 0 0 0-1.832-.066 8.144 8.144 0 0 1-1.604.556 2.589 2.589 0 0 0-1.636 1.244 2.443 2.443 0 0 0 .051 1.253 2.313 2.313 0 0 1-.217 1.061 3.41 3.41 0 0 0-.072 1.495 4.748 4.748 0 0 0 1.81 1.4"/><path class="cls-7" d="M37.47 44.729c0 .164.066 1.08.36 1.243a13.492 13.492 0 0 0 1.309.524 4.67 4.67 0 0 0 1.342-1.113 9.491 9.491 0 0 0-.327-1.996 4.585 4.585 0 0 0-1.637 0"/><path class="cls-7" d="M38.484 44.827c.065.196.524.49.524.49l.392-.621s.098-.425-.229-.458M37.637 57.417a14.753 14.753 0 0 1-2.098-1.104c-.458-.262-1.407-.72-1.309-1.178s.36-1.309.36-1.309c-.098-.229-.654-1.538-.687-1.767a23.29 23.29 0 0 1 2.062-3.174c.294-.36 1.177-1.015 1.668-.622a1.236 1.236 0 0 0 1.146.262c.131-.066 1.439-.688 1.669-.524a20.14 20.14 0 0 1 2.29 1.898c.197.327.949 1.309.884 1.8a10.986 10.986 0 0 0-.131 2.06 3.04 3.04 0 0 1-.524 1.703 5.846 5.846 0 0 1-1.767 1.636"/><path class="cls-7" d="M37.24 55.724c.628.99 1.768.098 1.768.098M40.222 32.085c.36-.033.39-.282.717-.347a2.912 2.912 0 0 0 1.341-.851c.295-.393.916-1.473.818-1.767s-.458-.753-.49-.982.032-1.473-.197-1.67-1.309-1.112-1.702-1.373a3.945 3.945 0 0 0-1.832-.066 8.144 8.144 0 0 1-1.604.556 2.589 2.589 0 0 0-1.636 1.244 2.443 2.443 0 0 0 .051 1.253 2.313 2.313 0 0 1-.217 1.06 3.41 3.41 0 0 0-.072 1.496 4.748 4.748 0 0 0 1.81 1.399"/><path class="cls-7" d="M37.47 28.792c0 .164.066 1.08.36 1.244a13.705 13.705 0 0 0 1.309.523 4.682 4.682 0 0 0 1.342-1.112 9.49 9.49 0 0 0-.327-1.997 4.585 4.585 0 0 0-1.637 0"/><path class="cls-7" d="M38.484 28.89c.065.196.524.491.524.491l.392-.622s.098-.425-.229-.458M38.419 13.052c.066.196.524.491.524.491l.392-.622s.099-.425-.23-.458M37.637 41.48a14.764 14.764 0 0 1-2.098-1.103c-.458-.262-1.407-.72-1.309-1.179s.36-1.308.36-1.308c-.098-.23-.654-1.538-.687-1.767a23.407 23.407 0 0 1 2.062-3.175c.294-.36 1.177-1.015 1.668-.622a1.233 1.233 0 0 0 1.146.263c.131-.066 1.439-.688 1.669-.524a20.14 20.14 0 0 1 2.29 1.898c.197.327.949 1.308.884 1.8a10.992 10.992 0 0 0-.131 2.062 3.04 3.04 0 0 1-.524 1.7 5.846 5.846 0 0 1-1.767 1.637"/><path class="cls-7" d="M37.666 35.468a2.76 2.76 0 0 1 1.669-.425c.524.098 1.08 1.243 1.113 1.407a8.836 8.836 0 0 1-.556 2.258 4.607 4.607 0 0 1-1.67.196 9.248 9.248 0 0 1-1.44-.916 3.925 3.925 0 0 1 .132-.95"/><path class="cls-7" d="M38.517 36.482c.196-.13.752 0 .72.36a.665.665 0 0 1-.687.59l-.458-.36M35.834 35.435c0-.654 1.111-1.571 1.57-1.374M40.222 16.213c.36-.033.39-.282.717-.347a2.912 2.912 0 0 0 1.341-.85c.295-.393.916-1.474.818-1.768s-.458-.752-.49-.981.032-1.473-.197-1.67-1.309-1.112-1.702-1.373a3.932 3.932 0 0 0-1.832-.067 8.138 8.138 0 0 1-1.604.556 2.589 2.589 0 0 0-1.636 1.245 2.442 2.442 0 0 0 .051 1.252 2.313 2.313 0 0 1-.217 1.061 3.41 3.41 0 0 0-.072 1.495 4.747 4.747 0 0 0 1.81 1.4"/><path class="cls-7" d="M37.47 12.92c0 .165.066 1.08.36 1.245a13.705 13.705 0 0 0 1.309.523 4.682 4.682 0 0 0 1.342-1.112 9.49 9.49 0 0 0-.327-1.997 4.59 4.59 0 0 0-1.637 0M37.637 25.61a14.764 14.764 0 0 1-2.098-1.105c-.458-.262-1.407-.72-1.309-1.178s.36-1.309.36-1.309c-.098-.229-.654-1.538-.687-1.767a23.29 23.29 0 0 1 2.062-3.174c.294-.36 1.177-1.015 1.668-.622a1.233 1.233 0 0 0 1.146.262c.131-.066 1.439-.688 1.669-.524a20.13 20.13 0 0 1 2.29 1.898c.197.327.949 1.31.884 1.8a10.992 10.992 0 0 0-.131 2.062 3.04 3.04 0 0 1-.524 1.701A5.844 5.844 0 0 1 41.2 25.29"/><path class="cls-7" d="M37.666 19.597a2.761 2.761 0 0 1 1.669-.425c.524.098 1.08 1.243 1.113 1.407a8.838 8.838 0 0 1-.556 2.258 4.609 4.609 0 0 1-1.67.196 9.248 9.248 0 0 1-1.44-.916 3.925 3.925 0 0 1 .132-.95"/><path class="cls-7" d="M38.517 20.611c.196-.13.752 0 .72.36a.665.665 0 0 1-.687.59l-.458-.36M35.834 19.564c0-.654 1.111-1.571 1.57-1.375M27.064 67.112a2.392 2.392 0 0 1 1.636-1.243 8.138 8.138 0 0 0 1.604-.557 3.944 3.944 0 0 1 1.832.066c.393.262 1.473 1.178 1.702 1.374s.163 1.44.196 1.669.393.688.49.982-.523 1.374-.817 1.767a2.895 2.895 0 0 1-1.342.85c-.327.066-.687.557-1.047.59a6.723 6.723 0 0 1-2.16-.131c-.261-.197-1.374-.262-1.603-.524a12.623 12.623 0 0 1-.786-1.931"/><path class="cls-7" d="M28.896 69.075c0 .164.066 1.08.36 1.244a13.6 13.6 0 0 0 1.31.523 4.682 4.682 0 0 0 1.341-1.112 9.405 9.405 0 0 0-.328-1.996 4.58 4.58 0 0 0-1.636 0"/><path class="cls-7" d="M29.91 69.173c.067.196.525.491.525.491l.392-.622s.099-.425-.23-.458M17.835 69.86c-.098-.228-.654-1.537-.687-1.766a23.427 23.427 0 0 1 2.062-3.174c.295-.36 1.179-1.015 1.669-.622a1.233 1.233 0 0 0 1.146.262c.131-.065 1.439-.688 1.669-.524a20.14 20.14 0 0 1 2.29 1.898c.197.328.949 1.309.884 1.8a11.083 11.083 0 0 0-.131 2.062 3.037 3.037 0 0 1-.524 1.701 5.864 5.864 0 0 1-1.767 1.637c-.163.032-1.178-.622-1.407-.393a5.813 5.813 0 0 1-1.931.916 19.692 19.692 0 0 1-2.323-1.309c-.458-.262-1.407-.72-1.309-1.178s.36-1.31.36-1.31Z"/><path class="cls-7" d="M20.912 67.44a2.768 2.768 0 0 1 1.669-.427c.523.1 1.08 1.244 1.113 1.408a8.796 8.796 0 0 1-.557 2.258 4.6 4.6 0 0 1-1.67.196 9.252 9.252 0 0 1-1.44-.916 3.921 3.921 0 0 1 .132-.949"/><path class="cls-7" d="M21.762 68.454c.196-.131.752 0 .72.36a.665.665 0 0 1-.687.589l-.458-.36M19.079 67.406c0-.654 1.112-1.57 1.571-1.374M34.721 69.86c-.098-.228-.654-1.537-.687-1.766a23.437 23.437 0 0 1 2.061-3.174c.295-.36 1.18-1.016 1.67-.623a1.233 1.233 0 0 0 1.145.263c.13-.066 1.44-.689 1.67-.525a20.14 20.14 0 0 1 2.29 1.899c.196.327.948 1.308.883 1.8a10.998 10.998 0 0 0-.13 2.061 3.045 3.045 0 0 1-.525 1.701 5.863 5.863 0 0 1-1.767 1.637c-.163.032-1.178-.622-1.407-.393a5.812 5.812 0 0 1-1.93.916 19.692 19.692 0 0 1-2.324-1.309c-.458-.262-1.407-.72-1.309-1.178s.36-1.308.36-1.308Z"/><path class="cls-7" d="M37.797 67.44a2.768 2.768 0 0 1 1.67-.427c.523.1 1.08 1.244 1.112 1.408a8.796 8.796 0 0 1-.557 2.258 4.6 4.6 0 0 1-1.669.196 9.208 9.208 0 0 1-1.44-.916 3.921 3.921 0 0 1 .131-.949"/><path class="cls-7" d="M38.648 68.454c.196-.131.752 0 .72.36a.665.665 0 0 1-.688.589l-.457-.36M37.372 71.759c.544.684 1.767.098 1.767.098M35.965 67.406c0-.654 1.112-1.57 1.57-1.374M10.113 3.3a2.392 2.392 0 0 1 1.636-1.243 8.138 8.138 0 0 0 1.604-.557 3.931 3.931 0 0 1 1.832.066c.393.262 1.473 1.178 1.702 1.374s.163 1.44.196 1.669.393.687.49.982-.523 1.374-.817 1.767a2.906 2.906 0 0 1-1.342.851c-.327.065-.687.556-1.047.589a6.715 6.715 0 0 1-2.16-.131c-.261-.196-1.374-.262-1.603-.524a12.587 12.587 0 0 1-.786-1.931"/><path class="cls-7" d="M11.945 5.263c0 .164.066 1.08.36 1.244a13.705 13.705 0 0 0 1.31.523 4.682 4.682 0 0 0 1.341-1.112 9.425 9.425 0 0 0-.328-1.997 4.58 4.58 0 0 0-1.636 0"/><path class="cls-7" d="M12.96 5.362c.066.196.524.49.524.49l.392-.621s.099-.425-.229-.458M3.339 9.583c-.295-.033-1.047-.785-1.505-1.047S.427 7.816.524 7.358s.36-1.309.36-1.309C.788 5.82.23 4.511.198 4.282a23.607 23.607 0 0 1 2.062-3.175C2.554.748 3.437.093 3.928.487a1.231 1.231 0 0 0 1.145.261C5.203.682 6.513.06 6.742.224a20.158 20.158 0 0 1 2.29 1.898c.197.327.95 1.31.884 1.8a11.074 11.074 0 0 0-.13 2.062 3.05 3.05 0 0 1-.524 1.701 5.846 5.846 0 0 1-1.767 1.636"/><path class="cls-7" d="M3.96 3.627a2.768 2.768 0 0 1 1.67-.426c.524.1 1.08 1.244 1.113 1.408a8.796 8.796 0 0 1-.558 2.258 4.598 4.598 0 0 1-1.669.196 9.248 9.248 0 0 1-1.44-.916 3.929 3.929 0 0 1 .131-.949"/><path class="cls-7" d="M4.811 4.642c.196-.131.752 0 .72.36a.665.665 0 0 1-.687.589l-.458-.36M2.128 3.595c0-.655 1.112-1.572 1.571-1.375M27.064 3.3A2.392 2.392 0 0 1 28.7 2.057a8.138 8.138 0 0 0 1.604-.557 3.931 3.931 0 0 1 1.832.066c.393.262 1.473 1.178 1.702 1.374s.163 1.44.196 1.669.393.687.491.982-.524 1.374-.818 1.767a2.906 2.906 0 0 1-1.342.851c-.327.065-.687.556-1.047.589a6.723 6.723 0 0 1-2.16-.131c-.261-.196-1.374-.262-1.603-.524a12.587 12.587 0 0 1-.786-1.931"/><path class="cls-7" d="M28.896 5.263c0 .164.066 1.08.36 1.244a13.6 13.6 0 0 0 1.31.523 4.682 4.682 0 0 0 1.341-1.112 9.425 9.425 0 0 0-.328-1.997 4.58 4.58 0 0 0-1.636 0"/><path class="cls-7" d="M29.91 5.362c.067.196.525.49.525.49l.392-.621s.099-.425-.23-.458M17.835 6.049c-.098-.23-.654-1.538-.687-1.767a23.427 23.427 0 0 1 2.061-3.174c.295-.36 1.18-1.015 1.67-.622a1.233 1.233 0 0 0 1.145.262c.131-.066 1.44-.688 1.67-.524a20.14 20.14 0 0 1 2.29 1.898c.196.328.948 1.309.883 1.8a11.083 11.083 0 0 0-.13 2.062 3.037 3.037 0 0 1-.524 1.7 5.845 5.845 0 0 1-1.768 1.637c-.163.033-1.178-.621-1.407-.392a5.813 5.813 0 0 1-1.93.916 19.836 19.836 0 0 1-2.324-1.31c-.458-.261-1.407-.72-1.309-1.177s.36-1.31.36-1.31Z"/><path class="cls-7" d="M20.912 3.627a2.768 2.768 0 0 1 1.669-.426c.523.1 1.08 1.244 1.113 1.408a8.796 8.796 0 0 1-.557 2.258 4.598 4.598 0 0 1-1.67.196 9.244 9.244 0 0 1-1.44-.916 3.929 3.929 0 0 1 .132-.949"/><path class="cls-7" d="M21.762 4.642c.196-.131.752 0 .72.36a.665.665 0 0 1-.687.589l-.458-.36M19.079 3.595c0-.655 1.112-1.572 1.571-1.375M37.503 9.485a10.977 10.977 0 0 1-1.833-.95c-.458-.261-1.407-.72-1.31-1.177s.36-1.31.36-1.31c-.097-.228-.653-1.537-.686-1.766a23.407 23.407 0 0 1 2.062-3.174c.294-.36 1.178-1.015 1.669-.622a1.23 1.23 0 0 0 1.145.262c.131-.066 1.44-.688 1.669-.524a20.151 20.151 0 0 1 2.29 1.898c.197.327.95 1.309.884 1.8a11.165 11.165 0 0 0-.131 2.062 3.037 3.037 0 0 1-.523 1.7 5.857 5.857 0 0 1-1.767 1.637"/><path class="cls-7" d="M37.797 3.627a2.768 2.768 0 0 1 1.67-.426c.523.1 1.08 1.244 1.112 1.408a8.796 8.796 0 0 1-.557 2.258 4.598 4.598 0 0 1-1.669.196 9.2 9.2 0 0 1-1.44-.916 3.929 3.929 0 0 1 .131-.949"/><path class="cls-7" d="M38.648 4.642c.196-.131.752 0 .72.36a.665.665 0 0 1-.688.589l-.457-.36M35.965 3.595c0-.655 1.112-1.572 1.57-1.375"/><path class="cls-8" d="M21.235 14.343h1.304c0 2.487.323 7.568 5.538 10.66a6.069 6.069 0 0 0-1.021 1.09 11.653 11.653 0 0 1-5.256-7.22c-.995 3.267-2.675 5.767-5.31 7.26a7.43 7.43 0 0 0-1.049-.996c2.837-1.45 4.517-4.26 5.324-7.998l.699.161a20.686 20.686 0 0 1-.189-1.653h-3.253v-1.29h3.213ZM27.755 38.178v1.183H22.35v2.164c0 1.344-.7 1.452-3.307 1.452a5.546 5.546 0 0 0-.538-1.237c.578.027 1.156.027 1.586.027.9 0 .968 0 .968-.282V39.36h-5.35v-1.183h5.35v-1.05l.726.042a10.77 10.77 0 0 0 1.412-1.008h-5.162v-1.13h6.425l.215-.053.982.59a.45.45 0 0 1-.256.149 14.457 14.457 0 0 1-3.051 2.285v.175Zm-10.566-4.463v2.003h-1.196v-3.146h1.935a10.574 10.574 0 0 0-1.075-1.573l1.089-.497a8.173 8.173 0 0 1 1.304 1.896l-.363.174h2.379a9.489 9.489 0 0 0-.954-1.868l1.115-.417a8.43 8.43 0 0 1 1.116 2.097l-.47.188h2.056a14.379 14.379 0 0 0 1.385-2.137 13.88 13.88 0 0 1 1.478.564c-.053.108-.161.148-.335.135a17.155 17.155 0 0 1-1.09 1.438h2.004v3.146h-1.264v-2.003ZM27.795 50.84H23.95c.296 4.048 1.224 7.556 2.42 7.569.349 0 .524-.766.605-2.527a3.208 3.208 0 0 0 1.116.753c-.215 2.487-.686 3.132-1.828 3.132-2.272-.013-3.321-4.154-3.67-8.926h-6.95v-1.25h6.882a46.254 46.254 0 0 1-.067-2.366l1.748.094c-.014.12-.12.202-.35.242-.013.672 0 1.358.027 2.03h3.912Zm-8.106 3.026v3.508c.9-.174 1.842-.363 2.756-.551l.094 1.116a358.17 358.17 0 0 1-6.157 1.385.256.256 0 0 1-.215.215l-.484-1.425c.74-.121 1.68-.296 2.729-.498v-3.75H16.14V52.67h5.902v1.196Zm5.767-6.681a11.003 11.003 0 0 1 1.895 1.586l-.9.78a11.04 11.04 0 0 0-1.855-1.667Z"/><path class="cls-9" d="M7.822 73.297V86.78h4.451V72.479M36.226 72.904v13.875h-4.451V72.381"/><path class="cls-2" d="M59.43 25.38c.066.163 1.394 4.633 1.394 4.633l1.457 4.373.843 2.884 1.976-5.443s1.393-4.243 1.49-4.502.842-2.397.648-2.397-7.807.453-7.807.453M57.615 73.52s.056 6.542.028 6.74-.141 1.607-.141 1.607 2.876.93 3.045.902 1.382-.451 1.382-.451l.592-2.227.056-6.12-2.284-.45ZM69.23 73.52s-.056 6.542-.028 6.74.142 1.607.142 1.607-2.876.93-3.045.902-1.382-.451-1.382-.451l-.592-2.227-.056-6.12 2.283-.45Z"/><path d="M53.799 41.76s-3.338 5.032-3.646 5.546-1.232 2.516-1.54 2.875a9.788 9.788 0 0 1-2.106 1.592c-.154-.05-2.208-2.208-2.413-2.259s-.873-1.284-.873-1.284l2.259-3.08s3.441-7.139 3.903-8.782a27.4 27.4 0 0 1 2.414-4.93c.256-.41 1.899-2.413 1.899-2.413a18.983 18.983 0 0 1 1.901-1.643c.462-.257 2.054-1.335 2.362-1.438a5.556 5.556 0 0 1 1.54.205s2.054 5.649 2.208 6.008 1.695 5.187 1.695 5.033 1.386-4.52 1.386-4.725 2.362-6.778 2.516-6.778a16.354 16.354 0 0 1 2.003.514 38.605 38.605 0 0 1 4.519 3.49 31.613 31.613 0 0 1 2.619 4.623c.154.77 3.749 8.319 3.954 8.73s2.003 3.492 2.105 3.697 1.489 1.694 1.336 1.797-3.595 3.235-3.8 3.184a13.261 13.261 0 0 1-2.465-2.568c-.514-.821-4.879-7.343-4.879-7.343s.412 4.057.463 4.776 1.027 3.902 1.13 4.313.102.668-.052.719l-.924.308.976 3.646s1.591 7.6 1.643 8.165 1.027 3.85.873 3.85-4.365.155-4.365.155l.051.617-5.186.05-.205.72-7.549-.103-.154-.513s-5.135-.103-5.135-.257-.052-.616-.052-.616l-4.262-.103 3.492-15.816-1.078-.513s1.54-6.624 1.592-7.703.205-2.31.205-2.31Z" style="fill:#0079c1"/><path class="cls-11" d="M62.634 40.38a.916.916 0 1 1-.916-.916.916.916 0 0 1 .916.916M62.53 44.146a.916.916 0 1 1-.916-.916.916.916 0 0 1 .916.916M62.392 47.429a.915.915 0 1 1-.916-.916.915.915 0 0 1 .916.916"/><path class="cls-2" d="M66.953 40.742c-.035.104-.76 7.36-.76 7.36l4.734-.207-1.313-7.29Z"/><path class="cls-5" d="M66.124 40.708c-.103-.07-.83-.726-.83-.864s.208-1.036.208-1.036l.068-.9s.105-.725.105-.828.622-.484.622-.484a5.116 5.116 0 0 0 .828-.173c.104-.07.934-.518.934-.518a4.295 4.295 0 0 1 1.036.173c.104.104.934.587.934.587l.621.657a4.94 4.94 0 0 0 .034.967c.07.208.242.346.242.622s.07.968-.173 1.106-.621.622-.793.725a5.764 5.764 0 0 1-.795.415c-.209.069-.9.207-.9.207l-.518-.07-1.209-.206Z"/><path class="cls-12" d="M62.492 85.42a15.834 15.834 0 0 1-1.663.873c-.141 0-.677-.028-.677-.028a4.324 4.324 0 0 1-.818.93 34.935 34.935 0 0 1-3.806 1.325c-.479.028-3.186.085-3.524-.225s-.903-.762-.762-1.213 2.172-1.692 2.369-1.889a12.559 12.559 0 0 0 1.861-1.663c.169-.395.817-1.55.902-1.748a5.46 5.46 0 0 1 1.1-.79s.733.113.846.282a10.24 10.24 0 0 0 .845.96 5.416 5.416 0 0 0 1.494-.283 18.253 18.253 0 0 1 1.72-1.156c.113-.029.367 1.071.339 1.325s-.226 3.3-.226 3.3M64.164 85.42a15.736 15.736 0 0 0 1.664.873c.141 0 .676-.028.676-.028a4.356 4.356 0 0 0 .818.93 35.01 35.01 0 0 0 3.806 1.325c.479.028 3.186.085 3.524-.225s.903-.762.762-1.213-2.171-1.692-2.368-1.889a12.46 12.46 0 0 1-1.861-1.663c-.17-.395-.818-1.55-.903-1.748a5.427 5.427 0 0 0-1.099-.79s-.733.113-.846.282a10.371 10.371 0 0 1-.846.96 5.424 5.424 0 0 1-1.494-.283 18.24 18.24 0 0 0-1.72-1.156c-.113-.029-.367 1.071-.339 1.325s.226 3.3.226 3.3"/><path class="cls-2" d="m42.813 49.935.972-1.069 2.429 2.787s.033.711-.097.841a2.962 2.962 0 0 1-1.458-.258c-.161-.13-1.23-1.166-1.23-1.166ZM80.293 51.814l2.98-2.72.745.841s-1.49 1.782-1.717 1.976-1.36.81-1.36.81Z"/><path class="cls-13" d="M63.436 26.812c-1.963.098-7.755-1.522-9.179-5.498-.883-.294-3.927-1.03-4.025-4.025s.884-3.043 1.473-3.14 2.75-3.388 2.798-3.535 5.4-3.535 5.4-3.535l9.865-.147s2.994 5.351 3.142 5.351a14.765 14.765 0 0 1 1.227 2.012c1.62.246 2.258 1.522 1.865 3.142s-.49 2.061-1.374 2.552-2.897 1.522-2.897 1.522a7.396 7.396 0 0 1-2.6 3.387 30.358 30.358 0 0 1-4.173 1.816 13.219 13.219 0 0 0-1.522.098M36.586 54.153c-.245-.196.393-.491 1.08-.834a41.77 41.77 0 0 0 5.154-2.995c1.473 1.424 2.7 2.504 2.847 2.651-.884 2.75-1.522 3.976-2.013 3.829s-.539-1.129-.49-1.62a19.833 19.833 0 0 1-4.074 1.865c-.246 0-.393-.54-.344-.687s-1.473.54-1.424.245a2.102 2.102 0 0 1 .589-.982c.148-.049-1.865.1-1.718-.196s1.08-.736 1.129-.932-.736-.344-.736-.344M81.156 52.631a6.128 6.128 0 0 0 .736 2.7c.442.687 1.326 1.816 1.571 1.423a3.836 3.836 0 0 0 .246-1.57c1.128.884 3.583 2.013 3.975 1.817s.246-.59.393-.59c.786.295 1.178.344 1.227 0s-.343-.883-.147-.883c1.178.098 1.325.098 1.325-.147s-.785-1.08-.785-1.08c.736-.344.442-.491.196-.638a38.721 38.721 0 0 1-3.927-1.914c-.883-.64-2.012-1.473-2.012-1.473l-1.718 1.62ZM57.595 74.426a52.963 52.963 0 0 1-.294-5.99c.147.05 1.766-.048 1.914 0s.442.689.442.689l3.288.049-.343 5.448a18.368 18.368 0 0 1-2.602.295 24.294 24.294 0 0 1-2.405-.491M64.32 74.524l-.294-5.301a20.508 20.508 0 0 0 3.19-.098l.098-.737 2.209.147s.098 6.038-.196 6.185a18.266 18.266 0 0 1-2.7.246c-.147 0-2.307-.442-2.307-.442"/><path class="cls-14" d="M53.88 16.676a12.16 12.16 0 0 0-1.264-1.857 3.077 3.077 0 0 0-.473-.473c.316-4.227 1.264-7.742 2.883-9.362a11.428 11.428 0 0 1 6.123-3.04 9.526 9.526 0 0 1 6.24.67 11.842 11.842 0 0 1 5.49 4.898c.79 1.7 1.172 6.22 1.258 6.783a5.72 5.72 0 0 0-1.85 2.421c-.592-3.871-1.737-6.202-1.935-6.36a14.761 14.761 0 0 1-.08 4.306c-.75-2.173-2.132-4.7-2.961-5.293a22.704 22.704 0 0 1 .908 5.095c-1.975-.039-9.203-.079-9.44-.039.039-2.41.276-4.622.276-4.622-.987 1.7-2.291 4.622-2.448 4.898a32.9 32.9 0 0 0-.317-4.108 18.209 18.209 0 0 0-2.41 6.083M47.324 25.919c.276.04 4.424 2.252 4.424 2.252.987-4.701 2.333-6.72 2.509-6.856a18.442 18.442 0 0 1-2.509-.926 11.48 11.48 0 0 0-3.397 3.239c-.277.474-1.027 2.29-1.027 2.29M72.05 21.218c.159-.079 1.936-.829 2.134-.987 1.856 1.303 4.66 3.238 4.503 5.57a29.179 29.179 0 0 1-4.148 2.172 37.968 37.968 0 0 0-1.935-5.649 28.024 28.024 0 0 1-.553-1.106"/><path class="cls-15" d="M58.605 20.893a1.294 1.294 0 1 1-1.287-1.169 1.233 1.233 0 0 1 1.287 1.17M69.902 20.863a1.294 1.294 0 1 1-1.288-1.169 1.234 1.234 0 0 1 1.288 1.169"/><path class="cls-2" d="M52.85 14.655c.458-3.14.916-6.74 2.88-8.835a11.466 11.466 0 0 1 8.181-3.207c3.01 0 4.843.327 5.301.588-4.516-1.57-6.283-1.636-8.378-1.177s-4.843 1.636-5.89 3.207a15.498 15.498 0 0 0-2.487 4.843 30.189 30.189 0 0 0-.523 4.188l.681.557M51.748 20.389c-.534.419-3.667 2.133-4.424 5.53.879.32 1.403.517 1.403.517 1.309-3.47 2.29-5.301 3.338-5.89ZM43.177 48.357l.707 1.117c.851-1.178 3.338-3.6 4.058-6.218a58.496 58.496 0 0 1 3.337-9.359 22.527 22.527 0 0 1 6.152-6.283A9.686 9.686 0 0 0 59.5 26.15c-.955.024-1.02-.107-1.217-.04s-4.843 2.355-5.825 3.991-2.356 5.432-3.272 7.396-3.796 8.246-3.992 8.508-2.016 2.352-2.016 2.352M54.29 42.209c.066.589-.327 4.319-.524 5.956s-.458 3.01-.458 3.01l.132.548 1.243.238s-3.338 15.445-3.6 15.707-.985-.016-.985-.016l3.387-15.855-1.129-.294 1.28-6.087.392-2.553ZM51.325 87.384a10.549 10.549 0 0 1 1.46-.54 6.76 6.76 0 0 0 2.552-2.225 24.546 24.546 0 0 0 1.047-2.487 30.482 30.482 0 0 1-1.963 2.814c-.249.131-2.684 1.44-2.684 1.44l-.412.998"/><path class="cls-16" d="M62.994 26.812c4.565 0 8.05-3.338 8.737-5.645.688.491 1.718 2.945 2.798 6.774 0 0 1.718-.736 4.222-2.11a8.971 8.971 0 0 0-4.467-5.498c2.503-2.062 2.111-6.332-.344-6.038a17.33 17.33 0 0 0-1.129-6.234 10.735 10.735 0 0 0-19.536 0 17.33 17.33 0 0 0-1.129 6.234c-2.454-.294-2.847 3.976-.343 6.038a8.967 8.967 0 0 0-4.467 5.497c2.503 1.375 4.221 2.111 4.221 2.111 1.08-3.829 2.111-6.283 2.798-6.774.687 2.307 4.173 5.645 8.737 5.645"/><path class="cls-9" d="M52.392 14.394a5.484 5.484 0 0 1 1.522 2.994c.343-2.896.687-5.35 2.405-6.921-.295 1.473.196 3.632.098 4.369 1.178-2.847 1.865-4.663 2.798-5.351a17.497 17.497 0 0 0-.589 5.007 60.792 60.792 0 0 1 9.522.049 15.824 15.824 0 0 0-.932-5.301c1.816 1.62 2.258 3.68 2.994 5.596a20.6 20.6 0 0 0-.049-4.811 14.168 14.168 0 0 1 2.061 7.167c.688-2.16 1.228-2.847 1.719-2.896"/><path class="cls-8" d="M58.796 17.985a.69.69 0 1 1-.684-.78.737.737 0 0 1 .684.78M69.01 17.985a.69.69 0 1 1-.683-.78.737.737 0 0 1 .684.78"/><path class="cls-9" d="M63.247 18.747c.33.376.514.752-.037.89M59.916 21.463c.477 2.303 5.808 2.9 6.514.092M54.356 21.167a15.684 15.684 0 0 1-.442-3.78M51.803 20.333a11.037 11.037 0 0 0 2.307.883M74.284 20.333a11.246 11.246 0 0 1-2.553.835M72.222 17.191a14.6 14.6 0 0 1-.49 3.976"/><path class="cls-16" d="M58.642 25.88a25.521 25.521 0 0 0-5.206 3.338c-1.129 1.08-1.767 2.012-3.19 5.056-1.353 2.89-2.946 7.706-4.419 10.308a20.797 20.797 0 0 1-2.65 3.776l.294.54a11.594 11.594 0 0 0-.785 1.03l.099.344a12.498 12.498 0 0 1-3.437 2.307c-1.669.834-2.552 1.08-2.895 1.374s.686.344 1.276.344c-1.375.785-1.67.981-1.326 1.129a3.836 3.836 0 0 0 1.67 0c-.885.884-1.179 1.325.785.884.048.785.147.785 1.522.196a18.77 18.77 0 0 0 2.797-1.424c-.098.982-.344 1.62.246 1.522s1.375-1.08 1.717-2.209.491-1.767.491-1.767l.296.147.686-.932c.392 0 1.866-1.522 3.29-4.026s3.386-4.462 4.27-6.671a55.86 55.86 0 0 1-1.817 10.357 8.345 8.345 0 0 0 1.13.294c-.688 2.602-3.094 15.315-3.388 15.855 1.718.049 4.32.049 4.32.049l-.099.54 2.896.246c.05 2.012.638 9.473.393 12.516a2.232 2.232 0 0 0-1.473 1.424 6.894 6.894 0 0 1-1.963 2.651c-1.03.785-2.847 1.178-2.847 2.307s2.21 1.57 3.976 1.276a8.137 8.137 0 0 0 4.811-2.454 1.907 1.907 0 0 0 .687.196l1.767-.835c.098-1.668.098-4.27.05-4.614a3.135 3.135 0 0 0-.198-.687c.1-1.718.491-10.831.442-11.028M67.74 25.781a29.135 29.135 0 0 1 5.617 3.436c1.128 1.08 1.766 2.012 3.19 5.056 1.351 2.89 2.945 7.261 4.418 9.862a47.561 47.561 0 0 0 2.651 4.222l-.295.54a11.594 11.594 0 0 1 .785 1.03l-.098.344a12.477 12.477 0 0 0 3.436 2.307c1.669.835 2.552 1.08 2.896 1.375s-.687.343-1.276.343c1.374.785 1.669.982 1.325 1.13a3.836 3.836 0 0 1-1.669 0c.884.883 1.178 1.324-.785.883-.049.785-.147.785-1.522.196a18.58 18.58 0 0 1-2.797-1.424c.098.982.343 1.62-.246 1.522s-1.375-1.08-1.718-2.209-.491-1.767-.491-1.767l-.294.147-.688-.932c-.392 0-1.865-1.076-3.288-3.58s-3.387-4.908-4.271-7.117a55.94 55.94 0 0 0 1.816 10.357 8.345 8.345 0 0 1-1.129.294c.688 2.602 3.093 15.315 3.387 15.855-1.718.05-4.319.05-4.319.05l.098.54-2.896.245c-.049 2.012-.638 9.473-.393 12.517a2.23 2.23 0 0 1 1.473 1.423 6.879 6.879 0 0 0 1.963 2.651c1.031.785 2.847 1.178 2.847 2.307s-2.209 1.571-3.976 1.276a8.126 8.126 0 0 1-4.81-2.454 1.913 1.913 0 0 1-.687.196l-1.767-.834c-.099-1.669-.099-4.27-.049-4.614a3.16 3.16 0 0 1 .196-.688c-.098-1.718-.491-10.83-.442-11.027"/><path class="cls-9" d="M59.624 26.37c1.047 1.963 3.437 10.046 3.698 11.126s.294 11.784.294 12.762a3.918 3.918 0 0 1-1.047 2.291 54.893 54.893 0 0 1-9.261-.883M67.085 26.109c-.621 1.276-3.665 10.275-3.763 10.897M63.748 50.422a13.47 13.47 0 0 0 .589 2.095 44.498 44.498 0 0 0 8.97-.72"/><path class="cls-7" d="M62.635 40.377a.916.916 0 1 1-.916-.916.916.916 0 0 1 .916.916ZM62.57 44.172a.916.916 0 1 1-.917-.915.916.916 0 0 1 .916.915ZM62.471 47.38a.916.916 0 1 1-.916-.917.916.916 0 0 1 .916.916Z"/><path class="cls-9" d="M63.224 27.025c-.164 1.636-.164 2.585-2.095 3.043M63.322 27.287c.229 1.571.949 2.683 2.16 2.912M57.922 26.567c-.588 1.113-1.341 3.109-1.112 3.436s1.406.196 1.733.458c-.522.753-1.635 2.52-1.438 3.109s.949.687 1.505.949 3.992 2.258 4.385 3.567M68.59 26.567c.589 1.113 1.342 3.109 1.113 3.436s-1.407.196-1.734.458c.523.753 1.636 2.52 1.439 3.109s-.949.687-1.505.949-3.992 2.258-4.385 3.567M53.243 36.286a16.935 16.935 0 0 1 .93 4.86M73.466 35.926a13.402 13.402 0 0 0-.949 5.301M57.216 68.486c.674.066 2.31 0 2.31 0l.033.622s7.362.098 7.46.065.034-.687.034-.687h2.524M56.875 52.288c-.229 1.505-2.199 14.333-2.457 15.413M59.526 68.486c.262-1.604 1.734-14.955 1.734-15.838M69.602 52.288c.229 1.505 2.199 14.333 2.457 15.413M66.951 68.486c-.262-1.604-1.734-14.955-1.734-15.838M57.693 74.475c.982.556 4.123.523 4.876 0M57.759 81.052a2.276 2.276 0 0 1 1.309 1.276 3.426 3.426 0 0 0 3.35-2.06M60.112 86.206a10.552 10.552 0 0 1 .592-1.456M69.18 74.475c-.983.556-4.124.523-4.877 0M69.114 81.052a2.276 2.276 0 0 0-1.309 1.276 3.427 3.427 0 0 1-3.351-2.06M66.76 86.206a10.552 10.552 0 0 0-.591-1.456M43.471 48.897a18.537 18.537 0 0 0 3.143 2.945M42.95 50.183a8.626 8.626 0 0 0 2.68 2.445"/><path class="cls-7" d="M38.857 56.31c.914-.695 2.28-1.56 2.68-2.002M38.278 55.387a16.52 16.52 0 0 0 2.283-1.432M37.842 54.39c.154-.057 1.202-.558 1.868-.891"/><path class="cls-9" d="M83.22 48.897a18.5 18.5 0 0 1-3.141 2.945M83.742 50.183a8.62 8.62 0 0 1-2.681 2.445"/><path class="cls-7" d="M87.835 56.31c-.914-.695-2.493-1.537-2.893-1.98M88.62 55.425a17.346 17.346 0 0 1-2.415-1.41M89.09 54.352a62.643 62.643 0 0 1-2.421-1.116M68.87 41.134c.262-.024.282-.204.52-.252a2.113 2.113 0 0 0 .973-.617c.213-.285.664-1.068.593-1.282s-.332-.545-.356-.711.024-1.069-.142-1.211-.949-.807-1.234-.997a2.854 2.854 0 0 0-1.33-.047 5.954 5.954 0 0 1-1.162.403 1.875 1.875 0 0 0-1.187.902 1.775 1.775 0 0 0 .037.909 1.68 1.68 0 0 1-.157.769 2.466 2.466 0 0 0-.053 1.085 3.445 3.445 0 0 0 1.312 1.014s1.207.193 1.389.274.797-.239.797-.239Z"/><path class="cls-7" d="M66.874 38.746c0 .12.048.783.262.902a9.697 9.697 0 0 0 .948.38 3.391 3.391 0 0 0 .973-.807 6.824 6.824 0 0 0-.237-1.448 3.328 3.328 0 0 0-1.186 0"/><path class="cls-7" d="M67.61 38.817c.048.143.38.356.38.356l.285-.45s.071-.309-.166-.333M66.756 41.312c-.02.162-.669 6.769-.587 6.809s4.762-.243 4.904-.203c-.405-2.046-1.479-6.991-1.479-6.991"/></g></g></svg>