<svg xmlns="http://www.w3.org/2000/svg" viewBox="0 0 96.025 110.491"><defs><style>.cls-1{fill:#fff}.cls-2{fill:#e6e7e8}.cls-5{fill:#f15a29}.cls-7{fill:#a4cf5e}.cls-10,.cls-11{fill:none;stroke:#231f20;stroke-linecap:round;stroke-linejoin:round}.cls-10{stroke-width:.805px}.cls-11{stroke-width:.626px}.cls-15{fill:#ffedce}</style></defs><g id="Layer_2" data-name="Layer 2"><g id="Layer_1-2" data-name="Layer 1"><path class="cls-1" d="M49.77 110.083c-1.081.217-10.456.36-13.268-1.37-.288-2.019-.36-3.029-.36-3.029-3.605-1.225-9.447-4.758-12.619-9.229a24.965 24.965 0 0 1-4.83-13.845c-.073-4.47.432-6.993 1.01-7.859s4.037-4.255 5.767-4.759 6.49-2.308 17.234-3.029a95.038 95.038 0 0 1 23.94 1.586 18.485 18.485 0 0 1 10.022 5.481c1.081 1.37.937 4.326 1.081 6.633a29.803 29.803 0 0 1-1.369 9.807c-1.01 2.596-2.596 7.066-6.345 9.734a75.83 75.83 0 0 1-9.59 5.264c.072 2.091.288 3.317-.145 3.39s-6.418 1.152-7.427 1.152-3.1.073-3.1.073"/><path class="cls-2" d="M77.479 79.16c0 2.167-12.166 27.823-35.052 27.582a3.916 3.916 0 0 1-.12 2.891c6.504 0 14.422.856 17.99-.776a20.232 20.232 0 0 0 .56-3.44c7.227-3.252 10.359-5.299 12.406-8.19a24.664 24.664 0 0 0 3.854-8.07 52.528 52.528 0 0 0 .844-5.903c-.12-.602-.482-4.095-.482-4.095"/><path class="cls-2" d="M20.16 77.858c-.057-.989.757-8.61 21.236-9.483s30.02 2.385 32.579 4.712 2.618 5.294 1.92 6.69a8.3 8.3 0 0 1-2.036 2.444l-36.361 2.153-14.08-3.49s-.93.872-1.163.872a16.016 16.016 0 0 1-1.92-2.153Z"/><path d="M22.297 82.034c0-.865 2.09-4.615 2.668-5.192a14.938 14.938 0 0 1 5.482-2.667c1.873-.289 30.787 0 33.888.216s6.779 1.874 7.283 2.451 2.596 2.812 2.452 4.904c-4.111 3.028-13.701 5.047-21.2 4.76s-14.781.36-19.108-.578a99.77 99.77 0 0 1-10.311-3.1 10.152 10.152 0 0 1-1.154-.794" style="fill:#c49a6c"/><path d="M35.565 81.892c-.649-.144-.865-1.153-.865-1.586a33.627 33.627 0 0 1 .433-3.894c.144-.361.576-1.37 1.225-1.658s1.514.288 1.803-.145 1.37-1.947 1.37-1.947a4.091 4.091 0 0 1 1.154-.144 12.007 12.007 0 0 1 1.73.505c.217.144 1.298-.144 1.298-.144a14.59 14.59 0 0 1 1.875-1.66c.216 0 1.081-.432 1.37-.215s1.658 0 1.875 0a6.372 6.372 0 0 0 1.442-.865c.288-.217 2.02.432 2.307.36s1.731-.505 1.731-.505l1.442-.937a13.747 13.747 0 0 0 3.39-1.37 3.284 3.284 0 0 1 2.018-.721h2.02l2.667-1.226.937-1.009 1.37-.577s.144-1.154.144-1.515a31.275 31.275 0 0 1 0-3.677c.145-.216.794-.361 1.154-.505a15.46 15.46 0 0 1 2.596 0l.288 1.154a8.493 8.493 0 0 1 2.38.937c.216.361.505 1.01.072 1.37a23.496 23.496 0 0 1-2.091 1.659c-.505.288-1.587.793-1.514 1.009a4.875 4.875 0 0 1-.361 2.236 12.874 12.874 0 0 0-1.01 1.009s-.414 1.091-.576 1.37c-.505.866-.721 1.875-1.01 2.235a4.88 4.88 0 0 1-1.298.938 4.425 4.425 0 0 0-.937 1.082 5.31 5.31 0 0 1-.866.937c-.216.144-1.946 1.154-1.946 1.154L60.946 76.7l-1.225 1.082-2.236.793c-.504 0-1.658 1.298-2.018 1.442s-1.298.361-1.586.433-1.659.504-1.659.504l-1.01.794s-.504 1.009-.72 1.081-2.453.217-2.453.217l-3.532.721a7.445 7.445 0 0 1-1.803 0 5.358 5.358 0 0 0-1.73.288 10.278 10.278 0 0 1-2.453-.216 12.604 12.604 0 0 0-1.37-.865Z" style="fill:#ffd777"/><path class="cls-5" d="M68.446 64.298a5.63 5.63 0 0 1 2.163-.072l1.515-5.12s-.36-1.01-.794-.865-3.028.72-3.028.72l.072 3.1Z"/><path class="cls-5" d="M70.393 63.793a.946.946 0 0 1 .36.937 13.338 13.338 0 0 0 2.236-1.154c.36-.36 2.379-2.74 2.379-2.74l-.72-.793-2.596-.432s-1.01.576-1.01.793-.65 3.39-.65 3.39"/><path d="m34.63 79.007-3.998 1.68-1.41-1.031c-.937-2.525-1.298-5.193 0-6.49.778-.778 1.802-2.451 3.46-2.812s5.12-1.082 5.914-.937 2.523 0 3.172.577 1.948 1.73 1.948 2.596c-.577.72-.145 1.009-.577.72a7.734 7.734 0 0 0-2.452-1.081 6.02 6.02 0 0 0-1.442 1.298c-.144.36-.65 1.586-.937 1.514l-2.019-.505a15.91 15.91 0 0 0-1.154 2.236c0 .288-.505 2.235-.505 2.235" style="fill:#f593a4"/><path class="cls-1" d="M31.024 80.232c-.649-1.586-1.226-4.254-.577-6.057s4.471-3.173 7.066-3.317c2.597-.144 3.895.505 4.76 1.875a7.192 7.192 0 0 0-1.588-.215l-1.44 1.008-1.084 1.083h-1.44l-1.01 1.08-1.082 3.03-1.73.72Z"/><path class="cls-7" d="M52.798 81.818c-.288-.505.36-.939.721-1.154a8.085 8.085 0 0 1 1.875-1.009c.361 0 1.298.36 1.298.865s.36.505.288 1.01a1.347 1.347 0 0 1-.72 1.01c-.36.215 0 .143-.722.287a4.463 4.463 0 0 1-2.09-.144 4.401 4.401 0 0 1-.65-.865"/><path class="cls-7" d="M59.576 81.746c-1.226.144-3.173.216-3.1-.433a3.318 3.318 0 0 1 1.369-1.946 22.874 22.874 0 0 1 3.75-.29c.288.073.505.722.505.722a6.929 6.929 0 0 0-1.73.938 8.204 8.204 0 0 1-.794 1.009"/><path class="cls-7" d="M62.1 79.799c.484.16-.793-.865-.288-1.298a8.41 8.41 0 0 1 2.595-.721 12.785 12.785 0 0 1 1.154 1.658c.072.289-.072 1.154-.288 1.154a11.537 11.537 0 0 1-1.371-.288c-.288-.072-2.018-.577-1.802-.505m.505 3.173c-.361 0-2.452-.072-2.452-.433s-.289-.937.288-1.37a3.82 3.82 0 0 1 1.948-.721 16.689 16.689 0 0 1 2.306.432c.289.073.722.36.65.794s-.865 1.154-.865 1.154l-1.226.216Z"/><path class="cls-7" d="M58.423 84.125a8.468 8.468 0 0 1-1.947-.866 2.31 2.31 0 0 1 .072-.937c.144-.288.217-.504.793-.504a15.267 15.267 0 0 1 2.236.432c.432-.144 1.297.721 1.297.721s.578.432.289.65a3.811 3.811 0 0 1-1.226.576 8.352 8.352 0 0 1-1.514-.072"/><path d="M61.74 82.683c-.867-.649-.794-1.586.576-1.514s2.596.216 2.307.865-.72 1.082-1.37 1.01a9.073 9.073 0 0 1-1.514-.36m-4.399-.866a2.692 2.692 0 0 1 1.876-1.947c.937-.144 2.018-.072 2.09.216s.146.65-.36.865-.504.577-.937.794a11.489 11.489 0 0 1-2.668.072m4.687-2.74c1.01-.432 1.875-.144 2.019.217a1.721 1.721 0 0 1-.144 1.009s-1.225-.216-1.442-.216-.866-1.01-.866-1.01m-4.038 3.245a1.26 1.26 0 0 0 1.298.793 17.154 17.154 0 0 0 1.442-.216l-.432-.721H57.99m-2.091-.289c-.505.072-1.802.072-1.658-.361s.865-.721 1.08-.793a2.793 2.793 0 0 1 .65-.072 6.872 6.872 0 0 1 .505.649c.072.144.653.297.288.505a.88.88 0 0 1-.865.072" style="fill:#fffce1"/><path d="M46.753 106.534c.186-2.506.371-15.962 1.114-17.167.742-1.206 2.041-1.67 2.505-.463s.093 10.578.186 13.083a15.517 15.517 0 0 1-.37 4.826c-.187.277-3.435-.28-3.435-.28m6.589.001c.372-1.95 1.856-11.043 2.413-13.734s.834-5.01 2.04-4.64 1.021 2.878.835 4.455-.835 5.752-1.299 7.608-.835 4.547-1.206 5.475l-.37.928a17.206 17.206 0 0 0-2.414-.093m7.146-1.299c.835-1.577 2.228-7.238 2.69-9.65s.37-6.775 1.578-7.517 1.578 0 1.67 1.114a53.981 53.981 0 0 1-1.205 10.485c-.736 3.386-.836 4.176-1.207 4.64a10.02 10.02 0 0 1-3.526.928m6.217-3.248a54.982 54.982 0 0 0 4.454-11.042c.557-2.69.743-5.01 1.67-5.846s1.114-.372 1.02 2.134a25.043 25.043 0 0 1-1.391 8.073 20.485 20.485 0 0 1-2.691 5.011 27.093 27.093 0 0 1-3.062 1.67m-23.641 4.548c-.37-1.95-1.855-11.043-2.413-13.734-.556-2.69-.834-5.01-2.04-4.64s-1.02 2.878-.836 4.455.835 5.752 1.299 7.608.835 4.547 1.206 5.475l.371.928a17.207 17.207 0 0 1 2.413-.093m-7.145-1.299c-.835-1.577-2.228-7.238-2.691-9.65s-.371-6.775-1.577-7.517-1.578 0-1.671 1.114a53.978 53.978 0 0 0 1.206 10.485c.736 3.386.835 4.176 1.207 4.64a10.02 10.02 0 0 0 3.526.928m-6.218-3.248a55.041 55.041 0 0 1-4.453-11.042c-.557-2.69-.743-5.01-1.67-5.846s-1.114-.372-1.021 2.134a25.043 25.043 0 0 0 1.392 8.073 20.485 20.485 0 0 0 2.69 5.011 27.093 27.093 0 0 0 3.063 1.67" style="fill:#0082c9"/><path class="cls-1" d="M35.344 81.35a23.48 23.48 0 0 1 .523-2.968c0-.29.757-1.222.757-1.222s1.222.175 1.222-.058a7.272 7.272 0 0 1 1.047-1.396s.523-.523.872-.465 1.28-.582 1.28-.582c.466-.117 1.629.698 1.862.582a6.445 6.445 0 0 0 1.571-1.397 10.512 10.512 0 0 1 1.687-1.512s2.909-1.222 4.421-1.048 2.328.932 2.618.583a5.42 5.42 0 0 1 1.63-1.222 5.19 5.19 0 0 1 1.687.29s2.21-1.628 2.443-1.745a7.302 7.302 0 0 1 2.152-.524 7.24 7.24 0 0 0 2.037-.465 10.555 10.555 0 0 0 2.036-.698c.407-.29 1.28-.174 1.861-1.163a6.093 6.093 0 0 1 1.455-1.63c.233-.232.12-.939-.348-.557-.466.383-2.619 1.954-2.619 1.954s-1.047.64-1.455.814a3.354 3.354 0 0 1-1.57.291 8.55 8.55 0 0 0-1.35-.247l-2.025 1.003a10.076 10.076 0 0 1-1.745.815 13.053 13.053 0 0 0-2.152.581 8.625 8.625 0 0 1-1.688.7c-.407.057-.756-.292-1.105-.292s-1.629.174-1.629.174l-1.803.757-1.862-.233s-1.221.873-1.687 1.222a9.34 9.34 0 0 1-2.095 1.396 15.61 15.61 0 0 1-1.92-.466l-1.803.64-1.488 1.347a1.385 1.385 0 0 0-.839.05 12.136 12.136 0 0 0-1.629 1.28s-.64 1.628-.814 1.92a11.113 11.113 0 0 0-.29 3.315Z"/><path class="cls-1" d="M68.389 64.013s-.35-5.47-.175-5.41 4.242-.29 3.837-.145-2.498 1.075-2.498 1.075a9.4 9.4 0 0 0-.64 2.036 12.794 12.794 0 0 1 0 1.513l-.175 1.106Zm2.004-.22c-.142-.188 1.37-4.182 1.659-4.182a12.877 12.877 0 0 1 1.515.33s-1.164 1.105-1.397 1.395-1.861 2.91-1.861 2.91ZM28.999 84.764c.86-1.791 4.445-3.727 4.804-3.656s-1.721.932-2.08 1.577a24.694 24.694 0 0 1-1.577 2.152Zm-2.366-1.72a10.681 10.681 0 0 1 3.226-2.653c.287-.072-.645-.717-1.147-.215s-2.08 2.868-2.08 2.868m7.098 1.936a8.775 8.775 0 0 1 2.725-1.649s-.43-.573-.932-.359-1.505.646-1.577.933-.215 1.075-.215 1.075m15.558 1.075a12.934 12.934 0 0 1 3.728-1.935c1.147-.36 2.796-1.004 2.438-1.076a7.941 7.941 0 0 0-2.51.287 12.259 12.259 0 0 0-2.581 1.219c-.287.358-1.075 1.505-1.075 1.505m16.491-4.373a6.219 6.219 0 0 1 4.516.143c1.22.43 2.724.43 2.151 0a10.435 10.435 0 0 0-3.585-1.003 25.612 25.612 0 0 0-2.653.43 1.065 1.065 0 0 0-.43.43m-.218-2.244c1.007-.409 4.233.021 4.95.38s2.08.43 1.506-.144a6.154 6.154 0 0 0-2.94-1.219c-.645 0-3.154.43-3.154.43Zm-41.224 2.53c.788-1.29 1.22-2.295 2.294-2.868s1.792-1.148 1.577-1.219a2.658 2.658 0 0 0-1.649.573c-.5.431-1.864 1.793-1.864 1.793Z"/><path class="cls-10" d="M69.484 69.501c5.02 1.751 7.971 4.323 8.087 7.734.227 6.645 1.39 21.455-17.098 28.16.061 1.62.061 3.073.061 3.073-.424.447-2.84 1.62-12.205 1.62s-11.78-1.173-12.205-1.62c0 0 0-1.453.061-3.073C17.698 98.69 18.86 83.88 19.087 77.235c.242-7.096 12.748-10.56 30.632-10.56"/><path class="cls-10" d="M46.94 66.675a104.672 104.672 0 0 1 12.762.708c1.115-.26 2.065-.205 2.288-.317a.635.635 0 0 1 .782.223c.168.28 1.062-.11 1.286-.279a7.08 7.08 0 0 1 1.229-.726c.223-.056.447-.67.726-.95a2.328 2.328 0 0 1 1.118-.559 2.535 2.535 0 0 0 1.061-.447c.168-.168-.335-5.084-.167-5.53s3.631-.504 3.911-.504.279 1.397.279 1.397c1.62 0 2.849.503 3.017.894s-1.006 2.011-1.453 2.347-2.737 1.9-2.737 1.9a2.567 2.567 0 0 1-.224 1.787 3.74 3.74 0 0 0-.726 1.173.664.664 0 0 1-.224.615 7.893 7.893 0 0 0-.782.894"/><path class="cls-11" d="M76.237 77.794c0 6.146-12.441 8.828-28.103 8.828S20.03 83.94 20.03 77.794"/><path class="cls-11" d="M68.75 69.413a5.793 5.793 0 0 1-.558 1.956c-.28.391-.223.67-.614.838s-1.341.391-1.51 1.117-1.843 1.732-2.457 1.9a8.722 8.722 0 0 0-2.012.838c-.28.223-1.23.726-1.396 1.061s-.84.559-1.23.95a4.015 4.015 0 0 1-1.9.503 2.931 2.931 0 0 0-1.34.95 5.884 5.884 0 0 1-2.46 1.229c-.166-.056-2.122.838-2.234 1.285s-.391.894-1.34.894-3.632.838-4.47.95a4.948 4.948 0 0 1-2.403 0c-.56-.279-2.46.224-3.241.056a12.234 12.234 0 0 1-3.352-1.397c-.782-.559-1.676-1.285-1.676-1.285s-.168-.168-.056-1.006a8.32 8.32 0 0 1 .335-1.955c.224-.559.224-1.285.559-2.012s.894-1.899 1.9-1.732 1.06.28 1.229-.223a4.069 4.069 0 0 1 1.564-1.509c.503-.279-.167-.559 1.062-.279s1.844.782 2.29.614a6.673 6.673 0 0 0 1.789-1.564 2.692 2.692 0 0 1 1.62-.838 6.09 6.09 0 0 1 1.732-.056c.335.168.838.447 1.229 0s1.676-1.061 2.179-.838a10.73 10.73 0 0 0 1.565.447s1.06-.67 1.899-1.117a5.427 5.427 0 0 1 2.068-.448 1.065 1.065 0 0 0 .782-.39 3.343 3.343 0 0 1 1.397-.727"/><path class="cls-11" d="M34.277 79.023c-.135.068-1.803.83-3.1 1.422-.848.387-1.883-.573-1.883-.573-2.179-4.86-.772-8.392 4.424-9.677s9.108-1.005 9.89 2.738m16.315 8.94c.059-1.29 1.732-1.788 3.185-1.62s2.682.614 2.346 1.732-2.067 1.509-3.128 1.229-2.46-.112-2.403-1.341Z"/><path class="cls-11" d="M59.7 81.873c-1.063.335-3.242.056-3.186-1.006s2.403-1.955 3.576-1.955 1.956.447 1.844 1.117m-.447-1.285c.335-.894 2.291-.894 3.241-.391s.95 2.123.391 2.346m-8.213 1.174a1.057 1.057 0 0 0-.223 1.9c.894.726 4.023 1.006 4.524-.503m-6.089-3.185a1.28 1.28 0 0 1 1.34.279m-4.022.894c-.335.838 1.285 2.291 3.52 1.453m-33.468-.951c.112-2.681 2.682-5.81 5.811-6.592m45.648 6.592c-.112-2.681-2.78-5.49-5.811-6.592a16.645 16.645 0 0 0-2.905-.67M24.3 82.672c-.503-1.676 1.372-4.43 4.166-5.158m.611 6.806c1.006-1.845 4.754-3.62 5.312-3.62m-5.147-.553c-1.844.335-3.084 2.508-2.526 3.514m9.553 2.086a7.653 7.653 0 0 0 2.91-1.811m1.371.164a4.257 4.257 0 0 1 1.868 2.086m2.305-2.141a5.182 5.182 0 0 1 2.416 2.196m1.386.102c1.565-1.454 3.632-3.13 5.308-3.353m-1.006 3.129c1.62-1.508 2.85-2.067 3.91-2.123m8.941-2.626c2.817-1.333 6.099-.138 6.77.644"/><path class="cls-11" d="M65.454 78.967c1.955-.559 5.401-.852 6.554.685M61.04 76.677c1.844-.28 5.084.278 5.755 1.731"/><path class="cls-11" d="M64.225 75.056c1.9.614 4.358 1.117 4.526 3.296m-31.988 4.375c-1.153.164-3.126.74-3.294 2.361m30.868-1.986c1.788 0 4.038.164 4.652.778M35.92 105.232c5.443 2.273 19.377 2.06 24.553.163"/><path d="M46.697 54.47c.463-2.48.23-8.574 0-12.825s-1.546-14.878-1.623-15.303-.773-3.542-.927-4.534c-.077-.708.618-.92.618-1.488s-.078-1.488-1.776-1.842c0 0-.31-.708-.695-1.629-.078-.355.926-.709.926-1.417s-.231-.92-1.853-.92a7.36 7.36 0 0 1-.618-1.419c0-.283.386-.992.154-1.629s0-.992-1.544-1.205a13.806 13.806 0 0 0-1.467-1.842c-.772-.779-3.707-1.842-6.797-2.834a4.416 4.416 0 0 0-2.085-4.32c-1.237-.85-4.866-.993-7.802-.71-2.933.283-4.014 1.488-4.4 4.818a16.265 16.265 0 0 1-2.626.85 12.553 12.553 0 0 0-5.948 4.392c-.232.142-1.004-.212-1.39.284a1.592 1.592 0 0 0 .077 1.984s-.54 1.417-.695 1.771-1.468-.354-1.854.637a1.545 1.545 0 0 0 .618 1.701s.077.284-.463 1.701c-1.854.283-1.854 1.346-.85 2.833 0 0-.772 4.393-1.08 5.952S.974 42 .896 42.92a96.928 96.928 0 0 0 .078 11.69 5.294 5.294 0 0 0-.463 3.542c.308 1.63 3.011 2.126 6.718 2.977s12.817 1.373 16.76 1.488a89.322 89.322 0 0 0 13.903-.85c6.023-.851 8.726-2.551 9.344-3.756s.309-1.984-.54-3.542M26.1 5.396c-.34.044-3.967.156-4.186.156s-1.265-.245-1.193-.4a3.975 3.975 0 0 1 2.043-1.72 6.589 6.589 0 0 1 2.606.178c.536.201 1.144.446 1.265 1.027s-.195.714-.535.76" style="fill:#3a928a"/><path class="cls-1" d="M16.802 5.564a11.085 11.085 0 0 1 1.705.026c.427-2.45.967-4.12 4.435-4.276s5.287-.053 6.766.808a10.763 10.763 0 0 0-6.48-1.72 16.158 16.158 0 0 0-4.294.807 9.481 9.481 0 0 0-1.847 2.112c-.142.392-.54 1.382-.569 1.54a2.232 2.232 0 0 0 .284.703m-4.405 1.669a17.756 17.756 0 0 1 6.823-1.617c2.615-.104 10.176-.391 12.735.39s3.723 1.41 3.923 1.722c-1.962-.495-4.662-1.694-12.622-1.2s-9.62 1.532-11.44 3.513a25.748 25.748 0 0 0-5.531 10.225C5.262 24.464 4.113 31.824 3.77 34.849s-.948 9.833-1.061 12.963a57.367 57.367 0 0 0 .614 8.045 2.622 2.622 0 0 0-1.642 1.496c-.45 1.082 1.05 2.633 1.137 2.842C1.284 59.125.403 57.692.43 56.727s.483-2.034.483-2.503-.341-8.892-.2-10.926 1.28-12.334 1.479-13.742 1.42-7.665 1.649-8.552S6.37 14.407 6.74 13.44a27.59 27.59 0 0 1 2.387-3.99 10.358 10.358 0 0 1 3.269-2.218"/><path class="cls-1" d="M10.039 12.664c.106.682 1.097-1.037 1.775-.385-.516-.829-1.226-1.125-1.581-.799s-.226.977-.194 1.184m4.551.089c.106.682 1.097-1.037 1.775-.385-.516-.829-1.226-1.125-1.581-.799s-.226.977-.194 1.184m-6.73 3.731c.142.682 1.467-1.037 2.372-.385-.69-.83-1.638-1.125-2.113-.8s-.302.978-.259 1.185m4.907.326c.142.682 1.466-1.037 2.372-.385-.69-.829-1.64-1.125-2.113-.8s-.303.978-.26 1.185m13.224 0c.142.682 1.466-1.037 2.372-.385-.69-.829-1.639-1.125-2.113-.8s-.302.978-.259 1.185m.11 4.448c.142.682 1.466-1.037 2.372-.386-.69-.828-1.639-1.124-2.113-.799s-.302.977-.259 1.185m-19.854-.451c.142.682 1.466-1.037 2.372-.385-.69-.829-1.639-1.125-2.113-.799s-.302.977-.259 1.184m5.455.415c.142.682 1.466-1.037 2.373-.385-.69-.829-1.639-1.125-2.114-.8s-.302.978-.259 1.185m-4.893-9.679c.423-.31.507-.31.845-.076s.58-.854.58-.854-.242-.31-.496-.154-.93.698-.93.698ZM4.78 15.265a1.525 1.525 0 0 1 1.183.542c.591-.775.263-1.154.263-1.154s-.77-.241-.939-.008-.507.62-.507.62m-1.436 4.263c.254-.155 1.014.388 1.268.62.422-1.473-.084-1.457-.084-1.457l-.93.372Zm17.575-6.977c.168-.62 1.098-.775 1.69-.155a.995.995 0 0 0-1.352.542c-.17.543.169.853-.17.543-.337-.31-.168-.93-.168-.93m4.647.62c-.338-.542-.253-1.007.338-1.162a1.248 1.248 0 0 1 1.268.31c-.846.155-1.268.077-1.352.387a1.048 1.048 0 0 1-.254.466m-5.129 3.845c.169-.31 1.352-1.24 2.028-.542-.084-.388-1.014-.62-1.351-.465-.34.154-.677 1.007-.677 1.007m-.702 5.038c.338-.775 1.014-1.705 2.197-1.395-.929-.465-1.606-.775-1.943-.31a3.584 3.584 0 0 0-.254 1.705"/><path class="cls-10" d="M23.873.403c5.282 0 7.199 1.853 7.199 5.368.932 0 6.629 1.52 8.235 4.94a1.253 1.253 0 0 1 1.295 2.139 9.117 9.117 0 0 1 .828 1.853c1.45-.57 2.597 1.277.836 2.132.26.666.691 1.9.691 1.9 1.451-.285 2.668 2.002.96 2.809.776 1.948 3.935 22.616 2.744 33.021.984.855 1.036 3.943-.725 4.894s-7.529 3.088-21.513 3.088S3.571 60.408 1.81 59.459s-1.709-4.04-.725-4.895c-1.19-10.404 1.967-31.073 2.744-33.02a1.49 1.49 0 0 1 .726-2.85s.362-.95.622-1.616a1.25 1.25 0 1 1 .872-2.338 19.501 19.501 0 0 0 1.01-1.95c-1.347-1.14.137-2.648 1.38-2.078 1.606-3.422 7.303-4.942 8.235-4.942 0-3.515 1.917-5.368 7.2-5.368"/><path class="cls-11" d="M16.564 5.776c2.704-.433 12.64-.39 14.444.098"/><path class="cls-10" d="M20.653 5.386c0-1.851 1.753-2.095 3.24-2.095s2.761.536 2.761 2.047"/><path class="cls-11" d="M8.864 10.258c8.338-.244 21.773-.341 29.951.097M3.607 23.411c8.71 1.023 34.146 1.17 40.412-.536"/><path class="cls-11" d="M19.378 10.112c-1.964 3.702-2.389 9.354-2.867 13.835m11.312-13.835c1.275 1.218 3.983 8.184 4.3 13.689M15.251 11.444c.802 0 1.281.517 1.154 1.103a1.122 1.122 0 0 1-1.254.828.807.807 0 0 1-.853-.874.98.98 0 0 1 .953-1.057Zm-4.531-.017c.802 0 1.28.518 1.153 1.104a1.12 1.12 0 0 1-1.253.828.807.807 0 0 1-.853-.874.98.98 0 0 1 .953-1.058Zm3.141 4.159c.918 0 1.465.592 1.32 1.263a1.282 1.282 0 0 1-1.435.947.923.923 0 0 1-.975-1 1.122 1.122 0 0 1 1.09-1.21Zm7.437.004c.918 0 1.465.592 1.319 1.263a1.282 1.282 0 0 1-1.434.947.923.923 0 0 1-.975-1 1.122 1.122 0 0 1 1.09-1.21Zm5.385.106c.863-.288 1.597.097 1.71.773.132.796-.456 1.16-.995 1.34a.985.985 0 0 1-1.288-.634 1.053 1.053 0 0 1 .573-1.479Zm-6.023 4.327c1.007 0 1.607.65 1.447 1.385a1.405 1.405 0 0 1-1.573 1.039 1.012 1.012 0 0 1-1.07-1.096 1.231 1.231 0 0 1 1.196-1.328Zm5.908.117c.946-.316 1.752.106 1.876.849.145.872-.5 1.271-1.091 1.469a1.08 1.08 0 0 1-1.414-.696 1.156 1.156 0 0 1 .629-1.622ZM8.873 15.112c.917 0 1.465.592 1.319 1.262a1.281 1.281 0 0 1-1.434.948.923.923 0 0 1-.975-1 1.122 1.122 0 0 1 1.09-1.21Zm3.858 4.763c1 0 1.598.646 1.438 1.378a1.398 1.398 0 0 1-1.564 1.032 1.006 1.006 0 0 1-1.063-1.09 1.223 1.223 0 0 1 1.19-1.32Zm-5.459-.476c1 0 1.598.646 1.438 1.377a1.398 1.398 0 0 1-1.564 1.033 1.006 1.006 0 0 1-1.063-1.09 1.224 1.224 0 0 1 1.19-1.32Zm26.936-3.813c-.917 0-1.465.592-1.32 1.263a1.283 1.283 0 0 0 1.435.947.922.922 0 0 0 .975-1 1.121 1.121 0 0 0-1.09-1.21Zm5.077-.554c-.917 0-1.465.592-1.319 1.263a1.282 1.282 0 0 0 1.434.947.923.923 0 0 0 .975-1 1.122 1.122 0 0 0-1.09-1.21Zm-3.946 4.843c-1 0-1.598.646-1.438 1.378a1.397 1.397 0 0 0 1.564 1.032 1.006 1.006 0 0 0 1.063-1.09 1.223 1.223 0 0 0-1.19-1.32Zm5.547-.556c-1.001 0-1.598.646-1.438 1.377a1.398 1.398 0 0 0 1.564 1.033 1.007 1.007 0 0 0 1.063-1.09 1.224 1.224 0 0 0-1.189-1.32Zm-14.695-7.486c.802 0 1.281.518 1.153 1.104a1.121 1.121 0 0 1-1.254.828.807.807 0 0 1-.852-.874.98.98 0 0 1 .953-1.058Zm-4.531-.016c.802 0 1.28.518 1.153 1.104a1.12 1.12 0 0 1-1.254.828.806.806 0 0 1-.852-.874.98.98 0 0 1 .953-1.058Zm11.298-.325c-.802 0-1.281.517-1.154 1.104a1.122 1.122 0 0 0 1.254.828.807.807 0 0 0 .853-.874.98.98 0 0 0-.953-1.058Zm4.532-.016c-.802 0-1.281.518-1.153 1.104a1.12 1.12 0 0 0 1.253.828.807.807 0 0 0 .853-.874.98.98 0 0 0-.953-1.058ZM8.333 10.94A33.517 33.517 0 0 0 3.83 21.544M39.197 10.94a35.629 35.629 0 0 1 4.45 10.474m-40.89 5.651c8.52 1.6 34.667 1.303 38.84.334M1.774 35.788c9.88 2.54 35.564 2.04 39.897 1.073M1.35 39.175c9.881 2.683 36.388 1.932 40.768.963M1.145 46.172c11.356 3.023 33.771 2.687 42.984.745M.895 49.34c12.638 4.135 40.169 2.292 43.384.483"/><path class="cls-11" d="M45.883 33.035c-2.023.182-4.543 1.08-4.188 5.03.304 3.387 2.792 3.836 4.967 3.64"/><path class="cls-10" d="M1.27 54.59c2.018 2.094 10.834 3.847 22.092 3.847s20.517-1.322 23.299-3.873"/><path class="cls-11" d="M40.926 23.674c.372.894 1.49 6.555 1.788 7.747a20.863 20.863 0 0 1 1.862 1.64m.746 8.716-1.341 1.937a99.565 99.565 0 0 1 .298 12.068"/><path d="M54.1 41.889c-.973-.058-2.351-.252-2.835-.957a9.512 9.512 0 0 1-.902-4.545c.273-.81 1.147-3.132 2.228-3.127s11.788-.173 16.707-.046c4.921.126 12.435.317 12.922.21s8.435.14 8.949-.047a8.337 8.337 0 0 1 3.512.824c.512.353 1.446 3.736 1.254 4.303s-1.768 2.832-2.416 2.883c-.65.053-4.002.094-4.76.199s-23.303-.195-23.601-.115-8.517.373-8.517.373Z" style="fill:#8b5d24"/><path d="M53.214 33.018c.938.101 1.158 1.113 1.614 2.17a10.892 10.892 0 0 1-.045 4.946c-.3.891-.953 1.483-1.574 1.454s-1.65.075-1.945-.656a12.027 12.027 0 0 1-.906-3.464c.111-.594.337-3.134.906-3.484s1.166-1.05 1.95-.966" style="fill:#edc9a3"/><path class="cls-15" d="M63.4 32.538c2.593.604 2.314 1.671 2.66 3.051a10.667 10.667 0 0 1-.125 4.379c-.247.999-.737 1.917-1.224 2.022-.486.107-.964.335-.722.687a19.124 19.124 0 0 1-.616 5.906 18.585 18.585 0 0 1-1.984 4.099c-.842 1.159-1.62 1.754-1.677 2.187.183 1.865.05 2.054-.465 2.511-.516.458-.247 1-.629 1.863s-1.563 2.784-2.267 2.998a2.931 2.931 0 0 1-1.717-.282.743.743 0 0 1-.783-.354c-.377-.488-.239-1.164-.644-1.299-.405-.138-1.728-.495-1.13-1.195s3.303-1.502 3.791-1.879a1.8 1.8 0 0 0 .708-1.294 4.063 4.063 0 0 1 1.197-1.942 10.173 10.173 0 0 0 1.711-2.4 27.65 27.65 0 0 0 1.99-4.021 19.08 19.08 0 0 0 .018-5.136 5.654 5.654 0 0 1-2.159-.82c1.089-2.158 1.307-2.535 1.23-3.374a9.796 9.796 0 0 0-.638-3.193 76.103 76.103 0 0 1-1.29-1.789c.001-.541.866-.43 1.435-.779m24.613.327c-1.702-.304-1.972-.033-2.462.613a8.73 8.73 0 0 1 1.688 4.088 8.11 8.11 0 0 1-.255 3.163c-.165.486-.492 1.187-.492 1.187 1.864.63 2.646.713 3.054.308 1.24.6 2.544-.584 2.544-.584a13.367 13.367 0 0 0 .507-5.784c-.264-1.352-.504-2.516-1.07-2.707a3.917 3.917 0 0 1-1.231-.928"/><path class="cls-1" d="M50.96 35.665c.674-1.052 2.189-1.124 4.179-1.093s39.784.127 39.784.127a12.004 12.004 0 0 0-1.818-1.369c-.24 0-36.671-.137-36.96-.234a21.492 21.492 0 0 0-4.362.367 9.778 9.778 0 0 0-1.012 1.34c-.097.286.189.862.189.862"/><path class="cls-15" d="M62.857 32.516c-3.638-4.166-7.075-14.873-6.973-16.756a2.523 2.523 0 0 0-2.02.114 41.896 41.896 0 0 0 6.67 16.585 10.736 10.736 0 0 0 2.323.057"/><path class="cls-10" d="M63.111 32.744c-3.792-4.451-7.228-13.388-7.228-16.983m4.803 16.641c-2.577-2.34-6.873-12.707-6.873-16.698"/><path class="cls-15" d="M86.556 32.516c-3.638-4.166-7.075-14.873-6.973-16.756a2.523 2.523 0 0 0-2.02.114 41.896 41.896 0 0 0 6.67 16.585 10.736 10.736 0 0 0 2.323.057"/><path class="cls-10" d="M86.81 32.744c-3.792-4.451-7.228-13.388-7.228-16.983m4.803 16.641c-2.577-2.34-6.873-12.707-6.873-16.698"/><path class="cls-10" d="M84.788 32.89c-.57-.264-2.436-.043-2.809.54 0 0-13.676-.018-17.015-.083a3.345 3.345 0 0 0-2.156-.85 3.813 3.813 0 0 0-1.618.291c-.304-.1-.517-.18-.517-.18-.282-.037-2.102-.062-2.369.556 0 0-2.704-.028-4.895 0s-2.834 2.108-2.84 3.876.336 4.595 2.402 4.585c0 0 4.63.087 6.238.041.068.494 1.128.675 2.294.715.316.461.13 3.287-.25 5.282s-1.799 3.933-3.542 6.824c-.706-.179-1.399.826-1.173 1.904-.39.635-3.61 1.965-4.32 2.493s-.234 1.218.807 1.452c-.32.6.418 1.556 1.268 1.312-.108.318-.242.893 1.172.898s3.573-3.424 3.278-5.175c.901.127 1.377-1.714.62-2.265a16.008 16.008 0 0 0 3.613-5.466 12.47 12.47 0 0 0 .737-7.516 1.96 1.96 0 0 0 1.361-.366s17.226.153 18.5.052a5.843 5.843 0 0 0 1.004.516 2.588 2.588 0 0 0 1.697-.312 1.93 1.93 0 0 0 .864.41 2.228 2.228 0 0 0 1.718-.719c.494-.068 3.18.013 4.151-.072s2.57-1.669 2.613-4.072-1.468-4.21-3.005-4.198c-1.167.008-2.492.043-4.224.107-.122-.335-.508-.499-1.179-.783a6.563 6.563 0 0 0-2.425.202Z"/><path class="cls-11" d="M53.215 33.392c2.066.344 1.916 2.711 1.857 4.283s-.208 3.763-1.888 4.021m5.296-8.355c1.993.91 2.962 6.248.747 8.095m3.25.331a2.596 2.596 0 0 0 2.03.272m.444-.439c1.886-3.315.84-7.206-.163-8.252m17.297.294c1.991.908 2.961 6.247.745 8.094"/><path class="cls-15" d="M61.798 32.516c3.638-4.166 7.074-17.292 6.973-19.175a2.525 2.525 0 0 1 2.02.113C70.033 17.62 67.961 26.98 63.363 34c-1.263.171-1.565-1.484-1.565-1.484"/><path class="cls-11" d="M88.392 33.648c1.003 1.046 2.049 4.937.164 8.252M57.712 54.488c.97.269 1.316.21 1.65.619m-2.594 1.303c.634.568 1.003 1.046 1.976.962"/><path class="cls-10" d="M61.544 32.744c3.79-4.451 7.228-15.808 7.228-19.403M62.96 33.943c2.88-2.054 7.88-16.668 7.88-20.659"/><path class="cls-15" d="M85.346 32.516c3.638-4.166 7.074-17.292 6.973-19.175a2.525 2.525 0 0 1 2.02.113C93.58 17.62 91.509 26.98 86.91 34c-1.263.171-1.564-1.484-1.564-1.484"/><path class="cls-10" d="M85.091 32.744c3.792-4.451 7.228-15.808 7.228-19.403m-5.811 20.602c2.88-2.054 7.882-16.668 7.882-20.659"/><path class="cls-11" d="M60.684 32.789c.565.072 1.932.356 2.363 2.743.451 2.485.173 5.955-1.544 6.85m22.775-9.474c.565.073 1.941.537 2.374 2.924.451 2.485.527 5.603-1.19 6.498"/></g></g></svg>