<svg xml:space="preserve" width="512.299" height="336.647" xmlns="http://www.w3.org/2000/svg"><defs><clipPath clipPathUnits="userSpaceOnUse" id="a"><path d="M141.376 607.061c-13.459-14.616-28.101-37.271-41.069-63.758V316.992c11.317-7.097 25.52-11.777 43.038-13.384 0 0 37.463 40.807 117.74 40.807 80.277 0 88.305 11.64 104.36 40.942 16.056 29.301 37.463 40.434 61.546 10.116 14.253-17.943 41.625-26.102 61.597-18.85v222.908c-10.431 3.779-23.075 6.379-38.322 7.53z"/></clipPath></defs><g clip-path="url(#a)" transform="matrix(1.33333 0 0 -1.33333 -137.87 808.829)"><path d="M0 0c-8.423-1.709-32.12-1.294-13.338 7.859C-9.377 9.651 8.436 5.609 0 0Zm82.382-196.29c3.174 38.56-1.966 77.318-7.112 115.5-5.454 12.641 3.551 25.104-9.413 32.407-1.594 4.748 7.79 13.731-4.792 11.924.137 15.935-12.983 25.748-27.87 31.202-18.678.146-12.192 28.514-34.61 24.912-14.58 1.826-36.541.038-35.759-19.555-16.644-2.484-28.936-15.652-40.76-23.782 2.618-8.384-1.302-14.313-8.977-15.891 3.577-7.562 1.806-13.233-5.367-17.466 5.17-15.216-3.914-31.558-3.8-47.628-3.483-30.593-7.211-61.364-4.426-92.191-10.917-19.291 14.038-24.973 28.046-26.694 45.775-6.077 93.238-9.037 138.472 2.09 11.3 2.704 26.925 11.96 16.368 25.172z" style="fill:#429388;fill-opacity:1;fill-rule:nonzero;stroke:none" transform="translate(207.73 584.489)"/><path d="M0 0c11.665-2.256 8.414 21.16 24.561 17.002 9.267 3.08 39.079-6.712 16.871 1.668C26.326 23.321-.095 21.53-.61 1.174Z" style="fill:#fff;fill-opacity:1;fill-rule:nonzero;stroke:none" transform="translate(170.536 583.817)"/><path d="M0 0c22.116 9.721 47.14 6.824 70.626 6.245 9.529.268 34.311-12.296 12.27-5.316C59.291 5.015 34.547 3.823 11.347-1.98-6.608-9.355-15.672-28.965-22.62-45.878-33.023-86.245-37.574-128.1-38.71-169.708c.015-12.216 5.83-24.303-4.485-32.47 2.227-7.367 7.449-12.826-.867-4.42-6.576 15.588.57 35.016-2.78 52.34.928 26.808 4.198 53.639 8.747 80.073 3.073 20.16 10.439 39.564 19.905 57.526C-14.324-8.9-7.996-3.3 0 0Z" style="fill:#fff;fill-opacity:1;fill-rule:nonzero;stroke:none" transform="translate(152.913 577.142)"/><path d="M0 0c8.117-1.598 6.929 8.12.036 3.564l-.23-1.373Z" style="fill:#fff;fill-opacity:1;fill-rule:nonzero;stroke:none" transform="translate(143.481 555.418)"/><path d="M0 0c8.116-1.6 6.928 8.12.036 3.564l-.23-1.373Z" style="fill:#fff;fill-opacity:1;fill-rule:nonzero;stroke:none" transform="translate(161.689 555.062)"/><path d="M0 0c10.765-1.643 9.413 8.104.05 3.564l-.308-1.373Z" style="fill:#fff;fill-opacity:1;fill-rule:nonzero;stroke:none" transform="translate(134.767 540.138)"/><path d="M0 0c10.766-1.642 9.41 8.109.048 3.565L-.26 2.192Z" style="fill:#fff;fill-opacity:1;fill-rule:nonzero;stroke:none" transform="translate(154.394 538.834)"/><path d="M0 0c10.767-1.642 9.41 8.108.049 3.565l-.307-1.373Z" style="fill:#fff;fill-opacity:1;fill-rule:nonzero;stroke:none" transform="translate(207.288 538.834)"/><path d="M0 0c10.767-1.64 9.41 8.107.049 3.565l-.307-1.373Z" style="fill:#fff;fill-opacity:1;fill-rule:nonzero;stroke:none" transform="translate(207.727 521.04)"/><path d="M0 0c10.765-1.643 9.413 8.104.049 3.564l-.307-1.373Z" style="fill:#fff;fill-opacity:1;fill-rule:nonzero;stroke:none" transform="translate(128.312 522.844)"/><path d="M0 0c10.768-1.641 9.413 8.107.05 3.565l-.307-1.374Z" style="fill:#fff;fill-opacity:1;fill-rule:nonzero;stroke:none" transform="translate(150.132 521.184)"/><path d="M0 0c9.588-.832 4.79 10.778 0 0Z" style="fill:#fff;fill-opacity:1;fill-rule:nonzero;stroke:none" transform="translate(130.559 559.9)"/><path d="M0 0c10.645-7.627 5.53 10.127 0 0Z" style="fill:#fff;fill-opacity:1;fill-rule:nonzero;stroke:none" transform="translate(122.447 545.015)"/><path d="M0 0c11.582-7.174 4.906 10.093 0 0Z" style="fill:#fff;fill-opacity:1;fill-rule:nonzero;stroke:none" transform="translate(116.7 527.963)"/><path d="M0 0c5.26 3.918 7.888 1.24 1.351-1.55C2.615-7.187-1.354-1.904 0 0Z" style="fill:#fff;fill-opacity:1;fill-rule:nonzero;stroke:none" transform="translate(187.001 555.868)"/><path d="M0 0c-3.804 7.585 13.301 3.857 1.014 1.859Z" style="fill:#fff;fill-opacity:1;fill-rule:nonzero;stroke:none" transform="translate(205.59 553.388)"/><path d="M0 0c3.938 4.29 12.493 2.367 2.707 4.029L.846 1.782Z" style="fill:#fff;fill-opacity:1;fill-rule:nonzero;stroke:none" transform="translate(185.075 538.007)"/><path d="M0 0c2.057 6.816 14.04 5.706 2.277 7.673C-.633 6.493.19 2.405 0 0Z" style="fill:#fff;fill-opacity:1;fill-rule:nonzero;stroke:none" transform="translate(182.267 517.854)"/><path d="M0 0c15.947 3.43 28.828-9.74 31.018-21.762C46.883-24.66 60.589-36.64 69.076-46.208c-9.324-10.72 16.498-10.553 4.497-19.519 2.148-8.616 14.802-11.642 7.287-21.148 7.808-42.01 13.142-85.013 10.502-127.792 11.113-20.105-14.52-28.316-30.431-29.642-43.726-6.331-88.819-6.14-132.215 2.507-16.91-.04-27.416 14.35-20.264 29.173-2.163 42.117 2.936 84.408 10.686 125.754-4.11 5.657-2.578 13.298 4.444 15.944 2.35 4.256-6.643 15.152 5.123 13.581 4.703 7.945-.014 16.933 10.947 18.591 8.926 16.45 34.305 10.295 35.093 30.26C-19.465-.87-8.78-.144 0 0Z" style="fill:none;stroke:#231f20;stroke-width:3.218;stroke-linecap:round;stroke-linejoin:round;stroke-miterlimit:10;stroke-dasharray:none;stroke-opacity:1" transform="translate(198.82 604.463)"/><path d="M0 0c19.145 1.627 38.69 1.902 57.778-.391" style="fill:none;stroke:#231f20;stroke-width:2.503;stroke-linecap:round;stroke-linejoin:round;stroke-miterlimit:10;stroke-dasharray:none;stroke-opacity:1" transform="translate(169.584 582.97)"/><path d="M0 0c-.405 11.546 24.35 11.362 24.004.194" style="fill:none;stroke:#231f20;stroke-width:3.218;stroke-linecap:round;stroke-linejoin:round;stroke-miterlimit:10;stroke-dasharray:none;stroke-opacity:1" transform="translate(185.94 584.53)"/><path d="M0 0c39.921.97 79.9 1.417 119.804-.389" style="fill:none;stroke:#231f20;stroke-width:2.503;stroke-linecap:round;stroke-linejoin:round;stroke-miterlimit:10;stroke-dasharray:none;stroke-opacity:1" transform="translate(138.783 565.042)"/><path d="M0 0c49.492-4.043 99.451-4.405 148.935-.075 4.268.531 8.548 1.116 12.713 2.219" style="fill:none;stroke:#231f20;stroke-width:2.503;stroke-linecap:round;stroke-linejoin:round;stroke-miterlimit:10;stroke-dasharray:none;stroke-opacity:1" transform="translate(117.755 512.43)"/><path d="M0 0c-8.496-17.092-9.29-36.729-11.47-55.342" style="fill:none;stroke:#231f20;stroke-width:2.503;stroke-linecap:round;stroke-linejoin:round;stroke-miterlimit:10;stroke-dasharray:none;stroke-opacity:1" transform="translate(180.84 565.627)"/><path d="M0 0c10.512-15.906 15.379-35.924 17.205-54.757" style="fill:none;stroke:#231f20;stroke-width:2.503;stroke-linecap:round;stroke-linejoin:round;stroke-miterlimit:10;stroke-dasharray:none;stroke-opacity:1" transform="translate(214.618 565.627)"/><path d="M0 0c16.172-8.156-14.028-9.796 0 0Z" style="fill:none;stroke:#231f20;stroke-width:2.503;stroke-linecap:round;stroke-linejoin:round;stroke-miterlimit:10;stroke-dasharray:none;stroke-opacity:1" transform="translate(164.332 560.3)"/><path d="M0 0c16.17-8.162-14.032-9.792 0 0Z" style="fill:none;stroke:#231f20;stroke-width:2.503;stroke-linecap:round;stroke-linejoin:round;stroke-miterlimit:10;stroke-dasharray:none;stroke-opacity:1" transform="translate(146.207 560.366)"/><path d="M0 0c19.68-9.46-17.348-12.807 0 0Z" style="fill:none;stroke:#231f20;stroke-width:2.503;stroke-linecap:round;stroke-linejoin:round;stroke-miterlimit:10;stroke-dasharray:none;stroke-opacity:1" transform="translate(158.773 543.728)"/><path d="M0 0c19.68-9.462-17.348-12.804 0 0Z" style="fill:none;stroke:#231f20;stroke-width:2.503;stroke-linecap:round;stroke-linejoin:round;stroke-miterlimit:10;stroke-dasharray:none;stroke-opacity:1" transform="translate(188.518 543.714)"/><path d="M0 0c22.085-2.762-11.576-17.453 0 0Z" style="fill:none;stroke:#231f20;stroke-width:2.503;stroke-linecap:round;stroke-linejoin:round;stroke-miterlimit:10;stroke-dasharray:none;stroke-opacity:1" transform="translate(210.057 543.288)"/><path d="M0 0c21.591-10.385-19.04-14.044 0 0Z" style="fill:none;stroke:#231f20;stroke-width:2.503;stroke-linecap:round;stroke-linejoin:round;stroke-miterlimit:10;stroke-dasharray:none;stroke-opacity:1" transform="translate(185.969 525.982)"/><path d="M0 0c24.23-3.036-12.7-19.145 0 0Z" style="fill:none;stroke:#231f20;stroke-width:2.503;stroke-linecap:round;stroke-linejoin:round;stroke-miterlimit:10;stroke-dasharray:none;stroke-opacity:1" transform="translate(209.598 525.515)"/><path d="M0 0c19.68-9.463-17.347-12.8 0 0Z" style="fill:none;stroke:#231f20;stroke-width:2.503;stroke-linecap:round;stroke-linejoin:round;stroke-miterlimit:10;stroke-dasharray:none;stroke-opacity:1" transform="translate(138.817 545.626)"/><path d="M0 0c21.462-10.325-18.93-13.96 0 0Z" style="fill:none;stroke:#231f20;stroke-width:2.503;stroke-linecap:round;stroke-linejoin:round;stroke-miterlimit:10;stroke-dasharray:none;stroke-opacity:1" transform="translate(154.252 526.574)"/><path d="M0 0c21.461-10.323-18.925-13.96 0 0Z" style="fill:none;stroke:#231f20;stroke-width:2.503;stroke-linecap:round;stroke-linejoin:round;stroke-miterlimit:10;stroke-dasharray:none;stroke-opacity:1" transform="translate(132.417 528.478)"/><path d="M0 0c-19.68-9.467 17.357-12.8 0 0Z" style="fill:none;stroke:#231f20;stroke-width:2.503;stroke-linecap:round;stroke-linejoin:round;stroke-miterlimit:10;stroke-dasharray:none;stroke-opacity:1" transform="translate(240.158 543.728)"/><path d="M0 0c-19.677-9.463 17.35-12.8 0 0Z" style="fill:none;stroke:#231f20;stroke-width:2.503;stroke-linecap:round;stroke-linejoin:round;stroke-miterlimit:10;stroke-dasharray:none;stroke-opacity:1" transform="translate(260.468 545.946)"/><path d="M0 0c-21.463-10.327 18.931-13.959 0 0Z" style="fill:none;stroke:#231f20;stroke-width:2.503;stroke-linecap:round;stroke-linejoin:round;stroke-miterlimit:10;stroke-dasharray:none;stroke-opacity:1" transform="translate(244.682 526.574)"/><path d="M0 0c-21.463-10.323 18.927-13.958 0 0Z" style="fill:none;stroke:#231f20;stroke-width:2.503;stroke-linecap:round;stroke-linejoin:round;stroke-miterlimit:10;stroke-dasharray:none;stroke-opacity:1" transform="translate(266.87 528.798)"/><path d="M0 0c16.164-8.16-14.032-9.789 0 0Z" style="fill:none;stroke:#231f20;stroke-width:2.503;stroke-linecap:round;stroke-linejoin:round;stroke-miterlimit:10;stroke-dasharray:none;stroke-opacity:1" transform="translate(208.093 558.74)"/><path d="M0 0c16.169-8.16-14.028-9.792 0 0Z" style="fill:none;stroke:#231f20;stroke-width:2.503;stroke-linecap:round;stroke-linejoin:round;stroke-miterlimit:10;stroke-dasharray:none;stroke-opacity:1" transform="translate(189.965 558.807)"/><path d="M0 0c-16.172-8.16 14.034-9.79 0 0Z" style="fill:none;stroke:#231f20;stroke-width:2.503;stroke-linecap:round;stroke-linejoin:round;stroke-miterlimit:10;stroke-dasharray:none;stroke-opacity:1" transform="translate(235.158 560.104)"/><path d="M0 0c-16.169-8.158 14.028-9.795 0 0Z" style="fill:none;stroke:#231f20;stroke-width:2.503;stroke-linecap:round;stroke-linejoin:round;stroke-miterlimit:10;stroke-dasharray:none;stroke-opacity:1" transform="translate(253.285 560.17)"/><path d="M0 0c-8.646-12.833-14.22-27.486-18.014-42.417" style="fill:none;stroke:#231f20;stroke-width:2.503;stroke-linecap:round;stroke-linejoin:round;stroke-miterlimit:10;stroke-dasharray:none;stroke-opacity:1" transform="translate(136.66 562.315)"/><path d="M0 0c8.53-12.688 13.71-27.266 17.801-41.896" style="fill:none;stroke:#231f20;stroke-width:2.503;stroke-linecap:round;stroke-linejoin:round;stroke-miterlimit:10;stroke-dasharray:none;stroke-opacity:1" transform="translate(260.117 562.315)"/><path d="M0 0c46.265-6.142 93.236-5.03 139.768-3.073 5.21.397 10.461.682 15.591 1.735" style="fill:none;stroke:#231f20;stroke-width:2.503;stroke-linecap:round;stroke-linejoin:round;stroke-miterlimit:10;stroke-dasharray:none;stroke-opacity:1" transform="translate(114.356 497.815)"/><path d="M0 0c44.398-9.005 90.173-7.832 135.242-6.573 8.13.481 16.325.778 24.346 2.283" style="fill:none;stroke:#231f20;stroke-width:2.503;stroke-linecap:round;stroke-linejoin:round;stroke-miterlimit:10;stroke-dasharray:none;stroke-opacity:1" transform="translate(110.424 462.923)"/><path d="M0 0c43.695-9.29 88.875-7.654 133.28-6.512 9.946.568 19.968.895 29.791 2.662" style="fill:none;stroke:#231f20;stroke-width:2.503;stroke-linecap:round;stroke-linejoin:round;stroke-miterlimit:10;stroke-dasharray:none;stroke-opacity:1" transform="translate(108.728 449.371)"/><path d="M0 0c48.654-11.02 99.273-10.355 148.748-6.38 7.77.81 15.535 1.807 23.189 3.399" style="fill:none;stroke:#231f20;stroke-width:2.503;stroke-linecap:round;stroke-linejoin:round;stroke-miterlimit:10;stroke-dasharray:none;stroke-opacity:1" transform="translate(107.908 421.385)"/><path d="M0 0c44.674-12.46 91.903-10.922 137.77-8.022 11.972 1.34 24.397 1.797 35.766 6.089" style="fill:none;stroke:#231f20;stroke-width:2.503;stroke-linecap:round;stroke-linejoin:round;stroke-miterlimit:10;stroke-dasharray:none;stroke-opacity:1" transform="translate(106.906 408.716)"/><path d="M0 0c-24.448.626-21.555-40.381 3.116-34.684" style="fill:none;stroke:#231f20;stroke-width:2.503;stroke-linecap:round;stroke-linejoin:round;stroke-miterlimit:10;stroke-dasharray:none;stroke-opacity:1" transform="translate(286.858 473.935)"/><path d="M0 0c18.68-12.368 42.563-12.408 64.18-14.69 35.579-1.246 72.21-1.743 106.55 8.802 3.861 1.464 7.724 3.206 10.834 5.988" style="fill:none;stroke:#231f20;stroke-width:3.218;stroke-linecap:round;stroke-linejoin:round;stroke-miterlimit:10;stroke-dasharray:none;stroke-opacity:1" transform="translate(108.407 387.716)"/><path d="M0 0c5.369-12.435 1.841-29.752 14.601-37.546" style="fill:none;stroke:#231f20;stroke-width:2.503;stroke-linecap:round;stroke-linejoin:round;stroke-miterlimit:10;stroke-dasharray:none;stroke-opacity:1" transform="translate(267.033 511.376)"/><path d="M0 0c-10.3-10.056-1.804-25.18-3.928-37.817.03-6.067.17-12.146-.244-18.204" style="fill:none;stroke:#231f20;stroke-width:2.503;stroke-linecap:round;stroke-linejoin:round;stroke-miterlimit:10;stroke-dasharray:none;stroke-opacity:1" transform="translate(284.614 438.966)"/><path d="M0 0c-20.254-2.48-20.147 37.91.051 34.572 50.343 1.29 100.682-1.72 151-.525 20.613 1.749 21.083-34.61.257-32.273-47.68-1.82-95.445 1.59-143.1-1.63L0 0Z" style="fill:#85541c;fill-opacity:1;fill-rule:nonzero;stroke:none" transform="translate(319.728 438.518)"/><path d="M0 0c11.532-6 11.794-39.494-6.435-33.283C-12.975-23.908-14.734-2.397 0 0Z" style="fill:#edc595;fill-opacity:1;fill-rule:nonzero;stroke:none" transform="translate(316.184 474)"/><path d="M0 0c15.659-3.302 15.102-32.379 2.708-38.815.034-15.351-2.425-32.576-13.189-44.839-7.758-10.175-5.183-30.045-19.975-35.342-7.726 1.356-23.087 14.246-7.092 16.946 13.624 7.365 20.297 24.652 28.38 38.296 2.973 9.573 6.314 25.94-7.102 27.429 11.074 10.754-.28 27.178-.772 35.271l1.866.498 1.856.772" style="fill:#feeec7;fill-opacity:1;fill-rule:nonzero;stroke:none" transform="translate(356.929 475.921)"/><path d="M0 0c-20.278 2.767 5.387-20.595-4.117-31.454-3.559-12.777 29.513-7.677 22.78 8.689.597 9.455-.085 20.632-9.531 25.342" style="fill:#feeec7;fill-opacity:1;fill-rule:nonzero;stroke:none" transform="translate(442.058 474.829)"/><path d="M0 0c13.523 9.189 32.244 2.113 47.854 4.228 42.666-.141 85.331-.253 127.997-.363-11.725 11.102-30.116 3.022-44.753 5.627-40.77-.246-81.603 1.185-122.334.218C3.894 10.538-2.842 5.015 0 0Z" style="fill:#fff;fill-opacity:1;fill-rule:nonzero;stroke:none" transform="translate(307.166 463.413)"/><path d="M0 0c-14.533 19.497-23.59 43.223-27.893 67.023-17.115 2.348-.315-23.891 1.092-33.533C-19.711 22.253-16.531-2.433 0 0Z" style="fill:#feeec7;fill-opacity:1;fill-rule:nonzero;stroke:none" transform="translate(354.753 476.009)"/><path d="M0 0c-14.942 19.545-26.054 43.386-28.912 67.934" style="fill:none;stroke:#231f20;stroke-width:3.218;stroke-linecap:round;stroke-linejoin:round;stroke-miterlimit:10;stroke-dasharray:none;stroke-opacity:1" transform="translate(355.771 475.098)"/><path d="M0 0c-13.982 16.97-21.601 38.567-26.734 59.723l-.563 3.792-.196 3.279" style="fill:none;stroke:#231f20;stroke-width:3.218;stroke-linecap:round;stroke-linejoin:round;stroke-miterlimit:10;stroke-dasharray:none;stroke-opacity:1" transform="translate(346.072 476.466)"/><path d="M0 0c-14.533 19.497-23.59 43.223-27.892 67.023-17.116 2.35-.316-23.89 1.091-33.533C-19.71 22.253-16.53-2.433 0 0Z" style="fill:#feeec7;fill-opacity:1;fill-rule:nonzero;stroke:none" transform="translate(449.55 476.009)"/><path d="M0 0c-14.941 19.545-26.053 43.386-28.911 67.934" style="fill:none;stroke:#231f20;stroke-width:3.218;stroke-linecap:round;stroke-linejoin:round;stroke-miterlimit:10;stroke-dasharray:none;stroke-opacity:1" transform="translate(450.567 475.098)"/><path d="M0 0c-13.981 16.97-21.6 38.567-26.734 59.723l-.563 3.792-.196 3.279" style="fill:none;stroke:#231f20;stroke-width:3.218;stroke-linecap:round;stroke-linejoin:round;stroke-miterlimit:10;stroke-dasharray:none;stroke-opacity:1" transform="translate(440.868 476.466)"/><path d="M0 0c-16.587-2.998-34.433-2.078-51.893-2.05-18.352-2.484-34.64 5.486-52.27 2.361-12.727-2.344-36.91 2.227-32.65-19.733-1.452-24.673 27.48-10.99 40.31-18.31 10.801-10.683-1.88-34.1-10.512-46.536-5.931-8.883-13.9-15.554-24.543-21.38 4.336-10.453 18.881-19.721 25.237-1.913 3.478 14.614 9.229 24.28 18.106 38.295 9.862 13.373-4.687 40.382 20.206 33.7 21.048-.08 42.102-.465 63.148-.117 13.596-3.74 28.775-.2 42.712 3.474 14.952 15.29-1.94 37.487-20.91 29.975C11.593-.894 6.545 3.036 0 0Z" style="fill:none;stroke:#231f20;stroke-width:3.218;stroke-linecap:round;stroke-linejoin:round;stroke-miterlimit:10;stroke-dasharray:none;stroke-opacity:1" transform="translate(442.48 474.516)"/><path d="M0 0c11.436-2.47 9.985-30.153-.123-33.217" style="fill:none;stroke:#231f20;stroke-width:2.503;stroke-linecap:round;stroke-linejoin:round;stroke-miterlimit:10;stroke-dasharray:none;stroke-opacity:1" transform="translate(316.185 472.505)"/><path d="M0 0c9.374-6.642 11.133-24.192 2.989-32.38" style="fill:none;stroke:#231f20;stroke-width:2.503;stroke-linecap:round;stroke-linejoin:round;stroke-miterlimit:10;stroke-dasharray:none;stroke-opacity:1" transform="translate(337.249 472.709)"/><path d="M0 0c2.457-1.16 5.45-2.162 8.125-1.09" style="fill:none;stroke:#231f20;stroke-width:2.503;stroke-linecap:round;stroke-linejoin:round;stroke-miterlimit:10;stroke-dasharray:none;stroke-opacity:1" transform="translate(353.234 439.007)"/><path d="M0 0c5.478 9.916 6.02 23.541-.654 33.009" style="fill:none;stroke:#231f20;stroke-width:2.503;stroke-linecap:round;stroke-linejoin:round;stroke-miterlimit:10;stroke-dasharray:none;stroke-opacity:1" transform="translate(363.132 439.676)"/><path d="M0 0c9.374-6.643 11.131-24.194 2.985-32.382" style="fill:none;stroke:#231f20;stroke-width:2.503;stroke-linecap:round;stroke-linejoin:round;stroke-miterlimit:10;stroke-dasharray:none;stroke-opacity:1" transform="translate(431.665 471.507)"/><path d="M0 0c15.514 21.887 22.636 48.768 27.806 74.781 15.603 8.697 1.257-23.565-.062-32.558C21.376 26.605 16.824 2.37 3.149-5.297L1.235-3.224Z" style="fill:#feeec7;fill-opacity:1;fill-rule:nonzero;stroke:none" transform="translate(350.52 476.009)"/><path d="M0 0c6.67-9.451 6.13-23.117.655-33.007" style="fill:none;stroke:#231f20;stroke-width:2.503;stroke-linecap:round;stroke-linejoin:round;stroke-miterlimit:10;stroke-dasharray:none;stroke-opacity:1" transform="translate(456.895 471.483)"/><path d="M0 0c15.868 21.68 24.42 48.261 28.753 74.566l.158 3.046" style="fill:none;stroke:#231f20;stroke-width:3.218;stroke-linecap:round;stroke-linejoin:round;stroke-miterlimit:10;stroke-dasharray:none;stroke-opacity:1" transform="translate(349.502 475.098)"/><path d="M0 0c14.342 16.056 19.67 38.102 26.534 58.05 2.208 8.053 4.626 16.194 4.991 24.587" style="fill:none;stroke:#231f20;stroke-width:3.218;stroke-linecap:round;stroke-linejoin:round;stroke-miterlimit:10;stroke-dasharray:none;stroke-opacity:1" transform="translate(355.167 470.301)"/><path d="M0 0c15.515 21.886 22.636 48.768 27.806 74.781 13.961 9.002 3.28-18.813 1.544-27.109C23.98 28.937 16.915 10.476 6.26-5.935 2.833-6.565.489-2.912 0 0Z" style="fill:#feeec7;fill-opacity:1;fill-rule:nonzero;stroke:none" transform="translate(444.71 476.009)"/><path d="M0 0c15.869 21.68 24.42 48.261 28.752 74.566l.158 3.046" style="fill:none;stroke:#231f20;stroke-width:3.218;stroke-linecap:round;stroke-linejoin:round;stroke-miterlimit:10;stroke-dasharray:none;stroke-opacity:1" transform="translate(443.692 475.098)"/><path d="M0 0c14.343 16.055 19.672 38.102 26.535 58.05 2.208 8.053 4.626 16.194 4.991 24.587" style="fill:none;stroke:#231f20;stroke-width:3.218;stroke-linecap:round;stroke-linejoin:round;stroke-miterlimit:10;stroke-dasharray:none;stroke-opacity:1" transform="translate(449.358 470.301)"/><path d="M0 0c14.328-3.56 12.616-30.837 3.275-38.37" style="fill:none;stroke:#231f20;stroke-width:2.503;stroke-linecap:round;stroke-linejoin:round;stroke-miterlimit:10;stroke-dasharray:none;stroke-opacity:1" transform="translate(346.065 474.92)"/><path d="M0 0c13.19-3.933 13.977-30.041 4.735-37.688" style="fill:none;stroke:#231f20;stroke-width:2.503;stroke-linecap:round;stroke-linejoin:round;stroke-miterlimit:10;stroke-dasharray:none;stroke-opacity:1" transform="translate(440.439 474.443)"/></g></svg>