<svg xmlns="http://www.w3.org/2000/svg" viewBox="0 0 103.494 74.595"><defs><clipPath id="clip-path"><path style="fill:none" d="M77.879 56.664h4.674v5.078h-4.674z"/></clipPath><style>.cls-10,.cls-22,.cls-23{fill:none}.cls-2{fill:#fff}.cls-7{fill:#ffeb76}.cls-8{fill:#ffe674}.cls-9{fill:#231f20}.cls-10,.cls-22,.cls-23{stroke:#231f20;stroke-linecap:round;stroke-linejoin:round}.cls-10{stroke-width:.638px}.cls-11{fill:#ee2626}.cls-14{fill:#00894c}.cls-16{fill:#00864a}.cls-17{fill:#00874a}.cls-18{fill:#545456}.cls-19{fill:#fff200}.cls-21{fill:#f49ec4}.cls-22{stroke-width:.766px}.cls-23{stroke-width:.426px}</style></defs><g id="Layer_2" data-name="Layer 2"><g id="Layer_1-2" data-name="Layer 1"><path class="cls-2" d="M55.442 4.057c.67-.896.26-1.539-.765-1.654s-1.6 1.22-1.312 1.298 2.077.356 2.077.356"/><path d="m20.488 24.952.037 2.154a8.983 8.983 0 0 1 1.813-.223 3.522 3.522 0 0 1 .357.016v-.035c0-.46.003-.85.016-1.033s.025-.309.025-.374a5.329 5.329 0 0 0-.393-.106c-.447-.109-1.154-.259-1.855-.399m65.46-16.688-.711.611-15.26 10.621-3.11 1.901-6.016 4.158-10.732-2.842-10.136-2.469-17.803-4.787-1.999-.474.139.1.157 9.216c.433.086.874.176 1.265.261.315.068.597.132.815.186.11.027.204.052.281.074l.198.071a.591.591 0 0 1 .263.233.647.647 0 0 1 .075.332c0 .122-.014.246-.026.421a20.591 20.591 0 0 0-.014 1.181 11.317 11.317 0 0 1 2.423 1.19 6.082 6.082 0 0 1 4.573-2.932c.163-.016.33-.024.497-.025h.038a4.118 4.118 0 0 1 3.225 1.245c.508.813 3.658 4.726 3.658 4.726a5.098 5.098 0 0 0 2.083 1.016c.864.05 3.811.66 4.37 1.473a7.707 7.707 0 0 1 1.022 3.614v.072a3.726 3.726 0 0 1-.056.633 2.17 2.17 0 0 0-.173.05 4.785 4.785 0 0 1 .488-.049h.041c.714.016 1.656.963 2.035 1.768.383.812.383 3.583-.334 6.115a.322.322 0 0 1 .155-.029c.233 0 .745.134 1.66.984a3.052 3.052 0 0 1 .627.867c1.132.294 2.117.54 2.882.705 1.013.22 2.919.618 4.596.97a672.543 672.543 0 0 1 2.919.618l.217.048.037.01a2.4 2.4 0 0 0 .264-.132c.466-.258 1.221-.767 1.788-1.098.212-.123.797-.483 1.55-.95a11.136 11.136 0 0 1 3.31-2.987c.049-.295 1.427-3.295 3.001-6.477s5.706-7.739 10.38-9.46a13.572 13.572 0 0 1 4.699-.807c.27 0 .539.008.804.021-.002-1.192-.012-2.5-.038-3.112-.01-.229-.013-.55-.013-.94 0-1.34.042-3.47.042-4.989 0-.644-.008-1.182-.029-1.48-.041-.603-.053-2.169-.054-3.808 0-2.04.021-4.152.041-4.57.007-.152.012-.294.012-.423a1.736 1.736 0 0 0-.059-.529.376.376 0 0 0-.066-.122" style="fill:#e6ab6a"/><path d="M50.664 3.155a2.882 2.882 0 0 1 1.116-.876 5.11 5.11 0 0 1 1.72-.213 5.238 5.238 0 0 1 .545.024 2.416 2.416 0 0 1 1.623.717c.226.34.49.793.49.793a4.308 4.308 0 0 1 .622-.046 3.137 3.137 0 0 1 2.02.574c.098.135.435.452.739.788L77.607 8.5l1.496.749-18.775 13.164-26.03-6.957-7.031-1.87-.224-.373 10.397-5.61 6.507-2.768 5.012-2.02 1.705.34M48.494.765h-.006a.29.29 0 0 0-.152.025c-.073.036-.335.152-.74.333A301.732 301.732 0 0 1 43.13 3.07c-1.194.498-7.44 3.45-8.76 4.06-.643.296-2.48 1.23-4.273 2.14-1.8.914-3.547 1.797-4.107 2.032-.498.208-1.955.924-3.321 1.61-.685.345-1.351.684-1.872.954a27.28 27.28 0 0 0-.987.525 1.742 1.742 0 0 0-.233.165l.16.114 30.383 8.043 10.433 2.543h.002l6.314-3.859L85.913 8.233l-.035-.019a5.288 5.288 0 0 0-.427-.116c-1.6-.389-6.544-1.36-8.056-1.65-.89-.173-4.264-.883-7.682-1.59-3.412-.707-6.88-1.41-7.884-1.559-1.06-.157-4.023-.757-6.83-1.329-1.401-.286-2.761-.564-3.813-.775-.526-.106-.975-.194-1.313-.258a11.473 11.473 0 0 0-.626-.109c-.386-.037-.623-.062-.753-.062" style="fill:#ffe2a4"/><path d="m19.737 14.67.443.314 2 .473 17.803 4.787 10.135 2.47-30.38-8.044m66.174-6.436L66.867 21.397l3.11-1.9 15.26-10.622.712-.61a.226.226 0 0 0-.037-.03" style="fill:#ffe0a2"/><path d="m48.958 2.816-5.01 2.019-6.509 2.768-10.397 5.61.224.374 7.031 1.87 26.031 6.956L79.103 9.249 77.607 8.5 59.538 4.915a1.825 1.825 0 0 1 .546.874 8.303 8.303 0 0 1-.075 1.963l.377.604a3.954 3.954 0 0 1 .591-.046 2.463 2.463 0 0 1 .957.159 3.156 3.156 0 0 1 2.265-1.02c.641 0 1.094.567 1.36.832a3.634 3.634 0 0 1 .527.868 4.434 4.434 0 0 1 1.712-.346 4.11 4.11 0 0 1 1.271.195 3.791 3.791 0 0 1 2.33-.912 2.348 2.348 0 0 1 .463.044 2.885 2.885 0 0 1 1.7.868c.263.377.565.83.452 1.208a3.547 3.547 0 0 1-.377 1.057c-.265.302.49 1.359.49 1.359s-13.895 9.626-14.116 9.664h-.002c-.114-.038-26.84-7.135-26.84-7.135l-.15-.19a4.204 4.204 0 0 1-.605-2.112 1.554 1.554 0 0 1 .868-1.397 7.246 7.246 0 0 1 2.143-.405 1.02 1.02 0 0 1 .273.027 7.824 7.824 0 0 0 .868.189c-.302-1.246 0-2.038.415-2.303a3.595 3.595 0 0 1 1.586-.528 4.377 4.377 0 0 1 1.245.34c.491-1.7 1.21-2.265 1.624-2.341a9.217 9.217 0 0 1 1.705-.266 1.453 1.453 0 0 1 .635.115 6.526 6.526 0 0 1 1.36 1.095 1.923 1.923 0 0 0 .641-1.057c.038-.302.453-1.926 1.057-2.265a6.457 6.457 0 0 1 2.152-.491 11.357 11.357 0 0 1 1.246.264 4.901 4.901 0 0 1 .432-.672l-1.706-.338" style="fill:#a27a4a"/><path class="cls-7" d="M53.5 2.065a5.111 5.111 0 0 0-1.72.213 2.887 2.887 0 0 0-1.117.876l2.668.53c-.193-.172.32-1.289 1.22-1.289.041 0 .083.003.125.007 1.025.116 1.436.76.766 1.655 0 0-.626-.097-1.197-.193l5.293 1.051c-.304-.336-.64-.652-.737-.787a3.132 3.132 0 0 0-2.02-.573 4.284 4.284 0 0 0-.623.044s-.264-.453-.49-.793a2.43 2.43 0 0 0-1.624-.717 5.532 5.532 0 0 0-.545-.024"/><path class="cls-7" d="M54.552 2.396c-.901 0-1.413 1.117-1.22 1.288l.913.18c.57.097 1.197.194 1.197.194.67-.896.259-1.54-.765-1.655a1.06 1.06 0 0 0-.125-.007"/><path class="cls-8" d="M50.664 3.154a4.77 4.77 0 0 0-.432.672 11.379 11.379 0 0 0-1.245-.264 6.487 6.487 0 0 0-2.153.49c-.604.34-1.02 1.963-1.057 2.265a1.917 1.917 0 0 1-.641 1.057 6.533 6.533 0 0 0-1.36-1.094 1.46 1.46 0 0 0-.635-.116 9.327 9.327 0 0 0-1.705.266c-.415.076-1.132.642-1.623 2.341a4.388 4.388 0 0 0-1.246-.34 3.595 3.595 0 0 0-1.585.53c-.416.263-.717 1.056-.416 2.302a7.824 7.824 0 0 1-.868-.189 1.003 1.003 0 0 0-.273-.028 7.307 7.307 0 0 0-2.143.405 1.557 1.557 0 0 0-.868 1.397 4.208 4.208 0 0 0 .604 2.114l.15.19s26.728 7.096 26.84 7.133h.003c.22-.038 14.116-9.663 14.116-9.663s-.754-1.057-.49-1.359a3.502 3.502 0 0 0 .377-1.057c.114-.378-.19-.83-.452-1.208a2.89 2.89 0 0 0-1.7-.869 2.353 2.353 0 0 0-.462-.044 3.795 3.795 0 0 0-2.331.913 4.056 4.056 0 0 0-1.27-.196 4.444 4.444 0 0 0-1.712.346 3.637 3.637 0 0 0-.53-.868c-.263-.264-.716-.83-1.358-.83a3.16 3.16 0 0 0-2.265 1.02 2.441 2.441 0 0 0-.956-.16 3.849 3.849 0 0 0-.592.046l-.377-.604a8.248 8.248 0 0 0 .076-1.963 1.827 1.827 0 0 0-.546-.874l-5.294-1.05a14.813 14.813 0 0 1-.88-.163.082.082 0 0 1-.033-.019l-2.668-.529"/><path class="cls-8" d="M53.331 3.683a.085.085 0 0 0 .034.019c.118.032.485.097.88.162l-.914-.18"/><path class="cls-2" d="M19.263 14.335C20.861 13.05 48.11.64 48.51.273s5.413 1.259 5.413 1.259l-1.354.542-4.472-.813-26.152 12.872 1.761.813 2.711 1.355-6.098-1.22ZM20.319 15.082l.271 15.853-1.084-.812-.813-14.906.57-.882 1.056.747z"/><path class="cls-2" d="M32.414 12.848c.326-.792 1.693-1.323 2.2-1.425s2.033-.102 2.237.204c.203.304.71.507.406.711s-.711-.102-1.524 0-2.948.813-2.948 1.83c-.203-.509-.54-.91-.371-1.32M43.355 9.695c-1.118.102-3.658 2.541-3.252 3.66-.814-1.627-.204-3.558.61-3.965a4.848 4.848 0 0 1 1.93-.508c.304 0 .711.813.711.813M36.566 11.263a4.012 4.012 0 0 1 3.232-1.974 2.092 2.092 0 0 0-2.236-.304 4.114 4.114 0 0 0-1.017 1.117ZM40.204 8.883c.203.305 0-.407 1.626-1.016a5.685 5.685 0 0 1 3.305-.492c-1.374-.83-2.187-1.236-3-.931a3.26 3.26 0 0 0-1.728 1.524 2.06 2.06 0 0 1-.594.804M46.505 5.224c-.203.407.915.813 1.728.305s2.134-1.524 1.219-1.524-1.524-.102-2.032.305a6.697 6.697 0 0 0-.915.914M58.192 4.41c-.711.306-.711.61 0 1.22s1.423 1.118 1.524.407-1.524-1.626-1.524-1.626M49.757 8.171c.711-.61 1.321-1.016 1.728-.203s-.102 1.931-.61 1.83-1.118-1.627-1.118-1.627M44.777 10.102c-.203-.407-.407-1.727.203-2.236s.712.305.712 1.118.406 1.525 0 1.626-.915-.508-.915-.508M46.607 12.338c-.305-.407.407-1.321 1.016-1.22s1.525.813.712 1.118a3.452 3.452 0 0 1-1.728.102M63.375 8.07c.322.806.61 1.625 1.423 1.727s1.114-1.204.76-1.517-2.386-.719-2.183-.21M67.643 9.289c-.305.508-.203.61.508.915s1.931.609 1.626-.102-1.423-1.016-1.423-1.016ZM71.403 8.578c-.407.508-.407.508.203.915s1.728.203 1.423-.305-1.626-.61-1.626-.61M55.753 9.39c.305.814.915 1.424 1.626.916s.305-1.22-.203-1.22a6.22 6.22 0 0 0-1.423.305M52.196 16.301c.61-.203 1.423-.407 1.524-.102s-.914.51-1.117.915-1.423.813-1.118.203a4.333 4.333 0 0 1 .71-1.016M57.989 14.777c.203-.508.914-1.118 1.22-.915a.832.832 0 0 1-.204 1.322c-.61.406-1.016-.407-1.016-.407M52.196 11.931c.102-.407.813-.915 1.016-.508s-.101 1.22-.406 1.22-.61-.712-.61-.712"/><path class="cls-9" d="M19.224 30.062c-.033-1.719-.194-5.24-.347-8.443-.153-3.21-.297-6.08-.298-6.583l.003-.088a1.37 1.37 0 0 1 .238-.697 1.935 1.935 0 0 1 .586-.512c.14-.085.508-.279 1.037-.553 1.578-.816 4.427-2.245 5.25-2.59.49-.205 2.266-1.1 4.056-2.009 1.797-.91 3.62-1.84 4.298-2.153 1.322-.609 7.543-3.55 8.788-4.07.602-.252 1.848-.794 2.965-1.285a560.72 560.72 0 0 0 1.486-.655c.394-.176.68-.305.707-.319A1.06 1.06 0 0 1 48.487 0c.208.001.443.03.832.066.127.013.348.053.695.118 1.2.228 3.731.75 6.192 1.25 2.458.5 4.854.978 5.734 1.108 1.062.157 4.506.858 7.928 1.566 3.417.707 6.8 1.419 7.672 1.587.882.169 2.914.568 4.784.949.936.191 1.83.377 2.52.529.345.077.639.144.864.2.113.028.208.053.286.075l.205.07a1.026 1.026 0 0 1 .54.62 2.425 2.425 0 0 1 .102.778c0 .149-.006.302-.014.459-.018.371-.04 2.507-.04 4.534 0 1.627.015 3.211.053 3.755.023.34.03.88.03 1.533 0 1.529-.042 3.662-.042 4.988 0 .384.004.701.012.908.03.738.04 2.363.04 3.681 0 .515-.002.981-.003 1.327l-.003.42c-.002.109-.002.158-.004.203a.383.383 0 1 1-.765-.051l.11.007-.11-.004v-.003l.11.007-.11-.004c.004-.083.009-.912.009-1.902 0-1.312-.01-2.943-.04-3.65-.01-.228-.012-.55-.012-.94 0-1.34.042-3.47.042-4.987a25.75 25.75 0 0 0-.028-1.481c-.041-.602-.054-2.168-.054-3.807 0-2.04.02-4.152.04-4.57.007-.152.013-.295.013-.423a1.72 1.72 0 0 0-.06-.53c-.043-.111-.07-.136-.137-.172v-.001a5.149 5.149 0 0 0-.427-.114c-1.6-.39-6.544-1.361-8.055-1.652-.892-.171-4.266-.881-7.684-1.59-3.411-.705-6.878-1.41-7.883-1.558-1.06-.156-4.023-.756-6.83-1.33-1.401-.285-2.761-.563-3.812-.774C50.66 1.09 50.21 1 49.873.937a10.846 10.846 0 0 0-.626-.108c-.392-.038-.631-.063-.76-.062a.295.295 0 0 0-.151.023c-.073.037-.334.154-.74.334A324.544 324.544 0 0 1 43.13 3.07c-1.194.497-7.44 3.449-8.76 4.059-.643.297-2.48 1.23-4.273 2.14-1.8.913-3.547 1.797-4.107 2.032-.498.208-1.955.923-3.321 1.61-.685.346-1.351.685-1.872.954-.517.267-.907.476-.987.526a1.185 1.185 0 0 0-.362.3.591.591 0 0 0-.101.32l-.01-.001h.01-.01.01v.025c0 .439.145 3.348.297 6.547.153 3.205.315 6.723.348 8.464a.383.383 0 1 1-.766.015"/><path class="cls-10" d="M50.368 3.104c-.237-.034-1.492-.285-1.661-.285s-2.778 1.118-3.49 1.389-5.216 2.202-7.553 3.455-9.858 5.048-10.332 5.251a2.224 2.224 0 0 0-.644.372s.712.204 1.592.474 6.539 1.796 8.334 2.338 11.992 3.252 14.464 3.828 8.876 2.304 9.045 2.337c1.186-.813 6.74-4.505 8.4-5.623s10.833-7.49 10.833-7.49c-.504-.092-5.062-1.196-8.49-1.913-2.323-.486-10.37-2.25-10.844-2.352M19.676 14.641c3.523.983 9.316 2.473 12.16 3.286s14.195 3.828 18.836 4.946 9.113 2.338 9.959 2.507M60.733 25.346c1.998-1.186 9.45-5.895 11.619-7.35s7.724-5.556 9.248-6.539 4.03-2.913 4.234-3.082M60.631 25.38c.034 1.728.135 8.537.102 10.806s-.305 12.737-.305 13.822M22.69 15.658c-.034.847.034 1.727.068 2.473s.033 1.694.033 1.965c-.033.27.035.406-.575.203s-2.71-.712-2.846-.746"/><path class="cls-9" d="M19.7 24.151c.646.12 1.411.272 2.041.41.316.067.597.131.816.185.11.027.203.052.28.074l.2.071a.6.6 0 0 1 .262.233.658.658 0 0 1 .075.332c0 .122-.014.246-.026.421-.01.133-.015.535-.015.987 0 .91.015 2.067.015 2.07a.319.319 0 0 1-.638.007s-.015-1.16-.015-2.077c0-.46.003-.85.016-1.033s.025-.31.025-.375l-.003-.04.101-.02-.075.066-.026-.047.101-.019-.075.066.054-.047-.042.06-.012-.013.054-.047-.042.06-.02-.013h-.001l.011-.02-.009.021h-.002l.011-.022-.009.022a4.714 4.714 0 0 0-.409-.112 59.565 59.565 0 0 0-2.76-.572.32.32 0 0 1 .116-.628M19.763 29.029c.485.083 1.016.159 1.461.223.45.065.792.112.968.155a.32.32 0 1 1-.156.619c-.094-.025-.463-.08-.903-.142-.445-.064-.98-.14-1.478-.226a.32.32 0 1 1 .108-.63"/><path class="cls-10" d="M60.733 30.258c1.253-.881 2.472-1.863 2.845-2.1a2.657 2.657 0 0 0 .61-.542c-.034-.78 0-4.1 0-4.268M60.597 30.495c-1.287-.373-3.523-.915-3.726-1.016s-.102.204-.17.542c-.068.34-.169 2.643-.203 3.049s0 .373.406.542 3.693.949 3.795 1.017M60.902 35.373c.983-.542 1.999-1.32 2.507-1.66.479-.319.949-.576.949-.576a2.011 2.011 0 0 1 .1.915c-.033.644.069 3.692.035 3.93s-.847.745-1.321 1.05l-2.27 1.456M60.698 45.299c1.457-.982 3.151-1.897 3.388-2.066a5.066 5.066 0 0 1 .576-.34v1.424l.101 3.15"/><path class="cls-9" d="M43.283 46.08c3.728.983 7.255 1.966 9.265 2.401 1.014.22 2.92.618 4.596.97a737.775 737.775 0 0 1 2.92.618l.216.048.134.035-.095.284v-.3l.094.016-.094.284v-.157l-.037-.14.037-.003v.143l-.037-.14a1.724 1.724 0 0 0 .299-.144c.466-.258 1.222-.767 1.788-1.098.792-.46 6.81-4.235 7.298-4.56a.383.383 0 1 1 .425.636c-.528.352-6.502 4.099-7.337 4.586-.378.22-.871.543-1.306.812-.218.135-.422.256-.598.349l-.25.118a.745.745 0 0 1-.282.064l-.148-.023.04-.12-.034.122-.006-.002.04-.12-.034.122c-.06-.017-.483-.11-1.07-.235-1.778-.378-5.217-1.09-6.721-1.416-2.054-.446-5.574-1.428-9.298-2.409a.383.383 0 0 1 .195-.741"/><path class="cls-10" d="M60.394 40.658c-1.66-.508-1.457-.373-1.897-.508s-1.592-.576-1.694-.576a7.599 7.599 0 0 0-.203 1.93c-.068 1.017-.136 2.135-.102 2.305s.27.237.779.372 3.083.576 3.219.712M83.599 10.17c.034 1.152.068 3.455.068 3.896s.203.271.677 0 1.524-.881 1.863-1.05M86.342 17.826c-.847.407-2.032 1.186-2.27 1.32s-.304.17-.304.509v3.659c0 .27.271.203.61.034s1.896-1.085 1.896-1.085M86.207 27.819c-.711.407-1.973.813-2.032 1.05a8.843 8.843 0 0 0 0 1.897M33.168 14.813a2.434 2.434 0 0 1-.659-2.332c.164-.801 1.366-1.273 2.05-1.343a9.327 9.327 0 0 1 2.096.235c-.448-1.578-.259-2.261.966-2.685a2.341 2.341 0 0 1 2.261.164c.307-1.601 1.132-2.568 2.616-2.662a2.587 2.587 0 0 1 2.64 1.225c.375-.283.611-.424.611-.424.023-1.885.52-2.709 1.767-3.11a4.327 4.327 0 0 1 2.827.024A2.424 2.424 0 0 1 52.3 2.162c1.154-.165 3.157-.471 3.722 1.484 1.013-.236 3.463.4 4.028 1.955s-.212 2.238-.259 2.285a.777.777 0 0 1 .566.519 1.222 1.222 0 0 1 1.532.188 2.324 2.324 0 0 1 2.38-1.084c.801.024 1.348.613 1.771 1.955.566-.824 2.305-.753 3.105-.4a3.048 3.048 0 0 1 3.275-.636 2.19 2.19 0 0 1 1.508 2.05c-.023.8-.54.825-.73.942.471.472.801.919.707 1.296"/><path class="cls-10" d="M50.343 3.905a2.065 2.065 0 0 0 1.815 2.167 4.195 4.195 0 0 0 3.37-.683 2.15 2.15 0 0 0 .493-1.743M59.675 7.863a3.897 3.897 0 0 1-2.992.306 2.86 2.86 0 0 1-1.932-2.073M54.987 7.297a3.6 3.6 0 0 1-1.908 2.544 2.871 2.871 0 0 1-2.616.165c-1.056-.469-1.625-2.874.8-4.028M45.916 6.92a1.338 1.338 0 0 0 1.507.942 4.944 4.944 0 0 0 2.214-.518M45.137 7.415c-.376.612-1.13 1.72-.635 2.686a2.094 2.094 0 0 0 1.955.895"/><path class="cls-10" d="M47.659 10.666a5.144 5.144 0 0 0 1.696-2.097"/><path class="cls-10" d="M45.916 11.538a2.042 2.042 0 0 0 1.107 2.568c1.06.542 3.25 1.06 3.77-.306s-.801-2.568-1.744-2.828-2.474-.542-3.133.566ZM52.584 10.219a1.994 1.994 0 0 0-.541 2.85 2.073 2.073 0 0 0 2.779.637 3.519 3.519 0 0 0 1.555-1.72M55.718 7.91a3.396 3.396 0 0 0-.402 2.544 2.226 2.226 0 0 0 2.003 1.673 2.516 2.516 0 0 0 2.615-1.366 3.557 3.557 0 0 0 .307-2.262M61.889 8.593a4.166 4.166 0 0 0 .969 3.11 2.422 2.422 0 0 0 2.285.59c.519-.119 1.249-.99.92-2.663M69.145 9.064c.97.424 1.559 1.013 1.465 1.767a1.341 1.341 0 0 1-.754 1.201M70.728 11.302c.566.59 1.72.354 2.333.094"/><path class="cls-10" d="M70.445 14.977c.918-2.474-.871-3.204-1.767-3.25a2.139 2.139 0 0 0-1.932 1.931 2.24 2.24 0 0 0 .235 1.508M57.934 16.108c-.5-1.357.424-2.19 1.532-2.804s2.45-.659 3.11.472a2.087 2.087 0 0 1-1.39 2.944c-1.297.401-2.687.92-3.252-.612ZM62.505 13.375a1.608 1.608 0 0 1 .636-1.225M63.047 15.024c.801.543 2.944.543 3.51-.847M66.227 10.949a1.173 1.173 0 0 1 1.083 1.131"/><path class="cls-10" d="M65.426 18.37a2.372 2.372 0 0 1 .73-2.78 3.917 3.917 0 0 1 3.581-.094M62.316 16.155c1.037.023 2.85 1.72 2.12 3.015M60.502 17.027c-.66 1.319-.189 3.628 1.767 3.652M56.072 12.692c-.235.754.896 2.144 1.743 2.167M60.241 10.69a1.481 1.481 0 0 1 1.108 2.097M51.429 17.098c.331-1.656 2.239-1.696 3.628-1.013s2.144 1.956 1.579 3.016-2.686.918-3.746.353a2.255 2.255 0 0 1-1.461-2.356ZM50.958 13.564a3.262 3.262 0 0 1 1.32-.165M49.167 14.813a1.937 1.937 0 0 0 2.144 2.756M53.997 14.106a.906.906 0 0 1 .165 1.555M55.575 16.155a2.067 2.067 0 0 1 1.202-1.626M56.942 18.535c.801.118 2.426-.071 2.638-1.343"/><path class="cls-10" d="M58.355 18.512c.707.353 1.272 2.756-.165 3.063M40.661 14.035c-1.246-.579-1.2-2.333-.778-3.298s1.532-1.956 2.592-1.673 1.932 1.649 1.414 3.463a2.14 2.14 0 0 1-3.228 1.508Z"/><path class="cls-10" d="M42.263 14.412c-.306.895.495 1.932 1.838 1.979s3.251-.4 3.487-1.932M44.077 12.362a1.857 1.857 0 0 1 1.602-.235M39.79 8.852a1.702 1.702 0 0 1 .801.848M36.655 11.373a2.716 2.716 0 0 1 1.18 2.992 2.168 2.168 0 0 1-1.815 1.437M37.999 13.964a1.945 1.945 0 0 1 1.697-.919M41.109 14.388a1.889 1.889 0 0 1-.731 2.544M43.983 16.532a1.37 1.37 0 0 0 .306 1.437M47.305 15.402c.777.306 1.319 2.592.707 3.51M50.064 17.616a2.208 2.208 0 0 0-.683 1.696M53.928 19.878a1.206 1.206 0 0 1 .19.683"/><path class="cls-11" d="M25.197 43.863c-1.27 2.185-2.44 3.405-3.302 3.658-2.44 1.576-9.2 3.614-9.2 3.614a7.798 7.798 0 0 1-3.6 1.572 1.083 1.083 0 0 1-.362-.053 11.537 11.537 0 0 0-2.435.19 1.898 1.898 0 0 0-.587 1.04 9.58 9.58 0 0 0-.073 1.025v.029a3.265 3.265 0 0 0 1.411 2.767c1.576 1.243 3.01 2.055 3.201 2.293a4.08 4.08 0 0 0-.622 3.583c.24.955.908 2.818 2.246 3.248a7.625 7.625 0 0 0 2.215.299 4.805 4.805 0 0 0 1.607-.203 7.748 7.748 0 0 0 1.48 4.25c1.098 1.482 1.958 2.628 4.634 2.868.3.025.618.038.948.038a22.793 22.793 0 0 0 8.653-1.997 53.423 53.423 0 0 1 7.261-2.628 28.911 28.911 0 0 0 7.215-3.534c2.053-1.576 3.103-2.723 3.247-3.392s-.335-6.02-1.529-8.17a3.21 3.21 0 0 0 2.675-2.196 8.669 8.669 0 0 0-.273-3.507c-1.947-.5-4.386-1.169-6.92-1.836a.383.383 0 0 1-.279-.44l-.134-.03-11.52-2.177c-.508.277-.825.452-.825.452-.293 0-.716.01-1.196.01-1.44 0-3.403-.086-3.937-.773"/><path d="M45.522 38.072h-.04a4.269 4.269 0 0 0-.489.049 5.44 5.44 0 0 0-2.164 1.83 15.021 15.021 0 0 1-4.285.72c-.114 0-.21-.003-.288-.01h-.014c-.583 0-5.18 2.473-7.088 3.513l11.52 2.176.134.03.006-.027a.383.383 0 0 1 .37-.285.406.406 0 0 1 .098.012c2.31.609 4.541 1.218 6.384 1.697a3.027 3.027 0 0 0-.628-.867c-.914-.85-1.427-.984-1.659-.984a.318.318 0 0 0-.156.028c.717-2.532.717-5.303.335-6.114-.38-.806-1.322-1.752-2.036-1.768" style="fill:#ed2225"/><path d="M43.185 46.068a.383.383 0 0 0-.37.285.157.157 0 0 0-.006.028.383.383 0 0 0 .279.44c2.534.668 4.973 1.336 6.92 1.836a5.203 5.203 0 0 0-.342-.88c-1.842-.48-4.074-1.087-6.383-1.696a.376.376 0 0 0-.098-.014" style="fill:#e72425"/><path class="cls-14" d="M19.14 27.483a13.29 13.29 0 0 0-1.463.578c-2.185 1.016-3.405 2.692-3.336 4.59a5.508 5.508 0 0 0-1.893-.289 12.095 12.095 0 0 0-3.003.424c-1.321.356-2.693 2.49-2.49 4.878.033.237-.661 7.063-1.067 7.317a8.31 8.31 0 0 0-1.677 3.506c-.203 1.22.762 3.049 1.966 4.388 0 0 .038-.013.12-.032a7.85 7.85 0 0 1 3.667-1.921s7.303-4.994 12.284-8.43l-2.537-.48-.284-11.619a.383.383 0 0 1-.202-.33c-.013-.645-.043-1.542-.084-2.58"/><path d="M30.865 25.291h-.039a5.494 5.494 0 0 0-.497.025 6.084 6.084 0 0 0-4.573 2.931 11.25 11.25 0 0 0-2.423-1.189c.002.872.015 1.873.015 1.875a.318.318 0 0 1-.315.323h-.004a.319.319 0 0 1-.319-.315s-.015-1.13-.016-2.042a3.519 3.519 0 0 0-.356-.016 8.988 8.988 0 0 0-1.813.223l.034 2.05.665.095c.45.065.792.112.968.155a.32.32 0 0 1-.077.63.298.298 0 0 1-.078-.01 16.08 16.08 0 0 0-.904-.142l-.562-.081.02 1.133-.76-.57a.379.379 0 0 1-.216.072h-.008a.378.378 0 0 1-.18-.046l.284 11.62 2.536.478c2.566-1.77 4.515-3.128 4.531-3.177.048-.143 14.665-.477 14.904-.525.2-.04 2.23-.512 3.312-.668.057-.019.115-.036.172-.05a3.542 3.542 0 0 0 .056-.633v-.072a7.696 7.696 0 0 0-1.02-3.614c-.56-.813-3.507-1.423-4.37-1.473a5.096 5.096 0 0 1-2.084-1.016s-3.15-3.913-3.659-4.726a4.112 4.112 0 0 0-3.224-1.245" style="fill:#00894b"/><path class="cls-14" d="m19.983 29.713.008.335a.384.384 0 0 1-.16.318l.759.57-.02-1.133a89.396 89.396 0 0 1-.587-.09m.542-2.606q-.305.066-.626.15c.026.664.049 1.274.066 1.806.197.032.398.063.595.093l-.035-2.05"/><path class="cls-16" d="M19.898 27.258c-.247.066-.5.14-.758.226.041 1.038.072 1.934.084 2.579a.382.382 0 0 0 .203.33.377.377 0 0 0 .18.045h.007a.376.376 0 0 0 .216-.072.382.382 0 0 0 .16-.318c-.001-.105-.004-.217-.007-.335a30.06 30.06 0 0 1-.327-.055.319.319 0 0 1 .053-.633.336.336 0 0 1 .055.004l.2.034c-.016-.532-.038-1.142-.065-1.805M22.695 26.9c0 .91.015 2.04.015 2.041a.32.32 0 0 0 .32.315h.004a.32.32 0 0 0 .315-.323c0-.002-.013-1.003-.015-1.875a4.317 4.317 0 0 0-.372-.115 1.905 1.905 0 0 0-.267-.044"/><path class="cls-16" d="M19.709 29.024a.32.32 0 0 0-.053.634c.107.018.217.037.327.054.197.032.396.062.588.09.197.03.387.056.563.082.44.062.808.117.903.142a.352.352 0 0 0 .078.01.32.32 0 0 0 .078-.63c-.177-.043-.52-.09-.97-.154-.207-.03-.433-.062-.664-.097-.197-.029-.398-.06-.595-.092l-.2-.034a.364.364 0 0 0-.056-.005"/><path class="cls-17" d="M22.248 42.49c-4.98 3.438-12.284 8.432-12.284 8.432a7.845 7.845 0 0 0-3.665 1.922 11.545 11.545 0 0 1 2.435-.19 1.106 1.106 0 0 0 .36.054 7.798 7.798 0 0 0 3.602-1.572s6.76-2.038 9.199-3.614c.863-.253 2.032-1.473 3.302-3.658.534.686 2.496.77 3.937.77.48 0 .903-.008 1.196-.008 0 0 .317-.175.825-.452l-8.907-1.683"/><path class="cls-17" d="M44.994 38.12c-1.083.156-3.112.629-3.312.668-.238.049-14.855.383-14.903.526-.017.049-1.966 1.407-4.531 3.177l8.907 1.683c1.907-1.04 6.505-3.512 7.088-3.512h.013c.077.006.174.01.289.01a14.984 14.984 0 0 0 4.284-.721 5.445 5.445 0 0 1 2.165-1.83"/><path class="cls-18" d="M28.981 46.206c.022-.068 3.613-4.385 4.5-5.294a13.479 13.479 0 0 1 2.84-1.885 26.862 26.862 0 0 1 3.383 2.612c.251.478-.567.727-.749.91s-8.202 5.68-8.497 5.68-.75-.569-.773-.683-.704-1.34-.704-1.34M12.782 52.182a10.702 10.702 0 0 1 .34-3.204c.137-.727.16-1.476 1-1.545a70.697 70.697 0 0 1 7.18.364c1.408.205 2.113.159 2.294.363a5.705 5.705 0 0 1 .432 2.204c-.09.364-.84.455-1.136.477s-4.953.432-6.452.75-2.885.614-3.112.614-.546-.023-.546-.023"/><path class="cls-19" d="M7.648 46.479a28.141 28.141 0 0 0 3.68-3.408c.66-.84 1.955-2.545 1.84-2.794-.772-.409-9.45-3.999-12.245-4.294a.631.631 0 0 0-.432.954c.205.409 5.839 8.156 6.362 8.815s.795.727.795.727M31.73 33.006c.864.523 4.546.841 5.704 1a8.736 8.736 0 0 0 2.658.068c-.068-1.567-.954-8.452-.931-8.884s-.273-3.293-.546-3.316a.96.96 0 0 0-.931.5c-.296.454-3.203 5.203-3.84 6.361s-1.772 2.977-1.976 3.453a1.507 1.507 0 0 0-.137.818"/><path class="cls-2" d="M15.723 51.748a3.655 3.655 0 0 0-.776 2.545c.151.86.022 2.046.82 3.016a4.808 4.808 0 0 0 3.836 1.66c1.466-.13 3.19-.69 3.837-1.682a3.74 3.74 0 0 0 .84-2.414c0-.948-.409-3.21-1.422-3.707a4.463 4.463 0 0 0-2.479-.172l-3.556.581ZM31.781 47.33a7.556 7.556 0 0 0 .258 3.147 3.607 3.607 0 0 0 3.384 2.349 5.803 5.803 0 0 0 4.527-1.746 4.722 4.722 0 0 0 .884-2.759c0-.711-.453-3.039-1.746-3.729a5.163 5.163 0 0 0-2.242-.797c-.151.043-3.858 2.457-3.858 2.457ZM22.34 68.992c-.087-.54-1.1-6.23-.799-6.51s1.466 1.1 1.811 1.358a14.808 14.808 0 0 1 2.242 2.306c0 .238-1.509 1.25-1.725 1.509s-1.53 1.337-1.53 1.337M39.238 61.017c.022-.474.754-5.67.884-5.82s.603.237.948.604 2.63 4.505 2.5 4.893-1.423.194-1.681.258-2.177.087-2.284.129c-.11.043-.367-.064-.367-.064M31.943 32.737c0-1.038 3.993-7.902 4.708-8.911a10.83 10.83 0 0 1 1.964-1.951 6.098 6.098 0 0 1-.2.943c-.125.378-2.06 4.58-2.437 5.464s-1.26 2.312-1.513 2.984-.714 1.934-1.093 2.018a2.37 2.37 0 0 1-1.43-.547M6.244 45.083c.102 1.321-1.118 2.744-.508 4.777a5.643 5.643 0 0 0 1.22 2.54s.068 1.152-.78.475-2.066-2.202-1.964-3.524a9.99 9.99 0 0 1 .813-3.353 3.258 3.258 0 0 1 1.219-.915"/><path class="cls-2" d="m6.955 37.664 1.118.407c-.102-1.93.102-2.846 1.118-3.558a7.116 7.116 0 0 1 4.37-.914c.812.305 1.625-.305 2.032-1.32a7.037 7.037 0 0 1 3.151-3.355 5.581 5.581 0 0 1 4.064-.609c1.017.406 2.135 1.015 2.948.61a11.897 11.897 0 0 0 2.54-1.525c1.017-.813 2.643-1.32 3.557-.915s2.44.915 2.744 1.118c-.61-1.423-1.727-2.846-3.354-2.54-1.625.304-4.267 1.185-5.487 3.184a6.088 6.088 0 0 0-6.403-.949c-3.557 1.22-4.74 2.778-5.013 5.353-1.898-.576-3.523-.678-4.896.135a5.385 5.385 0 0 0-2.388 2.642 5.812 5.812 0 0 0-.1 2.236M9.597 53.314c-1.22-.203-2.337 0-2.54.916-.204.914.61 2.235.914 3.048s2.134 2.032 2.541 2.337.61.407.508 1.423a4.49 4.49 0 0 0 .305 3.05c.61.913 1.422 2.743 2.947 2.946-1.83.203-3.354.102-4.167-2.134s-.625-3.707.145-4.903c-1.873-1.093-4.413-2.82-4.718-4.954-.305-2.135.305-2.44 1.423-2.643a3.898 3.898 0 0 1 2.44.406c.405.204.202.508.202.508M15.187 63.884a22.253 22.253 0 0 0 .915 5.081 9.685 9.685 0 0 0 2.642 3.659A6.737 6.737 0 0 0 22.3 74.25a17.463 17.463 0 0 0 5.285-.813c-2.236.102-4.065-.102-5.183-.813s-3.354-1.829-4.27-3.76-1.829-3.049-2.235-3.862a4.66 4.66 0 0 0-.712-1.118M42.829 39.95c.915-.66 1.524-1.27 2.337-.863s1.728 1.728 1.83 1.016-.204-2.032-1.016-2.032c-.814 0-1.931-.203-2.236.406a14.663 14.663 0 0 1-.915 1.474M24.943 62.461c.61.305.712 0 .508-1.016s-.508-.813 0-1.626 1.017-.204 1.22-1.017a19.918 19.918 0 0 1 .305-2.439c.305-.813.813-1.016 1.626-1.219a4.83 4.83 0 0 0 1.93-.813 2.42 2.42 0 0 1 1.423-.508c.61-.102.61-.712-.101-.712s-2.236 0-2.948.712-1.83.101-2.235.711-.61 3.252-.712 3.76c-1.117.102-2.235.712-2.134 1.728a10.075 10.075 0 0 0 .407 1.93ZM92.76 30.006a15.787 15.787 0 0 0-12.15-.984c-4.673 1.722-8.805 6.279-10.38 9.461s-2.952 6.183-3 6.478c-2.903 1.673-6.051 5.559-5.805 11.561s3.984 8.904 7.083 10.969a40.72 40.72 0 0 0 5.78 3.548 41.57 41.57 0 0 0 6.665 2.012c2.559.688 7.969 1.229 10.97-.542s4.92-3.689 6.002-6.051 2.164-5.362 1.18-7.576c1.378-3.394 3.247-7.378 3.592-10.133s1.082-6.592-.984-10.528-3.428-5.357-5.25-6.489a12.172 12.172 0 0 0-3.702-1.726"/><path class="cls-18" d="M71.353 39.093a22.134 22.134 0 0 1 5.894-6.81 14.489 14.489 0 0 1 6.504-2.54c2.033-.305 6.809-.203 8.435.915l-.103.177c-1.446 2.426-4.037 5.742-7.112 6.734a40.551 40.551 0 0 1-9.553 1.727 19.801 19.801 0 0 1-4.065-.203"/><path class="cls-18" d="M91.983 31.267a27.892 27.892 0 0 0 0 6.504c.203 1.525 1.016 5.793 3.354 8.64a38.82 38.82 0 0 0 6.3 5.893 23.116 23.116 0 0 0 1.424-9.146c-.204-1.93-2.846-6.505-6.2-9.35s-4.778-2.974-4.778-2.974ZM81.79 42.223c.73-1.255 1.583-1.83 2.622-1.335a1.872 1.872 0 0 1 .964 2.596c-.52.99-2.25 2.275-3.091 1.385a2.164 2.164 0 0 1-.494-2.646M87.627 44.473a1.942 1.942 0 0 1 1.756-1.459 1.594 1.594 0 0 1 1.68.816 2.458 2.458 0 0 1-.122 2.3c-.495.692-1.236 1.484-2.102 1.187s-1.434-.643-1.484-1.31a4.075 4.075 0 0 1 .272-1.534"/><path class="cls-11" d="m80.332 56.664-.025.001a7.966 7.966 0 0 0-2.35 1.41 8.564 8.564 0 0 0-.073 1.285 3.573 3.573 0 0 0 1.334 2.152 1.001 1.001 0 0 0 .682.23 4.73 4.73 0 0 0 2.336-1.02c.321-.274.37-1.782.272-2.574-.07-.56-.177-.823-.401-.823a.68.68 0 0 0-.342.131 2.43 2.43 0 0 1-.853.443c-.107 0-.177-.067-.185-.245-.023-.507-.071-.99-.395-.99" style="clip-path:url(#clip-path)"/><path class="cls-21" d="M64.824 51.63c1.03-2.265 2.54-3.04 4.972-2.898a4.5 4.5 0 0 1 4.355 3.147 5.164 5.164 0 0 1-7.294 6.081c-3.05-1.609-2.505-5.293-2.033-6.33M86.165 60.776c1.03-2.263 2.54-3.041 4.972-2.897a4.5 4.5 0 0 1 4.355 3.148 5.164 5.164 0 0 1-7.294 6.08c-3.048-1.61-2.504-5.293-2.032-6.331"/><path class="cls-22" d="M6.176 45.05a4.248 4.248 0 0 0-1.83 4.233 5.437 5.437 0 0 0 1.83 3.592c-.983 1.118-.779 2.574.17 3.963a13.092 13.092 0 0 0 3.861 3.217 3.94 3.94 0 0 0-.71 2.88c.168 1.253 1.252 3.355 2.235 3.863a5.034 5.034 0 0 0 3.658 0M15.255 65.747a38.564 38.564 0 0 0 1.558 4.742 8.579 8.579 0 0 0 4.03 3.523c1.695.475 4.778.102 8.064-1.118s5.927-2.37 6.165-2.54c1.762-.542 7.453-2.202 9.519-3.456s4.133-3.42 4.438-4.606a16.226 16.226 0 0 0-.711-5.827 23.983 23.983 0 0 0-1.118-2.643M42.66 41.086c.373-1.83.711-2.744 2.337-2.846s2.778 1.287 2.744 3.59a14.164 14.164 0 0 1-.575 4.1 3.924 3.924 0 0 1 2.337 1.999c.643 1.152 1.186 3.15.61 4.404a2.756 2.756 0 0 1-2.473 1.93M39.882 32.21c1.254 0 5.996.34 5.285 5.76M7.633 46.642c-.915-1.085-3.929-5.218-4.98-6.539a16.341 16.341 0 0 1-2.27-3.692c0-.305.204-.508 1.085-.271s4.742 1.354 6.165 1.83a47.513 47.513 0 0 1 5.522 2.235M31.718 32.99a101.744 101.744 0 0 1 4.912-8.978c.745-1.084 1.355-1.863 1.558-2.1s.576 0 .644.813.745 6.81.813 8.265.305 2.812.237 3.252M34.53 27.095a5.516 5.516 0 0 0-2.202-1.728 4.773 4.773 0 0 0-2.778 0c-1.22.271-3.184 1.118-3.794 2.88 0 0-.61-.44-1.287-.88a6.616 6.616 0 0 0-4.201-.306c-1.998.34-2.269.881-3.861 1.66a4.04 4.04 0 0 0-2.067 3.93 9.706 9.706 0 0 0-2.54-.44 4.132 4.132 0 0 0-3.151 1.117 3.917 3.917 0 0 0-1.728 4.1M32.181 33.125c1.908.474 6.888 1.05 7.16 1.118M8.073 46.251a70.725 70.725 0 0 0 4.776-5.335"/><path class="cls-22" d="M6.481 52.807c1.219-.677 2.439-.406 3.693.779M9.665 52.603c.948 0 2.684-.88 2.99-1.897M21.657 47.623c1.39-.44 3.32-2.32 3.455-4.04M25.316 43.897a6.39 6.39 0 0 0 4.641.542M38.361 40.578c.983.373 3.796.034 4.2-.644M31.82 47.623a4.14 4.14 0 0 0 .846 3.76 4.066 4.066 0 0 0 4.947 1.059c1.965-.787 3.082-1.938 3.184-3.734s-1.016-4.505-3.456-4.81"/><path class="cls-22" d="M30.431 48.366c.78-.539 3.184-2.605 4.37-3.316S39.51 42.237 39.68 42s-.407-.677-.61-.88-2.639-1.932-2.844-2.067-1.695 1.082-2.847 2.286-3.896 4.015-4.133 4.422-.237.508 0 .88 1.186 1.725 1.186 1.725ZM34.53 49.927a2.112 2.112 0 0 1 3.76-1.56M22.434 51.06a4.139 4.139 0 0 1 1.907 3.35 4.067 4.067 0 0 1-2.942 4.114c-1.983.741-3.585.643-4.869-.616s-2.284-4.014-.687-5.883M23.96 50.672c-.938.128-4.107.22-5.463.494s-5.373 1.093-5.658 1.032-.157-.774-.143-1.063.649-3.204.71-3.441c.06-.24 1.982-.343 3.644-.23s5.584.344 6.032.485c.45.14.519.215.594.65s.285 2.074.285 2.074Z"/><path class="cls-22" d="M21.983 54.587a2.112 2.112 0 0 0-3.83 1.378M27.89 62.834c-2.101.88-3.523-.102-3.93-1.66s.272-2.947 1.965-2.845c-.339-1.897-.136-4.404 2.913-4.336 1.593-1.22 3.524-1.762 5.251 1.32 1.626-1.185 2.574-.895 3.32.653.745 1.55.135 3.92-1.49 3.717M21.657 69.914a26.551 26.551 0 0 1 10.806-7.385 32.36 32.36 0 0 1 12.534-1.49"/><path class="cls-22" d="M22.456 69.086a52.596 52.596 0 0 1-1.103-6.184c-.034-.88.474-.509.847-.204s3.104 2.916 3.534 3.491M39.273 60.93c.236-1.619.473-4.905.642-5.48s.814-.083 1.153.517a31.26 31.26 0 0 1 2.507 4.963M5.431 43.355a16.686 16.686 0 0 0 2.507-2.235M3.761 41.55a11.741 11.741 0 0 0 2.415-2.362M37.07 27.603a9.703 9.703 0 0 0 2.203.271M36.398 29.907a19.931 19.931 0 0 0 2.942.406M92.76 30.006a15.787 15.787 0 0 0-12.15-.984c-4.673 1.722-8.805 6.279-10.38 9.461s-2.952 6.183-3.001 6.478c-2.902 1.673-6.05 5.559-5.804 11.561s3.984 8.904 7.083 10.969a40.72 40.72 0 0 0 5.78 3.548 41.584 41.584 0 0 0 6.666 2.012c2.558.688 7.968 1.229 10.97-.542s4.918-3.689 6-6.051 2.165-5.362 1.181-7.576c1.378-3.394 3.247-7.378 3.592-10.133s1.083-6.592-.984-10.528-3.428-5.357-5.25-6.489a12.162 12.162 0 0 0-3.702-1.726Z"/><path class="cls-22" d="M92.76 30.006c-1.771 2.755-4.97 7.361-11.168 8.477s-10.38.606-11.02 0"/><path class="cls-22" d="M92.122 30.974a23.759 23.759 0 0 0 1.08 11.232c1.525 3.837 6.294 8.738 8.583 10.026"/><path class="cls-23" d="M81.942 42.03a1.925 1.925 0 0 1 2.743-1.04 2.042 2.042 0 0 1 .57 2.74c-.522.999-1.33 1.76-2.688 1.208-1.231-.503-1.06-1.946-.624-2.908ZM87.69 44.228a1.925 1.925 0 0 1 2.742-1.04 2.043 2.043 0 0 1 .571 2.741c-.523.998-1.331 1.76-2.688 1.206-1.231-.5-1.061-1.944-.625-2.907Z"/><path class="cls-22" d="M73.18 46.765a5.098 5.098 0 0 1 6.592-.722c1.476 1.083 1.672 4.329.934 5.903M84.643 53.57c1.574-2.263 3.247-3.788 5.657-3.148s3.394 3.886 3.345 4.771M77.903 58.146c.672-.485 1.77-1.427 2.115-1.574s.64.196.64.59-.098.934.197.787 1.289-.935 1.406-.344a8.19 8.19 0 0 1 .217 2.755c-.71.698-2.257 1.574-3.296 1.084-1.113-.526-1.328-2.216-1.28-3.298Z"/></g></g></svg>