<svg xmlns="http://www.w3.org/2000/svg" viewBox="0 0 112.398 82.776"><defs><clipPath id="clip-path" transform="translate(6.807)"><path class="cls-1" d="M0 0h94.961v77.045H0z"/></clipPath><clipPath id="clip-path-2" transform="translate(6.807)"><path class="cls-1" d="M0 0v27.71V24.244h94.961V0H0z"/></clipPath><clipPath id="clip-path-4" transform="translate(6.807)"><path class="cls-1" d="M0 26.943h94.961V71.27H0z"/></clipPath><linearGradient id="linear-gradient" x1="-312.155" y1="548.642" x2="-311.155" y2="548.642" gradientTransform="matrix(0 34.2108 34.2108 0 -18715.192 10675.233)" gradientUnits="userSpaceOnUse"><stop offset="0" stop-color="#00aeef"/><stop offset=".12" stop-color="#18b6f0"/><stop offset=".374" stop-color="#55c9f4"/><stop offset=".737" stop-color="#b5e8fa"/><stop offset="1" stop-color="#fff"/></linearGradient><style>.cls-1,.cls-30,.cls-31{fill:none}.cls-2{clip-path:url(#clip-path)}.cls-6{fill:#fff}.cls-12{fill:#dbf0ec}.cls-13{fill:#f9a667}.cls-15{fill:#fff200}.cls-16{fill:#ed1c24}.cls-17{fill:#d0181f}.cls-18{fill:#00aeef}.cls-26{fill:#b3e4fa}.cls-29{fill:#faab4d}.cls-30,.cls-31{stroke:#231f20;stroke-linecap:round;stroke-linejoin:round}.cls-30{stroke-width:.55px}.cls-31{stroke-width:.428px}</style></defs><g id="Layer_2" data-name="Layer 2"><g id="Layer_1-2" data-name="Layer 1"><path d="M-3.835 37.401c.814-.506 7.163 2.53 7.815 3.542s4.233 1.687 6.186 1.856a37.052 37.052 0 0 1 5.047 1.012s1.628 2.193 1.465 3.036 1.14 2.193 2.93 1.855 7.653-.843 8.629 0 1.303 2.699 3.094 3.206a5.388 5.388 0 0 0 2.297-.123c1.408-.266 2.766-.532 3.075.965.489 2.362 0 3.543 2.442 3.037s3.256-1.012 5.21-.169 3.745 1.181 3.745 2.53 10.419 4.386 16.117 3.542 12.536-.505 14.002 1.181c.869 1.002 2.37.874 3.89.746a7.93 7.93 0 0 1 2.947.098c2.117.674 9.605 1.687 11.07 2.192 1.466.507 6.35 1.35 6.35 1.35l3.094-.168v15.687H-5.626V37.232l1.79.169" transform="translate(6.807)" style="fill:#fcc79b" class="cls-2"/><g style="clip-path:url(#clip-path-2)"><path style="fill:url(#linear-gradient)" d="M6.807 0h94.961v27.71H6.807z"/></g><g class="cls-2"><path class="cls-6" d="M6.277 25.07c.566-1.512 4.023-3.49 7.04-1.803.314-3.431 5.907-4.769 7.793-2.908-.692-3.897 5.028-5.118 6.725-3.141-.566-4.711 4.4-6.921 7.165-5.002-1.32-3.78 1.633-6.862 6.033-5.118-1.445-3.547 5.782-9.363 8.925-2.617C54.17 2.853 57.5 5.586 56.871 8.32c5.531-1.513 6.914 2.791 5.405 4.827s-.217.239-.657.297c.252 1.222 1.07 1.454 1.634 1.338 1.823-2.966 7.068-3.438 6.314 3.251 2.452-.931 6.222-.873 6.348 1.628 3.897-.698 6.662-.291 6.474 1.861 3.142-2.559 6.787-1.454 6.976.931 2.2-1.164 3.771-.175 4.085.814 2.2-.349 2.766 2.501 2.766 2.501l-90.316.58Z" transform="translate(6.807)"/><path d="M-3.51 38.413c2.116-.506 3.582-1.18 4.396.674s2.116 2.868 3.744 2.868 5.373-.843 5.535.844 1.14 2.192 1.791 2.192 2.768 0 2.931 2.025.651 2.698 2.279 3.542a6.946 6.946 0 0 0 3.347.201 8.938 8.938 0 0 1 4.142.305c2.28 1.012 1.954.674 1.954 2.024s2.93.843 5.372.843 3.908 1.181 5.699 2.531 1.953 2.024 4.558 1.686 9.117 1.518 11.396 2.868.489 3.373 2.605 3.88a9.75 9.75 0 0 0 6.513-.507 9.67 9.67 0 0 1 7.814.506c1.954 1.181 5.861 1.688 8.303 1.518 2.442-.168 4.396-.843 4.722.676.197.921 2.075.786 3.738.65a6.572 6.572 0 0 1 2.447.024c.406.21 1.175-.073 2.11-.356 1.321-.4 2.973-.8 4.403.188 2.442 1.686 3.908.674 5.047.674s4.559.17 4.233-1.18 0-42.845 0-42.845H-4.811V38.92l1.301-.506" transform="translate(6.807)" style="fill:#6bcbdc"/></g><g style="clip-path:url(#clip-path-4)"><path d="M7.947 41.744c-.766 0-1.612.092-2.333.155a21.464 21.464 0 0 0 4.551.9c-.08-.844-1.058-1.055-2.218-1.055M0 38.04v.502c.272.125.544.255.811.386A1.868 1.868 0 0 0 0 38.04" transform="translate(6.807)" style="fill:#cdebf1"/><path d="M0 38.542v4.737a3.616 3.616 0 0 0 2.839 1.376c.814 0 2.158-.211 3.318-.211s2.137.21 2.218 1.054c.163 1.687 1.139 2.193 1.791 2.193s2.768 0 2.93 2.024.651 2.699 2.28 3.542a3.642 3.642 0 0 0 1.647.294c.527 0 1.104-.046 1.699-.092s1.208-.092 1.806-.092a5.793 5.793 0 0 1 2.337.396c2.278 1.013 1.953.675 1.953 2.025 0 .77.957.936 2.233.936.957 0 2.093-.093 3.139-.093 2.442 0 3.908 1.18 5.699 2.53 1.483 1.118 1.85 1.773 3.413 1.773a9 9 0 0 0 1.145-.086 5.422 5.422 0 0 1 .705-.041 29.16 29.16 0 0 1 10.692 2.908c2.279 1.35.488 3.374 2.604 3.88a11.308 11.308 0 0 0 2.642.332 9.387 9.387 0 0 0 3.871-.838 8.089 8.089 0 0 1 3.223-.6 9.328 9.328 0 0 1 4.591 1.106c1.709 1.033 4.913 1.55 7.323 1.55.345 0 .674-.012.98-.033 1.221-.084 2.32-.295 3.154-.295s1.405.211 1.567.97c.127.592.948.748 1.959.748.563 0 1.186-.049 1.781-.097s1.163-.097 1.617-.097a1.992 1.992 0 0 1 .83.122.776.776 0 0 0 .355.071 7.496 7.496 0 0 0 1.754-.428 8.145 8.145 0 0 1 2.329-.43 3.552 3.552 0 0 1 2.074.616q.237.165.463.295v-3.544a4.108 4.108 0 0 0-.747-.066 8.148 8.148 0 0 0-2.328.43 7.492 7.492 0 0 1-1.754.428.77.77 0 0 1-.356-.072 2.007 2.007 0 0 0-.83-.12c-.454 0-1.022.047-1.617.097s-1.218.097-1.781.097c-1.011 0-1.831-.157-1.957-.748-.163-.76-.733-.97-1.568-.97s-1.933.21-3.154.295c-.306.02-.635.031-.98.031-2.41 0-5.614-.516-7.323-1.55a9.33 9.33 0 0 0-4.592-1.104 8.089 8.089 0 0 0-3.222.599 9.386 9.386 0 0 1-3.871.837 11.303 11.303 0 0 1-2.642-.332c-2.116-.505-.325-2.53-2.605-3.88a29.147 29.147 0 0 0-10.69-2.907 5.6 5.6 0 0 0-.706.04 9.014 9.014 0 0 1-1.145.086c-1.563 0-1.93-.655-3.413-1.773-1.791-1.349-3.256-2.53-5.698-2.53-1.047 0-2.184.093-3.141.093-1.275 0-2.232-.165-2.232-.937 0-1.349.326-1.01-1.954-2.024a5.784 5.784 0 0 0-2.335-.396c-.599 0-1.212.046-1.807.092s-1.171.092-1.698.092a3.654 3.654 0 0 1-1.649-.294c-1.628-.843-2.116-1.518-2.279-3.542s-2.279-2.024-2.931-2.024-1.628-.506-1.791-2.193a21.407 21.407 0 0 1-4.551-.9c-.37.032-.707.057-.984.057-1.628 0-2.93-1.012-3.744-2.868a4.903 4.903 0 0 0-.075-.16A32.094 32.094 0 0 0 0 38.541" transform="translate(6.807)" style="fill:#d2c9b1"/><path d="M94.96 26.943H0v11.096a1.866 1.866 0 0 1 .811.889c.026.051.051.104.075.16.814 1.855 2.117 2.867 3.745 2.867.276 0 .613-.024.983-.056.721-.063 1.567-.155 2.333-.155 1.161 0 2.138.211 2.219 1.055.163 1.687 1.14 2.192 1.791 2.192s2.768 0 2.93 2.025.652 2.698 2.28 3.542a3.65 3.65 0 0 0 1.649.293c.526 0 1.103-.046 1.698-.092s1.208-.091 1.806-.091a5.789 5.789 0 0 1 2.336.396c2.279 1.012 1.953.674 1.953 2.024 0 .771.957.936 2.233.936.957 0 2.093-.093 3.14-.093 2.442 0 3.907 1.181 5.698 2.531 1.484 1.117 1.85 1.772 3.413 1.772a9 9 0 0 0 1.146-.086 5.593 5.593 0 0 1 .705-.04 29.155 29.155 0 0 1 10.691 2.908c2.279 1.349.488 3.373 2.605 3.879a11.294 11.294 0 0 0 2.641.333 9.384 9.384 0 0 0 3.871-.839 8.111 8.111 0 0 1 3.223-.599 9.339 9.339 0 0 1 4.591 1.105c1.709 1.034 4.913 1.55 7.323 1.55.346 0 .674-.01.98-.031 1.221-.085 2.32-.295 3.155-.295s1.404.21 1.567.97c.127.591.946.747 1.957.747.564 0 1.186-.048 1.782-.097s1.163-.096 1.617-.096a1.994 1.994 0 0 1 .83.12.766.766 0 0 0 .355.073 7.531 7.531 0 0 0 1.754-.429 8.145 8.145 0 0 1 2.328-.43 4.006 4.006 0 0 1 .747.067V26.943" transform="translate(6.807)" style="fill:#6ccbdc"/></g><g class="cls-2"><path class="cls-6" d="M74.636 65.907c-1.79 1.519-2.442 2.363 0 2.363s3.93-.534 4.721-.338c3.42.843 5.861.337 4.722 1.686s-3.745.844-1.14 1.35 4.722.506 5.047 1.012a3.99 3.99 0 0 1 .163 1.855l2.442-.337c.488 1.686 1.628 1.518 1.628 1.518s1.954-.337 2.605.506 2.767.506 2.767 1.181 2.117 1.35 2.606 1.012a42.002 42.002 0 0 0 2.93-3.88s-5.698-8.434-6.35-8.602-13.675-3.036-13.675-3.036Z" transform="translate(6.807)"/><path class="cls-12" d="m-5.138 35.527 3.093-.487s.326 1.462.814 1.624a7.989 7.989 0 0 0 2.442-.488s1.466.163 1.466.975.651.813.651.813 4.395-.65 4.395.325A1.804 1.804 0 0 0 8.7 39.75s5.698-1.787 6.024-.813a7.886 7.886 0 0 0 1.465 2.112c.326.487 7.164 1.462 7.815 1.787s1.302-.325 1.953-.488 1.791-.974 2.28-.487.325 1.624 1.302 1.787 4.07-.812 4.56-.812a9.605 9.605 0 0 1 2.115.812s1.14-.975.977 0-1.954.325-.163.975a6.958 6.958 0 0 0 3.907.325c.49-.163 1.63-.812 2.117-.163a4.102 4.102 0 0 1 .651 1.462c.977.65 5.047-.65 5.047-.65a4.383 4.383 0 0 0 1.628 1.138 3.648 3.648 0 0 0 1.954-.325s1.628-.65 1.79.162c.164.812-.094 1.34.164 2.112.325.974.976.162 2.28.324s.976.813 1.138 1.3.814.812 2.442.163 3.257 0 2.443.487-3.582.975-3.094 1.462 2.768.487 3.582.325.977.162.326 1.624-1.14 2.275.325 1.787 2.768-.487 2.605.325.326.975 3.093.163 3.908-1.625 3.582-.488-2.768 2.274-1.466 2.436 2.606.325 6.024-.65 9.77-1.786 12.374-2.436 4.07.163 3.093 1.138-1.628.974-1.954 2.11 2.117.976 2.117.976 1.791-1.625 2.28-1.3.976.162.487 1.3-.976.974-.488 1.137.814.65 2.442-.163 3.907-1.3 3.744-.487-1.139 2.599-.65 2.436 2.441-1.624 2.93-.812.163 12.67.163 12.67-7.652.326-7.327-.487 1.14-1.624.814-2.273c-.325-.651-.325-.651-1.953-.488s-2.442-.487-2.768-2.112-2.279-2.111-4.233-1.95-7.814-.161-7.326-.974-2.93-.487-4.559.325c-1.627.813-10.745 3.087-9.116.65 1.627-2.436 3.744-3.25 4.558-4.061s-.977-.162-2.28-.812-.488-.488-.488-1.625-.488-.65-2.279-.65-3.093 0-2.116-.974.325-.975-1.954-.65-2.93-.325-2.28-1.462.326-1.95-1.953-1.3a9.097 9.097 0 0 1-4.722-.162 2.538 2.538 0 0 0-2.604-3.086c-1.628.162-4.72.974-4.233-.65s-.652-.65-2.93-.65-5.373.325-5.047-1.624-.489-1.95-2.768-1.3-5.21.812-5.536-.487-1.79-1.3-3.419-.812-2.604 0-5.046-1.137-2.28-1.624-6.024-1.462-6.35.162-6.35-1.625S5.281 41.7 4.63 41.05s-4.233 0-4.558-1.137-.977-2.275-1.954-1.787-3.419 1.137-3.419 0 .163-2.599.163-2.599" transform="translate(6.807)"/><path class="cls-13" d="M46.552 73.373c0 3.885-11.945 7.033-26.679 7.033s-26.68-3.148-26.68-7.033 11.945-7.033 26.68-7.033 26.679 3.15 26.679 7.033" transform="translate(6.807)"/><path class="cls-13" d="M60.893 72.15c0 1.689-4.785 3.058-10.687 3.058s-10.687-1.369-10.687-3.058 4.785-3.058 10.687-3.058 10.687 1.369 10.687 3.058" transform="translate(6.807)"/><path class="cls-12" d="M52.985 34.272c.722-.06 5.716-.12 6.077 0a18.903 18.903 0 0 0 2.527.06l2.888.241.902.301a21.434 21.434 0 0 1-2.948.06c-.602-.12-3.189-.12-3.189-.12s-2.045 0-2.466.06-1.144.361-1.384.24a24.08 24.08 0 0 0-2.888-.18c-.18 0 .481-.662.481-.662" transform="translate(6.807)"/><path d="M24.818 47.3c3.466-3.057 12.546-6.122 16.358-3.877 1.916-2.071 7.562-6.221 11.147-5.054.52-2.344 4.723-7.43 9.2-8.952-7.745-2.54-17.343-1.692-20.489 1.946-8.429-3.343-19.077.423-23.723 6.007-6.622-.847-12.293 3.682-13.826 6.77 4.435-1.058 7.541.635 8.186 2.835 5.163-2.54 11.05-1.632 13.147.326" transform="translate(6.807)" style="fill:#ffcf01"/><path class="cls-15" d="M46.744 58.72c.635-1.408 3.615-5.409 7.726-5.436s6.292 1.214 7.34 2.125 4.664 8.609 3.422 11.561a10.33 10.33 0 0 1-5.63 5.684 14.918 14.918 0 0 1-4.193.58c-.111-.028-8.472-4.47-8.747-5.602a33.195 33.195 0 0 1-.966-5.187c.138-.414 1.048-3.725 1.048-3.725" transform="translate(6.807)"/><path class="cls-16" d="M46.082 65.95c2.456-.138 11.478-3.201 13.3-4.525.855 4.525-.028 9.409-3.035 11.92-3.643-.138-6.153-.911-8.085-3.229a9.188 9.188 0 0 1-2.18-4.166M59.492 61.12c.138-1.903-.304-7.67-4.829-7.78 1.214-.442 4.277.055 6.043 1.214s3.642 3.146 3.946 4.028c.303.884-2.815 2.29-3.063 2.318s-2.208.525-2.208.525Z" transform="translate(6.807)"/><path class="cls-15" d="M25.387 21.878c-4.71 1.59-12.534 5.285-16.343 10.097s-5.533 8.803-5.96 12.329c3.052-3.778 6.725-6.695 14.227-6.934 3.243-4.621 13.378-9.61 23.752-6.17 3.288-2.834 9.351-3.865 14.553-3.05s6.23 1.287 6.23 1.287c-1.684-2.532-8.155-7.645-15.487-8.762a50.254 50.254 0 0 0-20.972 1.203" transform="translate(6.807)"/><path class="cls-16" d="M25.387 21.878a20.88 20.88 0 0 0-8.076 15.492c3.284-3.375 6.152-6.04 12.091-6.856s10.281.043 11.837.73c-2.662-5.93-6.554-9.753-10.977-10.483a42.79 42.79 0 0 0-4.875 1.117" transform="translate(6.807)"/><path class="cls-17" d="M11.71 46.831c.245-3.114 1.576-7.768 2.665-9.206a24.358 24.358 0 0 1 2.936-.255c1.581-2.369 5.292-5.034 9.446-6.05-.928 2.835-2.426 12.372-1.939 15.98-4.595-2.23-8.272-2.602-13.108-.47M35.106 30.22a32.217 32.217 0 0 1 6.07 13.203c2.641-3.175 7.028-5.536 11.147-5.054-1.77-5.44-4.512-8.148-6.973-9.502-2.097.296-3.815 1.408-4.287 2.333a15.47 15.47 0 0 0-5.957-.98" transform="translate(6.807)"/><path class="cls-18" d="M47.058 58.412c2.686-1.02 7.303-.908 11.92 3.141-3.066 3.481-9.612 5.675-12.979 4.843-.833-2.27-.454-6.357 1.06-7.984M64.485 68.158a7.255 7.255 0 0 0-4.917-6.673c1.207-.834 4.588-2.699 4.346-4.302a9.53 9.53 0 0 1 1.91 6.497 11.124 11.124 0 0 1-1.339 4.478" transform="translate(6.807)"/><path d="M61.23 61.576a1.866 1.866 0 1 1-1.861-1.973 1.92 1.92 0 0 1 1.862 1.973" transform="translate(6.807)" style="fill:#f8963e"/><path d="M76.31 70.37c-.123-.258-.406-.233-.541-.331s-2.201-.788-2.176-1.157 1.205-.762 1.758-.934a6.857 6.857 0 0 0 1.02-.295 8.93 8.93 0 0 1 .96-2.152 4.619 4.619 0 0 1 1.352.233 10.9 10.9 0 0 1 1.648 1.132c.16.172 2.238-.59 2.668-.689s.922.062.935.184c.011.123-.984 1.82-1.095 2.103s.233.308.369.394 1.931 1.106 1.844 1.623c-.085.516-.344.578-.651.701a21.77 21.77 0 0 1-2.976-.185c-.283-.012-.922-.16-.983-.073s-3.099 2.028-3.394 2.2-1.07.419-1.144.283a1.99 1.99 0 0 1-.196-1.07c.085-.356.553-1.573.565-1.672l.037-.295" transform="translate(6.807)" style="fill:#f06290"/><path d="M11.14 63.811c-.984-.563-2.11-1.618-2.11-2.32a2.34 2.34 0 0 1 1.302-2.075 8.971 8.971 0 0 1 2.145-.282 2.566 2.566 0 0 0 1.512-.844c.246-.386.809-1.37 1.09-1.3s3.27 1.23 3.517 1.335a.914.914 0 0 1 .21 1.337c-.456.598-.421.95-.105 1.301a3.58 3.58 0 0 1 .845 1.934 1.716 1.716 0 0 1-.88 1.582 9.598 9.598 0 0 1-3.024.633c-.211 0-2.462-.528-2.673-.598s-1.828-.703-1.828-.703" transform="translate(6.807)" style="fill:#fff68d"/><path d="M79.959 33.752c-.202.066-10.71-.134-10.71-.134a26.097 26.097 0 0 1 .268-4.284 81.095 81.095 0 0 1 2.743-9.36c.521-1.486 1.038-2.83 1.473-3.76 1.472-3.145 4.016-6.96 6.425-7.63.067 2.343-.133 10.978-.133 11.179v10.575Z" transform="translate(6.807)" style="fill:#fff9b4"/><path d="m80.829 33.819.134-21.084s2.343 3.346 2.878 4.15 2.744 9.304 2.945 10.307c.2 1.005 1.07 6.225.802 6.426s-1.003.2-1.204.268-5.556-.067-5.556-.067" transform="translate(6.807)" style="fill:#f47d20"/><path class="cls-6" d="M75.005 38.303c0-.2 1.34-2.544 1.34-2.544l10.306-.067a12.528 12.528 0 0 1 0 2.745c-.2.067-6.76.134-6.76.134Z" transform="translate(6.807)"/><path class="cls-6" d="m71.725 40.913-1.205-2.475v-2.076l1.54.334 2.945 1.608 7.095-.068 11.111.068a3.622 3.622 0 0 1 .134 1.003l-2.343 2.744H73.934Z" transform="translate(6.807)"/><path d="M70.587 36.965a16.587 16.587 0 0 0 3.682 2.142c.803.2 18.874 0 18.874 0s.203-.87.068-.804c-.134.068-17.202.135-17.202.135l-3.28-1.071-1.941-1.004Z" transform="translate(6.807)" style="fill:#ed1b2f"/><path d="M87.12 40.245c.134-.803.134-1.54 1.205-1.673s1.941.2 2.007.736c.068.535.068 1.406-.334 1.673a5.274 5.274 0 0 1-2.008.335c-.402 0-.87-1.071-.87-1.071" transform="translate(6.807)" style="fill:#8b5e3c"/><path class="cls-6" d="M88.258 39.977c0-.402.2-.469.602-.469s.603.067.536.335-.134.602-.602.602a.545.545 0 0 1-.536-.468" transform="translate(6.807)"/><path class="cls-26" d="M81.322 37.1a1.033 1.033 0 1 1-1.003-.788.916.916 0 0 1 1.003.789M84.975 37.1a1.033 1.033 0 1 1-1.004-.788.916.916 0 0 1 1.003.789" transform="translate(6.807)"/><path class="cls-26" d="M83.096 36.41h1.711l-.561 1.349h-2.005l.855-1.349z"/><path d="M37.481 71.715c.822.345 2.038 1.034 2.038 0-1.314-6.377-7.14-41.366-7.14-41.366s-2.3-.69-2.3.517 7.402 40.849 7.402 40.849" transform="translate(6.807)" style="fill:#d3d5d6"/><path d="M78.335 68.253a13.351 13.351 0 0 1-.138-1.492s1.005 1.388 1.318 1.249c.115-.051 2.638-.66 2.638-.66l-2.222 1.597 2.5.97-3.263-.45-2.082 2.256s1.11-2.498 1.007-2.464-2.187-.52-2.187-.52Z" transform="translate(6.807)" style="fill:#fee2d0"/><path class="cls-15" d="M72.379 19.186h7.654v3.594h-9.008c.42-1.12 1.353-3.594 1.353-3.594M70.045 27.121h9.849v1.447l-10.316.14c.487-.45 1.43-1.587 1.43-1.587" transform="translate(6.807)"/><path class="cls-29" d="M13.764 59.903a25.679 25.679 0 0 0-3.144 1.965 3.405 3.405 0 0 0 .751.5c.143 0 2.143-1.822 2.143-1.822l.571-.57Z" transform="translate(6.807)"/><path class="cls-29" d="m21.964 60.439-1.643 2.787.607.285 1.322-2.964-.286-.108zM23.428 60.761l-.072 2.643 1.001-.322-.679-2.393-.25.072z"/><path class="cls-12" d="M62.01 40.95c1.504 0 7.521.12 8.363-.06s1.264.12 1.685-.06a4.54 4.54 0 0 1 1.745-.24c.36.06.601.3.481.54s1.504.181 2.707.301a8.204 8.204 0 0 0 2.407.241c1.745-.06 2.226-.542 4.332.06a12.403 12.403 0 0 0 3.911.662c.963 0 2.647.241.782.301s-5.776-.24-6.919-.12-2.948-.06-4.332 0-6.558.24-7.701.12-4.212-.06-5.476-.06-3.128-.06-3.91-.12-3.009-.362-3.009-.362l-2.888-.36a6.065 6.065 0 0 1 2.287-.542c.962.06 5.535-.3 5.535-.3M101.419 32.828c-1.023 0-7.761-.06-7.761-.06l-3.249-.12s-.421.12-.602-.06 1.985-.542 2.707-.482a14.158 14.158 0 0 0 1.685 0l1.805-.3 1.203-.18a7.508 7.508 0 0 0 1.625.18c.481-.06 1.444.12 1.805.06s1.143-.36 1.444-.12a3.193 3.193 0 0 1 .601.962ZM-1.224 29.82a41.827 41.827 0 0 1 4.452-.12c.421 0 1.565.06 2.106.06s1.86.088 2.166.06a9.704 9.704 0 0 1 2.226.06c1.264.121 1.504.181 1.865.181a8.97 8.97 0 0 1-1.985.06c-1.083-.06-1.204.18-2.226.12s-1.685.181-2.588.121-2.045-.061-2.767-.121-1.685 0-1.986 0h-1.263c-.241 0 0-.421 0-.421M90.199 42.051a7.228 7.228 0 0 1 1.554-.777l1.457-.777a.923.923 0 0 0 .874.39c.68 0-.097-.293.68 0s-1.554-.487 0 0a8.38 8.38 0 0 0 2.233.581h.874s.97-.097 1.263-.097.679.097.97.097.098.777.098.777l-1.554.097-1.068.097h-7.672ZM60.675 27.095c1.165 0 7.235.437 7.672 0s-.97-.389-1.457-.389a9.455 9.455 0 0 0-1.553-.097 10.037 10.037 0 0 1-1.846-.097l-2.039.194a15.407 15.407 0 0 1-1.65.195 4.05 4.05 0 0 0-1.069.194 12.077 12.077 0 0 0 1.942 0M89.325 26.755c.874 0 5.426.328 5.754 0s-.729-.292-1.093-.292a7.05 7.05 0 0 0-1.165-.072 7.6 7.6 0 0 1-1.384-.072l-1.53.144a11.584 11.584 0 0 1-1.238.146 3.032 3.032 0 0 0-.8.146 9.029 9.029 0 0 0 1.456 0M7.65 26.561c.874 0 5.426.328 5.754 0s-.729-.292-1.093-.292a7.05 7.05 0 0 0-1.165-.072 7.6 7.6 0 0 1-1.384-.073l-1.529.145a11.613 11.613 0 0 1-1.239.146 3.032 3.032 0 0 0-.801.146 9.029 9.029 0 0 0 1.457 0" transform="translate(6.807)"/><path class="cls-6" d="M23.498 22.638c6.388-1.74 25.443-4.284 38.025 6.778-3.098-5.734-12.473-8.519-16.87-9.04s-14.103-1.132-21.155 2.262M51.121 54.669c5.847-3.248 14.943-.093 14.85 9.56-1.763-10.581-11.23-11.602-16.799-8.261 1.392-1.485 1.95-1.3 1.95-1.3" transform="translate(6.807)"/><path class="cls-30" d="m39.52 71.715-4.898-28.527c1.456-.764 4.425-.647 6.554.235 2.801-3.584 8.291-6.112 11.148-5.054 1.456-3.937 5.77-8.638 9.523-8.932-5.826-7.757-18.878-11.518-33.891-8.286S4.092 36.31 3.084 44.304c1.624-1.234 7.17-.587 8.627 2.527 2.744-1.057 7.898-2.586 13.107.47a16.533 16.533 0 0 1 7.563-3.82l5.066 28.82" transform="translate(6.807)"/><path class="cls-31" d="M61.51 29.495c-2.297-1.587-16.862-2.997-20.447 1.704-6.386-2.703-19.774-.117-23.752 6.171-6.498.059-11.203 2.292-14.004 6.817" transform="translate(6.807)"/><path class="cls-31" d="m39.188 43.481-2.241-12.81M41.428 43.188 39.02 30.495M86.896 8.578v26.793"/><path class="cls-31" d="M80.031 33.822c-1.32 0-10.041-.172-10.499-.172s-.344-.342-.344-1.09c0-3.442 3.327-19.966 10.901-23.982M80.891 33.765V12.996c3.73 1.893 6.598 15.778 6.598 20.31 0 .459-.918.459-1.09.459ZM75.154 38.125c.058-.172 1.263-2.467 1.263-2.467h10.327v2.524" transform="translate(6.807)"/><path class="cls-31" d="M71.827 40.88a12.29 12.29 0 0 1-1.434-4.304c.114-.746 2.237.803 3.27 1.262a9.389 9.389 0 0 0 4.13.574h15.262c.344 0 .344.746.344.746s-1.32 1.778-1.491 1.893" transform="translate(6.807)"/><path class="cls-31" d="M87.126 39.932c0-.697.248-1.347 1.568-1.347s1.597.375 1.597 1.465-.736 1.346-1.482 1.346c-1.512 0-1.683-.775-1.683-1.464Z" transform="translate(6.807)"/><path d="M88.37 39.877c0-.196.069-.379.426-.379s.433.105.433.412-.2.38-.402.38c-.41 0-.456-.219-.456-.413Z" transform="translate(6.807)" style="stroke-width:.306px;stroke-linecap:round;stroke-linejoin:round;stroke:#231f20;fill:none"/><path class="cls-30" d="M65.74 63.241a10.049 10.049 0 1 1-10.048-10.049 10.05 10.05 0 0 1 10.049 10.05Z" transform="translate(6.807)"/><path d="M61.294 61.703a1.925 1.925 0 1 1-1.924-1.924 1.925 1.925 0 0 1 1.924 1.924Z" transform="translate(6.807)" style="stroke:#fff;stroke-width:.612px;stroke-linecap:round;stroke-linejoin:round;fill:none"/><path class="cls-30" d="M80.608 70.868c-.578-.064-3.54 2.47-4.362 2.551s-.621-1.38 0-2.633c.26-.527.082-.577-.247-.74s-2.47-.495-2.387-1.153 2.223-1.07 2.799-1.152c.164-1.317.576-2.058.987-2.222a4.663 4.663 0 0 1 2.963 1.4c1.152-.248 3.127-1.072 3.539-.742s-.658 1.646-.988 2.057-.246.494.33.741 2.304 1.07 1.646 1.811-3.54.164-4.28.082ZM13.495 58.692c.66 0 .73-1.772 1.668-1.46s3.44.834 3.545 1.669a1.17 1.17 0 0 1-.73 1.355c1.981 1.563 2.502 3.232.417 4.17a7.12 7.12 0 0 1-5.838.104c-2.19-.73-4.21-2.202-3.232-3.962.521-.938 3.544-1.876 4.17-1.876Z" transform="translate(6.807)"/></g></g></g></svg>