<svg xml:space="preserve" width="506.459" height="410.911" xmlns="http://www.w3.org/2000/svg"><defs><clipPath clipPathUnits="userSpaceOnUse" id="a"><path d="M108.06 313.54h379.843v308.182H108.06Z"/></clipPath><clipPath clipPathUnits="userSpaceOnUse" id="b"><path d="M108.06 621.723V510.881v13.862h379.844v96.98z"/></clipPath><clipPath clipPathUnits="userSpaceOnUse" id="c"><path d="M502.86 622.887V510.881H108.062v112.006z"/></clipPath><clipPath clipPathUnits="userSpaceOnUse" id="e"><path d="M108.06 313.54h379.843v308.182H108.06Z"/></clipPath><clipPath clipPathUnits="userSpaceOnUse" id="f"><path d="M108.06 467.553a125.258 125.258 0 0 0 3.244-1.544c-.9 1.8-1.981 2.919-3.244 3.553zm22.457-13.429c5.554-1.909 13.21-3.168 18.206-3.599-.326 3.374-4.233 4.217-8.874 4.217-3.064 0-6.449-.368-9.332-.618"/></clipPath><clipPath clipPathUnits="userSpaceOnUse" id="g"><path d="M108.06 336.642h379.843v177.305H108.06Z"/></clipPath><clipPath clipPathUnits="userSpaceOnUse" id="h"><path d="M108.06 313.54h379.843v308.182H108.06Z"/></clipPath><linearGradient x1="0" y1="0" x2="1" y2="0" gradientUnits="userSpaceOnUse" gradientTransform="matrix(0 -136.8432 -136.8432 0 309.49 637.075)" spreadMethod="pad" id="d"><stop style="stop-opacity:1;stop-color:#00adef" offset="0"/><stop style="stop-opacity:1;stop-color:#00adef" offset=".109"/><stop style="stop-opacity:1;stop-color:#fff" offset="1"/></linearGradient></defs><g clip-path="url(#a)" transform="matrix(1.33333 0 0 -1.33333 -144.08 828.964)"><path d="M0 0c3.256 2.025 28.654-10.12 31.26-14.168 2.604-4.048 16.931-6.747 24.745-7.423 7.815-.674 20.187-4.048 20.187-4.048s6.513-8.772 5.862-12.145c-.651-3.374 4.558-8.771 11.722-7.42 7.163 1.348 30.607 3.372 34.514 0 3.907-3.375 5.21-10.797 12.374-12.822 2.62-.74 5.938-.126 9.188.488 5.634 1.065 11.063 2.129 12.301-3.859 1.954-9.447 0-14.171 9.768-12.146 9.769 2.023 13.025 4.047 20.84.674 7.814-3.374 14.978-4.724 14.978-10.12 0-5.398 41.678-17.543 64.47-14.169 22.792 3.374 50.144 2.024 56.006-4.722 3.48-4.008 9.486-3.495 15.565-2.982 4.156.351 8.347.702 11.785-.393 8.466-2.698 38.421-6.747 44.282-8.77 5.861-2.025 25.399-5.398 25.399-5.398l12.373.673v-62.748H-7.163V.675L0 0" style="fill:#fabf8c;fill-opacity:1;fill-rule:nonzero;stroke:none" transform="translate(92.718 472.115)"/></g><g clip-path="url(#b)" transform="matrix(1.33333 0 0 -1.33333 -144.08 828.964)"><g clip-path="url(#c)"><path d="M108.06 621.723V510.881v13.862h379.844v96.98z" style="fill:url(#d);stroke:none"/></g></g><g clip-path="url(#e)" transform="matrix(1.33333 0 0 -1.33333 -144.08 828.964)"><path d="M0 0c2.263 6.049 16.091 13.96 28.157 7.212 1.258 13.726 23.632 19.077 31.173 11.632-2.765 15.588 20.112 20.472 26.901 12.563-2.263 18.844 17.599 27.684 28.66 20.007-5.28 15.122 6.534 27.452 24.134 20.472-5.783 14.192 23.129 37.456 35.699 10.47 16.844 6.514 30.167-4.42 27.654-15.354 22.123 6.049 27.654-11.166 21.62-19.31-6.034-8.143-.868-.956-2.628-1.189 1.005-4.886 4.273-5.817 6.536-5.351 7.291 11.865 28.272 13.752 25.255-13.002 9.806 3.723 24.889 3.49 25.392-6.513 15.586 2.791 26.648 1.162 25.894-7.445 12.569 10.236 27.149 5.816 27.905-3.723 8.798 4.653 15.084.698 16.342-3.257 8.798 1.397 11.06-10.004 11.06-10.004L-1.507-5.117Z" style="fill:#fff;fill-opacity:1;fill-rule:nonzero;stroke:none" transform="translate(133.17 521.44)"/><path d="M0 0c8.465 2.025 14.327 4.722 17.583-2.698 3.256-7.422 8.466-11.47 14.978-11.47 6.513 0 21.49 3.373 22.141-3.375.651-6.747 4.559-8.77 7.163-8.77 2.606 0 11.072 0 11.722-8.098.652-8.097 2.606-10.795 9.118-14.168 3.136-1.625 8.083-1.216 13.388-.806 5.712.44 11.841.881 16.568-1.219 9.117-4.049 7.814-2.697 7.814-8.095 0-5.4 11.723-3.375 21.491-3.375 9.768 0 15.628-4.722 22.793-10.122 7.162-5.396 7.814-8.096 18.233-6.745 10.419 1.349 36.468-6.073 45.586-11.471 9.117-5.397 1.952-13.493 10.418-15.517 8.467-2.025 16.933-2.025 26.05 2.024 9.117 4.047 23.442 2.698 31.257-2.024 7.815-4.725 23.445-6.75 33.213-6.073 9.768.673 17.584 3.373 18.886-2.7.79-3.686 8.301-3.145 14.955-2.603 4.307.35 8.254.7 9.789-.095 1.621-.839 4.697.293 8.438 1.426 5.283 1.599 11.893 3.198 17.612-.753 9.768-6.747 15.63-2.698 20.187-2.698 4.559 0 18.235-.676 16.933 4.723-1.304 5.396 0 171.378 0 171.378H-5.21V-2.025L0 0" style="fill:#78d2dc;fill-opacity:1;fill-rule:nonzero;stroke:none" transform="translate(94.021 468.067)"/></g><g clip-path="url(#f)" transform="matrix(1.33333 0 0 -1.33333 -144.08 828.964)"><path d="M108.061 450.524h40.662v19.038h-40.662z" style="fill:#d1f0f2;fill-opacity:1;fill-rule:nonzero;stroke:none"/></g><g clip-path="url(#g)" transform="matrix(1.33333 0 0 -1.33333 -144.08 828.964)"><path d="M0 0v-18.947c3.032-3.596 6.888-5.504 11.358-5.504 3.256 0 8.63.844 13.27.844 4.64 0 8.546-.843 8.871-4.217.651-6.747 4.558-8.772 7.164-8.772 2.604 0 11.071 0 11.722-8.096.65-8.096 2.605-10.795 9.118-14.169 1.728-.896 4.007-1.173 6.593-1.173 2.105 0 4.412.183 6.793.367 2.379.184 4.832.367 7.225.367 3.351 0 6.586-.36 9.344-1.585 9.116-4.049 7.814-2.699 7.814-8.097 0-3.084 3.828-3.745 8.93-3.745 3.828 0 8.373.372 12.56.372 9.768 0 15.63-4.723 22.792-10.122 5.936-4.47 7.401-7.09 13.652-7.09 1.295 0 2.795.113 4.583.344.843.11 1.79.162 2.821.162 11.705 0 34.385-6.671 42.765-11.632 9.115-5.397 1.953-13.495 10.419-15.519 3.506-.839 7.013-1.33 10.566-1.33 5.025 0 10.142.982 15.482 3.354 3.7 1.644 8.26 2.398 12.893 2.398 6.782 0 13.723-1.616 18.365-4.422 6.835-4.132 19.651-6.198 29.292-6.198 1.381 0 2.695.042 3.919.127 4.885.336 9.281 1.179 12.618 1.179 3.339 0 5.618-.843 6.269-3.879.508-2.368 3.788-2.992 7.833-2.992 2.254 0 4.745.193 7.126.387 2.381.194 4.652.387 6.467.387 1.466 0 2.634-.126 3.32-.481.392-.204.87-.291 1.422-.291 1.727 0 4.18.859 7.016 1.717 2.837.859 6.056 1.718 9.314 1.718 2.81 0 5.649-.638 8.297-2.467a28.737 28.737 0 0 1 1.85-1.18v14.177c-.993.185-1.992.265-2.987.265-3.257 0-6.476-.859-9.311-1.717-2.836-.858-5.289-1.717-7.016-1.717-.552 0-1.03.088-1.423.291-.686.356-1.854.482-3.321.482-1.815 0-4.086-.193-6.468-.387-2.381-.194-4.872-.388-7.125-.388-4.044 0-7.323.624-7.83 2.991-.651 3.037-2.93 3.88-6.269 3.88-3.337 0-7.734-.843-12.617-1.18a56.915 56.915 0 0 0-3.92-.127c-9.641 0-22.457 2.067-29.293 6.2-4.643 2.806-11.583 4.42-18.365 4.42-4.632 0-9.192-.754-12.892-2.396-5.341-2.372-10.457-3.354-15.482-3.354-3.553 0-7.061.491-10.568 1.33-8.466 2.024-1.301 10.12-10.418 15.517-8.38 4.961-31.06 11.632-42.764 11.632-1.031 0-1.978-.052-2.822-.161-1.788-.232-3.287-.344-4.583-.344-6.25 0-7.717 2.62-13.65 7.089-7.164 5.4-13.025 10.122-22.793 10.122-4.186 0-8.732-.372-12.559-.372-5.104 0-8.932.662-8.932 3.747 0 5.398 1.304 4.046-7.814 8.096-2.758 1.225-5.993 1.585-9.345 1.585-2.392 0-4.844-.184-7.223-.367-2.38-.184-4.687-.367-6.791-.367-2.587 0-4.867.277-6.596 1.173-6.513 3.374-8.467 6.071-9.118 14.169-.651 8.097-9.117 8.097-11.723 8.097-2.604 0-6.512 2.023-7.163 8.77-4.995.432-12.651 1.69-18.206 3.6-1.481-.128-2.83-.225-3.935-.225-6.511 0-11.722 4.048-14.978 11.47-.098.223-.197.436-.3.64A126.78 126.78 0 0 1 0 0" style="fill:#d0c8a8;fill-opacity:1;fill-rule:nonzero;stroke:none" transform="translate(108.06 467.553)"/><path d="M0 0h-379.843v-44.385c1.263-.635 2.344-1.754 3.244-3.554.102-.204.202-.417.3-.64 3.256-7.422 8.466-11.47 14.978-11.47 1.105 0 2.454.097 3.935.225 2.883.25 6.268.618 9.332.618 4.641 0 8.548-.843 8.874-4.217.651-6.748 4.559-8.771 7.163-8.771 2.606 0 11.072 0 11.722-8.097.652-8.097 2.606-10.795 9.118-14.169 1.729-.895 4.009-1.173 6.596-1.173 2.105 0 4.412.184 6.791.367 2.38.184 4.831.367 7.224.367 3.351 0 6.586-.36 9.345-1.585 9.117-4.049 7.814-2.698 7.814-8.096 0-3.085 3.828-3.746 8.931-3.746 3.828 0 8.373.372 12.56.372 9.768 0 15.628-4.723 22.793-10.122 5.933-4.47 7.399-7.09 13.65-7.09 1.295 0 2.795.112 4.583.344.843.109 1.79.161 2.821.161 11.705 0 34.385-6.67 42.764-11.632 9.118-5.397 1.952-13.492 10.419-15.517 3.507-.839 7.014-1.33 10.567-1.33 5.025 0 10.142.982 15.483 3.355 3.7 1.642 8.259 2.396 12.891 2.396 6.782 0 13.723-1.615 18.366-4.421 6.836-4.133 19.652-6.2 29.293-6.2 1.381 0 2.695.043 3.919.127 4.884.337 9.28 1.18 12.618 1.18 3.338 0 5.618-.843 6.268-3.88.508-2.366 3.787-2.99 7.83-2.99 2.254 0 4.744.193 7.126.387 2.381.194 4.653.388 6.467.388 1.467 0 2.636-.127 3.322-.483.392-.203.87-.29 1.422-.29 1.727 0 4.18.858 7.016 1.716 2.836.859 6.054 1.717 9.311 1.717.996 0 1.994-.08 2.987-.265V0" style="fill:#78d2dc;fill-opacity:1;fill-rule:nonzero;stroke:none" transform="translate(487.903 513.948)"/></g><g clip-path="url(#h)" transform="matrix(1.33333 0 0 -1.33333 -144.08 828.964)"><path d="M0 0c-7.164-6.074-9.767-9.447 0-9.447s15.719 2.132 18.886 1.348c13.675-3.373 23.443-1.348 18.885-6.747-4.559-5.398-14.978-3.373-4.559-5.398 10.42-2.023 18.887-2.023 20.188-4.047 1.303-2.024.651-7.422.651-7.422l9.768 1.35c1.954-6.747 6.512-6.072 6.512-6.072s7.815 1.348 10.422-2.025c2.602-3.373 11.068-2.023 11.068-4.722 0-2.7 8.466-5.398 10.421-4.048 1.953 1.348 11.722 15.517 11.722 15.517S91.171 2.023 88.565 2.697c-2.604.676-54.703 12.145-54.703 12.145z" style="fill:#fff;fill-opacity:1;fill-rule:nonzero;stroke:none" transform="translate(406.605 358.09)"/><path d="m0 0 12.373 1.95s1.303-5.848 3.257-6.497c1.953-.652 9.766 1.95 9.766 1.95s5.862-.652 5.862-3.9c0-3.249 2.605-3.249 2.605-3.249s17.582 2.598 17.582-1.3c0-3.898 3.907-5.848 3.907-5.848s22.793 7.148 24.096 3.248c1.303-3.898 4.559-6.497 5.862-8.446 1.302-1.949 28.652-5.847 31.258-7.148 2.605-1.298 5.21 1.301 7.814 1.952 2.605.649 7.163 3.898 9.117 1.946 1.954-1.946 1.302-6.496 5.211-7.145 3.906-.651 16.28 3.247 18.234 3.247 1.953 0 8.465-3.247 8.465-3.247s4.558 3.898 3.907 0c-.651-3.9-7.814-1.3-.651-3.9 7.163-2.599 13.676-1.948 15.628-1.299 1.955.65 6.513 3.247 8.467.65 1.954-2.599 2.605-5.848 2.605-5.848 3.907-2.599 20.188 2.599 20.188 2.599s3.864-4.108 6.511-4.549c3.908-.649 7.815 1.299 7.815 1.299s6.512 2.599 7.163-.65c.652-3.247-.378-5.364.652-8.445 1.302-3.899 3.908-.652 9.117-1.3 5.209-.65 3.908-3.25 4.559-5.198.65-1.95 3.256-3.249 9.767-.651 6.513 2.599 13.025 0 9.77-1.948-3.257-1.95-14.329-3.9-12.373-5.849 1.953-1.948 11.069-1.948 14.325-1.3 3.257.65 3.907-.648 1.303-6.496-2.604-5.848-4.559-9.098 1.303-7.148 5.86 1.95 11.069 1.95 10.419-1.299-.651-3.25 1.304-3.9 12.373-.651 11.071 3.25 15.63 6.497 14.327 1.95-1.303-4.549-11.071-9.097-5.862-9.745 5.21-.65 10.421-1.3 24.096 2.597 13.676 3.901 39.074 7.148 49.493 9.749 10.419 2.596 16.28-.651 12.372-4.551-3.907-3.898-6.512-3.898-7.814-8.445-1.302-4.55 8.466-3.901 8.466-3.901s7.163 6.499 9.116 5.199c1.955-1.298 3.909-.648 1.955-5.199-1.955-4.547-3.908-3.898-1.955-4.547 1.955-.649 3.257-2.599 9.769.649 6.512 3.249 15.629 5.201 14.978 1.95-.651-3.248-4.558-10.396-2.605-9.746 1.954.65 9.769 6.498 11.722 3.249 1.953-3.249.651-50.683.651-50.683s-30.606-1.299-29.305 1.952c1.303 3.247 4.559 6.496 3.256 9.094-1.302 2.6-1.302 2.6-7.813 1.95-6.513-.649-9.769 1.948-11.073 8.448-1.301 6.496-9.117 8.445-16.93 7.795-7.815-.649-31.258.65-29.306 3.9 1.954 3.248-11.721 1.948-18.234-1.3-6.511-3.249-42.98-12.346-36.466-2.6 6.511 9.746 14.977 12.997 18.233 16.245 3.256 3.249-3.908.65-9.118 3.249-5.209 2.599-1.953 1.95-1.953 6.497 0 4.55-1.953 2.6-9.117 2.6-7.164 0-12.374 0-8.465 3.899 3.906 3.898 1.301 3.898-7.816 2.598-9.117-1.298-11.722 1.3-9.117 5.85 2.606 4.547 1.303 7.794-7.815 5.197-9.116-2.599-18.885.651-18.885.651 1.954 5.846-3.906 12.993-10.419 12.343-6.513-.65-18.884-3.897-16.932 2.599 1.955 6.499-2.605 2.6-11.721 2.6-9.118 0-21.49-1.3-20.188 6.498 1.303 7.798-1.954 7.798-11.07 5.198-9.118-2.601-20.839-3.249-22.143 1.949-1.302 5.197-7.163 5.197-13.675 3.249-6.512-1.949-10.419 0-20.188 4.547-9.768 4.549-9.117 6.497-24.094 5.848-14.979-.649-25.398-.649-25.398 6.499 0 7.147-19.536 3.899-22.141 6.497-2.605 2.6-16.933 0-18.234 4.548-1.302 4.548-3.907 9.099-7.815 7.147-3.907-1.948-13.675-4.547-13.675 0C-.651-5.847 0 0 0 0" style="fill:#def3ec;fill-opacity:1;fill-rule:nonzero;stroke:none" transform="translate(87.51 479.612)"/><path d="M0 0c0-15.538-47.78-28.132-106.718-28.132S-213.436-15.538-213.436 0c0 15.537 47.78 28.131 106.718 28.131S0 15.537 0 0" style="fill:#f79952;fill-opacity:1;fill-rule:nonzero;stroke:none" transform="translate(294.268 328.228)"/><path d="M0 0c0-6.755-19.14-12.232-42.749-12.232-23.608 0-42.747 5.477-42.747 12.232 0 6.755 19.139 12.231 42.747 12.231C-19.14 12.231 0 6.755 0 0" style="fill:#f79952;fill-opacity:1;fill-rule:nonzero;stroke:none" transform="translate(351.632 333.12)"/><path d="M0 0c2.889.241 22.863.481 24.307 0 1.445-.482 10.108-.241 10.108-.241l11.552-.962 3.611-1.203s-9.386-.722-11.792-.241c-2.409.48-12.757.48-12.757.48s-8.181 0-9.866-.239c-1.686-.241-4.573-1.445-5.536-.963-.963.481-10.831.722-11.552.722C-2.646-2.647 0 0 0 0" style="fill:#def3ec;fill-opacity:1;fill-rule:nonzero;stroke:none" transform="translate(320.001 484.631)"/><path d="M0 0c13.866 12.232 50.182 24.491 65.43 15.511 7.665 8.284 30.25 24.887 44.591 20.216 2.08 9.376 18.892 29.717 36.798 35.81-30.978 10.154-69.371 6.769-81.955-7.785-33.717 13.371-76.307-1.692-94.891-24.029-26.488 3.388-49.172-14.726-55.304-27.08 17.74 4.231 30.161-2.538 32.743-11.339C-31.937 11.459-8.392 7.832 0 0" style="fill:#fccb06;fill-opacity:1;fill-rule:nonzero;stroke:none" transform="translate(207.333 432.517)"/><path d="M0 0c2.538 5.631 14.458 21.635 30.905 21.744 16.447.111 25.167-4.856 29.36-8.498 4.194-3.643 18.654-34.437 13.686-46.248-4.966-11.808-15.012-20.417-22.517-22.736-7.504-2.319-16.333-2.43-16.776-2.319C34.216-57.946.773-40.174-.33-35.65c-1.104 4.526-4.414 19.098-3.863 20.751C-3.641-13.245 0 0 0 0" style="fill:#fff200;fill-opacity:1;fill-rule:nonzero;stroke:none" transform="translate(295.035 386.838)"/><path d="M0 0c9.822.552 45.913 12.803 53.199 18.101C56.622 0 53.09-19.537 41.059-29.581c-14.57.553-24.613 3.645-32.341 12.915C.992-7.394 0 0 0 0" style="fill:#ed1c24;fill-opacity:1;fill-rule:nonzero;stroke:none" transform="translate(292.387 357.92)"/><path d="M0 0c.551 7.616-1.216 30.684-19.316 31.126 4.857 1.766 17.108-.221 24.173-4.856 7.062-4.637 14.567-12.584 15.782-16.115C21.853 6.622 9.381.994 8.387.883 7.394.774-.442-1.215-.442-1.215Z" style="fill:#ed1c24;fill-opacity:1;fill-rule:nonzero;stroke:none" transform="translate(346.03 377.236)"/><path d="M0 0c-18.84-6.359-50.134-21.14-65.37-40.389-15.237-19.25-22.135-35.21-23.847-49.316 12.214 15.113 26.904 26.781 56.914 27.736 12.972 18.486 53.51 38.44 95.008 24.681 13.153 11.335 37.402 15.46 58.209 12.195 20.807-3.266 24.924-5.144 24.924-5.144C139.1-20.109 113.215.344 83.887 4.813 54.561 9.281 23.756 7.046 0 0" style="fill:#fff200;fill-opacity:1;fill-rule:nonzero;stroke:none" transform="translate(209.61 534.209)"/><path d="M0 0c-10.809-9.109-30.038-26.832-32.303-61.969 13.136 13.501 24.605 24.156 48.362 27.423 23.756 3.266 41.124-.172 47.349-2.922C52.758-13.75 37.193 1.547 19.498 4.469 3.77 1.375 0 0 0 0" style="fill:#ed1c24;fill-opacity:1;fill-rule:nonzero;stroke:none" transform="translate(209.61 534.209)"/><path d="M0 0c.979 12.456 6.305 31.072 10.66 36.825 10.809 1.186 11.745 1.019 11.745 1.019 6.323 9.475 21.167 20.137 37.782 24.198-3.711-11.339-9.703-49.488-7.755-63.921C34.053 7.04 19.345 8.53 0 0" style="fill:#d1181f;fill-opacity:1;fill-rule:nonzero;stroke:none" transform="translate(154.901 434.396)"/><path d="M0 0c7.744-9.646 18.064-26.077 24.277-52.809 10.569 12.701 28.116 22.144 44.591 20.215-7.079 21.763-18.049 32.593-27.89 38.01-8.39-1.185-15.261-5.632-17.15-9.333C14.842-.677 7.744.17 0 0" style="fill:#d1181f;fill-opacity:1;fill-rule:nonzero;stroke:none" transform="translate(248.486 500.837)"/><path d="M0 0c10.746 4.086 29.21 3.631 47.676-12.563C35.415-26.487 9.233-35.264-4.236-31.936-7.566-22.855-6.053-6.51 0 0" style="fill:#00adef;fill-opacity:1;fill-rule:nonzero;stroke:none" transform="translate(296.292 388.07)"/><path d="M0 0c-.703 15.364-10.71 23.267-19.667 26.69 4.828 3.336 18.349 10.8 17.384 17.209 6.674-7.902 8.342-19.93 7.639-25.989C4.653 11.852 2.634 3.338 0 0" style="fill:#00adef;fill-opacity:1;fill-rule:nonzero;stroke:none" transform="translate(366.001 349.088)"/><path d="M0 0c0-4.359-3.336-7.893-7.45-7.893-4.115 0-7.45 3.534-7.45 7.893s3.335 7.891 7.45 7.891C-3.336 7.891 0 4.359 0 0" style="fill:#f6882d;fill-opacity:1;fill-rule:nonzero;stroke:none" transform="translate(352.982 375.416)"/><path d="M0 0c-.492 1.032-1.624.934-2.164 1.325-.541.397-8.803 3.151-8.706 4.626.099 1.476 4.82 3.049 7.034 3.738 2.212.689 4.082.934 4.082 1.18 0 .246 2.95 8.411 3.837 8.608.884.196 4.326-.542 5.409-.934 1.083-.395 5.95-3.838 6.591-4.526.64-.689 8.952 2.361 10.673 2.756 1.721.393 3.689-.25 3.738-.739.048-.492-3.935-7.279-4.378-8.411-.442-1.132.934-1.231 1.476-1.573.541-.344 7.723-4.426 7.378-6.492-.344-2.068-1.378-2.312-2.607-2.805-1.229-.491-10.769.687-11.902.737-1.132.05-3.688.642-3.935.296-.247-.345-12.395-8.114-13.576-8.803-1.18-.689-4.279-1.673-4.574-1.132-.295.541-1.131 2.85-.786 4.28.343 1.426 2.213 6.295 2.263 6.687L0 0" style="fill:#f03e90;fill-opacity:1;fill-rule:nonzero;stroke:none" transform="translate(413.299 340.24)"/><path d="M0 0c-3.939 2.25-8.44 6.471-8.44 9.285 0 2.811 1.828 7.032 5.204 8.296 3.376 1.266 6.329.704 8.58 1.127 2.252.422 5.063 1.828 6.048 3.374.986 1.548 3.235 5.488 4.36 5.206 1.127-.281 13.081-4.922 14.067-5.345.985-.423 2.671-2.954.843-5.346-1.827-2.391-1.686-3.797-.42-5.203 1.264-1.407 3.657-5.629 3.376-7.737-.282-2.111-.282-4.501-3.517-6.33-3.235-1.828-11.254-2.531-12.098-2.531-.843 0-9.846 2.111-10.689 2.391C6.469-2.531 0 0 0 0" style="fill:#fff870;fill-opacity:1;fill-rule:nonzero;stroke:none" transform="translate(152.623 366.475)"/><path d="M0 0c-.804-.268-42.837.536-42.837.536s-.269 8.834 1.07 17.134c.943 5.849 6.005 23.263 10.977 37.442 2.083 5.943 4.15 11.318 5.889 15.035C-19.01 82.731-8.835 97.992.802 100.668 1.069 91.299.267 56.76.267 55.957V13.654Z" style="fill:#fffaa1;fill-opacity:1;fill-rule:nonzero;stroke:none" transform="translate(427.894 486.713)"/><path d="m0 0 .536 84.338s9.371-13.387 11.513-16.601c2.14-3.212 10.976-37.215 11.778-41.231.805-4.016 4.284-24.898 3.214-25.702C25.97 0 23.025 0 22.221-.268 21.418-.534 0 0 0 0" style="fill:#f46b17;fill-opacity:1;fill-rule:nonzero;stroke:none" transform="translate(431.374 486.445)"/><path d="M0 0c0 .803 5.355 10.174 5.355 10.174l41.23.268s.803-10.708 0-10.978c-.803-.269-27.041-.534-27.041-.534Z" style="fill:#fff;fill-opacity:1;fill-rule:nonzero;stroke:none" transform="translate(408.082 468.507)"/><path d="m0 0-4.818 9.906v8.299l6.158-1.339 11.78-6.425 28.379.267 44.444-.267s.804-3.213.536-4.015L77.108-4.551H8.835Z" style="fill:#fff;fill-opacity:1;fill-rule:nonzero;stroke:none" transform="translate(394.962 458.066)"/><path d="M0 0c2.142-1.873 11.511-7.765 14.726-8.567 3.213-.803 75.5 0 75.5 0s.809 3.48.271 3.214c-.537-.271-68.81-.538-68.81-.538L8.567-1.607.803 2.409Z" style="fill:#ed192e;fill-opacity:1;fill-rule:nonzero;stroke:none" transform="translate(390.408 473.86)"/><path d="M0 0c.534 3.212.534 6.159 4.818 6.694 4.285.534 7.764-.803 8.032-2.945.269-2.142.269-5.624-1.339-6.695-1.605-1.07-6.424-1.339-8.031-1.339C1.873-4.285 0 0 0 0" style="fill:#855333;fill-opacity:1;fill-rule:nonzero;stroke:none" transform="translate(456.54 460.741)"/><path d="M0 0c0 1.607.803 1.875 2.409 1.875 1.607 0 2.41-.268 2.143-1.339-.268-1.07-.536-2.409-2.409-2.409C.268-1.873 0 0 0 0" style="fill:#fff;fill-opacity:1;fill-rule:nonzero;stroke:none" transform="translate(461.09 461.812)"/><path d="M0 0c0-1.745-1.796-3.159-4.014-3.159-2.215 0-4.013 1.414-4.013 3.159 0 1.743 1.798 3.156 4.013 3.156C-1.796 3.156 0 1.743 0 0" style="fill:#bae9fb;fill-opacity:1;fill-rule:nonzero;stroke:none" transform="translate(433.349 473.317)"/><path d="M0 0c0-1.745-1.797-3.159-4.015-3.159-2.215 0-4.013 1.414-4.013 3.159 0 1.743 1.798 3.156 4.013 3.156C-1.797 3.156 0 1.743 0 0" style="fill:#bae9fb;fill-opacity:1;fill-rule:nonzero;stroke:none" transform="translate(447.958 473.317)"/><path d="M0 0h6.844L4.606-5.397h-8.028z" style="fill:#bae9fb;fill-opacity:1;fill-rule:nonzero;stroke:none" transform="translate(413.214 476.079)"/><path d="M0 0c3.286-1.378 8.154-4.135 8.154 0-5.258 25.507-28.566 165.462-28.566 165.462s-9.201 2.758-9.201-2.068C-29.613 158.569 0 0 0 0" style="fill:#d5d4d5;fill-opacity:1;fill-rule:nonzero;stroke:none" transform="translate(257.985 334.86)"/><path d="M0 0c-.278.555-.556 5.969-.556 5.969S3.47.417 4.718.972c.457.203 10.551 2.637 10.551 2.637L6.385-2.776l9.993-3.886L3.331-4.859l-8.329-9.022S-.556-3.886-.972-4.025c-.417-.139-8.745 2.082-8.745 2.082z" style="fill:#fddfcb;fill-opacity:1;fill-rule:nonzero;stroke:none" transform="translate(421.402 348.708)"/><path d="M0 0h30.622v-14.377H-5.415A9095.588 9095.588 0 0 0 0 0" style="fill:#fff200;fill-opacity:1;fill-rule:nonzero;stroke:none" transform="translate(397.574 544.976)"/><path d="M0 0h39.397v-5.789l-41.264-.56C.081-4.545 3.858 0 3.858 0" style="fill:#fff200;fill-opacity:1;fill-rule:nonzero;stroke:none" transform="translate(388.238 513.236)"/><path d="M0 0c-1.572-.143-12.574-7.859-12.574-7.859s2.428-1.999 3-1.999c.572 0 8.573 7.285 8.573 7.285L1.285-.287z" style="fill:#f8a037;fill-opacity:1;fill-rule:nonzero;stroke:none" transform="translate(163.116 382.107)"/><path d="m0 0-6.572-11.147 2.43-1.141L1.143-.43z" style="fill:#f8a037;fill-opacity:1;fill-rule:nonzero;stroke:none" transform="translate(168.687 379.965)"/><path d="m0 0-.286-10.572 4.001 1.287L1 .287Z" style="fill:#f8a037;fill-opacity:1;fill-rule:nonzero;stroke:none" transform="translate(174.545 378.676)"/><path d="M0 0c6.017 0 30.083-.481 33.453.241 3.369.722 5.054-.482 6.738.241 1.685.722 5.537 1.203 6.98.962 1.443-.24 2.405-1.203 1.924-2.166-.481-.962 6.017-.721 10.83-1.203 4.814-.481 2.649-1.203 9.627-.963 6.98.241 8.904 2.166 17.328-.24 8.423-2.407 11.792-2.646 15.644-2.646 3.85 0 10.588-.964 3.128-1.204-7.461-.241-23.105.962-27.677.481-4.573-.481-11.792.24-17.327 0-5.535-.241-26.232-.962-30.805-.481s-16.847.24-21.901.24c-5.053 0-12.515.241-15.644.481-3.128.241-12.033 1.443-12.033 1.443l-11.551 1.445s5.294 2.407 9.145 2.166C-18.29-1.443 0 0 0 0" style="fill:#def3ec;fill-opacity:1;fill-rule:nonzero;stroke:none" transform="translate(356.101 457.917)"/><path d="M0 0c-4.091 0-31.045.241-31.045.241l-12.997.481s-1.683-.481-2.406.241c-.722.721 7.941 2.165 10.829 1.924 2.888-.24 6.74 0 6.74 0l7.219 1.204 4.814.723s4.572-.965 6.497-.723c1.926.241 5.776-.482 7.221-.242 1.444.242 4.57 1.445 5.775.483C3.852 3.369 5.054.481 5.054.481Z" style="fill:#def3ec;fill-opacity:1;fill-rule:nonzero;stroke:none" transform="translate(513.736 490.408)"/><path d="M0 0c5.535.722 16.125.481 17.809.481 1.685 0 6.258-.24 8.424-.24 2.165 0 7.44-.352 8.663-.241 2.647.241 3.851.241 8.905-.241 5.054-.482 6.016-.722 7.46-.722s-3.609-.481-7.941-.24c-4.333.24-4.814-.722-8.905-.482-4.091.241-6.739-.721-10.349-.482-3.61.242-8.182.242-11.07.482-2.889.241-6.739 0-7.942 0H0C-.963-1.685 0 0 0 0" style="fill:#def3ec;fill-opacity:1;fill-rule:nonzero;stroke:none" transform="translate(103.164 502.44)"/><path d="M0 0c1.942 1.554 6.216 3.107 6.216 3.107l5.826 3.109s.776-1.555 3.497-1.555c2.72 0-.387 1.166 2.72 0 3.107-1.165-6.215 1.942 0 0 6.214-1.943 7.332-2.331 8.934-2.331h3.497s3.883.388 5.049.388c1.166 0 2.719-.388 3.885-.388s.388-3.107.388-3.107l-6.215-.388-4.274-.389H-1.165Z" style="fill:#def3ec;fill-opacity:1;fill-rule:nonzero;stroke:none" transform="translate(468.856 453.515)"/><path d="M0 0c4.661 0 28.94-1.749 30.688 0 1.749 1.749-3.884 1.555-5.827 1.555-1.942 0-5.049.777-6.214.388-1.166-.388-7.381.388-7.381.388l-8.158-.776S-1.554.777-3.496.777C-5.438.777-7.769 0-7.769 0-5.05-.388 0 0 0 0" style="fill:#def3ec;fill-opacity:1;fill-rule:nonzero;stroke:none" transform="translate(350.761 513.339)"/><path d="M0 0c3.494 0 21.703-1.312 23.015 0 1.311 1.312-2.913 1.166-4.369 1.166-1.458 0-3.787.583-4.662.291-.874-.291-5.535.291-5.535.291l-6.12-.582S-1.166.583-2.623.583C-4.079.583-5.829 0-5.829 0-3.788-.291 0 0 0 0" style="fill:#def3ec;fill-opacity:1;fill-rule:nonzero;stroke:none" transform="translate(465.36 514.698)"/><path d="M0 0c3.495 0 21.703-1.312 23.015 0 1.311 1.312-2.913 1.166-4.37 1.166-1.457 0-3.786.583-4.66.291-.874-.291-5.536.292-5.536.292L2.33 1.166S-1.166.583-2.623.583C-4.079.583-5.828 0-5.828 0-3.788-.291 0 0 0 0" style="fill:#def3ec;fill-opacity:1;fill-rule:nonzero;stroke:none" transform="translate(138.66 515.475)"/><path d="M0 0c25.552 6.963 101.773 17.138 152.101-27.113-12.393 22.936-49.894 34.076-67.48 36.165C67.033 11.14 28.207 13.576 0 0" style="fill:#fff;fill-opacity:1;fill-rule:nonzero;stroke:none" transform="translate(202.05 531.167)"/><path d="M0 0c23.39 12.993 59.772.372 59.401-38.239C52.346 4.084 14.48 8.167-7.796-5.197-2.227.743 0 0 0 0" style="fill:#fff;fill-opacity:1;fill-rule:nonzero;stroke:none" transform="translate(312.546 403.044)"/><path d="m0 0-19.593 114.109c5.825 3.055 17.702 2.585 26.218-.941 11.204 14.338 33.163 24.446 44.59 20.215 5.826 15.749 23.079 34.553 38.093 35.728-23.305 31.029-75.513 46.073-135.565 33.145-60.052-12.928-95.456-60.643-99.488-92.613 6.497 4.936 28.681 2.35 34.507-10.108 10.979 4.231 31.594 10.344 52.432-1.879 12.772 11.987 28.681 14.809 30.25 15.278L-8.291-2.35" style="fill:none;stroke:#231f20;stroke-width:2.202;stroke-linecap:round;stroke-linejoin:round;stroke-miterlimit:10;stroke-dasharray:none;stroke-opacity:1" transform="translate(266.139 334.86)"/><path d="M0 0c-9.188 6.346-67.446 11.988-81.787-6.817-25.544 10.814-79.098.471-95.008-24.681-25.993-.235-44.814-9.168-56.017-27.266" style="fill:none;stroke:#231f20;stroke-width:1.713;stroke-linecap:round;stroke-linejoin:round;stroke-miterlimit:10;stroke-dasharray:none;stroke-opacity:1" transform="translate(354.101 503.738)"/><path d="m0 0-8.962 51.241" style="fill:none;stroke:#231f20;stroke-width:1.713;stroke-linecap:round;stroke-linejoin:round;stroke-miterlimit:10;stroke-dasharray:none;stroke-opacity:1" transform="translate(237.583 447.794)"/><path d="m0 0-9.636 50.772" style="fill:none;stroke:#231f20;stroke-width:1.713;stroke-linecap:round;stroke-linejoin:round;stroke-miterlimit:10;stroke-dasharray:none;stroke-opacity:1" transform="translate(246.546 448.969)"/><path d="M0 0v-107.172" style="fill:none;stroke:#231f20;stroke-width:1.713;stroke-linecap:round;stroke-linejoin:round;stroke-miterlimit:10;stroke-dasharray:none;stroke-opacity:1" transform="translate(428.414 587.406)"/><path d="M0 0c-5.279 0-40.162.688-41.997.688-1.835 0-1.376 1.369-1.376 4.36 0 13.77 13.309 79.864 43.604 95.928" style="fill:none;stroke:#231f20;stroke-width:1.713;stroke-linecap:round;stroke-linejoin:round;stroke-miterlimit:10;stroke-dasharray:none;stroke-opacity:1" transform="translate(428.184 486.43)"/><path d="M0 0v83.076c14.918-7.573 26.393-63.11 26.393-81.24C26.393 0 22.722 0 22.032 0Z" style="fill:none;stroke:#231f20;stroke-width:1.713;stroke-linecap:round;stroke-linejoin:round;stroke-miterlimit:10;stroke-dasharray:none;stroke-opacity:1" transform="translate(431.625 486.66)"/><path d="M0 0c.231.688 5.05 9.869 5.05 9.869h41.309V-.23" style="fill:none;stroke:#231f20;stroke-width:1.713;stroke-linecap:round;stroke-linejoin:round;stroke-miterlimit:10;stroke-dasharray:none;stroke-opacity:1" transform="translate(408.677 469.218)"/><path d="M0 0c-1.836 2.754-6.196 14.229-5.738 17.211.46 2.984 8.95-3.212 13.082-5.047 4.131-1.836 8.033-2.295 16.524-2.295h61.043c1.378 0 1.378-2.984 1.378-2.984S81.011-.23 80.322-.688" style="fill:none;stroke:#231f20;stroke-width:1.713;stroke-linecap:round;stroke-linejoin:round;stroke-miterlimit:10;stroke-dasharray:none;stroke-opacity:1" transform="translate(395.367 458.202)"/><path d="M0 0c0 2.789.993 5.39 6.271 5.39 5.281 0 6.388-1.501 6.388-5.861 0-4.361-2.943-5.385-5.928-5.385C.686-5.856 0-2.754 0 0Z" style="fill:none;stroke:#231f20;stroke-width:1.713;stroke-linecap:round;stroke-linejoin:round;stroke-miterlimit:10;stroke-dasharray:none;stroke-opacity:1" transform="translate(456.565 461.992)"/><path d="M0 0c0 .785.271 1.517 1.7 1.517 1.432 0 1.733-.421 1.733-1.649 0-1.227-.798-1.516-1.608-1.516C.187-1.648 0-.775 0 0Z" style="fill:none;stroke:#231f20;stroke-width:1.223;stroke-linecap:round;stroke-linejoin:round;stroke-miterlimit:10;stroke-dasharray:none;stroke-opacity:1" transform="translate(461.542 462.21)"/><path d="M0 0c0-22.201-17.996-40.198-40.195-40.198-22.201 0-40.196 17.997-40.196 40.198 0 22.197 17.995 40.194 40.196 40.194C-17.996 40.194 0 22.197 0 0Z" style="fill:none;stroke:#231f20;stroke-width:2.202;stroke-linecap:round;stroke-linejoin:round;stroke-miterlimit:10;stroke-dasharray:none;stroke-opacity:1" transform="translate(371.023 368.754)"/><path d="M0 0a7.699 7.699 0 0 0-7.698-7.698 7.699 7.699 0 0 0 0 15.396A7.697 7.697 0 0 0 0 0Z" style="fill:none;stroke:#fff;stroke-width:2.446;stroke-linecap:round;stroke-linejoin:round;stroke-miterlimit:10;stroke-dasharray:none;stroke-opacity:1" transform="translate(353.234 374.91)"/><path d="M0 0c-2.313.258-14.155-9.876-17.447-10.205-3.293-.329-2.484 5.519 0 10.533 1.042 2.107.329 2.306-.989 2.964-1.316.659-9.875 1.975-9.546 4.609.329 2.633 8.889 4.279 11.194 4.609.657 5.266 2.304 8.23 3.949 8.888 1.645.659 9.877-2.632 11.852-5.596 4.609.987 12.509 4.28 14.156 2.964 1.646-1.317-2.634-6.586-3.951-8.232-1.317-1.645-.987-1.974 1.317-2.962 2.304-.986 9.218-4.28 6.584-7.244C14.486-2.634 2.963-.33 0 0Z" style="fill:none;stroke:#231f20;stroke-width:2.202;stroke-linecap:round;stroke-linejoin:round;stroke-miterlimit:10;stroke-dasharray:none;stroke-opacity:1" transform="translate(430.49 338.247)"/><path d="M0 0c2.638 0 2.92 7.089 6.673 5.84 3.753-1.252 13.761-3.337 14.178-6.674.417-3.337-1.252-4.586-2.919-5.421 7.922-6.255 10.008-12.927 1.667-16.681-8.339-3.753-14.595-3.336-23.352-.416-8.757 2.919-16.838 8.807-12.927 15.847C-14.595-3.752-2.502 0 0 0Z" style="fill:none;stroke:#231f20;stroke-width:2.202;stroke-linecap:round;stroke-linejoin:round;stroke-miterlimit:10;stroke-dasharray:none;stroke-opacity:1" transform="translate(162.041 386.951)"/></g></svg>