<svg xmlns="http://www.w3.org/2000/svg" viewBox="0 0 106.498 71.341"><defs><clipPath id="clip-path"><path class="cls-1" d="M27.967 30.505h12.287v3.888H27.967z"/></clipPath><clipPath id="clip-path-2"><path class="cls-1" d="M29.452 43.216h8.576v8.862h-8.576z"/></clipPath><clipPath id="clip-path-3"><path class="cls-1" d="M31.64 33.485h4.638v11.109H31.64z"/></clipPath><clipPath id="clip-path-4"><path class="cls-1" d="M26.354 65.851Zm-2.926 0Zm-1.161 0Zm-2.926 0Zm-1.161 0Zm-4.716-.01-.587.478v4.431l81.125.059V66.26l-.411-.359-65.97-.05H14.094v-.01Z"/></clipPath><clipPath id="clip-path-5"><path class="cls-1" d="M12.877 65.841h81.125v4.968H12.877z"/></clipPath><clipPath id="clip-path-6"><path class="cls-1" d="M5.823 45.488h5.507v25.501H5.823z"/></clipPath><clipPath id="clip-path-7"><path class="cls-1" d="M95.207 45.488h5.508v25.501h-5.508z"/></clipPath><style>.cls-1,.cls-41,.cls-42,.cls-44{fill:none}.cls-2{fill:#fde2d8}.cls-3{fill:#f9c2c6}.cls-4{fill:#333132}.cls-6{fill:#ef569f}.cls-7{fill:#ffea00}.cls-9{fill:#fff799}.cls-10{fill:#fff}.cls-17{fill:#73b8e1}.cls-20{fill:#f8e0d8}.cls-26{fill:#f15a29}.cls-27{fill:#662d91}.cls-28{fill:#39b54a}.cls-32{fill:#9c5b3f}.cls-33{fill:#9c583f}.cls-37{fill:#da8161}.cls-38{fill:#d97f5f}.cls-39{fill:#fbd9e8}.cls-41,.cls-42,.cls-44{stroke:#231f20;stroke-linecap:round;stroke-linejoin:round}.cls-41{stroke-width:.539px}.cls-42{stroke-width:.646px}.cls-43{fill:#231f20}.cls-44{stroke-width:.359px}</style></defs><g id="Layer_2" data-name="Layer 2"><g id="Layer_1-2" data-name="Layer 1"><path class="cls-2" d="M75.82 13.25s-6.582.669-6.749.865-4.658 7.278-4.658 7.278 3.263 7.14 3.486 7.391c0 0 2.901 3.291 2.929 3.403a45.453 45.453 0 0 0 4.127 2.342c.168 0 5.048-4.434 5.216-4.685s3.709-5.773 3.793-6.024a.181.181 0 0 0 .004-.042v-.031c-.014-.812-1.016-7.602-1.176-7.708-.167-.112-6.972-2.789-6.972-2.789"/><path class="cls-3" d="M71.957 25.953a1.183 1.183 0 1 1-1.177-1.07 1.127 1.127 0 0 1 1.177 1.07M79.146 25.953a1.183 1.183 0 1 1-1.177-1.07 1.127 1.127 0 0 1 1.177 1.07"/><path class="cls-4" d="m67.698 32.545.363.474a4.741 4.741 0 0 0 1.534-.641l-.028-.67 2.147-1.088a11.721 11.721 0 0 1-2.984-3.29 3.261 3.261 0 0 1-2.175-2.176c1.366.14 1.813-.028 1.7-.14-.055-2.342.28-4.461.782-5.186a7.383 7.383 0 0 1 2.147-1.59 4.396 4.396 0 0 0 1.506-1.896c-.753-.642-1.311-.698-1.534-1.228a6.197 6.197 0 0 0-.53-.977 8.74 8.74 0 0 0-3.346.28c-1.172.502-3.124 1.144-3.737 2.817a15.632 15.632 0 0 0-1.005 5.885c.224 1.31.558 3.542 1.562 4.852s2.148 3.096 2.287 3.234 1.31 1.34 1.31 1.34M81.01 32.545l-.363.474a4.73 4.73 0 0 1-1.534-.641l.028-.67-2.147-1.088a11.721 11.721 0 0 0 2.984-3.29 3.261 3.261 0 0 0 2.175-2.176c-1.366.14-1.813-.028-1.7-.139.055-2.343-.28-4.462-.782-5.187a7.374 7.374 0 0 0-2.148-1.59 4.393 4.393 0 0 1-1.505-1.896c.753-.642 1.31-.698 1.533-1.228a6.154 6.154 0 0 1 .53-.976 8.74 8.74 0 0 1 3.347.279c1.171.502 3.124 1.144 3.737 2.817a15.63 15.63 0 0 1 1.004 5.885c-.223 1.31-.557 3.542-1.562 4.852s-2.147 3.096-2.287 3.235-1.31 1.339-1.31 1.339"/><path d="M72.132 57.644c-.14.056-9.148.781-9.148.781s-1.59.976-2.37 1.339-3.208 1.087-4.407-.335a6.183 6.183 0 0 1-1.645-5.271c.362-2.231 2.426-5.076 3.653-6.637s3.124-3.654 3.43-4.937 1.339-5.885 2.399-7a10.25 10.25 0 0 1 3.737-2.454 12.992 12.992 0 0 1 3.263-.837c.112.028 1.896 2.287 1.896 2.287l4.045-.084 2.203-1.924c1.589.558 3.04.558 3.905 1.478a10.836 10.836 0 0 1 2.704 4.713c.837 2.65 1.144 4.434 2.232 5.856s4.07 5.076 4.797 6.275a9.837 9.837 0 0 1 1.478 4.714 5.233 5.233 0 0 1-1.45 3.458c-.893.809-.893 1.367-2.287 1.143a19.32 19.32 0 0 1-4.936-2.007c-.782-.503-13.5-.558-13.5-.558" style="fill:#f6afce"/><path class="cls-6" d="M64.573 60.963h19.61a5.838 5.838 0 0 0 1.642-2.566c-1.617-1.311-5.884-4.88-6.804-6.47a20.845 20.845 0 0 1-1.674-3.653 4.567 4.567 0 0 1-2.231-1.34 8.523 8.523 0 0 1-.42-1.394l-.445.447-.53-.447-.028 1.004-.334.809-1.367.586-.697.335a20.526 20.526 0 0 1-1.45 3.039 35.184 35.184 0 0 1-4.881 5.272c-1.31 1.059-2.147 1.756-2.147 1.756l.92 1.702ZM69.454 31.79l2.426-1.142.53.836 1.59 2.51s1.422-1.2 1.729-1.534 1.227-1.84 1.227-1.84 1.2.39 1.339.446a6.041 6.041 0 0 1 1.06.976 18.209 18.209 0 0 1-2.399 3.18 8.485 8.485 0 0 0-3.04-.363c-.139.056-1.505.474-1.617.557-.67-.278-.893-.223-1.004-.362s-1.144-1.674-1.172-1.757l-.669-1.506M70.766 12.52a3.888 3.888 0 0 0 3.15 1.758c1.284-.084 3.794-.558 3.962-1.674-.056 2.092 0 2.705-.92 3.18a5.232 5.232 0 0 1-2.817.753 4.358 4.358 0 0 1-2.622-.921 4.989 4.989 0 0 1-.725-1.701c0-.223-.028-1.394-.028-1.394"/><path class="cls-7" d="m74.251 45.987-9.509-5.744a2.814 2.814 0 0 1 2.621-3.013c.781-1.673 3.32-2.733 4.574-1.757 1.227-.892 4.155-1.31 4.964.196 1.646-.335 3.793.112 4.044 1.896a2.489 2.489 0 0 1 2.204 2.622c-2.76 2.23-6.303 5.159-6.303 5.159Z"/><path class="cls-6" d="m68.312 13.832 1.004.195a5.088 5.088 0 0 0-.084 2.315c.223.558.447.669.753.418s.168-1.338.168-1.757v-.948l.753-.084.418 1.339a14.298 14.298 0 0 1-.363 2.343c-.195.502-.697 1.143-1.422.864s-1.478-.474-1.534-1.59a17.758 17.758 0 0 1 .112-2.51l.195-.697M77.822 13.832l1.004.195a5.102 5.102 0 0 0-.084 2.315c.223.558.446.669.753.418s.168-1.338.168-1.757v-.948l.753-.084.418 1.339a14.276 14.276 0 0 1-.362 2.343c-.195.502-.698 1.143-1.423.864s-1.478-.474-1.534-1.59a17.758 17.758 0 0 1 .112-2.51l.195-.697"/><path d="M74.28 14.223c-1.088-.112-2.622-.334-3.124-1.115a1.33 1.33 0 0 1 .391-2.036c-.781-1.34-2.259-3.486-1.367-3.961s2.147 2.036 2.65 3.152a1.88 1.88 0 0 1 .836-.112c-.306-1.673-.53-4.853.167-5.076s1.228-.194 1.395.726a16.844 16.844 0 0 1-.195 4.21c.586.419.864.363.864.363a23.928 23.928 0 0 1 1.116-2.175c.39-.586 1.171-1.311 1.617-1.116s.252.837-.139 1.73-1.422 2.259-1.394 2.342c.92.67.92 1.367.446 1.953a4.9 4.9 0 0 1-2.343 1.17 2.876 2.876 0 0 1-.92-.055" style="fill:#fff200"/><path class="cls-9" d="M78.017 12.299c1.171-.084 3.096-.251 3.597.223.503.474.391.67-.055.92a26.444 26.444 0 0 1-3.682.614ZM70.822 14.056c-1.06-.056-3.32-.251-3.737-.81s-.474-.92.307-1.06a26.463 26.463 0 0 1 3.346-.138l.167 1.923"/><path class="cls-2" d="M68.814 44.649a13.63 13.63 0 0 1 1.925-1.87.478.478 0 0 1 .64.42c0 .362-.083.64.085.586a3.91 3.91 0 0 1 1.283-.307.673.673 0 0 1 .418.753c-.112.334.25.195.335.446a1.738 1.738 0 0 1 .055.725c-.028.11.279.279.279.279s-.195 1.17-.28 1.394-.807.642-1.031.753-1.701.725-2.342.223a6.831 6.831 0 0 1-1.423-2.063 6.406 6.406 0 0 1 .056-1.34M75.116 46.934a1.89 1.89 0 0 1-.306-1.365c.167-.28.056-.92.223-1.004s.558-.25.586-.334l.139-.753 1.618.307.223-.976a15.804 15.804 0 0 1 1.394.78c.14.14 1.088 1.227 1.088 1.227s-.614 2.093-.809 2.566-.53.558-1.032.614a4.856 4.856 0 0 1-2.398-.307c-.335-.335-.726-.754-.726-.754"/><path class="cls-7" d="M67.588 44.676a7.094 7.094 0 0 0 .697 3.347c.53.725.949 1.395 1.06 1.478a24.576 24.576 0 0 1-4.239 4.964c-1.171 1.06-3.849 3.458-5.745 4.1s-2.371.837-2.901.67a3.311 3.311 0 0 0 3.737.641 43.108 43.108 0 0 0 6.805-5.02 23.347 23.347 0 0 0 3.961-5.41 5.975 5.975 0 0 0 .362-1.367 9.944 9.944 0 0 1-1.84-.586 11.488 11.488 0 0 1-.865-2.845 2.694 2.694 0 0 0-1.032.028M80.92 44.676a7.118 7.118 0 0 1-.697 3.347c-.53.725-.949 1.395-1.06 1.478a24.544 24.544 0 0 0 4.239 4.964c1.171 1.06 3.849 3.458 5.745 4.1s2.371.837 2.9.67a3.311 3.311 0 0 1-3.737.641 43.2 43.2 0 0 1-6.805-5.02 23.366 23.366 0 0 1-3.96-5.41 5.975 5.975 0 0 1-.362-1.367 9.968 9.968 0 0 0 1.84-.586 11.488 11.488 0 0 0 .865-2.845 2.694 2.694 0 0 1 1.032.028"/><path class="cls-10" d="M70.043 43.199c-.112-.028-4.295-3.291-4.38-3.458.364-.614.754-2.344 2.037-2.12a1.835 1.835 0 0 1 .418.39c.782-1.255 2.678-2.928 4.1-2.007.084.362.223.752.223.752 1.395-1.2 3.458-1.73 4.267-.446a3.543 3.543 0 0 1 .112.726c1.673-.503 3.43-.447 3.793.836a4.065 4.065 0 0 0-.112.558c.725-.112 1.98-.42 2.538 1.784.335-.027.168-.307.168-.502a4.6 4.6 0 0 0-.697-1.785 5.54 5.54 0 0 0-1.564-.362c-.417-1.366-3.178-2.733-4.015-1.673-.808-1.562-3.77-1.258-4.632-.476a4.171 4.171 0 0 0-4.766 1.535 3.747 3.747 0 0 0-2.984 3.29c1.7 1.145 5.075 3.376 5.075 3.376Z"/><path class="cls-10" d="m71.967 30.76.251.614c-.893.418-2.203.948-2.231 1.031.167.782-.056 1.005-.056 1.005a5.357 5.357 0 0 0-2.12.725 6.965 6.965 0 0 0-3.29 3.012 29.031 29.031 0 0 0-1.59 4.936c-.474 1.757-1.395 2.677-2.734 4.462s-3.067 3.737-3.792 6.666a13.082 13.082 0 0 0-.028 6.246c-1.367-1.505-2.427-3.123-1.562-5.912a19.873 19.873 0 0 1 3.709-6.108 28.001 28.001 0 0 0 2.984-4.322c.363-1.004 1.032-4.322 1.646-5.633a8.424 8.424 0 0 1 2.621-3.542 12.14 12.14 0 0 1 2.733-1.171 5.62 5.62 0 0 0 1.088-.53l.056-.502 1.366-.781Z"/><path class="cls-10" d="M64.297 44.427a2.058 2.058 0 0 0 1.143.753c.447.056 2.371-.53 3.291-.195a13.184 13.184 0 0 0-2.817-.753c-.223 0-1.617.195-1.617.195M80.055 45.04a6.03 6.03 0 0 1 3.542.28c.948.39 1.199-.112.697-.558a2.301 2.301 0 0 0-2.175-.502 7.854 7.854 0 0 1-1.646.362ZM68.206 14.693a6.19 6.19 0 0 0-2.778 1.878 7.695 7.695 0 0 0-1.957 6.247 21.56 21.56 0 0 0 3.965 9.73c-3.873-5.58-5.256-7.47-5.118-10.329s1.153-5.395 2.213-6.27a7.643 7.643 0 0 1 3.55-1.799c.969-.046.195.121.195.121ZM66.796 49.364a.465.465 0 1 1-.465-.465.465.465 0 0 1 .465.465M67.007 50.8a.719.719 0 1 1-.718-.717.718.718 0 0 1 .718.718M65.613 49.66a.719.719 0 1 1-.718-.718.718.718 0 0 1 .718.718M66.331 47.927a.719.719 0 1 1-.718-.718.718.718 0 0 1 .718.718M68.486 49.829a.719.719 0 1 1-.719-.718.72.72 0 0 1 .72.718M68.106 48.265a.719.719 0 1 1-.719-.718.72.72 0 0 1 .72.718M61.139 49.633a.465.465 0 1 1-.465-.465.465.465 0 0 1 .465.465M61.35 51.07a.719.719 0 1 1-.719-.718.718.718 0 0 1 .719.718M59.956 49.929a.719.719 0 1 1-.718-.718.718.718 0 0 1 .718.718M60.674 48.197a.719.719 0 1 1-.719-.718.718.718 0 0 1 .72.718M62.83 50.098a.719.719 0 1 1-.719-.718.718.718 0 0 1 .718.718M62.449 48.535a.719.719 0 1 1-.718-.718.718.718 0 0 1 .718.718M82.171 49.473a.465.465 0 1 0 .465-.465.465.465 0 0 0-.465.465M81.96 50.91a.719.719 0 1 0 .718-.718.717.717 0 0 0-.718.718M83.354 49.769a.719.719 0 1 0 .718-.718.718.718 0 0 0-.718.718M82.636 48.036a.719.719 0 1 0 .718-.718.719.719 0 0 0-.718.718M80.48 49.938a.719.719 0 1 0 .719-.718.718.718 0 0 0-.718.718M80.861 48.374a.719.719 0 1 0 .718-.718.718.718 0 0 0-.718.718M82.822 35.188a.465.465 0 1 0 .465-.465.465.465 0 0 0-.465.465M83.251 36.474a.719.719 0 1 0 .718-.718.717.717 0 0 0-.717.718M81.458 36.36a.719.719 0 1 0 .718-.72.718.718 0 0 0-.718.72M81.24 34.524a.719.719 0 1 0 .718-.718.719.719 0 0 0-.718.718M65.686 35.188a.465.465 0 1 1-.465-.465.465.465 0 0 1 .465.465M65.257 36.474a.719.719 0 1 1-.72-.718.718.718 0 0 1 .72.718M67.05 36.36a.719.719 0 1 1-.718-.72.718.718 0 0 1 .718.72M67.268 34.524a.719.719 0 1 1-.718-.718.719.719 0 0 1 .718.718M87.556 49.525a.465.465 0 1 0 .465-.465.465.465 0 0 0-.465.465M87.345 50.962a.719.719 0 1 0 .718-.719.717.717 0 0 0-.718.718M88.74 49.82a.719.719 0 1 0 .717-.718.718.718 0 0 0-.718.718M88.021 48.088a.719.719 0 1 0 .719-.718.718.718 0 0 0-.719.718M85.866 49.99a.719.719 0 1 0 .718-.719.718.718 0 0 0-.718.718M86.246 48.426a.719.719 0 1 0 .718-.718.717.717 0 0 0-.718.718M85.442 41.327a.465.465 0 1 0 .465-.465.465.465 0 0 0-.465.465M85.23 42.764a.719.719 0 1 0 .718-.718.718.718 0 0 0-.718.718M83.751 41.792a.719.719 0 1 0 .718-.718.718.718 0 0 0-.718.718M84.131 40.228a.719.719 0 1 0 .718-.717.718.718 0 0 0-.718.717M62.499 41.327a.465.465 0 1 0 .465-.465.465.465 0 0 0-.465.465M62.288 42.764a.719.719 0 1 0 .719-.718.72.72 0 0 0-.72.718M63.682 41.623a.719.719 0 1 0 .718-.718.718.718 0 0 0-.718.718M62.964 39.89a.719.719 0 1 0 .718-.718.717.717 0 0 0-.718.719M61.907 39.51a.719.719 0 1 0 .718.718M73.646 8.983c0-1.718.047-3.553 1.224-3.623-.306-.824-.778-.499-1.037-.285a6.867 6.867 0 0 0-.587 2.261 14.189 14.189 0 0 0 .4 1.647M76.987 8.56c.636-.612 1.318-1.059 1.647-.871s.424-.541.14-.611a1.792 1.792 0 0 0-1.151.258c-.118.165-.636 1.224-.636 1.224M70.823 9.665c-.235-.94-.706-2.258.235-2.07-.118-.73-.659-.753-.8-.518a1.459 1.459 0 0 0-.211 1.294c.234.471.775 1.294.775 1.294"/><path class="cls-2" d="m31.636 16.926-1.639 1.086-2.208 3.224-.588.535c-.196.018-1.122.089-1.176.428a5.143 5.143 0 0 0 .054 1.478 3.855 3.855 0 0 1-.125 1.175c-.022.209-.092.595-.096.93v.056a.916.916 0 0 0 .096.457c.196.303.25.392.677.428.031.002.062.003.094.003a2.732 2.732 0 0 0 .58-.083 2.748 2.748 0 0 1 .414-.084.158.158 0 0 1 .034.003c.125.036.018.588.178.891a14.64 14.64 0 0 0 .82 1.674 8.08 8.08 0 0 1 .658 1.194s.174.073.455.186v-.002l.011.006a27.166 27.166 0 0 0 2.985 1.029 3.335 3.335 0 0 0 .59.078 21.415 21.415 0 0 0 3.01-.37c.261-.088 1.131-.358 1.67-.539a3.893 3.893 0 0 0 1.147-.905c.178-.285.731-1.692.855-1.977.122-.277.277-1.16.432-1.16l.014.002a2.821 2.821 0 0 0 .88.357.311.311 0 0 0 .153-.036 3.039 3.039 0 0 0 .855-1.211 5.19 5.19 0 0 0-.161-1.052c-.035-.213-.302-.587-.16-.801a3.168 3.168 0 0 0 .517-1.069c.003-.036.005-.074.006-.112v-.025c-.003-.318-.112-.689-.22-.736-.125-.053-1.372-.267-1.425-.427s-1.568-2.547-1.568-2.547l-2.44-1.941-5.379-.143"/><path d="M31.672 18.26a3.879 3.879 0 0 1-1.96-.676 2.54 2.54 0 0 1 .125-1.336 5.13 5.13 0 0 1 1.799-1.8c-1.05-.106-5.13-.213-5.22-.266l-.141-1.14.249-.837 5.469-.036.178-2.12.356-.516a2.954 2.954 0 0 1-.517-1.336s-.694-6.823-.623-7.072 1.443-.713 1.55-.73S34.29.199 34.29.199s2.316.748 2.459.837.231.96.213 1.068-.677 6.68-.677 6.68l-.409.623.32.855.125 1.978 5.736.053.124 1.568-.285.339-4.845.16 1.318 1.016a13.301 13.301 0 0 1 .535 1.852c-.018.125-.463.873-.588.873s-4.186.142-4.275.142l-2.369.018" style="fill:#4d4d4f"/><path class="cls-4" d="M29.392 17.62a8.865 8.865 0 0 0-1.14 1.478 13.449 13.449 0 0 0-.534 1.639c-.036.267-.09.855 0 .837a8.557 8.557 0 0 0 2.012-1.247c.196-.338.82-1.211.945-1.46s.338-.606.23-.659-1.157-.374-1.157-.374ZM37.46 18.439a3.14 3.14 0 0 0 .856-.34 5.402 5.402 0 0 1 .713-.515 18.247 18.247 0 0 1 1.068 1.568c.089.142.606 1.62.64 1.798s.197.713-.017.624a9.763 9.763 0 0 1-1.888-.837c-.053-.178-.997-1.32-1.015-1.408l-.303-.516-.053-.374"/><path class="cls-3" d="M31.597 26.905a1.183 1.183 0 1 1-1.177-1.069 1.127 1.127 0 0 1 1.177 1.07M38.786 26.905a1.183 1.183 0 1 1-1.178-1.069 1.127 1.127 0 0 1 1.178 1.07"/><g style="clip-path:url(#clip-path)"><path d="M29.864 30.507c.008.06-1.282 1.297-1.756 1.728a7.227 7.227 0 0 0 3.77 1.888 1.322 1.322 0 0 1 .956-.611c.234 0 .778-.026 1.278-.026a3.958 3.958 0 0 1 .906.068 1.805 1.805 0 0 1 .908.568c.438-.073.823-.154 1.16-.242.454-.14.8-.268.982-.324a11.922 11.922 0 0 0 2.046-1.403 9.247 9.247 0 0 0-1.54-1.61l-.01.004a3.73 3.73 0 0 1-.434.162c-.113.067-.229.134-.349.2a10.158 10.158 0 0 1-3.739.797c-.132 0-.257-.005-.376-.014a5.21 5.21 0 0 1-.806-.151 12.723 12.723 0 0 1-2.985-1.03l-.01-.004" style="fill:#005aaa"/><path d="M38.13 30.71c-.539.18-1.41.45-1.67.537a21.568 21.568 0 0 1-3.01.371 3.345 3.345 0 0 1-.59-.078 5.213 5.213 0 0 0 .806.152c.118.01.244.015.375.015a10.134 10.134 0 0 0 3.74-.799c.12-.065.236-.132.348-.199m-8.266-.204.001.002.01.004-.01-.006" style="fill:#005aa9"/></g><path d="M23.062 57.263c.412-.536 2.185-2.803 2.845-3.504s2.35-2.062 2.721-2.516.824-.989 1.113-.989 8.164-.248 8.164-.248 7.173 6.391 7.173 6.515.248 2.927.165 3.051-.783 1.236-.989 1.195-20.203.083-20.203.083-.907-1.36-.948-1.484-.04-2.103-.04-2.103" style="fill:#0058a9"/><path d="M32.833 43.448c0 .156-.016.538-.029.802.045-.326.152-.771.03-.802m-4.866-11.417s-1.938.907-2.06 1.031-2.228 1.567-2.475 1.69-3.422 3.299-3.587 3.546a19.59 19.59 0 0 0-1.897 2.556c-.04.371 2.97 4.782 2.97 4.782s-2.062 1.979-2.228 2.227-4.329 5.607-4.329 5.607a11.79 11.79 0 0 0-.412 1.278c0 .165 3.546 4.618 3.546 4.618a9.925 9.925 0 0 0 1.566.987 11.473 11.473 0 0 0 2.318.254 1.506 1.506 0 0 0 .156-.006c.33-.041.371-.825.453-1.196a14.437 14.437 0 0 1 1.073-2.142 8.31 8.31 0 0 1 .88-1.125c.683-.863 1.547-1.935 1.965-2.379.115-.123.261-.265.426-.418l.151-.203a12.418 12.418 0 0 1 2.621-2.447c.236-.248.465-.437.636-.437.106 0 1.233-.033 2.617-.076a10.825 10.825 0 0 1 .227-1.246l.165-.289s-1.73.083-1.937.083a2.727 2.727 0 0 1-1.072-.33c-.083-.124-.289-2.391-.289-2.391l.124-.908a25.986 25.986 0 0 1 2.515-1.814l.035-.011c-.05-.838-.406-4.697-.406-5.348 0-.43-.078-1.543-.08-2.434v-.099a3.004 3.004 0 0 1 .121-1.096c.025-.041.052-.082.08-.122a5.447 5.447 0 0 1-1.524-.452c-.289-.165-1.732-.907-1.732-.907l-.618-.454c.03-.024.077-.067.141-.125a1.724 1.724 0 0 1-.14-.204m12.37-.041a2.16 2.16 0 0 0-.224.162 1.054 1.054 0 0 1 .14.208V32.369a7.737 7.737 0 0 1-2.186 1.187 7.157 7.157 0 0 1-.982.323c-.325.1-.707.206-1.124.296a.79.79 0 0 1 .046.08 5.181 5.181 0 0 1 .247 2.267c-.082 1.031-.618 3.917-.659 4.329s-.454 3.175-.454 3.175-.074.333-.363.333a.429.429 0 0 1-.049-.003.373.373 0 0 0-.05-.003 1.554 1.554 0 0 0-.192.016 1.377 1.377 0 0 1 .571.275c.248.206.248.989.248 1.278a5.371 5.371 0 0 0 .082.742 4.374 4.374 0 0 1 .907.66 2.266 2.266 0 0 0 .866.618c.094 0 .332-.191.476-.191a.098.098 0 0 1 .101.068c.048.119.137 1.27.203 2.221.558.497 7.136 6.362 7.136 6.481 0 .034.02.276.045.61a3.854 3.854 0 0 1 .326.338 23.086 23.086 0 0 1 1.485 3.217c.008.04.081.057.193.058h.016c.472-.003 1.59-.265 1.687-.265.124 0 2.474-1.731 2.68-1.855s2.804-3.463 2.886-3.587a.11.11 0 0 0 .011-.058v-.011a6.937 6.937 0 0 0-.547-1.868c-.206-.33-4.04-5.031-4.164-5.195s-1.979-2.516-1.979-2.516l2.433-4.164s-.577-1.649-.701-1.814a39.706 39.706 0 0 0-3.051-3.628 48.644 48.644 0 0 0-6.061-3.793" style="fill:#77bce3"/><path class="cls-17" d="M37.087 33.88c-.338.087-.723.17-1.161.242a.603.603 0 0 1 .036.052c.418-.089.799-.195 1.125-.295m-8.98-1.645a4.26 4.26 0 0 1-.14.126l.618.454s1.443.742 1.732.906a5.412 5.412 0 0 0 1.524.452l.036-.049a7.228 7.228 0 0 1-3.77-1.889m12.007-.082a11.976 11.976 0 0 1-2.046 1.404 7.737 7.737 0 0 0 2.186-1.187v-.005l-.001-.004a.954.954 0 0 0-.14-.208M26.333 53.34a9.138 9.138 0 0 0-.426.419c-.417.444-1.281 1.516-1.964 2.379.71-.816 1.677-1.857 2.39-2.798m3.409-3.086c-.172 0-.401.188-.636.436.38-.274.635-.436.636-.436m2.617-.076c-1.385.043-2.511.076-2.617.076l.865.039a14.238 14.238 0 0 0-.701 2.392c-.164 1.031-.906 4.824-.906 4.989v1.649s4.122-.042 4.246-.042 4.412-.205 4.412-.205l-.042-1.526-.536-3.175-.656-2.469a3.592 3.592 0 0 1-1.015.172h-.024a1.977 1.977 0 0 1-.738-.137c-.906-.371-2.267-.618-2.308-1.237a3.13 3.13 0 0 1 .02-.526m5.584-.138c.049.695.085 1.283.085 1.283s-.317.121-.622.235l.622-.109 1.155.495c.255.109 4.663 3.952 5.94 5.187-.025-.334-.044-.576-.044-.61 0-.119-6.578-5.984-7.136-6.481"/><g style="clip-path:url(#clip-path-2)"><path d="m37.405 51.558-1.026.179.045.169c.232-.071.41-.143.491-.17.097-.033.291-.104.49-.178" style="fill:#f6ddd7"/><path class="cls-20" d="m32.127 43.272-.036.011a26.11 26.11 0 0 0-2.515 1.814l-.123.908s.206 2.267.288 2.391a2.732 2.732 0 0 0 1.072.33c.206 0 1.938-.083 1.938-.083l-.165.29a10.587 10.587 0 0 0-.227 1.245c2.389-.072 5.546-.172 5.546-.172l.038.034c-.067-.95-.156-2.102-.203-2.22a.1.1 0 0 0-.101-.069c-.144 0-.382.191-.477.191a2.263 2.263 0 0 1-.865-.618 4.4 4.4 0 0 0-.907-.66 5.31 5.31 0 0 1-.083-.742c0-.289 0-1.072-.247-1.278a1.375 1.375 0 0 0-.572-.275c-.166.022-.383.063-.607.105a6.163 6.163 0 0 1-.857.12h-.037c-.114-.002-.187-.023-.195-.074a1.06 1.06 0 0 1 .013-.27c.012-.264.028-.646.028-.802l-.7-.04-.006-.128v-.008"/><path class="cls-20" d="M37.905 50.006s-3.157.1-5.547.172a3.24 3.24 0 0 0-.02.527c.042.619 1.402.866 2.309 1.237a1.97 1.97 0 0 0 .738.136h.023a3.63 3.63 0 0 0 1.016-.171l-.045-.17 1.026-.18c.306-.112.623-.233.623-.233s-.037-.589-.085-1.283l-.038-.035"/></g><g style="clip-path:url(#clip-path-3)"><path d="M34.112 33.485c-.5 0-1.044.027-1.279.027a1.322 1.322 0 0 0-.957.611 8.67 8.67 0 0 0 1.867.233c.143 0 .28-.005.41-.016.67-.059 1.258-.133 1.772-.218a1.793 1.793 0 0 0-.907-.569 3.958 3.958 0 0 0-.906-.068" style="fill:#9f7464"/><path d="M31.841 34.173c-.028.04-.055.08-.079.123a2.96 2.96 0 0 0-.122 1.096v.098c.003.89.08 2.004.08 2.434 0 .652.357 4.51.407 5.348a1.207 1.207 0 0 1 .347-.056c.207 0 .359.074.359.232.123.03.016.476-.028.802l-.013.27s1.154-.123 1.402-.165a.659.659 0 0 1 .101-.007.942.942 0 0 1 .193.02 1.57 1.57 0 0 1 .192-.015.363.363 0 0 1 .05.003.432.432 0 0 0 .05.003c.288 0 .362-.333.362-.333s.412-2.763.454-3.175.577-3.298.659-4.33a5.18 5.18 0 0 0-.247-2.266.916.916 0 0 0-.046-.08 9.198 9.198 0 0 1-1.917.219c-.143 0-.286-.004-.43-.013a15.249 15.249 0 0 1-1.774-.208" style="fill:#a17664"/><path d="M35.926 34.122c-.514.086-1.102.16-1.773.218a4.826 4.826 0 0 1-.41.017 8.674 8.674 0 0 1-1.866-.234l-.036.05a15.286 15.286 0 0 0 1.775.208c.143.009.287.013.429.013a9.284 9.284 0 0 0 1.918-.219 1 1 0 0 0-.037-.053" style="fill:#a07564"/><path d="M34.295 44.348a.658.658 0 0 0-.101.007c-.248.042-1.402.165-1.402.165.008.05.081.072.194.074h.038a6.199 6.199 0 0 0 .857-.12c.223-.042.441-.083.607-.105a.956.956 0 0 0-.193-.021m-1.49-.098a.974.974 0 0 0-.013.27l.013-.27m-.331-1.034a1.21 1.21 0 0 0-.347.056v.008l.006.128.7.04c0-.158-.152-.232-.359-.232" style="fill:#a37664"/></g><path class="cls-7" d="M14.093 60.899h1.162v4.953h-1.162z"/><path class="cls-26" d="M15.255 60.899h2.925v4.953h-2.925z"/><path class="cls-7" d="M18.18 60.899h1.162v4.953H18.18z"/><path class="cls-27" d="M19.342 60.899h2.925v4.953h-2.925z"/><path class="cls-7" d="M22.268 60.899h1.161v4.953h-1.161z"/><path class="cls-28" d="M23.429 60.899h2.925v4.953h-2.925z"/><path class="cls-7" d="M26.354 60.899h1.162v4.953h-1.162z"/><path class="cls-26" d="M27.516 60.899h2.925v4.953h-2.925z"/><path class="cls-7" d="M30.441 60.899h1.162v4.953h-1.162z"/><path class="cls-27" d="M31.603 60.899h2.925v4.953h-2.925z"/><path class="cls-7" d="M34.528 60.899h1.162v4.953h-1.162z"/><path class="cls-28" d="M35.69 60.899h2.925v4.953H35.69z"/><path class="cls-7" d="M38.615 60.899h1.161v4.953h-1.161z"/><path class="cls-26" d="M39.776 60.899h2.926v4.953h-2.926z"/><path class="cls-7" d="M42.702 60.899h1.161v4.953h-1.161z"/><path class="cls-27" d="M43.864 60.899h2.925v4.953h-2.925z"/><path class="cls-7" d="M46.788 60.899h1.162v4.953h-1.162zM50.876 60.899h1.161v4.953h-1.161z"/><path class="cls-28" d="M47.951 60.899h2.925v4.953h-2.925z"/><path class="cls-26" d="M52.037 60.899h2.926v4.953h-2.926z"/><path class="cls-7" d="M54.964 60.899h1.161v4.953h-1.161z"/><path class="cls-27" d="M56.125 60.899h2.925v4.953h-2.925z"/><path class="cls-7" d="M59.05 60.899h1.161v4.953H59.05z"/><path class="cls-28" d="M60.212 60.899h2.925v4.953h-2.925z"/><path class="cls-7" d="M63.137 60.899h1.161v4.953h-1.161z"/><path class="cls-26" d="M64.298 60.899h2.926v4.953h-2.926z"/><path class="cls-7" d="M67.224 60.899h1.161v4.953h-1.161z"/><path class="cls-27" d="M68.385 60.899h2.925v4.953h-2.925z"/><path class="cls-7" d="M71.31 60.899h1.162v4.953H71.31z"/><path class="cls-28" d="M72.472 60.899h2.925v4.953h-2.925z"/><path class="cls-7" d="M75.398 60.899h1.161v4.953h-1.161z"/><path class="cls-26" d="M76.559 60.899h2.926v4.953h-2.926z"/><path class="cls-7" d="M79.484 60.899h1.162v4.953h-1.162z"/><path class="cls-26" d="M88.821 60.899h2.925v4.953h-2.925z"/><path class="cls-7" d="M91.746 60.899h1.161v4.953h-1.161z"/><path class="cls-27" d="M80.646 60.899h2.925v4.953h-2.925z"/><path class="cls-7" d="M83.571 60.899h1.162v4.953h-1.162zM87.659 60.899h1.162v4.953h-1.162z"/><path class="cls-28" d="M84.733 60.899h2.925v4.953h-2.925z"/><g style="clip-path:url(#clip-path-4)"><path style="fill:#9c5b41" d="M12.876 65.841h81.126v4.968H12.876z"/></g><g style="clip-path:url(#clip-path-5)"><path class="cls-32" d="M14.093 65.842v.01h1.162-.001v-.009l-1.161-.001z"/><path class="cls-33" d="M15.255 65.843h2.925v.008h-2.925z"/><path class="cls-32" d="M18.18 65.845h1.162v.006H18.18z"/><path style="fill:#995741" d="M19.342 65.846h2.925v.005h-2.925z"/><path class="cls-32" d="M22.267 65.848h1.161v.004h-1.161z"/><path style="fill:#995a3f" d="M23.428 65.85h2.925v.002h-2.925z"/><path class="cls-32" d="M26.354 65.851v.001h1.162l-1.162-.001z"/><path class="cls-33" d="M27.516 65.852h.105-.105"/></g><path class="cls-10" d="M27.968 32.03s.784 1.126.605 1.066c-1.138.12-3.412 1.856-4.61 2.754a37.8 37.8 0 0 0-4.669 4.61 30.034 30.034 0 0 0 1.346 4.397c.165.469.278.779.278.779.531.57.411.63.172.93s-6.046 8.979-6.286 9.158-1.197-1.317-1.017-1.496 4.433-5.847 4.67-6.106l1.974-2.155-2.482-5.113s2.842-3.448 2.961-3.687 2.993-2.933 2.993-2.933l3.113-1.976ZM41.982 39.8c-.479.659-4.25 6.585-4.31 7.064s-.719.181-.599.001 1.617-3.951 1.976-4.311 2.155-1.975 2.155-1.975Z"/><path class="cls-10" d="M23.305 40.878a8.031 8.031 0 0 0 1.257.778c.18 0 5.747 1.138 6.226 2.095a12.037 12.037 0 0 0-3.951-2.634c-.299 0-2.454-.479-2.454-.479ZM32.127 43.28c-.202-1.803-.35-8.803-.366-8.984s.464-.66.882-.72a7.205 7.205 0 0 1 2.375-.022 1.573 1.573 0 0 1 .99.701 5.11 5.11 0 0 0-2.886-.08c-.479.18-.598.838-.658 1.137s.12 4.309.06 5.088 0 2.814 0 2.814Z"/><path class="cls-37" d="m5.943 45.488.06 1.736 1.676.179s-.18 18.259-.18 18.439-1.197 1.196-1.197 1.196-.478 2.275-.478 2.515a11.049 11.049 0 0 0 .418 1.437s4.849-.061 5.029-.18a21.727 21.727 0 0 0-.6-3.711 9.762 9.762 0 0 0-1.256-1.378l.18-18.197 1.556-.24.18-1.556-5.388-.24" style="clip-path:url(#clip-path-6)"/><path class="cls-38" d="m5.703 31.78.18-1.856 5.567-.12.179 1.138-.119 1.077H8.516l-2.813-.239z"/><path class="cls-39" d="m8.577 45.667-2.634-.18C3.668 44.59.136 42.734.136 38.663s1.916-5.387 3.293-5.986a10.703 10.703 0 0 1 3.89-.778c1.198-.06 4.67.12 4.67.12s3.712 1.017 4.31 3.232 1.078 5.088.24 5.986-2.215 3.113-3.413 3.532-1.915.718-1.915.718Z"/><path class="cls-10" d="M5.01 32.098a6.948 6.948 0 0 0-3.785 2.565 8.987 8.987 0 0 0-.898 5.452 10.973 10.973 0 0 0 3.784 4.746 6.088 6.088 0 0 0 1.832.627c-2.217-2.166-4.14-4.218-4.077-7.361s3.4-5.067 5.131-5.388 4.992-.72 4.992-.72c-2.81-.177-5.89-.05-5.89-.05Z"/><path class="cls-37" d="m95.327 45.488.06 1.736 1.676.179s-.18 18.259-.18 18.439-1.197 1.196-1.197 1.196-.48 2.275-.48 2.515a11.029 11.029 0 0 0 .42 1.437s4.849-.061 5.029-.18a21.727 21.727 0 0 0-.6-3.711A9.823 9.823 0 0 0 98.8 65.72l.179-18.197 1.557-.24.18-1.556-5.388-.24" style="clip-path:url(#clip-path-7)"/><path class="cls-38" d="m95.087 31.78.18-1.856 5.567-.12.179 1.138-.119 1.077H97.9l-2.813-.239z"/><path class="cls-39" d="m97.96 45.667-2.634-.18c-2.275-.897-5.807-2.753-5.807-6.824s1.916-5.387 3.293-5.986a10.703 10.703 0 0 1 3.891-.778c1.197-.06 4.669.12 4.669.12s3.712 1.017 4.31 3.232 1.078 5.088.24 5.986-2.215 3.113-3.412 3.532-1.916.718-1.916.718Z"/><path class="cls-10" d="M94.393 32.098a6.948 6.948 0 0 0-3.784 2.565 8.987 8.987 0 0 0-.898 5.452 10.966 10.966 0 0 0 3.784 4.746 6.078 6.078 0 0 0 1.832.627c-2.217-2.166-4.141-4.218-4.077-7.361s3.399-5.067 5.13-5.388 4.993-.72 4.993-.72c-2.811-.177-5.89-.05-5.89-.05ZM49.72 56.01a.988.988 0 1 1-.989-.989.988.988 0 0 1 .988.988M48.594 54.35a.532.532 0 1 1-.532-.533.532.532 0 0 1 .533.533M50.476 54.556a.532.532 0 1 1-.532-.533.532.532 0 0 1 .532.533M51.026 56.052a.532.532 0 1 1-.532-.532.532.532 0 0 1 .532.532M50.27 57.668a.532.532 0 1 1-.532-.533.532.532 0 0 1 .532.533M48.395 57.65a.532.532 0 1 1-.532-.532.532.532 0 0 1 .532.533M47.416 56.19a.532.532 0 1 1-.532-.533.532.532 0 0 1 .532.532M18.736 55.295a.988.988 0 1 1-.988-.988.988.988 0 0 1 .988.988M17.611 53.636a.532.532 0 1 1-.532-.533.532.532 0 0 1 .532.533M19.493 53.842a.532.532 0 1 1-.532-.532.532.532 0 0 1 .532.532M20.043 55.338a.532.532 0 1 1-.532-.532.532.532 0 0 1 .532.532M19.287 56.953a.532.532 0 1 1-.532-.532.532.532 0 0 1 .532.532M17.413 56.936a.532.532 0 1 1-.532-.533.532.532 0 0 1 .532.533M16.433 55.475a.532.532 0 1 1-.532-.532.532.532 0 0 1 .532.532M25.475 43.932a.988.988 0 1 1-.988-.988.988.988 0 0 1 .988.988M24.35 42.273a.532.532 0 1 1-.532-.532.532.532 0 0 1 .532.532M26.232 42.479a.532.532 0 1 1-.532-.533.532.532 0 0 1 .532.533M26.782 43.974a.532.532 0 1 1-.532-.531.532.532 0 0 1 .532.531M26.025 45.59a.532.532 0 1 1-.532-.532.532.532 0 0 1 .532.533M24.151 45.573a.532.532 0 1 1-.532-.533.532.532 0 0 1 .532.533M23.171 44.112a.532.532 0 1 1-.532-.533.532.532 0 0 1 .532.533M34.709 55.066a.988.988 0 1 1-.988-.988.988.988 0 0 1 .988.988M33.584 53.407a.532.532 0 1 1-.532-.532.532.532 0 0 1 .532.532M35.465 53.613a.532.532 0 1 1-.532-.532.532.532 0 0 1 .532.532M36.016 55.109a.532.532 0 1 1-.532-.533.532.532 0 0 1 .532.533M35.259 56.725a.532.532 0 1 1-.532-.532.532.532 0 0 1 .532.532M33.385 56.707a.532.532 0 1 1-.532-.532.532.532 0 0 1 .532.532M32.405 55.246a.532.532 0 1 1-.532-.532.532.532 0 0 1 .532.532M28.573 37.601a.988.988 0 1 1-.988-.988.988.988 0 0 1 .988.988M27.448 35.942a.532.532 0 1 1-.532-.532.532.532 0 0 1 .532.532M29.33 36.148a.532.532 0 1 1-.532-.532.532.532 0 0 1 .532.533M29.88 37.644a.532.532 0 1 1-.533-.532.532.532 0 0 1 .532.532M29.123 39.26a.532.532 0 1 1-.532-.532.532.532 0 0 1 .532.532M27.25 39.243a.532.532 0 1 1-.533-.532.532.532 0 0 1 .532.532M26.27 37.782a.532.532 0 1 1-.533-.533.532.532 0 0 1 .532.533M40.94 37.604a.988.988 0 1 1-.988-.988.988.988 0 0 1 .988.988M39.815 35.945a.532.532 0 1 1-.532-.532.532.532 0 0 1 .532.532M41.697 36.151a.532.532 0 1 1-.532-.533.532.532 0 0 1 .532.533M42.247 37.647a.532.532 0 1 1-.532-.532.532.532 0 0 1 .532.532M41.49 39.263a.532.532 0 1 1-.532-.533.532.532 0 0 1 .532.533M39.617 39.246a.532.532 0 1 1-.532-.533.532.532 0 0 1 .532.533M38.637 37.785a.532.532 0 1 1-.532-.532.532.532 0 0 1 .532.531M46.972 41.235a.988.988 0 1 1-.988-.988.988.988 0 0 1 .988.988M45.847 39.576a.532.532 0 1 1-.532-.532.532.532 0 0 1 .532.532M47.729 39.782a.532.532 0 1 1-.532-.532.532.532 0 0 1 .532.532M48.279 41.278a.532.532 0 1 1-.532-.533.532.532 0 0 1 .532.533M47.522 42.894a.532.532 0 1 1-.532-.532.532.532 0 0 1 .532.532M45.648 42.876a.532.532 0 1 1-.532-.533.532.532 0 0 1 .532.533M44.668 41.415a.532.532 0 1 1-.532-.532.532.532 0 0 1 .532.532M42.904 46.79a.988.988 0 1 1-.988-.988.988.988 0 0 1 .988.988M41.779 45.131a.532.532 0 1 1-.532-.532.532.532 0 0 1 .532.532M43.66 45.338a.532.532 0 1 1-.532-.532.532.532 0 0 1 .532.532M44.21 46.833a.532.532 0 1 1-.532-.533.532.532 0 0 1 .532.533M43.454 48.45a.532.532 0 1 1-.532-.534.532.532 0 0 1 .532.533M41.58 48.432a.532.532 0 1 1-.532-.532.532.532 0 0 1 .532.532M40.6 46.97a.532.532 0 1 1-.532-.531.532.532 0 0 1 .532.532M49.046 49.813a.988.988 0 1 1-.988-.988.988.988 0 0 1 .988.988M47.921 48.154a.532.532 0 1 1-.532-.533.532.532 0 0 1 .532.533M49.802 48.36a.532.532 0 1 1-.532-.532.532.532 0 0 1 .532.533M50.352 49.856a.532.532 0 1 1-.532-.532.532.532 0 0 1 .532.532M49.596 51.472a.532.532 0 1 1-.532-.532.532.532 0 0 1 .532.532M47.722 51.455a.532.532 0 1 1-.532-.532.532.532 0 0 1 .532.532M46.742 49.993a.532.532 0 1 1-.532-.532.532.532 0 0 1 .532.532M24.712 51.025a.988.988 0 1 1-.988-.988.988.988 0 0 1 .988.988M23.587 49.366a.532.532 0 1 1-.532-.533.532.532 0 0 1 .532.533M25.468 49.572a.532.532 0 1 1-.532-.532.532.532 0 0 1 .532.532M26.018 51.068a.532.532 0 1 1-.532-.533.532.532 0 0 1 .532.533M25.262 52.684a.532.532 0 1 1-.532-.532.532.532 0 0 1 .532.532M23.388 52.667a.532.532 0 1 1-.532-.533.532.532 0 0 1 .532.533M22.408 51.206a.532.532 0 1 1-.532-.534.532.532 0 0 1 .532.534"/><path class="cls-7" d="M37.073 46.865a1.178 1.178 0 0 1 1.556 0 4.605 4.605 0 0 1 .66 2.215c.06.718.06 1.257.238 1.377s2.575 1.736 3.891 2.873a16.951 16.951 0 0 1 3.532 3.772 37.127 37.127 0 0 1 1.437 3.471s-1.35.405-1.453.112a32.815 32.815 0 0 0-1.839-3.703c-.419-.539-3.173-2.814-3.712-3.353s-3.418-1.979-3.355-2.306-.057-2.962-.057-3.14a3.851 3.851 0 0 0-.359-.839l-.659-.06ZM30.309 43.632c-.838.18-1.796.36-1.916 1.197a34.236 34.236 0 0 0-.18 3.532c0 .898.06.898-.837 1.617a45.043 45.043 0 0 0-5.568 5.986 16.514 16.514 0 0 0-1.556 3.472c-.12.538-.24 1.018-.24 1.018l1.524.146a18.723 18.723 0 0 1 1.526-3.337 38.223 38.223 0 0 1 2.578-3.334c.718-.659 2.564-2.199 2.988-2.686s1.084-.773 1.113-.989-.27-2.192-.27-2.67a8.055 8.055 0 0 1 .105-2.487 5.508 5.508 0 0 1 1.33-.986Z"/><path class="cls-10" d="M31.387 1.124A4.468 4.468 0 0 1 34.29.198a5.739 5.739 0 0 1 2.809 1.09c-.138.552-.23.413-.968.091s-3.781-.323-3.965.092c.138 2.628.691 7.93.691 7.93-.507.185-.876-.922-.876-1.475s-.553-4.979-.553-4.979Z"/><path class="cls-10" d="M34.24 9.033a1.554 1.554 0 0 1 1.614.922c-.876-.184-2.536-.185-2.813.369-.138 2.075-.323 3.366-.277 3.965-1.705 1.06-2.581 2.306-2.581 3.504-.83.83-2.304 2.537-2.466 3.78-.116-1.43 1.206-3.39 1.674-3.953a4.088 4.088 0 0 1 1.99-3.147c.692-.23.83-.645.784-.783a8.162 8.162 0 0 1-.23-2.951c.23-1.014.507-1.337.968-1.568a3.12 3.12 0 0 1 1.337-.138M28.201 32.178l1.663-1.673.181.244-1.106 2.305-.738-.876z"/><path class="cls-10" d="m26.31 12.353-.035.689h5.798l-.081-.873-5.682.184zM36.546 12.215l.507.645h4.933l-.092-.599-5.348-.046zM59.972 55.47a.465.465 0 1 1-.465-.465.465.465 0 0 1 .465.465M60.183 56.907a.719.719 0 1 1-.718-.718.717.717 0 0 1 .718.718M58.788 55.766a.719.719 0 1 1-.717-.718.718.718 0 0 1 .717.718M59.507 54.033a.719.719 0 1 1-.718-.719.717.717 0 0 1 .718.72M61.662 55.935a.719.719 0 1 1-.718-.718.719.719 0 0 1 .718.718M61.282 54.371a.719.719 0 1 1-.718-.719.719.719 0 0 1 .718.72M89.267 55.579a.465.465 0 1 0 .465-.465.465.465 0 0 0-.465.465M89.056 57.016a.719.719 0 1 0 .718-.718.718.718 0 0 0-.718.718M90.45 55.874a.719.719 0 1 0 .719-.718.719.719 0 0 0-.718.718M89.732 54.142a.719.719 0 1 0 .718-.718.717.717 0 0 0-.718.718M87.577 56.044a.719.719 0 1 0 .718-.72.718.718 0 0 0-.718.72M87.957 54.48a.719.719 0 1 0 .718-.718.718.718 0 0 0-.718.718"/><path class="cls-41" d="M23.163 57.288c-.157.741-.247 2.828.965 3.412M30.638 50.576a28.492 28.492 0 0 0-1.594 6.757c-.135 1.818-.045 1.931.202 1.953s3.771-.045 4.49-.045c.625 0 3.334-.043 3.54-.057s.33-.124.262-.729-.413-4.923-1.087-6.422M29.65 44.942a9.695 9.695 0 0 1 2.716-1.706c.427-.045.629.224.517.56a4.06 4.06 0 0 0-.157.675 21.314 21.314 0 0 0 2.267-.202c.382.247.426.987.202 1.099a.95.95 0 0 1-.045 1.1c.247.158-.112 1.078-.606 1.213a1.853 1.853 0 0 1-1.414.83c-.809.18-2.582.427-3.255.045"/><path class="cls-41" d="M32.77 48.668c-.178.314-.365.704-.275.906-.314.629-.263.912.298 1.474a3.718 3.718 0 0 0 2.762 1.01 3.555 3.555 0 0 0 1.57-.427 2.512 2.512 0 0 0 .809-.157M35.397 46.715a4.506 4.506 0 0 1 1.482 1.122 3.81 3.81 0 0 0 .516-.022M31.918 12.212h-5.096c-.426 0-.54.067-.54.449s-.066 1.212-.044 1.325.292.246.517.269 4.737 0 4.737 0M35.789 9.495a.991.991 0 0 0 .427-.672c.112-.428.651-5.726.673-6.175a8.554 8.554 0 0 0 .045-1.459C36.867.965 35.805.282 34.05.27c-1.821.177-2.514.696-2.581.92a8.352 8.352 0 0 0 .045 1.46c.022.448.561 5.746.673 6.173a.985.985 0 0 0 .427.674"/><path class="cls-42" d="M38.239 51.497c1.863.83 6.44 4.669 7.203 5.949s1.055 2.49 1.639 3.277a6.053 6.053 0 0 0 2.514-.494c1.19-.54 4.288-4.512 4.467-4.781a2.106 2.106 0 0 0 .382-1.123 16.244 16.244 0 0 0-2.043-3.12c-1.37-1.796-3.031-3.75-3.794-4.624s-1.055-1.056-1.145-.853c0 0 .048-.114.143-.301.09-.175.222-.415.396-.687.359-.561 1.637-2.614 2.175-3.736 0-.067-.424-1.405-2.893-4.076a24.787 24.787 0 0 0-6.151-4.647c-.247-.09-.606-.314-.876-.135a14.531 14.531 0 0 1-1.638-1.796c1.01-.516 1.728-2.357 1.908-3.636 1.414.494 1.84-.292 2.042-.764.203-.471-.224-1.257-.36-1.638s0-.72.293-1.437-.471-1.257-1.683-1.122a6.875 6.875 0 0 0-1.976-4.311c.135-2.267-1.436-2.828-2.694-3.277a14.556 14.556 0 0 0 .068-3.84c-.157-.807-1.213-1.256-1.953-1.301h-.123c-.741.045-1.796.494-1.953 1.302a14.556 14.556 0 0 0 .068 3.839c-1.258.449-2.829 1.01-2.694 3.277a6.87 6.87 0 0 0-1.976 4.31c-1.212-.134-1.975.405-1.683 1.123s.426 1.055.291 1.437-.561 1.167-.359 1.638.629 1.258 2.043.764c.18 1.279.898 3.12 1.908 3.636a14.486 14.486 0 0 1-1.639 1.796c-.269-.18-.628.045-.875.135a24.768 24.768 0 0 0-6.151 4.647 20.59 20.59 0 0 0-3.075 3.77c.538 1.123 1.998 3.48 2.357 4.042.174.272.306.512.395.687.096.187.143.3.143.3-.089-.202-.381-.022-1.144.854s-2.425 2.828-3.794 4.624a16.129 16.129 0 0 0-2.043 3.12 2.106 2.106 0 0 0 .382 1.123c.179.269 3.277 4.242 4.467 4.78a6.053 6.053 0 0 0 2.514.495c.584-.786.876-1.998 1.639-3.277s4.938-6.22 6.802-7.05"/><path class="cls-41" d="M45.24 57.288c.157.741.247 2.828-.965 3.412M36.485 12.212h5.096c.426 0 .539.067.539.449s.067 1.212.044 1.325-.291.246-.516.269-4.736 0-4.736 0M27.663 21.709a34.397 34.397 0 0 0 .289 5.13M29.96 24.253c.192-1.417 2.517-1.912 2.585-.055"/><path class="cls-43" d="M31.225 20.155c-.07-.55.482-.643.81-.62.565.042.964.386.799.689a.873.873 0 0 1-.866.316c-.248-.042-.702-.061-.743-.385"/><path class="cls-41" d="M40.749 21.709a34.397 34.397 0 0 1-.289 5.13M38.493 24.253c-.192-1.417-2.517-1.912-2.585-.055"/><path class="cls-43" d="M37.228 20.155c.07-.55-.482-.643-.812-.62-.563.042-.962.386-.797.689a.873.873 0 0 0 .866.316c.248-.042.702-.061.743-.385"/><path class="cls-41" d="M29.602 17.5a1.932 1.932 0 0 0 1.595.729 29.174 29.174 0 0 0 3.136.027h3.204a1.454 1.454 0 0 0 1.305-.814M30.881 18.38a4.694 4.694 0 0 1-1.389 2.092 4.238 4.238 0 0 1-1.76 1.045M37.442 18.38a4.704 4.704 0 0 0 1.389 2.092 4.238 4.238 0 0 0 1.76 1.045"/><path class="cls-44" d="M33.687 26.068a.575.575 0 0 0 1.004.028M33.302 27.87a1.082 1.082 0 0 0 1.994-.041"/><path class="cls-41" d="M70.57 23.802c.181-1.192 2.369-1.609 2.434-.046"/><path class="cls-43" d="M71.669 19.92c-.248-.496.24-.767.56-.854.545-.148 1.036.043.98.383s-.464.543-.711.587-.683.177-.83-.116"/><path class="cls-41" d="M78.602 23.802c-.18-1.192-2.369-1.609-2.433-.046"/><path class="cls-43" d="M77.521 19.782c.223-.508-.278-.754-.6-.825-.553-.12-1.034.095-.962.432s.492.52.74.55c.25.031.691.142.822-.157"/><path class="cls-44" d="M74.297 25.814c.15.358.546.416.767-.01M73.309 27.712a4.009 4.009 0 0 0 1.253.852 4.105 4.105 0 0 0 1.294-.94"/><path class="cls-41" d="M29.822 30.345a9.321 9.321 0 0 0 4.36 1.334 7.882 7.882 0 0 0 4.47-1.375M32.133 43.273c-.18-2.242-.537-7.812-.468-8.39s-.082-.962.743-1.196a5.853 5.853 0 0 1 1.76-.22 5.004 5.004 0 0 1 1.706.427c.26.247.426.33.357 1.14s-.742 5.79-.866 6.823-.344 2.117-.4 2.324"/><path class="cls-41" d="M28.076 32.202a6.654 6.654 0 0 0 3.658 1.884M36.23 34.141c1.129-.248 3.302-1.141 3.866-1.898M23.386 40.825c1.307-.11 5.804.509 7.358 3.08M36.809 47.591a13.367 13.367 0 0 1 2.118-4.593 24.154 24.154 0 0 1 2.97-3.232M37.317 47.247c.262.151.523.041.646 1.114s0 2.791.152 3.122M29.684 44.868a10.148 10.148 0 0 0-.082 3.15c.123 1.045.137 1.884.247 2.227M29.973 50.286a7.922 7.922 0 0 0 2.2.041"/><path class="cls-44" d="M33.343 45.803a5.138 5.138 0 0 0 1.76-.523M33.412 46.972a4.268 4.268 0 0 0 1.664-.59M33.37 47.77a9.287 9.287 0 0 0 1.128-.206M34.58 47.756a3.116 3.116 0 0 1 .647.44M33.934 48.471a2.434 2.434 0 0 0 .605.371M32.806 48.746a3.018 3.018 0 0 0 1.129.825M32.669 49.654a2.677 2.677 0 0 0 .811.729"/><path class="cls-41" d="M93.143 65.754c0-1.028-.037-3.744-.037-4.33s-.256-.551-.954-.551l-45.576-.002c-.992 0-13.73-.036-14.611-.036s-9.251.036-10.242.036l-6.571.001c-.698 0-.954-.036-.954.551s-.037 3.303-.037 4.331M94.08 70.784c0-1.028-.042-3.744-.042-4.331s-.32-.551-1.09-.551H48.686c-1.094 0-15.148-.037-16.12-.037s-10.206.037-11.299.037h-7.249c-.77 0-1.053-.037-1.053.55s-.04 3.304-.04 4.332Z"/><path class="cls-42" d="M8.577 71.009c.158 0 1.583.02 1.761 0s.832.02.891-.515a11.555 11.555 0 0 0-.376-2.988 5.979 5.979 0 0 0-1.405-1.664V47.374h1.583a2.927 2.927 0 0 0 .159-.495c0-.1.019-.811.019-1.286 1.584-.693 5.582-2.357 5.582-7.127s-3.325-6.215-5.324-6.472c0-.14.039-1.544.039-1.781s-.336-.357-.613-.357H6.221c-.277 0-.613.119-.613.357s.04 1.642.04 1.78c-2 .258-5.325 1.703-5.325 6.473s3.998 6.434 5.582 7.127c0 .475.02 1.187.02 1.286a2.94 2.94 0 0 0 .158.495h1.583v18.468a5.979 5.979 0 0 0-1.405 1.664 11.555 11.555 0 0 0-.376 2.988c.06.535.713.495.891.515s1.603 0 1.761 0Z"/><path class="cls-41" d="M6.004 45.532c.97.04 4.71.039 5.106.02M7.765 47.373c.257.04 1.564.002 1.683 0M5.945 32.072a25.648 25.648 0 0 1 5.383.079M7.904 32.19c-1.405.713-3.286 3.187-3.028 6.73s1.82 5.76 3.186 6.57M9.246 32.19c1.405.713 3.286 3.187 3.028 6.73s-1.821 5.76-3.186 6.57"/><path class="cls-42" d="M97.96 71.009c.159 0 1.584.02 1.763 0s.83.02.89-.515a11.512 11.512 0 0 0-.376-2.988 5.979 5.979 0 0 0-1.405-1.664V47.374h1.583a2.927 2.927 0 0 0 .159-.495c0-.1.019-.811.019-1.286 1.583-.693 5.582-2.357 5.582-7.127s-3.325-6.215-5.324-6.472c0-.14.04-1.544.04-1.781s-.337-.357-.614-.357h-4.672c-.277 0-.613.119-.613.357s.04 1.642.04 1.78c-2 .258-5.325 1.703-5.325 6.473s3.999 6.434 5.582 7.127c0 .475.02 1.187.02 1.286a2.94 2.94 0 0 0 .158.495h1.583v18.468a5.979 5.979 0 0 0-1.405 1.664 11.555 11.555 0 0 0-.376 2.988c.059.535.712.495.891.515s1.603 0 1.761 0Z"/><path class="cls-41" d="M95.388 45.532c.97.04 4.71.039 5.106.02M97.15 47.373c.256.04 1.563.002 1.681 0M95.328 32.072a25.659 25.659 0 0 1 5.384.079M97.287 32.19c-1.405.713-3.285 3.187-3.028 6.73s1.821 5.76 3.187 6.57M98.63 32.19c1.404.713 3.285 3.187 3.027 6.73s-1.82 5.76-3.187 6.57"/><path class="cls-42" d="M84.14 60.752c.851-.35 1.303-1.404 1.754-2.405 2.657 1.654 5.365 3.308 7.722-.502s-2.659-9.677-4.764-12.333a15.023 15.023 0 0 1-3.008-6.82c-.45-1.956-2.356-5.063-5.315-5.715 5.215-4.913 6.568-10.18 5.064-14.441s-4.613-4.261-7.67-4.512c1.453.05 4.06-.301 4.06-1.153s-1.905-.703-4.11-.703c0-.5-.302-.802-.853-1.102 1.704-2.156 2.106-3.66 1.504-3.961s-1.404.5-2.658 3.209a3.583 3.583 0 0 0-.852-.251c.753-4.813.1-5.063-.65-5.063-.754 0-1.405.25-.653 5.063a3.583 3.583 0 0 0-.852.251c-1.254-2.708-2.056-3.51-2.658-3.209S70 8.91 71.705 11.065c-.55.302-.852.603-.852 1.104-2.206 0-4.11-.152-4.11.702s2.606 1.203 4.06 1.153c-3.059.25-6.167.25-7.67 4.512s-.15 9.528 5.063 14.44c-2.959.653-4.864 3.76-5.315 5.716a15.023 15.023 0 0 1-3.008 6.82c-2.106 2.656-7.12 8.521-4.763 12.333s5.064 2.156 7.722.502c.45 1.001.902 2.055 1.754 2.405"/><path class="cls-41" d="M70.853 12.169c0 1.855 2.606 2.005 3.81 2.005s3.21-.401 3.21-2.005"/><path class="cls-41" d="M70.902 12.72v1.504c0 .652.652 2.206 3.31 2.206 3.558 0 3.66-1.754 3.66-3.61"/><path class="cls-41" d="M68.195 14.434c-.401 2.847.15 4.052 1.404 4.052s1.554-1.095 1.554-3.23"/><path class="cls-41" d="M69.248 14.38c-.1 1.477-.251 2.354.4 2.463s.503-1.369.402-2.519M80.548 14.434c.4 2.847-.151 4.052-1.404 4.052s-1.554-1.095-1.554-3.23"/><path class="cls-41" d="M79.495 14.38c.1 1.477.25 2.354-.401 2.463s-.502-1.369-.401-2.519M76.172 16.28a2.709 2.709 0 0 0 1.304 1.805c.852.552 2.153 1.075 2.557 2.657 2.05 8.022-3.767 10.629-5.472 10.53-2.055.15-8.02-2.257-5.865-10.53.411-1.579 1.704-2.105 2.557-2.657a2.707 2.707 0 0 0 1.303-1.805"/><path class="cls-41" d="M62.68 22.849c1.053 1.805 3.309 2.256 5.315 2.206"/><path class="cls-41" d="M66.54 25.005c.602 1.554 1.404 2.506 2.306 2.206M86.093 22.849c-1.053 1.805-3.309 2.256-5.314 2.206"/><path class="cls-41" d="M82.233 25.005c-.602 1.554-1.404 2.506-2.306 2.206M68.644 44.759a6.665 6.665 0 0 1 2.106-1.855c.601-.301.686.288.536 1.04 1.353-.802 1.971-.338 1.77.263a.748.748 0 0 1 .552 1.054c.401.25.05 1.152.05 1.152.15.452-.273 1.356-2.18 1.656-1.833.288-1.982-.703-2.383-1.455a5.177 5.177 0 0 1-.45-1.855ZM64.483 44.307a10.521 10.521 0 0 1 4.161.452M62.73 58.346c2.807-1.956 7.419-6.167 8.472-9.877"/><path class="cls-44" d="M70.267 44.834c.752-.35.849-.617.986-.878M71.88 45.381c.502-.25 1.164-.947 1.114-1.249M72.407 46.117c.4-.15 1.175-.724 1.175-1.026M72.927 46.779a.915.915 0 0 0 .634-.419"/><path class="cls-41" d="M80.01 44.759a6.675 6.675 0 0 0-2.106-1.855c-.602-.301-.686.288-.536 1.04-1.353-.802-1.971-.338-1.77.263a.747.747 0 0 0-.552 1.054c-.401.25-.049 1.152-.049 1.152-.151.452.272 1.356 2.178 1.656 1.834.288 1.982-.703 2.383-1.455a5.165 5.165 0 0 0 .452-1.855ZM85.925 58.346c-2.807-1.956-7.42-6.167-8.472-9.877"/><path class="cls-44" d="M78.388 44.834c-.752-.35-.85-.617-.986-.878M76.774 45.381c-.502-.25-1.164-.947-1.114-1.249M76.248 46.117c-.401-.15-1.175-.724-1.175-1.026M75.728 46.779a.915.915 0 0 1-.635-.419"/><path class="cls-41" d="m69.575 43.53-4.838-3.258c-.226-1.028 1.153-2.958 2.682-3.133.401-1.33 3.735-2.783 4.763-1.605 1.38-1.278 4.462-.927 4.788.276 1.304-.576 3.635.15 3.961 1.78 1.604-.351 2.181 1.353 2.256 2.582a253.031 253.031 0 0 0-3.936 3.334"/><path class="cls-44" d="m67.57 37.314 3.46 5.365M80.831 37.64l-2.983 4.988M72.232 35.685l1.279 7.319M76.895 35.986l-1.128 7.019"/><path class="cls-41" d="M68.272 33.002a5.162 5.162 0 0 0 1.253-.627M71.18 34.857a27.953 27.953 0 0 1-1.655-2.983 7.21 7.21 0 0 1 2.257-1.329M72.107 30.921a17.535 17.535 0 0 0 1.88 2.983M73.611 34.606c.126-.15 3.134-3.108 3.435-3.936a3.048 3.048 0 0 1 2.281 1.354 15.968 15.968 0 0 1-2.482 3.234M79.202 32.4a4.75 4.75 0 0 0 1.153.551M66.392 41.474a12.102 12.102 0 0 1 2.356 3.108M81.834 41.4c-.502.851-1.73 2.632-1.73 3.358"/><path class="cls-41" d="M80.01 44.759c1.322-.577 3.929-.627 4.355-.05M73.944 45.625l.307.363.474-.419"/></g></g></svg>