<svg xmlns="http://www.w3.org/2000/svg" viewBox="0 0 94.844 84.733"><defs><style>.cls-5{fill:#fff200}.cls-6{fill:#4f4f51}.cls-8{fill:#3ec7f4}.cls-9{fill:#fff}.cls-10{fill:#f15822}.cls-14,.cls-15{fill:none;stroke:#231f20;stroke-linecap:round;stroke-linejoin:round}.cls-14{stroke-width:.674px}.cls-15{stroke-width:.524px}</style></defs><g id="Layer_2" data-name="Layer 2"><g id="Layer_1-2" data-name="Layer 1"><path d="M4.485 11.86A11.932 11.932 0 0 1 9.12 9.784a69.866 69.866 0 0 1 14.211-1.502c5.038.168 12.077.634 17.181 2.101s9.408 2.804 12.143 3.57a63.31 63.31 0 0 0 11.809 1.901 33.192 33.192 0 0 0 9.208-1.567 10.162 10.162 0 0 1 1.968-.634 8.314 8.314 0 0 1 1.766 2.334c-1.468.3-3.612 2.398-11.885 2.232s-15.872-2.8-17.139-2.865a81.207 81.207 0 0 1-11.076-2.235 26.54 26.54 0 0 0-10.542-2.103c-5.738-.065-11.709.401-14.111 1.034s-6.823 2.04-7.014 2.088c-.125.031-.578-.948-.878-1.631-.16-.366-.276-.647-.276-.647" style="fill:#f57e20"/><path d="M6.17 20.525c.178-.266.977-1.153.977-1.153h5.5s-3.548 2.572-3.815 2.572a24.162 24.162 0 0 1-2.661-1.419" style="fill:#0058a9"/><path d="M9.01 16.355c1.508.09 7.186.09 7.186.09a12.87 12.87 0 0 1 6.831-2.042c2.484-.177 8.783-.354 11.622 1.952 4.968-.532 15.137 1.59 16.944 2.04a49.043 49.043 0 0 0 6.654 1.598c4.169.71 17.477.798 19.872-.976a7.058 7.058 0 0 0-.713-3.03c-1.86.9-13.215 2.054-21.643.634s-12.953-2.129-13.662-2.218-7.896-2.484-9.936-3.016-6.122-.355-8.428-.088c-2.307.265-6.299.532-9.315 1.951a40.507 40.507 0 0 0-5.412 3.105" style="fill:#0079c1"/><path d="M3.953 18.573s.355-2.839.532-2.484a46.837 46.837 0 0 0 12.331 0c3.283-.266 9.936-.266 12.066-.177s11.267 0 14.904.798 10.291 1.863 13.839 2.484 13.662 1.154 16.501.71a22.176 22.176 0 0 0 3.992-.887 21.254 21.254 0 0 1-.177 4.258c-5.944 1.153-17.92-.355-20.227-.887s-2.839-1.42-4.17-1.686-10.734-1.863-13.218-2.04-12.243.71-12.864.621c-2.75-.71-8.516-.62-11-.266s-7.186 1.064-8.783.71a34.174 34.174 0 0 1-3.726-1.154" style="fill:#9c258f"/><path class="cls-5" d="m4.929 22.034-.443 2.218c4.258 1.508 9.67 1.95 11.62 1.153s12.954-3.195 16.68-3.638 9.936-.443 11.178-.089 15.259 3.282 18.718 3.727 11.888 1.242 12.864.887a11.755 11.755 0 0 0 2.218-1.242c.266-2.395.266-2.484.266-2.484-1.153.886-1.496.763-6.388.71-8.25-.09-13.04-1.42-21.557-3.105a76.941 76.941 0 0 0-15.97-1.42 59.715 59.715 0 0 0-13.927 2.396c-3.903 1.153-7.718 1.95-10.468 1.685a33.997 33.997 0 0 1-4.791-.799"/><path class="cls-6" d="M1.646 38.623c1.331.887 5.323 1.065 7.363 1.153a40.096 40.096 0 0 0 10.203-1.508c3.903-1.065 4.967-1.419 5.677-1.33a69.055 69.055 0 0 1 7.985 1.685 122.989 122.989 0 0 0 14.992 3.371c4.385.45 13.151 1.472 16.235.444a30.415 30.415 0 0 1 5.5-1.154c1.065-.177 7.985-.532 8.251-.621a16.167 16.167 0 0 0 .621-7.363 11.254 11.254 0 0 0-3.105-4.79c-2.66.887-3.37 1.242-5.412 1.153s-10.113-.533-10.823-.621c-.976-1.065-7.895-4.258-9.936-4.702a55.5 55.5 0 0 0-8.605-.621 11.921 11.921 0 0 0-3.194 1.508c-1.685 0-7.008-.798-9.492-.177s-6.83 1.508-8.783 2.395-5.589 2.573-7.984 2.573S2.18 29.84.76 29.13a11.222 11.222 0 0 0 3.46 4.702c.976.621 3.548 1.775 4.702 2.307a4.77 4.77 0 0 1-3.105 1.686c-1.065.088-3.638.354-3.638.354Z"/><path d="M1.469 45.986c-.177-.532.177-.798.976-.444a27.888 27.888 0 0 0 6.565 1.243 35.61 35.61 0 0 0 8.073-1.154 96.56 96.56 0 0 1 10.557-2.484c2.839-.532 8.782-.088 9.936-.177a22.318 22.318 0 0 1 3.637-2.04 77.3 77.3 0 0 0 8.428 1.241c1.153.178 3.016.266 4.17.533a14.713 14.713 0 0 1 4.524 1.863 13.774 13.774 0 0 0 3.283 2.13 45.17 45.17 0 0 0 6.919.088c1.597-.266 4.88-.533 5.855-.888s2.218-1.153 2.839-1.064 1.331 1.686 1.509 2.661.354 7.718-1.509 9.582c-1.241.177-1.596-.267-2.04-.178-2.307.71-5.944 1.863-7.896 2.218a37.652 37.652 0 0 1-9.67.71c-3.548-.355-11.976-.976-15.525-1.863s-8.605-2.662-11.532-3.727-5.944-1.064-7.719-.177-8.428 3.282-11.887 2.839-7.275-.621-8.783-1.952c.354-.71.798-.532 1.242-.443a19.828 19.828 0 0 0 3.815-.71 7.134 7.134 0 0 0 2.484-1.242 28.292 28.292 0 0 1-4.702-2.395 15.247 15.247 0 0 1-2.396-2.396c-.354-.62-1.153-1.774-1.153-1.774" style="fill:#ef3b24"/><path class="cls-8" d="M18.59 63.375c-.443.266.356 1.153.799 1.863a16.009 16.009 0 0 0 2.928 2.572c.62.444 2.395.533 2.306.888s-.976.709-1.597.887-3.548 1.242-4.79 1.153c-.976.355 0 .71.444.976a16.558 16.558 0 0 0 6.387.887c1.952-.355 5.944-1.685 6.83-1.774a49.953 49.953 0 0 1 7.897.177c2.573.355 7.984 2.13 9.315 2.395 1.33.267 9.58 1.509 12.33 1.42a57.206 57.206 0 0 0 8.695-.71c1.686-.443 5.057-1.774 5.323-1.863.887.266 1.065.444 1.242.089a35.848 35.848 0 0 0 .887-4.613 7.209 7.209 0 0 0-1.331-4.791c-.71-.088-.62.62-1.33.71a22.843 22.843 0 0 1-4.525.355c-1.153-.178-4.79-.621-5.944-.976a6.48 6.48 0 0 0-1.597-.355 24.292 24.292 0 0 0-6.919-2.928c-3.105-.354-11.445-1.064-12.154-1.42a6.257 6.257 0 0 0-3.46 2.219c-2.484.62-4.88 1.419-7.718 2.307s-5.678 1.95-7.363 1.95a25.414 25.414 0 0 1-4.791-.797 3.281 3.281 0 0 1-1.508-.8Z"/><path class="cls-9" d="M63.556 29.349a4.181 4.181 0 0 0-.887 2.72 4.644 4.644 0 0 0 1.893 3.49 6.35 6.35 0 0 0 6.15-.237 3.75 3.75 0 0 0 1.302-4.11 3.252 3.252 0 0 0-1.183-1.627c-1.597-.06-4.436-.295-5.027-.236s-2.248 0-2.248 0"/><path class="cls-5" d="M64.742 32.38c-.158-2.233 1.73-2.8 3.146-2.673 1.217.108 2.549.597 2.517 2.36a2.509 2.509 0 0 1-3.052 2.548 2.852 2.852 0 0 1-2.611-2.234"/><path class="cls-6" d="M65.817 32.147c0-.654.443-1.42 1.774-1.302s1.745.71 1.774 1.243-.65 1.95-1.951 1.685-1.597-.975-1.597-1.626"/><path class="cls-9" d="M75.16 28.51a4.793 4.793 0 0 1 2.307 2.098 27.967 27.967 0 0 1 .887 4.318c.06.888-.06 4.91-.71 5.737a10.83 10.83 0 0 1-2.01.237c.59-1.597 1.242-4.022.946-5.264s-.77-3.43-1.242-3.963.237-.295-.532-.769-.887-.473-1.893-.118-1.715.592-1.715.592a14.3 14.3 0 0 1-1.242-1.834c2.01-.236 3.549-.355 3.963-.71a2.175 2.175 0 0 1 1.242-.325"/><path class="cls-9" d="M69.66 41.196a2.222 2.222 0 0 1 1.243-1.301c-.12-1.597.65-1.953 1.714-1.656.65-1.597.947-2.307 2.485-1.774a1.943 1.943 0 0 1 1.891-1.065c.356.12-.353 5.205-.353 5.205l-1.362.355-4.02.118ZM62.77 30.49c-.236 0-.414-.237-.71.118a4.132 4.132 0 0 0-1.123 3.017 20.162 20.162 0 0 0 1.657 7.038c-1.776-2.662-2.84-4.259-2.899-6.15s-.178-2.367.237-3.136c.413-.769.65-2.188 1.005-2.306 1.598.236 2.485.414 2.485.414l-.355.946Z"/><path class="cls-9" d="M52.272 39.717a22.904 22.904 0 0 0 6.033-2.484c.828-.532 1.596-1.064 1.596-1.064s1.183 2.542 1.361 2.956c-.947 1.302-2.72 3.49-2.72 3.49-1.716.059-4.023.119-4.2-.177s-2.07-2.721-2.07-2.721"/><path class="cls-6" d="M60.169 37.174c-.946.77-4.436 2.721-5.797 2.898a5.092 5.092 0 0 0 1.007 1.123c1.714-1.123 4.553-3.134 4.849-3.725s-.06-.296-.06-.296M56.5 41.396c-.062-.026.058-.085.142-.124.115-.053 3.725-2.761 3.91-3.327.107.053.036.186-.034.345s-2.16 2.983-2.363 3.177-1.655-.071-1.655-.071"/><path class="cls-9" d="M60.79 29.929a84.64 84.64 0 0 1-13.22-1.331c-4.79-.887-14.549-2.78-20.493-1.715s-11.267 3.756-15.88 4.021a26.585 26.585 0 0 1-7.629-.354c-1.509-.355-.533.443.177 1.242a26.776 26.776 0 0 0 6.033 3.46c1.153.355.798 1.153-.444 1.597s-3.637 2.306-2.661 2.839c-2.75-.267-4.525-.267-5.234-1.42.709-.621 2.838-.266 3.282-.444a27.76 27.76 0 0 0 3.637-1.685 25.947 25.947 0 0 1-5.234-3.194C2.059 32.058.108 30.106.197 29.397s1.064-.267 1.774 0 6.565 1.153 8.96.621 8.339-3.017 10.202-3.549a56.923 56.923 0 0 1 11.356-1.508 92.668 92.668 0 0 1 13.662 1.42c2.218.531 9.049 2.217 10.557 2.572a38.745 38.745 0 0 0 4.879.266c.266.09-.798.71-.798.71M54.52 38.09c-1.3-.78-3.372-1.685-2.928-3.991a2.795 2.795 0 0 1 3.372-2.396c.887.267 1.419.71.62.799s-2.75.443-2.838 1.863a2.6 2.6 0 0 0 1.33 2.573c.71.443.888 1.419.444 1.153"/><path class="cls-9" d="M50.82 40.758a4.014 4.014 0 0 1-2.251-4.393 2.553 2.553 0 0 1 3.2-2.267c.888.267.92.812.123.9s-2.016.205-2.105 1.625.066 2.178.775 2.621.703 1.78.259 1.514M52.654 58.442a4.014 4.014 0 0 1-2.252-4.393 2.553 2.553 0 0 1 3.201-2.267c.887.267.921.812.122.9s-2.016.205-2.105 1.625-.146 2.06.564 2.503.913 1.898.47 1.632M51.523 33.411c-.665-.37-2.179-1.329-2.216-2.954s.185-2.067.407-2.104.886.074.812.295a3.833 3.833 0 0 0-.038 2.031 5.616 5.616 0 0 0 1.367 2.252c.333.221 0 .665-.332.48"/><path class="cls-9" d="M49.455 29.534c-1.318.187-3.877.036-4.098 2.547s1.07 4.947 3.396 5.28c.37.221.48-.148.222-.554s-1.292-.406-1.625-1.107-1.255-2.068-.7-3.545 2.842-2.03 3.285-2.067-.222-.59-.48-.554"/><path class="cls-9" d="M43.363 27.356a3.149 3.149 0 0 0-.258 2.436c.221 1.182 2.141 2.77 2.621 2.548s.628-.333.11-.776c-.516-.442-1.882-1.217-1.697-2.805s.96-1.477.922-1.588a8.599 8.599 0 0 0-1.698.185"/><path class="cls-9" d="M43.156 28.352a5.989 5.989 0 0 0-3.692.332c-1.293.702-1.366 1.884-1.255 3.14s1.07 3.838 3.543 3.875a1.35 1.35 0 0 0 .147-.664c-.7-.333-2.547-1.846-2.695-3.212a2.265 2.265 0 0 1 1.773-2.658 12.525 12.525 0 0 0 2.105-.222c.147-.148.073-.59.073-.59M45.726 33.041c0 .332-.148.701-.332.74-.813.146-2.068.11-2.252 1.254a4.724 4.724 0 0 0 1.403 3.36c.554.405.812 1.144-.037.775s-2.474-1.699-2.4-3.249.259-2.585 1.182-2.917a4.37 4.37 0 0 1 2.289-.184c.22.11.147.221.147.221M47.323 50.784c0 .332-.148.701-.333.738-.812.148-2.067.111-2.252 1.255a4.73 4.73 0 0 0 1.404 3.36c.553.407.81 1.145-.038.776s-2.473-1.699-2.4-3.249.259-2.584 1.182-2.917a4.383 4.383 0 0 1 2.289-.185c.222.112.148.222.148.222"/><path class="cls-9" d="M38.637 31.084a4.38 4.38 0 0 0-2.88.997 2.697 2.697 0 0 0-.849 2.843 4.176 4.176 0 0 0 1.698 2.4c.554.259.37-.221.037-.812a3.955 3.955 0 0 1-.295-3.324 3.035 3.035 0 0 1 2.51-1.365c.333 0-.22-.739-.22-.739M40.353 48.591a4.374 4.374 0 0 0-2.88.997 2.697 2.697 0 0 0-.85 2.843 4.182 4.182 0 0 0 1.699 2.4c.554.258.369-.222.037-.813a3.955 3.955 0 0 1-.295-3.323 3.037 3.037 0 0 1 2.51-1.366c.333 0-.221-.738-.221-.738M38.577 30.753a6.768 6.768 0 0 1-2.474-2.954c-.147-.85.074-1.476.406-1.513s1.034-.149.85.441a3.707 3.707 0 0 0 .442 2.364c.333.442.85.85.887.96a3.098 3.098 0 0 1-.11.702"/><path class="cls-9" d="M34.885 34.001a3.638 3.638 0 0 1-2.695-2.584 3.338 3.338 0 0 1 .627-3.138c.554-.48 2.954-1.07 3.582-.628s.295.665-.185.628a2.484 2.484 0 0 0-2.4.738 2.608 2.608 0 0 0-.443 2.77 4.458 4.458 0 0 0 1.477 1.66c.406.37.148.554.037.554M29.297 32.967c-.812-.37-2.216-1.514-2.326-2.732s.628-2.954 1.366-3.286 2.99-.48 3.028-.258c.036.221.258.48-.296.553s-2.067 0-2.695 1.44a3.553 3.553 0 0 0 1.07 3.73c.665.442-.147.553-.147.553M31.13 50.592c-.812-.37-2.215-1.514-2.326-2.732s.628-2.954 1.366-3.286 2.991-.48 3.027-.259.259.48-.295.554-2.067 0-2.695 1.44a3.553 3.553 0 0 0 1.071 3.73c.664.442-.148.553-.148.553"/><path class="cls-9" d="M29.864 34.85c.332.443.85.776.738.111s-.996-1.588-.22-3.249 1.476-1.957 2.066-1.883c.222-.444-1.07-.591-1.957.148a3.377 3.377 0 0 0-1.255 2.842 11.31 11.31 0 0 0 .628 2.031M32.545 28.758a2.052 2.052 0 0 1-1.403-2.068c.185-1.07.923-.664.997-.332a5.226 5.226 0 0 0 .74 1.92c.405.443-.112.516-.334.48M34.142 46.56a2.052 2.052 0 0 1-1.403-2.067c.185-1.07.922-.665.997-.333a5.233 5.233 0 0 0 .738 1.92c.406.443-.11.517-.332.48M24.733 27.282c-1.108.22-2.621.849-2.732 2.4a3.834 3.834 0 0 0 1.66 3.396c.702.259 1.33.259.96-.295s-1.218-.886-1.402-2.215a3.248 3.248 0 0 1 1.809-2.88c.59-.185-.295-.406-.295-.406"/><path class="cls-9" d="M24.917 34.629c.259.22.628.517.665-.074s-.628-2.141.147-3.027 1.81-1.404 1.625-1.625-1.034 0-1.7.517a3.733 3.733 0 0 0-1.364 2.473 4.563 4.563 0 0 0 .627 1.736M27.155 29.608c-.738-.406-1.735-.738-1.92-1.92s.443-1.292.591-.96.111 1.034.443 1.44 1.108.628 1.145.886-.259.554-.259.554M28.456 46.995c-.738-.406-1.735-.738-1.92-1.92s.443-1.292.591-.959.111 1.033.443 1.44 1.108.627 1.145.886c.037.257-.259.553-.259.553M36.97 25.59c1.206.997 1.26.787 2.308.105s2.467-1.207 6.088-.892 6.088 1.574 8.712 2.624 3.621 1.732 5.143 1.837a42.715 42.715 0 0 0-7.872-4.146 28.671 28.671 0 0 0-8.502-1.47c-3.149 0-3.936.577-4.67.945a3.81 3.81 0 0 0-1.208.997M16.836 38.981c3.665-1.451 5.878-3.596 10.443-2.42s12.518 3.735 16.115 4.565c-6.916-1.383-15.838-4.081-17.43-4.081a32.32 32.32 0 0 0-6.154 1.314c-.623.208-2.974.622-2.974.622M65.462 46.918a5.867 5.867 0 0 0-1.922 3.8 3.502 3.502 0 0 0 1.585 3.055 4.98 4.98 0 0 0 5.409-.054c1.715-1.241 1.596-4.612 1.3-5.323a3.906 3.906 0 0 0-1.33-1.774 20.77 20.77 0 0 0-3.475.237c-.591.058-1.567.058-1.567.058"/><path class="cls-5" d="M64.968 50.442c-.159-2.261 1.751-2.834 3.185-2.707 1.232.11 2.58.605 2.548 2.389a2.541 2.541 0 0 1-3.09 2.579 2.887 2.887 0 0 1-2.643-2.261"/><path class="cls-6" d="M65.997 50.106a1.746 1.746 0 0 1 2.022-1.532c1.332.119 1.497.94 1.527 1.473s-.65 1.952-1.952 1.685-1.597-.975-1.597-1.626"/><path class="cls-9" d="M66.047 63.636a5.369 5.369 0 0 0-1.757 3.473 3.202 3.202 0 0 0 1.449 2.792 4.55 4.55 0 0 0 4.943-.049c1.567-1.135 1.459-4.216 1.189-4.864a3.557 3.557 0 0 0-1.217-1.622 18.973 18.973 0 0 0-3.174.216c-.541.054-1.433.054-1.433.054"/><path class="cls-5" d="M65.664 67.103c-.138-1.959 1.517-2.455 2.759-2.345 1.067.095 2.234.525 2.206 2.07a2.2 2.2 0 0 1-2.675 2.234 2.5 2.5 0 0 1-2.29-1.959"/><path class="cls-6" d="M66.81 66.76a1.446 1.446 0 0 1 1.675-1.269c1.103.098 1.24.779 1.265 1.22s-.539 1.617-1.617 1.397-1.323-.81-1.323-1.348"/><path class="cls-9" d="M77.29 44.951c.71.325.873.873 1.168 1.76a26.227 26.227 0 0 1 .326 4.287c.059.887-.782 5.318-1.432 6.145a10.83 10.83 0 0 1-2.011.237c.591-1.597 1.579-4.075 1.284-5.317s-.193-3.948-.666-4.48-.544-.228-1.446-.198c-.624.021-.888-.473-1.893-.118a4.29 4.29 0 0 0-1.126.478s-1.257-1.33-1.079-1.27c2.01-.237 5.53-.888 5.944-1.243a1.274 1.274 0 0 1 .931-.28"/><path class="cls-9" d="M69.649 58.209a2.222 2.222 0 0 1 1.242-1.302c-.118-1.596.65-1.951 1.715-1.655.65-1.597.946-2.307 2.484-1.776.533-.945 1.122-1.013 1.476-.896s-1.227 4.362-1.227 4.362l-.976.237-3.117.91ZM53.607 57.084a22.846 22.846 0 0 0 6.032-2.484 5.218 5.218 0 0 1 1.18-.629s.65 2.602.828 3.016a22.531 22.531 0 0 1-2.78 2.898c-1.715.059-3.013.216-3.19-.08s-2.07-2.721-2.07-2.721"/><path class="cls-10" d="M60.906 54.653a17.09 17.09 0 0 1-5.082 2.628 4.614 4.614 0 0 0 .882 1.019c1.503-1.02 3.992-2.842 4.252-3.38s-.052-.267-.052-.267M57.69 58.48c-.054-.023.051-.076.124-.111.101-.049 3.266-2.504 3.429-3.018.093.048.032.17-.031.313s-1.893 2.704-2.071 2.881-1.451-.065-1.451-.065"/><path class="cls-9" d="M64.502 47.88a112.18 112.18 0 0 1-15.245-1.51c-4.791-.886-14.55-2.779-20.493-1.714s-11.501 2.581-16.114 2.847a26.61 26.61 0 0 1-7.63-.355c-1.508-.355-.532.444.178 1.243a26.751 26.751 0 0 0 6.032 3.459c1.154.355.799 1.154-.443 1.597s-4.468 2.771-3.492 3.303c-2.75-.266-4.436-.798-5.146-1.951.71-.622 3.581-.199 4.024-.376a27.749 27.749 0 0 0 3.638-1.685 25.95 25.95 0 0 1-5.234-3.194c-1.065-.888-3.017-2.839-2.928-3.549s1.065-.266 1.774 0 6.565 1.153 8.961.621 8.602-2.108 10.466-2.641a41.376 41.376 0 0 1 9.758-1.36 101.788 101.788 0 0 1 14.312 1.478c2.218.533 9.138 2.13 10.646 2.485a64.065 64.065 0 0 0 7.619.277c2.691.103-.683 1.025-.683 1.025"/><path class="cls-9" d="M44.962 45.897a5.982 5.982 0 0 0-3.692.333c-1.292.701-1.366 1.883-1.255 3.138s1.07 3.839 3.544 3.876a1.362 1.362 0 0 0 .148-.664c-.702-.333-2.199-1.383-2.347-2.749s.512-2.691 1.656-2.839a4.234 4.234 0 0 0 1.873-.504c.147-.148.073-.591.073-.591"/><path class="cls-9" d="M40.148 48.416a6.765 6.765 0 0 1-2.474-2.953c-.147-.85.074-1.477.406-1.514s1.034-.148.85.442a3.697 3.697 0 0 0 .443 2.363c.332.443.849.85.886.96a3.155 3.155 0 0 1-.111.702"/><path class="cls-9" d="M36.515 51.724a3.638 3.638 0 0 1-2.695-2.584 3.338 3.338 0 0 1 .627-3.138c.554-.48 2.954-1.071 3.582-.628s.736 1.064.257 1.027-1.842-.428-2.544.532a2.615 2.615 0 0 0-.414 2.78 3.311 3.311 0 0 0 1.15 1.457c.406.369.148.554.037.554"/><path class="cls-9" d="M31.849 52.454c.332.443.849.776.738.111s-.996-1.588-.221-3.249 1.477-1.957 2.067-1.883c.222-.443-1.071-.59-1.956.148a3.378 3.378 0 0 0-1.256 2.842 11.31 11.31 0 0 0 .628 2.031M26.6 44.708c-1.109.221-2.622.85-2.733 2.4a3.835 3.835 0 0 0 1.661 3.396c.701.26 1.33.26.96-.295s-1.219-.886-1.403-2.215a3.248 3.248 0 0 1 1.81-2.88c.59-.185-.296-.406-.296-.406"/><path class="cls-9" d="M26.665 52.41c.258.221.628.517.665-.074s-.628-2.141.147-3.027 1.809-1.404 1.625-1.625-1.034 0-1.699.517a3.739 3.739 0 0 0-1.366 2.473 4.558 4.558 0 0 0 .628 1.736"/><path class="cls-9" d="M17.408 55.804c3.665-1.452 6.226-4.116 10.791-2.94s12.345 4.653 15.942 5.483c-6.916-1.383-15.665-4.999-17.256-4.999a32.25 32.25 0 0 0-6.155 1.314c-.623.207-3.322 1.142-3.322 1.142M37.694 42.734c.946-.533 2.957-1.774 3.844-1.715s2.661.532 2.84.532a13.96 13.96 0 0 0-3.43.65 6.435 6.435 0 0 1-1.657.65 11.83 11.83 0 0 1-1.597-.117M50.41 42.497c1.065.355 3.549 1.715 4.909 2.129a37.478 37.478 0 0 1 4.377 2.189c1.005.295 2.07.532 1.951.355a6.693 6.693 0 0 0-1.478-1.242c-.473-.237-2.78-1.716-3.785-2.248s-2.839-1.242-2.839-1.242l-3.49-.355ZM51.179 45.81a4.871 4.871 0 0 0-.296 2.896 6.877 6.877 0 0 0 2.484 2.307c.414.12.769-.117.178-.768s-1.893-1.124-1.774-2.484.709-1.124 1.123-1.183-1.715-.769-1.715-.769M46.861 49.949c-.65-.532-2.011-1.538-2.07-2.602s-.118-2.07.414-2.307 1.42-.118 1.36.178-.827.65-.709 1.833a3.287 3.287 0 0 0 1.182 2.247c.355.237.828.77.533.828a1.295 1.295 0 0 1-.71-.177"/><path class="cls-9" d="M50.528 55.035a6.454 6.454 0 0 1-2.958-2.366c-.473-.886-1.123-2.306-.532-3.37s2.484-2.484 3.431-2.011 1.124.828.77 1.124-1.835-.652-2.604 1.005.473 4.02 1.656 4.968.237.65.237.65M55.555 55.272c-1.016-.435-1.952-.946-2.188-2.247s-.178-2.366.65-3.017 1.952-1.183 2.662-.709 1.36.768.887 1.005-1.849-.77-2.898.946a2.436 2.436 0 0 0 .473 3.017c.45.336 1.656 1.537.414 1.005M70.382 74.196a1.906 1.906 0 0 1 1.435-1.572c.068-1.982.752-2.12 1.777-1.914.684-1.845.957-2.392 1.914-1.982.957-.82 1.53-.733 1.53-.733-.094 1.28-.583 4.53-.886 4.614s-.594-.565-.918-.327a30.84 30.84 0 0 1-3.76 1.503 6.218 6.218 0 0 0-1.092.41"/><path class="cls-9" d="M75.78 72.076c.48-2.187.822-2.802.548-3.896s.205-2.05-.547-2.802-1.298-.342-1.982-.342a14.044 14.044 0 0 1-3.007-.068c-.273-.205-.068-1.026.683-.889a10.991 10.991 0 0 0 3.45-.439c.309-.176.78-.833 1.33-.71s1.167 1.15 1.303 2.176a18.548 18.548 0 0 1-.205 4.1c-.137.478-.351 3.113-.654 3.128a3.005 3.005 0 0 1-.918-.258M62.52 70.64c-.683.205-5.946 1.299-6.151 1.435s.136.684.41 1.231.957 1.435 1.435 1.503a35.377 35.377 0 0 0 3.827 0 4.49 4.49 0 0 0 1.573-1.64 23.256 23.256 0 0 0-1.094-2.529"/><path class="cls-9" d="M56.103 72.03a19.003 19.003 0 0 0 5.286-1.15 4.326 4.326 0 0 1 1.055-.344s.153 2.22.237 2.583a18.679 18.679 0 0 1-2.69 1.963c-1.41-.202-2.492-.262-2.594-.53s-1.294-2.522-1.294-2.522"/><path class="cls-8" d="M62.826 71.31a14.161 14.161 0 0 1-4.531 1.407 3.829 3.829 0 0 0 .572.96 20.066 20.066 0 0 0 3.962-2.141c.29-.4-.003-.226-.003-.226M59.644 73.968c-.04-.028.053-.056.118-.073A18.769 18.769 0 0 0 63 71.93c.069.052 0 .142-.071.251s-1.939 1.933-2.11 2.05c-.171.119-1.175-.263-1.175-.263"/><path class="cls-9" d="M66.073 64.147s-1.572-.273-4.647-.547-6.289-.546-11.278-1.367-10.935-.546-14.695.684-6.835 2.529-9.432 2.598c-2.597.067-5.057-.616-4.715-.206s2.323 2.324 3.76 2.666 1.092.82-.138 1.64-4.238 2.187-3.759 2.597c-1.367-.068-3.355-.576-3.144-1.025s1.23-.479 2.53-.889 4.858-1.153 4.068-1.601a20.352 20.352 0 0 1-2.839-1.338c-1.025-.683-3.28-3.212-3.075-3.759.204-.546.41 0 1.503.342s4.442 1.094 6.083.684a59.78 59.78 0 0 0 7.518-2.393 23.951 23.951 0 0 1 6.766-1.64 30.925 30.925 0 0 1 8.407.205c1.914.479 8.68 1.504 10.868 1.709a44.207 44.207 0 0 1 4.92.547c.615.205 2.266.305 2.705.528s-.586.839-.586.839Z"/><path class="cls-9" d="M42.015 60.525a7.089 7.089 0 0 1 1.709-1.094 8.632 8.632 0 0 1 2.666-.751 10.571 10.571 0 0 0-2.604-.362 12.776 12.776 0 0 0-3.46 2.218ZM52.267 59.636c1.231.41 5.332 1.3 6.356 1.71a13.754 13.754 0 0 1 2.871 1.434c.342.342 2.187 1.504 1.914.752a4.854 4.854 0 0 0-2.187-2.05c-.616-.206-5.018-1.813-5.282-1.745a25.655 25.655 0 0 1-2.646-.238ZM54.695 62.416a2.446 2.446 0 0 0-.36 2.017 7.095 7.095 0 0 0 2.227 2.529c.542.211 1.144.211.662-.27s-1.595-1.085-1.776-2.169 1.174-1.625 1.505-1.775-2.258-.332-2.258-.332"/><path class="cls-9" d="M59.03 71.388c-.601-.422-2.197-1.656-2.167-2.44s-.03-2.498 1.265-3.01 2.589-.541 2.89-.15.18.662-.271.662-2.77.513-2.74 1.867A3.328 3.328 0 0 0 59 70.725c.33.33.27.542.24.633s-.21.03-.21.03M54.334 64.433a2.243 2.243 0 0 0-2.59 1.505c-.3 1.385 1.356 3.793 1.988 4.155.06.602-.903.723-1.445.121s-1.927-2.229-1.596-4.095a3.518 3.518 0 0 1 3.07-2.619c.814-.09.934.27.934.391s-.361.542-.361.542"/><path class="cls-9" d="M56.08 73.675c-.392-.24-2.409-1.324-2.288-2.92s.633-2.378 1.325-2.74 1.746-.722 1.986-.48.271.902 0 .962-1.715.211-1.986 1.144a3.322 3.322 0 0 0-.06 2.348 10.261 10.261 0 0 0 .902 1.234c.242.332.121.452.121.452M50.39 65.788c-.542-.422-1.897-1.054-2.077-1.897a3.008 3.008 0 0 1 .21-2.228c.332-.301 1.566.001 1.897.181s-.813 0-.903.843a2.802 2.802 0 0 0 .662 2.258c.482.361.843.662.723.813s-.512.03-.512.03M43.346 64.553c-.572-.27-1.505-.783-1.626-1.324s-.813-1.325-.12-1.807 1.385-.42 1.445-.12-.633.422-.602.963a1.824 1.824 0 0 0 .662 1.295c.422.421.662.632.632.813s-.391.18-.391.18"/><path class="cls-9" d="M48.494 62.837a6.642 6.642 0 0 0-2.98.03c-1.115.422-1.897.843-1.987 2.048a4.391 4.391 0 0 0 .783 3.191c.662.722 2.769 1.716 2.949 1.384.182-.33-.602-.24-.993-.903s-1.927-1.716-1.324-3.613a2.27 2.27 0 0 1 3.582-.963c.753.693.18-.662.18-.662Z"/><path class="cls-9" d="M49.638 72.411c-.525-.225-1.926-.512-2.228-1.746s-.27-2.499.392-3.13 2.288-1.265 2.89-.994.752.812.512.902-2.981.121-2.951 1.747.362 1.927 1.024 2.44.783.961.36.781M41.57 70.424a3.246 3.246 0 0 1-1.235-2.228 2.821 2.821 0 0 1 1.204-2.558 4.57 4.57 0 0 1 1.987-.482.542.542 0 0 1 .241.812c-.18.271-1.205-.42-1.927.904s-.692 2.137-.42 2.68.36 1.053.15.872"/><path class="cls-9" d="M40.094 68.076c-.722-.12-2.378-1.144-2.589-2.198a3.211 3.211 0 0 1 .362-2.799 4.041 4.041 0 0 1 2.769-.964c.843.09 1.325.392 1.084.632s-1.776-.18-2.679.873a2.073 2.073 0 0 0-.422 2.62 4.875 4.875 0 0 0 1.475 1.414c.361.241.482.542.361.542a1.218 1.218 0 0 1-.361-.12M23.867 72.351c2.348-.03 4.636-.873 7.526-1.867a16.53 16.53 0 0 1 7.195-.873c1.717.211 5.118.662 6.804 1.506 1.686.842 5.45 1.775 6.894 2.347s1.927 1.024 2.078 1.024c-2.168-.36-11.862-3.402-13.186-3.612s-7.316-.542-8.7-.21-4.607 1.384-4.968 1.414-3.222.391-3.222.391Z"/><path class="cls-9" d="M35.88 69.13a5.393 5.393 0 0 1-.754-3.04 3.59 3.59 0 0 1 1.656-2.048c.452-.12.963-.271.994.03s-.663.452-1.144 1.084-.993.964-.933 1.897a5.868 5.868 0 0 0 .3 1.626c.09.3.001.632-.12.45M34.826 66.3a2.271 2.271 0 0 1-1.656-.903 1.97 1.97 0 0 1 .21-2.078 3.236 3.236 0 0 1 2.168-.812c.24.09-.602 0-1.204.993s-.602 1.445-.241 1.897.783.512.874.662-.151.241-.151.241M36.572 62.055a2.878 2.878 0 0 0 1.325 1.325c-.241-.693-.663-1.114-.151-1.566s-1.174.24-1.174.24"/><path class="cls-5" d="M81.312 14.049V8.105l3.46-3.194 6.21-.266s3.637 3.194 3.548 3.46-.177 5.589-.177 5.589l-3.637 4.17-5.678.089Z"/><path class="cls-10" d="m83.885 11.742 1.419.71-.443 1.597-2.395 1.153-1.154-1.153v-1.42l2.573-.887zM81.341 9.259l2.366 1.242s1.42-.178 1.36-.355-.473-1.538-.473-1.538L82.465 7.13l-1.153.975ZM84.121 5.533l1.419 2.424 1.42.533.473-1.656-1.183-1.951h-1.124l-1.005.65zM88.498 7.011l1.064-2.129 1.775-.059.946 1.005-1.892 2.306-1.479.474-.414-1.597zM90.923 10.028l.532-1.242 2.01-1.42 1.066.739s.059 1.982-.12 1.982-2.364.828-2.364.828ZM83.885 16.474l1.774-1.833 1.42-.296.295 1.065-1.182 2.247h-1.42l-.887-1.183zM89.326 17.361l-.591-1.892.65-1.242 1.361.237 1.064 2.128-1.123 1.065-1.361-.296zM92.874 15.232l-1.597-1.242-.413-1.419 1.3-.592 2.129 1.361v.769l-1.419 1.123z"/><path d="M86.487 11.743c0-.71.532-1.774 1.064-1.833a3.311 3.311 0 0 1 1.716.414 3.649 3.649 0 0 1 0 1.95 3.035 3.035 0 0 1-1.42.592 10.045 10.045 0 0 1-1.36-.295Z" style="fill:#ed1c24"/><path class="cls-5" d="M86.25 4.468a3.389 3.389 0 0 1-1.005-2.425c.237-.533.65-1.42 1.538-1.597a4.26 4.26 0 0 1 2.957.591 1.777 1.777 0 0 1 .473 1.893 3.327 3.327 0 0 1-1.242 1.774 9.942 9.942 0 0 1-1.655.178c-.178.06-1.065-.414-1.065-.414"/><path d="M86.606 17.894h2.779l-.295 66.24s-2.307.592-2.661-.177c-.237-1.715.177-66.063.177-66.063" style="fill:#bcbec0"/><path d="M87.374 18.071v66.654s-.887.118-.887-.533-.296-66.535-.296-66.535Z" style="fill:#f1f2f2"/><path class="cls-9" d="M85.836 4.172c-.414-.828-.473-3.134.237-3.43a5.67 5.67 0 0 1 2.72-.414c.592.177 1.302 1.42 1.36 1.715s-.709-.59-1.656-.71c-.945-.118-1.833-.059-2.247.946a2.711 2.711 0 0 0 0 2.19c.178.413-.414-.297-.414-.297M85.6 13.4c-.355-1.243-.71-2.958-.059-3.727a3.926 3.926 0 0 1 2.78-1.302c.71.12 2.484 1.124 2.661 2.544s-.769-1.657-1.893-1.715-2.72.532-3.074 1.42a4.323 4.323 0 0 0 .058 2.897c.296.473-.058.532-.058.532Z"/><path class="cls-9" d="M86.487 11.743c.177-.77.651-1.774 1.48-1.774s1.181.118 1.418 1.064c-.414-.06-1.124-.473-1.774-.118a1.408 1.408 0 0 0-.769 1.538c.177.413-.355-.71-.355-.71"/><path class="cls-9" d="M82.17 14.463c-.059-.354-.059-5.558-.059-5.736a28.805 28.805 0 0 1 3.016-2.84c.414-.295 4.909-.295 5.204-.355a21.933 21.933 0 0 1 3.135 1.834l-2.129-2.542-6.21.058-3.815 3.223v5.945ZM91.16 9.91l.296-1.124 2.01-1.42s.769.413.473.532S92.165 9.14 91.988 9.2s-.71 1.065-.71 1.065Z"/><path class="cls-9" d="M89.976 5.296a18.257 18.257 0 0 0-.946 1.715l.118 1.36s-.414-1.36-.65-1.36 1.064-2.129 1.064-2.129ZM84.89 5.888c.059.177 1.36 2.306 1.36 2.306l-.709-.236-1.243-1.656ZM82.584 7.721l1.952 1.36.532 1.065-.178-1.656-2.01-1.183-.296.414zM81.815 12.571l2.07-.828 1.124.828-1.065-.178-2.365 1.065.236-.887zM84.121 16.238l1.538-1.597 1.419-.296-1.301.71-1.597 1.833-.059-.65zM89.562 14.582l-.71 1.183-.296-.591.829-.947.177.355zM91.219 13.162a7.66 7.66 0 0 1 1.241-.947c-.532-.236-1.36.297-1.36.297ZM5.065 12.63c1.166-.699 1.438-1.593 8.278-2.682a86.737 86.737 0 0 1 23.552.078c5.947 1.049 9.989 3.109 15.586 4.314s9.366 2.06 14.652 1.943 7.773-.855 8.978-2.06a1.393 1.393 0 0 0-.933-.582 28.578 28.578 0 0 1-8.59 2.41c-1.943.077-10.764-.856-15.39-2.488s-13.136-4.78-22.308-5.09-18.54.35-21.104 1.553-3.187 1.594-3.187 1.594ZM4.299 16.91c.512.288.513.192 1.824.352s5.375.352 12.797-.416a93.013 93.013 0 0 1 13.789-.288c1.728-.032 7.167-.16 10.59.576-7.87-.864-10.366-.768-14.397-1.024a109.6 109.6 0 0 0-13.47.192c-1.791.256-8.701 0-9.373 0a10.065 10.065 0 0 1-1.76-.256Z"/><path class="cls-9" d="M9.642 16.078c-.096.064-.128.32-.128.32 1.28-.128.96.096 3.136-1.248a27.369 27.369 0 0 1 6.942-3.167 37.14 37.14 0 0 1 5.055-.832c-3.135.32-7.742.896-8.798 1.408s-5.023 2.527-5.023 2.527ZM4.714 22.7c.448.416 5.023 1.632 11.006.192s15.356-4.156 18.396-4.142 11.902.783 12.382.815a105.046 105.046 0 0 0-15.42-.704 47.976 47.976 0 0 0-7.776 1.536 102.902 102.902 0 0 1-11.037 2.399c-2.208.224-7.583-.832-7.583-.832Z"/><path class="cls-14" d="M75.441 13.57a5.819 5.819 0 0 1 2.609 4.24 24.43 24.43 0 0 1-.444 7.384c-.356.771-2.283.89-2.758 1.008a87.666 87.666 0 0 1-17.406-1.661c-6.88-1.571-14.767-3.232-18.622-3.084s-12.573.86-16.842 2.195c-4.271 1.334-9.371 2.46-13.226 1.779s-4.329-1.008-4.329-1.008a22.61 22.61 0 0 1 .237-2.58 18.677 18.677 0 0 0 4.892.919 38.278 38.278 0 0 0 8.808-1.126c2.52-.742 9.103-2.402 9.548-2.491a50.432 50.432 0 0 0-8.125-.356c-1.987.207-6.583.623-7.117.652a33.46 33.46 0 0 0-4.24 2.372c-1.097-.385-2.669-1.037-2.758-1.037.386-.593.83-1.246.83-1.246a7.523 7.523 0 0 1-2.639-.741 15.268 15.268 0 0 1 .475-2.788c1.334.238 4.448.415 4.715.445a24.074 24.074 0 0 1 8.747-4.329 57.004 57.004 0 0 1 7.473-1.067 71.573 71.573 0 0 0-10.378.593c-2.225.414-6.435 1.127-7.769 1.749a14.693 14.693 0 0 1-1.661.711c-.296-.415-.919-2.016-1.156-2.283a13.063 13.063 0 0 1 5.811-2.402 67.582 67.582 0 0 1 14.797-1.097 67.538 67.538 0 0 1 16.812 2.284c6.554 1.72 9.935 3.291 14.887 4.21s9.726 1.305 12.81.564a25.804 25.804 0 0 0 5.07-1.542 1.683 1.683 0 0 1 .949-.267Z"/><path class="cls-15" d="M25.15 10.99a29.35 29.35 0 0 1 7.532.623c2.55.682 4.418 1.72 8.866 2.64s6.02 1.037 6.998 1.007M8.96 16.506c2.432-.06 4.745-.177 8.599-.534s10.972 0 13.433.059a70.41 70.41 0 0 1 10.497.564 114.008 114.008 0 0 1 11.386 1.957M27.76 19.234a66.708 66.708 0 0 1 13.017-.356c3.41.267 12.218 1.66 13.582 2.017"/><path class="cls-15" d="M15.602 16.031a20.88 20.88 0 0 1 8.095-1.809 27.89 27.89 0 0 1 8.006.742c2.017.622 2.847 1.037 3.41 1.216M6.498 19.53a50.524 50.524 0 0 0 6.08-.178M76.538 14.282a38.03 38.03 0 0 1 4.655 3.35c1.157.95 2.61 2.106 2.7 2.224s-.86.95-1.277 1.395c-.414.444-2.223 2.253-2.965 2.845a11.052 11.052 0 0 1-2.075 1.306"/><path class="cls-15" d="M83.892 19.857c.949.029 2.223.119 2.55.059"/><path class="cls-14" d="M.39 29.405c-.196-.51.178-.207.682-.09a41.237 41.237 0 0 0 9.993.742c3.707-.415 6.731-2.284 9.163-3.114a43.116 43.116 0 0 1 11.979-1.868c3.559.149 4.092.09 4.923.178a11.535 11.535 0 0 1 3.202-1.482c3.321-.03 7.473.059 10.082 1.068s5.189 2.253 6.227 2.757 2.135 1.216 2.728 1.454c1.691.207 4.734.294 6.346.385a47.998 47.998 0 0 0 5.486.059 18.366 18.366 0 0 0 3.41-.86c.267-.12.533-.297 1.097.178a7.497 7.497 0 0 1 2.817 5.307 14.42 14.42 0 0 1-.445 6.257c-.267.77-.563.623-.83.623s-3.351.059-5.397.148a26.203 26.203 0 0 0-5.753.682 51.019 51.019 0 0 1-10.022.77A85.461 85.461 0 0 1 41.4 40.91c-4.122-1.008-11.268-2.936-13.966-3.469s-3.589-.415-5.309.148a44.593 44.593 0 0 1-7.946 1.779c-3.411.445-10.171.267-11.417-.207s-1.631-1.068-1.156-1.009a19.449 19.449 0 0 0 4.349-.533 7.388 7.388 0 0 0 2.916-1.572 17.83 17.83 0 0 1-5.605-3.054A23.114 23.114 0 0 1 .39 29.405Z"/><path class="cls-14" d="M53.56 42.617a35.524 35.524 0 0 1 4.948 2.31 25.05 25.05 0 0 0 3.07 1.853 58.313 58.313 0 0 0 6.649.025 39.858 39.858 0 0 0 5.482-.761 14.369 14.369 0 0 0 2.969-.94 1.028 1.028 0 0 1 1.243.306 8.624 8.624 0 0 1 .964 5.1 16.637 16.637 0 0 1-1.117 5.735c-.507.939-.786 1.09-1.116 1.015a3.466 3.466 0 0 0-2.106-.102 66.746 66.746 0 0 1-10.658 2.69 63.325 63.325 0 0 1-12.941-.532c-5.38-.661-11.241-1.574-14.236-2.691s-5.785-2.486-8.322-2.843c-2.538-.354-3.73-.457-5.887.433a34.582 34.582 0 0 1-8.983 2.511c-3.096.28-4.542.482-7.36-.101s-4.161-1.572-4.287-1.903.355-.229.811-.204a13.294 13.294 0 0 0 4.06-.507 11.352 11.352 0 0 0 2.97-1.192c.253-.228-.026-.382-.305-.457a20.97 20.97 0 0 1-5.43-3.274 10.29 10.29 0 0 1-2.362-2.867c-.38-.986-.482-1.193.66-.66a19.802 19.802 0 0 0 6.446 1.117c3.019.152 5.1-.101 10.886-1.802a45.819 45.819 0 0 1 13.957-2.207c3.223.152 3.933.203 3.933.203a12.518 12.518 0 0 1 3.654-1.878"/><path class="cls-14" d="M56.122 60.001a26.1 26.1 0 0 1 5.126 1.65A16.942 16.942 0 0 1 63.1 62.92a25.748 25.748 0 0 1 4.086.736 19.765 19.765 0 0 0 5.176.356c1.498-.102 2.26-.179 2.817-.585s.863-.583 1.27-.203 1.395 1.701 1.141 4.568-.685 4.593-.964 4.643-.71-.304-1.04-.126a34.009 34.009 0 0 1-3.807 1.37 35.78 35.78 0 0 1-10.456 1.218 46.857 46.857 0 0 1-12.916-1.776c-3.78-1.167-5.913-1.98-9.287-2.259a25.8 25.8 0 0 0-7.892.28 37.775 37.775 0 0 1-6.495 1.445c-1.955.102-5.229 0-6.396-.81s-.457-.66-.025-.737a29.764 29.764 0 0 0 4.238-1.09c1.27-.509 2.081-.99 1.98-1.118a27.453 27.453 0 0 1-2.564-1.193 11.011 11.011 0 0 1-3.374-3.602c-.288-.732-.177-.863.533-.457a11.842 11.842 0 0 0 6.217 1.116 26.69 26.69 0 0 0 7.917-2.106 28.014 28.014 0 0 1 6.953-1.827 9.624 9.624 0 0 1 3.477-2.41"/><path class="cls-15" d="M76.662 29.641a45.272 45.272 0 0 1 5.17 3.047 6.614 6.614 0 0 1 1.612 1.253c.026.102-.41.562-.615.895s-2.123 2.843-2.788 3.636-1.895 2.046-1.895 2.046M78.275 45.819c1.152.972 3.812 3.276 4.427 3.915s1.28 1.177 1.28 1.33a17.06 17.06 0 0 1-1.996 2.257c-.615.589-2.098 1.736-2.713 2.274a16.418 16.418 0 0 1-1.74 1.228M76.867 63.507c.614.307 1.996.972 3.07 1.535s2.458 1.383 2.714 1.511-.205.563-.538.87-3.225 3.02-3.838 3.506c-.615.486-1.23.997-1.23.997M83.444 33.94c1.024.033 2.944-.018 3.097-.044M83.982 51.065c.845.03 2.483-.099 2.483-.099M82.83 66.655a31.788 31.788 0 0 0 3.558-.128M63.61 29.442c-.691.359-1.177 1.433-.973 3.25s1.51 3.634 5.017 3.558 4.171-2.074 4.324-3.251a2.98 2.98 0 0 0-1.407-3.301M74.923 30.799a7.99 7.99 0 0 1 1.663 4.453 11.677 11.677 0 0 1-.23 3.967 4.72 4.72 0 0 1-.845 1.74M71.135 39.858c-.28-1.15.486-2.175 1.817-1.536 0-1.842 1.484-2.25 2.226-1.842M60.155 31.26a8.498 8.498 0 0 0 .307 6.09c.972 2.176 1.97 3.685 3.583 4.632M59.923 36.404a17.213 17.213 0 0 1-4.837 2.636 9.358 9.358 0 0 1-2.456.69c-.282.026-.078.334.05.512a14.24 14.24 0 0 0 2.254 2.2M58.797 42.367a12.9 12.9 0 0 0 2.355-3.097M54.446 38.117a3.54 3.54 0 0 1-2.815-4.145 2.463 2.463 0 0 1 3.89-1.868M36.992 25.398a51.427 51.427 0 0 1 9.034 1.1c2.841.691 7.319 1.791 9.136 2.15a39.63 39.63 0 0 0 4.76.563"/><path class="cls-15" d="M50.07 27.625a3.606 3.606 0 0 0-.794 3.147 3.671 3.671 0 0 0 2.278 2.662M51.298 34.099a2.376 2.376 0 0 0-2.738 2.432 3.902 3.902 0 0 0 2.047 4.171M48.994 29.544a3.253 3.253 0 0 0-3.609 2.662 4.484 4.484 0 0 0 2.892 5.066M44.489 26.395c-1.024.23-1.536 1.177-1.561 2.687a3.793 3.793 0 0 0 2.38 3.224M45.128 32.844c-.716-.025-2.508-.28-3.02 1.971a3.96 3.96 0 0 0 2.226 4.48M42.595 28.366c-1.126-.256-3.275-.59-3.966 1.919s.332 4.94 3.096 5.45M37.322 25.473a1.815 1.815 0 0 0-1.126 1.971 5.485 5.485 0 0 0 2.252 3.071"/><path class="cls-15" d="M38.397 31.13c-1.689.077-3.199.563-3.48 2.431a3.513 3.513 0 0 0 1.586 3.736M36.043 27.624c-1.843-.205-3.762.358-3.916 2.43a3.475 3.475 0 0 0 2.585 3.89M31.743 25.217a2.106 2.106 0 0 0 .64 3.481M30.847 26.599a3.248 3.248 0 0 0-1.689 6.271M31.998 29.491a2.861 2.861 0 0 0-2.405 1.945c-.307.973-.333 2.74.46 3.532"/><path class="cls-15" d="M24.653 26.01a3.461 3.461 0 0 0 2.125 3.558M26.547 30.055a3.136 3.136 0 0 0-2.022 2.636 2.7 2.7 0 0 0 .46 2.02M24.576 27.368a2.573 2.573 0 0 0-2.508 2.635 3.072 3.072 0 0 0 2.278 3.123M5.46 32.026c1.816.435 5.782.947 8.367-.41s5.937-2.43 6.5-2.226M8.683 34.201a9.61 9.61 0 0 0 6.86-.896c2.046-1.15 4.196-1.919 4.58-1.766M10.654 36.786a8.518 8.518 0 0 0 6.142-1.05c2.098-1.305 3.94-1.995 4.478-1.765M65.828 32.36a1.47 1.47 0 0 1 1.672-1.547c.897.015 1.872.325 1.934 1.485a1.582 1.582 0 0 1-1.934 1.563c-.93-.108-1.657-.65-1.672-1.501ZM55.563 55.421c-1.408-.29-2.6-1.493-2.309-3.895a2.551 2.551 0 0 1 3.993-1.715M37.444 42.974a72.158 72.158 0 0 1 10.134 1.428c2.694.655 6.941 1.698 8.665 2.038a43.845 43.845 0 0 0 5.39.416"/><path class="cls-15" d="M51.413 45.47c-.631.631-.712 1.6-.542 2.982a3.701 3.701 0 0 0 2.31 2.564M52.938 51.647a2.467 2.467 0 0 0-2.632 2.513c-.218 2.353.825 3.435 1.82 3.993M50.603 47.287c-1.019-.025-3.268.27-3.632 2.526a4.76 4.76 0 0 0 3.067 5.05M46.219 44.169c-.971.218-1.554 1.251-1.58 2.683a3.6 3.6 0 0 0 2.258 3.058M46.727 50.42c-.68-.024-2.378-.267-2.864 1.869a4.589 4.589 0 0 0 2.22 4.798M44.324 46.173c-1.068-.243-3.566-.517-4.222 1.862a4.206 4.206 0 0 0 3.45 5.267M39.396 43.135c-1.104.005-1.513 1.466-1.49 2.243a4.9 4.9 0 0 0 2.027 2.874M39.883 48.836c-1.602.072-3.228.47-3.495 2.242a3.935 3.935 0 0 0 1.73 3.854"/><path class="cls-15" d="M37.845 45.42c-1.748-.194-3.973.375-4.119 2.342a3.293 3.293 0 0 0 2.467 3.679M33.86 42.699c-1.185.247-1.89 3.18.109 3.776"/><path class="cls-15" d="M32.535 44.291a3.684 3.684 0 0 0-4.084 2.244 3.404 3.404 0 0 0 2.558 3.965"/><path class="cls-15" d="M33.605 47.227a2.237 2.237 0 0 0-2.157 1.496c-.372.893-.648 2.927.104 3.679M26.37 43.422a3.247 3.247 0 0 0 1.885 3.913M28.416 47.887c-.923.364-2.2 1.147-2.297 2.41a3.135 3.135 0 0 0 .5 2.106M26.168 45.248a2.44 2.44 0 0 0-2.378 2.5 2.913 2.913 0 0 0 2.16 2.962M9.16 49.414c1.724.412 4.97.743 7.423-.543s4.839-2.223 5.373-2.03M11.482 51.84a8.073 8.073 0 0 0 6.105-.858c1.94-1.092 3.817-1.84 4.18-1.694M10.479 54.452a10.08 10.08 0 0 0 6.543-1.066c1.99-1.238 4.34-2.434 4.85-2.216M65.817 47.03c-1.652.838-2.216 1.63-2.3 3.994s1.736 3.429 4.265 3.49a3.798 3.798 0 0 0 4.265-3.7c.188-2.342-.606-3.594-1.798-4.077"/><path class="cls-15" d="M65.942 50.27c.114-1.502 1.255-1.672 2.028-1.672a1.543 1.543 0 0 1 1.527 1.883c-.105 1.359-1.57 1.421-2.07 1.337s-1.57-.44-1.485-1.547ZM71.148 57.003c-.69-1.422.523-2.028 1.631-1.714.208-1.547 1.713-2.216 2.299-1.86M76.353 49.54c.314 1.652.67 5.5-1.003 7.275M61.092 50.586a8.948 8.948 0 0 0 .313 5.833c.942 2.257 2.09 3.115 2.447 3.24M60.59 53.93A21.483 21.483 0 0 1 56.617 56a18.265 18.265 0 0 1-2.654 1.003c-.146.064-.314.209.02.607a9.136 9.136 0 0 0 2.133 2.07M59.085 59.7a10.779 10.779 0 0 0 2.488-2.655M66.56 63.625a3.325 3.325 0 0 0-2.05 3.34c.02 1.753.445 3.47 3.139 3.617s4.226-1.476 4.263-3.414-.333-2.4-.85-2.953"/><path class="cls-15" d="M66.966 66.91c.056-.738.757-1.052 1.513-.997a1.079 1.079 0 0 1 1.07 1.255 1.275 1.275 0 0 1-1.494 1.07c-.776-.129-1.154-.462-1.09-1.328ZM71.596 72.558a1.617 1.617 0 0 1 1.938-1.864c.351-1.55 1.44-2.03 1.882-1.901M62.888 65.563a9.637 9.637 0 0 0 1.827 9.117"/><path class="cls-15" d="M62.482 70.656c-.517.167-4.079.978-4.946 1.2s-1.218.277-1.292.313c-.074.038-.148.37.111.72a6.67 6.67 0 0 0 1.643 1.808M62.058 74.716a3.554 3.554 0 0 0 1.458-1.55M58.902 71.358a3.122 3.122 0 0 1-2.03-3.654c.276-1.957 3.008-2.38 3.82-1.92M40.19 60.802a47.003 47.003 0 0 1 10.722.333c3.23.516 6.515 1.217 8.397 1.457s3.765.406 4.078.425"/><path class="cls-15" d="M55.194 62.02c-1.07.646-.923 1.863-.831 2.786a3.484 3.484 0 0 0 2.529 2.381M56.726 67.649a2.947 2.947 0 0 0-2.972 2.731 3.701 3.701 0 0 0 2.363 3.525M54.123 63.606c-1.144-.054-3.284.683-3.524 2.64s1.05 4.3 2.97 4.503M49.195 61.005c-1.255.48-1.145 1.827-1.052 2.676s1.2 1.845 2.436 2.233M50.45 66.578c-1.162 0-3.1.333-3.303 2.639s1.254 3.026 2.362 3.47M47.94 62.924c-1.623-.277-4.097-.222-4.392 2.03a3.977 3.977 0 0 0 3.488 4.65M41.758 60.746a2.247 2.247 0 0 0-.184 2.547 3.185 3.185 0 0 0 1.9 1.329M43.346 65.323c-.942.037-2.621.313-2.99 1.845a3.088 3.088 0 0 0 .757 3.156M41.093 62.351c-1.513-.148-3.303.13-3.8 1.753s.773 4.005 2.748 4.023"/><path class="cls-15" d="M36.166 61.687a1.574 1.574 0 0 0 1.366 1.66M37.07 64.104a2.625 2.625 0 0 0-2.158 2.491 4.002 4.002 0 0 0 .756 2.548M33.822 62.61a2.144 2.144 0 0 0-.775 2.584 1.762 1.762 0 0 0 1.81 1.2M24.392 66.282a6.776 6.776 0 0 0 4.522.222 10.743 10.743 0 0 1 3.23-1.089M26.22 68.386a5.046 5.046 0 0 0 3.34-.479 6.923 6.923 0 0 1 2.639-.96M25.205 70.36a9.886 9.886 0 0 0 5.333-1.014c1.66-.867 2.437-.812 2.658-.738"/><path class="cls-14" d="M86.493 17.787v66.299M89.117 17.787v66.299M85.018 17.684c.828.1 5.067 0 5.45 0a1.373 1.373 0 0 0 .889-.424c.16-.161 2.724-2.907 2.866-3.068a1.964 1.964 0 0 0 .18-.93c0-.241.122-4.621.102-4.823a1.4 1.4 0 0 0-.282-.545c-.081-.121-2.543-2.745-2.685-2.907a1.15 1.15 0 0 0-.787-.242c-.303 0-5.531.1-5.632.08a1.967 1.967 0 0 0-.766.425c-.283.222-2.746 2.523-2.827 2.624a1.546 1.546 0 0 0-.182.867c0 .486.102 4.562.122 4.805s-.02.323.182.545 2.926 3.149 3.048 3.27.239.313.322.323Z"/><path class="cls-15" d="M87.905 8.52a2.709 2.709 0 0 1 3.089 2.785c.04 2.301-1.252 3.17-3.19 3.048a2.577 2.577 0 0 1-2.725-2.887 2.823 2.823 0 0 1 2.826-2.947Z"/><path class="cls-15" d="M86.532 11.628a1.43 1.43 0 0 1 1.676-1.595c1.15.101 1.21.687 1.19 1.413a1.254 1.254 0 0 1-1.493 1.352c-1.05-.16-1.292-.504-1.373-1.17ZM84.211 5.774c.303.526 1.251 1.898 1.433 2.1a5.253 5.253 0 0 0 1.312.525 3.966 3.966 0 0 0 .525-1.595 8.48 8.48 0 0 0-1.05-1.816M82.657 7.046c.282.162 2.16 1.494 2.24 1.595a5.661 5.661 0 0 1 .283 1.413 4.441 4.441 0 0 1-1.393.666c-.121-.04-2.301-1.534-2.301-1.534M81.526 12.718c.344-.181 2.261-.908 2.402-.948a3.465 3.465 0 0 1 1.191.666 4.697 4.697 0 0 1-.222 1.453 16.717 16.717 0 0 1-2.059.969M83.99 16.412c.16-.223 1.533-1.777 1.613-1.817a4.568 4.568 0 0 1 1.293-.222 4.067 4.067 0 0 1 .545 1.111c0 .12-1.09 2.037-1.09 2.037M89.237 17.461c-.101-.182-.465-1.755-.566-1.998s.545-1.17.647-1.21a3.98 3.98 0 0 1 1.11.261c.142.081 1.292 2.02 1.292 2.02M92.85 15.463c-.202-.202-1.555-1.453-1.615-1.535a7.585 7.585 0 0 1-.262-1.352 3.781 3.781 0 0 1 1.07-.686 15.786 15.786 0 0 1 2.159 1.514M93.354 7.43c-.182.141-1.736 1.251-1.878 1.413a3.61 3.61 0 0 0-.504 1.251c.04.162.989.687 1.13.767a12.95 12.95 0 0 0 2.12-.928M89.519 4.987c-.101.222-1.01 1.898-1.05 2.018a8.311 8.311 0 0 0 .626 1.454c.06.101.848-.16 1.09-.202a18.544 18.544 0 0 0 1.897-2.32"/><path class="cls-14" d="M86.956 4.685a1.926 1.926 0 0 1-1.696-2.22c0-1.21.69-2.23 2.826-2.12a2.244 2.244 0 0 1 2.24 2.341 2.307 2.307 0 0 1-1.836 2.04c-.606 0-1.433-.02-1.534-.04Z"/><path class="cls-15" d="M76.344 66.17a13.544 13.544 0 0 1-.549 5.963"/></g></g></svg>