<?xml version="1.0" standalone="no"?>
<!DOCTYPE svg PUBLIC "-//W3C//DTD SVG 1.1//EN" "http://www.w3.org/Graphics/SVG/1.1/DTD/svg11.dtd" >
<svg xmlns="http://www.w3.org/2000/svg" xmlns:xlink="http://www.w3.org/1999/xlink" version="1.1" viewBox="-10 0 2058 2048">
   <path fill="currentColor"
d="M356 463q84 0 114 65q13 26 13 83q2 399 92 628q34 87 84 166q11 18 23 18t30 -36q57 -115 84 -159q30 -47 81 -47q25 0 48 12q50 27 50 78q0 29 -20 79q-66 169 -106 284q-41 119 -143 119q-139 0 -279 -247q-196 -345 -196 -905q0 -83 54 -117q32 -21 71 -21zM1385 479
q57 0 113 59q95 100 188 245q170 262 170 377q0 76 -66 111q-38 21 -77 21q-61 0 -98 -47q-15 -19 -36 -85q-77 -237 -269 -509q-27 -39 -27 -75q0 -34 25 -62q32 -35 77 -35z" />
</svg>
