<svg xmlns="http://www.w3.org/2000/svg" viewBox="-10 0 1625 1290" width="1625" height="1290"><path d="M115 0q84 0 114 65 13 26 13 83 2 399 92 628 34 87 84 166 11 18 23 18t30-36q57-115 84-159 30-47 81-47 25 0 48 12 50 27 50 78 0 29-20 79-66 169-106 284-41 119-143 119-139 0-279-247Q-10 698-10 138q0-83 54-117Q76 0 115 0Zm1029 16q57 0 113 59 95 100 188 245 170 262 170 377 0 76-66 111-38 21-77 21-61 0-98-47-15-19-36-85-77-237-269-509-27-39-27-75 0-34 25-62 32-35 77-35z" style="fill:currentColor"/></svg>