<?xml version="1.0" standalone="no"?>
<!DOCTYPE svg PUBLIC "-//W3C//DTD SVG 1.1//EN" "http://www.w3.org/Graphics/SVG/1.1/DTD/svg11.dtd" >
<svg xmlns="http://www.w3.org/2000/svg" xmlns:xlink="http://www.w3.org/1999/xlink" version="1.1" viewBox="-10 0 2058 2048">
   <path fill="currentColor"
d="M819 145q69 0 205 37q139 38 208 74q79 42 79 116q0 29 -15 58q-35 66 -107 66q-35 0 -95 -33q-95 -52 -299 -134q-86 -34 -86 -89q0 -95 110 -95zM1030 829q-412 98 -511 98q-73 0 -97 -70q-10 -28 -10 -59q0 -65 50 -90q17 -8 81 -17q320 -42 611 -102q34 -7 62 -7
q70 0 117 36q49 38 49 95q0 51 -63 111q-96 92 -322 333l6 6q77 -49 140 -49q65 0 98 57q21 35 21 84q0 18 -6 57q-23 142 -23 246q0 39 18 54q21 18 83 18q156 0 315 -28q20 -4 37 -4q78 0 103 73q8 23 8 51q0 99 -93 121q-89 21 -402 21q-153 0 -228 -39q-99 -52 -99 -173
q0 -60 20 -253q3 -28 3 -36q0 -21 -12 -21q-38 0 -176 119q-137 117 -246 272q-28 40 -36 50q-44 55 -102 55q-42 0 -76 -30q-46 -41 -46 -92q0 -45 61 -120q301 -369 669 -761z" />
</svg>
