<svg xmlns="http://www.w3.org/2000/svg" viewBox="-10 0 1493 1719" width="1493" height="1719"><path d="M505 0q69 0 205 37 139 38 208 74 79 42 79 116 0 29-15 58-35 66-107 66-35 0-95-33-95-52-299-134-86-34-86-89 0-95 110-95Zm211 684q-412 98-511 98-73 0-97-70-10-28-10-59 0-65 50-90 17-8 81-17 320-42 611-102 34-7 62-7 70 0 117 36 49 38 49 95 0 51-63 111-96 92-322 333l6 6q77-49 140-49 65 0 98 57 21 35 21 84 0 18-6 57-23 142-23 246 0 39 18 54 21 18 83 18 156 0 315-28 20-4 37-4 78 0 103 73 8 23 8 51 0 99-93 121-89 21-402 21-153 0-228-39-99-52-99-173 0-60 20-253 3-28 3-36 0-21-12-21-38 0-176 119-137 117-246 272-28 40-36 50-44 55-102 55-42 0-76-30-46-41-46-92 0-45 61-120 301-369 669-761z" style="fill:currentColor"/></svg>