<svg xmlns="http://www.w3.org/2000/svg" viewBox="-10 0 1237 1766" width="1237" height="1766"><path d="m426 308-36-84q-18-43-26-61-16-36-16-60 0-54 58-84 38-19 77-19 82 0 115 88 20 53 74 173 161-33 253-59 35-10 60-10 66 0 93 65 12 29 12 55 0 77-84 101-63 18-242 53 45 96 86 172 143-34 226-59 29-9 47-9 59 0 88 62 16 32 16 66 0 71-78 95-77 24-184 48 67 107 108 153 56 63 56 127 0 35-15 63-32 61-117 61-24 0-66-9-101-23-226-37-86-10-86-76 0-68 89-68 46 0 128 7-56-83-110-172-402 75-479 75-73 0-100-66-11-25-11-52 0-73 69-96 13-4 49-8 131-16 359-56-46-83-90-176-327 61-422 61-111 0-111-121 0-90 111-100 163-15 325-43zm-209 966q61 0 97 66 58 108 207 148 113 30 297 30 149 0 149 127 0 121-156 121-290 0-475-97-137-71-197-190-31-60-31-104 0-52 40-80 31-21 69-21z" style="fill:currentColor"/></svg>