<?xml version="1.0" standalone="no"?>
<!DOCTYPE svg PUBLIC "-//W3C//DTD SVG 1.1//EN" "http://www.w3.org/Graphics/SVG/1.1/DTD/svg11.dtd" >
<svg xmlns="http://www.w3.org/2000/svg" xmlns:xlink="http://www.w3.org/1999/xlink" version="1.1" viewBox="-10 0 2058 2048">
   <path fill="currentColor"
d="M1269 162q41 0 79 26q61 42 61 106q0 49 -70 127q-216 240 -472 463q-57 50 -99 83q-41 32 -41 54q0 17 47 52q380 285 577 513q90 105 90 165q0 70 -59 109q-39 25 -82 25q-51 0 -88 -34q-14 -12 -55 -68q-178 -239 -569 -558q-137 -113 -137 -199q0 -97 123 -197
q177 -143 368 -348q129 -139 210 -250q50 -69 117 -69z" />
</svg>
