<?xml version="1.0" standalone="no"?>
<!DOCTYPE svg PUBLIC "-//W3C//DTD SVG 1.1//EN" "http://www.w3.org/Graphics/SVG/1.1/DTD/svg11.dtd" >
<svg xmlns="http://www.w3.org/2000/svg" xmlns:xlink="http://www.w3.org/1999/xlink" version="1.1" viewBox="-10 0 2058 2048">
   <path fill="currentColor"
d="M1295 645q-6 -134 -16 -287q-1 -17 -1 -29q0 -114 126 -114q107 0 119 99q7 53 17 302l12 -1q121 -12 144 -15q14 -2 30 -2q122 0 122 111q0 87 -60 111q-20 9 -57 13q-21 2 -111 12q-36 4 -76 9l1 25q4 289 4 325q0 397 -306 634q-74 58 -118 58t-70 -34
q-22 -28 -22 -59q0 -42 40 -79q155 -139 209 -331q24 -83 24 -228q0 -50 -3 -255v-30l-27 3q-333 35 -349 35q-63 0 -91 -45q-19 -30 -19 -71q0 -93 103 -111q74 -13 375 -46zM533 1407q43 -103 72 -148q27 -44 66 -44q18 0 34 7q39 18 39 65q0 19 -21 61q-27 54 -87 226
q-29 81 -50 112q-40 61 -101 61q-84 0 -128 -102q-68 -157 -68 -481q0 -271 51 -669q11 -88 22 -116q27 -71 113 -71q122 0 122 111q0 18 -9 73q-32 180 -58 491q-8 87 -8 157q0 129 11 267z" />
</svg>
