<?xml version="1.0" standalone="no"?>
<!DOCTYPE svg PUBLIC "-//W3C//DTD SVG 1.1//EN" "http://www.w3.org/Graphics/SVG/1.1/DTD/svg11.dtd" >
<svg xmlns="http://www.w3.org/2000/svg" xmlns:xlink="http://www.w3.org/1999/xlink" version="1.1" viewBox="-10 0 2058 2048">
   <path fill="currentColor"
d="M880 348q266 0 486 82q152 57 152 168q0 82 -103 128q-66 30 -210 108q-45 24 -75 24q-39 0 -59 -28q-15 -21 -15 -42q0 -63 132 -133q29 -15 29 -24t-27 -17q-125 -37 -299 -37q-74 0 -273 22q-23 2 -30 2q-40 0 -67 -22q-40 -31 -40 -89q0 -99 105 -119
q118 -23 294 -23zM535 1240q62 0 96 65q55 107 164 149q132 51 328 51q176 0 317 -28q19 -4 39 -4q116 0 116 127q0 95 -95 121q-121 34 -368 34q-308 0 -482 -102q-156 -91 -210 -256q-11 -32 -11 -56q0 -56 47 -85q27 -16 59 -16z" />
</svg>
