<svg xmlns="http://www.w3.org/2000/svg" viewBox="-10 0 1166 1407" width="1166" height="1407"><path d="M441 0q266 0 486 82 152 57 152 168 0 82-103 128-66 30-210 108-45 24-75 24-39 0-59-28-15-21-15-42 0-63 132-133 29-15 29-24t-27-17q-125-37-299-37-74 0-273 22-23 2-30 2-40 0-67-22-40-31-40-89 0-99 105-119Q265 0 441 0ZM96 892q62 0 96 65 55 107 164 149 132 51 328 51 176 0 317-28 19-4 39-4 116 0 116 127 0 95-95 121-121 34-368 34-308 0-482-102-156-91-210-256-11-32-11-56 0-56 47-85 27-16 59-16z" style="fill:currentColor"/></svg>