<?xml version="1.0" standalone="no"?>
<!DOCTYPE svg PUBLIC "-//W3C//DTD SVG 1.1//EN" "http://www.w3.org/Graphics/SVG/1.1/DTD/svg11.dtd" >
<svg xmlns="http://www.w3.org/2000/svg" xmlns:xlink="http://www.w3.org/1999/xlink" version="1.1" viewBox="-10 0 2058 2048">
   <path fill="currentColor"
d="M914 583q-144 -260 -144 -315t52 -85q36 -21 78 -21q78 0 117 85q58 123 145 281q198 -47 365 -99q45 -14 73 -14q57 0 86 55q18 33 18 65q0 78 -84 106q-116 40 -338 94q113 178 220 293q47 50 47 123q0 48 -44 85q-43 36 -99 36q-18 0 -51 -9q-79 -21 -237 -51
q-56 -11 -76 -21q-38 -21 -38 -66q0 -67 85 -67q67 0 136 9q-84 -109 -190 -277q-284 58 -554 95q-84 11 -103 11q-71 0 -101 -60q-17 -34 -17 -71q0 -70 67 -93q17 -6 69 -10q199 -14 518 -79zM650 1298q73 0 88 80q21 116 110 169q130 77 422 77q129 0 129 122t-153 122
q-275 0 -461 -95q-81 -41 -132 -97q-102 -112 -102 -267q0 -111 99 -111z" />
</svg>
