<?xml version="1.0" standalone="no"?>
<!DOCTYPE svg PUBLIC "-//W3C//DTD SVG 1.1//EN" "http://www.w3.org/Graphics/SVG/1.1/DTD/svg11.dtd" >
<svg xmlns="http://www.w3.org/2000/svg" xmlns:xlink="http://www.w3.org/1999/xlink" version="1.1" viewBox="-10 0 2058 2048">
   <path fill="currentColor"
d="M1291 635q3 -95 3 -163l-1 -196q0 -106 124 -106q79 0 108 49q14 24 14 93q0 87 -7 284l20 -3l147 -22q120 -18 132 -18q65 0 93 57q15 30 15 66q0 94 -109 109q-50 7 -205 32q-46 7 -103 16q-16 257 -45 367q-19 73 -71 120q-51 46 -108 46q-50 0 -93 -50
q-72 -84 -135 -132q-36 -27 -36 -62q0 -19 11 -38q19 -33 61 -33q23 0 46 11q18 8 102 52q16 -69 28 -244l-44 8l-133 22l-136 22l-136 22l-38 6q9 229 10 376q1 106 42 154q50 59 215 59q286 0 436 -14q18 -2 29 -2q110 0 110 119q0 91 -88 113q-55 14 -452 14
q-203 0 -298 -32q-168 -55 -215 -214q-20 -66 -21 -176q-1 -136 -12 -356q-92 15 -288 50q-26 4 -42 4q-68 0 -99 -56q-16 -28 -16 -61q0 -100 124 -119q15 -2 140 -24q43 -7 169 -27l-1 -24q-13 -223 -17 -269q-1 -13 -1 -21q0 -62 61 -92q31 -15 69 -15q107 0 118 94
q7 63 17 286l38 -7l145 -23l144 -24l142 -22z" />
</svg>
