<?xml version="1.0" standalone="no"?>
<!DOCTYPE svg PUBLIC "-//W3C//DTD SVG 1.1//EN" "http://www.w3.org/Graphics/SVG/1.1/DTD/svg11.dtd" >
<svg xmlns="http://www.w3.org/2000/svg" xmlns:xlink="http://www.w3.org/1999/xlink" version="1.1" viewBox="-10 0 2058 2048">
   <path fill="currentColor"
d="M1092 448q-135 25 -360 52q-71 9 -89 9q-46 0 -76 -32q-32 -33 -32 -86q0 -71 52 -98q24 -13 94 -17q212 -13 572 -65q34 -5 53 -5q83 0 127 65q29 43 29 97q0 62 -49 100q-196 153 -634 406l4 8q376 -67 857 -138q23 -3 38 -3q81 0 110 65q13 28 13 60q0 103 -132 119
q-213 26 -351 100q-228 123 -228 316q0 94 82 167q72 65 195 99q89 25 89 117q0 42 -20 74q-34 54 -104 54q-61 0 -175 -53q-309 -144 -309 -436q0 -154 114 -277q62 -67 161 -116l-7 -6q-282 62 -667 132q-84 15 -103 15q-68 0 -95 -68q-12 -32 -12 -62q0 -90 80 -107
q36 -7 194 -98q285 -164 583 -377z" />
</svg>
