<svg xmlns="http://www.w3.org/2000/svg" viewBox="-10 0 1525 1651" width="1525" height="1651"><path d="M409 367q42-150 70-273Q500 0 596 0q132 0 132 105 0 51-54 231 123-19 200-37 25-6 48-6 63 0 88 52 16 32 16 67 0 85-93 109-117 30-333 59l-7 21-37 111q-196 593-297 807-23 49-29 59-37 61-111 61-39 0-73-21-56-34-56-94 0-32 36-105 97-195 215-525 24-64 41-120 43-130 54-166-160 15-214 15-58 0-88-43-20-28-20-72 0-115 126-120 89-3 269-21zm408 865q47 0 84 42 115 129 427 129 21 0 36-1 21-1 24-1 49 0 81 25 44 35 44 95 0 54-34 90-37 40-114 40-217 0-394-70-160-62-224-179-23-41-23-75 0-39 29-68 27-27 64-27zm432-544q142 0 181 13 85 28 85 115 0 45-29 73-33 33-88 33-8 0-26-2-91-7-145-7-126 0-322 41-22 5-39 5-67 0-92-54-10-22-10-48 0-60 71-95 74-36 204-57 108-17 210-17z" style="fill:currentColor"/></svg>