<?xml version="1.0" standalone="no"?>
<!DOCTYPE svg PUBLIC "-//W3C//DTD SVG 1.1//EN" "http://www.w3.org/Graphics/SVG/1.1/DTD/svg11.dtd" >
<svg xmlns="http://www.w3.org/2000/svg" xmlns:xlink="http://www.w3.org/1999/xlink" version="1.1" viewBox="-10 0 2058 2048">
   <path fill="currentColor"
d="M737 964q-72 -129 -164 -409q-21 -66 -57 -134q-21 -39 -21 -70q0 -53 48 -87q38 -27 83 -27q76 0 123 77q29 48 64 177q47 179 111 338q251 -175 509 -329q36 -21 69 -21q63 0 102 50q27 34 27 80q0 58 -46 93q-10 7 -54 30q-822 418 -822 670q0 160 298 160
q223 0 439 -33q22 -3 37 -3q111 0 111 125q0 103 -101 124q-122 25 -448 25q-286 0 -418 -81q-158 -97 -158 -303q0 -224 268 -452z" />
</svg>
