<?xml version="1.0" standalone="no"?>
<!DOCTYPE svg PUBLIC "-//W3C//DTD SVG 1.1//EN" "http://www.w3.org/Graphics/SVG/1.1/DTD/svg11.dtd" >
<svg xmlns="http://www.w3.org/2000/svg" xmlns:xlink="http://www.w3.org/1999/xlink" version="1.1" viewBox="-10 0 2058 2048">
   <path fill="currentColor"
d="M1084 1306v-188q0 -55 8 -94q12 -101 110 -101q46 0 77 22q41 30 41 83q0 7 -1 20q-4 46 -4 74v234q183 58 306 134q70 44 70 119q0 33 -16 61q-33 59 -92 59q-37 0 -83 -36q-70 -55 -185 -114v28q0 108 -57 179q-78 96 -229 96q-172 0 -297 -113q-105 -96 -105 -219
q0 -99 92 -170q106 -80 267 -80q34 0 98 6zM1084 1505q-78 -10 -115 -10q-71 0 -107 30q-20 16 -20 38q0 33 31 62q54 50 135 50q76 0 76 -78v-92zM563 493q50 -131 87 -247q31 -96 114 -96q28 0 54 10q73 27 73 101q0 54 -61 195q27 -6 81 -16q18 -4 38 -8q16 -4 34 -4
q66 0 91 57q12 26 12 60q0 86 -80 107q-70 19 -266 44q-142 344 -278 561q-22 35 -28 43q-37 48 -97 48q-35 0 -64 -19q-58 -38 -58 -94q0 -36 41 -99q96 -147 215 -411q-125 15 -169 15q-48 0 -75 -31q-26 -31 -26 -78q0 -110 130 -116q82 -4 232 -22zM1536 786
q-55 -74 -184 -166q-40 -28 -40 -69q0 -76 87 -76q84 0 251 118q173 122 173 228q0 104 -139 107q-42 0 -150 16q-15 2 -25 2q-68 0 -88 -46q-6 -13 -6 -26q0 -43 36 -59q39 -18 85 -29z" />
</svg>
