<svg xmlns="http://www.w3.org/2000/svg" viewBox="-10 0 1518 1480" width="1518" height="1480"><path d="M238 1131q38-87 67-140 27-48 66-48 20 0 37 8 40 18 40 66 0 19-20 59-40 78-106 271-47 133-136 133-82 0-126-100-70-157-70-509 0-289 52-679Q55 96 66 70 94 0 178 0q51 0 85 25 40 29 40 82 0 21-11 78-31 155-54 423-12 136-12 256 0 170 12 267zm1013-749q-197 0-455 78-33 10-53 10-75 0-99-70-8-22-8-41 0-72 85-106 92-37 229-70 179-42 310-42 65 0 99 9 93 25 93 119 0 49-29 80-34 35-93 35zM723 955q48 0 82 43 53 67 127 93 114 40 325 40 49 0 91-3 21-1 32-1 62 0 98 39 30 33 30 87 0 132-160 132-249 0-435-55-141-42-231-149-60-70-60-125 0-51 36-80 26-21 65-21z" style="fill:currentColor"/></svg>