<?xml version="1.0" standalone="no"?>
<!DOCTYPE svg PUBLIC "-//W3C//DTD SVG 1.1//EN" "http://www.w3.org/Graphics/SVG/1.1/DTD/svg11.dtd" >
<svg xmlns="http://www.w3.org/2000/svg" xmlns:xlink="http://www.w3.org/1999/xlink" version="1.1" viewBox="-10 0 2058 2048">
   <path fill="currentColor"
d="M957 555q25 -131 37 -254q10 -107 120 -107q55 0 91 31q33 29 33 73q0 60 -29 214q28 -2 55 -2q287 0 455 193q135 154 135 387q0 177 -74 337q62 51 105 100q36 42 36 91q0 45 -32 79q-34 37 -79 37q-51 0 -93 -50q-21 -24 -68 -72q-152 147 -331 147q-111 0 -195 -59
q-111 -79 -111 -209q0 -107 85 -180q88 -76 224 -76q118 0 263 65q28 -101 28 -207q0 -159 -84 -260q-101 -122 -280 -122q-41 0 -92 6q-121 382 -328 696q24 46 51 86q22 32 22 66q0 60 -56 94q-35 22 -72 22q-65 0 -107 -74q-125 115 -236 115q-114 0 -194 -98
q-84 -103 -84 -326q0 -244 264 -469q-7 -40 -10 -65q-16 -152 -35 -234q-6 -28 -6 -45q0 -74 64 -98q21 -8 45 -8q80 0 102 91q17 71 37 226q164 -91 344 -141zM1493 1478q-102 -65 -179 -65q-57 0 -90 30q-22 21 -22 49q0 37 35 60q31 19 76 19q97 0 180 -93zM467 1067
q-102 122 -102 242q0 100 35 158q18 30 41 30q49 0 131 -98q-60 -163 -105 -332zM900 782q-140 53 -252 127q25 119 75 264q120 -207 177 -391z" />
</svg>
