<svg xmlns="http://www.w3.org/2000/svg" viewBox="-10 0 1657 1417" width="1657" height="1417"><path d="M912 199q14 51 14 122 0 148-88 389-210 580-506 580-119 0-214-115-128-155-128-397 0-258 200-470Q329 162 525 81T931 0q285 0 480 159 236 192 236 517 0 284-174 487-131 153-343 234-54 20-89 20-59 0-87-51-11-21-11-41 0-51 75-92 371-206 371-560 0-234-158-369-123-105-293-105Zm-226 45q-222 84-348 239-110 136-110 288 0 134 48 221 34 60 71 60 86 0 193-224 83-170 126-333 29-111 29-171 0-21-5-55-2-16-3-18v-2z" style="fill:currentColor"/></svg>