<?xml version="1.0" standalone="no"?>
<!DOCTYPE svg PUBLIC "-//W3C//DTD SVG 1.1//EN" "http://www.w3.org/Graphics/SVG/1.1/DTD/svg11.dtd" >
<svg xmlns="http://www.w3.org/2000/svg" xmlns:xlink="http://www.w3.org/1999/xlink" version="1.1" viewBox="-10 0 2058 2048">
   <path fill="currentColor"
d="M1100 559q14 51 14 122q0 148 -88 389q-210 580 -506 580q-119 0 -214 -115q-128 -155 -128 -397q0 -258 200 -470q139 -146 335 -227t406 -81q285 0 480 159q236 192 236 517q0 284 -174 487q-131 153 -343 234q-54 20 -89 20q-59 0 -87 -51q-11 -21 -11 -41
q0 -51 75 -92q371 -206 371 -560q0 -234 -158 -369q-123 -105 -293 -105h-26zM874 604q-222 84 -348 239q-110 136 -110 288q0 134 48 221q34 60 71 60q86 0 193 -224q83 -170 126 -333q29 -111 29 -171q0 -21 -5 -55q-2 -16 -3 -18v-2t-1 -5z" />
</svg>
