<svg xmlns="http://www.w3.org/2000/svg" viewBox="-10 0 1609 1620" width="1609" height="1620"><path d="M995 366V102q0-45 31-72 34-30 89-30 80 0 109 56 11 20 11 46v242l16-1q185-18 199-18 67 0 93 61 12 27 12 60 0 97-113 106-33 2-130 12-30 3-77 7 0 364 8 576 177 79 294 162 62 44 62 111 0 39-24 71-34 44-87 44-44 0-91-36-97-74-160-115-63 205-324 205-170 0-288-93-115-91-115-214 0-116 103-182 85-54 216-54 71 0 172 21l-1-48-2-136q-3-210-3-289-95 8-316 32-19 2-30 2-105 0-105-114 0-91 85-108 30-7 366-40zm12 902q-104-40-183-40-105 0-105 62 0 35 37 66 52 43 138 43 113 0 113-107zm-775-15q46-101 71-146 20-35 56-35 17 0 32 8 34 20 34 56 0 19-20 65-42 93-102 288-40 131-125 131-188 0-188-619 0-281 47-703 14-126 24-158 26-82 115-82 46 0 78 20 46 29 46 92 0 16-10 75-34 209-60 519-9 114-9 217 0 164 11 272z" style="fill:currentColor"/></svg>