<?xml version="1.0" standalone="no"?>
<!DOCTYPE svg PUBLIC "-//W3C//DTD SVG 1.1//EN" "http://www.w3.org/Graphics/SVG/1.1/DTD/svg11.dtd" >
<svg xmlns="http://www.w3.org/2000/svg" xmlns:xlink="http://www.w3.org/1999/xlink" version="1.1" viewBox="-10 0 2058 2048">
   <path fill="currentColor"
d="M1465 815l4 88q2 44 2 81q0 364 -154 596q-182 273 -520 273q-257 0 -387 -184q-104 -147 -104 -380q0 -239 156 -482q78 -122 184 -211l-4 -6q-75 30 -218 77q-130 42 -158 42q-70 0 -99 -69q-11 -28 -11 -60q0 -68 59 -99q24 -12 87 -21q130 -17 439 -119
q34 -11 59 -11q61 0 104 44q42 42 42 98q0 47 -33 82q-6 7 -63 56q-113 97 -199 255q-109 201 -109 410q0 131 49 214q71 122 221 122q241 0 369 -288q91 -203 106 -551v-59q0 -63 -6 -123q-2 -24 -2 -32q0 -65 67 -100q36 -19 70 -19q69 0 111 58q11 17 36 78
q48 119 150 288q70 117 127 189q43 56 43 110q0 63 -51 104q-33 27 -71 27q-67 0 -115 -80q-101 -165 -173 -402z" />
</svg>
