<svg xmlns="http://www.w3.org/2000/svg" viewBox="-10 0 1821 1633" width="1821" height="1633"><path d="M901 318q-62-80-206-147-68-32-68-86 0-23 12-43 26-42 90-42 49 0 145 39 188 77 271 178 48 58 48 118 0 105-119 123-61 9-146 53-37 19-66 19-37 0-61-27-21-24-21-49 0-33 33-64 41-38 88-72zM793 691q49 0 94 39 119 102 202 236 99 161 99 323 0 135-66 225-88 119-253 119-155 0-295-137-53-53-53-104 0-35 22-62 21-25 54-25 41 0 89 37 69 53 141 53 107 0 107-121 0-87-54-198-56-116-148-215-36-39-36-80 0-35 24-60 28-30 73-30zm-539 592q42-73 71-107 26-30 57-30 22 0 44 14 37 24 37 61 0 28-29 77-33 57-61 157-29 105-129 105-92 0-160-101-21-32-39-76-55-141-55-297 0-125 96-125 80 0 95 113 20 149 73 209zm1183-445q45 0 87 31 69 51 153 145 134 150 134 243 0 70-58 107-38 25-78 25-75 0-117-88-81-168-185-298-31-38-31-77 0-30 22-56 27-32 73-32z" style="fill:currentColor"/></svg>