<?xml version="1.0" standalone="no"?>
<!DOCTYPE svg PUBLIC "-//W3C//DTD SVG 1.1//EN" "http://www.w3.org/Graphics/SVG/1.1/DTD/svg11.dtd" >
<svg xmlns="http://www.w3.org/2000/svg" xmlns:xlink="http://www.w3.org/1999/xlink" version="1.1" viewBox="-10 0 2058 2048">
   <path fill="currentColor"
d="M963 432v-193q0 -50 35 -76q32 -24 80 -24q121 0 121 102v181q124 -7 226 -7q145 0 145 110q0 80 -60 104q-24 9 -74 10q-93 1 -214 3l-23 1v229q87 -8 158 -26q22 -6 44 -6q105 0 105 120q0 76 -90 101q-61 16 -217 34v314q242 85 356 154q83 51 83 120q0 31 -15 63
q-29 60 -96 60q-40 0 -89 -34q-110 -76 -255 -144q-44 145 -170 197q-95 40 -242 40q-165 0 -280 -79q-126 -87 -126 -214q0 -94 90 -163q114 -88 301 -88q93 0 207 20v-229q-83 3 -148 3q-147 0 -203 -9q-98 -14 -98 -109q0 -109 103 -109q12 0 38 2q64 6 171 6
q64 0 137 -3v-238q-226 17 -407 41q-20 3 -34 3q-120 0 -120 -120q0 -83 96 -100q152 -27 465 -47zM959 1540q-127 -37 -217 -37q-80 0 -128 29q-34 20 -34 47q0 31 42 59q58 39 149 39q149 0 178 -89q6 -18 10 -48z" />
</svg>
