<svg xmlns="http://www.w3.org/2000/svg" viewBox="-10 0 1737 1622" width="1737" height="1622"><path d="M807 242q-85 23-255 46-116 15-139 15-51 0-81-30-33-32-33-87 0-83 77-110 20-7 74-9Q713 53 869 9q32-9 60-9 71 0 115 54 39 48 39 97 0 41-34 119-139 315-217 470 208 20 430 80 15-67 26-155 14-113 123-113 58 0 94 36 32 34 32 87 0 69-36 219 104 42 146 63 80 40 80 114 0 30-17 62-35 66-94 66-30 0-73-23-55-29-115-55-138 315-346 461-57 40-101 40-42 0-66-31-20-27-20-52 0-42 55-94 152-144 252-412-228-78-462-102-145 280-214 371-129 167-283 167-77 0-142-62-111-105-111-277 0-204 221-315 147-74 385-85 141-285 215-481ZM494 933q-291 41-291 205 0 58 23 93 14 23 35 23 50 0 110-98 25-42 123-223z" style="fill:currentColor"/></svg>