<?xml version="1.0" standalone="no"?>
<!DOCTYPE svg PUBLIC "-//W3C//DTD SVG 1.1//EN" "http://www.w3.org/Graphics/SVG/1.1/DTD/svg11.dtd" >
<svg xmlns="http://www.w3.org/2000/svg" xmlns:xlink="http://www.w3.org/1999/xlink" version="1.1" viewBox="-10 0 2058 2048">
   <path fill="currentColor"
d="M635 573v-280q0 -41 21 -68q32 -43 98 -43q81 0 109 61q10 22 10 50v237q91 -20 154 -42q23 -9 48 -9q70 0 96 70q9 24 9 53q0 72 -87 103q-91 33 -220 57v372q0 156 -33 277q0 4 1 6q3 36 3 51q2 89 46 115q49 30 196 30q179 0 258 -57q91 -67 91 -250q0 -76 -13 -166
q-5 -32 -5 -49q0 -51 35 -72q23 -14 47 -14q62 0 99 77q17 37 35 100q33 119 33 232q0 261 -188 362q-137 73 -385 73q-285 0 -394 -133q-76 88 -171 88q-94 0 -170 -76q-110 -111 -110 -287q0 -186 128 -309q88 -84 190 -84q38 0 69 15v-262q-178 22 -283 22
q-114 0 -114 -113q0 -60 36 -91q28 -23 70 -23h26q108 0 265 -23zM631 1390q-20 -139 -77 -139q-30 0 -58 30q-51 56 -51 156q0 85 35 129q22 27 47 27q79 0 104 -203zM1460 349q81 0 254 142q71 57 119 113q38 45 38 100q0 62 -48 98q-36 27 -78 27q-64 0 -116 -76
q-98 -143 -207 -239q-47 -42 -47 -87q0 -27 16 -47q23 -31 69 -31z" />
</svg>
