<svg xmlns="http://www.w3.org/2000/svg" viewBox="-10 0 1661 1662" width="1661" height="1662"><path d="M862 350q32-132 50-237Q931 0 1032 0q46 0 83 22 50 31 50 96 0 45-53 232 244 45 384 200 155 172 155 436 0 250-156 434-120 143-305 222-48 20-86 20-54 0-80-46-12-21-12-43 0-54 67-95 320-191 320-494 0-176-89-290-89-115-259-142-122 351-297 627 49 82 82 128 31 42 31 85 0 60-48 95-33 24-74 24-56 0-90-45-28-39-57-90-181 198-323 198-133 0-213-138-72-122-72-297 0-276 281-525-46-154-78-245-13-37-13-65 0-55 52-88 26-17 58-17 77 0 104 73 19 52 53 185l8 30q188-104 407-137ZM342 835q-125 152-125 303 0 98 36 156 20 32 46 32 48 0 107-62 30-32 80-97-83-172-144-332Zm455-264q-148 34-281 114 54 143 115 265 94-170 166-379Z" style="fill:currentColor"/></svg>