<?xml version="1.0" standalone="no"?>
<!DOCTYPE svg PUBLIC "-//W3C//DTD SVG 1.1//EN" "http://www.w3.org/Graphics/SVG/1.1/DTD/svg11.dtd" >
<svg xmlns="http://www.w3.org/2000/svg" xmlns:xlink="http://www.w3.org/1999/xlink" version="1.1" viewBox="-10 0 2058 2048">
   <path fill="currentColor"
d="M1062 547q32 -132 50 -237q19 -113 120 -113q46 0 83 22q50 31 50 96q0 45 -53 232q244 45 384 200q155 172 155 436q0 250 -156 434q-120 143 -305 222q-48 20 -86 20q-54 0 -80 -46q-12 -21 -12 -43q0 -54 67 -95q320 -191 320 -494q0 -176 -89 -290
q-89 -115 -259 -142q-122 351 -297 627q49 82 82 128q31 42 31 85q0 60 -48 95q-33 24 -74 24q-56 0 -90 -45q-28 -39 -57 -90q-181 198 -323 198q-133 0 -213 -138q-72 -122 -72 -297q0 -276 281 -525q-46 -154 -78 -245q-13 -37 -13 -65q0 -55 52 -88q26 -17 58 -17
q77 0 104 73q19 52 53 185l8 30q188 -104 407 -137zM542 1032q-125 152 -125 303q0 98 36 156q20 32 46 32q48 0 107 -62q30 -32 80 -97q-83 -172 -144 -332zM997 768q-148 34 -281 114q54 143 115 265q94 -170 166 -379z" />
</svg>
