<svg xmlns="http://www.w3.org/2000/svg" viewBox="-10 0 1376 1745" width="1376" height="1745"><path d="M654 358h161q118 0 118 118T813 594q-9 0-28-1-52-3-135-4-24 0-42-1l-6 33-14 83-14 77-12 66-3 17q61-2 220-13 17-1 27-1 49 0 81 29 33 31 33 85 0 99-104 117-68 12-285 17-13 101-13 155 0 263 254 263 357 0 357-351 0-84-21-194-6-31-6-50 0-54 42-78 26-15 54-15 64 0 103 83 65 136 65 300 0 298-214 437-149 97-384 97-210 0-340-107-156-128-156-372 0-57 13-164-146 0-187-5-108-14-108-115 0-52 30-82t78-30q9 0 28 1 55 4 186 4 18-120 49-283h-18q-167 5-200 7-14 1-20 1-46 0-82-24-45-31-45-88 0-64 51-97 27-18 69-21 65-4 210-9 39-1 78-3 17-90 53-252Q481 0 578 0q25 0 44 5 82 22 82 107 0 20-8 54-37 166-42 192z" style="fill:currentColor"/></svg>