<svg xmlns="http://www.w3.org/2000/svg" viewBox="-10 0 1673 1708" width="1673" height="1708"><path d="M891 219q-46-44-133-92-47-27-47-62 0-21 14-39 21-26 66-26 39 0 103 21 134 44 205 120 51 54 51 116 0 41-21 72 68-14 132-14 156 0 262 72 140 94 140 273 0 184-133 278-107 75-281 75-94 0-137-15-72-25-72-94 0-73 98-73l63 2q93 0 149-36 65-43 65-127 0-52-35-91-47-51-124-51-108 0-283 68-96 36-310 132l-30 13q216 518 361 761 24 40 24 80 0 69-60 103-40 23-78 23-68 0-108-76-135-257-360-786l-17 8q-170 81-209 100-51 23-84 23-58 0-90-53-22-38-22-71 0-74 82-112 78-36 254-108-69-169-115-288-22-57-22-87 0-63 57-92 36-19 74-19 76 0 114 100 62 159 117 293 106-43 251-101 51-21 76-31 63-28 122-46-44-6-112-8-64-2-76-5-64-13-64-63 0-45 43-55 30-7 100-12z" style="fill:currentColor"/></svg>