<svg xmlns="http://www.w3.org/2000/svg" viewBox="-10 0 1653 1777" width="1653" height="1777"><path d="M252 870q208-451 608-569-12-120-20-162-3-17-3-31 0-75 72-99 26-9 60-9 87 0 104 88 10 49 25 188 241 17 381 141 164 145 164 401 0 313-218 498-163 140-407 152-76 169-203 266-57 43-106 43-34 0-57-24-28-27-28-59 0-40 51-93 69-73 120-178-104-44-165-112-41-46-41-92 0-33 23-56 26-24 59-24 39 0 89 37 45 33 88 50 23-163 25-487V528q-131 51-269 185-136 131-233 352-40 90-47 158-14 138-138 138-84 0-110-101-30-115-53-302-33-267-33-487 0-56 23-90 33-47 98-47 119 0 119 123l-1 98q0 149 17 315zm858-379q4 129 4 218 0 305-37 534 179-39 261-195 53-102 53-233 0-158-77-239-66-70-204-85z" style="fill:currentColor"/></svg>