<?xml version="1.0" standalone="no"?>
<!DOCTYPE svg PUBLIC "-//W3C//DTD SVG 1.1//EN" "http://www.w3.org/Graphics/SVG/1.1/DTD/svg11.dtd" >
<svg xmlns="http://www.w3.org/2000/svg" xmlns:xlink="http://www.w3.org/1999/xlink" version="1.1" viewBox="-10 0 2058 2048">
   <path fill="currentColor"
d="M457 995q208 -451 608 -569q-12 -120 -20 -162q-3 -17 -3 -31q0 -75 72 -99q26 -9 60 -9q87 0 104 88q10 49 25 188q241 17 381 141q164 145 164 401q0 313 -218 498q-163 140 -407 152q-76 169 -203 266q-57 43 -106 43q-34 0 -57 -24q-28 -27 -28 -59q0 -40 51 -93
q69 -73 120 -178q-104 -44 -165 -112q-41 -46 -41 -92q0 -33 23 -56q26 -24 59 -24q39 0 89 37q45 33 88 50q23 -163 25 -487v-45v-166q-131 51 -269 185q-136 131 -233 352q-40 90 -47 158q-14 138 -138 138q-84 0 -110 -101q-30 -115 -53 -302q-33 -267 -33 -487
q0 -56 23 -90q33 -47 98 -47q119 0 119 123l-1 98q0 149 17 315h6zM1315 616q4 129 4 218q0 305 -37 534q179 -39 261 -195q53 -102 53 -233q0 -158 -77 -239q-66 -70 -204 -85z" />
</svg>
