<svg xmlns="http://www.w3.org/2000/svg" viewBox="-10 0 1018 1686" width="1018" height="1686"><path d="M236 729q27-61 82-134 22-30 50-30 20 0 37 11 30 18 30 51 0 26-25 73-68 132-113 250-38 100-118 100-55 0-101-62-88-118-88-385 0-260 44-498Q54 0 154 0q62 0 96 36 27 29 27 74 0 16-7 58-42 237-42 426 0 92 8 135zM846 3q97 0 122 99 40 158 40 478 0 629-279 937-153 169-244 169-45 0-69-35-17-25-17-52 0-44 48-92 119-119 177-226 130-241 130-709 0-259-26-437-3-17-3-30Q725 3 846 3Z" style="fill:currentColor"/></svg>