<?xml version="1.0" standalone="no"?>
<!DOCTYPE svg PUBLIC "-//W3C//DTD SVG 1.1//EN" "http://www.w3.org/Graphics/SVG/1.1/DTD/svg11.dtd" >
<svg xmlns="http://www.w3.org/2000/svg" xmlns:xlink="http://www.w3.org/1999/xlink" version="1.1" viewBox="-10 0 2058 2048">
   <path fill="currentColor"
d="M1362 649q-288 179 -531 399q-88 80 -114 105l-1 43q-12 497 -10 538q1 29 1 33q0 146 -118 146q-68 0 -98 -45q-20 -31 -20 -109q0 -248 2 -373q-73 73 -142 150q-49 54 -98 54q-50 0 -88 -45q-29 -35 -29 -81q0 -44 36 -83q142 -153 331 -456l1 -8q3 -77 4 -119
q-203 78 -241 78q-75 0 -98 -66q-10 -29 -10 -58q0 -86 110 -106q79 -14 249 -69q15 -275 24 -318q18 -93 114 -93q120 0 120 122q0 48 -12 209q37 5 61 24q41 32 41 79q0 33 -27 70q-47 65 -88 133q-1 19 -2 56l-2 36q300 -269 565 -441q86 -56 157 -56q46 0 88 24
q73 42 73 126q0 16 -5 74q-42 447 -42 717q0 147 79 147q82 0 173 -139q28 -43 76 -43q27 0 51 16q31 22 31 63q0 47 -39 121q-50 93 -128 150q-97 70 -211 70q-142 0 -215 -108q-55 -82 -55 -223q0 -211 45 -738z" />
</svg>
