<?xml version="1.0" standalone="no"?>
<!DOCTYPE svg PUBLIC "-//W3C//DTD SVG 1.1//EN" "http://www.w3.org/Graphics/SVG/1.1/DTD/svg11.dtd" >
<svg xmlns="http://www.w3.org/2000/svg" xmlns:xlink="http://www.w3.org/1999/xlink" version="1.1" viewBox="-10 0 2058 2048">
   <path fill="currentColor"
d="M793 1022q234 -105 451 -105q202 0 324 97q132 107 132 297q0 325 -354 470q-154 63 -351 86q-39 4 -59 4q-113 0 -113 -93q0 -47 55 -75q18 -9 116 -32q206 -48 326 -136q118 -87 118 -207q0 -102 -61 -158t-177 -56q-307 0 -629 223q-55 38 -103 38q-55 0 -93 -49
q-26 -35 -26 -74q0 -44 31 -85q9 -11 65 -67q402 -397 622 -652q-301 67 -411 67q-111 0 -111 -119q0 -73 67 -101q26 -11 93 -15q291 -20 488 -67q26 -6 45 -6q65 0 111 48q41 42 41 95q0 48 -38 90q-300 331 -568 576z" />
</svg>
