<svg xmlns="http://www.w3.org/2000/svg" viewBox="-10 0 1351 1664" width="1351" height="1664"><path d="M434 815q234-105 451-105 202 0 324 97 132 107 132 297 0 325-354 470-154 63-351 86-39 4-59 4-113 0-113-93 0-47 55-75 18-9 116-32 206-48 326-136 118-87 118-207 0-102-61-158t-177-56q-307 0-629 223-55 38-103 38-55 0-93-49-26-35-26-74 0-44 31-85 9-11 65-67 402-397 622-652-301 67-411 67-111 0-111-119 0-73 67-101 26-11 93-15Q637 53 834 6q26-6 45-6 65 0 111 48 41 42 41 95 0 48-38 90-300 331-568 576z" style="fill:currentColor"/></svg>