<?xml version="1.0" standalone="no"?>
<!DOCTYPE svg PUBLIC "-//W3C//DTD SVG 1.1//EN" "http://www.w3.org/Graphics/SVG/1.1/DTD/svg11.dtd" >
<svg xmlns="http://www.w3.org/2000/svg" xmlns:xlink="http://www.w3.org/1999/xlink" version="1.1" viewBox="-10 0 2058 2048">
   <path fill="currentColor"
d="M549 565q9 -215 20 -298q14 -102 115 -102q121 0 121 124q0 7 -1 25q-7 92 -9 181q33 5 55 21q45 34 45 91q0 38 -29 77q-19 26 -56 84l-30 45l-1 24l-2 37l-2 37l-1 14q349 -258 639 -258q210 0 346 108q160 126 160 362q0 232 -149 394q-133 143 -357 201
q-50 13 -77 13q-94 0 -94 -91q0 -55 85 -87q113 -43 184 -103q156 -130 156 -318q0 -104 -60 -174q-78 -90 -216 -90q-246 0 -625 287l-1 42q-11 484 -10 525q1 28 1 31q0 146 -118 146q-69 0 -99 -45q-21 -31 -21 -110q0 -278 2 -382q-90 80 -146 137q-60 60 -107 60
q-43 0 -81 -40q-38 -41 -38 -87q0 -50 48 -92q62 -55 114 -124q74 -97 223 -337q3 -55 4 -103q-193 76 -257 76q-68 0 -94 -65q-11 -29 -11 -58q0 -82 113 -108q106 -25 261 -70z" />
</svg>
