<?xml version="1.0" standalone="no"?>
<!DOCTYPE svg PUBLIC "-//W3C//DTD SVG 1.1//EN" "http://www.w3.org/Graphics/SVG/1.1/DTD/svg11.dtd" >
<svg xmlns="http://www.w3.org/2000/svg" xmlns:xlink="http://www.w3.org/1999/xlink" version="1.1" viewBox="-10 0 2058 2048">
   <path fill="currentColor"
d="M887 1208q-269 211 -421 461l-24 36q-9 12 -18 28q-40 67 -112 67q-33 0 -66 -21q-59 -38 -59 -106q0 -40 53 -157q241 -531 623 -1239q44 -81 117 -81q45 0 86 30q48 35 48 89q0 36 -48 116q-175 294 -415 755l4 6q119 -124 244 -199q59 -35 107 -35q49 0 88 33
q47 41 47 106q0 19 -6 63q-5 43 -5 103q0 173 36 246q35 71 127 71q95 0 200 -88q111 -93 188 -245q30 -60 85 -60q30 0 58 18q40 26 40 76q0 65 -80 203q-83 145 -204 232q-144 104 -315 104q-261 0 -341 -225q-33 -94 -33 -296q0 -38 2 -85z" />
</svg>
