<svg xmlns="http://www.w3.org/2000/svg" xmlns:svg="http://www.w3.org/2000/svg" id="svg4" width="601" height="874" version="1.1" viewBox="-10 0 601 874"><path id="path2" fill="currentColor" d="m 503,288 q -95,54 -160,97 149,77 189,149 24,44 24,105 0,121 -101,186 -77,49 -190,49 Q 107,874 34,781 -10,724 -10,645 -10,557 69,482 110,444 177,400 66,346 36,281 20,245 20,196 20,100 104,44 170,0 265,0 q 179,0 288,171 20,32 36,67 2,6 2,17 -1,18 -20,32 -19,13 -39,13 -17,-1 -29,-12 z M 466,217 Q 401,95 289,82 q -12,-1 -23,-1 -95,0 -133,59 -15,26 -15,55 0,64 50,102 32,24 92,48 117,-74 206,-128 z M 262,439 q -125,75 -155,138 -14,31 -14,66 0,96 84,132 40,16 90,16 109,0 159,-67 27,-37 27,-84 0,-75 -66,-129 -45,-35 -125,-72 z"/></svg>