<svg xmlns="http://www.w3.org/2000/svg" xmlns:svg="http://www.w3.org/2000/svg" id="svg4" width="570" height="862" version="1.1" viewBox="-10 0 570 862"><path id="path2" fill="currentColor" d="m 141,88 -15,272 q 74,-58 163,-58 138,0 214,94 57,71 57,174 0,140 -96,223 -81,69 -198,69 Q 105,862 21,755 6,735 -5,714 q -5,-10 -5,-19 0,-30 33,-43 13,-5 27,-5 28,1 40,23 56,105 177,106 97,0 150,-76 37,-53 37,-126 0,-111 -78,-160 -42,-26 -96,-26 -83,1 -142,59 -22,21 -51,21 -53,-4 -56,-45 V 411 L 48,59 Q 50,16 88,4 99,0 110,0 h 363 q 36,7 40,44 -7,39 -40,44 z"/></svg>