<?xml version="1.0" encoding="UTF-8" standalone="no"?>
<svg
   version="1.1"
   viewBox="-10 0 639 862"
   id="svg4"
   sodipodi:docname="four-52.svg"
   width="639"
   height="862"
   inkscape:version="1.1.1 (3bf5ae0d25, 2021-09-20)"
   xmlns:inkscape="http://www.inkscape.org/namespaces/inkscape"
   xmlns:sodipodi="http://sodipodi.sourceforge.net/DTD/sodipodi-0.dtd"
   xmlns="http://www.w3.org/2000/svg"
   xmlns:svg="http://www.w3.org/2000/svg">
  <defs
     id="defs8" />
  <sodipodi:namedview
     id="namedview6"
     pagecolor="#ffffff"
     bordercolor="#111111"
     borderopacity="1"
     inkscape:pageshadow="0"
     inkscape:pageopacity="0"
     inkscape:pagecheckerboard="1"
     showgrid="false"
     inkscape:zoom="0.873"
     inkscape:cx="315.00573"
     inkscape:cy="511.45475"
     inkscape:window-width="2560"
     inkscape:window-height="1351"
     inkscape:window-x="-9"
     inkscape:window-y="-9"
     inkscape:window-maximized="0"
     inkscape:current-layer="svg4" />
  <path
     fill="currentColor"
     d="M 356,679 H 38 q -36,0 -46,-34 -2,-9 -2,-17 0,-18 12,-43 L 281,25 q 13,-24 39,-25 42,0 55,28 3,7 3,14 0,9 -5,20 L 100,596 H 356 V 318 q 0,-32 34,-40 8,-2 15,-2 37,0 47,27 3,8 3,15 v 278 h 135 q 36,5 39,41 -7,37 -39,42 H 455 v 141 q 0,31 -33,40 -9,2 -17,2 -37,0 -47,-28 -2,-7 -2,-14 z"
     id="path2" />
</svg>
