<?xml version="1.0" encoding="UTF-8" standalone="no"?>
<svg
   version="1.1"
   viewBox="-10 0 594 868"
   id="svg4"
   sodipodi:docname="nine-57.svg"
   width="594"
   height="868"
   inkscape:version="1.1.1 (3bf5ae0d25, 2021-09-20)"
   xmlns:inkscape="http://www.inkscape.org/namespaces/inkscape"
   xmlns:sodipodi="http://sodipodi.sourceforge.net/DTD/sodipodi-0.dtd"
   xmlns="http://www.w3.org/2000/svg"
   xmlns:svg="http://www.w3.org/2000/svg">
  <defs
     id="defs8" />
  <sodipodi:namedview
     id="namedview6"
     pagecolor="#ffffff"
     bordercolor="#111111"
     borderopacity="1"
     inkscape:pageshadow="0"
     inkscape:pageopacity="0"
     inkscape:pagecheckerboard="1"
     showgrid="false"
     inkscape:zoom="0.873"
     inkscape:cx="292.09622"
     inkscape:cy="517.18213"
     inkscape:window-width="2560"
     inkscape:window-height="1351"
     inkscape:window-x="-9"
     inkscape:window-y="-9"
     inkscape:window-maximized="0"
     inkscape:current-layer="svg4" />
  <path
     fill="currentColor"
     d="m 357,553 27,-68 Q 317,557 212,557 76,557 20,462 -10,412 -10,345 -10,196 91,96 188,0 326,0 q 141,1 236,92 22,23 22,44 0,18 -8,43 L 361,843 q -9,24 -39,25 -47,0 -56,-28 -2,-5 -2,-10 0,-9 4,-19 z M 432,314 482,157 Q 431,84 323,84 223,84 155,164 95,235 95,332 q 0,121 102,140 18,3 36,3 89,0 153,-77 31,-38 46,-84 z"
     id="path2" />
</svg>
