<svg xmlns="http://www.w3.org/2000/svg" xmlns:svg="http://www.w3.org/2000/svg" id="svg4" width="594" height="868" version="1.1" viewBox="-10 0 594 868"><path id="path2" fill="currentColor" d="m 357,553 27,-68 Q 317,557 212,557 76,557 20,462 -10,412 -10,345 -10,196 91,96 188,0 326,0 q 141,1 236,92 22,23 22,44 0,18 -8,43 L 361,843 q -9,24 -39,25 -47,0 -56,-28 -2,-5 -2,-10 0,-9 4,-19 z M 432,314 482,157 Q 431,84 323,84 223,84 155,164 95,235 95,332 q 0,121 102,140 18,3 36,3 89,0 153,-77 31,-38 46,-84 z"/></svg>