<svg xmlns="http://www.w3.org/2000/svg" xmlns:svg="http://www.w3.org/2000/svg" id="svg4" width="585" height="874" version="1.1" viewBox="-10 0 585 874"><path id="path2" fill="currentColor" d="m 398,404 v 4 q 176,51 177,209 0,121 -94,195 -80,62 -197,62 -210,-1 -289,-166 -5,-12 -5,-19 0,-30 34,-43 13,-4 25,-4 29,1 40,23 45,97 130,117 30,7 66,7 102,0 154,-70 30,-43 30,-97 -2,-165 -208,-166 h -54 q -24,0 -33,-27 -2,-9 -2,-17 0,-28 23,-39 7,-3 13,-3 h 54 q 176,-2 177,-154 0,-77 -63,-113 -34,-19 -78,-19 -102,0 -156,87 -6,9 -11,18 -12,22 -41,22 -41,0 -53,-28 -3,-7 -3,-15 1,-14 5,-22 Q 119,1 297,0 q 130,0 199,82 47,56 47,130 0,132 -111,180 -17,7 -34,12 z"/></svg>