<svg xmlns="http://www.w3.org/2000/svg" xmlns:svg="http://www.w3.org/2000/svg" id="svg4" width="573" height="862" version="1.1" viewBox="-10 0 573 862"><path id="path2" fill="currentColor" d="m 112,774 h 411 q 36,7 40,44 -7,39 -40,44 H 34 q -36,0 -43,-33 -1,-6 -1,-12 1,-28 18,-52 87,-123 266,-281 l 36,-32 q 95,-85 118,-139 15,-36 15,-82 0,-84 -67,-124 -37,-21 -84,-21 -119,1 -169,122 -15,33 -49,34 -48,0 -55,-35 -1,-5 -1,-9 0,-8 2,-13 Q 62,63 181,19 234,0 294,0 q 135,0 207,85 50,61 50,146 0,92 -52,161 -37,51 -121,122 l -39,33 Q 193,671 112,774 Z"/></svg>