<?xml version="1.0" encoding="UTF-8" standalone="no"?>
<svg
   version="1.1"
   viewBox="-10 0 600 874"
   id="svg4"
   sodipodi:docname="zero-48.svg"
   width="600"
   height="874"
   inkscape:version="1.1.1 (3bf5ae0d25, 2021-09-20)"
   xmlns:inkscape="http://www.inkscape.org/namespaces/inkscape"
   xmlns:sodipodi="http://sodipodi.sourceforge.net/DTD/sodipodi-0.dtd"
   xmlns="http://www.w3.org/2000/svg"
   xmlns:svg="http://www.w3.org/2000/svg">
  <defs
     id="defs8" />
  <sodipodi:namedview
     id="namedview6"
     pagecolor="#ffffff"
     bordercolor="#111111"
     borderopacity="1"
     inkscape:pageshadow="0"
     inkscape:pageopacity="0"
     inkscape:pagecheckerboard="1"
     showgrid="false"
     inkscape:zoom="0.873"
     inkscape:cx="295.53265"
     inkscape:cy="517.18213"
     inkscape:window-width="2560"
     inkscape:window-height="1351"
     inkscape:window-x="-9"
     inkscape:window-y="-9"
     inkscape:window-maximized="0"
     inkscape:current-layer="svg4" />
  <path
     fill="currentColor"
     d="m 298,0 q 214,0 272,237 20,82 20,188 0,253 -116,371 -77,78 -194,78 Q 64,874 8,629 -10,549 -10,447 -10,187 110,72 185,0 298,0 Z m -3,86 Q 169,86 121,247 96,330 96,445 97,787 281,788 402,788 454,640 484,553 484,428 484,104 314,87 304,86 295,86 Z"
     id="path2" />
</svg>
