<?xml version="1.0" encoding="UTF-8" standalone="no"?>
<svg
   version="1.1"
   viewBox="-10 0 501 562"
   id="svg4"
   sodipodi:docname="a-97.svg"
   width="501"
   height="562"
   inkscape:version="1.1.1 (3bf5ae0d25, 2021-09-20)"
   xmlns:inkscape="http://www.inkscape.org/namespaces/inkscape"
   xmlns:sodipodi="http://sodipodi.sourceforge.net/DTD/sodipodi-0.dtd"
   xmlns="http://www.w3.org/2000/svg"
   xmlns:svg="http://www.w3.org/2000/svg">
  <defs
     id="defs8" />
  <sodipodi:namedview
     id="namedview6"
     pagecolor="#ffffff"
     bordercolor="#111111"
     borderopacity="1"
     inkscape:pageshadow="0"
     inkscape:pageopacity="0"
     inkscape:pagecheckerboard="1"
     showgrid="false"
     inkscape:zoom="0.873"
     inkscape:cx="257.73196"
     inkscape:cy="205.61283"
     inkscape:window-width="2560"
     inkscape:window-height="1351"
     inkscape:window-x="-9"
     inkscape:window-y="-9"
     inkscape:window-maximized="0"
     inkscape:current-layer="svg4" />
  <path
     fill="currentColor"
     d="m 491,514 v 5 q -2,37 -49,38 -40,0 -47,-34 -1,-5 -2,-9 -4,-38 -6,-119 -54,137 -148,161 -25,6 -52,6 Q 71,562 20,464 -10,407 -10,328 -10,133 115,49 188,0 291,0 q 73,0 134,19 45,14 52,45 3,12 3,25 v 232 q 0,91 11,193 z M 384,138 V 105 Q 342,79 289,79 142,79 104,219 q -11,44 -11,98 0,154 93,166 7,1 14,1 82,-2 135,-125 49,-117 49,-221 z"
     id="path2" />
</svg>
