<?xml version="1.0" encoding="UTF-8" standalone="no"?>
<svg
   version="1.1"
   viewBox="-10 0 466 562"
   id="svg4"
   sodipodi:docname="c-99.svg"
   width="466"
   height="562"
   inkscape:version="1.1.1 (3bf5ae0d25, 2021-09-20)"
   xmlns:inkscape="http://www.inkscape.org/namespaces/inkscape"
   xmlns:sodipodi="http://sodipodi.sourceforge.net/DTD/sodipodi-0.dtd"
   xmlns="http://www.w3.org/2000/svg"
   xmlns:svg="http://www.w3.org/2000/svg">
  <defs
     id="defs8" />
  <sodipodi:namedview
     id="namedview6"
     pagecolor="#ffffff"
     bordercolor="#111111"
     borderopacity="1"
     inkscape:pageshadow="0"
     inkscape:pageopacity="0"
     inkscape:pagecheckerboard="1"
     showgrid="false"
     inkscape:zoom="0.873"
     inkscape:cx="216.49485"
     inkscape:cy="205.61283"
     inkscape:window-width="2560"
     inkscape:window-height="1351"
     inkscape:window-x="-9"
     inkscape:window-y="-9"
     inkscape:window-maximized="0"
     inkscape:current-layer="svg4" />
  <path
     fill="currentColor"
     d="m 456,453 q -1,17 -13,31 -72,78 -197,78 Q 107,562 38,462 -10,391 -10,286 -10,139 88,58 160,0 257,0 q 121,1 187,85 10,12 10,27 0,27 -32,39 -12,4 -24,4 -19,-1 -35,-21 -43,-56 -106,-56 -92,0 -136,81 -28,53 -28,126 0,145 93,186 30,13 65,13 67,0 110,-47 4,-5 8,-9 16,-17 35,-18 30,0 46,25 6,10 6,18 z"
     id="path2" />
</svg>
