<?xml version="1.0" encoding="UTF-8" standalone="no"?>
<svg
   version="1.1"
   viewBox="-10 0 136 779"
   id="svg4"
   sodipodi:docname="i-105.svg"
   width="136"
   height="779"
   inkscape:version="1.1.1 (3bf5ae0d25, 2021-09-20)"
   xmlns:inkscape="http://www.inkscape.org/namespaces/inkscape"
   xmlns:sodipodi="http://sodipodi.sourceforge.net/DTD/sodipodi-0.dtd"
   xmlns="http://www.w3.org/2000/svg"
   xmlns:svg="http://www.w3.org/2000/svg">
  <defs
     id="defs8" />
  <sodipodi:namedview
     id="namedview6"
     pagecolor="#ffffff"
     bordercolor="#111111"
     borderopacity="1"
     inkscape:pageshadow="0"
     inkscape:pageopacity="0"
     inkscape:pagecheckerboard="1"
     showgrid="false"
     inkscape:zoom="0.873"
     inkscape:cx="65.292096"
     inkscape:cy="427.83505"
     inkscape:window-width="2560"
     inkscape:window-height="1351"
     inkscape:window-x="-9"
     inkscape:window-y="-9"
     inkscape:window-maximized="0"
     inkscape:current-layer="svg4" />
  <path
     fill="currentColor"
     d="M 9,735 V 271 q 0,-34 35,-42 8,-2 16,-2 40,0 48,31 2,7 2,13 v 464 q 0,35 -36,42 -7,2 -14,2 -39,0 -49,-30 -2,-7 -2,-14 z M 60,0 q 45,0 61,40 5,14 5,29 0,45 -38,61 -13,6 -28,6 Q 14,136 -4,98 -10,84 -10,69 -10,23 30,6 44,0 60,0 Z"
     id="path2" />
</svg>
