<svg xmlns="http://www.w3.org/2000/svg" xmlns:svg="http://www.w3.org/2000/svg" id="svg4" width="418" height="1104" version="1.1" viewBox="-178 0 418 1104"><path id="path2" fill="currentColor" d="M 121,904 V 271 q 0,-35 36,-42 7,-2 14,-2 39,0 49,30 2,7 2,14 v 627 q 0,123 -90,176 -50,30 -118,30 -132,-1 -183,-88 -9,-17 -9,-28 0,-28 33,-39 12,-4 23,-4 25,1 38,24 34,55 99,56 81,0 101,-76 5,-21 5,-45 z M 174,0 q 45,0 61,40 5,14 5,29 0,45 -38,61 -13,6 -28,6 -46,0 -64,-38 -6,-14 -6,-29 0,-46 40,-63 14,-6 30,-6 z"/></svg>