<svg xmlns="http://www.w3.org/2000/svg" xmlns:svg="http://www.w3.org/2000/svg" id="svg4" width="811" height="557" version="1.1" viewBox="-10 0 811 557"><path id="path2" fill="currentColor" d="m 90,49 v 94 Q 152,1 269,0 386,0 426,90 437,115 441,143 503,1 620,0 q 145,0 170,124 4,23 4,48 v 202 q 0,74 7,138 v 4 q -8,37 -51,41 -49,-2 -53,-43 -5,-57 -5,-132 V 191 Q 683,83 610,78 q -70,1 -117,85 -52,95 -52,197 v 153 q 0,35 -36,42 -7,2 -14,2 -40,0 -48,-31 -2,-7 -2,-13 V 191 Q 332,83 259,78 191,79 143,163 90,257 90,360 v 153 q 0,35 -36,42 -7,2 -14,2 -40,0 -48,-31 -2,-7 -2,-13 V 49 q 0,-35 36,-42 7,-2 14,-2 40,0 48,31 2,7 2,13 z"/></svg>