<?xml version="1.0" encoding="UTF-8" standalone="no"?>
<svg
   version="1.1"
   viewBox="-10 0 520 562"
   id="svg4"
   sodipodi:docname="o-111.svg"
   width="520"
   height="562"
   inkscape:version="1.1.1 (3bf5ae0d25, 2021-09-20)"
   xmlns:inkscape="http://www.inkscape.org/namespaces/inkscape"
   xmlns:sodipodi="http://sodipodi.sourceforge.net/DTD/sodipodi-0.dtd"
   xmlns="http://www.w3.org/2000/svg"
   xmlns:svg="http://www.w3.org/2000/svg">
  <defs
     id="defs8" />
  <sodipodi:namedview
     id="namedview6"
     pagecolor="#ffffff"
     bordercolor="#111111"
     borderopacity="1"
     inkscape:pageshadow="0"
     inkscape:pageopacity="0"
     inkscape:pagecheckerboard="1"
     showgrid="false"
     inkscape:zoom="0.873"
     inkscape:cx="254.29553"
     inkscape:cy="205.61283"
     inkscape:window-width="2560"
     inkscape:window-height="1351"
     inkscape:window-x="-9"
     inkscape:window-y="-9"
     inkscape:window-maximized="0"
     inkscape:current-layer="svg4" />
  <path
     fill="currentColor"
     d="m 257,0 q 138,0 206,101 47,70 47,174 0,148 -97,229 -71,58 -168,58 Q 110,562 40,464 -10,392 -10,286 -10,139 88,58 160,0 257,0 Z m 0,77 q -92,0 -136,82 -28,52 -28,126 0,158 101,192 24,8 52,8 93,0 136,-86 25,-51 25,-123 0,-171 -114,-195 -17,-4 -36,-4 z"
     id="path2" />
</svg>
