<svg xmlns="http://www.w3.org/2000/svg" xmlns:svg="http://www.w3.org/2000/svg" id="svg4" width="512" height="877" version="1.1" viewBox="-10 0 512 877"><path id="path2" fill="currentColor" d="m 90,49 v 89 Q 159,1 285,0 q 119,0 178,92 39,62 39,150 0,210 -129,286 -60,34 -139,34 -83,-1 -144,-60 v 331 q 0,35 -36,42 -7,2 -14,2 -40,0 -48,-31 -2,-7 -2,-13 V 49 q 0,-35 36,-42 7,-2 14,-2 40,0 48,31 2,7 2,13 z m 0,317 v 46 q 34,50 103,68 21,5 41,5 112,0 148,-119 16,-51 16,-119 0,-131 -79,-161 -19,-7 -42,-7 -83,1 -136,94 -51,90 -51,193 z"/></svg>