<svg xmlns="http://www.w3.org/2000/svg" xmlns:svg="http://www.w3.org/2000/svg" id="svg4" width="473" height="557" version="1.1" viewBox="-10 0 473 557"><path id="path2" fill="currentColor" d="m 463,507 v 4 q 0,35 -39,40 -6,1 -11,1 -48,-2 -52,-43 -1,-17 -6,-95 -57,129 -164,142 -11,1 -22,1 -154,0 -176,-130 -3,-20 -3,-42 V 44 q 0,-34 35,-42 8,-2 16,-2 39,0 49,29 3,8 3,15 v 322 q 4,110 86,113 73,-1 122,-85 55,-94 55,-197 V 44 q 0,-35 36,-42 7,-2 14,-2 40,0 48,31 2,7 2,13 v 325 q 0,74 7,138 z"/></svg>