<svg xmlns="http://www.w3.org/2000/svg" xmlns:svg="http://www.w3.org/2000/svg" id="svg4" width="783" height="552" version="1.1" viewBox="-10 0 783 552"><path id="path2" fill="currentColor" d="M 228,352 308,51 q 22,-46 72,-51 55,0 70,44 1,4 2,7 l 74,300 q 6,21 14,67 6,30 9,44 h 5 q 5,-17 13,-53 9,-40 14,-58 L 674,30 q 9,-29 40,-30 46,0 57,28 2,6 2,11 0,8 -4,18 L 619,504 q -17,47 -71,48 -57,-1 -70,-49 L 407,225 q -6,-24 -17,-77 -8,-33 -11,-48 h -5 q -11,61 -29,125 l -79,280 q -14,46 -71,47 -55,-1 -70,-50 L -7,59 Q -10,50 -10,41 -10,10 30,2 39,0 49,0 82,1 90,30 l 86,321 q 8,31 23,111 h 5 q 4,-17 11,-52 8,-40 13,-58 z"/></svg>