<?xml version="1.0" encoding="UTF-8" standalone="no"?>
<svg
   version="1.1"
   viewBox="-10 0 471 552"
   id="svg4"
   sodipodi:docname="x-120.svg"
   width="471"
   height="552"
   inkscape:version="1.1.1 (3bf5ae0d25, 2021-09-20)"
   xmlns:inkscape="http://www.inkscape.org/namespaces/inkscape"
   xmlns:sodipodi="http://sodipodi.sourceforge.net/DTD/sodipodi-0.dtd"
   xmlns="http://www.w3.org/2000/svg"
   xmlns:svg="http://www.w3.org/2000/svg">
  <defs
     id="defs8" />
  <sodipodi:namedview
     id="namedview6"
     pagecolor="#ffffff"
     bordercolor="#111111"
     borderopacity="1"
     inkscape:pageshadow="0"
     inkscape:pageopacity="0"
     inkscape:pagecheckerboard="1"
     showgrid="false"
     inkscape:zoom="0.873"
     inkscape:cx="230.24055"
     inkscape:cy="201.03093"
     inkscape:window-width="2560"
     inkscape:window-height="1351"
     inkscape:window-x="-9"
     inkscape:window-y="-9"
     inkscape:window-maximized="0"
     inkscape:current-layer="svg4" />
  <path
     fill="currentColor"
     d="m 285,269 168,213 q 8,10 8,22 0,26 -31,41 -14,7 -27,7 -18,-1 -31,-17 L 222,337 77,534 q -14,18 -36,18 -29,0 -45,-26 -6,-10 -6,-19 1,-14 9,-26 L 165,270 9,73 Q -1,60 -1,47 -1,22 30,7 44,0 57,0 75,1 86,14 L 228,203 366,18 q 15,-17 33,-18 31,0 49,25 7,11 7,20 -1,14 -9,25 z"
     id="path2" />
</svg>
