<svg xmlns="http://www.w3.org/2000/svg" viewBox="0 0 77.953 77.952"><defs><style>.cls-3{fill:#939598}</style></defs><g id="Layer_2" data-name="Layer 2"><g id="Layer_1-2" data-name="Layer 1"><path d="M75.827 38.976a36.85 36.85 0 1 1-36.85-36.85 36.85 36.85 0 0 1 36.85 36.85" style="fill:#fff"/><path d="M75.827 38.976a36.85 36.85 0 1 1-36.85-36.85 36.85 36.85 0 0 1 36.85 36.85Z" style="stroke-width:4.252px;stroke-miterlimit:10;stroke:#00aeef;fill:none"/><path class="cls-3" d="M41.498 10.88a2.522 2.522 0 1 1-2.52-2.522 2.522 2.522 0 0 1 2.52 2.522M41.498 67.073a2.522 2.522 0 1 1-2.52-2.522 2.522 2.522 0 0 1 2.52 2.521M27.111 13.386a2.52 2.52 0 1 1-3.444-.925 2.518 2.518 0 0 1 3.444.924M55.208 62.046a2.521 2.521 0 1 1-3.444-.92 2.52 2.52 0 0 1 3.443.92M15.905 22.744a2.52 2.52 0 1 1-3.445.923 2.521 2.521 0 0 1 3.445-.923M64.569 50.841a2.52 2.52 0 1 1-3.444.923 2.52 2.52 0 0 1 3.444-.923M10.88 36.454a2.522 2.522 0 1 1-2.521 2.522 2.522 2.522 0 0 1 2.522-2.522M67.074 36.454a2.522 2.522 0 1 1-2.522 2.522 2.522 2.522 0 0 1 2.522-2.522M13.384 50.841a2.52 2.52 0 1 1-.924 3.443 2.52 2.52 0 0 1 .924-3.443M62.05 22.744a2.52 2.52 0 1 1-.925 3.443 2.52 2.52 0 0 1 .924-3.443M22.745 62.046a2.521 2.521 0 1 1 .922 3.445 2.522 2.522 0 0 1-.922-3.445M50.842 13.386a2.52 2.52 0 1 1 .922 3.442 2.52 2.52 0 0 1-.922-3.442"/><path style="stroke:#231f20;stroke-width:4.252px;fill:none" d="M38.977 18.165v20.811"/><path style="stroke-width:2.835px;stroke:#231f20;fill:none" d="M38.977 38.976V14.493"/><path d="M42.425 38.976a3.448 3.448 0 1 1-3.448-3.448 3.452 3.452 0 0 1 3.448 3.448" style="fill:#1c75bc"/><circle cx="38.977" cy="38.976" r="3.448" style="stroke:#fff;stroke-width:.709px;stroke-miterlimit:10;fill:none"/></g></g></svg>