<svg xmlns="http://www.w3.org/2000/svg" width="585" height="874" viewBox="-10 0 585 874"><path d="M398 404v4q176 51 177 209 0 121-94 195-80 62-197 62Q74 873-5 708q-5-12-5-19 0-30 34-43 13-4 25-4 29 1 40 23 45 97 130 117 30 7 66 7 102 0 154-70 30-43 30-97-2-165-208-166h-54q-24 0-33-27-2-9-2-17 0-28 23-39 7-3 13-3h54q176-2 177-154 0-77-63-113-34-19-78-19-102 0-156 87-6 9-11 18-12 22-41 22-41 0-53-28-3-7-3-15 1-14 5-22Q119 1 297 0q130 0 199 82 47 56 47 130 0 132-111 180-17 7-34 12z" style="fill:currentColor"/></svg>