<svg xmlns="http://www.w3.org/2000/svg" id="Layer_1" data-name="Layer 1" viewBox="0 0 103.123 154.32"><defs><style>.cls-1{fill:#fcdcd3}.cls-2,.cls-8{fill:none;stroke:#231f20;stroke-linecap:round;stroke-linejoin:round}.cls-2{stroke-width:1.001px}.cls-3{fill:#ffeebc}.cls-4{fill:#faaf40}.cls-5{fill:#80c9ef}.cls-6{fill:#929497}.cls-8{stroke-width:.429px}.cls-11{fill:#e1b970}.cls-12{fill:#fbd9d2}.cls-13{fill:#fbd6d2}.cls-14{fill:#fbd3d0}.cls-15{fill:#fad0cf}.cls-16{fill:#facdcf}.cls-17{fill:#f9c9ce}.cls-18{fill:#f9c6cd}.cls-19{fill:#f8c3cc}.cls-20{fill:#f8c0cb}</style></defs><path d="M6.134 75.885a35.435 35.435 0 0 1-5.345-3.94c-1.026-1.027.878-2.11 2.645-1.297a11.55 11.55 0 0 1 3.133 2.255Z" class="cls-1"/><path d="M6.134 75.885a35.435 35.435 0 0 1-5.345-3.94c-1.026-1.027.878-2.11 2.645-1.297a11.55 11.55 0 0 1 3.133 2.255Z" class="cls-2"/><path d="M10.803 85.709s-5.86-10.055-6.034-12.323c-.303-3.928 3.172-11.482 5.252-11.065.255.05.63.564.63.564a2.072 2.072 0 0 1 1.999-.97c.353.08.516.98.516.98a1.725 1.725 0 0 1 2.055.054c.92.53.435 2.525.435 2.525s2.477-.055 1.452 2.688c-.623 1.669-1.689 4.166-1.16 5.526s6.31 4.865 4.187 11.769c-1.009 3.279 2.774 9.08 5.801 14.882l-6.053 2.774Z" class="cls-1"/><path d="M10.803 85.709s-5.86-10.055-6.034-12.323c-.303-3.928 3.172-11.482 5.252-11.065.255.05.63.564.63.564a2.072 2.072 0 0 1 1.999-.97c.353.08.516.98.516.98a1.725 1.725 0 0 1 2.055.054c.92.53.435 2.525.435 2.525s2.477-.055 1.452 2.688c-.623 1.669-1.689 4.166-1.16 5.526s6.31 4.865 4.187 11.769c-1.009 3.279 2.774 9.08 5.801 14.882l-6.053 2.774Z" class="cls-2"/><path d="M10.373 63.09s-3.4 6.966-2.98 9.542m8.002-7.229s-2.922 6.033-2.502 8.607m.255-10.84s-3.313 7.27-2.895 9.845" class="cls-2"/><path d="M14.082 96.555c.756 0 9.585-4.792 9.585-4.792l11.097 14.125s7.387-13.68 10.342-20.18c3.783-8.323 7.567-7.818 7.567-7.818L51.16 98.825s-9.585 24.214-18.917 19.422-18.161-21.692-18.161-21.692" class="cls-3"/><path d="M14.082 96.555c.756 0 9.585-4.792 9.585-4.792l11.097 14.125s7.387-13.68 10.342-20.18c3.783-8.323 7.567-7.818 7.567-7.818L51.16 98.825s-9.585 24.214-18.917 19.422-18.162-21.692-18.162-21.692Z" class="cls-2"/><path d="m50.396 78.392 11.599-4.478s11.639-3.047 19.178-.748c5.25 1.603 6.21 2.642 8.815 3.91a34.365 34.365 0 0 1 4.164 2.557 126.98 126.98 0 0 0-5.386 21.692c-1.608 11.16 3.379 32.332 3.357 35.51-.018 3.176-43.906.96-43.906.96s.418-24.303.48-33.83c.064-10.215.48-11.517 1.699-25.573" class="cls-3"/><path d="m50.396 78.392 11.599-4.478s11.639-3.047 19.178-.748c5.25 1.603 6.21 2.642 8.815 3.91a34.365 34.365 0 0 1 4.164 2.557 126.98 126.98 0 0 0-5.386 21.692c-1.608 11.16 3.379 32.332 3.357 35.51-.018 3.176-43.906.96-43.906.96s.418-24.303.48-33.83c.064-10.215.48-11.517 1.699-25.573Z" class="cls-2"/><path d="M62.37 65.545s1.682 4.778.286 6.942c-1.673 2.592-5.752 3.313-5.752 3.313s.148 4.613 11.036 4.078c7.105-.35 14.396-6.478 14.396-6.478s-5.864-.894-6.577-3.213c-.714-2.321-.537-7.855-.537-7.855Z" class="cls-1"/><path d="M62.37 65.545s1.682 4.778.286 6.942c-1.673 2.592-5.752 3.313-5.752 3.313s.148 4.613 11.036 4.078c7.105-.35 14.396-6.478 14.396-6.478s-5.864-.894-6.577-3.213c-.714-2.321-.537-7.855-.537-7.855Z" class="cls-2"/><path class="cls-4" d="m45.482 128.761 5.849-36.709 26.691.292 7.133 36.15-39.673.267z"/><path class="cls-2" d="m45.482 128.761 5.849-36.709 26.691.292 7.133 36.15-39.673.267z"/><path d="m53.741 100.81 19.465-.406s1.64 13.103-1.384 15.22c-3.02 2.116-16.294 1.445-17.568-1.016s-.513-13.799-.513-13.799" class="cls-4"/><path d="m53.741 100.81 19.465-.406s1.64 13.103-1.384 15.22c-3.02 2.116-16.294 1.445-17.568-1.016s-.513-13.799-.513-13.799Z" class="cls-2"/><path class="cls-5" d="m65.661 101.307-.31 15.305"/><path class="cls-2" d="m65.661 101.307-.31 15.305"/><path class="cls-5" d="m69.661 100.71-.31 15.307"/><path class="cls-2" d="m69.661 100.71-.31 15.307"/><path class="cls-4" d="m44.822 126.64 45.339.499 3.194 25.476-52.331-.238 3.798-25.737z"/><path class="cls-2" d="m44.822 126.64 45.339.499 3.194 25.476-52.331-.238 3.798-25.737z"/><path d="m83.09 73.408 5.384 2.299s-8.174 9.055-8.907 13.899a23.145 23.145 0 0 1-4.747-.88c1.272-5.238 8.27-15.318 8.27-15.318" class="cls-4"/><path d="m83.09 73.408 5.384 2.299s-8.174 9.055-8.907 13.899a23.145 23.145 0 0 1-4.747-.88c1.272-5.238 8.27-15.318 8.27-15.318Z" class="cls-2"/><path d="M73.541 89.622a1.474 1.474 0 0 1 1.903-.885l2.92 1.236a1.52 1.52 0 0 1 .726 1.998 1.473 1.473 0 0 1-1.873.893 2.197 2.197 0 0 1-.148 1.021 1.923 1.923 0 0 1-2.484 1.157 1.984 1.984 0 0 1-.948-2.608 2.118 2.118 0 0 1 .605-.828 1.522 1.522 0 0 1-.701-1.984Z" class="cls-2"/><path d="M72.827 95.205a1.962 1.962 0 0 0 1.702 2.154 1.905 1.905 0 0 0 1.974-1.858 1.963 1.963 0 0 0-1.703-2.154 1.9 1.9 0 0 0-1.973 1.858" class="cls-6"/><path d="M72.827 95.205a1.962 1.962 0 0 0 1.702 2.154 1.905 1.905 0 0 0 1.974-1.858 1.963 1.963 0 0 0-1.703-2.154 1.9 1.9 0 0 0-1.973 1.858Z" class="cls-2"/><path class="cls-6" d="m74.124 88.978 5.258 2.223.621-1.522-5.259-2.223-.62 1.522z"/><path class="cls-2" d="m74.124 88.978 5.258 2.223.621-1.522-5.259-2.223-.62 1.522z"/><path d="m50.645 77.91 4.943-1.763c-1.176 8.86-1.268 10.478-.783 12.871a19.105 19.105 0 0 1-4.258.097c-.244-6.068.098-11.206.098-11.206" class="cls-4"/><path d="m50.645 77.91 4.943-1.763c-1.176 8.86-1.268 10.478-.783 12.871a19.105 19.105 0 0 1-4.258.097c-.244-6.068.098-11.206.098-11.206Z" class="cls-2"/><path d="M50.786 90.495c-.02-.859.431-1.569 1.01-1.585l2.325-.065c.577-.016 1.062.67 1.083 1.528.022.85-.42 1.548-.987 1.581a2.808 2.808 0 0 1 .207.993c.027 1.122-.563 2.05-1.315 2.07-.757.018-1.39-.873-1.417-1.995a2.748 2.748 0 0 1 .158-1c-.569-.003-1.043-.678-1.064-1.527Z" class="cls-2"/><path d="M51.878 95.732c.28 1.041 1.078 1.611 1.784 1.27a2.182 2.182 0 0 0 .764-2.5c-.281-1.04-1.079-1.61-1.784-1.272a2.181 2.181 0 0 0-.764 2.502" class="cls-6"/><path d="M51.878 95.732c.28 1.041 1.078 1.611 1.784 1.27a2.182 2.182 0 0 0 .764-2.5c-.281-1.04-1.079-1.61-1.784-1.272a2.181 2.181 0 0 0-.764 2.502Z" class="cls-2"/><path class="cls-6" d="m50.59 89.518 4.185-.116-.039-1.64-4.186.114.04 1.642z"/><path class="cls-2" d="m50.59 89.518 4.185-.116-.039-1.64-4.186.114.04 1.642z"/><path style="fill:#e2dddb" d="m43.836 130.411 45.363.936"/><path class="cls-8" d="m43.836 130.411.714.015"/><path style="stroke-dasharray:1.418 1.418;stroke-width:.429px;fill:none;stroke:#231f20;stroke-linecap:round;stroke-linejoin:round" d="m45.968 130.455 41.808.862"/><path class="cls-8" d="m88.484 131.333.715.014"/><path d="M46.189 27.697a138.616 138.616 0 0 1-.611 16.844c-.826 10.056 4.24 15.4 10.492 18.932 4.878 2.754 8.29 5.39 15.096 3.056 8.83-3.028 16.517-9.997 17.665-17.964 1.183-8.209 6.448-8.9 4.839-21.889-1.023-8.256-7.417-18.892-21.928-20.67a22.488 22.488 0 0 0-25.553 21.691" class="cls-1"/><path d="M46.189 27.697a138.616 138.616 0 0 1-.611 16.844c-.826 10.056 4.24 15.4 10.492 18.932 4.878 2.754 8.29 5.39 15.096 3.056 8.83-3.028 16.517-9.997 17.665-17.964 1.183-8.209 6.448-8.9 4.839-21.889-1.023-8.256-7.417-18.892-21.928-20.67a22.488 22.488 0 0 0-25.553 21.691Z" class="cls-2"/><path d="M63.485 41.372c.15 1.397.108 2.791-.685 2.694-1.563-.192-1.989-.423-1.922.897a6.886 6.886 0 0 0 1.625 3.371" class="cls-2"/><path d="M56.434 40.545c-.295 2.403-1.332 4.255-2.32 4.134s-1.546-2.168-1.253-4.572c.296-2.404 1.334-4.256 2.32-4.135s1.548 2.168 1.253 4.573m21.62 1.97c-.294 2.405-1.332 4.256-2.32 4.137-.984-.122-1.546-2.17-1.251-4.575s1.332-4.254 2.318-4.133 1.548 2.166 1.253 4.57" style="fill:#231f20"/><path d="M58.038 15.114A20.028 20.028 0 0 0 62.17 26.36c4.953 6.541 9.626 9.142 20.575 13.72l-5.878-24.584s13.878 20.501 10.581 35.002c-1.948 8.572-3.293 10.746-7.67 14.167a19.659 19.659 0 0 1-6.711 3.353 31.714 31.714 0 0 0 13.228-.878c7.743-2.256 20.937-11.725 14.706-36.329C96.376 12.539 91.126 2.996 74.632.722 60.83-1.179 43.643 9.014 37.85 36.586c-3.665 17.446 3.287 23.186 9.517 26.646a19.053 19.053 0 0 0 7.728 2.296 26.41 26.41 0 0 1-5.035-5.202c-8.646-10.763-6.763-19.371-3.816-27.282 3.094-8.311 11.794-17.93 11.794-17.93" class="cls-11"/><path d="M58.038 15.114A20.028 20.028 0 0 0 62.17 26.36c4.953 6.541 9.626 9.142 20.575 13.72l-5.878-24.584s13.878 20.501 10.581 35.002c-1.948 8.572-3.293 10.746-7.67 14.167a19.659 19.659 0 0 1-6.711 3.353 31.714 31.714 0 0 0 13.228-.878c7.743-2.256 20.937-11.725 14.706-36.329C96.376 12.539 91.126 2.996 74.632.722 60.83-1.179 43.643 9.014 37.85 36.586c-3.665 17.446 3.287 23.186 9.517 26.646a19.053 19.053 0 0 0 7.728 2.296 26.41 26.41 0 0 1-5.035-5.202c-8.646-10.763-6.763-19.371-3.816-27.282 3.093-8.31 11.794-17.93 11.794-17.93Z" class="cls-2"/><path d="M46.877 51.966c1.763 3.803-5.252-1.514-6.683-5.296-1.433-3.778-.734-7.464 1.497-8.392a3.165 3.165 0 0 1 3.957 1.18s-.535 8.705 1.23 12.508" class="cls-1"/><path d="M46.877 51.966c1.763 3.803-5.252-1.514-6.683-5.296-1.433-3.778-.734-7.464 1.497-8.392a3.165 3.165 0 0 1 3.957 1.18s-.535 8.705 1.23 12.508Z" class="cls-2"/><path d="M48.108 20.331s-4.845 7.348-5.869 19.577C40.901 55.871 53.25 61.45 53.25 61.45s-8.346-4.899-6.098-17.923c2.494-14.44 10.886-28.412 10.886-28.412" class="cls-11"/><path d="M48.108 20.331s-4.845 7.348-5.869 19.577C40.901 55.871 53.25 61.45 53.25 61.45s-8.346-4.899-6.098-17.923c2.494-14.44 10.886-28.412 10.886-28.412" class="cls-2"/><path d="M88.208 54.85c-2.627 3.265 5.462-.203 7.764-3.525s2.513-7.068.572-8.507a3.167 3.167 0 0 0-4.126.195s-1.582 8.573-4.21 11.837" class="cls-1"/><path d="M88.208 54.85c-2.627 3.265 5.462-.203 7.764-3.525s2.513-7.068.572-8.507a3.167 3.167 0 0 0-4.126.195s-1.582 8.573-4.21 11.837Z" class="cls-2"/><path d="M93.105 26.92s1.023 7.712-.933 19.83C89.619 62.561 76.29 64.994 76.29 64.994s6.645-3.992 8.152-17.123c1.709-14.885-7.344-32.526-7.344-32.526" class="cls-11"/><path d="M93.105 26.92s1.023 7.712-.933 19.83C89.619 62.561 76.29 64.994 76.29 64.994s6.645-3.992 8.152-17.123c1.709-14.885-7.344-32.526-7.344-32.526" class="cls-2"/><path d="M55.877 49.825a3.763 3.763 0 1 1-3.278-4.191 3.763 3.763 0 0 1 3.278 4.19" class="cls-1"/><path d="M51.711 52.897A3.554 3.554 0 1 1 55.67 49.8a3.554 3.554 0 0 1-3.959 3.097" class="cls-12"/><path d="M51.736 52.689a3.345 3.345 0 1 1 3.726-2.915 3.345 3.345 0 0 1-3.726 2.915" class="cls-13"/><path d="M51.761 52.481a3.136 3.136 0 1 1 3.494-2.73 3.137 3.137 0 0 1-3.494 2.73" class="cls-14"/><path d="M51.787 52.274a2.927 2.927 0 1 1 3.26-2.55 2.928 2.928 0 0 1-3.26 2.55" class="cls-15"/><path d="M51.813 52.066a2.718 2.718 0 1 1 3.026-2.368 2.718 2.718 0 0 1-3.026 2.368" class="cls-16"/><path d="M51.838 51.858a2.509 2.509 0 1 1 2.795-2.184 2.51 2.51 0 0 1-2.795 2.184" class="cls-17"/><path d="M51.863 51.651a2.3 2.3 0 1 1 2.563-2.003 2.3 2.3 0 0 1-2.563 2.003" class="cls-18"/><path d="M51.888 51.444a2.091 2.091 0 1 1 2.33-1.822 2.095 2.095 0 0 1-2.33 1.822" class="cls-19"/><path d="M54.01 49.598a1.882 1.882 0 1 1-1.64-2.096 1.88 1.88 0 0 1 1.64 2.096" class="cls-20"/><path d="M82.3 51.217a3.763 3.763 0 1 1-3.279-4.192 3.762 3.762 0 0 1 3.279 4.192" class="cls-1"/><path d="M78.132 54.286a3.553 3.553 0 1 1 3.961-3.094 3.55 3.55 0 0 1-3.96 3.094" class="cls-12"/><path d="M78.158 54.079a3.345 3.345 0 1 1 3.727-2.914 3.344 3.344 0 0 1-3.727 2.914" class="cls-13"/><path d="M78.184 53.871a3.135 3.135 0 1 1 3.494-2.73 3.132 3.132 0 0 1-3.494 2.73" class="cls-14"/><path d="M78.21 53.663a2.926 2.926 0 1 1 3.26-2.547 2.925 2.925 0 0 1-3.26 2.547" class="cls-15"/><path d="M78.235 53.456a2.718 2.718 0 1 1 3.029-2.366 2.715 2.715 0 0 1-3.03 2.366" class="cls-16"/><path d="M78.26 53.25a2.509 2.509 0 1 1 2.796-2.185 2.506 2.506 0 0 1-2.796 2.185" class="cls-17"/><path d="M78.285 53.042a2.3 2.3 0 1 1 2.563-2.003 2.297 2.297 0 0 1-2.563 2.003" class="cls-18"/><path d="M78.31 52.834a2.09 2.09 0 1 1 2.332-1.821 2.09 2.09 0 0 1-2.331 1.82" class="cls-19"/><path d="M80.433 50.987a1.882 1.882 0 1 1-1.641-2.096 1.882 1.882 0 0 1 1.641 2.096" class="cls-20"/><path d="m60.184 52.627 12.367-.713s-1.236 10.016-6.42 9.275c-3.33-.475-5.947-8.562-5.947-8.562" style="fill:#fff"/><path d="m60.184 52.627 12.367-.713s-1.236 10.016-6.42 9.275c-3.33-.475-5.947-8.562-5.947-8.562Z" class="cls-2"/><path d="M89.499 79.403s2.595-2.777 4.703.377.594 15.261 1.35 27.621 2.238 46.418 2.238 46.418l-12.378-1.063c1.113-15.574-3.19-37.156-2.396-50.66.952-16.173 4.519-21.644 6.483-22.693" class="cls-3"/><path d="M89.499 79.403s2.595-2.777 4.703.377.594 15.261 1.35 27.621 2.238 46.418 2.238 46.418l-12.378-1.063c1.113-15.574-3.19-37.156-2.396-50.66.952-16.173 4.519-21.644 6.483-22.693Zm5.306-32.468-1.49 1.904-.236 1.549" class="cls-2"/></svg>