<svg id="Layer_1" data-name="Layer 1" xmlns="http://www.w3.org/2000/svg" viewBox="0 0 103.1228 154.3196"><defs><style>.cls-1{fill:#fcdcd3;}.cls-2,.cls-8,.cls-9{fill:none;stroke:#231f20;stroke-linecap:round;stroke-linejoin:round;}.cls-2{stroke-width:1.001px;}.cls-3{fill:#ffeebc;}.cls-4{fill:#faaf40;}.cls-5{fill:#80c9ef;}.cls-6{fill:#929497;}.cls-7{fill:#e2dddb;}.cls-8,.cls-9{stroke-width:0.429px;}.cls-9{stroke-dasharray:1.418 1.418;}.cls-10{fill:#231f20;}.cls-11{fill:#e1b970;}.cls-12{fill:#fbd9d2;}.cls-13{fill:#fbd6d2;}.cls-14{fill:#fbd3d0;}.cls-15{fill:#fad0cf;}.cls-16{fill:#facdcf;}.cls-17{fill:#f9c9ce;}.cls-18{fill:#f9c6cd;}.cls-19{fill:#f8c3cc;}.cls-20{fill:#f8c0cb;}.cls-21{fill:#fff;}</style></defs><path class="cls-1" d="M6.1342,75.8854a35.4351,35.4351,0,0,1-5.345-3.9409c-1.026-1.027.878-2.1091,2.645-1.2961a11.55,11.55,0,0,1,3.133,2.255Z"/><path class="cls-2" d="M6.1342,75.8854a35.4351,35.4351,0,0,1-5.345-3.9409c-1.026-1.027.878-2.1091,2.645-1.2961a11.55,11.55,0,0,1,3.133,2.255Z"/><path class="cls-1" d="M10.8025,85.7089s-5.86-10.055-6.033-12.323c-.303-3.928,3.172-11.482,5.252-11.065.255.051.63.564.63.564a2.0718,2.0718,0,0,1,1.998-.97c.354.081.517.98.517.98a1.725,1.725,0,0,1,2.055.054c.92.53.435,2.525.435,2.525s2.477-.055,1.452,2.688c-.623,1.669-1.689,4.166-1.16,5.526s6.31,4.865,4.187,11.769c-1.009,3.279,2.774,9.08,5.801,14.882l-6.054,2.774Z"/><path class="cls-2" d="M10.8025,85.7089s-5.86-10.055-6.033-12.323c-.303-3.928,3.172-11.482,5.252-11.065.255.051.63.564.63.564a2.0718,2.0718,0,0,1,1.998-.97c.354.081.517.98.517.98a1.725,1.725,0,0,1,2.055.054c.92.53.435,2.525.435,2.525s2.477-.055,1.452,2.688c-.623,1.669-1.689,4.166-1.16,5.526s6.31,4.865,4.187,11.769c-1.009,3.279,2.774,9.08,5.801,14.882l-6.054,2.774Z"/><path class="cls-2" d="M10.3734,63.09s-3.401,6.966-2.981,9.5421"/><path class="cls-2" d="M15.3953,65.4031s-2.922,6.033-2.502,8.607"/><path class="cls-2" d="M13.1479,63.17s-3.313,7.2691-2.895,9.8451"/><path class="cls-3" d="M14.0815,96.5549c.757,0,9.585-4.792,9.585-4.792l11.098,14.125s7.387-13.68,10.342-20.179c3.783-8.324,7.567-7.819,7.567-7.819L51.16,98.8249s-9.585,24.214-18.917,19.422-18.161-21.692-18.161-21.692"/><path class="cls-2" d="M14.0815,96.5549c.757,0,9.585-4.792,9.585-4.792l11.098,14.125s7.387-13.68,10.342-20.179c3.783-8.324,7.567-7.819,7.567-7.819L51.16,98.8249s-9.585,24.214-18.917,19.422S14.0815,96.5549,14.0815,96.5549Z"/><path class="cls-3" d="M50.3956,78.3921l11.599-4.478s11.639-3.047,19.178-.748c5.251,1.603,6.211,2.642,8.815,3.91a34.3652,34.3652,0,0,1,4.164,2.557,126.9806,126.9806,0,0,0-5.386,21.692c-1.608,11.159,3.379,32.332,3.357,35.51-.018,3.176-43.906.96-43.906.96s.418-24.303.48-33.831c.064-10.214.48-11.516,1.699-25.572"/><path class="cls-2" d="M50.3956,78.3921l11.599-4.478s11.639-3.047,19.178-.748c5.251,1.603,6.211,2.642,8.815,3.91a34.3652,34.3652,0,0,1,4.164,2.557,126.9806,126.9806,0,0,0-5.386,21.692c-1.608,11.159,3.379,32.332,3.357,35.51-.018,3.176-43.906.96-43.906.96s.418-24.303.48-33.831C48.7606,93.75,49.1766,92.4481,50.3956,78.3921Z"/><path class="cls-1" d="M62.37,65.545s1.682,4.778.286,6.942c-1.673,2.592-5.752,3.313-5.752,3.313s.148,4.613,11.036,4.078c7.105-.35,14.396-6.478,14.396-6.478s-5.864-.894-6.577-3.213c-.714-2.321-.537-7.855-.537-7.855Z"/><path class="cls-2" d="M62.37,65.545s1.682,4.778.286,6.942c-1.673,2.592-5.752,3.313-5.752,3.313s.148,4.613,11.036,4.078c7.105-.35,14.396-6.478,14.396-6.478s-5.864-.894-6.577-3.213c-.714-2.321-.537-7.855-.537-7.855Z"/><polygon class="cls-4" points="45.482 128.761 51.331 92.052 78.022 92.344 85.155 128.494 45.482 128.761"/><polygon class="cls-2" points="45.482 128.761 51.331 92.052 78.022 92.344 85.155 128.494 45.482 128.761"/><path class="cls-4" d="M53.7412,100.8094l19.465-.405s1.639,13.103-1.384,15.22c-3.021,2.116-16.294,1.445-17.568-1.016s-.513-13.799-.513-13.799"/><path class="cls-2" d="M53.7412,100.8094l19.465-.405s1.639,13.103-1.384,15.22c-3.021,2.116-16.294,1.445-17.568-1.016S53.7412,100.8094,53.7412,100.8094Z"/><line class="cls-5" x1="65.6606" y1="101.3069" x2="65.3506" y2="116.6119"/><line class="cls-2" x1="65.6606" y1="101.3069" x2="65.3506" y2="116.6119"/><line class="cls-5" x1="69.6609" y1="100.7098" x2="69.3509" y2="116.0168"/><line class="cls-2" x1="69.6609" y1="100.7098" x2="69.3509" y2="116.0168"/><polygon class="cls-4" points="44.822 126.64 90.161 127.139 93.355 152.615 41.024 152.377 44.822 126.64"/><polygon class="cls-2" points="44.822 126.64 90.161 127.139 93.355 152.615 41.024 152.377 44.822 126.64"/><path class="cls-4" d="M83.09,73.4076l5.384,2.299s-8.174,9.055-8.907,13.8991a23.1445,23.1445,0,0,1-4.747-.88c1.272-5.238,8.27-15.318,8.27-15.318"/><path class="cls-2" d="M83.09,73.4076l5.384,2.299s-8.174,9.055-8.907,13.8991a23.1445,23.1445,0,0,1-4.747-.88C76.0924,83.4876,83.09,73.4076,83.09,73.4076Z"/><path class="cls-2" d="M73.541,89.6224a1.4735,1.4735,0,0,1,1.903-.8849l2.92,1.2359a1.5192,1.5192,0,0,1,.726,1.9981,1.4732,1.4732,0,0,1-1.873.8929,2.1968,2.1968,0,0,1-.148,1.021,1.923,1.923,0,0,1-2.484,1.1571,1.984,1.984,0,0,1-.948-2.6081,2.1183,2.1183,0,0,1,.605-.828A1.5216,1.5216,0,0,1,73.541,89.6224Z"/><path class="cls-6" d="M72.8267,95.2051a1.9625,1.9625,0,0,0,1.702,2.154,1.905,1.905,0,0,0,1.974-1.858,1.9629,1.9629,0,0,0-1.703-2.154,1.9,1.9,0,0,0-1.973,1.858"/><path class="cls-2" d="M72.8267,95.2051a1.9625,1.9625,0,0,0,1.702,2.154,1.905,1.905,0,0,0,1.974-1.858,1.9629,1.9629,0,0,0-1.703-2.154A1.9,1.9,0,0,0,72.8267,95.2051Z"/><polygon class="cls-6" points="74.124 88.978 79.382 91.201 80.003 89.679 74.744 87.456 74.124 88.978"/><polygon class="cls-2" points="74.124 88.978 79.382 91.201 80.003 89.679 74.744 87.456 74.124 88.978"/><path class="cls-4" d="M50.6454,77.9092l4.943-1.7619c-1.176,8.859-1.268,10.4779-.783,12.8709a19.1047,19.1047,0,0,1-4.258.0971c-.244-6.0681.098-11.2061.098-11.2061"/><path class="cls-2" d="M50.6454,77.9092l4.943-1.7619c-1.176,8.859-1.268,10.4779-.783,12.8709a19.1047,19.1047,0,0,1-4.258.0971C50.3034,83.0472,50.6454,77.9092,50.6454,77.9092Z"/><path class="cls-2" d="M50.7862,90.4954c-.02-.859.431-1.569,1.009-1.585l2.326-.065c.577-.016,1.062.669,1.083,1.528.022.85-.42,1.548-.987,1.581a2.8077,2.8077,0,0,1,.207.993c.027,1.122-.563,2.049-1.315,2.069-.757.019-1.391-.872-1.417-1.994a2.7475,2.7475,0,0,1,.158-1.001C51.2812,92.0194,50.8072,91.3444,50.7862,90.4954Z"/><path class="cls-6" d="M51.878,95.7321c.28,1.041,1.078,1.611,1.784,1.27a2.1817,2.1817,0,0,0,.764-2.501c-.281-1.04-1.079-1.61-1.784-1.271a2.1811,2.1811,0,0,0-.764,2.502"/><path class="cls-2" d="M51.878,95.7321c.28,1.041,1.078,1.611,1.784,1.27a2.1817,2.1817,0,0,0,.764-2.501c-.281-1.04-1.079-1.61-1.784-1.271A2.1811,2.1811,0,0,0,51.878,95.7321Z"/><polygon class="cls-6" points="50.59 89.518 54.775 89.402 54.736 87.762 50.55 87.876 50.59 89.518"/><polygon class="cls-2" points="50.59 89.518 54.775 89.402 54.736 87.762 50.55 87.876 50.59 89.518"/><line class="cls-7" x1="43.8361" y1="130.4112" x2="89.1991" y2="131.3472"/><line class="cls-8" x1="43.8361" y1="130.4112" x2="44.5501" y2="130.4262"/><line class="cls-9" x1="45.9683" y1="130.4554" x2="87.7763" y2="131.3175"/><line class="cls-8" x1="88.4838" y1="131.3325" x2="89.1988" y2="131.3475"/><path class="cls-1" d="M46.189,27.6971a138.6163,138.6163,0,0,1-.611,16.8441c-.826,10.056,4.24,15.4,10.492,18.9319,4.878,2.7541,8.29,5.3891,15.096,3.0561,8.83-3.028,16.517-9.997,17.665-17.964,1.183-8.209,6.448-8.9,4.839-21.8891C92.647,18.42,86.253,7.7842,71.742,6.0062A22.4883,22.4883,0,0,0,46.189,27.6971"/><path class="cls-2" d="M46.189,27.6971a138.6163,138.6163,0,0,1-.611,16.8441c-.826,10.056,4.24,15.4,10.492,18.9319,4.878,2.7541,8.29,5.3891,15.096,3.0561,8.83-3.028,16.517-9.997,17.665-17.964,1.183-8.209,6.448-8.9,4.839-21.8891C92.647,18.42,86.253,7.7842,71.742,6.0062A22.4883,22.4883,0,0,0,46.189,27.6971Z"/><path class="cls-2" d="M63.4852,41.3719c.15,1.3971.108,2.7911-.685,2.6941-1.563-.192-1.989-.423-1.922.897a6.8861,6.8861,0,0,0,1.625,3.371"/><path class="cls-10" d="M56.4335,40.5453c-.295,2.4031-1.332,4.2551-2.319,4.1341s-1.547-2.168-1.254-4.572c.296-2.404,1.334-4.256,2.32-4.1351s1.548,2.1681,1.253,4.573"/><path class="cls-10" d="M78.0536,42.5149c-.294,2.405-1.332,4.256-2.32,4.137-.984-.122-1.546-2.17-1.251-4.575s1.332-4.254,2.318-4.133,1.548,2.166,1.253,4.571"/><path class="cls-11" d="M58.0375,15.1141A20.0283,20.0283,0,0,0,62.17,26.36c4.953,6.541,9.626,9.142,20.575,13.72l-5.878-24.584s13.878,20.501,10.581,35.002c-1.948,8.572-3.293,10.746-7.67,14.167a19.6586,19.6586,0,0,1-6.711,3.353,31.7139,31.7139,0,0,0,13.228-.878c7.743-2.256,20.937-11.725,14.706-36.329-4.625-18.272-9.875-27.815-26.369-30.089-13.802-1.901-30.989,8.292-36.782,35.864-3.665,17.446,3.287,23.186,9.517,26.646a19.0528,19.0528,0,0,0,7.728,2.296,26.4108,26.4108,0,0,1-5.035-5.202c-8.646-10.763-6.763-19.371-3.816-27.282,3.094-8.311,11.794-17.93,11.794-17.93"/><path class="cls-2" d="M58.0375,15.1141A20.0283,20.0283,0,0,0,62.17,26.36c4.953,6.541,9.626,9.142,20.575,13.72l-5.878-24.584s13.878,20.501,10.581,35.002c-1.948,8.572-3.293,10.746-7.67,14.167a19.6586,19.6586,0,0,1-6.711,3.353,31.7139,31.7139,0,0,0,13.228-.878c7.743-2.256,20.937-11.725,14.706-36.329-4.625-18.272-9.875-27.815-26.369-30.089-13.802-1.901-30.989,8.292-36.782,35.864-3.665,17.446,3.287,23.186,9.517,26.646a19.0528,19.0528,0,0,0,7.728,2.296,26.4108,26.4108,0,0,1-5.035-5.202c-8.646-10.763-6.763-19.371-3.816-27.282C49.3375,24.7331,58.0375,15.1141,58.0375,15.1141Z"/><path class="cls-1" d="M46.8772,51.9656c1.763,3.8031-5.252-1.5139-6.683-5.2959-1.433-3.778-.734-7.464,1.497-8.3921a3.1648,3.1648,0,0,1,3.957,1.1811s-.535,8.704,1.229,12.5069"/><path class="cls-2" d="M46.8772,51.9656c1.763,3.8031-5.252-1.5139-6.683-5.2959-1.433-3.778-.734-7.464,1.497-8.3921a3.1648,3.1648,0,0,1,3.957,1.1811S45.1132,48.1627,46.8772,51.9656Z"/><path class="cls-11" d="M48.1082,20.3312s-4.845,7.348-5.869,19.577c-1.338,15.963,11.009,21.541,11.009,21.541s-8.345-4.899-6.097-17.923c2.494-14.44,10.886-28.412,10.886-28.412"/><path class="cls-2" d="M48.1082,20.3312s-4.845,7.348-5.869,19.577c-1.338,15.963,11.009,21.541,11.009,21.541s-8.345-4.899-6.097-17.923c2.494-14.44,10.886-28.412,10.886-28.412"/><path class="cls-1" d="M88.208,54.85c-2.627,3.2651,5.462-.2029,7.764-3.5249s2.513-7.068.572-8.507a3.1665,3.1665,0,0,0-4.126.195s-1.582,8.573-4.21,11.8369"/><path class="cls-2" d="M88.208,54.85c-2.627,3.2651,5.462-.2029,7.764-3.5249s2.513-7.068.572-8.507a3.1665,3.1665,0,0,0-4.126.195S90.836,51.5856,88.208,54.85Z"/><path class="cls-11" d="M93.1048,26.92s1.023,7.7121-.933,19.8291C89.6188,62.5618,76.29,64.9947,76.29,64.9947s6.645-3.992,8.152-17.1229c1.709-14.885-7.344-32.526-7.344-32.526"/><path class="cls-2" d="M93.1048,26.92s1.023,7.7121-.933,19.8291C89.6188,62.5618,76.29,64.9947,76.29,64.9947s6.645-3.992,8.152-17.1229c1.709-14.885-7.344-32.526-7.344-32.526"/><path class="cls-1" d="M55.8773,49.8246a3.7628,3.7628,0,1,1-3.278-4.1909,3.7634,3.7634,0,0,1,3.278,4.1909"/><path class="cls-12" d="M51.7111,52.8968A3.5537,3.5537,0,1,1,55.67,49.8a3.5537,3.5537,0,0,1-3.959,3.0969"/><path class="cls-13" d="M51.7362,52.6888a3.3452,3.3452,0,1,1,3.726-2.9149,3.3454,3.3454,0,0,1-3.726,2.9149"/><path class="cls-14" d="M51.7613,52.4811a3.1357,3.1357,0,1,1,3.494-2.731,3.1369,3.1369,0,0,1-3.494,2.731"/><path class="cls-15" d="M51.7868,52.2742a2.9272,2.9272,0,1,1,3.26-2.55,2.9281,2.9281,0,0,1-3.26,2.55"/><path class="cls-16" d="M51.8125,52.0663a2.7176,2.7176,0,1,1,3.027-2.368,2.7178,2.7178,0,0,1-3.027,2.368"/><path class="cls-17" d="M51.8376,51.8583a2.5085,2.5085,0,1,1,2.795-2.1839,2.5092,2.5092,0,0,1-2.795,2.1839"/><path class="cls-18" d="M51.8632,51.6515a2.3,2.3,0,1,1,2.563-2.003,2.3006,2.3006,0,0,1-2.563,2.003"/><path class="cls-19" d="M51.8883,51.4445a2.091,2.091,0,1,1,2.33-1.822,2.0948,2.0948,0,0,1-2.33,1.822"/><path class="cls-20" d="M54.01,49.5981a1.882,1.882,0,1,1-1.64-2.096,1.88,1.88,0,0,1,1.64,2.096"/><path class="cls-1" d="M82.3,51.217a3.7629,3.7629,0,1,1-3.279-4.192A3.7621,3.7621,0,0,1,82.3,51.217"/><path class="cls-12" d="M78.1325,54.2861a3.5528,3.5528,0,1,1,3.961-3.094,3.55,3.55,0,0,1-3.961,3.094"/><path class="cls-13" d="M78.158,54.079a3.3447,3.3447,0,1,1,3.727-2.9139,3.3439,3.3439,0,0,1-3.727,2.9139"/><path class="cls-14" d="M78.1836,53.8713a3.1352,3.1352,0,1,1,3.494-2.73,3.1324,3.1324,0,0,1-3.494,2.73"/><path class="cls-15" d="M78.2092,53.6634a2.9262,2.9262,0,1,1,3.261-2.547,2.9249,2.9249,0,0,1-3.261,2.547"/><path class="cls-16" d="M78.2349,53.4565a2.7176,2.7176,0,1,1,3.029-2.3669,2.7151,2.7151,0,0,1-3.029,2.3669"/><path class="cls-17" d="M78.26,53.25a2.509,2.509,0,1,1,2.796-2.185A2.5063,2.5063,0,0,1,78.26,53.25"/><path class="cls-18" d="M78.2851,53.0417a2.2991,2.2991,0,1,1,2.563-2.003,2.297,2.297,0,0,1-2.563,2.003"/><path class="cls-19" d="M78.3107,52.8337a2.09,2.09,0,1,1,2.331-1.8209,2.0907,2.0907,0,0,1-2.331,1.8209"/><path class="cls-20" d="M80.433,50.9874a1.8819,1.8819,0,1,1-1.641-2.096,1.882,1.882,0,0,1,1.641,2.096"/><path class="cls-21" d="M60.1844,52.6269l12.367-.713s-1.236,10.016-6.421,9.275c-3.329-.475-5.946-8.562-5.946-8.562"/><path class="cls-2" d="M60.1844,52.6269l12.367-.713s-1.236,10.016-6.421,9.275C62.8014,60.7139,60.1844,52.6269,60.1844,52.6269Z"/><path class="cls-3" d="M89.4987,79.4031s2.595-2.777,4.703.377.594,15.261,1.351,27.621,2.237,46.418,2.237,46.418l-12.378-1.063c1.113-15.574-3.19-37.156-2.396-50.661.952-16.172,4.519-21.643,6.483-22.692"/><path class="cls-2" d="M89.4987,79.4031s2.595-2.777,4.703.377.594,15.261,1.351,27.621,2.237,46.418,2.237,46.418l-12.378-1.063c1.113-15.574-3.19-37.156-2.396-50.661C83.9677,85.9231,87.5347,80.4521,89.4987,79.4031Z"/><polyline class="cls-2" points="94.805 46.935 93.315 48.839 93.079 50.388"/></svg>