<svg xmlns="http://www.w3.org/2000/svg" xmlns:xlink="http://www.w3.org/1999/xlink" id="Layer_1" data-name="Layer 1" viewBox="0 0 169.849 142.212"><defs><style>.cls-1,.cls-14,.cls-15,.cls-27,.cls-8{fill:none}.cls-2{fill:#fff}.cls-3{fill:#fad3da}.cls-4{fill:#00adee}.cls-5{fill:#f5a2bd}.cls-6,.cls-7{fill:#fcdcd3}.cls-14,.cls-15,.cls-27,.cls-6,.cls-8{stroke:#231f20;stroke-linecap:round;stroke-linejoin:round}.cls-6,.cls-8{stroke-width:1.001px}.cls-9{fill:#ffeebc}.cls-10{fill:#faaf40}.cls-11{fill:#80c9ef}.cls-12{fill:#929497}.cls-13{fill:#e2dddb}.cls-14,.cls-15,.cls-27{stroke-width:.429px}.cls-15{stroke-dasharray:1.464 1.464}.cls-16{fill:#231f20}.cls-17{fill:#e1b970}.cls-18{fill:#fbd9d2}.cls-19{fill:#fbd6d2}.cls-20{fill:#fbd3d0}.cls-21{fill:#fad0cf}.cls-22{fill:#facdcf}.cls-23{fill:#f9c9ce}.cls-24{fill:#f9c6cd}.cls-25{fill:#f8c3cc}.cls-26{fill:#f8c0cb}.cls-27{stroke-dasharray:1.436 1.436}.cls-28{fill:#eeccb7}.cls-29{fill:#4d6397}.cls-30{fill:url(#Unnamed_Pattern_18)}.cls-31{fill:#eecab6}.cls-32{fill:#eec8b5}.cls-33{fill:#edc6b4}.cls-34{fill:#edc3b2}.cls-35{fill:#edc1b1}.cls-36{fill:#edbeb0}.cls-37{fill:#edbcaf}.cls-38{fill:#ecbaae}.cls-39{fill:#ecb7ad}.cls-40{fill:#ecb5ac}.cls-41{fill:#ecb2aa}.cls-42{fill:#ebb0a9}.cls-43{fill:#ebaea8}.cls-44{fill:#ebaba7}.cls-45{fill:#eba9a6}.cls-46{fill:#eaa6a5}.cls-47{fill:#9a8479}.cls-48{fill:url(#Unnamed_Pattern_18-3)}.cls-49{fill:#a6a8ab}.cls-50{fill:url(#Unnamed_Pattern_18-5)}.cls-51{fill:url(#Unnamed_Pattern_18-7)}.cls-52{fill:url(#Unnamed_Pattern_18-9)}.cls-53{fill:url(#Unnamed_Pattern_18-11)}</style><pattern id="Unnamed_Pattern_18" width="14.172" height="14.174" data-name="Unnamed Pattern 18" patternTransform="matrix(-0.1324, -0.3382, -0.3382, 0.1324, 6261.9747, -2215.258)" patternUnits="userSpaceOnUse" viewBox="0 0 14.172 14.174"><rect width="14.172" height="14.174" class="cls-1"/><rect width="14.172" height="14.174" class="cls-2"/><rect width="14.172" height="7.086" y="7.088" class="cls-3"/><rect width="7.086" height="14.174" class="cls-3"/><rect width="7.086" height="7.086" y="7.088" class="cls-4"/><rect width="7.086" height="7.086" y="7.088" class="cls-5"/></pattern><pattern id="Unnamed_Pattern_18-3" width="14.172" height="14.174" data-name="Unnamed Pattern 18" patternTransform="matrix(-0.0555, -0.3589, -0.3589, 0.0555, 6554.2863, -938.013)" patternUnits="userSpaceOnUse" viewBox="0 0 14.172 14.174"><rect width="14.172" height="14.174" class="cls-1"/><rect width="14.172" height="14.174" class="cls-2"/><rect width="14.172" height="7.086" y="7.088" class="cls-3"/><rect width="7.086" height="14.174" class="cls-3"/><rect width="7.086" height="7.086" y="7.088" class="cls-4"/><rect width="7.086" height="7.086" y="7.088" class="cls-5"/></pattern><pattern id="Unnamed_Pattern_18-5" width="14.172" height="14.174" data-name="Unnamed Pattern 18" patternTransform="matrix(-0.1324, -0.3382, -0.3382, 0.1324, 6259.3546, -2213.8586)" patternUnits="userSpaceOnUse" viewBox="0 0 14.172 14.174"><rect width="14.172" height="14.174" class="cls-1"/><rect width="14.172" height="14.174" class="cls-2"/><rect width="14.172" height="7.086" y="7.088" class="cls-3"/><rect width="7.086" height="14.174" class="cls-3"/><rect width="7.086" height="7.086" y="7.088" class="cls-4"/><rect width="7.086" height="7.086" y="7.088" class="cls-5"/></pattern><pattern id="Unnamed_Pattern_18-7" width="14.172" height="14.174" data-name="Unnamed Pattern 18" patternTransform="matrix(-0.0555, -0.3589, -0.3589, 0.0555, 6555.9962, -940.2132)" patternUnits="userSpaceOnUse" viewBox="0 0 14.172 14.174"><rect width="14.172" height="14.174" class="cls-1"/><rect width="14.172" height="14.174" class="cls-2"/><rect width="14.172" height="7.086" y="7.088" class="cls-3"/><rect width="7.086" height="14.174" class="cls-3"/><rect width="7.086" height="7.086" y="7.088" class="cls-4"/><rect width="7.086" height="7.086" y="7.088" class="cls-5"/></pattern><pattern id="Unnamed_Pattern_18-9" width="14.172" height="14.174" data-name="Unnamed Pattern 18" patternTransform="matrix(-0.0015, -0.3632, -0.3632, 0.0015, 6592.5299, -55.95)" patternUnits="userSpaceOnUse" viewBox="0 0 14.172 14.174"><rect width="14.172" height="14.174" class="cls-1"/><rect width="14.172" height="14.174" class="cls-2"/><rect width="14.172" height="7.086" y="7.088" class="cls-3"/><rect width="7.086" height="14.174" class="cls-3"/><rect width="7.086" height="7.086" y="7.088" class="cls-4"/><rect width="7.086" height="7.086" y="7.088" class="cls-5"/></pattern><pattern id="Unnamed_Pattern_18-11" width="14.172" height="14.174" data-name="Unnamed Pattern 18" patternTransform="matrix(-0.0015, -0.3632, -0.3632, 0.0015, 6592.2994, -53.0506)" patternUnits="userSpaceOnUse" viewBox="0 0 14.172 14.174"><rect width="14.172" height="14.174" class="cls-1"/><rect width="14.172" height="14.174" class="cls-2"/><rect width="14.172" height="7.086" y="7.088" class="cls-3"/><rect width="7.086" height="14.174" class="cls-3"/><rect width="7.086" height="7.086" y="7.088" class="cls-4"/><rect width="7.086" height="7.086" y="7.088" class="cls-5"/></pattern></defs><rect width="14.466" height="27.725" x="127.963" y="112.899" class="cls-6"/><polygon points="165.331 140.624 152.473 140.624 141.625 109.684 157.295 107.676 165.331 140.624" class="cls-6"/><path d="M86.9359,21.6266a7.7682,7.7682,0,0,1-2.419-6.631,37.157,37.157,0,0,1,.887-4.8479s.7569-5.1131,1.763-5.765c.689-.448,1.19.547,1.19.547s-.052-1.8171,1.221-2.3671c.792-.34,1.114.6711,1.114.6711s.371-1.9721,1.34-1.896c1.46.1159,1.233,2.162,1.233,2.162s.6669-1.0271,1.515-.333c.84.6879.364,3.0819.1349,5.346-.15,1.49-.272,3.0069-.272,3.0069a8.3142,8.3142,0,0,1,3.5771-.9519c.987.041,1.907.3469,1.241,1.395-.666,1.0509-3.62,1.6579-4.414,4.32-.4341,1.4571-1.702,4.479-1.702,4.479l2.76,5.2141-5.7739,2.4469Z" class="cls-7"/><path d="M86.9359,21.6266a7.7682,7.7682,0,0,1-2.419-6.631,37.157,37.157,0,0,1,.887-4.8479s.7569-5.1131,1.763-5.765c.689-.448,1.19.547,1.19.547s-.052-1.8171,1.221-2.3671c.792-.34,1.114.6711,1.114.6711s.371-1.9721,1.34-1.896c1.46.1159,1.233,2.162,1.233,2.162s.6669-1.0271,1.515-.333c.84.6879.364,3.0819.1349,5.346-.15,1.49-.272,3.0069-.272,3.0069a8.3142,8.3142,0,0,1,3.5771-.9519c.987.041,1.907.3469,1.241,1.395-.666,1.0509-3.62,1.6579-4.414,4.32-.4341,1.4571-1.702,4.479-1.702,4.479l2.76,5.2141-5.7739,2.4469Z" class="cls-8"/><line x1="88.357" x2="87.867" y1="4.93" y2="9.784" class="cls-8"/><line x1="90.737" x2="90.216" y1="3.496" y2="9.565" class="cls-8"/><line x1="93.248" x2="92.644" y1="3.694" y2="9.652" class="cls-8"/><path d="M92.824,12.4123a4.9176,4.9176,0,0,0-2.522,2.3941,9.332,9.332,0,0,0-.871,4.4719" class="cls-8"/><line x1="86.703" x2="92.806" y1="11.089" y2="10.985" class="cls-8"/><path d="M88.0986,25.3462l6.2169-2.766s5.7741,9.365,11.001,16.975c4.79,6.973,14.9021,13.167,14.9021,13.167l-3.551,14.631s-14.846-15.577-18.2-21.312c-2.418-4.131-6.418-9.93-10.369-20.695" class="cls-9"/><path d="M88.0986,25.3462l6.2169-2.766s5.7741,9.365,11.001,16.975c4.79,6.973,14.9021,13.167,14.9021,13.167l-3.551,14.631s-14.846-15.577-18.2-21.312C96.05,41.91,92.05,36.1112,88.0986,25.3462Z" class="cls-8"/><path d="M114.8057,50.5319l8.9169.7021s6.8371-3.55,12.206-3.04A26.6151,26.6151,0,0,1,142.37,49.61a23.3922,23.3922,0,0,1,3.14,1.144,86.9053,86.9053,0,0,0-.645,15.273c.447,7.698,6.684,21.21,7.104,23.3409.424,2.1321-29.294,6.6471-29.294,6.6471s-4.21-15.413-5.471-21.806c-2.652-13.433-2.6439-21.104-2.3979-23.6771" class="cls-9"/><path d="M114.8057,50.5319l8.9169.7021s6.8371-3.55,12.206-3.04A26.6151,26.6151,0,0,1,142.37,49.61a23.3922,23.3922,0,0,1,3.14,1.144,86.9053,86.9053,0,0,0-.645,15.273c.447,7.698,6.684,21.21,7.104,23.3409.424,2.1321-29.294,6.6471-29.294,6.6471s-4.21-15.413-5.471-21.806C114.5516,60.776,114.56,53.105,114.8057,50.5319Z" class="cls-8"/><path d="M122.8121,44.9424s1.2509,3.687.61,5.3261c-.763,1.969-1.755.87-1.755.87s-1.832,4.0479,5.5921,3.3869c6.4759-.5749,9.479-6.333,9.479-6.333-1.211.06-3.979.332-4.8481-1.2549a24.2642,24.2642,0,0,1-1.4319-5.1911Z" class="cls-7"/><path d="M122.8121,44.9424s1.2509,3.687.61,5.3261c-.763,1.969-1.755.87-1.755.87s-1.832,4.0479,5.5921,3.3869c6.4759-.5749,9.479-6.333,9.479-6.333-1.211.06-3.979.332-4.8481-1.2549a24.2642,24.2642,0,0,1-1.4319-5.1911Z" class="cls-8"/><polygon points="119.606 90.333 118.508 64.931 136.437 61.478 146.159 84.73 119.606 90.333" class="cls-10"/><polygon points="119.606 90.333 118.508 64.931 136.437 61.478 146.159 84.73 119.606 90.333" class="cls-8"/><path d="M121.32,70.4712l12.9919-2.933s2.8911,8.558,1.1531,10.39-10.724,3.195-11.9161,1.72-2.2289-9.177-2.2289-9.177" class="cls-10"/><path d="M121.32,70.4712l12.9919-2.933s2.8911,8.558,1.1531,10.39-10.724,3.195-11.9161,1.72S121.32,70.4712,121.32,70.4712Z" class="cls-8"/><line x1="129.378" x2="131.262" y1="69.172" y2="79.474" class="cls-11"/><line x1="129.378" x2="131.262" y1="69.172" y2="79.474" class="cls-8"/><line x1="131.975" x2="133.861" y1="68.228" y2="78.529" class="cls-11"/><line x1="131.975" x2="133.861" y1="68.228" y2="78.529" class="cls-8"/><polygon points="118.875 89.001 149.459 82.101 169.349 123.749 123.543 128.169 118.875 89.001" class="cls-10"/><polygon points="118.875 89.001 149.459 82.101 169.349 123.749 123.543 128.169 118.875 89.001" class="cls-8"/><path d="M137.2446,48.0933l3.9239.8061s-4.24,7.185-4.0709,10.53a15.7558,15.7558,0,0,1-3.302.06c.1369-3.683,3.449-11.3961,3.449-11.3961" class="cls-10"/><path d="M137.2446,48.0933l3.9239.8061s-4.24,7.185-4.0709,10.53a15.7558,15.7558,0,0,1-3.302.06C133.9325,55.8064,137.2446,48.0933,137.2446,48.0933Z" class="cls-8"/><path d="M133.0611,60.2668a1.011,1.011,0,0,1,1.1559-.854l2.127.43a1.0373,1.0373,0,0,1,.757,1.239,1.0087,1.0087,0,0,1-1.133.855,1.5264,1.5264,0,0,1,.0411.705,1.3187,1.3187,0,0,1-1.5071,1.116,1.3611,1.3611,0,0,1-.992-1.621,1.4274,1.4274,0,0,1,.294-.635A1.045,1.045,0,0,1,133.0611,60.2668Z" class="cls-8"/><path d="M133.3468,64.1043a1.3428,1.3428,0,0,0,1.435,1.2121,1.3013,1.3013,0,0,0,1.0669-1.516,1.3392,1.3392,0,0,0-1.4339-1.21,1.3,1.3,0,0,0-1.068,1.5139" class="cls-12"/><path d="M133.3468,64.1043a1.3428,1.3428,0,0,0,1.435,1.2121,1.3013,1.3013,0,0,0,1.0669-1.516,1.3392,1.3392,0,0,0-1.4339-1.21A1.3,1.3,0,0,0,133.3468,64.1043Z" class="cls-8"/><polygon points="133.364 59.755 137.191 60.526 137.4 59.42 133.571 58.649 133.364 59.755" class="cls-12"/><polygon points="133.364 59.755 137.191 60.526 137.4 59.42 133.571 58.649 133.364 59.755" class="cls-8"/><path d="M117.7163,50.598l3.951.54c-.802,6.183-.91,7.896-1.2431,11.284a13.0334,13.0334,0,0,1-2.8419.646c-.993-4.032.134-12.47.134-12.47" class="cls-10"/><path d="M117.7163,50.598l3.951.54c-.802,6.183-.91,7.896-1.2431,11.284a13.0334,13.0334,0,0,1-2.8419.646C116.5893,59.0361,117.7163,50.598,117.7163,50.598Z" class="cls-8"/><path d="M117.9311,63.96c-.13-.5719.0729-1.11.4589-1.2l1.551-.359c.384-.0931.804.302.934.8729.132.568-.0689,1.096-.445,1.196a1.9546,1.9546,0,0,1,.276.637c.169.748-.099,1.45-.6,1.566-.504.117-1.052-.3919-1.224-1.1419a2.0333,2.0333,0,0,1-.031-.6941C118.471,64.9145,118.063,64.5265,117.9311,63.96Z" class="cls-8"/><path d="M119.3794,67.3222c.3289.6591.9419.932,1.3669.6081a1.4917,1.4917,0,0,0,.172-1.782c-.333-.658-.946-.932-1.37-.6081a1.4894,1.4894,0,0,0-.1689,1.782" class="cls-12"/><path d="M119.3794,67.3222c.3289.6591.9419.932,1.3669.6081a1.4917,1.4917,0,0,0,.172-1.782c-.333-.658-.946-.932-1.37-.6081A1.4894,1.4894,0,0,0,119.3794,67.3222Z" class="cls-8"/><polygon points="117.665 63.333 120.456 62.683 120.205 61.59 117.415 62.238 117.665 63.333" class="cls-12"/><polygon points="117.665 63.333 120.456 62.683 120.205 61.59 117.415 62.238 117.665 63.333" class="cls-8"/><line x1="118.729" x2="150.063" y1="91.663" y2="84.37" class="cls-13"/><line x1="118.729" x2="119.426" y1="91.663" y2="91.502" class="cls-14"/><line x1="120.851" x2="148.654" y1="91.169" y2="84.699" class="cls-15"/><line x1="149.366" x2="150.063" y1="84.533" y2="84.371" class="cls-14"/><path d="M108.616,21.4424a94.8977,94.8977,0,0,1,.914,11.497c.233,6.895,4.097,10.1261,8.625,12.03,3.532,1.488,6.056,3.01,10.497.886,5.76-2.753,10.433-8.097,10.585-13.6.155-5.669,3.677-6.5561,1.559-15.253-1.346-5.53-6.531-12.25-16.529-12.312a15.38,15.38,0,0,0-15.651,16.7519" class="cls-7"/><path d="M108.616,21.4424a94.8977,94.8977,0,0,1,.914,11.497c.233,6.895,4.097,10.1261,8.625,12.03,3.532,1.488,6.056,3.01,10.497.886,5.76-2.753,10.433-8.097,10.585-13.6.155-5.669,3.677-6.5561,1.559-15.253-1.346-5.53-6.531-12.25-16.529-12.312A15.38,15.38,0,0,0,108.616,21.4424Z" class="cls-8"/><path d="M121.4485,29.3689c.213.9381.294,1.888-.252,1.8831-1.078-.005-1.386-.129-1.238.7619a4.7162,4.7162,0,0,0,1.372,2.1651" class="cls-8"/><path d="M116.591,29.365c-.0121,1.655-.569,2.997-1.247,2.992-.6821-.008-1.224-1.3509-1.2141-3.008s.569-2.9969,1.2491-2.9939,1.224,1.352,1.212,3.01" class="cls-16"/><path d="M131.4353,28.9947c-.01,1.6571-.5681,2.9981-1.247,2.996-.6821-.0059-1.224-1.3519-1.2141-3.0109.009-1.6571.571-2.995,1.2491-2.992.6819.0029,1.224,1.351,1.212,3.0069" class="cls-16"/><path d="M115.6728,11.959a13.7128,13.7128,0,0,0,3.6949,7.315c3.882,4.054,7.261,5.4511,15.063,7.6961l-5.933-16.2361s11.046,12.8321,9.953,22.945c-.648,5.9781-1.39,7.56-4.093,10.2311a13.53,13.53,0,0,1-4.296,2.807,21.6783,21.6783,0,0,0,8.9171-1.6421c5.0839-2.143,13.2989-9.617,7.125-25.8449-4.5871-12.0461-8.9061-18.117-20.29-18.36-9.531-.2-20.402,8.0821-22.161,27.271-1.114,12.143,4.0631,15.4931,8.567,17.354a13.0184,13.0184,0,0,0,5.433.9491,18.04,18.04,0,0,1-3.828-3.1371c-6.728-6.63-6.127-12.625-4.749-18.2359,1.446-5.89,6.5971-13.1121,6.5971-13.1121" class="cls-17"/><path d="M115.6728,11.959a13.7128,13.7128,0,0,0,3.6949,7.315c3.882,4.054,7.261,5.4511,15.063,7.6961l-5.933-16.2361s11.046,12.8321,9.953,22.945c-.648,5.9781-1.39,7.56-4.093,10.2311a13.53,13.53,0,0,1-4.296,2.807,21.6783,21.6783,0,0,0,8.9171-1.6421c5.0839-2.143,13.2989-9.617,7.125-25.8449-4.5871-12.0461-8.9061-18.117-20.29-18.36-9.531-.2-20.402,8.0821-22.161,27.271-1.114,12.143,4.0631,15.4931,8.567,17.354a13.0184,13.0184,0,0,0,5.433.9491,18.04,18.04,0,0,1-3.828-3.1371c-6.728-6.63-6.127-12.625-4.749-18.2359C110.5217,19.1811,115.6728,11.959,115.6728,11.959Z" class="cls-8"/><path d="M110.9986,37.88c1.4989,2.442-3.6851-.615-4.9561-3.072-1.2729-2.455-1.09-5.014.354-5.82a2.1642,2.1642,0,0,1,2.781.492s.324,5.954,1.8211,8.4" class="cls-7"/><path d="M110.9986,37.88c1.4989,2.442-3.6851-.615-4.9561-3.072-1.2729-2.455-1.09-5.014.354-5.82a2.1642,2.1642,0,0,1,2.781.492S109.5015,35.4339,110.9986,37.88Z" class="cls-8"/><path d="M109.3393,16.2884a30.7767,30.7767,0,0,0-2.4421,13.765c.3511,10.948,9.182,13.765,9.182,13.765s-6.058-2.669-5.56-11.695c.554-10.01,5.153-20.164,5.153-20.164" class="cls-17"/><path d="M109.3393,16.2884a30.7767,30.7767,0,0,0-2.4421,13.765c.3511,10.948,9.182,13.765,9.182,13.765s-6.058-2.669-5.56-11.695c.554-10.01,5.153-20.164,5.153-20.164" class="cls-8"/><path d="M139.31,36.5735c-1.53,2.4251,3.695-.568,4.995-3.0069,1.3029-2.4391,1.151-5.0021-.2831-5.826a2.1637,2.1637,0,0,0-2.7869.4579s-.395,5.952-1.925,8.375" class="cls-7"/><path d="M139.31,36.5735c-1.53,2.4251,3.695-.568,4.995-3.0069,1.3029-2.4391,1.151-5.0021-.2831-5.826a2.1637,2.1637,0,0,0-2.7869.4579S140.84,34.1505,139.31,36.5735Z" class="cls-8"/><path d="M140.431,17.2126a51.3352,51.3352,0,0,1,.9319,13.544c-.487,10.9461-9.349,13.6521-9.349,13.6521s4.1961-3.2361,4.187-12.279c-.015-10.247-7.56-21.518-7.56-21.518" class="cls-17"/><path d="M140.431,17.2126a51.3352,51.3352,0,0,1,.9319,13.544c-.487,10.9461-9.349,13.6521-9.349,13.6521s4.1961-3.2361,4.187-12.279c-.015-10.247-7.56-21.518-7.56-21.518" class="cls-8"/><path d="M116.9457,35.7132a2.574,2.574,0,1,1-2.5561-2.59,2.573,2.573,0,0,1,2.5561,2.59" class="cls-7"/><path d="M114.3574,38.1292a2.4315,2.4315,0,1,1,2.4459-2.417,2.4313,2.4313,0,0,1-2.4459,2.417" class="cls-18"/><path d="M114.3583,37.9864a2.2885,2.2885,0,1,1,2.301-2.2749,2.2883,2.2883,0,0,1-2.301,2.2749" class="cls-19"/><path d="M114.3593,37.8435a2.1455,2.1455,0,1,1,2.158-2.1319,2.1447,2.1447,0,0,1-2.158,2.1319" class="cls-20"/><path d="M114.36,37.7006a2.0025,2.0025,0,1,1,2.0149-1.9909,2.0047,2.0047,0,0,1-2.0149,1.9909" class="cls-21"/><path d="M114.3613,37.5578a1.86,1.86,0,1,1,1.871-1.8479,1.86,1.86,0,0,1-1.871,1.8479" class="cls-22"/><path d="M114.3613,37.414a1.7155,1.7155,0,1,1,1.728-1.705,1.7185,1.7185,0,0,1-1.728,1.705" class="cls-23"/><path d="M114.3623,37.271a1.573,1.573,0,1,1,1.5839-1.5639,1.5741,1.5741,0,0,1-1.5839,1.5639" class="cls-24"/><path d="M114.3633,37.1283a1.43,1.43,0,1,1,1.441-1.421,1.4344,1.4344,0,0,1-1.441,1.421" class="cls-25"/><path d="M115.6608,35.7063a1.289,1.289,0,1,1-1.279-1.2939,1.2909,1.2909,0,0,1,1.279,1.2939" class="cls-26"/><path d="M135.008,34.5735a2.5741,2.5741,0,1,1-2.5581-2.589,2.5739,2.5739,0,0,1,2.5581,2.589" class="cls-7"/><path d="M132.42,36.9872a2.43,2.43,0,1,1,2.446-2.415,2.4319,2.4319,0,0,1-2.446,2.415" class="cls-18"/><path d="M132.42,36.8443a2.2875,2.2875,0,1,1,2.3019-2.2729,2.2863,2.2863,0,0,1-2.3019,2.2729" class="cls-19"/><path d="M132.4206,36.7005a2.144,2.144,0,1,1,2.159-2.13,2.1444,2.1444,0,0,1-2.159,2.13" class="cls-20"/><path d="M132.4216,36.5576a2,2,0,1,1,2.0149-1.9889,1.9982,1.9982,0,0,1-2.0149,1.9889" class="cls-21"/><path d="M132.4216,36.4148a1.858,1.858,0,1,1,1.8709-1.846,1.8563,1.8563,0,0,1-1.8709,1.846" class="cls-22"/><path d="M132.4226,36.271a1.714,1.714,0,1,1,1.727-1.704,1.7115,1.7115,0,0,1-1.727,1.704" class="cls-23"/><path d="M132.4236,36.1291a1.572,1.572,0,1,1,1.583-1.5639,1.57,1.57,0,0,1-1.583,1.5639" class="cls-24"/><path d="M132.4246,35.9853a1.4285,1.4285,0,1,1,1.44-1.4209,1.426,1.426,0,0,1-1.44,1.4209" class="cls-25"/><path d="M133.7211,34.5636a1.287,1.287,0,1,1-1.2791-1.292,1.2864,1.2864,0,0,1,1.2791,1.292" class="cls-26"/><path d="M120.0947,37.2751l8.3449-1.458s-.049,6.9-3.629,6.806c-2.3-.059-4.7159-5.348-4.7159-5.348" class="cls-2"/><path d="M120.0947,37.2751l8.3449-1.458s-.049,6.9-3.629,6.806C122.5106,42.5641,120.0947,37.2751,120.0947,37.2751Z" class="cls-8"/><polyline points="143.166 30.677 142.304 32.087 142.267 33.156" class="cls-8"/><path d="M134.6533,79.01c.4509,1.315.1779,2.595-.6071,2.863s-1.785-.5789-2.234-1.8909c-.448-1.315-.176-2.5951.61-2.865.784-.2661,1.784.578,2.2311,1.8929" class="cls-7"/><path d="M134.6533,79.01c.4509,1.315.1779,2.595-.6071,2.863s-1.785-.5789-2.234-1.8909c-.448-1.315-.176-2.5951.61-2.865C133.2062,76.8506,134.2062,77.6947,134.6533,79.01Z" class="cls-8"/><path d="M145.2056,76.7425s-8.347-2.8349-9.153-3.089-1.943-.055-3.353,1.5971c-1.3,1.52.176,2.266.176,2.266a1.496,1.496,0,0,0,.026,1.3349,1.2864,1.2864,0,0,0,1.168.442,1.0744,1.0744,0,0,0-.175,1.6471,1.7816,1.7816,0,0,0,1.119.45s-.152,1.268.537,1.708c.949.609,1.757-.5479,1.757-.5479a14.3038,14.3038,0,0,0,5.045.5039,37.88,37.88,0,0,0,4.766-1.26l5.719-2.024-1.864-4.9519s-4.077,2.7879-5.768,1.9239" class="cls-7"/><path d="M145.2056,76.7425s-8.347-2.8349-9.153-3.089-1.943-.055-3.353,1.5971c-1.3,1.52.176,2.266.176,2.266a1.496,1.496,0,0,0,.026,1.3349,1.2864,1.2864,0,0,0,1.168.442,1.0744,1.0744,0,0,0-.175,1.6471,1.7816,1.7816,0,0,0,1.119.45s-.152,1.268.537,1.708c.949.609,1.757-.5479,1.757-.5479a14.3038,14.3038,0,0,0,5.045.5039,37.88,37.88,0,0,0,4.766-1.26l5.719-2.024-1.864-4.9519S146.8966,77.6065,145.2056,76.7425Z" class="cls-8"/><line x1="132.876" x2="134.632" y1="77.516" y2="75.736" class="cls-7"/><line x1="132.876" x2="134.632" y1="77.516" y2="75.736" class="cls-8"/><line x1="133.952" x2="135.706" y1="79.479" y2="77.699" class="cls-7"/><line x1="133.952" x2="135.706" y1="79.479" y2="77.699" class="cls-8"/><line x1="135.014" x2="136.768" y1="81.391" y2="79.613" class="cls-7"/><line x1="135.014" x2="136.768" y1="81.391" y2="79.613" class="cls-8"/><path d="M142.37,49.61s1.78-.8239,5.4559,1.6071c3.678,2.4319,20.355,23.88,17.685,25.6869s-14.918,3.4461-14.918,3.4461l-2.906-4.68,6.724-3.151-9.5459-6.492Z" class="cls-9"/><path d="M142.37,49.61s1.78-.8239,5.4559,1.6071c3.678,2.4319,20.355,23.88,17.685,25.6869s-14.918,3.4461-14.918,3.4461l-2.906-4.68,6.724-3.151-9.5459-6.492Z" class="cls-8"/><line x1="129.169" x2="138.411" y1="88.791" y2="124.952" class="cls-13"/><line x1="129.169" x2="129.347" y1="88.791" y2="89.484" class="cls-14"/><line x1="129.701" x2="138.056" y1="90.874" y2="123.564" class="cls-27"/><line x1="138.234" x2="138.412" y1="124.26" y2="124.952" class="cls-14"/><path d="M11.5094,121.7754s2.1209,4.2821-.1141,7.181c-2.901,3.76-2.2179,5.927-2.2179,5.927s-.74.875-1.8421-.223c-1.067-1.0609-.1709-5.0739-.114-5.3239Z" class="cls-28"/><path d="M11.5094,121.7754s2.1209,4.2821-.1141,7.181c-2.901,3.76-2.2179,5.927-2.2179,5.927s-.74.875-1.8421-.223c-1.067-1.0609-.1709-5.0739-.114-5.3239Z" class="cls-8"/><path d="M11.9863,121.62c.3509,3.3261-5.1231,9.9831-5.1231,9.9831a8.3711,8.3711,0,0,0-.56,2.153c-.394,3.045,1.253,6.6239-.015,7.02-1.27.396-1.485,1.7521-2.555.2331a18.8562,18.8562,0,0,1-3.1919-8.275c-.495-3.5881,3.6319-10.132,6.272-14.927s3.3169-5.929,3.3169-5.929l7.61,2.342-5.2261,6.5479Z" class="cls-28"/><path d="M11.9863,121.62c.3509,3.3261-5.1231,9.9831-5.1231,9.9831a8.3711,8.3711,0,0,0-.56,2.153c-.394,3.045,1.253,6.6239-.015,7.02-1.27.396-1.485,1.7521-2.555.2331a18.8562,18.8562,0,0,1-3.1919-8.275c-.495-3.5881,3.6319-10.132,6.272-14.927s3.3169-5.929,3.3169-5.929l7.61,2.342-5.2261,6.5479Z" class="cls-8"/><path d="M4.7345,140.9491a14.4792,14.4792,0,0,1-1.726-4.792,36.8557,36.8557,0,0,1-.203-4.4889" class="cls-28"/><path d="M4.7345,140.9491a14.4792,14.4792,0,0,1-1.726-4.792,36.8557,36.8557,0,0,1-.203-4.4889" class="cls-8"/><polygon points="55.54 137.954 15.634 137.592 18.572 119.965 53.582 120.327 55.54 137.954" class="cls-29"/><polygon points="55.54 137.954 15.634 137.592 18.572 119.965 53.582 120.327 55.54 137.954" class="cls-8"/><path d="M78.7837,15.5475s-5.7681-8.399-3.1471-8.219c1.687.116,3.839,4.696,3.839,4.696Z" class="cls-28"/><path d="M78.7837,15.5475s-5.7681-8.399-3.1471-8.219c1.687.116,3.839,4.696,3.839,4.696Z" class="cls-8"/><path d="M82.6578,28.4231s1.1739-5.1479,2.6819-6.748,2.1141-5.4909,2.189-7.28a29.9839,29.9839,0,0,0-.5239-8.219c-.81-4.263-2.141-3.27-2.141-3.27s-1.41-3.837-2.316-.063c-.1091-1.2931-.4541-2.3-1.366-2.3421-.887-.0409-1.301,1.942-1.224,2.216.075.2741-.6781-1.6679-1.3241-.9809-.644.6869-.686,1.4439-.75,6.557a80.625,80.625,0,0,0,1.263,12.4159l-2.7449,6.5721Z" class="cls-28"/><path d="M82.6578,28.4231s1.1739-5.1479,2.6819-6.748,2.1141-5.4909,2.189-7.28a29.9839,29.9839,0,0,0-.5239-8.219c-.81-4.263-2.141-3.27-2.141-3.27s-1.41-3.837-2.316-.063c-.1091-1.2931-.4541-2.3-1.366-2.3421-.887-.0409-1.301,1.942-1.224,2.216.075.2741-.6781-1.6679-1.3241-.9809-.644.6869-.686,1.4439-.75,6.557a80.625,80.625,0,0,0,1.263,12.4159l-2.7449,6.5721Z" class="cls-8"/><path d="M79.9581,2.7182s.262,4.141.193,6.323" class="cls-8"/><path d="M82.5337,2.4344s.14,4.554.0709,6.7351" class="cls-8"/><path d="M84.8629,2.9062s.2069,4.554.1379,6.7351" class="cls-8"/><path d="M30.9509,65.4148s-3.827-1.66-7.967,8.244c-4.14,9.901-14.042,38.53-14.042,38.53l6.735,6.335,15.187-34.221Z" class="cls-30"/><path d="M30.9509,65.4148s-3.827-1.66-7.967,8.244c-4.14,9.901-14.042,38.53-14.042,38.53l6.735,6.335,15.187-34.221Z" class="cls-8"/><path d="M65.4567,37.8722a1.22,1.22,0,0,0-1.1491-1.766,4.3507,4.3507,0,0,1-1.92-.347c-1.48-.683-1.8211-4.632-1.0421-9.458.786-4.873-7.71-8.831-7.71-8.831-19.2659-6.792-29.333,15.913-24.157,27.36A16.57,16.57,0,0,0,39.5507,53.7l-1.8551,7.066,11.414,2.762,2.392-8.961c2.537-.058,6.732-.067,9.912-2.895,6.7151-5.964,3.532-11.837,3.532-11.837a6.489,6.489,0,0,1,.5111-1.963" class="cls-28"/><path d="M65.4567,37.8722a1.22,1.22,0,0,0-1.1491-1.766,4.3507,4.3507,0,0,1-1.92-.347c-1.48-.683-1.8211-4.632-1.0421-9.458.786-4.873-7.71-8.831-7.71-8.831-19.2659-6.792-29.333,15.913-24.157,27.36A16.57,16.57,0,0,0,39.5507,53.7l-1.8551,7.066,11.414,2.762,2.392-8.961c2.537-.058,6.732-.067,9.912-2.895,6.7151-5.964,3.532-11.837,3.532-11.837A6.489,6.489,0,0,1,65.4567,37.8722Z" class="cls-8"/><path d="M51.9258,28.7867s-.031-2.74,2.3879-2.159" class="cls-8"/><path d="M60.9451,40.287a3.5012,3.5012,0,1,1-4.3911-2.292,3.5053,3.5053,0,0,1,4.3911,2.292" class="cls-28"/><path d="M60.7993,40.3332A3.3484,3.3484,0,1,1,56.6,38.14a3.351,3.351,0,0,1,4.199,2.193" class="cls-31"/><path d="M60.6535,40.3788a3.1954,3.1954,0,1,1-4.006-2.091,3.197,3.197,0,0,1,4.006,2.091" class="cls-32"/><path d="M60.5057,40.425a3.0415,3.0415,0,1,1-3.8131-1.993,3.0412,3.0412,0,0,1,3.8131,1.993" class="cls-33"/><path d="M60.36,40.47a2.8891,2.8891,0,1,1-3.622-1.891A2.8872,2.8872,0,0,1,60.36,40.47" class="cls-34"/><path d="M60.2139,40.5166a2.735,2.735,0,1,1-3.43-1.7909,2.735,2.735,0,0,1,3.43,1.7909" class="cls-35"/><path d="M60.0682,40.563a2.5822,2.5822,0,1,1-3.238-1.692,2.5834,2.5834,0,0,1,3.238,1.692" class="cls-36"/><path d="M59.9223,40.6082a2.4293,2.4293,0,1,1-3.0471-1.59,2.431,2.431,0,0,1,3.0471,1.59" class="cls-37"/><path d="M59.7764,40.6545a2.2762,2.2762,0,1,1-2.855-1.491,2.2756,2.2756,0,0,1,2.855,1.491" class="cls-38"/><path d="M59.6307,40.7008a2.1235,2.1235,0,1,1-2.6631-1.391,2.126,2.126,0,0,1,2.6631,1.391" class="cls-39"/><path d="M59.4829,40.7461a1.97,1.97,0,1,1-2.4691-1.2889,1.9683,1.9683,0,0,1,2.4691,1.2889" class="cls-40"/><path d="M59.3371,40.7924a1.8161,1.8161,0,1,1-2.2781-1.1909,1.8149,1.8149,0,0,1,2.2781,1.1909" class="cls-41"/><path d="M59.1913,40.8387a1.6628,1.6628,0,1,1-2.084-1.0909,1.6617,1.6617,0,0,1,2.084,1.0909" class="cls-42"/><path d="M59.0455,40.8841a1.51,1.51,0,1,1-1.8941-.989,1.5081,1.5081,0,0,1,1.8941.989" class="cls-43"/><path d="M58.9,40.93a1.3568,1.3568,0,1,1-1.703-.889,1.3576,1.3576,0,0,1,1.703.889" class="cls-44"/><path d="M58.7519,40.9759a1.2028,1.2028,0,1,1-1.5091-.788,1.1988,1.1988,0,0,1,1.5091.788" class="cls-45"/><path d="M58.6061,41.0221a1.05,1.05,0,1,1-1.317-.689,1.0474,1.0474,0,0,1,1.317.689" class="cls-46"/><path d="M59.6957,35.0453c.5229,1.664.395,3.185-.29,3.399-.6841.216-1.659-.958-2.1831-2.623s-.392-3.186.292-3.402c.682-.212,1.656.961,2.1811,2.626" class="cls-16"/><path d="M35.86,53.8061c-1.9311-.6429-5.485-3.779-9.014-5.733a16.5933,16.5933,0,0,1-7.633-9.9769c-1.8571-5.94-2.058-11.688,2.581-16.131a19.0643,19.0643,0,0,1-3.669-.752c2.28-.349,5.2829-.8811,7.116-2.3381-1.5791.0651-3.144-.906-4.444-1.6409a10.8412,10.8412,0,0,0,8.009-1.1391c2.487-1.4809,1.6919-1.764,4.972-3.3329a21.8686,21.8686,0,0,1,4.375-1.0291s7.1519-3.04,17.687.723c7.729,2.7621,8.614,9.4651,8.746,12.337.126,2.736-1.201,3.971-1.8121,6.151.681-6.011-4.05-5.8479-7.4979-9.5639a58.0153,58.0153,0,0,0,3.984,6.7769c-3.2-1.9909-7.996-.276-11.696-5.8349,0,0,2.401,5.198,2.299,6.992-.161,2.826-1.0541,4.579-1.708,6.65-1.5831,5.006,1.0419,6.734,3.625,10.6551-.1351-.4731-4.4231-1.4261-9.5061-10.065,0,0,2.306,8.425,2.3771,12.235.0719,3.945-4.292,4.2769-4.854,5.356-1.0571,2.0279-5.386.9439-5.386.9439Z" class="cls-47"/><path d="M35.86,53.8061c-1.9311-.6429-5.485-3.779-9.014-5.733a16.5933,16.5933,0,0,1-7.633-9.9769c-1.8571-5.94-2.058-11.688,2.581-16.131a19.0643,19.0643,0,0,1-3.669-.752c2.28-.349,5.2829-.8811,7.116-2.3381-1.5791.0651-3.144-.906-4.444-1.6409a10.8412,10.8412,0,0,0,8.009-1.1391c2.487-1.4809,1.6919-1.764,4.972-3.3329a21.8686,21.8686,0,0,1,4.375-1.0291s7.1519-3.04,17.687.723c7.729,2.7621,8.614,9.4651,8.746,12.337.126,2.736-1.201,3.971-1.8121,6.151.681-6.011-4.05-5.8479-7.4979-9.5639a58.0153,58.0153,0,0,0,3.984,6.7769c-3.2-1.9909-7.996-.276-11.696-5.8349,0,0,2.401,5.198,2.299,6.992-.161,2.826-1.0541,4.579-1.708,6.65-1.5831,5.006,1.0419,6.734,3.625,10.6551-.1351-.4731-4.4231-1.4261-9.5061-10.065,0,0,2.306,8.425,2.3771,12.235.0719,3.945-4.292,4.2769-4.854,5.356-1.0571,2.0279-5.386.9439-5.386.9439Z" class="cls-8"/><path d="M43.1587,38.9637a2.1328,2.1328,0,0,0-3.0911.332c-1.187,1.272-.259,3.807,1.805,5.8591,1.43,1.4169,4.3851,1.9,5.588,1.796" class="cls-28"/><path d="M43.1587,38.9637a2.1328,2.1328,0,0,0-3.0911.332c-1.187,1.272-.259,3.807,1.805,5.8591,1.43,1.4169,4.3851,1.9,5.588,1.796" class="cls-8"/><path d="M63.4428,44.0518,58.0387,43.89s-.8549,4.691,1.16,5.92,4.244-5.7581,4.244-5.7581" class="cls-2"/><path d="M63.4428,44.0518,58.0387,43.89s-.8549,4.691,1.16,5.92S63.4428,44.0518,63.4428,44.0518Z" class="cls-8"/><path d="M30.1313,67.662s2.682-6.7469,7.5649-6.896c4.8811-.149,11.7151-1.915,15.5781.8581,3.862,2.768,5.204,3.1049,5.506,12.937.149,4.8819-4.052,12.7869-4.669,21.693-.615,8.906,1.007,17.588.803,19.1759a25.3467,25.3467,0,0,0,1.809,12.6571c-2.963,1.427-9.868-6.2231-11.1-4.6681-5.597,7.076-26.038,4.0691-29.111-1.287,0,0,8.2269-29.341,9.629-39.684,1.4469-10.709,3.99-14.786,3.99-14.786" class="cls-48"/><path d="M30.1313,67.662s2.682-6.7469,7.5649-6.896c4.8811-.149,11.7151-1.915,15.5781.8581,3.862,2.768,5.204,3.1049,5.506,12.937.149,4.8819-4.052,12.7869-4.669,21.693-.615,8.906,1.007,17.588.803,19.1759a25.3467,25.3467,0,0,0,1.809,12.6571c-2.963,1.427-9.868-6.2231-11.1-4.6681-5.597,7.076-26.038,4.0691-29.111-1.287,0,0,8.2269-29.341,9.629-39.684C27.5882,71.739,30.1313,67.662,30.1313,67.662Z" class="cls-8"/><path d="M34.1749,62.4883s-.9471,2.41,5.27,1.526a113.2842,113.2842,0,0,0,13.567-2.99L61.3,63.2124S59.5138,78.7,57.8868,89.5323c-1.11,7.367-2.5619,30.32-2.5619,30.32l-37.1-3.031,6.684-29.1059,3.825-21.505Z" class="cls-49"/><path d="M34.1749,62.4883s-.9471,2.41,5.27,1.526a113.2842,113.2842,0,0,0,13.567-2.99L61.3,63.2124S59.5138,78.7,57.8868,89.5323c-1.11,7.367-2.5619,30.32-2.5619,30.32l-37.1-3.031,6.684-29.1059,3.825-21.505Z" class="cls-8"/><path d="M51.7839,70.9983s-1.0251-7.8849,2.142-9.842c3.167-1.955,12.1869-9.3339,13.805-13.53,1.646-4.27,7.336-21.5511,7.336-21.5511l4.2319.3141,4.9591,2.2929s-3.285,22.484-8.889,28.9311C64.8519,69.7113,56.0778,87.2863,56.0778,87.2863s-4.952-8.099-4.2939-16.288" class="cls-50"/><path d="M51.7839,70.9983s-1.0251-7.8849,2.142-9.842c3.167-1.955,12.1869-9.3339,13.805-13.53,1.646-4.27,7.336-21.5511,7.336-21.5511l4.2319.3141,4.9591,2.2929s-3.285,22.484-8.889,28.9311C64.8519,69.7113,56.0778,87.2863,56.0778,87.2863S51.1258,79.1873,51.7839,70.9983Z" class="cls-8"/><path d="M34.4724,61.7356l.66-4.89a22.6374,22.6374,0,0,1,9.8371-.119c4.9219,1.181,7.0639.07,7.0639.07l.9371,4.081Z" class="cls-51"/><path d="M34.4724,61.7356l.66-4.89a22.6374,22.6374,0,0,1,9.8371-.119c4.9219,1.181,7.0639.07,7.0639.07l.9371,4.081Z" class="cls-8"/><polygon points="83.357 35.596 73.019 31.692 75.662 23.448 85.925 27.061 83.357 35.596" class="cls-52"/><polygon points="83.357 35.596 73.019 31.692 75.662 23.448 85.925 27.061 83.357 35.596" class="cls-8"/><polygon points="13.212 121.141 6.203 117.151 10.646 108.502 19.11 112.52 13.212 121.141" class="cls-53"/><polygon points="13.212 121.141 6.203 117.151 10.646 108.502 19.11 112.52 13.212 121.141" class="cls-8"/><polyline points="44.741 43.904 44.557 42.574 42.136 41.593" class="cls-8"/></svg>