<svg xmlns="http://www.w3.org/2000/svg" id="Layer_1" data-name="Layer 1" viewBox="0 0 99.512 156.691"><defs><style>.cls-1{fill:#ffeebc}.cls-2,.cls-20{fill:none;stroke:#231f20;stroke-linecap:round;stroke-linejoin:round}.cls-2{stroke-width:1.001px}.cls-3{fill:#fcdcd3}.cls-6{fill:#e1b970}.cls-7{fill:#fbd9d2}.cls-8{fill:#fbd6d2}.cls-9{fill:#fbd3d0}.cls-10{fill:#fad0cf}.cls-11{fill:#facdcf}.cls-12{fill:#f9c9ce}.cls-13{fill:#f9c6cd}.cls-14{fill:#f8c3cc}.cls-15{fill:#f8c0cb}.cls-16{fill:#faaf40}.cls-17{fill:#80c9ef}.cls-18{fill:#929497}.cls-20{stroke-width:.429px}</style></defs><path d="M86.995 80.917s5.7 2.18 5.093 9.791c-.934 11.668-6.25 57.978-5.457 62.337.608 3.348-13.783-4.353-13.783-4.353s3.103-46.72 5.235-53.418c2.13-6.698 8.912-14.357 8.912-14.357" class="cls-1"/><path d="M86.995 80.917s5.7 2.18 5.093 9.791c-.934 11.668-6.25 57.978-5.457 62.337.608 3.348-13.783-4.353-13.783-4.353s3.103-46.72 5.235-53.418c2.13-6.698 8.912-14.357 8.912-14.357Z" class="cls-2"/><path d="M8.515 99.993s22.529-4.565 36.534-2.13c.949.165-4.262-18.572-4.262-18.572s-3.654 2.436-16.745 6.09-18.877 5.784-18.877 5.784-2.131 7.307 3.35 8.829" class="cls-1"/><path d="M8.515 99.993s22.529-4.565 36.534-2.13c.949.165-4.262-18.572-4.262-18.572s-3.654 2.436-16.745 6.09-18.877 5.784-18.877 5.784-2.131 7.307 3.35 8.828Z" class="cls-2"/><path d="m39.569 78.986 12.639-3.837s12.69-2.526 20.94-.249c5.746 1.586 6.804 2.56 9.654 3.781a40.355 40.355 0 0 1 4.566 2.436 194.395 194.395 0 0 0-5.15 21.516c-1.68 10.18.584 31.9.584 34.81 0 2.906-41.406-.306-41.406-.306s2.436-24.764 2.436-33.49c0-9.35-.681-11.194-4.263-24.66" class="cls-1"/><path d="m39.569 78.986 12.639-3.837s12.69-2.526 20.94-.249c5.746 1.586 6.804 2.56 9.654 3.781a40.355 40.355 0 0 1 4.566 2.436 194.395 194.395 0 0 0-5.15 21.516c-1.68 10.18.584 31.9.584 34.81 0 2.906-41.406-.306-41.406-.306s2.436-24.764 2.436-33.49c0-9.35-.681-11.194-4.263-24.66Z" class="cls-2"/><path d="M56.687 66.646s2.427 5.514.286 6.941a16.283 16.283 0 0 1-4.92 2.018s1.289 6.961 12.178 6.426c7.105-.35 13.046-5.795 13.046-5.795s-6.488-2.628-7.201-4.949c-.715-2.32-.537-7.854-.537-7.854Z" class="cls-3"/><path d="M56.687 66.646s2.427 5.514.286 6.941a16.283 16.283 0 0 1-4.92 2.018s1.289 6.961 12.178 6.426c7.105-.35 13.046-5.795 13.046-5.795s-6.488-2.628-7.201-4.949c-.715-2.32-.537-7.854-.537-7.854Z" class="cls-2"/><path d="M38.037 30.723s2.228 6.07 2.678 17.315c.403 10.082 7.645 16.712 14.28 19.458 5.177 2.142 10.354 3.213 16.6-.357 8.017-4.58 13.04-11.766 13.21-19.814.178-8.292 5.318-9.616 2.144-22.315C84.93 16.939 77.29 7.16 62.672 7.16c-16.27 0-25.984 13.441-24.635 23.563" class="cls-3"/><path d="M38.037 30.723s2.228 6.07 2.678 17.315c.403 10.082 7.645 16.712 14.28 19.458 5.177 2.142 10.354 3.213 16.6-.357 8.017-4.58 13.04-11.766 13.21-19.814.178-8.292 5.318-9.616 2.144-22.315C84.93 16.939 77.29 7.16 62.672 7.16c-16.27 0-25.984 13.441-24.635 23.563Z" class="cls-2"/><path d="M62.08 43.155c.32 1.368.447 2.756-.351 2.756-1.574 0-2.025-.177-1.8 1.125a6.873 6.873 0 0 0 2.025 3.149" class="cls-2"/><path d="M52.153 43.541c0 2.423-.805 4.387-1.8 4.387s-1.799-1.964-1.799-4.386.805-4.387 1.8-4.387 1.8 1.964 1.8 4.386m24.384-.286c0 2.422-.806 4.386-1.799 4.386-.995 0-1.799-1.964-1.799-4.386s.804-4.386 1.8-4.386c.992 0 1.798 1.964 1.798 4.386" style="fill:#231f20"/><path d="m57.077 54.237 14.146-.315s-3.424 9.607-7.787 9.524c-4.787-.092-6.36-9.209-6.36-9.209" style="fill:#fff"/><path d="m57.077 54.237 14.146-.315s-3.424 9.607-7.787 9.524c-4.787-.092-6.36-9.209-6.36-9.209Z" class="cls-2"/><path d="M50.175 18.584a29.35 29.35 0 0 0 6.427 9.461c5.71 5.891 12.852 8.033 24.277 11.245L69.87 15.475S86.137 34.14 84.627 48.931c-.892 8.747-1.963 11.067-5.89 14.994a19.667 19.667 0 0 1-6.257 4.145 31.733 31.733 0 0 0 13.026-2.48c7.409-3.179 19.356-14.182 10.182-37.847C88.876 10.17 79.041.754 62.393.503 48.462.29 31.183 18.1 28.397 41.254c-2.13 17.697 10.354 23.741 16.958 26.42a19.052 19.052 0 0 0 7.95 1.337s-4.046-1.628-5.63-4.552c-3.853-7.117-8.031-19.635-6.07-27.847 2.062-8.622 8.57-18.029 8.57-18.029" class="cls-6"/><path d="M50.175 18.584a29.35 29.35 0 0 0 6.427 9.461c5.71 5.891 12.852 8.033 24.277 11.245L69.87 15.475S86.137 34.14 84.627 48.931c-.892 8.747-1.963 11.067-5.89 14.994a19.667 19.667 0 0 1-6.257 4.145 31.733 31.733 0 0 0 13.026-2.48c7.409-3.179 19.356-14.182 10.182-37.847C88.876 10.17 79.041.754 62.393.503 48.462.29 31.183 18.1 28.397 41.254c-2.13 17.697 10.354 23.741 16.958 26.42a19.052 19.052 0 0 0 7.95 1.337s-4.046-1.628-5.63-4.552c-3.853-7.117-8.031-19.635-6.07-27.847 2.062-8.622 8.57-18.029 8.57-18.029Z" class="cls-2"/><path d="M40.456 53.64c2.212 3.56-5.397-.866-7.277-4.444s-1.635-7.32.466-8.514a3.167 3.167 0 0 1 4.072.694s.527 8.703 2.74 12.263" class="cls-3"/><path d="M40.456 53.64c2.212 3.56-5.397-.866-7.277-4.444s-1.635-7.32.466-8.514a3.167 3.167 0 0 1 4.072.694s.527 8.703 2.74 12.263Z" class="cls-2"/><path d="M40.953 24.969s-3.916 7.883-3.447 20.148c.613 16.004 13.546 20.04 13.546 20.04s-7.065-5.065-8.08-18.244c-1.156-14.982 7.203-28.328 7.203-28.328" class="cls-6"/><path d="M40.953 24.969s-3.916 7.883-3.447 20.148c.613 16.004 13.546 20.04 13.546 20.04s-7.065-5.065-8.08-18.244c-1.156-14.982 7.203-28.328 7.203-28.328" class="cls-2"/><path d="M86.391 53.64c-2.213 3.56 5.396-.866 7.277-4.444s1.635-7.32-.467-8.514a3.166 3.166 0 0 0-4.071.694s-.528 8.703-2.739 12.263" class="cls-3"/><path d="M86.391 53.64c-2.213 3.56 5.396-.866 7.277-4.444s1.635-7.32-.467-8.514a3.166 3.166 0 0 0-4.071.694s-.528 8.703-2.739 12.263Z" class="cls-2"/><path d="M85.893 24.969s3.917 7.883 3.446 20.148c-.61 16.004-13.545 20.04-13.545 20.04s6.716-5.096 8.081-18.244C84.92 36.84 78.13 27.278 78.13 27.278" class="cls-6"/><path d="M85.893 24.969s3.917 7.883 3.446 20.148c-.61 16.004-13.545 20.04-13.545 20.04s6.716-5.096 8.081-18.244C84.92 36.84 78.13 27.278 78.13 27.278" class="cls-2"/><path d="M53.69 52.582a3.764 3.764 0 1 1-3.764-3.763 3.763 3.763 0 0 1 3.763 3.763" class="cls-3"/><path d="M49.925 56.136a3.554 3.554 0 1 1 3.554-3.553 3.554 3.554 0 0 1-3.554 3.553" class="cls-7"/><path d="M49.925 55.927a3.345 3.345 0 1 1 3.347-3.345 3.345 3.345 0 0 1-3.346 3.345" class="cls-8"/><path d="M49.925 55.718a3.136 3.136 0 1 1 3.137-3.136 3.136 3.136 0 0 1-3.136 3.136" class="cls-9"/><path d="M49.925 55.509a2.928 2.928 0 1 1 2.928-2.927 2.928 2.928 0 0 1-2.928 2.927" class="cls-10"/><path d="M49.925 55.3a2.718 2.718 0 1 1 2.719-2.719 2.718 2.718 0 0 1-2.718 2.718" class="cls-11"/><path d="M49.925 55.09a2.509 2.509 0 1 1 2.509-2.508 2.508 2.508 0 0 1-2.508 2.508" class="cls-12"/><path d="M49.925 54.882a2.3 2.3 0 1 1 2.3-2.3 2.3 2.3 0 0 1-2.3 2.3" class="cls-13"/><path d="M49.925 54.672a2.091 2.091 0 1 1 2.09-2.09 2.09 2.09 0 0 1-2.09 2.09" class="cls-14"/><path d="M51.807 52.582a1.881 1.881 0 1 1-1.882-1.882 1.882 1.882 0 0 1 1.882 1.882" class="cls-15"/><path d="M80.788 52.582a3.764 3.764 0 1 1-3.762-3.763 3.763 3.763 0 0 1 3.762 3.763" class="cls-3"/><path d="M77.025 56.136a3.554 3.554 0 1 1 3.552-3.553 3.554 3.554 0 0 1-3.552 3.553" class="cls-7"/><path d="M77.024 55.927a3.345 3.345 0 1 1 3.346-3.345 3.345 3.345 0 0 1-3.346 3.345" class="cls-8"/><path d="M77.025 55.718a3.136 3.136 0 1 1 3.135-3.136 3.137 3.137 0 0 1-3.135 3.136" class="cls-9"/><path d="M77.025 55.509a2.928 2.928 0 1 1 2.926-2.927 2.927 2.927 0 0 1-2.926 2.927" class="cls-10"/><path d="M77.025 55.3a2.718 2.718 0 1 1 2.717-2.719 2.718 2.718 0 0 1-2.717 2.718" class="cls-11"/><path d="M77.025 55.09a2.509 2.509 0 1 1 2.508-2.508 2.508 2.508 0 0 1-2.508 2.508" class="cls-12"/><path d="M77.024 54.882a2.3 2.3 0 1 1 2.3-2.3 2.3 2.3 0 0 1-2.3 2.3" class="cls-13"/><path d="M77.025 54.672a2.091 2.091 0 1 1 2.09-2.09 2.09 2.09 0 0 1-2.09 2.09" class="cls-14"/><path d="M78.907 52.582a1.881 1.881 0 1 1-1.882-1.882 1.883 1.883 0 0 1 1.882 1.882" class="cls-15"/><path class="cls-16" d="m42.496 132.575 6.396-37.266 27.978.313 5.613 36.169-39.987.784z"/><path class="cls-2" d="m42.496 132.575 6.396-37.266 27.978.313 5.613 36.169-39.987.784z"/><path d="m51.516 104.624 21.256-.406s1.79 13.104-1.51 15.221-17.795 1.444-19.186-1.017-.56-13.798-.56-13.798" class="cls-16"/><path d="m51.516 104.624 21.256-.406s1.79 13.104-1.51 15.221-17.795 1.444-19.186-1.017-.56-13.798-.56-13.798Z" class="cls-2"/><path class="cls-17" d="m64.532 105.121-.338 15.306"/><path class="cls-2" d="m64.532 105.121-.338 15.306"/><path class="cls-17" d="m68.9 104.524-.337 15.308"/><path class="cls-2" d="m68.9 104.524-.337 15.308"/><path class="cls-16" d="m41.776 130.455 41.72.26 3.488 25.476H37.628l4.148-25.736z"/><path class="cls-2" d="m41.776 130.455 41.72.26 3.488 25.476H37.628l4.148-25.736z"/><path class="cls-16" d="M44.644 77.174 49.74 93l4.025-1.342-4.561-17.167-4.56 2.683z"/><path class="cls-2" d="M44.644 77.174 49.74 93l4.025-1.342-4.561-17.167-4.56 2.683z"/><path class="cls-16" d="m79.033 76.071 5.539 2.942-6.404 13.586-5.452-.779 6.317-15.749z"/><path class="cls-2" d="m79.033 76.071 5.539 2.942-6.404 13.586-5.452-.779 6.317-15.749zm-23.906 18a1.557 1.557 0 0 0-1.558-1.558h-3.461a1.557 1.557 0 0 0-.031 3.113 2.034 2.034 0 1 0 3.524 0 1.557 1.557 0 0 0 1.526-1.555Z"/><path d="M53.94 98.944a2.012 2.012 0 1 1-2.011-2.012 2.012 2.012 0 0 1 2.011 2.012" class="cls-18"/><path d="M53.94 98.944a2.012 2.012 0 1 1-2.011-2.012 2.012 2.012 0 0 1 2.011 2.012Z" class="cls-2"/><path class="cls-18" d="M48.573 91.604h6.23v1.645h-6.23z"/><path class="cls-2" d="M48.572 91.604h6.23v1.645h-6.23zm22.962 2.468a1.558 1.558 0 0 1 1.668-1.44l3.452.257a1.556 1.556 0 0 1-.198 3.105 2.003 2.003 0 0 1 .196 1.016 2.033 2.033 0 1 1-4.055-.3 2.003 2.003 0 0 1 .345-.975 1.555 1.555 0 0 1-1.408-1.663Z"/><path d="M72.358 99.019a2.012 2.012 0 1 0 2.155-1.858 2.011 2.011 0 0 0-2.155 1.858" class="cls-18"/><path d="M72.358 99.019a2.012 2.012 0 1 0 2.155-1.858 2.011 2.011 0 0 0-2.155 1.858Z" class="cls-2"/><path class="cls-18" transform="rotate(-85.766 75.085 92.685)" d="M74.263 89.57h1.644v6.231h-1.644z"/><path class="cls-2" transform="rotate(-85.766 75.085 92.685)" d="M74.263 89.57h1.644v6.231h-1.644z"/><path d="M34.125 73.509s-.218-4.14-.607-6.145c-.599-3.092.235-3.847 1.436-3.179 2.124 1.182 2.687 2.371 2.993 5.592.306 3.219.128 2.986.128 2.986Z" class="cls-3"/><path d="M34.125 73.509s-.218-4.14-.607-6.145c-.599-3.092.235-3.847 1.436-3.179 2.124 1.182 2.687 2.371 2.993 5.592.306 3.219.128 2.986.128 2.986Z" class="cls-2"/><path d="M26.139 83.141s10.057-11.894 11.05-13.01c.99-1.117 2.89-1.855 6.526-.638 3.355 1.122 1.799 3.594 1.799 3.594a2.64 2.64 0 0 1 1.178 2.045 2.275 2.275 0 0 1-1.37 1.732 1.9 1.9 0 0 1 1.766 2.337 3.152 3.152 0 0 1-1.283 1.701s1.383 1.782.744 3.073c-.886 1.787-3.16.772-3.16.772s-3.733 3.996-7.183 5.355a66.396 66.396 0 0 1-8.364 2.43l-10.503 2.142-1.686-9.196s8.71.51 10.486-2.337" class="cls-3"/><path d="M26.139 83.141s10.057-11.894 11.05-13.01c.99-1.117 2.89-1.855 6.526-.638 3.355 1.122 1.799 3.594 1.799 3.594a2.64 2.64 0 0 1 1.178 2.045 2.275 2.275 0 0 1-1.37 1.732 1.9 1.9 0 0 1 1.766 2.337 3.152 3.152 0 0 1-1.283 1.701s1.383 1.782.744 3.073c-.886 1.787-3.16.772-3.16.772s-3.733 3.996-7.183 5.355a66.396 66.396 0 0 1-8.364 2.43l-10.503 2.142-1.686-9.196s8.71.51 10.486-2.337Z" class="cls-2"/><path class="cls-3" d="m45.513 73.087-4.278-1.098"/><path class="cls-2" d="m45.513 73.087-4.278-1.098"/><path class="cls-3" d="m45.673 77.039-4.278-1.098"/><path class="cls-2" d="m45.673 77.039-4.278-1.098"/><path class="cls-3" d="m45.805 80.903-4.279-1.096"/><path class="cls-2" d="m45.805 80.903-4.279-1.096"/><path d="M38.891 71.414s.334 3.6.694 5.823a23.22 23.22 0 0 1 .19 4.332" class="cls-3"/><path d="M38.891 71.414s.334 3.6.694 5.823a23.22 23.22 0 0 1 .19 4.332" class="cls-2"/><path d="m22.52 83.553 1.913 14.01s-9.113 3.084-13.54 3.318c-13.666.715-12.769-12.36-3.597-13.979 5.176-.913 15.223-3.35 15.223-3.35" class="cls-1"/><path d="m22.52 83.553 1.913 14.01s-9.113 3.084-13.54 3.318c-13.666.715-12.769-12.36-3.597-13.979 5.176-.913 15.223-3.35 15.223-3.35Z" class="cls-2"/><path style="fill:#e2dddb" d="M40.699 134.225h42.553"/><path class="cls-20" d="M40.699 134.225h.714"/><path style="stroke-dasharray:1.418 1.418;stroke-width:.429px;fill:none;stroke:#231f20;stroke-linecap:round;stroke-linejoin:round" d="M42.832 134.225h38.995"/><path class="cls-20" d="M82.537 134.225h.715"/><path class="cls-2" d="m34.506 44.445 1.876 3.136-.151 2.288m55.723-4.191-1.488 1.904-.237 1.548"/></svg>