<svg xmlns="http://www.w3.org/2000/svg" id="Layer_1" data-name="Layer 1" viewBox="0 0 132.499 158.357"><defs><clipPath id="clip-path"><path d="M92.741 125.156c.067.115.136.227.206.335a6.971 6.971 0 0 0 2.272 2.248v-2.583Z" class="cls-1"/></clipPath><clipPath id="clip-path-2"><path d="M95.219 125.156v2.583c2.51 1.493 5.442.795 7.149.146v-2.729Z" class="cls-1"/></clipPath><clipPath id="clip-path-3"><path d="M102.368 125.156v2.729a10.71 10.71 0 0 0 1.438-.659s1.026-.878 2.37-2.07Z" class="cls-1"/></clipPath><clipPath id="clip-path-4"><path d="M90.8 97.528c-.762 6.246-1.651 22.122 2.147 27.963 3.796 5.842 10.859 1.735 10.859 1.735s5.351-4.58 7.617-7.013c7.139-7.666-8.222-5.711-8.222-5.711s-1.291-12.148-1.136-18.446c.391-16.027-5.6-16.854-5.6-16.854S92.754 81.5 90.8 97.528" class="cls-1"/></clipPath><clipPath id="clip-path-5"><path class="cls-1" d="M109.517 125.156h7.149v7.15h-7.149z"/></clipPath><clipPath id="clip-path-6"><path class="cls-1" d="M116.667 125.156h7.149v7.15h-7.149z"/></clipPath><clipPath id="clip-path-7"><path d="M90.657 118.006a20.283 20.283 0 0 0 2.084 7.15h2.478v-7.15Z" class="cls-1"/></clipPath><clipPath id="clip-path-8"><path class="cls-1" d="M95.219 118.006h7.15v7.15h-7.15z"/></clipPath><clipPath id="clip-path-9"><path d="M102.368 118.006v7.15h3.808a144.645 144.645 0 0 0 3.341-3.047v-4.103Z" class="cls-1"/></clipPath><clipPath id="clip-path-10"><path d="M109.517 118.006v4.103a45.787 45.787 0 0 0 1.906-1.896 8.82 8.82 0 0 0 1.594-2.207Z" class="cls-1"/></clipPath><clipPath id="clip-path-12"><path class="cls-1" d="M116.667 118.006h7.149v7.15h-7.149z"/></clipPath><clipPath id="clip-path-13"><path d="M90.144 110.856a61.226 61.226 0 0 0 .513 7.15h4.562v-7.15Z" class="cls-1"/></clipPath><clipPath id="clip-path-14"><path class="cls-1" d="M95.219 110.855h7.15v7.151h-7.15z"/></clipPath><clipPath id="clip-path-15"><path d="M102.368 110.856v7.15h7.149v-3.589a30.05 30.05 0 0 0-6.316.085s-.156-1.467-.353-3.646Z" class="cls-1"/></clipPath><clipPath id="clip-path-16"><path d="M109.517 118.006h3.5c1.09-2.36-.983-3.28-3.5-3.589Z" class="cls-1"/></clipPath><clipPath id="clip-path-18"><path class="cls-1" d="M116.667 110.856h7.149v7.15h-7.149z"/></clipPath><clipPath id="clip-path-19"><path d="M90.28 103.705a100.967 100.967 0 0 0-.136 7.151h5.075v-7.151Z" class="cls-1"/></clipPath><clipPath id="clip-path-20"><path d="M95.219 103.705v7.151h7.149v-6.018l-.073-1.133Z" class="cls-1"/></clipPath><clipPath id="clip-path-21"><path d="M102.368 110.856h.48a273.678 273.678 0 0 1-.48-6.018Z" class="cls-1"/></clipPath><clipPath id="clip-path-23"><path class="cls-1" d="M109.517 103.706h7.149v7.15h-7.149z"/></clipPath><clipPath id="clip-path-24"><path class="cls-1" d="M116.667 103.706h7.149v7.15h-7.149z"/></clipPath><clipPath id="clip-path-25"><path d="M90.922 96.556q-.061.477-.122.972a93.844 93.844 0 0 0-.52 6.177h4.939v-7.149Z" class="cls-1"/></clipPath><clipPath id="clip-path-26"><path d="M95.219 96.556v7.149h7.076c-.158-2.543-.265-5.105-.239-7.149Z" class="cls-1"/></clipPath><clipPath id="clip-path-28"><path class="cls-1" d="M102.368 96.555h7.149v7.15h-7.149z"/></clipPath><clipPath id="clip-path-29"><path class="cls-1" d="M109.517 96.555h7.149v7.15h-7.149z"/></clipPath><clipPath id="clip-path-30"><path class="cls-1" d="M116.667 96.555h7.149v7.15h-7.149z"/></clipPath><clipPath id="clip-path-31"><path d="M92.153 89.405c-.442 1.986-.863 4.346-1.231 7.151h4.297v-7.151Z" class="cls-1"/></clipPath><clipPath id="clip-path-32"><path d="M95.219 89.405v7.151h6.837c.002-.17.005-.337.009-.5a47.467 47.467 0 0 0-.259-6.651Z" class="cls-1"/></clipPath><clipPath id="clip-path-34"><path class="cls-1" d="M102.368 89.405h7.149v7.15h-7.149z"/></clipPath><clipPath id="clip-path-35"><path class="cls-1" d="M109.517 89.405h7.149v7.15h-7.149z"/></clipPath><clipPath id="clip-path-36"><path class="cls-1" d="M116.667 89.405h7.149v7.15h-7.149z"/></clipPath><clipPath id="clip-path-37"><path d="M94.411 82.255a35.865 35.865 0 0 0-2.258 7.15h3.066v-7.15Z" class="cls-1"/></clipPath><clipPath id="clip-path-38"><path d="M95.219 82.255v7.15h6.587a19.426 19.426 0 0 0-2.011-7.15Z" class="cls-1"/></clipPath><clipPath id="clip-path-40"><path class="cls-1" d="M102.368 82.255h7.149v7.15h-7.149z"/></clipPath><clipPath id="clip-path-41"><path class="cls-1" d="M109.517 82.255h7.149v7.15h-7.149z"/></clipPath><clipPath id="clip-path-42"><path class="cls-1" d="M116.667 82.255h7.149v7.15h-7.149z"/></clipPath><clipPath id="clip-path-43"><path d="M94.411 82.255h.808v-1.531a14.714 14.714 0 0 0-.808 1.531" class="cls-1"/></clipPath><clipPath id="clip-path-44"><path d="M95.219 80.724v1.531h4.576c-1.555-2.808-3.33-3.053-3.33-3.053a4.826 4.826 0 0 0-1.246 1.522" class="cls-1"/></clipPath><clipPath id="clip-path-46"><path class="cls-1" d="M102.368 75.105h7.149v7.15h-7.149z"/></clipPath><clipPath id="clip-path-47"><path class="cls-1" d="M109.517 75.105h7.149v7.15h-7.149z"/></clipPath><clipPath id="clip-path-48"><path class="cls-1" d="M116.667 75.105h7.149v7.15h-7.149z"/></clipPath><clipPath id="clip-path-49"><path d="M46.686 93.19c-1.067 6.068-2.137 22.109-2.137 22.109s-8.077-2.039-12.429-5.304c-4.433-3.324-9.592 9.815-4.672 11.611 4.346 1.585 17.34 8.27 21.875 5.868 4.535-2.399 6.452-14.411 5.918-22.68s-3.374-23.878-3.374-23.878a.6.6 0 0 0-.311-.074c-.781 0-2.898 1.141-4.87 12.348" class="cls-1"/></clipPath><clipPath id="clip-path-50"><path class="cls-1" d="M17.092 125.025h7.149v7.15h-7.149z"/></clipPath><clipPath id="clip-path-51"><path class="cls-1" d="M24.241 125.025h7.149v7.15h-7.149z"/></clipPath><clipPath id="clip-path-52"><path d="M35.659 125.024c.946.377 1.914.748 2.881 1.092v-1.092Z" class="cls-1"/></clipPath><clipPath id="clip-path-53"><path d="M38.54 125.024v1.092a31.58 31.58 0 0 0 7.149 1.819v-2.911Z" class="cls-1"/></clipPath><clipPath id="clip-path-54"><path d="M45.689 125.024v2.911a6.592 6.592 0 0 0 3.634-.461 6.597 6.597 0 0 0 2.386-2.45Z" class="cls-1"/></clipPath><clipPath id="clip-path-56"><path class="cls-1" d="M52.838 125.025h7.149v7.15h-7.149z"/></clipPath><clipPath id="clip-path-57"><path class="cls-1" d="M17.092 117.875h7.149v7.15h-7.149z"/></clipPath><clipPath id="clip-path-58"><path d="M25.447 117.875c-.002 1.744.578 3.212 2.001 3.731.956.349 2.331.945 3.943 1.636v-5.367Z" class="cls-1"/></clipPath><clipPath id="clip-path-59"><path d="M31.391 117.875v5.367c1.3.558 2.755 1.179 4.268 1.782h2.881v-7.149Z" class="cls-1"/></clipPath><clipPath id="clip-path-60"><path class="cls-1" d="M38.54 117.874h7.149v7.15H38.54z"/></clipPath><clipPath id="clip-path-61"><path d="M45.689 117.875v7.149h6.02a15.208 15.208 0 0 0 1.129-2.271v-4.878Z" class="cls-1"/></clipPath><clipPath id="clip-path-62"><path d="M52.838 117.875v4.878a29.317 29.317 0 0 0 1.446-4.878Z" class="cls-1"/></clipPath><clipPath id="clip-path-64"><path class="cls-1" d="M17.092 110.725h7.149v7.15h-7.149z"/></clipPath><clipPath id="clip-path-65"><path d="M28.2 110.724a11.418 11.418 0 0 0-2.753 7.151h5.944v-7.151Z" class="cls-1"/></clipPath><clipPath id="clip-path-66"><path d="M31.391 110.724v7.151h7.149v-4.537a32.291 32.291 0 0 1-5.359-2.614Z" class="cls-1"/></clipPath><clipPath id="clip-path-67"><path d="M44.881 110.724c-.207 2.705-.332 4.575-.332 4.575a56.243 56.243 0 0 1-6.009-1.961v4.537h7.149v-7.151Z" class="cls-1"/></clipPath><clipPath id="clip-path-68"><path class="cls-1" d="M45.689 110.724h7.15v7.151h-7.15z"/></clipPath><clipPath id="clip-path-69"><path d="M52.838 110.724v7.151h1.446a49.179 49.179 0 0 0 .948-7.151Z" class="cls-1"/></clipPath><clipPath id="clip-path-71"><path class="cls-1" d="M17.092 103.574h7.149v7.15h-7.149z"/></clipPath><clipPath id="clip-path-72"><path d="M28.2 110.724h3.191v-1.13a2.246 2.246 0 0 0-.766-.135 3.488 3.488 0 0 0-2.425 1.265" class="cls-1"/></clipPath><clipPath id="clip-path-73"><path d="M31.391 110.724h1.79a15.664 15.664 0 0 1-1.061-.729 2.826 2.826 0 0 0-.729-.401Z" class="cls-1"/></clipPath><clipPath id="clip-path-74"><path d="M45.475 103.574a509.231 509.231 0 0 0-.594 7.15h.808v-7.15Z" class="cls-1"/></clipPath><clipPath id="clip-path-75"><path class="cls-1" d="M45.689 103.574h7.15v7.15h-7.15z"/></clipPath><clipPath id="clip-path-76"><path d="M52.838 103.574v7.15h2.394a47.917 47.917 0 0 0 .009-5.93 64.214 64.214 0 0 0-.09-1.22Z" class="cls-1"/></clipPath><clipPath id="clip-path-78"><path class="cls-1" d="M17.092 96.424h7.149v7.15h-7.149z"/></clipPath><clipPath id="clip-path-79"><path class="cls-1" d="M24.241 96.424h7.149v7.15h-7.149z"/></clipPath><clipPath id="clip-path-80"><path class="cls-1" d="M31.391 96.424h7.149v7.15h-7.149z"/></clipPath><clipPath id="clip-path-81"><path d="M45.475 103.574h.214v-2.276c-.074.754-.145 1.516-.214 2.276" class="cls-1"/></clipPath><clipPath id="clip-path-82"><path d="M46.219 96.424a196.902 196.902 0 0 0-.53 4.874v2.276h7.149v-7.15Z" class="cls-1"/></clipPath><clipPath id="clip-path-83"><path d="M52.838 96.424v7.15h2.313c-.177-2.13-.472-4.618-.814-7.15Z" class="cls-1"/></clipPath><clipPath id="clip-path-85"><path class="cls-1" d="M17.092 89.274h7.149v7.15h-7.149z"/></clipPath><clipPath id="clip-path-86"><path class="cls-1" d="M24.241 89.274h7.149v7.15h-7.149z"/></clipPath><clipPath id="clip-path-87"><path class="cls-1" d="M31.391 89.274h7.149v7.15h-7.149z"/></clipPath><clipPath id="clip-path-88"><path class="cls-1" d="M38.54 89.274h7.149v7.15H38.54z"/></clipPath><clipPath id="clip-path-89"><path d="M47.467 89.274a81.564 81.564 0 0 0-.781 3.916c-.157.89-.313 1.996-.467 3.234h6.619v-7.15Z" class="cls-1"/></clipPath><clipPath id="clip-path-90"><path d="M52.838 89.274v7.15h1.499c-.33-2.436-.704-4.912-1.059-7.15Z" class="cls-1"/></clipPath><clipPath id="clip-path-92"><path class="cls-1" d="M17.092 82.124h7.149v7.15h-7.149z"/></clipPath><clipPath id="clip-path-93"><path class="cls-1" d="M24.241 82.124h7.149v7.15h-7.149z"/></clipPath><clipPath id="clip-path-94"><path class="cls-1" d="M31.391 82.124h7.149v7.15h-7.149z"/></clipPath><clipPath id="clip-path-95"><path class="cls-1" d="M38.54 82.124h7.149v7.15H38.54z"/></clipPath><clipPath id="clip-path-96"><path d="M49.964 82.123c-.735 1.141-1.611 3.259-2.497 7.151h5.371v-2.716c-.31-1.878-.58-3.436-.756-4.435Z" class="cls-1"/></clipPath><clipPath id="clip-path-97"><path d="M52.838 89.274h.44c-.151-.956-.3-1.869-.44-2.716Z" class="cls-1"/></clipPath><clipPath id="clip-path-99"><path class="cls-1" d="M17.092 74.973h7.149v7.15h-7.149z"/></clipPath><clipPath id="clip-path-100"><path class="cls-1" d="M24.241 74.973h7.149v7.15h-7.149z"/></clipPath><clipPath id="clip-path-101"><path class="cls-1" d="M31.391 74.973h7.149v7.15h-7.149z"/></clipPath><clipPath id="clip-path-102"><path class="cls-1" d="M38.54 74.973h7.149v7.15H38.54z"/></clipPath><clipPath id="clip-path-103"><path d="M49.964 82.123h2.118a198.38 198.38 0 0 0-.215-1.207.6.6 0 0 0-.311-.074c-.33 0-.898.203-1.592 1.281" class="cls-1"/></clipPath><clipPath id="clip-path-105"><path class="cls-1" d="M52.838 74.973h7.149v7.15h-7.149z"/></clipPath><clipPath id="clip-path-106"><path d="M27.235 121.487c1.678.602 3.517 1.644 6.779 2.958 0 0 3.417-1.821 4.163-4.795a14.81 14.81 0 0 0-.414-6.714 29.787 29.787 0 0 1-5.855-3.059 2.394 2.394 0 0 0-1.406-.488c-3.896-.001-7.157 10.703-3.267 12.098" class="cls-1"/></clipPath><clipPath id="clip-path-107"><path class="cls-1" d="M16.88 117.764h7.149v7.15H16.88z"/></clipPath><clipPath id="clip-path-108"><path d="M25.487 117.764c-.044 1.778.46 3.261 1.748 3.723 1.118.401 2.308.998 3.943 1.74v-5.463Z" class="cls-1"/></clipPath><clipPath id="clip-path-109"><path d="M31.178 117.764v5.463c.818.372 1.748.78 2.836 1.218 0 0 3.417-1.821 4.163-4.795.063-.256.113-.517.151-.781v-1.105Z" class="cls-1"/></clipPath><clipPath id="clip-path-110"><path d="M38.328 117.764v1.105a9.957 9.957 0 0 0 .092-1.105Z" class="cls-1"/></clipPath><clipPath id="clip-path-112"><path class="cls-1" d="M16.88 110.614h7.149v7.15H16.88z"/></clipPath><clipPath id="clip-path-113"><path d="M28.198 110.614a12.003 12.003 0 0 0-2.711 7.15h5.691v-7.15Z" class="cls-1"/></clipPath><clipPath id="clip-path-114"><path d="M31.178 110.614v7.15h7.15v-1.984a17.339 17.339 0 0 0-.565-2.844 34.306 34.306 0 0 1-4.735-2.322Z" class="cls-1"/></clipPath><clipPath id="clip-path-115"><path d="M38.328 117.764h.092a13.871 13.871 0 0 0-.092-1.984Z" class="cls-1"/></clipPath><clipPath id="clip-path-117"><path class="cls-1" d="M16.88 103.464h7.149v7.15H16.88z"/></clipPath><clipPath id="clip-path-118"><path d="M28.198 110.614h2.98v-1.115a2.166 2.166 0 0 0-.676-.109 3.259 3.259 0 0 0-2.304 1.224" class="cls-1"/></clipPath><clipPath id="clip-path-119"><path d="M31.178 110.614h1.85a18.554 18.554 0 0 1-1.12-.737 2.71 2.71 0 0 0-.73-.378Z" class="cls-1"/></clipPath><clipPath id="clip-path-121"><path class="cls-1" d="M38.328 103.464h7.149v7.15h-7.149z"/></clipPath><clipPath id="clip-path-122"><path class="cls-1" d="M24.98 108.951h8.585v13.072H24.98z"/></clipPath><clipPath id="clip-path-123"><path d="M102.222 110.183a10.528 10.528 0 0 0-3.921 3.392c-3.77 6.411 7.532 11.765 10.935 8.524a40.644 40.644 0 0 0 5.732-6.864s-1.473-3.682-4.374-4.676a16.259 16.259 0 0 0-5.243-.981 6.511 6.511 0 0 0-3.129.605" class="cls-1"/></clipPath><clipPath id="clip-path-124"><path class="cls-1" transform="rotate(-38.537 88.476 115.89)" d="M84.902 112.315h7.149v7.15h-7.149z"/></clipPath><clipPath id="clip-path-125"><path class="cls-1" transform="rotate(-38.537 94.069 111.436)" d="M90.494 107.861h7.149v7.15h-7.149z"/></clipPath><clipPath id="clip-path-126"><path class="cls-1" transform="rotate(-38.537 99.66 106.982)" d="M96.086 103.407h7.149v7.15h-7.149z"/></clipPath><clipPath id="clip-path-127"><path class="cls-1" transform="rotate(-38.537 105.252 102.528)" d="M101.678 98.953h7.149v7.15h-7.149z"/></clipPath><clipPath id="clip-path-128"><path class="cls-1" transform="rotate(-38.543 110.845 98.074)" d="M107.27 94.499h7.149v7.15h-7.149z"/></clipPath><clipPath id="clip-path-129"><path class="cls-1" transform="rotate(-38.532 92.93 121.484)" d="M89.356 117.908h7.149v7.15h-7.149z"/></clipPath><clipPath id="clip-path-130"><path d="M98.301 113.575c-1.587 2.7-.502 5.212 1.54 6.974l3.705-2.95-4.233-5.314a6.335 6.335 0 0 0-1.012 1.29" class="cls-1"/></clipPath><clipPath id="clip-path-131"><path d="M102.222 110.183a15.94 15.94 0 0 0-2.909 2.102l4.233 5.314 5.592-4.455-2.808-3.526a12.25 12.25 0 0 0-.979-.04 6.507 6.507 0 0 0-3.129.605" class="cls-1"/></clipPath><clipPath id="clip-path-132"><path d="m109.138 113.144 2.566-2.043a5.147 5.147 0 0 0-1.11-.542 17.578 17.578 0 0 0-4.264-.941Z" class="cls-1"/></clipPath><clipPath id="clip-path-134"><path class="cls-1" transform="rotate(-38.537 115.299 103.666)" d="M111.725 100.092h7.149v7.15h-7.149z"/></clipPath><clipPath id="clip-path-135"><path class="cls-1" transform="rotate(-38.537 97.385 127.076)" d="M93.811 123.501h7.149v7.15h-7.149z"/></clipPath><clipPath id="clip-path-136"><path d="M99.841 120.549c2.244 1.936 5.642 2.965 7.923 2.344l-4.218-5.294Z" class="cls-1"/></clipPath><clipPath id="clip-path-137"><path d="m103.546 117.599 4.218 5.294a3.398 3.398 0 0 0 1.472-.794 50.08 50.08 0 0 0 3.758-4.114l-3.856-4.841Z" class="cls-1"/></clipPath><clipPath id="clip-path-138"><path d="m109.138 113.144 3.856 4.841a21.194 21.194 0 0 0 1.974-2.75 9.903 9.903 0 0 0-3.264-4.134Z" class="cls-1"/></clipPath><clipPath id="clip-path-140"><path class="cls-1" transform="rotate(-38.537 119.754 109.26)" d="M116.179 105.684h7.149v7.15h-7.149z"/></clipPath><clipPath id="clip-path-141"><path class="cls-1" transform="rotate(-38.543 101.84 132.669)" d="M98.265 129.094h7.15v7.15h-7.15z"/></clipPath><clipPath id="clip-path-142"><path class="cls-1" transform="rotate(-38.537 107.432 128.214)" d="M103.858 124.639h7.149v7.15h-7.149z"/></clipPath><clipPath id="clip-path-143"><path class="cls-1" transform="rotate(-38.537 113.024 123.76)" d="M109.45 120.185h7.149v7.15h-7.149z"/></clipPath><clipPath id="clip-path-144"><path class="cls-1" transform="rotate(-38.537 118.617 119.307)" d="M115.042 115.731h7.149v7.15h-7.149z"/></clipPath><clipPath id="clip-path-145"><path class="cls-1" transform="rotate(-38.537 124.208 114.852)" d="M120.634 111.277h7.149v7.15h-7.149z"/></clipPath><clipPath id="clip-path-146"><path class="cls-1" d="m109.138 113.144-2.227-2.796-.145-.183 2.372 2.979z"/></clipPath><clipPath id="clip-path-147"><path class="cls-1" d="M100.152 109.135h15.62v8.932h-15.62z"/></clipPath><pattern id="Unnamed_Pattern_4" width="14.172" height="14.174" data-name="Unnamed Pattern 4" patternTransform="matrix(.5045 0 0 -.5045 9.4 8168.768)" patternUnits="userSpaceOnUse"><path class="cls-1" d="M0 0h14.172v14.174H0z"/><path class="cls-2" d="M0 0h14.172v14.174H0z"/><path class="cls-3" d="M0 7.088h14.172v7.086H0z"/><path class="cls-3" d="M0 0h7.086v14.174H0z"/><path class="cls-4" d="M0 7.088h7.086v7.086H0z"/><path class="cls-5" d="M0 7.088h7.086v7.086H0z"/></pattern><pattern id="Unnamed_Pattern_4-7" width="14.172" height="14.174" data-name="Unnamed Pattern 4" patternTransform="matrix(.5045 0 0 -.5045 8.75 8170.328)" patternUnits="userSpaceOnUse"><path class="cls-1" d="M0 0h14.172v14.174H0z"/><path class="cls-2" d="M0 0h14.172v14.174H0z"/><path class="cls-3" d="M0 7.088h14.172v7.086H0z"/><path class="cls-3" d="M0 0h7.086v14.174H0z"/><path class="cls-4" d="M0 7.088h7.086v7.086H0z"/><path class="cls-5" d="M0 7.088h7.086v7.086H0z"/></pattern><style>.cls-1,.cls-51{fill:none}.cls-2{fill:#fff}.cls-3{fill:#fad3da}.cls-4{fill:#00adee}.cls-5{fill:#f5a2bd}.cls-51{stroke:#231f20;stroke-linecap:round;stroke-linejoin:round;stroke-width:1.001px}.cls-11{clip-path:url(#clip-path-4)}.cls-49{fill:#231f20}.cls-50{fill:#eeccb7}.cls-53{fill:url(#Unnamed_Pattern_4)}.cls-54{clip-path:url(#clip-path-49)}.cls-103{clip-path:url(#clip-path-106)}.cls-117{fill:#b99ea4}.cls-118{fill:#b5798e}.cls-119{fill:#bbbcbf}.cls-120{fill:#231214}.cls-121{fill:#230007}.cls-122{clip-path:url(#clip-path-123)}.cls-145{fill:#eecab6}.cls-146{fill:#eec9b5}.cls-147{fill:#eec8b5}.cls-148{fill:#eec7b4}.cls-149{fill:#edc6b4}.cls-150{fill:#edc4b3}.cls-151{fill:#edc3b2}.cls-152{fill:#edc2b2}.cls-153{fill:#edc1b1}.cls-154{fill:#edc0b1}.cls-155{fill:#edbeb0}.cls-156{fill:#edbcaf}.cls-157{fill:#ecbbae}.cls-158{fill:#ecbaae}</style></defs><path style="fill:#4d6397" d="m53.237 138.271-.789 4.728h43.026l-.526-4.728H53.237z"/><path style="stroke:#231f20;stroke-linecap:round;stroke-linejoin:round;stroke-width:1.001px;fill:#4d6397" d="M97.125 157.857H49.973l3.263-19.585h41.713l2.176 19.585z"/><path class="cls-1" d="M0 0h132.499v142.999H0z"/><g style="clip-path:url(#clip-path)"><path class="cls-2" d="M88.07 125.156h7.149v7.15H88.07z"/><path class="cls-3" d="M88.07 125.156h7.149v3.575H88.07z"/><path class="cls-3" d="M88.069 125.156h3.575v7.15h-3.575z"/><path class="cls-4" d="M88.069 125.156h3.575v3.575h-3.575z"/><path class="cls-5" d="M88.069 125.156h3.575v3.575h-3.575z"/></g><g style="clip-path:url(#clip-path-2)"><path class="cls-2" d="M95.219 125.156h7.149v7.15h-7.149z"/><path class="cls-3" d="M95.219 125.156h7.149v3.575h-7.149z"/><path class="cls-3" d="M95.219 125.156h3.575v7.15h-3.575z"/><path class="cls-4" d="M95.219 125.156h3.575v3.575h-3.575z"/><path class="cls-5" d="M95.219 125.156h3.575v3.575h-3.575z"/></g><g style="clip-path:url(#clip-path-3)"><path class="cls-2" d="M102.368 125.156h7.149v7.15h-7.149z"/><path class="cls-3" d="M102.368 125.156h7.149v3.575h-7.149z"/><path class="cls-3" d="M102.368 125.156h3.575v7.15h-3.575z"/><path class="cls-4" d="M102.368 125.156h3.575v3.575h-3.575z"/><path class="cls-5" d="M102.368 125.156h3.575v3.575h-3.575z"/></g><g class="cls-11"><g style="clip-path:url(#clip-path-5)"><path class="cls-2" d="M109.518 125.156h7.149v7.15h-7.149z"/><path class="cls-3" d="M109.518 125.156h7.149v3.575h-7.149z"/><path class="cls-3" d="M109.517 125.156h3.575v7.15h-3.575z"/><path class="cls-4" d="M109.517 125.156h3.575v3.575h-3.575z"/><path class="cls-5" d="M109.517 125.156h3.575v3.575h-3.575z"/></g><g style="clip-path:url(#clip-path-6)"><path class="cls-2" d="M116.667 125.156h7.149v7.15h-7.149z"/><path class="cls-3" d="M116.667 125.156h7.149v3.575h-7.149z"/><path class="cls-3" d="M116.666 125.156h3.575v7.15h-3.575z"/><path class="cls-4" d="M116.666 125.156h3.575v3.575h-3.575z"/><path class="cls-5" d="M116.666 125.156h3.575v3.575h-3.575z"/></g></g><g style="clip-path:url(#clip-path-7)"><path class="cls-2" d="M88.07 118.006h7.149v7.15H88.07z"/><path class="cls-3" d="M88.07 118.005h7.149v3.575H88.07z"/><path class="cls-3" d="M88.069 118.006h3.575v7.15h-3.575z"/><path class="cls-4" d="M88.069 118.006h3.575v3.575h-3.575z"/><path class="cls-5" d="M88.069 118.005h3.575v3.575h-3.575z"/></g><g style="clip-path:url(#clip-path-8)"><path class="cls-2" d="M95.219 118.006h7.149v7.15h-7.149z"/><path class="cls-3" d="M95.219 118.005h7.149v3.575h-7.149z"/><path class="cls-3" d="M95.219 118.006h3.575v7.15h-3.575z"/><path class="cls-4" d="M95.219 118.006h3.575v3.575h-3.575z"/><path class="cls-5" d="M95.219 118.005h3.575v3.575h-3.575z"/></g><g style="clip-path:url(#clip-path-9)"><path class="cls-2" d="M102.368 118.006h7.149v7.15h-7.149z"/><path class="cls-3" d="M102.368 118.006h7.149v3.575h-7.149z"/><path class="cls-3" d="M102.368 118.006h3.575v7.15h-3.575z"/><path class="cls-4" d="M102.368 118.006h3.575v3.575h-3.575z"/><path class="cls-5" d="M102.368 118.006h3.575v3.575h-3.575z"/></g><g style="clip-path:url(#clip-path-10)"><path class="cls-2" d="M109.518 118.006h7.149v7.15h-7.149z"/><path class="cls-3" d="M109.518 118.006h7.149v3.575h-7.149z"/><path class="cls-3" d="M109.517 118.006h3.575v7.15h-3.575z"/><path class="cls-4" d="M109.517 118.006h3.575v3.575h-3.575z"/><path class="cls-5" d="M109.517 118.006h3.575v3.575h-3.575z"/></g><g style="clip-path:url(#clip-path-12)" class="cls-11"><path class="cls-2" d="M116.667 118.006h7.149v7.15h-7.149z"/><path class="cls-3" d="M116.667 118.005h7.149v3.575h-7.149z"/><path class="cls-3" d="M116.666 118.006h3.575v7.15h-3.575z"/><path class="cls-4" d="M116.666 118.006h3.575v3.575h-3.575z"/><path class="cls-5" d="M116.666 118.005h3.575v3.575h-3.575z"/></g><g style="clip-path:url(#clip-path-13)"><path class="cls-2" d="M88.07 110.856h7.149v7.15H88.07z"/><path class="cls-3" d="M88.07 110.855h7.149v3.575H88.07z"/><path class="cls-3" d="M88.069 110.856h3.575v7.15h-3.575z"/><path class="cls-4" d="M88.069 110.856h3.575v3.575h-3.575z"/><path class="cls-5" d="M88.069 110.855h3.575v3.575h-3.575z"/></g><g style="clip-path:url(#clip-path-14)"><path class="cls-2" d="M95.218 110.856h7.15v7.15h-7.15z"/><path class="cls-3" d="M95.218 110.855h7.15v3.575h-7.15z"/><path class="cls-3" d="M95.219 110.856h3.575v7.15h-3.575z"/><path class="cls-4" d="M95.219 110.856h3.575v3.575h-3.575z"/><path class="cls-5" d="M95.219 110.855h3.575v3.575h-3.575z"/></g><g style="clip-path:url(#clip-path-15)"><path class="cls-2" d="M102.368 110.856h7.149v7.15h-7.149z"/><path class="cls-3" d="M102.368 110.855h7.149v3.575h-7.149z"/><path class="cls-3" d="M102.368 110.856h3.575v7.15h-3.575z"/><path class="cls-4" d="M102.368 110.855h3.575v3.575h-3.575z"/><path class="cls-5" d="M102.368 110.855h3.575v3.575h-3.575z"/></g><g style="clip-path:url(#clip-path-16)"><path class="cls-2" d="M109.518 110.856h7.149v7.15h-7.149z"/><path class="cls-3" d="M109.518 110.855h7.149v3.575h-7.149z"/><path class="cls-3" d="M109.517 110.856h3.575v7.15h-3.575z"/><path class="cls-4" d="M109.517 110.855h3.575v3.575h-3.575z"/><path class="cls-5" d="M109.517 110.855h3.575v3.575h-3.575z"/></g><g style="clip-path:url(#clip-path-18)" class="cls-11"><path class="cls-2" d="M116.667 110.856h7.149v7.15h-7.149z"/><path class="cls-3" d="M116.667 110.855h7.149v3.575h-7.149z"/><path class="cls-3" d="M116.666 110.856h3.575v7.15h-3.575z"/><path class="cls-4" d="M116.666 110.856h3.575v3.575h-3.575z"/><path class="cls-5" d="M116.666 110.855h3.575v3.575h-3.575z"/></g><g style="clip-path:url(#clip-path-19)"><path class="cls-2" d="M88.07 103.706h7.149v7.15H88.07z"/><path class="cls-3" d="M88.07 103.705h7.149v3.575H88.07z"/><path class="cls-3" d="M88.069 103.706h3.575v7.15h-3.575z"/><path class="cls-4" d="M88.069 103.705h3.575v3.575h-3.575z"/><path class="cls-5" d="M88.069 103.705h3.575v3.575h-3.575z"/></g><g style="clip-path:url(#clip-path-20)"><path class="cls-2" d="M95.218 103.706h7.15v7.15h-7.15z"/><path class="cls-3" d="M95.219 103.705h7.149v3.575h-7.149z"/><path class="cls-3" d="M95.219 103.706h3.575v7.15h-3.575z"/><path class="cls-4" d="M95.219 103.705h3.575v3.575h-3.575z"/><path class="cls-5" d="M95.219 103.705h3.575v3.575h-3.575z"/></g><g style="clip-path:url(#clip-path-21)"><path class="cls-2" d="M102.368 103.706h7.149v7.15h-7.149z"/><path class="cls-3" d="M102.368 103.705h7.149v3.575h-7.149z"/><path class="cls-3" d="M102.368 103.706h3.575v7.15h-3.575z"/><path class="cls-4" d="M102.368 103.705h3.575v3.575h-3.575z"/><path class="cls-5" d="M102.368 103.705h3.575v3.575h-3.575z"/></g><g class="cls-11"><g style="clip-path:url(#clip-path-23)"><path class="cls-2" d="M109.518 103.706h7.149v7.15h-7.149z"/><path class="cls-3" d="M109.518 103.705h7.149v3.575h-7.149z"/><path class="cls-3" d="M109.517 103.706h3.575v7.15h-3.575z"/><path class="cls-4" d="M109.517 103.705h3.575v3.575h-3.575z"/><path class="cls-5" d="M109.517 103.705h3.575v3.575h-3.575z"/></g><g style="clip-path:url(#clip-path-24)"><path class="cls-2" d="M116.667 103.706h7.149v7.15h-7.149z"/><path class="cls-3" d="M116.667 103.705h7.149v3.575h-7.149z"/><path class="cls-3" d="M116.666 103.706h3.575v7.15h-3.575z"/><path class="cls-4" d="M116.666 103.705h3.575v3.575h-3.575z"/><path class="cls-5" d="M116.666 103.705h3.575v3.575h-3.575z"/></g></g><g style="clip-path:url(#clip-path-25)"><path class="cls-2" d="M88.07 96.555h7.149v7.15H88.07z"/><path class="cls-3" d="M88.07 96.555h7.149v3.575H88.07z"/><path class="cls-3" d="M88.069 96.555h3.575v7.15h-3.575z"/><path class="cls-4" d="M88.069 96.555h3.575v3.575h-3.575z"/><path class="cls-5" d="M88.069 96.555h3.575v3.575h-3.575z"/></g><g style="clip-path:url(#clip-path-26)"><path class="cls-2" d="M95.219 96.555h7.149v7.15h-7.149z"/><path class="cls-3" d="M95.219 96.555h7.149v3.575h-7.149z"/><path class="cls-3" d="M95.219 96.555h3.575v7.15h-3.575z"/><path class="cls-4" d="M95.219 96.555h3.575v3.575h-3.575z"/><path class="cls-5" d="M95.219 96.555h3.575v3.575h-3.575z"/></g><g class="cls-11"><g style="clip-path:url(#clip-path-28)"><path class="cls-2" d="M102.368 96.555h7.149v7.15h-7.149z"/><path class="cls-3" d="M102.368 96.555h7.149v3.575h-7.149z"/><path class="cls-3" d="M102.368 96.555h3.575v7.15h-3.575z"/><path class="cls-4" d="M102.368 96.555h3.575v3.575h-3.575z"/><path class="cls-5" d="M102.368 96.555h3.575v3.575h-3.575z"/></g><g style="clip-path:url(#clip-path-29)"><path class="cls-2" d="M109.518 96.555h7.149v7.15h-7.149z"/><path class="cls-3" d="M109.518 96.555h7.149v3.575h-7.149z"/><path class="cls-3" d="M109.517 96.555h3.575v7.15h-3.575z"/><path class="cls-4" d="M109.517 96.555h3.575v3.575h-3.575z"/><path class="cls-5" d="M109.517 96.555h3.575v3.575h-3.575z"/></g><g style="clip-path:url(#clip-path-30)"><path class="cls-2" d="M116.667 96.555h7.149v7.15h-7.149z"/><path class="cls-3" d="M116.667 96.555h7.149v3.575h-7.149z"/><path class="cls-3" d="M116.666 96.555h3.575v7.15h-3.575z"/><path class="cls-4" d="M116.666 96.555h3.575v3.575h-3.575z"/><path class="cls-5" d="M116.666 96.555h3.575v3.575h-3.575z"/></g></g><g style="clip-path:url(#clip-path-31)"><path class="cls-2" d="M88.07 89.405h7.149v7.15H88.07z"/><path class="cls-3" d="M88.07 89.405h7.149v3.575H88.07z"/><path class="cls-3" d="M88.069 89.405h3.575v7.15h-3.575z"/><path class="cls-4" d="M88.069 89.405h3.575v3.575h-3.575z"/><path class="cls-5" d="M88.069 89.405h3.575v3.575h-3.575z"/></g><g style="clip-path:url(#clip-path-32)"><path class="cls-2" d="M95.219 89.405h7.149v7.15h-7.149z"/><path class="cls-3" d="M95.219 89.405h7.149v3.575h-7.149z"/><path class="cls-3" d="M95.219 89.405h3.575v7.15h-3.575z"/><path class="cls-4" d="M95.219 89.405h3.575v3.575h-3.575z"/><path class="cls-5" d="M95.219 89.405h3.575v3.575h-3.575z"/></g><g class="cls-11"><g style="clip-path:url(#clip-path-34)"><path class="cls-2" d="M102.368 89.405h7.149v7.15h-7.149z"/><path class="cls-3" d="M102.368 89.405h7.149v3.575h-7.149z"/><path class="cls-3" d="M102.368 89.405h3.575v7.15h-3.575z"/><path class="cls-4" d="M102.368 89.405h3.575v3.575h-3.575z"/><path class="cls-5" d="M102.368 89.405h3.575v3.575h-3.575z"/></g><g style="clip-path:url(#clip-path-35)"><path class="cls-2" d="M109.518 89.405h7.149v7.15h-7.149z"/><path class="cls-3" d="M109.518 89.405h7.149v3.575h-7.149z"/><path class="cls-3" d="M109.517 89.405h3.575v7.15h-3.575z"/><path class="cls-4" d="M109.517 89.405h3.575v3.575h-3.575z"/><path class="cls-5" d="M109.517 89.405h3.575v3.575h-3.575z"/></g><g style="clip-path:url(#clip-path-36)"><path class="cls-2" d="M116.667 89.405h7.149v7.15h-7.149z"/><path class="cls-3" d="M116.667 89.405h7.149v3.575h-7.149z"/><path class="cls-3" d="M116.666 89.405h3.575v7.15h-3.575z"/><path class="cls-4" d="M116.666 89.405h3.575v3.575h-3.575z"/><path class="cls-5" d="M116.666 89.405h3.575v3.575h-3.575z"/></g></g><g style="clip-path:url(#clip-path-37)"><path class="cls-2" d="M88.07 82.255h7.149v7.15H88.07z"/><path class="cls-3" d="M88.07 82.254h7.149v3.575H88.07z"/><path class="cls-3" d="M88.069 82.255h3.575v7.15h-3.575z"/><path class="cls-4" d="M88.069 82.255h3.575v3.575h-3.575z"/><path class="cls-5" d="M88.069 82.254h3.575v3.575h-3.575z"/></g><g style="clip-path:url(#clip-path-38)"><path class="cls-2" d="M95.219 82.255h7.149v7.15h-7.149z"/><path class="cls-3" d="M95.219 82.254h7.149v3.575h-7.149z"/><path class="cls-3" d="M95.219 82.255h3.575v7.15h-3.575z"/><path class="cls-4" d="M95.219 82.255h3.575v3.575h-3.575z"/><path class="cls-5" d="M95.219 82.254h3.575v3.575h-3.575z"/></g><g class="cls-11"><g style="clip-path:url(#clip-path-40)"><path class="cls-2" d="M102.368 82.255h7.149v7.15h-7.149z"/><path class="cls-3" d="M102.368 82.254h7.149v3.575h-7.149z"/><path class="cls-3" d="M102.368 82.255h3.575v7.15h-3.575z"/><path class="cls-4" d="M102.368 82.255h3.575v3.575h-3.575z"/><path class="cls-5" d="M102.368 82.254h3.575v3.575h-3.575z"/></g><g style="clip-path:url(#clip-path-41)"><path class="cls-2" d="M109.518 82.255h7.149v7.15h-7.149z"/><path class="cls-3" d="M109.518 82.254h7.149v3.575h-7.149z"/><path class="cls-3" d="M109.517 82.255h3.575v7.15h-3.575z"/><path class="cls-4" d="M109.517 82.255h3.575v3.575h-3.575z"/><path class="cls-5" d="M109.517 82.254h3.575v3.575h-3.575z"/></g><g style="clip-path:url(#clip-path-42)"><path class="cls-2" d="M116.667 82.255h7.149v7.15h-7.149z"/><path class="cls-3" d="M116.667 82.254h7.149v3.575h-7.149z"/><path class="cls-3" d="M116.666 82.255h3.575v7.15h-3.575z"/><path class="cls-4" d="M116.666 82.255h3.575v3.575h-3.575z"/><path class="cls-5" d="M116.666 82.254h3.575v3.575h-3.575z"/></g></g><g style="clip-path:url(#clip-path-43)"><path class="cls-2" d="M88.07 75.105h7.149v7.15H88.07z"/><path class="cls-3" d="M88.07 75.104h7.149v3.575H88.07z"/><path class="cls-3" d="M88.069 75.105h3.575v7.15h-3.575z"/><path class="cls-4" d="M88.069 75.105h3.575v3.575h-3.575z"/><path class="cls-5" d="M88.069 75.104h3.575v3.575h-3.575z"/></g><g style="clip-path:url(#clip-path-44)"><path class="cls-2" d="M95.219 75.105h7.149v7.15h-7.149z"/><path class="cls-3" d="M95.219 75.104h7.149v3.575h-7.149z"/><path class="cls-3" d="M95.219 75.105h3.575v7.15h-3.575z"/><path class="cls-4" d="M95.219 75.105h3.575v3.575h-3.575z"/><path class="cls-5" d="M95.219 75.104h3.575v3.575h-3.575z"/></g><g class="cls-11"><g style="clip-path:url(#clip-path-46)"><path class="cls-2" d="M102.368 75.105h7.149v7.15h-7.149z"/><path class="cls-3" d="M102.368 75.104h7.149v3.575h-7.149z"/><path class="cls-3" d="M102.368 75.105h3.575v7.15h-3.575z"/><path class="cls-4" d="M102.368 75.105h3.575v3.575h-3.575z"/><path class="cls-5" d="M102.368 75.104h3.575v3.575h-3.575z"/></g><g style="clip-path:url(#clip-path-47)"><path class="cls-2" d="M109.518 75.105h7.149v7.15h-7.149z"/><path class="cls-3" d="M109.518 75.104h7.149v3.575h-7.149z"/><path class="cls-3" d="M109.517 75.105h3.575v7.15h-3.575z"/><path class="cls-4" d="M109.517 75.105h3.575v3.575h-3.575z"/><path class="cls-5" d="M109.517 75.104h3.575v3.575h-3.575z"/></g><g style="clip-path:url(#clip-path-48)"><path class="cls-2" d="M116.667 75.105h7.149v7.15h-7.149z"/><path class="cls-3" d="M116.667 75.104h7.149v3.575h-7.149z"/><path class="cls-3" d="M116.666 75.105h3.575v7.15h-3.575z"/><path class="cls-4" d="M116.666 75.105h3.575v3.575h-3.575z"/><path class="cls-5" d="M116.666 75.104h3.575v3.575h-3.575z"/></g></g><path d="m96.465 79.202.068-.496a5.174 5.174 0 0 1 3.152 2.423c1.485 2.14 2.897 6.089 2.898 13.45q0 .724-.018 1.489c-.009.35-.013.72-.013 1.107 0 3.228.286 7.554.573 11.065.143 1.756.287 3.309.394 4.423s.18 1.785.18 1.787l-.499.053-.063-.497a34.285 34.285 0 0 1 3.863-.227 15.841 15.841 0 0 1 4.38.505 4.365 4.365 0 0 1 1.69.886 2.196 2.196 0 0 1 .746 1.656c-.012 1.064-.648 2.239-2.026 3.728-2.309 2.476-7.65 7.045-7.659 7.052l-.074.053a12.052 12.052 0 0 1-5.425 1.47 6.961 6.961 0 0 1-6.105-3.366 18.942 18.942 0 0 1-2.303-7.256 64.407 64.407 0 0 1-.595-9.304 103.483 103.483 0 0 1 .674-11.736c.982-8.048 2.406-12.676 3.606-15.32 1.201-2.641 2.188-3.305 2.292-3.37a.51.51 0 0 1 .332-.071l-.068.496.263.426-.113-.183.121.177-.008.006-.113-.183.121.177c-.023.002-3.558 2.497-5.44 17.966a102.388 102.388 0 0 0-.666 11.615 63.27 63.27 0 0 0 .584 9.155 18.06 18.06 0 0 0 2.152 6.86 6.286 6.286 0 0 0 2.5 2.303 6.21 6.21 0 0 0 2.766.607 10.186 10.186 0 0 0 3.45-.67 12.047 12.047 0 0 0 1.378-.612l.074-.041.02-.011.252.432-.326-.38c.001-.001.333-.285.87-.751 1.604-1.396 5.042-4.434 6.707-6.223 1.314-1.402 1.77-2.432 1.758-3.046a1.183 1.183 0 0 0-.422-.92 4.627 4.627 0 0 0-2.224-.884 18.108 18.108 0 0 0-3.169-.242 33.434 33.434 0 0 0-3.736.219.5.5 0 0 1-.561-.443c0-.01-1.151-10.82-1.152-17.381 0-.393.004-.771.013-1.131q.018-.754.018-1.464c.001-7.24-1.396-10.98-2.719-12.879a5.573 5.573 0 0 0-1.769-1.715 2.936 2.936 0 0 0-.542-.246l-.134-.037-.026-.006.018-.099-.014.1-.004-.001.018-.099-.014.1.069-.496.263.426-.263-.426" class="cls-49"/><path d="M65.604 67.014s2.883 7.104.742 8.532a21.925 21.925 0 0 1-5.997 2.275s3.174 13.506 14.062 12.97c7.105-.35 12.715-14.041 12.715-14.041s-6.427-1.072-7.141-3.392 1.383-7.642 1.383-7.642Z" class="cls-50"/><path d="M65.604 67.014s2.883 7.104.742 8.532a21.925 21.925 0 0 1-5.997 2.275s3.174 13.506 14.062 12.97c7.105-.35 12.715-14.041 12.715-14.041s-6.427-1.072-7.141-3.392 1.383-7.642 1.383-7.642Z" class="cls-51"/><path d="M48.397 33.954s1.655 5.38 2.428 16.606c.724 10.47 7.7 14.387 14.39 18.415a14.573 14.573 0 0 0 15.72-.028c7.539-4.478 11.327-9.105 12.36-17.089 1.03-7.957 6.168-12.34 2.994-25.039C94.27 18.747 86.63 8.97 72.01 8.97c-16.268 0-24.963 14.863-23.614 24.985" class="cls-50"/><path d="M48.397 33.954s1.655 5.38 2.428 16.606c.724 10.47 7.7 14.387 14.39 18.415a14.573 14.573 0 0 0 15.72-.028c7.539-4.478 11.327-9.105 12.36-17.089 1.03-7.957 6.168-12.34 2.994-25.039C94.27 18.747 86.63 8.97 72.01 8.97c-16.268 0-24.963 14.863-23.614 24.985Z" class="cls-51"/><path d="M71.363 44.912c.319 1.368 1.062 2.744.27 2.849-.877.117-2.213.452-1.987 1.755a3.865 3.865 0 0 0 1.59 2.426" class="cls-51"/><path d="M50.935 50.397c-.123-1.785-.27-3.405-.428-4.895a3.047 3.047 0 0 0-3.538-.198c-2.101 1.192-2.347 4.936-.465 8.513 1.299 2.474 5.335 5.351 6.975 5.716a22.026 22.026 0 0 1-2.544-9.136" class="cls-50"/><path d="M50.935 50.397c-.123-1.785-.27-3.405-.428-4.895a3.047 3.047 0 0 0-3.538-.198c-2.101 1.192-2.347 4.936-.465 8.513 1.299 2.474 5.335 5.351 6.975 5.716a22.026 22.026 0 0 1-2.544-9.136Z" class="cls-51"/><path d="M93.994 50.07c.352-1.755.539-3.348.696-4.839a3.047 3.047 0 0 1 3.537-.198c2.102 1.193 2.347 4.936.468 8.514-1.301 2.474-5.964 5.427-7.602 5.792a66.61 66.61 0 0 0 2.901-9.27" class="cls-50"/><path d="M93.994 50.07c.352-1.755.539-3.348.696-4.839a3.047 3.047 0 0 1 3.537-.198c2.102 1.193 2.347 4.936.468 8.514-1.301 2.474-5.964 5.427-7.602 5.792a66.61 66.61 0 0 0 2.901-9.27Z" class="cls-51"/><path d="M79.85 21.058c2.685 5.617-5.587 14.004-8.998 17.972 3.212-3.49 2.756-9.23 3.521-13.46-3.022 6.357-7.822 8.553-4.416 16.234-1.714-2.634-5.528-4.158-6.5-7.836-1.08-4.081-1.652-8.387 1.557-11.866-7.122 4.995-10.29 14.109-10.228 22.48-1.267-4.894-3.163-10.675-1.1-15.725-2.094 2.585-2.158 9.53-2.373 13.208-.239 4.085-1.399 9.184.194 12.676-2.18-1.758-3.083-8.781-5.318-10.552a14.848 14.848 0 0 1-5.037-7.093 13.649 13.649 0 0 1 5.126-13.903c-1.914-7.1 2.133-7.72 3.367-9.084a27.773 27.773 0 0 1 10.657-7.776c3.763-1.417 7.764-.382 11.781-.537 4.14-.16 7.14-1.87 10.193-4.72-.959 1.837-2.05 4.153-3.94 5.269 3.24.312 7.14-1.333 10.06-2.65a26.41 26.41 0 0 1-3.707 3.647c8.762 1.67 12.872 8.524 15.194 16.85 1.224 4.387 5.433 8.642 1.954 15.16-2.64 4.945-3.587 4.159-5.353 6.366a84.548 84.548 0 0 0-4.059 10.099c1.261-6.811 5.004-12.97-3.382-16.468-2.785-1.161-5.607-4.898-6.999-8.576a92.289 92.289 0 0 1-2.195-9.715" style="fill:#9a8479"/><path d="M79.85 21.058c2.685 5.617-5.587 14.004-8.998 17.972 3.212-3.49 2.756-9.23 3.521-13.46-3.022 6.357-7.822 8.553-4.416 16.234-1.714-2.634-5.528-4.158-6.5-7.836-1.08-4.081-1.652-8.387 1.557-11.866-7.122 4.995-10.29 14.109-10.228 22.48-1.267-4.894-3.163-10.675-1.1-15.725-2.094 2.585-2.158 9.53-2.373 13.208-.239 4.085-1.399 9.184.194 12.676-2.18-1.758-3.083-8.781-5.318-10.552a14.848 14.848 0 0 1-5.037-7.093 13.649 13.649 0 0 1 5.126-13.903c-1.914-7.1 2.133-7.72 3.367-9.084a27.773 27.773 0 0 1 10.657-7.776c3.763-1.417 7.764-.382 11.781-.537 4.14-.16 7.14-1.87 10.193-4.72-.959 1.837-2.05 4.153-3.94 5.269 3.24.312 7.14-1.333 10.06-2.65a26.41 26.41 0 0 1-3.707 3.647c8.762 1.67 12.872 8.524 15.194 16.85 1.224 4.387 5.433 8.642 1.954 15.16-2.64 4.945-3.587 4.159-5.353 6.366a84.548 84.548 0 0 0-4.059 10.099c1.261-6.811 5.004-12.97-3.382-16.468-2.785-1.161-5.607-4.898-6.999-8.576a92.289 92.289 0 0 1-2.195-9.715Z" class="cls-51"/><path d="M65.735 60.762s3.34-3.807 6.893-3.586 7.427 3.685 7.427 3.685" class="cls-50"/><path d="M65.735 60.762s3.34-3.807 6.893-3.586 7.427 3.685 7.427 3.685" class="cls-51"/><path class="cls-50" d="m58.627 36.771 2.887-2"/><path class="cls-51" d="m58.627 36.771 2.887-2"/><path d="M62.407 72.117c1.11 1.057 4.702 2.61 7.526 4l1.735 4.567 1.435 2.301 3.71-7.933s5.412-1.373 6.935-3.2c1.6 4.266 5.543 4.402 9.872 6.133 5.336 2.134 3.108.416 2.308 2.816-3.043 9.133-3.171 29.506-3.245 38.058-.075 8.662-.846 17.081 3.567 26.425-1.867 2.4-14.25 7.473-25.176 7.266-13.756-.258-16.092-5.708-20.244-5.708-.528-5.619 2.086-8.772 2.854-15.314 1.394-11.866-.855-15.099 0-26.215.519-6.748-5.12-24.043-1.816-24.397 4.056-.435 6.962-3.857 9.205-6.132Z" class="cls-53"/><path d="M62.407 72.117c1.11 1.057 4.702 2.61 7.526 4l1.735 4.567 1.435 2.301 3.71-7.933s5.412-1.373 6.935-3.2c1.6 4.266 5.543 4.402 9.872 6.133 5.336 2.134 3.108.416 2.308 2.816-3.043 9.133-3.171 29.506-3.245 38.058-.075 8.662-.846 17.081 3.567 26.425-1.867 2.4-14.25 7.473-25.176 7.266-13.756-.258-16.092-5.708-20.244-5.708-.528-5.619 2.086-8.772 2.854-15.314 1.394-11.866-.855-15.099 0-26.215.519-6.748-5.12-24.043-1.816-24.397 4.056-.435 6.962-3.857 9.205-6.132Z" class="cls-51"/><path class="cls-1" d="M0 0h132.499v142.999H0z"/><g class="cls-54"><g style="clip-path:url(#clip-path-50)"><path class="cls-2" d="M17.092 125.025h7.149v7.15h-7.149z"/><path class="cls-3" d="M17.092 125.024h7.149v3.575h-7.149z"/><path class="cls-3" d="M17.092 125.025h3.575v7.15h-3.575z"/><path class="cls-4" d="M17.092 125.025h3.575v3.575h-3.575z"/><path class="cls-5" d="M17.092 125.024h3.575v3.575h-3.575z"/></g><g style="clip-path:url(#clip-path-51)"><path class="cls-2" d="M24.242 125.025h7.149v7.15h-7.149z"/><path class="cls-3" d="M24.242 125.024h7.149v3.575h-7.149z"/><path class="cls-3" d="M24.241 125.025h3.575v7.15h-3.575z"/><path class="cls-4" d="M24.241 125.025h3.575v3.575h-3.575z"/><path class="cls-5" d="M24.241 125.024h3.575v3.575h-3.575z"/></g></g><g style="clip-path:url(#clip-path-52)"><path class="cls-2" d="M31.391 125.025h7.149v7.15h-7.149z"/><path class="cls-3" d="M31.391 125.024h7.149v3.575h-7.149z"/><path class="cls-3" d="M31.39 125.025h3.575v7.15H31.39z"/><path class="cls-4" d="M31.39 125.025h3.575v3.575H31.39z"/><path class="cls-5" d="M31.39 125.024h3.575v3.575H31.39z"/></g><g style="clip-path:url(#clip-path-53)"><path class="cls-2" d="M38.54 125.025h7.149v7.15H38.54z"/><path class="cls-3" d="M38.54 125.024h7.149v3.575H38.54z"/><path class="cls-3" d="M38.539 125.025h3.575v7.15h-3.575z"/><path class="cls-4" d="M38.539 125.025h3.575v3.575h-3.575z"/><path class="cls-5" d="M38.539 125.024h3.575v3.575h-3.575z"/></g><g style="clip-path:url(#clip-path-54)"><path class="cls-2" d="M45.689 125.025h7.149v7.15h-7.149z"/><path class="cls-3" d="M45.689 125.024h7.149v3.575h-7.149z"/><path class="cls-3" d="M45.689 125.025h3.575v7.15h-3.575z"/><path class="cls-4" d="M45.689 125.025h3.575v3.575h-3.575z"/><path class="cls-5" d="M45.689 125.024h3.575v3.575h-3.575z"/></g><g class="cls-54"><g style="clip-path:url(#clip-path-56)"><path class="cls-2" d="M52.839 125.025h7.149v7.15h-7.149z"/><path class="cls-3" d="M52.839 125.024h7.149v3.575h-7.149z"/><path class="cls-3" d="M52.838 125.025h3.575v7.15h-3.575z"/><path class="cls-4" d="M52.838 125.025h3.575v3.575h-3.575z"/><path class="cls-5" d="M52.838 125.024h3.575v3.575h-3.575z"/></g><g style="clip-path:url(#clip-path-57)"><path class="cls-2" d="M17.092 117.875h7.149v7.15h-7.149z"/><path class="cls-3" d="M17.092 117.874h7.149v3.575h-7.149z"/><path class="cls-3" d="M17.092 117.875h3.575v7.15h-3.575z"/><path class="cls-4" d="M17.092 117.874h3.575v3.575h-3.575z"/><path class="cls-5" d="M17.092 117.874h3.575v3.575h-3.575z"/></g></g><g style="clip-path:url(#clip-path-58)"><path class="cls-2" d="M24.241 117.875h7.15v7.15h-7.15z"/><path class="cls-3" d="M24.241 117.874h7.15v3.575h-7.15z"/><path class="cls-3" d="M24.241 117.875h3.575v7.15h-3.575z"/><path class="cls-4" d="M24.241 117.875h3.575v3.575h-3.575z"/><path class="cls-5" d="M24.241 117.874h3.575v3.575h-3.575z"/></g><g style="clip-path:url(#clip-path-59)"><path class="cls-2" d="M31.391 117.875h7.149v7.15h-7.149z"/><path class="cls-3" d="M31.391 117.874h7.149v3.575h-7.149z"/><path class="cls-3" d="M31.39 117.875h3.575v7.15H31.39z"/><path class="cls-4" d="M31.39 117.875h3.575v3.575H31.39z"/><path class="cls-5" d="M31.39 117.874h3.575v3.575H31.39z"/></g><g style="clip-path:url(#clip-path-60)"><path class="cls-2" d="M38.54 117.875h7.149v7.15H38.54z"/><path class="cls-3" d="M38.54 117.874h7.149v3.575H38.54z"/><path class="cls-3" d="M38.539 117.875h3.575v7.15h-3.575z"/><path class="cls-4" d="M38.539 117.874h3.575v3.575h-3.575z"/><path class="cls-5" d="M38.539 117.874h3.575v3.575h-3.575z"/></g><g style="clip-path:url(#clip-path-61)"><path class="cls-2" d="M45.689 117.875h7.149v7.15h-7.149z"/><path class="cls-3" d="M45.689 117.874h7.149v3.575h-7.149z"/><path class="cls-3" d="M45.689 117.875h3.575v7.15h-3.575z"/><path class="cls-4" d="M45.689 117.874h3.575v3.575h-3.575z"/><path class="cls-5" d="M45.689 117.874h3.575v3.575h-3.575z"/></g><g style="clip-path:url(#clip-path-62)"><path class="cls-2" d="M52.839 117.875h7.149v7.15h-7.149z"/><path class="cls-3" d="M52.839 117.874h7.149v3.575h-7.149z"/><path class="cls-3" d="M52.838 117.875h3.575v7.15h-3.575z"/><path class="cls-4" d="M52.838 117.874h3.575v3.575h-3.575z"/><path class="cls-5" d="M52.838 117.874h3.575v3.575h-3.575z"/></g><g style="clip-path:url(#clip-path-64)" class="cls-54"><path class="cls-2" d="M17.092 110.725h7.149v7.15h-7.149z"/><path class="cls-3" d="M17.092 110.724h7.149v3.575h-7.149z"/><path class="cls-3" d="M17.092 110.725h3.575v7.15h-3.575z"/><path class="cls-4" d="M17.092 110.724h3.575v3.575h-3.575z"/><path class="cls-5" d="M17.092 110.724h3.575v3.575h-3.575z"/></g><g style="clip-path:url(#clip-path-65)"><path class="cls-2" d="M24.241 110.725h7.15v7.15h-7.15z"/><path class="cls-3" d="M24.241 110.724h7.15v3.575h-7.15z"/><path class="cls-3" d="M24.241 110.725h3.575v7.15h-3.575z"/><path class="cls-4" d="M24.241 110.724h3.575v3.575h-3.575z"/><path class="cls-5" d="M24.241 110.724h3.575v3.575h-3.575z"/></g><g style="clip-path:url(#clip-path-66)"><path class="cls-2" d="M31.391 110.725h7.149v7.15h-7.149z"/><path class="cls-3" d="M31.391 110.724h7.149v3.575h-7.149z"/><path class="cls-3" d="M31.39 110.725h3.575v7.15H31.39z"/><path class="cls-4" d="M31.39 110.724h3.575v3.575H31.39z"/><path class="cls-5" d="M31.39 110.724h3.575v3.575H31.39z"/></g><g style="clip-path:url(#clip-path-67)"><path class="cls-2" d="M38.54 110.725h7.149v7.15H38.54z"/><path class="cls-3" d="M38.54 110.724h7.149v3.575H38.54z"/><path class="cls-3" d="M38.539 110.725h3.575v7.15h-3.575z"/><path class="cls-4" d="M38.539 110.724h3.575v3.575h-3.575z"/><path class="cls-5" d="M38.539 110.724h3.575v3.575h-3.575z"/></g><g style="clip-path:url(#clip-path-68)"><path class="cls-2" d="M45.689 110.725h7.149v7.15h-7.149z"/><path class="cls-3" d="M45.689 110.724h7.149v3.575h-7.149z"/><path class="cls-3" d="M45.689 110.725h3.575v7.15h-3.575z"/><path class="cls-4" d="M45.689 110.724h3.575v3.575h-3.575z"/><path class="cls-5" d="M45.689 110.724h3.575v3.575h-3.575z"/></g><g style="clip-path:url(#clip-path-69)"><path class="cls-2" d="M52.839 110.725h7.149v7.15h-7.149z"/><path class="cls-3" d="M52.839 110.724h7.149v3.575h-7.149z"/><path class="cls-3" d="M52.838 110.725h3.575v7.15h-3.575z"/><path class="cls-4" d="M52.838 110.724h3.575v3.575h-3.575z"/><path class="cls-5" d="M52.838 110.724h3.575v3.575h-3.575z"/></g><g style="clip-path:url(#clip-path-71)" class="cls-54"><path class="cls-2" d="M17.092 103.574h7.149v7.15h-7.149z"/><path class="cls-3" d="M17.092 103.574h7.149v3.575h-7.149z"/><path class="cls-3" d="M17.092 103.574h3.575v7.15h-3.575z"/><path class="cls-4" d="M17.092 103.574h3.575v3.575h-3.575z"/><path class="cls-5" d="M17.092 103.574h3.575v3.575h-3.575z"/></g><g style="clip-path:url(#clip-path-72)"><path class="cls-2" d="M24.241 103.574h7.15v7.15h-7.15z"/><path class="cls-3" d="M24.242 103.574h7.149v3.575h-7.149z"/><path class="cls-3" d="M24.241 103.574h3.575v7.15h-3.575z"/><path class="cls-4" d="M24.241 103.574h3.575v3.575h-3.575z"/><path class="cls-5" d="M24.241 103.574h3.575v3.575h-3.575z"/></g><g style="clip-path:url(#clip-path-73)"><path class="cls-2" d="M31.391 103.574h7.149v7.15h-7.149z"/><path class="cls-3" d="M31.391 103.574h7.149v3.575h-7.149z"/><path class="cls-3" d="M31.39 103.574h3.575v7.15H31.39z"/><path class="cls-4" d="M31.39 103.574h3.575v3.575H31.39z"/><path class="cls-5" d="M31.39 103.574h3.575v3.575H31.39z"/></g><g style="clip-path:url(#clip-path-74)"><path class="cls-2" d="M38.54 103.574h7.149v7.15H38.54z"/><path class="cls-3" d="M38.54 103.574h7.149v3.575H38.54z"/><path class="cls-3" d="M38.539 103.574h3.575v7.15h-3.575z"/><path class="cls-4" d="M38.539 103.574h3.575v3.575h-3.575z"/><path class="cls-5" d="M38.539 103.574h3.575v3.575h-3.575z"/></g><g style="clip-path:url(#clip-path-75)"><path class="cls-2" d="M45.689 103.574h7.149v7.15h-7.149z"/><path class="cls-3" d="M45.689 103.574h7.149v3.575h-7.149z"/><path class="cls-3" d="M45.689 103.574h3.575v7.15h-3.575z"/><path class="cls-4" d="M45.689 103.574h3.575v3.575h-3.575z"/><path class="cls-5" d="M45.689 103.574h3.575v3.575h-3.575z"/></g><g style="clip-path:url(#clip-path-76)"><path class="cls-2" d="M52.839 103.574h7.149v7.15h-7.149z"/><path class="cls-3" d="M52.839 103.574h7.149v3.575h-7.149z"/><path class="cls-3" d="M52.838 103.574h3.575v7.15h-3.575z"/><path class="cls-4" d="M52.838 103.574h3.575v3.575h-3.575z"/><path class="cls-5" d="M52.838 103.574h3.575v3.575h-3.575z"/></g><g class="cls-54"><g style="clip-path:url(#clip-path-78)"><path class="cls-2" d="M17.092 96.424h7.149v7.15h-7.149z"/><path class="cls-3" d="M17.092 96.423h7.149v3.575h-7.149z"/><path class="cls-3" d="M17.092 96.424h3.575v7.15h-3.575z"/><path class="cls-4" d="M17.092 96.424h3.575v3.575h-3.575z"/><path class="cls-5" d="M17.092 96.423h3.575v3.575h-3.575z"/></g><g style="clip-path:url(#clip-path-79)"><path class="cls-2" d="M24.242 96.424h7.149v7.15h-7.149z"/><path class="cls-3" d="M24.242 96.423h7.149v3.575h-7.149z"/><path class="cls-3" d="M24.241 96.424h3.575v7.15h-3.575z"/><path class="cls-4" d="M24.241 96.424h3.575v3.575h-3.575z"/><path class="cls-5" d="M24.241 96.423h3.575v3.575h-3.575z"/></g><g style="clip-path:url(#clip-path-80)"><path class="cls-2" d="M31.391 96.424h7.149v7.15h-7.149z"/><path class="cls-3" d="M31.391 96.423h7.149v3.575h-7.149z"/><path class="cls-3" d="M31.39 96.424h3.575v7.15H31.39z"/><path class="cls-4" d="M31.39 96.424h3.575v3.575H31.39z"/><path class="cls-5" d="M31.39 96.423h3.575v3.575H31.39z"/></g></g><g style="clip-path:url(#clip-path-81)"><path class="cls-2" d="M38.54 96.424h7.149v7.15H38.54z"/><path class="cls-3" d="M38.54 96.423h7.149v3.575H38.54z"/><path class="cls-3" d="M38.539 96.424h3.575v7.15h-3.575z"/><path class="cls-4" d="M38.539 96.424h3.575v3.575h-3.575z"/><path class="cls-5" d="M38.539 96.423h3.575v3.575h-3.575z"/></g><g style="clip-path:url(#clip-path-82)"><path class="cls-2" d="M45.689 96.424h7.149v7.15h-7.149z"/><path class="cls-3" d="M45.689 96.423h7.149v3.575h-7.149z"/><path class="cls-3" d="M45.689 96.424h3.575v7.15h-3.575z"/><path class="cls-4" d="M45.689 96.424h3.575v3.575h-3.575z"/><path class="cls-5" d="M45.689 96.423h3.575v3.575h-3.575z"/></g><g style="clip-path:url(#clip-path-83)"><path class="cls-2" d="M52.839 96.424h7.149v7.15h-7.149z"/><path class="cls-3" d="M52.839 96.423h7.149v3.575h-7.149z"/><path class="cls-3" d="M52.838 96.424h3.575v7.15h-3.575z"/><path class="cls-4" d="M52.838 96.424h3.575v3.575h-3.575z"/><path class="cls-5" d="M52.838 96.423h3.575v3.575h-3.575z"/></g><g class="cls-54"><g style="clip-path:url(#clip-path-85)"><path class="cls-2" d="M17.092 89.274h7.149v7.15h-7.149z"/><path class="cls-3" d="M17.092 89.273h7.149v3.575h-7.149z"/><path class="cls-3" d="M17.092 89.274h3.575v7.15h-3.575z"/><path class="cls-4" d="M17.092 89.274h3.575v3.575h-3.575z"/><path class="cls-5" d="M17.092 89.273h3.575v3.575h-3.575z"/></g><g style="clip-path:url(#clip-path-86)"><path class="cls-2" d="M24.242 89.274h7.149v7.15h-7.149z"/><path class="cls-3" d="M24.242 89.273h7.149v3.575h-7.149z"/><path class="cls-3" d="M24.241 89.274h3.575v7.15h-3.575z"/><path class="cls-4" d="M24.241 89.274h3.575v3.575h-3.575z"/><path class="cls-5" d="M24.241 89.273h3.575v3.575h-3.575z"/></g><g style="clip-path:url(#clip-path-87)"><path class="cls-2" d="M31.391 89.274h7.149v7.15h-7.149z"/><path class="cls-3" d="M31.391 89.273h7.149v3.575h-7.149z"/><path class="cls-3" d="M31.39 89.274h3.575v7.15H31.39z"/><path class="cls-4" d="M31.39 89.274h3.575v3.575H31.39z"/><path class="cls-5" d="M31.39 89.273h3.575v3.575H31.39z"/></g><g style="clip-path:url(#clip-path-88)"><path class="cls-2" d="M38.54 89.274h7.149v7.15H38.54z"/><path class="cls-3" d="M38.54 89.273h7.149v3.575H38.54z"/><path class="cls-3" d="M38.539 89.274h3.575v7.15h-3.575z"/><path class="cls-4" d="M38.539 89.274h3.575v3.575h-3.575z"/><path class="cls-5" d="M38.539 89.273h3.575v3.575h-3.575z"/></g></g><g style="clip-path:url(#clip-path-89)"><path class="cls-2" d="M45.689 89.274h7.149v7.15h-7.149z"/><path class="cls-3" d="M45.689 89.273h7.149v3.575h-7.149z"/><path class="cls-3" d="M45.689 89.274h3.575v7.15h-3.575z"/><path class="cls-4" d="M45.689 89.274h3.575v3.575h-3.575z"/><path class="cls-5" d="M45.689 89.273h3.575v3.575h-3.575z"/></g><g style="clip-path:url(#clip-path-90)"><path class="cls-2" d="M52.839 89.274h7.149v7.15h-7.149z"/><path class="cls-3" d="M52.839 89.273h7.149v3.575h-7.149z"/><path class="cls-3" d="M52.838 89.274h3.575v7.15h-3.575z"/><path class="cls-4" d="M52.838 89.274h3.575v3.575h-3.575z"/><path class="cls-5" d="M52.838 89.273h3.575v3.575h-3.575z"/></g><g class="cls-54"><g style="clip-path:url(#clip-path-92)"><path class="cls-2" d="M17.092 82.124h7.149v7.15h-7.149z"/><path class="cls-3" d="M17.092 82.123h7.149v3.575h-7.149z"/><path class="cls-3" d="M17.092 82.124h3.575v7.15h-3.575z"/><path class="cls-4" d="M17.092 82.123h3.575v3.575h-3.575z"/><path class="cls-5" d="M17.092 82.123h3.575v3.575h-3.575z"/></g><g style="clip-path:url(#clip-path-93)"><path class="cls-2" d="M24.242 82.124h7.149v7.15h-7.149z"/><path class="cls-3" d="M24.242 82.123h7.149v3.575h-7.149z"/><path class="cls-3" d="M24.241 82.124h3.575v7.15h-3.575z"/><path class="cls-4" d="M24.241 82.123h3.575v3.575h-3.575z"/><path class="cls-5" d="M24.241 82.123h3.575v3.575h-3.575z"/></g><g style="clip-path:url(#clip-path-94)"><path class="cls-2" d="M31.391 82.124h7.149v7.15h-7.149z"/><path class="cls-3" d="M31.391 82.123h7.149v3.575h-7.149z"/><path class="cls-3" d="M31.39 82.124h3.575v7.15H31.39z"/><path class="cls-4" d="M31.39 82.123h3.575v3.575H31.39z"/><path class="cls-5" d="M31.39 82.123h3.575v3.575H31.39z"/></g><g style="clip-path:url(#clip-path-95)"><path class="cls-2" d="M38.54 82.124h7.149v7.15H38.54z"/><path class="cls-3" d="M38.54 82.123h7.149v3.575H38.54z"/><path class="cls-3" d="M38.539 82.124h3.575v7.15h-3.575z"/><path class="cls-4" d="M38.539 82.123h3.575v3.575h-3.575z"/><path class="cls-5" d="M38.539 82.123h3.575v3.575h-3.575z"/></g></g><g style="clip-path:url(#clip-path-96)"><path class="cls-2" d="M45.689 82.124h7.149v7.15h-7.149z"/><path class="cls-3" d="M45.689 82.123h7.149v3.575h-7.149z"/><path class="cls-3" d="M45.689 82.124h3.575v7.15h-3.575z"/><path class="cls-4" d="M45.689 82.123h3.575v3.575h-3.575z"/><path class="cls-5" d="M45.689 82.123h3.575v3.575h-3.575z"/></g><g style="clip-path:url(#clip-path-97)"><path class="cls-2" d="M52.839 82.124h7.149v7.15h-7.149z"/><path class="cls-3" d="M52.839 82.123h7.149v3.575h-7.149z"/><path class="cls-3" d="M52.838 82.124h3.575v7.15h-3.575z"/><path class="cls-4" d="M52.838 82.123h3.575v3.575h-3.575z"/><path class="cls-5" d="M52.838 82.123h3.575v3.575h-3.575z"/></g><g class="cls-54"><g style="clip-path:url(#clip-path-99)"><path class="cls-2" d="M17.092 74.973h7.149v7.15h-7.149z"/><path class="cls-3" d="M17.092 74.973h7.149v3.575h-7.149z"/><path class="cls-3" d="M17.092 74.973h3.575v7.15h-3.575z"/><path class="cls-4" d="M17.092 74.973h3.575v3.575h-3.575z"/><path class="cls-5" d="M17.092 74.973h3.575v3.575h-3.575z"/></g><g style="clip-path:url(#clip-path-100)"><path class="cls-2" d="M24.242 74.973h7.149v7.15h-7.149z"/><path class="cls-3" d="M24.242 74.973h7.149v3.575h-7.149z"/><path class="cls-3" d="M24.241 74.973h3.575v7.15h-3.575z"/><path class="cls-4" d="M24.241 74.973h3.575v3.575h-3.575z"/><path class="cls-5" d="M24.241 74.973h3.575v3.575h-3.575z"/></g><g style="clip-path:url(#clip-path-101)"><path class="cls-2" d="M31.391 74.973h7.149v7.15h-7.149z"/><path class="cls-3" d="M31.391 74.973h7.149v3.575h-7.149z"/><path class="cls-3" d="M31.39 74.973h3.575v7.15H31.39z"/><path class="cls-4" d="M31.39 74.973h3.575v3.575H31.39z"/><path class="cls-5" d="M31.39 74.973h3.575v3.575H31.39z"/></g><g style="clip-path:url(#clip-path-102)"><path class="cls-2" d="M38.54 74.973h7.149v7.15H38.54z"/><path class="cls-3" d="M38.54 74.973h7.149v3.575H38.54z"/><path class="cls-3" d="M38.539 74.973h3.575v7.15h-3.575z"/><path class="cls-4" d="M38.539 74.973h3.575v3.575h-3.575z"/><path class="cls-5" d="M38.539 74.973h3.575v3.575h-3.575z"/></g></g><g style="clip-path:url(#clip-path-103)"><path class="cls-2" d="M45.689 74.973h7.149v7.15h-7.149z"/><path class="cls-3" d="M45.689 74.973h7.149v3.575h-7.149z"/><path class="cls-3" d="M45.689 74.973h3.575v7.15h-3.575z"/><path class="cls-4" d="M45.689 74.973h3.575v3.575h-3.575z"/><path class="cls-5" d="M45.689 74.973h3.575v3.575h-3.575z"/></g><g style="clip-path:url(#clip-path-105)" class="cls-54"><path class="cls-2" d="M52.839 74.973h7.149v7.15h-7.149z"/><path class="cls-3" d="M52.839 74.973h7.149v3.575h-7.149z"/><path class="cls-3" d="M52.838 74.973h3.575v7.15h-3.575z"/><path class="cls-4" d="M52.838 74.973h3.575v3.575h-3.575z"/><path class="cls-5" d="M52.838 74.973h3.575v3.575h-3.575z"/></g><path d="m46.687 93.19.493.087c-.528 2.995-1.063 8.524-1.463 13.285-.2 2.382-.367 4.576-.484 6.173s-.183 2.595-.184 2.598a.5.5 0 0 1-.621.452c-.011-.003-2.043-.516-4.63-1.442a32.017 32.017 0 0 1-7.979-3.947 1.952 1.952 0 0 0-1.194-.436 2.583 2.583 0 0 0-1.618.692 8.485 8.485 0 0 0-2.166 3.171 10.832 10.832 0 0 0-.894 4.06 4.762 4.762 0 0 0 .416 2.097 2.224 2.224 0 0 0 1.257 1.156c1.89.691 5.284 2.281 8.928 3.701 3.634 1.423 7.524 2.659 10.227 2.653a4.98 4.98 0 0 0 2.314-.458 6.56 6.56 0 0 0 2.442-2.691c2.185-3.877 3.304-10.838 3.297-16.74 0-.958-.03-1.889-.087-2.774-.263-4.102-1.105-10.067-1.881-14.995-.388-2.465-.76-4.672-1.033-6.263s-.451-2.56-.451-2.563l.492-.09-.278.417.16-.242-.132.259-.028-.017.16-.242-.132.259.018-.036-.014.038-.004-.002.018-.036-.014.038-.067-.01a.806.806 0 0 0-.493.238 7.256 7.256 0 0 0-1.707 2.956 49.379 49.379 0 0 0-2.176 8.741l-.493-.087-.493-.087c.992-5.631 2.018-8.755 2.93-10.52a5.647 5.647 0 0 1 1.3-1.772 1.785 1.785 0 0 1 1.132-.47 1.097 1.097 0 0 1 .59.158.5.5 0 0 1 .214.328c.001.01 2.842 15.607 3.381 23.935.06.909.088 1.861.088 2.839a49.296 49.296 0 0 1-1.504 12.248 21.99 21.99 0 0 1-1.92 4.981 7.522 7.522 0 0 1-2.848 3.087 5.958 5.958 0 0 1-2.78.574c-2.982-.007-6.908-1.289-10.592-2.721-3.675-1.434-7.102-3.036-8.908-3.693a3.234 3.234 0 0 1-1.81-1.651 5.74 5.74 0 0 1-.52-2.543 12.235 12.235 0 0 1 1.654-5.819 8.15 8.15 0 0 1 1.768-2.182 3.57 3.57 0 0 1 2.257-.923 2.96 2.96 0 0 1 1.794.636 31.128 31.128 0 0 0 7.716 3.806 58.603 58.603 0 0 0 4.19 1.322c.225.062.346.092.347.092l-.123.485-.499-.034c0-.001.267-4.014.668-8.787.402-4.777.935-10.302 1.475-13.376l.493.087" class="cls-49"/><path class="cls-1" d="M0 0h132.499v142.999H0z"/><g style="clip-path:url(#clip-path-107)" class="cls-103"><path class="cls-2" d="M16.88 117.764h7.149v7.15H16.88z"/><path class="cls-3" d="M16.88 117.764h7.149v3.575H16.88z"/><path class="cls-3" d="M16.88 117.764h3.575v7.15H16.88z"/><path class="cls-4" d="M16.88 117.764h3.575v3.575H16.88z"/><path class="cls-5" d="M16.88 117.764h3.575v3.575H16.88z"/></g><g style="clip-path:url(#clip-path-108)"><path class="cls-2" d="M24.03 117.764h7.149v7.15H24.03z"/><path class="cls-3" d="M24.03 117.764h7.149v3.574H24.03z"/><path class="cls-3" d="M24.029 117.764h3.575v7.15h-3.575z"/><path class="cls-4" d="M24.029 117.764h3.575v3.574h-3.575z"/><path class="cls-5" d="M24.029 117.764h3.575v3.574h-3.575z"/></g><g style="clip-path:url(#clip-path-109)"><path class="cls-2" d="M31.179 117.764h7.149v7.15h-7.149z"/><path class="cls-3" d="M31.179 117.764h7.149v3.574h-7.149z"/><path class="cls-3" d="M31.178 117.764h3.575v7.15h-3.575z"/><path class="cls-4" d="M31.178 117.764h3.575v3.574h-3.575z"/><path class="cls-5" d="M31.178 117.764h3.575v3.574h-3.575z"/></g><g style="clip-path:url(#clip-path-110)"><path class="cls-2" d="M38.328 117.764h7.149v7.15h-7.149z"/><path class="cls-3" d="M38.328 117.764h7.149v3.575h-7.149z"/><path class="cls-3" d="M38.328 117.764h3.575v7.15h-3.575z"/><path class="cls-4" d="M38.328 117.764h3.575v3.575h-3.575z"/><path class="cls-5" d="M38.328 117.764h3.575v3.575h-3.575z"/></g><g style="clip-path:url(#clip-path-112)" class="cls-103"><path class="cls-2" d="M16.88 110.614h7.149v7.15H16.88z"/><path class="cls-3" d="M16.88 110.613h7.149v3.575H16.88z"/><path class="cls-3" d="M16.88 110.614h3.575v7.15H16.88z"/><path class="cls-4" d="M16.88 110.614h3.575v3.575H16.88z"/><path class="cls-5" d="M16.88 110.613h3.575v3.575H16.88z"/></g><g style="clip-path:url(#clip-path-113)"><path class="cls-2" d="M24.03 110.614h7.149v7.15H24.03z"/><path class="cls-3" d="M24.03 110.613h7.149v3.575H24.03z"/><path class="cls-3" d="M24.029 110.614h3.575v7.15h-3.575z"/><path class="cls-4" d="M24.029 110.614h3.575v3.575h-3.575z"/><path class="cls-5" d="M24.029 110.613h3.575v3.575h-3.575z"/></g><g style="clip-path:url(#clip-path-114)"><path class="cls-2" d="M31.179 110.614h7.149v7.15h-7.149z"/><path class="cls-3" d="M31.179 110.613h7.149v3.575h-7.149z"/><path class="cls-3" d="M31.178 110.614h3.575v7.15h-3.575z"/><path class="cls-4" d="M31.178 110.614h3.575v3.575h-3.575z"/><path class="cls-5" d="M31.178 110.613h3.575v3.575h-3.575z"/></g><g style="clip-path:url(#clip-path-115)"><path class="cls-2" d="M38.328 110.614h7.149v7.15h-7.149z"/><path class="cls-3" d="M38.328 110.613h7.149v3.575h-7.149z"/><path class="cls-3" d="M38.328 110.614h3.575v7.15h-3.575z"/><path class="cls-4" d="M38.328 110.614h3.575v3.575h-3.575z"/><path class="cls-5" d="M38.328 110.613h3.575v3.575h-3.575z"/></g><g style="clip-path:url(#clip-path-117)" class="cls-103"><path class="cls-2" d="M16.88 103.464h7.149v7.15H16.88z"/><path class="cls-3" d="M16.88 103.463h7.149v3.575H16.88z"/><path class="cls-3" d="M16.88 103.464h3.575v7.15H16.88z"/><path class="cls-4" d="M16.88 103.463h3.575v3.575H16.88z"/><path class="cls-5" d="M16.88 103.463h3.575v3.575H16.88z"/></g><g style="clip-path:url(#clip-path-118)"><path class="cls-2" d="M24.03 103.464h7.149v7.15H24.03z"/><path class="cls-3" d="M24.03 103.463h7.149v3.575H24.03z"/><path class="cls-3" d="M24.029 103.464h3.575v7.15h-3.575z"/><path class="cls-4" d="M24.029 103.463h3.575v3.575h-3.575z"/><path class="cls-5" d="M24.029 103.463h3.575v3.575h-3.575z"/></g><g style="clip-path:url(#clip-path-119)"><path class="cls-2" d="M31.179 103.464h7.149v7.15h-7.149z"/><path class="cls-3" d="M31.179 103.463h7.149v3.575h-7.149z"/><path class="cls-3" d="M31.178 103.464h3.575v7.15h-3.575z"/><path class="cls-4" d="M31.178 103.463h3.575v3.575h-3.575z"/><path class="cls-5" d="M31.178 103.463h3.575v3.575h-3.575z"/></g><g style="clip-path:url(#clip-path-121)" class="cls-103"><path class="cls-2" d="M38.328 103.464h7.149v7.15h-7.149z"/><path class="cls-3" d="M38.328 103.463h7.149v3.575h-7.149z"/><path class="cls-3" d="M38.328 103.464h3.575v7.15h-3.575z"/><path class="cls-4" d="M38.328 103.463h3.575v3.575h-3.575z"/><path class="cls-5" d="M38.328 103.463h3.575v3.575h-3.575z"/></g><path d="m37.763 112.936-.19.463a30.329 30.329 0 0 1-5.956-3.114 1.893 1.893 0 0 0-1.115-.395 2.441 2.441 0 0 0-1.574.71 8.675 8.675 0 0 0-2.091 3.257 11.658 11.658 0 0 0-.852 4.118 4.879 4.879 0 0 0 .365 2.01 1.842 1.842 0 0 0 1.055 1.032c1.742.627 3.557 1.66 6.797 2.964l-.187.464-.236-.442.03-.016a10.646 10.646 0 0 0 1.849-1.353 6.563 6.563 0 0 0 2.033-3.106 8.818 8.818 0 0 0 .234-2.118 15.702 15.702 0 0 0-.322-3.013 16.657 16.657 0 0 0-.293-1.227l-.025-.086.478-.148-.19.463.19-.463.478-.148a17.603 17.603 0 0 1 .685 4.622 9.822 9.822 0 0 1-.264 2.36 7.69 7.69 0 0 1-2.517 3.77 11.213 11.213 0 0 1-1.895 1.346.5.5 0 0 1-.422.023c-3.286-1.324-5.148-2.375-6.761-2.95a2.842 2.842 0 0 1-1.625-1.553 5.837 5.837 0 0 1-.458-2.431 13.044 13.044 0 0 1 1.573-5.885 8.225 8.225 0 0 1 1.71-2.242 3.428 3.428 0 0 1 2.235-.96 2.895 2.895 0 0 1 1.697.583 29.424 29.424 0 0 0 5.753 3.002.5.5 0 0 1 .289.315l-.478.148" class="cls-49"/><path d="M75.857 75.213s-3.312 7.04-3.846 13.177-1.892 29.193-2.001 37.767c-.13 10.164.025 27.432.025 27.432l3.374.26s-.271-16.03-.271-24.565 1.414-37.565 2.215-41.566c.8-4.003 4.394-13.2 4.394-13.2Z" class="cls-53"/><path d="M75.857 75.213s-3.312 7.04-3.846 13.177-1.892 29.193-2.001 37.767c-.13 10.164.025 27.432.025 27.432l3.374.26s-.271-16.03-.271-24.565 1.414-37.565 2.215-41.566c.8-4.003 4.394-13.2 4.394-13.2Z" class="cls-51"/><path class="cls-1" d="M0 0h132.499v142.999H0z"/><g style="clip-path:url(#clip-path-122)"><path d="M31.179 117.764h-3.575v3.251c.052.005.105.008.159.008h.014a3.428 3.428 0 0 0 2.255-1.206 7.897 7.897 0 0 0 1.147-1.526v-.527" class="cls-117"/><path d="M27.604 117.764h-1.617l-.002.211a4.866 4.866 0 0 0 .365 2.011 1.92 1.92 0 0 0 .8.914l.09.036a1.556 1.556 0 0 0 .364.079v-3.251m3.862 0h-.287v.527a10.1 10.1 0 0 0 .287-.527" class="cls-118"/><path class="cls-119" d="M31.179 114.188h-3.575v3.576h-1.616 5.191v-3.576z"/><path d="M31.179 110.614H28.99a4.963 4.963 0 0 0-.504.495 7.61 7.61 0 0 0-.883 1.237v1.842h3.575v-3.574m-3.574 3.574h-.856c-.028.074-.054.15-.08.224a11.897 11.897 0 0 0-.68 3.348v.004h1.616v-3.576" class="cls-117"/><path d="M27.604 112.346a11.666 11.666 0 0 0-.856 1.842h.856v-1.842" class="cls-118"/><path d="M31.179 110.614v7.15h.287a10.366 10.366 0 0 0 .54-1.275 10.056 10.056 0 0 0 .518-2.301h-1.345v-3.574" class="cls-117"/><path d="M31.812 110.614h-.634v3.574h1.345c.028-.28.042-.551.042-.813a5.284 5.284 0 0 0-.432-2.24 2.717 2.717 0 0 0-.32-.521" class="cls-118"/><path d="M30.5 109.953a2.423 2.423 0 0 0-1.51.66h2.188v-.512a1.44 1.44 0 0 0-.141-.058 1.59 1.59 0 0 0-.526-.09H30.5" class="cls-119"/><path d="M31.179 110.1v.514h.634a1.749 1.749 0 0 0-.634-.514" class="cls-117"/><path d="M25.988 117.76a9.057 9.057 0 0 0-.007.327 4.744 4.744 0 0 0 .345 1.933 1.628 1.628 0 0 0 .824.88 1.923 1.923 0 0 1-.8-.914 4.862 4.862 0 0 1-.365-2.011c0-.07 0-.14.003-.211v-.003m-.943 1.334a4.847 4.847 0 0 0 .37 1.34 2.667 2.667 0 0 0 1.261 1.35l-.03-.018a2.942 2.942 0 0 1-1.205-1.361 4.154 4.154 0 0 1-.207-.55 5.324 5.324 0 0 1-.189-.761" class="cls-49"/><path d="m26.646 121.766.03.02.03.012-.06-.031m-1.658-4.062a8.705 8.705 0 0 0-.008.32v.117a7.288 7.288 0 0 0 .065.953 5.238 5.238 0 0 0 .19.761 6.49 6.49 0 0 1-.25-1.881c0-.09 0-.18.003-.27" class="cls-49"/><path d="M30.514 108.952h-.002a3.849 3.849 0 0 0-2.773 1.49 10.907 10.907 0 0 0-2.016 3.64 12.872 12.872 0 0 0-.735 3.623c-.002.09-.004.18-.004.27a6.513 6.513 0 0 0 .25 1.88 4.302 4.302 0 0 0 .208.55 2.937 2.937 0 0 0 1.205 1.362l.058.032c.066.03.135.058.205.082a2.564 2.564 0 0 0 .815.142h.063a3.278 3.278 0 0 0 1.308-.306 32.033 32.033 0 0 0-.867-.378 16.9 16.9 0 0 0-.625-.25c-.067-.024-.133-.05-.199-.073a1.705 1.705 0 0 1-.256-.116 1.63 1.63 0 0 1-.824-.88 4.745 4.745 0 0 1-.344-1.933c0-.107.002-.216.007-.326a11.672 11.672 0 0 1 .723-3.572 8.75 8.75 0 0 1 .126-.332 11.229 11.229 0 0 1 .767-1.584 6.905 6.905 0 0 1 1.307-1.66l.017-.013a2.442 2.442 0 0 1 1.57-.71h.004a1.698 1.698 0 0 1 .677.144 2.374 2.374 0 0 1 .438.25q.234.167.478.33c.38.252.778.496 1.19.732a4.915 4.915 0 0 0-.249-.642 2.97 2.97 0 0 0-1.669-1.606 2.597 2.597 0 0 0-.853-.146" class="cls-49"/><path d="M29.772 121.338h-1.543c.28.118.568.245.867.38a4.504 4.504 0 0 0 .676-.38" class="cls-49"/><path d="M31.179 118.29a7.897 7.897 0 0 1-1.147 1.527 3.428 3.428 0 0 1-2.255 1.206h-.014a1.66 1.66 0 0 1-.16-.008v.075c.207.077.415.16.627.249h1.542a6.364 6.364 0 0 0 .976-.822q.22-.227.43-.48v-1.746" class="cls-120"/><path d="M27.15 120.9a1.74 1.74 0 0 0 .254.116l.2.074v-.075a1.556 1.556 0 0 1-.364-.079 1.433 1.433 0 0 1-.09-.036m5.425-3.136h-1.11a10.1 10.1 0 0 1-.286.527v1.746a10.003 10.003 0 0 0 1.396-2.273" class="cls-121"/><path d="M28.99 110.614h-.078a6.883 6.883 0 0 0-1.308 1.659v.073a7.61 7.61 0 0 1 .883-1.237 4.963 4.963 0 0 1 .504-.495m-2.243 3.574h-.037a11.678 11.678 0 0 0-.723 3.572 11.865 11.865 0 0 1 .68-3.348l.08-.224" class="cls-120"/><path d="M27.604 112.272a11.282 11.282 0 0 0-.767 1.584c-.044.11-.086.222-.126.333h.037a11.666 11.666 0 0 1 .856-1.843v-.074" class="cls-121"/><path d="M33.529 114.188h-1.005a10.06 10.06 0 0 1-.518 2.301 10.43 10.43 0 0 1-.54 1.275h1.109q.204-.456.376-.945l-.472-.165.472.165a11.01 11.01 0 0 0 .578-2.63" class="cls-120"/><path d="M32.095 110.614h-.283a2.717 2.717 0 0 1 .321.52 5.284 5.284 0 0 1 .432 2.24c0 .263-.014.535-.042.814h1.006c.022-.244.034-.485.036-.721v-.181a6.883 6.883 0 0 0-.28-1.94 21.41 21.41 0 0 1-1.19-.732" class="cls-121"/><path d="M30.498 109.89a2.446 2.446 0 0 0-1.57.709l-.016.015h.079a2.421 2.421 0 0 1 1.51-.661h.01a1.569 1.569 0 0 1 .527.09q.072.025.14.057v-.066a1.698 1.698 0 0 0-.676-.144h-.004" class="cls-49"/><path d="M31.179 110.034v.066a1.76 1.76 0 0 1 .634.514h.283a16.076 16.076 0 0 1-.48-.329 2.342 2.342 0 0 0-.437-.251" class="cls-120"/></g><g class="cls-122"><g style="clip-path:url(#clip-path-124)"><path class="cls-2" transform="rotate(-38.537 88.476 115.89)" d="M84.902 112.315h7.149v7.15h-7.149z"/><path class="cls-3" transform="rotate(-38.537 89.59 117.289)" d="M86.016 115.501h7.149v3.575h-7.149z"/><path class="cls-3" transform="rotate(-38.537 87.078 117.004)" d="M85.291 113.429h3.575v7.15h-3.575z"/><path class="cls-4" transform="rotate(-38.537 88.192 118.402)" d="M86.405 116.615h3.575v3.575h-3.575z"/><path class="cls-5" transform="rotate(-38.537 88.192 118.402)" d="M86.405 116.615h3.575v3.575h-3.575z"/></g><g style="clip-path:url(#clip-path-125)"><path class="cls-2" transform="rotate(-38.537 94.068 111.436)" d="M90.494 107.861h7.149v7.15h-7.149z"/><path class="cls-3" transform="rotate(-38.537 95.182 112.835)" d="M91.608 111.047h7.149v3.575h-7.149z"/><path class="cls-3" transform="rotate(-38.537 92.67 112.55)" d="M90.883 108.975h3.575v7.15h-3.575z"/><path class="cls-4" transform="rotate(-38.537 93.784 113.948)" d="M91.997 112.161h3.575v3.575h-3.575z"/><path class="cls-5" transform="rotate(-38.537 93.784 113.948)" d="M91.997 112.161h3.575v3.575h-3.575z"/></g><g style="clip-path:url(#clip-path-126)"><path class="cls-2" transform="rotate(-38.537 99.66 106.982)" d="M96.086 103.407h7.149v7.15h-7.149z"/><path class="cls-3" transform="rotate(-38.537 100.774 108.38)" d="M97.2 106.593h7.149v3.575H97.2z"/><path class="cls-3" transform="rotate(-38.537 98.262 108.096)" d="M96.475 104.52h3.575v7.15h-3.575z"/><path class="cls-4" transform="rotate(-38.537 99.376 109.494)" d="M97.589 107.707h3.575v3.575h-3.575z"/><path class="cls-5" transform="rotate(-38.537 99.376 109.494)" d="M97.589 107.707h3.575v3.575h-3.575z"/></g><g style="clip-path:url(#clip-path-127)"><path class="cls-2" transform="rotate(-38.537 105.252 102.528)" d="M101.678 98.953h7.149v7.15h-7.149z"/><path class="cls-3" transform="rotate(-38.537 106.366 103.926)" d="M102.792 102.139h7.149v3.575h-7.149z"/><path class="cls-3" transform="rotate(-38.537 103.855 103.642)" d="M102.067 100.066h3.575v7.15h-3.575z"/><path class="cls-4" transform="rotate(-38.537 104.968 105.04)" d="M103.181 103.253h3.575v3.575h-3.575z"/><path class="cls-5" transform="rotate(-38.537 104.968 105.04)" d="M103.181 103.253h3.575v3.575h-3.575z"/></g><g style="clip-path:url(#clip-path-128)"><path class="cls-2" transform="rotate(-38.537 110.845 98.074)" d="M107.27 94.499h7.149v7.15h-7.149z"/><path class="cls-3" transform="rotate(-38.537 111.958 99.472)" d="M108.384 97.685h7.149v3.575h-7.149z"/><path class="cls-3" transform="rotate(-38.537 109.447 99.188)" d="M107.659 95.612h3.575v7.15h-3.575z"/><path class="cls-4" transform="rotate(-38.537 110.56 100.586)" d="M108.773 98.799h3.575v3.575h-3.575z"/><path class="cls-5" transform="rotate(-38.537 110.56 100.586)" d="M108.773 98.799h3.575v3.575h-3.575z"/></g><g style="clip-path:url(#clip-path-129)"><path class="cls-2" transform="rotate(-38.537 92.93 121.483)" d="M89.356 117.908h7.149v7.15h-7.149z"/><path class="cls-3" transform="rotate(-38.537 94.045 122.881)" d="M90.47 121.094h7.149v3.575H90.47z"/><path class="cls-3" transform="rotate(-38.537 91.533 122.597)" d="M89.746 119.022h3.575v7.15h-3.575z"/><path class="cls-4" transform="rotate(-38.537 92.647 123.995)" d="M90.859 122.208h3.575v3.575h-3.575z"/><path class="cls-5" transform="rotate(-38.537 92.647 123.995)" d="M90.859 122.208h3.575v3.575h-3.575z"/></g></g><g style="clip-path:url(#clip-path-130)"><path class="cls-2" transform="rotate(-38.537 98.523 117.029)" d="M94.948 113.454h7.149v7.15h-7.149z"/><path class="cls-3" transform="rotate(-38.537 99.637 118.427)" d="M96.062 116.64h7.149v3.575h-7.149z"/><path class="cls-3" transform="rotate(-38.537 97.125 118.143)" d="M95.338 114.567h3.575v7.15h-3.575z"/><path class="cls-4" transform="rotate(-38.537 98.239 119.541)" d="M96.451 117.754h3.575v3.575h-3.575z"/><path class="cls-5" transform="rotate(-38.537 98.239 119.541)" d="M96.451 117.754h3.575v3.575h-3.575z"/></g><g style="clip-path:url(#clip-path-131)"><path class="cls-2" transform="rotate(-38.537 104.115 112.575)" d="M100.541 109h7.149v7.15h-7.149z"/><path class="cls-3" transform="rotate(-38.537 105.229 113.973)" d="M101.654 112.186h7.149v3.575h-7.149z"/><path class="cls-3" transform="rotate(-38.537 102.717 113.689)" d="M100.93 110.113h3.575v7.15h-3.575z"/><path class="cls-4" transform="rotate(-38.537 103.83 115.087)" d="M102.044 113.3h3.575v3.575h-3.575z"/><path class="cls-5" transform="rotate(-38.537 103.83 115.087)" d="M102.044 113.3h3.575v3.575h-3.575z"/></g><g style="clip-path:url(#clip-path-132)"><path class="cls-2" transform="rotate(-38.537 109.707 108.12)" d="M106.133 104.546h7.149v7.15h-7.149z"/><path class="cls-3" transform="rotate(-38.537 110.82 109.519)" d="M107.246 107.732h7.149v3.575h-7.149z"/><path class="cls-3" transform="rotate(-38.537 108.31 109.234)" d="M106.522 105.659h3.575v7.15h-3.575z"/><path class="cls-4" transform="rotate(-38.537 109.423 110.633)" d="M107.636 108.846h3.575v3.575h-3.575z"/><path class="cls-5" transform="rotate(-38.537 109.423 110.633)" d="M107.636 108.845h3.575v3.575h-3.575z"/></g><g class="cls-122"><g style="clip-path:url(#clip-path-134)"><path class="cls-2" transform="rotate(-38.537 115.3 103.667)" d="M111.725 100.092h7.149v7.15h-7.149z"/><path class="cls-3" transform="rotate(-38.537 116.413 105.065)" d="M112.839 103.278h7.149v3.575h-7.149z"/><path class="cls-3" transform="rotate(-38.537 113.901 104.78)" d="M112.114 101.205h3.575v7.15h-3.575z"/><path class="cls-4" transform="rotate(-38.537 115.015 106.179)" d="M113.228 104.391h3.575v3.575h-3.575z"/><path class="cls-5" transform="rotate(-38.537 115.015 106.179)" d="M113.228 104.391h3.575v3.575h-3.575z"/></g><g style="clip-path:url(#clip-path-135)"><path class="cls-2" transform="rotate(-38.537 97.385 127.076)" d="M93.811 123.501h7.149v7.15h-7.149z"/><path class="cls-3" transform="rotate(-38.537 98.5 128.474)" d="M94.925 126.687h7.149v3.575h-7.149z"/><path class="cls-3" transform="rotate(-38.537 95.988 128.19)" d="M94.2 124.614h3.575v7.15H94.2z"/><path class="cls-4" transform="rotate(-38.537 97.101 129.588)" d="M95.314 127.801h3.575v3.575h-3.575z"/><path class="cls-5" transform="rotate(-38.537 97.101 129.588)" d="M95.314 127.801h3.575v3.575h-3.575z"/></g></g><g style="clip-path:url(#clip-path-136)"><path class="cls-2" transform="rotate(-38.537 102.978 122.622)" d="M99.403 119.047h7.149v7.15h-7.149z"/><path class="cls-3" transform="rotate(-38.537 104.091 124.02)" d="M100.517 122.233h7.149v3.575h-7.149z"/><path class="cls-3" transform="rotate(-38.537 101.58 123.735)" d="M99.792 120.16h3.575v7.15h-3.575z"/><path class="cls-4" transform="rotate(-38.537 102.693 125.134)" d="M100.906 123.347h3.575v3.575h-3.575z"/><path class="cls-5" transform="rotate(-38.537 102.693 125.134)" d="M100.906 123.347h3.575v3.575h-3.575z"/></g><g style="clip-path:url(#clip-path-137)"><path class="cls-2" transform="rotate(-38.537 108.57 118.168)" d="M104.995 114.593h7.149v7.15h-7.149z"/><path class="cls-3" transform="rotate(-38.537 109.683 119.566)" d="M106.109 117.779h7.149v3.575h-7.149z"/><path class="cls-3" transform="rotate(-38.537 107.172 119.281)" d="M105.385 115.706h3.575v7.15h-3.575z"/><path class="cls-4" transform="rotate(-38.537 108.285 120.68)" d="M106.498 118.892h3.575v3.575h-3.575z"/><path class="cls-5" transform="rotate(-38.537 108.285 120.68)" d="M106.498 118.892h3.575v3.575h-3.575z"/></g><g style="clip-path:url(#clip-path-138)"><path class="cls-2" transform="rotate(-38.537 114.162 113.714)" d="M110.587 110.138h7.149v7.15h-7.149z"/><path class="cls-3" transform="rotate(-38.537 115.275 115.112)" d="M111.701 113.325h7.149v3.575h-7.149z"/><path class="cls-3" transform="rotate(-38.537 112.764 114.827)" d="M110.977 111.252h3.575v7.15h-3.575z"/><path class="cls-4" transform="rotate(-38.537 113.878 116.226)" d="M112.091 114.438h3.575v3.575h-3.575z"/><path class="cls-5" transform="rotate(-38.537 113.878 116.226)" d="M112.09 114.438h3.575v3.575h-3.575z"/></g><g class="cls-122"><g style="clip-path:url(#clip-path-140)"><path class="cls-2" transform="rotate(-38.537 119.754 109.26)" d="M116.18 105.684h7.149v7.15h-7.149z"/><path class="cls-3" transform="rotate(-38.537 120.868 110.658)" d="M117.293 108.871h7.149v3.575h-7.149z"/><path class="cls-3" transform="rotate(-38.537 118.356 110.373)" d="M116.569 106.798h3.575v7.15h-3.575z"/><path class="cls-4" transform="rotate(-38.537 119.47 111.772)" d="M117.683 109.984h3.575v3.575h-3.575z"/><path class="cls-5" transform="rotate(-38.537 119.47 111.772)" d="M117.682 109.984h3.575v3.575h-3.575z"/></g><g style="clip-path:url(#clip-path-141)"><path class="cls-2" transform="rotate(-38.537 101.84 132.669)" d="M98.266 129.094h7.149v7.15h-7.149z"/><path class="cls-3" transform="rotate(-38.537 102.954 134.067)" d="M99.38 132.28h7.149v3.575H99.38z"/><path class="cls-3" transform="rotate(-38.537 100.442 133.783)" d="M98.655 130.207h3.575v7.15h-3.575z"/><path class="cls-4" transform="rotate(-38.537 101.556 135.18)" d="M99.769 133.394h3.575v3.575h-3.575z"/><path class="cls-5" transform="rotate(-38.537 101.556 135.18)" d="M99.769 133.393h3.575v3.575h-3.575z"/></g><g style="clip-path:url(#clip-path-142)"><path class="cls-2" transform="rotate(-38.537 107.432 128.215)" d="M103.858 124.64h7.149v7.15h-7.149z"/><path class="cls-3" transform="rotate(-38.537 108.546 129.613)" d="M104.972 127.826h7.149v3.575h-7.149z"/><path class="cls-3" transform="rotate(-38.537 106.034 129.328)" d="M104.247 125.753h3.575v7.15h-3.575z"/><path class="cls-4" transform="rotate(-38.537 107.148 130.727)" d="M105.361 128.94h3.575v3.575h-3.575z"/><path class="cls-5" transform="rotate(-38.537 107.148 130.727)" d="M105.361 128.939h3.575v3.575h-3.575z"/></g><g style="clip-path:url(#clip-path-143)"><path class="cls-2" transform="rotate(-38.537 113.024 123.76)" d="M109.45 120.186h7.149v7.15h-7.149z"/><path class="cls-3" transform="rotate(-38.537 114.138 125.159)" d="M110.564 123.372h7.149v3.575h-7.149z"/><path class="cls-3" transform="rotate(-38.537 111.627 124.874)" d="M109.839 121.299h3.575v7.15h-3.575z"/><path class="cls-4" transform="rotate(-38.537 112.74 126.273)" d="M110.953 124.486h3.575v3.575h-3.575z"/><path class="cls-5" transform="rotate(-38.537 112.74 126.273)" d="M110.953 124.485h3.575v3.575h-3.575z"/></g><g style="clip-path:url(#clip-path-144)"><path class="cls-2" transform="rotate(-38.537 118.617 119.306)" d="M115.042 115.731h7.149v7.15h-7.149z"/><path class="cls-3" transform="rotate(-38.537 119.73 120.705)" d="M116.156 118.918h7.149v3.575h-7.149z"/><path class="cls-3" transform="rotate(-38.537 117.219 120.42)" d="M115.431 116.845h3.575v7.15h-3.575z"/><path class="cls-4" transform="rotate(-38.537 118.332 121.819)" d="M116.545 120.031h3.575v3.575h-3.575z"/><path class="cls-5" transform="rotate(-38.537 118.332 121.819)" d="M116.545 120.031h3.575v3.575h-3.575z"/></g><g style="clip-path:url(#clip-path-145)"><path class="cls-2" transform="rotate(-38.537 124.209 114.852)" d="M120.634 111.277h7.149v7.15h-7.149z"/><path class="cls-3" transform="rotate(-38.537 125.322 116.25)" d="M121.748 114.464h7.149v3.575h-7.149z"/><path class="cls-3" transform="rotate(-38.537 122.81 115.966)" d="M121.023 112.391h3.575v7.15h-3.575z"/><path class="cls-4" transform="rotate(-38.537 123.924 117.365)" d="M122.137 115.577h3.575v3.575h-3.575z"/><path class="cls-5" transform="rotate(-38.537 123.924 117.364)" d="M122.137 115.577h3.575v3.575h-3.575z"/></g></g><path d="m114.968 115.235.437.244a26.08 26.08 0 0 1-2.734 3.672c-1.111 1.298-2.28 2.537-3.09 3.31a4.664 4.664 0 0 1-3.278 1.113 10.97 10.97 0 0 1-6.065-2.077 8.702 8.702 0 0 1-2.272-2.323 5.516 5.516 0 0 1-.926-2.989 5.619 5.619 0 0 1 .83-2.863 10.968 10.968 0 0 1 4.09-3.565l.005-.004a6.965 6.965 0 0 1 3.386-.676 16.79 16.79 0 0 1 5.405 1.008 7.477 7.477 0 0 1 3.523 2.898 11.267 11.267 0 0 1 1.153 2.066.503.503 0 0 1-.027.43l-.437-.244-.465.186-.013-.033a10.68 10.68 0 0 0-1.166-2.02 6.344 6.344 0 0 0-2.892-2.336 15.81 15.81 0 0 0-5.081-.954 7.886 7.886 0 0 0-2.22.283 4.154 4.154 0 0 0-.514.184l-.115.055-.022.012-.02-.032.02.031v.001l-.02-.032.02.031-.257-.429.263.426a10.066 10.066 0 0 0-3.753 3.221 4.608 4.608 0 0 0-.692 2.356 4.523 4.523 0 0 0 .768 2.45 8.566 8.566 0 0 0 3.317 2.84 9.512 9.512 0 0 0 4.177 1.098 3.683 3.683 0 0 0 2.588-.838c.774-.736 1.93-1.962 3.019-3.235a25.31 25.31 0 0 0 2.62-3.509l.438.244-.465.186.465-.186" class="cls-49"/><path class="cls-1" d="M0 0h132.499v142.999H0z"/><path class="cls-119" d="M106.765 110.165h2.373v2.979h-2.373z" style="clip-path:url(#clip-path-146)"/><g style="clip-path:url(#clip-path-147)"><path class="cls-117" d="m110.729 115.141 1 1.256.05.063-.413-.519-.637-.8z"/><path d="M106.484 110.138a6.837 6.837 0 0 0-3.578.918l1.21 1.52 2.796-2.228 2.227 2.796-2.373-2.979-.245-.027h-.037" class="cls-119"/><path class="cls-117" transform="rotate(-38.537 106.627 112.86)" d="M104.84 111.073h3.575v3.575h-3.575z"/><path d="m102.906 111.057-.06.037a3.546 3.546 0 0 0-1.645 2.072 1.66 1.66 0 0 0-.047.392 2.001 2.001 0 0 0 .355 1.094l2.607-2.076 2.227 2.796-2.227-2.796-1.21-1.52" class="cls-117"/><path d="m104.115 112.576-2.607 2.076.041.06a4.954 4.954 0 0 0 1.991 1.56 8.022 8.022 0 0 0 1.132.43l1.67-1.33-2.227-2.796" class="cls-118"/><path d="m106.765 110.165.146.183.178-.141q-.165-.024-.324-.042" class="cls-117"/><path d="m107.09 110.207-.179.14 2.227 2.798 2.15-1.713a4.442 4.442 0 0 0-.856-.4 18.259 18.259 0 0 0-3.343-.825" class="cls-118"/><path d="m109.138 113.144-2.796 2.227 1.348 1.693a16.974 16.974 0 0 0 2.596-.264l1.08-.859.363.456-1-1.256-1.59-1.997" class="cls-119"/><path d="m111.366 115.941-1.079.86a15.459 15.459 0 0 0 1.492-.34l-.05-.064-.363-.456m-5.024-.57-1.67 1.33a8.83 8.83 0 0 0 1.971.345l-.03.498.03-.499c.24.014.49.021.745.021h.011q.144 0 .291-.003l-1.348-1.692m4.946-3.939-2.15 1.712 2.228 2.797 2.403-1.914c-.13-.21-.28-.433-.445-.658a7.202 7.202 0 0 0-2.036-1.937" class="cls-117"/><path d="m113.77 114.027-2.404 1.914.413.52c.213-.062.42-.127.618-.195a6.372 6.372 0 0 0 1.768-.875 2.494 2.494 0 0 0 .235-.202 10.799 10.799 0 0 0-.63-1.162" class="cls-118"/><path d="m106.521 110.138.244.026.324.042a18.24 18.24 0 0 1 3.343.826 4.507 4.507 0 0 1 .856.4 7.199 7.199 0 0 1 2.036 1.936c.165.225.314.448.445.66a10.752 10.752 0 0 1 .632 1.161 1.054 1.054 0 0 0 .37-.663l.001-.039a1.978 1.978 0 0 0-.666-1.201 10.45 10.45 0 0 0-3.158-2.069 11.82 11.82 0 0 0-3.927-1.062 9.476 9.476 0 0 0-.5-.017" class="cls-49"/><path d="M106.574 109.138a18.439 18.439 0 0 1 4.182.947 7.483 7.483 0 0 1 3.523 2.898 11.422 11.422 0 0 1 1.154 2.066.506.506 0 0 1-.028.43l-.437-.244.437.244a8.62 8.62 0 0 1-.163.278 1.942 1.942 0 0 0 .528-1.172l.003-.089v-.024a2.905 2.905 0 0 0-.943-1.877 9.677 9.677 0 0 0-2.137-1.611 13.712 13.712 0 0 0-5.612-1.829 9.718 9.718 0 0 0-.507-.017" class="cls-49"/><path d="M106.484 109.138a7.79 7.79 0 0 0-4.172 1.11 5.127 5.127 0 0 0-1.551 1.48 29.416 29.416 0 0 1 1.719-1.115l.022-.013.03-.013.085-.042a4.12 4.12 0 0 1 .515-.184 7.934 7.934 0 0 1 2.22-.283c.355 0 .744.019 1.169.06.164.002.33.007.5.017a11.828 11.828 0 0 1 3.927 1.062 10.47 10.47 0 0 1 3.158 2.069 1.972 1.972 0 0 1 .666 1.202l-.001.038a1.05 1.05 0 0 1-.37.664l.007.014a19.78 19.78 0 0 1-1.335 1.883 6.829 6.829 0 0 0 1.7-.902 3.305 3.305 0 0 0 .469-.427c.058-.095.112-.188.163-.278l-.437-.245.437.245a.506.506 0 0 0 .028-.43 11.41 11.41 0 0 0-1.154-2.068 7.475 7.475 0 0 0-3.523-2.897 18.394 18.394 0 0 0-4.182-.948h-.09m-5.461 5.293 1.345 1.689-1.048-1.317-.297-.372z" class="cls-49"/><path d="M100.161 113.348c-.006.07-.008.14-.008.21a3.039 3.039 0 0 0 .57 1.72l.596-.476 1.949 2.447-.9-1.13-1.345-1.689-.862-1.082" class="cls-49"/><path d="m101.32 114.802-.597.475a5.222 5.222 0 0 0 1.438 1.367 7.633 7.633 0 0 0 1.106.604l-1.948-2.446" class="cls-120"/><path d="M105.351 110.079a7.926 7.926 0 0 0-2.219.282 4.088 4.088 0 0 0-.516.184l-.085.042.375.47a6.83 6.83 0 0 1 3.577-.919h.038c-.425-.042-.815-.06-1.17-.06" class="cls-49"/><path d="m102.531 110.586-.03.014-.022.012c-.616.38-1.194.74-1.719 1.117a3.812 3.812 0 0 0-.532 1.202 2.604 2.604 0 0 0-.067.417l1.158 1.454.19-.15a2.01 2.01 0 0 1-.356-1.094 1.668 1.668 0 0 1 .047-.393 3.556 3.556 0 0 1 1.646-2.072l.06-.037-.375-.47" class="cls-120"/><path d="m101.509 114.652-.19.15 1.049 1.317.9 1.13q.23.103.473.195l.932-.742a7.93 7.93 0 0 1-1.132-.43 4.973 4.973 0 0 1-1.992-1.56l-.04-.06" class="cls-121"/><path d="M110.287 116.8a17.114 17.114 0 0 1-2.596.264l.77.967c.103-.007.207-.014.31-.023l1.516-1.207" class="cls-49"/><path d="M111.78 116.46c-.474.134-.978.249-1.493.341l-1.516 1.207a18.147 18.147 0 0 0 2.69-.43c.34-.083.671-.174.99-.275l-.672-.843m-7.106.241-.932.742a9.736 9.736 0 0 0 2.843.601q.333.02.683.023h.24c.313-.003.632-.015.954-.036l-.77-.968a14.36 14.36 0 0 1-.292.003h-.011c-.255 0-.504-.007-.744-.02l-.03.498.03-.499a8.83 8.83 0 0 1-1.971-.344" class="cls-120"/><path d="M114.4 115.19a2.627 2.627 0 0 1-.234.201 6.386 6.386 0 0 1-1.768.875c-.2.068-.406.133-.62.194l.672.842q.32-.1.623-.216a19.78 19.78 0 0 0 1.335-1.882l-.007-.015" class="cls-121"/></g><path d="M15.815 117.38c-3.978-1.595-9.177 2.065-11.741-.096-2.564-2.159 4.234-3.947 6.253-4.373 3.726-.783 5.383-.238 5.69 4.113Z" class="cls-50"/><path d="M15.815 117.38c-3.978-1.595-9.177 2.065-11.741-.096-2.564-2.159 4.234-3.947 6.253-4.373 3.726-.783 5.383-.238 5.69 4.113Z" class="cls-51"/><path d="M23.436 117.632a101.48 101.48 0 0 1-10.662-1.065c-3.19-.677-4.931-5.508-6.745-8.32-2.252-3.496-3.023-6.91-.836-7.008s4.61 9.897 6.33 9.531c.946-.201-4.235-12.037-1.227-12.037 3.006 0 3.83 11.027 5.198 10.835 1.365-.194-.095-1.104-.285-4.316-.115-1.94-2.267-7.022.19-7.123 2.55-.104 2.362 10.133 3.937 10.312 1.767.198-2.118-9.678.993-9.247 2.174.301 1.527 7.874 3.48 9.27.557.396 4.274.847 5.55 2.685a4.47 4.47 0 0 0 3.688 1.688 14.526 14.526 0 0 1-.604 3.99 7.197 7.197 0 0 1-1.975 3.223c-1.18-.504-5.483-2.612-7.032-2.419" class="cls-50"/><path d="M23.436 117.632a101.48 101.48 0 0 1-10.662-1.065c-3.19-.677-4.931-5.508-6.745-8.32-2.252-3.496-3.023-6.91-.836-7.008s4.61 9.897 6.33 9.531c.946-.201-4.235-12.037-1.227-12.037 3.006 0 3.83 11.027 5.198 10.835 1.365-.194-.095-1.104-.285-4.316-.115-1.94-2.267-7.022.19-7.123 2.55-.104 2.362 10.133 3.937 10.312 1.767.198-2.118-9.678.993-9.247 2.174.301 1.527 7.874 3.48 9.27.557.396 4.274.847 5.55 2.685a4.47 4.47 0 0 0 3.688 1.688 14.526 14.526 0 0 1-.604 3.99 7.197 7.197 0 0 1-1.975 3.223c-1.18-.504-5.483-2.611-7.032-2.418Z" class="cls-51"/><path d="M114.633 114.118c0 1.929-3.128 3.493-6.986 3.493s-6.026-1.202-6.026-3.131 2.169-3.854 6.026-3.854 6.986 1.563 6.986 3.492" class="cls-50"/><path d="M115.125 114.142a2.871 2.871 0 0 1-1.089 2.073 6.495 6.495 0 0 1-1.881 1.092 12.204 12.204 0 0 1-4.115.773 12.773 12.773 0 0 1-4.152-.511 4.755 4.755 0 0 1-1.922-1.116 2.798 2.798 0 0 1-.813-2.184 4.297 4.297 0 0 1 2.728-3.389 9.389 9.389 0 0 1 4.153-.74 12.207 12.207 0 0 1 4.127.774 6.463 6.463 0 0 1 1.88 1.101 2.856 2.856 0 0 1 1.084 2.103Zm-.984-.024a1.887 1.887 0 0 0-.753-1.356 5.543 5.543 0 0 0-1.595-.918 11.278 11.278 0 0 0-3.772-.722 8.461 8.461 0 0 0-3.738.638 3.39 3.39 0 0 0-2.182 2.548c-.135 1.172.886 1.997 2.082 2.375a11.82 11.82 0 0 0 3.832.448 11.28 11.28 0 0 0 3.784-.723c1.143-.452 2.339-1.256 2.342-2.314Z" class="cls-49"/><path d="M116.685 114.565c3.978-1.594 9.178 2.065 11.741-.095s-4.234-3.947-6.252-4.373c-3.726-.783-5.384-.239-5.692 4.112Z" class="cls-50"/><path d="M116.685 114.565c3.978-1.594 9.178 2.065 11.741-.095s-4.234-3.947-6.252-4.373c-3.726-.783-5.384-.239-5.692 4.112Z" class="cls-51"/><path d="M112.706 114.95c1.573-.099 1.795-.19 3.474-.19a22.138 22.138 0 0 0 4.652-.167c3.322-.705 5.2-3.742 6.642-6.637.545-1.093 1.998-3.433.896-4.609-1.122-1.198-2.645 1.373-3.262 2.148-.368.461-3.442 5.944-4.087 5.486-.429-.305 2.102-6.136 2.295-6.71a23.17 23.17 0 0 0 1.04-4.814c.149-1.637-1.706-1.801-2.866-.782-1.174 1.029-2.274 4.788-2.737 6.254-.782 2.475-1.825 4.952-2.55 5.295-2.392 1.135-.562-2.914.11-5.217a17.907 17.907 0 0 0 1.006-5.942c0-2.214-2.697-2.173-3.609.173a37.279 37.279 0 0 0-1.1 5.033c-.26 1.097-.756 5.196-2.644 5.196-1.106 0-.558-2.316-.474-2.927.12-.854 1.22-7.302-1.112-6.787-1.643.364-2.025 3.042-2.135 4.525a22.942 22.942 0 0 1-1.026 4.792c-.356 1.235-1.634 1.133-2.492 2.244-2.216 2.867.911 3.78 5.34 3.779 1.05 0 4.639-.143 4.639-.143" class="cls-50"/><path d="M112.706 114.95c1.573-.099 1.795-.19 3.474-.19a22.138 22.138 0 0 0 4.652-.167c3.322-.705 5.2-3.742 6.642-6.637.545-1.093 1.998-3.433.896-4.609-1.122-1.198-2.645 1.373-3.262 2.148-.368.461-3.442 5.944-4.087 5.486-.429-.305 2.102-6.136 2.295-6.71a23.17 23.17 0 0 0 1.04-4.814c.149-1.637-1.706-1.801-2.866-.782-1.174 1.029-2.274 4.788-2.737 6.254-.782 2.475-1.825 4.952-2.55 5.295-2.392 1.135-.562-2.914.11-5.217a17.907 17.907 0 0 0 1.006-5.942c0-2.214-2.697-2.173-3.609.173a37.279 37.279 0 0 0-1.1 5.033c-.26 1.097-.756 5.196-2.644 5.196-1.106 0-.558-2.316-.474-2.927.12-.854 1.22-7.302-1.112-6.787-1.643.364-2.025 3.042-2.135 4.525a22.942 22.942 0 0 1-1.026 4.792c-.356 1.235-1.634 1.133-2.492 2.244-2.216 2.867.911 3.78 5.34 3.779 1.05 0 4.639-.143 4.639-.143Z" class="cls-51"/><path d="M64.058 51.914a4.864 4.864 0 1 1-4.863-4.864 4.864 4.864 0 0 1 4.863 4.864" class="cls-50"/><path d="M63.845 51.914a4.652 4.652 0 1 1-4.65-4.651 4.65 4.65 0 0 1 4.65 4.651" class="cls-50"/><path d="M63.632 51.914a4.439 4.439 0 1 1-4.437-4.438 4.438 4.438 0 0 1 4.437 4.438" class="cls-145"/><path d="M63.42 51.914a4.226 4.226 0 1 1-4.225-4.225 4.225 4.225 0 0 1 4.225 4.225" class="cls-146"/><path d="M63.207 51.914a4.013 4.013 0 1 1-4.013-4.014 4.013 4.013 0 0 1 4.013 4.014" class="cls-147"/><path d="M62.994 51.914a3.8 3.8 0 1 1-3.8-3.801 3.8 3.8 0 0 1 3.8 3.801" class="cls-148"/><path d="M62.781 51.913a3.587 3.587 0 1 1-3.587-3.586 3.587 3.587 0 0 1 3.587 3.586" class="cls-149"/><path d="M62.568 51.914a3.374 3.374 0 1 1-3.374-3.375 3.375 3.375 0 0 1 3.374 3.375" class="cls-150"/><path d="M62.355 51.914a3.162 3.162 0 1 1-3.16-3.162 3.161 3.161 0 0 1 3.16 3.162" class="cls-151"/><path d="M62.143 51.914a2.949 2.949 0 1 1-2.948-2.949 2.949 2.949 0 0 1 2.948 2.949" class="cls-152"/><path d="M61.93 51.913a2.736 2.736 0 1 1-2.735-2.734 2.735 2.735 0 0 1 2.735 2.734" class="cls-153"/><path d="M61.717 51.914a2.523 2.523 0 1 1-2.522-2.523 2.522 2.522 0 0 1 2.522 2.523" class="cls-154"/><path d="M61.504 51.914a2.31 2.31 0 1 1-2.309-2.31 2.31 2.31 0 0 1 2.31 2.31" class="cls-155"/><path d="M61.291 51.914a2.098 2.098 0 1 1-2.097-2.098 2.097 2.097 0 0 1 2.097 2.098" class="cls-155"/><path d="M61.078 51.914a1.885 1.885 0 1 1-1.884-1.885 1.885 1.885 0 0 1 1.884 1.885" class="cls-156"/><path d="M60.866 51.914a1.672 1.672 0 1 1-1.671-1.672 1.672 1.672 0 0 1 1.67 1.672" class="cls-157"/><path d="M60.653 51.914a1.46 1.46 0 1 1-1.458-1.459 1.458 1.458 0 0 1 1.458 1.459" class="cls-158"/><path d="M90.579 51.914a4.864 4.864 0 1 1-4.863-4.864 4.864 4.864 0 0 1 4.863 4.864" class="cls-50"/><path d="M90.366 51.914a4.652 4.652 0 1 1-4.65-4.651 4.65 4.65 0 0 1 4.65 4.651" class="cls-50"/><path d="M90.153 51.914a4.439 4.439 0 1 1-4.437-4.438 4.438 4.438 0 0 1 4.437 4.438" class="cls-145"/><path d="M89.94 51.914a4.226 4.226 0 1 1-4.224-4.225 4.225 4.225 0 0 1 4.225 4.225" class="cls-146"/><path d="M89.728 51.914a4.013 4.013 0 1 1-4.013-4.014 4.013 4.013 0 0 1 4.013 4.014" class="cls-147"/><path d="M89.515 51.914a3.8 3.8 0 1 1-3.8-3.801 3.8 3.8 0 0 1 3.8 3.801" class="cls-148"/><path d="M89.302 51.913a3.587 3.587 0 1 1-3.587-3.586 3.587 3.587 0 0 1 3.587 3.586" class="cls-149"/><path d="M89.09 51.914a3.374 3.374 0 1 1-3.375-3.375 3.375 3.375 0 0 1 3.374 3.375" class="cls-150"/><path d="M88.876 51.914a3.162 3.162 0 1 1-3.16-3.162 3.161 3.161 0 0 1 3.16 3.162" class="cls-151"/><path d="M88.664 51.914a2.949 2.949 0 1 1-2.948-2.949 2.949 2.949 0 0 1 2.948 2.949" class="cls-152"/><path d="M88.45 51.913a2.736 2.736 0 1 1-2.734-2.734 2.735 2.735 0 0 1 2.735 2.734" class="cls-153"/><path d="M88.238 51.914a2.523 2.523 0 1 1-2.522-2.523 2.522 2.522 0 0 1 2.522 2.523" class="cls-154"/><path d="M88.025 51.914a2.31 2.31 0 1 1-2.309-2.31 2.31 2.31 0 0 1 2.309 2.31" class="cls-155"/><path d="M87.812 51.914a2.098 2.098 0 1 1-2.097-2.098 2.097 2.097 0 0 1 2.097 2.098" class="cls-155"/><path d="M87.6 51.914a1.885 1.885 0 1 1-1.884-1.885 1.885 1.885 0 0 1 1.884 1.885" class="cls-156"/><path d="M87.387 51.914a1.672 1.672 0 1 1-1.671-1.672 1.672 1.672 0 0 1 1.67 1.672" class="cls-157"/><path d="M87.174 51.914a1.46 1.46 0 1 1-1.458-1.459 1.458 1.458 0 0 1 1.458 1.459" class="cls-158"/><path d="M62.21 45.502c0 2.422-.804 4.386-1.8 4.386s-1.798-1.964-1.798-4.386.805-4.386 1.799-4.386 1.8 1.964 1.8 4.386m23.239-.119c0 2.422-.805 4.386-1.799 4.386s-1.799-1.964-1.799-4.386.805-4.386 1.799-4.386 1.799 1.964 1.799 4.386" class="cls-49"/><path d="M56.458 77.225s7.145 6.635 16.49 6.635c9.343 0 17.045-7.682 17.045-7.682l8.803 3.982c-1.255 5.807-3.376 8.959-4.611 20.33-.485 4.47-1.205 7.85-1.205 11.408 0 11.938 3.248 23.34 4.166 29.464.223 1.478 1.73 3.935.308 4.593-4.474 2.072-17.454.275-25.113.92-7.05.593-24.213 2.82-22.662-1.84.306-.918.15-2.559.61-4.592a108.895 108.895 0 0 0 2.722-25.69c0-3.532-1.493-7.272-1.8-10.142-1.218-11.383-3.934-17.094-4.288-22.66Z" style="fill:#a6a8ab"/><path d="M56.458 77.225s7.145 6.635 16.49 6.635c9.343 0 17.045-7.682 17.045-7.682l8.803 3.982c-1.255 5.807-3.376 8.959-4.611 20.33-.485 4.47-1.205 7.85-1.205 11.408 0 11.938 3.248 23.34 4.166 29.464.223 1.478 1.73 3.935.308 4.593-4.474 2.072-17.454.275-25.113.92-7.05.593-24.213 2.82-22.662-1.84.306-.918.15-2.559.61-4.592a108.895 108.895 0 0 0 2.722-25.69c0-3.532-1.493-7.272-1.8-10.142-1.218-11.383-3.934-17.094-4.288-22.66Z" class="cls-51"/><path class="cls-53" d="m61.445 71.161 7.694 3.712-7.15 7.6-2.946-6.777 2.402-4.535z"/><path class="cls-51" d="m61.445 71.161 7.694 3.712-7.15 7.6-2.946-6.777 2.402-4.535z"/><path style="fill:url(#Unnamed_Pattern_4-7)" d="m76.437 74.999 7.095 6.177 3.043-5.643-2.934-4.802-7.204 4.268z"/><path class="cls-51" d="m76.437 74.999 7.095 6.177 3.043-5.643-2.934-4.802-7.204 4.268zM47.294 50.182l2.733 2.566m47.026-2.454-2.466 1.726v1.973"/><path class="cls-1" d="M0 0h132.499v142.999H0z"/></svg>