<svg id="Layer_1" data-name="Layer 1" xmlns="http://www.w3.org/2000/svg" viewBox="0 0 87.497 156.6916"><defs><style>.cls-1{fill:#ffeebc;}.cls-19,.cls-2,.cls-20{fill:none;stroke:#231f20;stroke-linecap:round;stroke-linejoin:round;}.cls-2{stroke-width:1.001px;}.cls-3{fill:#fcdcd3;}.cls-4{fill:#231f20;}.cls-5{fill:#e1b970;}.cls-6{fill:#fbd9d2;}.cls-7{fill:#fbd6d2;}.cls-8{fill:#fbd3d0;}.cls-9{fill:#fad0cf;}.cls-10{fill:#facdcf;}.cls-11{fill:#f9c9ce;}.cls-12{fill:#f9c6cd;}.cls-13{fill:#f8c3cc;}.cls-14{fill:#f8c0cb;}.cls-15{fill:#faaf40;}.cls-16{fill:#80c9ef;}.cls-17{fill:#929497;}.cls-18{fill:#e2dddb;}.cls-19,.cls-20{stroke-width:0.429px;}.cls-20{stroke-dasharray:1.418 1.418;}</style></defs><path class="cls-1" d="M27.9685,79.4016s3.748,9.467,4.371,13.408c.621,3.941-.623,5.808-.623,5.808l-8.297,4.148,3.957-.548,3.303,9.675s-12.733,5.89-20.708,5.191c-11.824-1.038-11.726-10.573-4.39-17.222,7.225-6.548,18.432-20.593,22.387-20.46"/><path class="cls-2" d="M27.9685,79.4016s3.748,9.467,4.371,13.408c.621,3.941-.623,5.808-.623,5.808l-8.297,4.148,3.957-.548,3.303,9.675s-12.733,5.89-20.708,5.191c-11.824-1.038-11.726-10.573-4.39-17.222C12.8065,93.3136,24.0135,79.2686,27.9685,79.4016Z"/><path class="cls-1" d="M74.98,80.9179s5.7,2.178,5.092,9.79c-.933,11.669-6.248,57.978-5.456,62.337.608,3.349-13.783-4.353-13.783-4.353s3.104-46.72,5.234-53.418c2.132-6.697,8.913-14.356,8.913-14.356"/><path class="cls-2" d="M74.98,80.9179s5.7,2.178,5.092,9.79c-.933,11.669-6.248,57.978-5.456,62.337.608,3.349-13.783-4.353-13.783-4.353s3.104-46.72,5.234-53.418C68.199,88.5769,74.98,80.9179,74.98,80.9179Z"/><path class="cls-1" d="M27.5537,78.9868l12.638-3.838s12.692-2.525,20.942-.249c5.745,1.586,6.802,2.56,9.653,3.781a40.53,40.53,0,0,1,4.566,2.436,194.4432,194.4432,0,0,0-5.15,21.517c-1.68,10.179.584,31.9.584,34.809,0,2.907-41.406-.305-41.406-.305s2.436-24.765,2.436-33.492c0-9.349-.681-11.192-4.263-24.659"/><path class="cls-2" d="M27.5537,78.9868l12.638-3.838s12.692-2.525,20.942-.249c5.745,1.586,6.802,2.56,9.653,3.781a40.53,40.53,0,0,1,4.566,2.436,194.4432,194.4432,0,0,0-5.15,21.517c-1.68,10.179.584,31.9.584,34.809,0,2.907-41.406-.305-41.406-.305s2.436-24.765,2.436-33.492C31.8167,94.2968,31.1357,92.4538,27.5537,78.9868Z"/><path class="cls-3" d="M44.6706,66.646s2.428,5.514.287,6.941a16.2863,16.2863,0,0,1-4.919,2.018s1.288,6.961,12.177,6.426c7.105-.35,13.046-5.795,13.046-5.795s-6.488-2.629-7.202-4.948c-.714-2.321-.536-7.855-.536-7.855Z"/><path class="cls-2" d="M44.6706,66.646s2.428,5.514.287,6.941a16.2863,16.2863,0,0,1-4.919,2.018s1.288,6.961,12.177,6.426c7.105-.35,13.046-5.795,13.046-5.795s-6.488-2.629-7.202-4.948c-.714-2.321-.536-7.855-.536-7.855Z"/><path class="cls-3" d="M26.0217,30.7235s2.228,6.07,2.678,17.315c.403,10.081,7.645,16.712,14.28,19.458,5.177,2.142,10.354,3.213,16.601-.357,8.016-4.58,13.039-11.766,13.21-19.815.177-8.291,5.317-9.615,2.142-22.314C72.9147,16.94,65.2757,7.16,50.6557,7.16c-16.268,0-25.983,13.441-24.634,23.564"/><path class="cls-2" d="M26.0217,30.7235s2.228,6.07,2.678,17.315c.403,10.081,7.645,16.712,14.28,19.458,5.177,2.142,10.354,3.213,16.601-.357,8.016-4.58,13.039-11.766,13.21-19.815.177-8.291,5.317-9.615,2.142-22.314C72.9147,16.94,65.2757,7.16,50.6557,7.16,34.3877,7.16,24.6727,20.6005,26.0217,30.7235Z"/><path class="cls-2" d="M50.0661,43.1549c.319,1.368.446,2.756-.353,2.756-1.574,0-2.025-.177-1.799,1.125a6.8822,6.8822,0,0,0,2.024,3.149"/><path class="cls-4" d="M40.1384,43.5421c0,2.421-.806,4.386-1.799,4.386-.995,0-1.799-1.965-1.799-4.386s.804-4.387,1.799-4.387c.993,0,1.799,1.965,1.799,4.387"/><path class="cls-4" d="M64.5232,43.2554c0,2.422-.805,4.386-1.8,4.386s-1.799-1.964-1.799-4.386.805-4.386,1.799-4.386,1.8,1.964,1.8,4.386"/><path class="cls-5" d="M38.16,18.5844a29.3554,29.3554,0,0,0,6.426,9.461c5.712,5.89,12.853,8.032,24.278,11.246l-11.009-23.815s16.267,18.663,14.757,33.456c-.892,8.746-1.963,11.066-5.89,14.993a19.6642,19.6642,0,0,1-6.256,4.144,31.72,31.72,0,0,0,13.025-2.479c7.409-3.179,19.356-14.181,10.182-37.846C76.86,10.17,67.0259.7544,50.3779.5024c-13.931-.211-31.209,17.599-33.996,40.753-2.13,17.697,10.354,23.741,16.958,26.419a19.0617,19.0617,0,0,0,7.95,1.339s-4.046-1.629-5.629-4.553c-3.854-7.116-8.032-19.636-6.07-27.846,2.061-8.623,8.569-18.03,8.569-18.03"/><path class="cls-2" d="M38.16,18.5844a29.3554,29.3554,0,0,0,6.426,9.461c5.712,5.89,12.853,8.032,24.278,11.246l-11.009-23.815s16.267,18.663,14.757,33.456c-.892,8.746-1.963,11.066-5.89,14.993a19.6642,19.6642,0,0,1-6.256,4.144,31.72,31.72,0,0,0,13.025-2.479c7.409-3.179,19.356-14.181,10.182-37.846C76.86,10.17,67.0259.7544,50.3779.5024c-13.931-.211-31.209,17.599-33.996,40.753-2.13,17.697,10.354,23.741,16.958,26.419a19.0617,19.0617,0,0,0,7.95,1.339s-4.046-1.629-5.629-4.553c-3.854-7.116-8.032-19.636-6.07-27.846C31.6519,27.9914,38.16,18.5844,38.16,18.5844Z"/><path class="cls-3" d="M28.4415,53.6393c2.212,3.56-5.397-.865-7.277-4.443s-1.635-7.321.466-8.514a3.1667,3.1667,0,0,1,4.072.694s.527,8.704,2.739,12.263"/><path class="cls-2" d="M28.4415,53.6393c2.212,3.56-5.397-.865-7.277-4.443s-1.635-7.321.466-8.514a3.1667,3.1667,0,0,1,4.072.694S26.23,50.08,28.4415,53.6393Z"/><path class="cls-5" d="M28.9386,24.97s-3.916,7.883-3.447,20.147c.613,16.005,13.546,20.041,13.546,20.041s-7.065-5.065-8.081-18.244c-1.155-14.982,7.204-28.329,7.204-28.329"/><path class="cls-2" d="M28.9386,24.97s-3.916,7.883-3.447,20.147c.613,16.005,13.546,20.041,13.546,20.041s-7.065-5.065-8.081-18.244c-1.155-14.982,7.204-28.329,7.204-28.329"/><path class="cls-3" d="M74.3751,53.6393c-2.211,3.56,5.398-.865,7.277-4.443,1.882-3.578,1.636-7.321-.465-8.514a3.1667,3.1667,0,0,0-4.072.694s-.527,8.704-2.74,12.263"/><path class="cls-2" d="M74.3751,53.6393c-2.211,3.56,5.398-.865,7.277-4.443,1.882-3.578,1.636-7.321-.465-8.514a3.1667,3.1667,0,0,0-4.072.694S76.5881,50.08,74.3751,53.6393Z"/><path class="cls-5" d="M73.8785,24.97s3.916,7.883,3.447,20.147c-.613,16.005-13.546,20.041-13.546,20.041s6.715-5.097,8.081-18.244c1.046-10.073-5.745-19.636-5.745-19.636"/><path class="cls-2" d="M73.8785,24.97s3.916,7.883,3.447,20.147c-.613,16.005-13.546,20.041-13.546,20.041s6.715-5.097,8.081-18.244c1.046-10.073-5.745-19.636-5.745-19.636"/><path class="cls-3" d="M41.6734,52.5811a3.763,3.763,0,1,1-3.762-3.762,3.7625,3.7625,0,0,1,3.762,3.762"/><path class="cls-6" d="M37.9107,56.136a3.5545,3.5545,0,1,1,3.553-3.554,3.5538,3.5538,0,0,1-3.553,3.554"/><path class="cls-7" d="M37.9107,55.9266a3.345,3.345,0,1,1,3.345-3.346,3.3451,3.3451,0,0,1-3.345,3.346"/><path class="cls-8" d="M37.9107,55.7178a3.1365,3.1365,0,1,1,3.136-3.137,3.1355,3.1355,0,0,1-3.136,3.137"/><path class="cls-9" d="M37.9107,55.5084a2.927,2.927,0,1,1,2.927-2.927,2.9264,2.9264,0,0,1-2.927,2.927"/><path class="cls-10" d="M37.9107,55.3a2.718,2.718,0,1,1,2.718-2.718,2.7181,2.7181,0,0,1-2.718,2.718"/><path class="cls-11" d="M37.9107,55.0906a2.509,2.509,0,1,1,2.509-2.509,2.5084,2.5084,0,0,1-2.509,2.509"/><path class="cls-12" d="M37.9107,54.8813a2.3005,2.3005,0,1,1,2.299-2.3,2.3,2.3,0,0,1-2.299,2.3"/><path class="cls-13" d="M37.9107,54.6719a2.091,2.091,0,1,1,2.092-2.091,2.09,2.09,0,0,1-2.092,2.091"/><path class="cls-14" d="M39.7925,52.5811a1.8815,1.8815,0,1,1-1.882-1.882,1.8812,1.8812,0,0,1,1.882,1.882"/><path class="cls-3" d="M68.7727,52.5811a3.7635,3.7635,0,1,1-3.763-3.762,3.7627,3.7627,0,0,1,3.763,3.762"/><path class="cls-6" d="M65.009,56.136a3.5545,3.5545,0,1,1,3.554-3.554,3.5536,3.5536,0,0,1-3.554,3.554"/><path class="cls-7" d="M65.009,55.9266a3.345,3.345,0,1,1,3.346-3.346,3.3449,3.3449,0,0,1-3.346,3.346"/><path class="cls-8" d="M65.01,55.7178a3.1365,3.1365,0,1,1,3.135-3.137,3.1349,3.1349,0,0,1-3.135,3.137"/><path class="cls-9" d="M65.009,55.5084a2.927,2.927,0,1,1,2.928-2.927,2.9262,2.9262,0,0,1-2.928,2.927"/><path class="cls-10" d="M65.009,55.3a2.718,2.718,0,1,1,2.718-2.718A2.7179,2.7179,0,0,1,65.009,55.3"/><path class="cls-11" d="M65.01,55.0906a2.509,2.509,0,1,1,2.508-2.509,2.5086,2.5086,0,0,1-2.508,2.509"/><path class="cls-12" d="M65.009,54.8813a2.3005,2.3005,0,1,1,2.3-2.3,2.2988,2.2988,0,0,1-2.3,2.3"/><path class="cls-13" d="M65.009,54.6719a2.091,2.091,0,1,1,2.092-2.091,2.09,2.09,0,0,1-2.092,2.091"/><path class="cls-14" d="M66.8908,52.5811a1.8815,1.8815,0,1,1-1.882-1.882,1.8806,1.8806,0,0,1,1.882,1.882"/><polygon class="cls-15" points="30.482 132.575 36.878 95.308 64.857 95.621 70.47 131.791 30.482 132.575"/><polygon class="cls-2" points="30.482 132.575 36.878 95.308 64.857 95.621 70.47 131.791 30.482 132.575"/><path class="cls-15" d="M39.5008,104.6238l21.257-.405s1.79,13.103-1.511,15.22-17.795,1.445-19.187-1.016-.559-13.799-.559-13.799"/><path class="cls-2" d="M39.5008,104.6238l21.257-.405s1.79,13.103-1.511,15.22-17.795,1.445-19.187-1.016S39.5008,104.6238,39.5008,104.6238Z"/><line class="cls-16" x1="52.5175" y1="105.1215" x2="52.1805" y2="120.4275"/><line class="cls-2" x1="52.5175" y1="105.1215" x2="52.1805" y2="120.4275"/><line class="cls-16" x1="56.8863" y1="104.5244" x2="56.5473" y2="119.8314"/><line class="cls-2" x1="56.8863" y1="104.5244" x2="56.5473" y2="119.8314"/><polygon class="cls-15" points="29.761 130.454 71.481 130.715 74.968 156.191 25.613 156.191 29.761 130.454"/><polygon class="cls-2" points="29.761 130.454 71.481 130.715 74.968 156.191 25.613 156.191 29.761 130.454"/><polygon class="cls-15" points="29.932 77.589 35.028 93.415 40.517 92.352 35.45 76.217 29.932 77.589"/><polygon class="cls-2" points="29.932 77.589 35.028 93.415 40.517 92.352 35.45 76.217 29.932 77.589"/><polygon class="cls-15" points="67.019 76.071 72.556 79.013 66.154 92.599 60.701 91.82 67.019 76.071"/><polygon class="cls-2" points="67.019 76.071 72.556 79.013 66.154 92.599 60.701 91.82 67.019 76.071"/><path class="cls-2" d="M41.3266,93.9631a1.5572,1.5572,0,0,0-1.876-1.156l-3.367.8a1.5568,1.5568,0,0,0,.69,3.036,2.0294,2.0294,0,1,0,3.922.093,1.9886,1.9886,0,0,0-.495-.907A1.5589,1.5589,0,0,0,41.3266,93.9631Z"/><path class="cls-17" d="M41.2,99.1851a2.012,2.012,0,1,1-2.012-2.012,2.0123,2.0123,0,0,1,2.012,2.012"/><circle class="cls-2" cx="39.1875" cy="99.1851" r="2.012" transform="translate(-66.3477 114.5363) rotate(-76.7175)"/><rect class="cls-17" x="34.4845" y="92.3356" width="6.2312" height="1.6445" transform="translate(-20.5377 11.2301) rotate(-13.3806)"/><rect class="cls-2" x="34.4845" y="92.3356" width="6.2312" height="1.6445" transform="translate(-20.5377 11.2301) rotate(-13.3806)"/><path class="cls-2" d="M59.5189,94.0715a1.5593,1.5593,0,0,1,1.669-1.439l3.451.257a1.5557,1.5557,0,0,1-.198,3.105,2.035,2.035,0,1,1-3.514-.26A1.5546,1.5546,0,0,1,59.5189,94.0715Z"/><path class="cls-17" d="M60.3427,99.02a2.0124,2.0124,0,1,0,2.155-1.858,2.01,2.01,0,0,0-2.155,1.858"/><path class="cls-2" d="M60.3427,99.02a2.0124,2.0124,0,1,0,2.155-1.858A2.01,2.01,0,0,0,60.3427,99.02Z"/><rect class="cls-17" x="62.2482" y="89.5702" width="1.6434" height="6.2304" transform="translate(-34.0105 148.7549) rotate(-85.7747)"/><rect class="cls-2" x="62.2482" y="89.5702" width="1.6434" height="6.2304" transform="translate(-34.0105 148.7549) rotate(-85.7747)"/><line class="cls-18" x1="28.6839" y1="134.2258" x2="71.2369" y2="134.2258"/><line class="cls-19" x1="28.6839" y1="134.2258" x2="29.3979" y2="134.2258"/><line class="cls-20" x1="30.8171" y1="134.2258" x2="69.8131" y2="134.2258"/><line class="cls-19" x1="70.5226" y1="134.2258" x2="71.2366" y2="134.2258"/><path class="cls-2" d="M43.54,53.192s1.452,3.112,7.466,2.697a25.7249,25.7249,0,0,0,11.201-3.941"/><path class="cls-3" d="M32.1319,101.52s6.821-1.976,10.371-2.904c4.771-1.245,5.6-8.92,7.676-7.467,2.072,1.452,2.28,2.904,1.243,5.6a14.1373,14.1373,0,0,1-3.941,4.978,9.1553,9.1553,0,0,1,4.356,2.49c2.696,2.489-1.245,3.94-1.245,3.94a2.3307,2.3307,0,0,1-.206,2.697c-1.013,1.621-2.076,1.244-2.076,1.244a2.451,2.451,0,0,1-2.073,3.526c-.842.158-.051,3.402-3.671,1.828-3.167-1.376-9.397-6.805-9.397-6.805l-3.527,1.245s-4.421-8.491-2.45-9.075c3.715-1.099,2.908-.6,4.94-1.297"/><path class="cls-2" d="M32.1319,101.52s6.821-1.976,10.371-2.904c4.771-1.245,5.6-8.92,7.676-7.467,2.072,1.452,2.28,2.904,1.243,5.6a14.1373,14.1373,0,0,1-3.941,4.978,9.1553,9.1553,0,0,1,4.356,2.49c2.696,2.489-1.245,3.94-1.245,3.94a2.3307,2.3307,0,0,1-.206,2.697c-1.013,1.621-2.076,1.244-2.076,1.244a2.451,2.451,0,0,1-2.073,3.526c-.842.158-.051,3.402-3.671,1.828-3.167-1.376-9.397-6.805-9.397-6.805l-3.527,1.245s-4.421-8.491-2.45-9.075C30.9069,101.7183,30.1,102.2173,32.1319,101.52Z"/><path class="cls-2" d="M7.4486,107.1216s-.415-1.294,4.461-2.134c3.372-.58,14.866-2.586,14.866-2.586"/><polyline class="cls-2" points="22.563 45.039 24.439 48.175 24.288 50.463"/><polyline class="cls-2" points="80.012 45.491 78.523 47.395 78.287 48.944"/></svg>