<svg xmlns="http://www.w3.org/2000/svg" id="Layer_1" data-name="Layer 1" viewBox="0 0 169.849 142.212"><defs><pattern id="Unnamed_Pattern_18" width="14.172" height="14.174" data-name="Unnamed Pattern 18" patternTransform="scale(-.3632 .3632) rotate(-68.62 -13089.712 9582.98)" patternUnits="userSpaceOnUse"><path class="cls-1" d="M0 0h14.172v14.174H0z"/><path class="cls-2" d="M0 0h14.172v14.174H0z"/><path class="cls-3" d="M0 7.088h14.172v7.086H0z"/><path class="cls-3" d="M0 0h7.086v14.174H0z"/><path class="cls-4" d="M0 7.088h7.086v7.086H0z"/><path class="cls-5" d="M0 7.088h7.086v7.086H0z"/></pattern><pattern id="Unnamed_Pattern_18-3" width="14.172" height="14.174" data-name="Unnamed Pattern 18" patternTransform="matrix(-.0555 -.3589 -.3589 .0555 6554.286 -938.013)" patternUnits="userSpaceOnUse"><path class="cls-1" d="M0 0h14.172v14.174H0z"/><path class="cls-2" d="M0 0h14.172v14.174H0z"/><path class="cls-3" d="M0 7.088h14.172v7.086H0z"/><path class="cls-3" d="M0 0h7.086v14.174H0z"/><path class="cls-4" d="M0 7.088h7.086v7.086H0z"/><path class="cls-5" d="M0 7.088h7.086v7.086H0z"/></pattern><pattern id="Unnamed_Pattern_18-5" width="14.172" height="14.174" data-name="Unnamed Pattern 18" patternTransform="scale(-.3632 .3632) rotate(-68.62 -13083.282 9579.62)" patternUnits="userSpaceOnUse"><path class="cls-1" d="M0 0h14.172v14.174H0z"/><path class="cls-2" d="M0 0h14.172v14.174H0z"/><path class="cls-3" d="M0 7.088h14.172v7.086H0z"/><path class="cls-3" d="M0 0h7.086v14.174H0z"/><path class="cls-4" d="M0 7.088h7.086v7.086H0z"/><path class="cls-5" d="M0 7.088h7.086v7.086H0z"/></pattern><pattern id="Unnamed_Pattern_18-7" width="14.172" height="14.174" data-name="Unnamed Pattern 18" patternTransform="matrix(-.0555 -.3589 -.3589 .0555 6555.996 -940.213)" patternUnits="userSpaceOnUse"><path class="cls-1" d="M0 0h14.172v14.174H0z"/><path class="cls-2" d="M0 0h14.172v14.174H0z"/><path class="cls-3" d="M0 7.088h14.172v7.086H0z"/><path class="cls-3" d="M0 0h7.086v14.174H0z"/><path class="cls-4" d="M0 7.088h7.086v7.086H0z"/><path class="cls-5" d="M0 7.088h7.086v7.086H0z"/></pattern><pattern id="Unnamed_Pattern_18-9" width="14.172" height="14.174" data-name="Unnamed Pattern 18" patternTransform="matrix(-.0015 -.3632 -.3632 .0015 6592.53 -55.95)" patternUnits="userSpaceOnUse"><path class="cls-1" d="M0 0h14.172v14.174H0z"/><path class="cls-2" d="M0 0h14.172v14.174H0z"/><path class="cls-3" d="M0 7.088h14.172v7.086H0z"/><path class="cls-3" d="M0 0h7.086v14.174H0z"/><path class="cls-4" d="M0 7.088h7.086v7.086H0z"/><path class="cls-5" d="M0 7.088h7.086v7.086H0z"/></pattern><pattern id="Unnamed_Pattern_18-11" width="14.172" height="14.174" data-name="Unnamed Pattern 18" patternTransform="matrix(-.0015 -.3632 -.3632 .0015 6592.3 -53.05)" patternUnits="userSpaceOnUse"><path class="cls-1" d="M0 0h14.172v14.174H0z"/><path class="cls-2" d="M0 0h14.172v14.174H0z"/><path class="cls-3" d="M0 7.088h14.172v7.086H0z"/><path class="cls-3" d="M0 0h7.086v14.174H0z"/><path class="cls-4" d="M0 7.088h7.086v7.086H0z"/><path class="cls-5" d="M0 7.088h7.086v7.086H0z"/></pattern><style>.cls-1,.cls-14,.cls-8{fill:none}.cls-2{fill:#fff}.cls-3{fill:#fad3da}.cls-4{fill:#00adee}.cls-5{fill:#f5a2bd}.cls-7{fill:#fcdcd3}.cls-14,.cls-8{stroke:#231f20;stroke-linecap:round;stroke-linejoin:round}.cls-8{stroke-width:1.001px}.cls-9{fill:#ffeebc}.cls-10{fill:#faaf40}.cls-11{fill:#80c9ef}.cls-12{fill:#929497}.cls-13{fill:#e2dddb}.cls-14{stroke-width:.429px}.cls-16{fill:#231f20}.cls-17{fill:#e1b970}.cls-18{fill:#fbd9d2}.cls-19{fill:#fbd6d2}.cls-20{fill:#fbd3d0}.cls-21{fill:#fad0cf}.cls-22{fill:#facdcf}.cls-23{fill:#f9c9ce}.cls-24{fill:#f9c6cd}.cls-25{fill:#f8c3cc}.cls-26{fill:#f8c0cb}.cls-28{fill:#eeccb7}</style></defs><path d="M127.963 112.899h14.466v27.725h-14.466zm37.368 27.725h-12.858l-10.848-30.94 15.67-2.008 8.036 32.948z" style="stroke-width:1.001px;stroke:#231f20;stroke-linecap:round;stroke-linejoin:round;fill:#fcdcd3"/><path d="M86.936 21.627a7.768 7.768 0 0 1-2.42-6.631 37.157 37.157 0 0 1 .888-4.848s.757-5.113 1.763-5.765c.689-.448 1.19.547 1.19.547s-.052-1.817 1.22-2.367c.793-.34 1.115.67 1.115.67s.37-1.971 1.34-1.895c1.46.116 1.233 2.162 1.233 2.162s.667-1.027 1.515-.333c.84.688.364 3.082.135 5.346-.15 1.49-.272 3.007-.272 3.007a8.314 8.314 0 0 1 3.577-.952c.987.04 1.907.347 1.24 1.395-.665 1.05-3.62 1.658-4.413 4.32-.434 1.457-1.702 4.479-1.702 4.479l2.76 5.214-5.774 2.447Z" class="cls-7"/><path d="M86.936 21.627a7.768 7.768 0 0 1-2.42-6.631 37.157 37.157 0 0 1 .888-4.848s.757-5.113 1.763-5.765c.689-.448 1.19.547 1.19.547s-.052-1.817 1.22-2.367c.793-.34 1.115.67 1.115.67s.37-1.971 1.34-1.895c1.46.116 1.233 2.162 1.233 2.162s.667-1.027 1.515-.333c.84.688.364 3.082.135 5.346-.15 1.49-.272 3.007-.272 3.007a8.314 8.314 0 0 1 3.577-.952c.987.04 1.907.347 1.24 1.395-.665 1.05-3.62 1.658-4.413 4.32-.434 1.457-1.702 4.479-1.702 4.479l2.76 5.214-5.774 2.447ZM88.357 4.93l-.49 4.854m2.87-6.288-.521 6.069m3.032-5.871-.604 5.958" class="cls-8"/><path d="M92.824 12.412a4.918 4.918 0 0 0-2.522 2.394 9.332 9.332 0 0 0-.871 4.472m-2.728-8.189 6.103-.104" class="cls-8"/><path d="m88.099 25.346 6.217-2.766s5.774 9.365 11 16.975c4.79 6.973 14.903 13.167 14.903 13.167l-3.551 14.631s-14.846-15.577-18.2-21.312c-2.418-4.13-6.418-9.93-10.37-20.695" class="cls-9"/><path d="m88.099 25.346 6.217-2.766s5.774 9.365 11 16.975c4.79 6.973 14.903 13.167 14.903 13.167l-3.551 14.631s-14.846-15.577-18.2-21.312c-2.418-4.131-6.418-9.93-10.37-20.695Z" class="cls-8"/><path d="m114.806 50.532 8.917.702s6.837-3.55 12.206-3.04a26.615 26.615 0 0 1 6.441 1.416 23.392 23.392 0 0 1 3.14 1.144 86.905 86.905 0 0 0-.645 15.273c.447 7.698 6.684 21.21 7.104 23.34.424 2.133-29.294 6.648-29.294 6.648s-4.21-15.413-5.471-21.806c-2.652-13.433-2.644-21.104-2.398-23.677" class="cls-9"/><path d="m114.806 50.532 8.917.702s6.837-3.55 12.206-3.04a26.615 26.615 0 0 1 6.441 1.416 23.392 23.392 0 0 1 3.14 1.144 86.905 86.905 0 0 0-.645 15.273c.447 7.698 6.684 21.21 7.104 23.34.424 2.133-29.294 6.648-29.294 6.648s-4.21-15.413-5.471-21.806c-2.652-13.433-2.644-21.104-2.398-23.677Z" class="cls-8"/><path d="M122.812 44.942s1.251 3.687.61 5.326c-.763 1.97-1.755.87-1.755.87s-1.832 4.048 5.592 3.387c6.476-.575 9.48-6.333 9.48-6.333-1.212.06-3.98.332-4.849-1.255a24.264 24.264 0 0 1-1.432-5.19Z" class="cls-7"/><path d="M122.812 44.942s1.251 3.687.61 5.326c-.763 1.97-1.755.87-1.755.87s-1.832 4.048 5.592 3.387c6.476-.575 9.48-6.333 9.48-6.333-1.212.06-3.98.332-4.849-1.255a24.264 24.264 0 0 1-1.432-5.19Z" class="cls-8"/><path class="cls-10" d="m119.606 90.333-1.098-25.402 17.929-3.453 9.722 23.252-26.553 5.603z"/><path class="cls-8" d="m119.606 90.333-1.098-25.402 17.929-3.453 9.722 23.252-26.553 5.603z"/><path d="m121.32 70.471 12.992-2.933s2.891 8.558 1.153 10.39-10.724 3.195-11.916 1.72-2.229-9.177-2.229-9.177" class="cls-10"/><path d="m121.32 70.471 12.992-2.933s2.891 8.558 1.153 10.39-10.724 3.195-11.916 1.72-2.229-9.177-2.229-9.177Z" class="cls-8"/><path class="cls-11" d="m129.378 69.172 1.884 10.302"/><path class="cls-8" d="m129.378 69.172 1.884 10.302"/><path class="cls-11" d="m131.975 68.228 1.886 10.301"/><path class="cls-8" d="m131.975 68.228 1.886 10.301"/><path class="cls-10" d="m118.875 89.001 30.584-6.9 19.89 41.648-45.806 4.42-4.668-39.168z"/><path class="cls-8" d="m118.875 89.001 30.584-6.9 19.89 41.648-45.806 4.42-4.668-39.168z"/><path d="m137.245 48.093 3.923.806s-4.24 7.185-4.07 10.53a15.756 15.756 0 0 1-3.302.06c.137-3.683 3.449-11.396 3.449-11.396" class="cls-10"/><path d="m137.245 48.093 3.923.806s-4.24 7.185-4.07 10.53a15.756 15.756 0 0 1-3.302.06c.137-3.683 3.449-11.396 3.449-11.396Z" class="cls-8"/><path d="M133.061 60.267a1.011 1.011 0 0 1 1.156-.854l2.127.43a1.037 1.037 0 0 1 .757 1.239 1.009 1.009 0 0 1-1.133.855 1.526 1.526 0 0 1 .041.705 1.319 1.319 0 0 1-1.507 1.116 1.361 1.361 0 0 1-.992-1.621 1.427 1.427 0 0 1 .294-.635 1.045 1.045 0 0 1-.743-1.235Z" class="cls-8"/><path d="M133.347 64.104a1.343 1.343 0 0 0 1.435 1.212 1.301 1.301 0 0 0 1.067-1.516 1.34 1.34 0 0 0-1.434-1.21 1.3 1.3 0 0 0-1.068 1.514" class="cls-12"/><path d="M133.347 64.104a1.343 1.343 0 0 0 1.435 1.212 1.301 1.301 0 0 0 1.067-1.516 1.34 1.34 0 0 0-1.434-1.21 1.3 1.3 0 0 0-1.068 1.514Z" class="cls-8"/><path class="cls-12" d="m133.364 59.755 3.827.771.209-1.106-3.829-.771-.207 1.106z"/><path class="cls-8" d="m133.364 59.755 3.827.771.209-1.106-3.829-.771-.207 1.106z"/><path d="m117.716 50.598 3.951.54c-.802 6.183-.91 7.896-1.243 11.284a13.033 13.033 0 0 1-2.842.646c-.993-4.032.134-12.47.134-12.47" class="cls-10"/><path d="m117.716 50.598 3.951.54c-.802 6.183-.91 7.896-1.243 11.284a13.033 13.033 0 0 1-2.842.646c-.993-4.032.134-12.47.134-12.47Z" class="cls-8"/><path d="M117.931 63.96c-.13-.572.073-1.11.459-1.2l1.551-.359c.384-.093.804.302.934.873.132.568-.069 1.096-.445 1.196a1.955 1.955 0 0 1 .276.637c.169.748-.099 1.45-.6 1.566-.504.117-1.052-.392-1.224-1.142a2.033 2.033 0 0 1-.031-.694c-.38.078-.788-.31-.92-.877Z" class="cls-8"/><path d="M119.38 67.322c.328.66.941.932 1.366.608a1.492 1.492 0 0 0 .172-1.782c-.333-.658-.946-.932-1.37-.608a1.49 1.49 0 0 0-.169 1.782" class="cls-12"/><path d="M119.38 67.322c.328.66.941.932 1.366.608a1.492 1.492 0 0 0 .172-1.782c-.333-.658-.946-.932-1.37-.608a1.49 1.49 0 0 0-.169 1.782Z" class="cls-8"/><path class="cls-12" d="m117.665 63.333 2.791-.65-.251-1.093-2.79.648.25 1.095z"/><path class="cls-8" d="m117.665 63.333 2.791-.65-.251-1.093-2.79.648.25 1.095z"/><path class="cls-13" d="m118.729 91.663 31.334-7.293"/><path class="cls-14" d="m118.729 91.663.697-.161"/><path style="stroke-dasharray:1.464 1.464;stroke-width:.429px;stroke:#231f20;stroke-linecap:round;stroke-linejoin:round;fill:none" d="m120.851 91.169 27.803-6.47"/><path class="cls-14" d="m149.366 84.533.697-.162"/><path d="M108.616 21.442a94.898 94.898 0 0 1 .914 11.497c.233 6.895 4.097 10.126 8.625 12.03 3.532 1.488 6.056 3.01 10.497.886 5.76-2.753 10.433-8.097 10.585-13.6.155-5.669 3.677-6.556 1.559-15.253-1.346-5.53-6.531-12.25-16.529-12.312a15.38 15.38 0 0 0-15.651 16.752" class="cls-7"/><path d="M108.616 21.442a94.898 94.898 0 0 1 .914 11.497c.233 6.895 4.097 10.126 8.625 12.03 3.532 1.488 6.056 3.01 10.497.886 5.76-2.753 10.433-8.097 10.585-13.6.155-5.669 3.677-6.556 1.559-15.253-1.346-5.53-6.531-12.25-16.529-12.312a15.38 15.38 0 0 0-15.651 16.752Z" class="cls-8"/><path d="M121.448 29.369c.214.938.295 1.888-.251 1.883-1.079-.005-1.387-.129-1.239.762a4.716 4.716 0 0 0 1.373 2.165" class="cls-8"/><path d="M116.591 29.365c-.012 1.655-.569 2.997-1.247 2.992-.682-.008-1.224-1.35-1.214-3.008s.569-2.997 1.249-2.994 1.224 1.352 1.212 3.01m14.844-.37c-.01 1.657-.568 2.998-1.247 2.996-.682-.006-1.224-1.352-1.214-3.011.01-1.657.571-2.995 1.25-2.992.681.003 1.223 1.35 1.211 3.007" class="cls-16"/><path d="M115.673 11.959a13.713 13.713 0 0 0 3.695 7.315c3.882 4.054 7.26 5.451 15.063 7.696l-5.933-16.236s11.046 12.832 9.953 22.945c-.648 5.978-1.39 7.56-4.093 10.231a13.53 13.53 0 0 1-4.296 2.807 21.678 21.678 0 0 0 8.917-1.642c5.084-2.143 13.299-9.617 7.125-25.845-4.587-12.046-8.906-18.117-20.29-18.36-9.531-.2-20.402 8.082-22.161 27.271-1.114 12.143 4.063 15.493 8.567 17.354a13.018 13.018 0 0 0 5.433.95 18.04 18.04 0 0 1-3.828-3.138c-6.728-6.63-6.127-12.625-4.75-18.236 1.447-5.89 6.598-13.112 6.598-13.112" class="cls-17"/><path d="M115.673 11.959a13.713 13.713 0 0 0 3.695 7.315c3.882 4.054 7.26 5.451 15.063 7.696l-5.933-16.236s11.046 12.832 9.953 22.945c-.648 5.978-1.39 7.56-4.093 10.231a13.53 13.53 0 0 1-4.296 2.807 21.678 21.678 0 0 0 8.917-1.642c5.084-2.143 13.299-9.617 7.125-25.845-4.587-12.046-8.906-18.117-20.29-18.36-9.531-.2-20.402 8.082-22.161 27.271-1.114 12.143 4.063 15.493 8.567 17.354a13.018 13.018 0 0 0 5.433.95 18.04 18.04 0 0 1-3.828-3.138c-6.728-6.63-6.127-12.625-4.75-18.236 1.447-5.89 6.598-13.112 6.598-13.112Z" class="cls-8"/><path d="M110.999 37.88c1.499 2.442-3.685-.615-4.956-3.072-1.273-2.455-1.09-5.014.353-5.82a2.164 2.164 0 0 1 2.781.492s.324 5.954 1.822 8.4" class="cls-7"/><path d="M110.999 37.88c1.499 2.442-3.685-.615-4.956-3.072-1.273-2.455-1.09-5.014.353-5.82a2.164 2.164 0 0 1 2.781.492s.324 5.954 1.822 8.4Z" class="cls-8"/><path d="M109.34 16.288a30.777 30.777 0 0 0-2.443 13.765c.351 10.948 9.182 13.765 9.182 13.765s-6.058-2.669-5.56-11.695c.554-10.01 5.153-20.164 5.153-20.164" class="cls-17"/><path d="M109.34 16.288a30.777 30.777 0 0 0-2.443 13.765c.351 10.948 9.182 13.765 9.182 13.765s-6.058-2.669-5.56-11.695c.554-10.01 5.153-20.164 5.153-20.164" class="cls-8"/><path d="M139.31 36.574c-1.53 2.425 3.695-.568 4.995-3.007 1.303-2.44 1.151-5.002-.283-5.826a2.164 2.164 0 0 0-2.787.458s-.395 5.951-1.925 8.374" class="cls-7"/><path d="M139.31 36.574c-1.53 2.425 3.695-.568 4.995-3.007 1.303-2.44 1.151-5.002-.283-5.826a2.164 2.164 0 0 0-2.787.458s-.395 5.951-1.925 8.375Z" class="cls-8"/><path d="M140.431 17.213a51.335 51.335 0 0 1 .932 13.544c-.487 10.946-9.35 13.652-9.35 13.652s4.197-3.236 4.188-12.28c-.015-10.246-7.56-21.517-7.56-21.517" class="cls-17"/><path d="M140.431 17.213a51.335 51.335 0 0 1 .932 13.544c-.487 10.946-9.35 13.652-9.35 13.652s4.197-3.236 4.188-12.28c-.015-10.246-7.56-21.517-7.56-21.517" class="cls-8"/><path d="M116.946 35.713a2.574 2.574 0 1 1-2.556-2.59 2.573 2.573 0 0 1 2.556 2.59" class="cls-7"/><path d="M114.357 38.13a2.432 2.432 0 1 1 2.446-2.418 2.431 2.431 0 0 1-2.446 2.417" class="cls-18"/><path d="M114.358 37.986a2.288 2.288 0 1 1 2.301-2.274 2.288 2.288 0 0 1-2.3 2.274" class="cls-19"/><path d="M114.36 37.843a2.146 2.146 0 1 1 2.157-2.131 2.145 2.145 0 0 1-2.158 2.131" class="cls-20"/><path d="M114.36 37.7a2.002 2.002 0 1 1 2.015-1.99 2.005 2.005 0 0 1-2.015 1.99" class="cls-21"/><path d="M114.361 37.558a1.86 1.86 0 1 1 1.871-1.848 1.86 1.86 0 0 1-1.87 1.848" class="cls-22"/><path d="M114.361 37.414a1.716 1.716 0 1 1 1.728-1.705 1.718 1.718 0 0 1-1.728 1.705" class="cls-23"/><path d="M114.362 37.271a1.573 1.573 0 1 1 1.584-1.564 1.574 1.574 0 0 1-1.584 1.564" class="cls-24"/><path d="M114.363 37.128a1.43 1.43 0 1 1 1.441-1.42 1.434 1.434 0 0 1-1.44 1.42" class="cls-25"/><path d="M115.66 35.706a1.289 1.289 0 1 1-1.278-1.294 1.29 1.29 0 0 1 1.279 1.294" class="cls-26"/><path d="M135.008 34.574a2.574 2.574 0 1 1-2.558-2.59 2.574 2.574 0 0 1 2.558 2.59" class="cls-7"/><path d="M132.42 36.987a2.43 2.43 0 1 1 2.446-2.415 2.432 2.432 0 0 1-2.446 2.415" class="cls-18"/><path d="M132.42 36.844a2.288 2.288 0 1 1 2.302-2.273 2.286 2.286 0 0 1-2.302 2.273" class="cls-19"/><path d="M132.42 36.7a2.144 2.144 0 1 1 2.16-2.13 2.144 2.144 0 0 1-2.16 2.13" class="cls-20"/><path d="M132.422 36.558a2 2 0 1 1 2.015-1.99 1.998 1.998 0 0 1-2.015 1.99" class="cls-21"/><path d="M132.422 36.415a1.858 1.858 0 1 1 1.87-1.846 1.856 1.856 0 0 1-1.87 1.846" class="cls-22"/><path d="M132.423 36.271a1.714 1.714 0 1 1 1.727-1.704 1.712 1.712 0 0 1-1.727 1.704" class="cls-23"/><path d="M132.424 36.13a1.572 1.572 0 1 1 1.583-1.565 1.57 1.57 0 0 1-1.583 1.564" class="cls-24"/><path d="M132.425 35.985a1.429 1.429 0 1 1 1.44-1.42 1.426 1.426 0 0 1-1.44 1.42" class="cls-25"/><path d="M133.721 34.564a1.287 1.287 0 1 1-1.279-1.292 1.286 1.286 0 0 1 1.28 1.292" class="cls-26"/><path d="m120.095 37.275 8.345-1.458s-.05 6.9-3.63 6.806c-2.3-.059-4.715-5.348-4.715-5.348" class="cls-2"/><path d="m120.095 37.275 8.345-1.458s-.05 6.9-3.63 6.806c-2.3-.059-4.715-5.348-4.715-5.348Zm23.071-6.598-.862 1.41-.037 1.069" class="cls-8"/><path d="M134.653 79.01c.451 1.315.178 2.595-.607 2.863s-1.785-.579-2.234-1.89c-.448-1.316-.176-2.596.61-2.866.784-.266 1.784.578 2.231 1.893" class="cls-7"/><path d="M134.653 79.01c.451 1.315.178 2.595-.607 2.863s-1.785-.579-2.234-1.89c-.448-1.316-.176-2.596.61-2.866.784-.266 1.784.578 2.231 1.893Z" class="cls-8"/><path d="M145.206 76.743s-8.347-2.835-9.153-3.09-1.943-.054-3.353 1.598c-1.3 1.52.176 2.266.176 2.266a1.496 1.496 0 0 0 .026 1.335 1.286 1.286 0 0 0 1.168.442 1.074 1.074 0 0 0-.175 1.647 1.782 1.782 0 0 0 1.119.45s-.152 1.268.537 1.708c.949.609 1.757-.548 1.757-.548a14.304 14.304 0 0 0 5.045.504 37.88 37.88 0 0 0 4.766-1.26l5.719-2.024-1.864-4.952s-4.077 2.788-5.768 1.924" class="cls-7"/><path d="M145.206 76.743s-8.347-2.835-9.153-3.09-1.943-.054-3.353 1.598c-1.3 1.52.176 2.266.176 2.266a1.496 1.496 0 0 0 .026 1.335 1.286 1.286 0 0 0 1.168.442 1.074 1.074 0 0 0-.175 1.647 1.782 1.782 0 0 0 1.119.45s-.152 1.268.537 1.708c.949.609 1.757-.548 1.757-.548a14.304 14.304 0 0 0 5.045.504 37.88 37.88 0 0 0 4.766-1.26l5.719-2.024-1.864-4.952s-4.077 2.787-5.768 1.924Z" class="cls-8"/><path class="cls-7" d="m132.876 77.516 1.756-1.78"/><path class="cls-8" d="m132.876 77.516 1.756-1.78"/><path class="cls-7" d="m133.952 79.479 1.754-1.78"/><path class="cls-8" d="m133.952 79.479 1.754-1.78"/><path class="cls-7" d="m135.014 81.391 1.754-1.778"/><path class="cls-8" d="m135.014 81.391 1.754-1.778"/><path d="M142.37 49.61s1.78-.824 5.456 1.607c3.678 2.432 20.355 23.88 17.685 25.687s-14.918 3.446-14.918 3.446l-2.906-4.68 6.724-3.15-9.546-6.493Z" class="cls-9"/><path d="M142.37 49.61s1.78-.824 5.456 1.607c3.678 2.432 20.355 23.88 17.685 25.687s-14.918 3.446-14.918 3.446l-2.906-4.68 6.724-3.15-9.546-6.493Z" class="cls-8"/><path class="cls-13" d="m129.169 88.791 9.242 36.161"/><path class="cls-14" d="m129.169 88.791.178.693"/><path style="stroke-dasharray:1.436 1.436;stroke-width:.429px;stroke:#231f20;stroke-linecap:round;stroke-linejoin:round;fill:none" d="m129.701 90.874 8.355 32.69"/><path class="cls-14" d="m138.234 124.26.178.692"/><path d="M11.51 121.775s2.12 4.282-.115 7.181c-2.9 3.76-2.218 5.927-2.218 5.927s-.74.875-1.842-.223c-1.067-1.06-.17-5.074-.114-5.324Z" class="cls-28"/><path d="M11.51 121.775s2.12 4.282-.115 7.181c-2.9 3.76-2.218 5.927-2.218 5.927s-.74.875-1.842-.223c-1.067-1.06-.17-5.074-.114-5.324Z" class="cls-8"/><path d="M11.986 121.62c.351 3.326-5.123 9.983-5.123 9.983a8.371 8.371 0 0 0-.56 2.153c-.394 3.045 1.253 6.624-.015 7.02-1.27.396-1.485 1.752-2.555.233a18.856 18.856 0 0 1-3.192-8.275c-.495-3.588 3.632-10.132 6.272-14.927s3.317-5.929 3.317-5.929l7.61 2.342-5.226 6.548Z" class="cls-28"/><path d="M11.986 121.62c.351 3.326-5.123 9.983-5.123 9.983a8.371 8.371 0 0 0-.56 2.153c-.394 3.045 1.253 6.624-.015 7.02-1.27.396-1.485 1.752-2.555.233a18.856 18.856 0 0 1-3.192-8.275c-.495-3.588 3.632-10.132 6.272-14.927s3.317-5.929 3.317-5.929l7.61 2.342-5.226 6.548Z" class="cls-8"/><path d="M4.734 140.95a14.48 14.48 0 0 1-1.726-4.793 36.856 36.856 0 0 1-.203-4.489" class="cls-28"/><path d="M4.734 140.95a14.48 14.48 0 0 1-1.726-4.793 36.856 36.856 0 0 1-.203-4.489" class="cls-8"/><path style="fill:#4d6397" d="m55.54 137.954-39.906-.362 2.938-17.627 35.01.362 1.958 17.627z"/><path class="cls-8" d="m55.54 137.954-39.906-.362 2.938-17.627 35.01.362 1.958 17.627z"/><path d="M78.784 15.547s-5.768-8.399-3.147-8.219c1.687.116 3.839 4.696 3.839 4.696Z" class="cls-28"/><path d="M78.784 15.547s-5.768-8.399-3.147-8.219c1.687.116 3.839 4.696 3.839 4.696Z" class="cls-8"/><path d="M82.658 28.423s1.174-5.148 2.682-6.748 2.114-5.49 2.189-7.28a29.984 29.984 0 0 0-.524-8.219c-.81-4.263-2.141-3.27-2.141-3.27s-1.41-3.837-2.316-.063c-.11-1.293-.454-2.3-1.366-2.342-.887-.04-1.301 1.942-1.224 2.216.075.274-.678-1.668-1.324-.98-.644.686-.686 1.443-.75 6.556a80.625 80.625 0 0 0 1.263 12.416l-2.745 6.572Z" class="cls-28"/><path d="M82.658 28.423s1.174-5.148 2.682-6.748 2.114-5.49 2.189-7.28a29.984 29.984 0 0 0-.524-8.219c-.81-4.263-2.141-3.27-2.141-3.27s-1.41-3.837-2.316-.063c-.11-1.293-.454-2.3-1.366-2.342-.887-.04-1.301 1.942-1.224 2.216.075.274-.678-1.668-1.324-.98-.644.686-.686 1.443-.75 6.556a80.625 80.625 0 0 0 1.263 12.416l-2.745 6.572Z" class="cls-8"/><path d="M79.958 2.718s.262 4.141.193 6.323m2.383-6.607s.14 4.554.07 6.736m2.259-6.264S85.07 7.46 85 9.641" class="cls-8"/><path d="M30.95 65.415s-3.826-1.66-7.966 8.244c-4.14 9.9-14.042 38.53-14.042 38.53l6.735 6.335 15.187-34.221Z" style="fill:url(#Unnamed_Pattern_18)"/><path d="M30.95 65.415s-3.826-1.66-7.966 8.244c-4.14 9.9-14.042 38.53-14.042 38.53l6.735 6.335 15.187-34.221Z" class="cls-8"/><path d="M65.457 37.872a1.22 1.22 0 0 0-1.15-1.766 4.35 4.35 0 0 1-1.92-.347c-1.48-.683-1.82-4.632-1.042-9.458.786-4.873-7.71-8.83-7.71-8.83-19.265-6.793-29.333 15.912-24.157 27.36A16.57 16.57 0 0 0 39.551 53.7l-1.855 7.066 11.414 2.762 2.392-8.961c2.537-.058 6.732-.067 9.912-2.895 6.715-5.964 3.532-11.837 3.532-11.837a6.489 6.489 0 0 1 .51-1.963" class="cls-28"/><path d="M65.457 37.872a1.22 1.22 0 0 0-1.15-1.766 4.35 4.35 0 0 1-1.92-.347c-1.48-.683-1.82-4.632-1.042-9.458.786-4.873-7.71-8.83-7.71-8.83-19.265-6.793-29.333 15.912-24.157 27.36A16.57 16.57 0 0 0 39.551 53.7l-1.855 7.066 11.414 2.762 2.392-8.961c2.537-.058 6.732-.067 9.912-2.895 6.715-5.964 3.532-11.837 3.532-11.837a6.489 6.489 0 0 1 .51-1.963Z" class="cls-8"/><path d="M51.926 28.787s-.031-2.74 2.388-2.16" class="cls-8"/><path d="M60.945 40.287a3.501 3.501 0 1 1-4.391-2.292 3.505 3.505 0 0 1 4.391 2.292" class="cls-28"/><path d="M60.8 40.333a3.348 3.348 0 1 1-4.2-2.193 3.351 3.351 0 0 1 4.199 2.193" style="fill:#eecab6"/><path d="M60.654 40.379a3.195 3.195 0 1 1-4.007-2.091 3.197 3.197 0 0 1 4.007 2.09" style="fill:#eec8b5"/><path d="M60.506 40.425a3.042 3.042 0 1 1-3.813-1.993 3.041 3.041 0 0 1 3.813 1.993" style="fill:#edc6b4"/><path d="M60.36 40.47a2.89 2.89 0 1 1-3.622-1.891 2.887 2.887 0 0 1 3.622 1.891" style="fill:#edc3b2"/><path d="M60.214 40.517a2.735 2.735 0 1 1-3.43-1.791 2.735 2.735 0 0 1 3.43 1.79" style="fill:#edc1b1"/><path d="M60.068 40.563a2.582 2.582 0 1 1-3.238-1.692 2.583 2.583 0 0 1 3.238 1.692" style="fill:#edbeb0"/><path d="M59.922 40.608a2.43 2.43 0 1 1-3.047-1.59 2.431 2.431 0 0 1 3.047 1.59" style="fill:#edbcaf"/><path d="M59.776 40.654a2.276 2.276 0 1 1-2.855-1.49 2.276 2.276 0 0 1 2.855 1.49" style="fill:#ecbaae"/><path d="M59.63 40.7a2.123 2.123 0 1 1-2.662-1.39 2.126 2.126 0 0 1 2.663 1.39" style="fill:#ecb7ad"/><path d="M59.483 40.746a1.97 1.97 0 1 1-2.47-1.289 1.968 1.968 0 0 1 2.47 1.29" style="fill:#ecb5ac"/><path d="M59.337 40.792a1.816 1.816 0 1 1-2.278-1.19 1.815 1.815 0 0 1 2.278 1.19" style="fill:#ecb2aa"/><path d="M59.191 40.839a1.663 1.663 0 1 1-2.084-1.091 1.662 1.662 0 0 1 2.084 1.09" style="fill:#ebb0a9"/><path d="M59.045 40.884a1.51 1.51 0 1 1-1.894-.989 1.508 1.508 0 0 1 1.894.99" style="fill:#ebaea8"/><path d="M58.9 40.93a1.357 1.357 0 1 1-1.703-.889 1.358 1.358 0 0 1 1.703.889" style="fill:#ebaba7"/><path d="M58.752 40.976a1.203 1.203 0 1 1-1.51-.788 1.199 1.199 0 0 1 1.51.788" style="fill:#eba9a6"/><path d="M58.606 41.022a1.05 1.05 0 1 1-1.317-.689 1.047 1.047 0 0 1 1.317.69" style="fill:#eaa6a5"/><path d="M59.696 35.045c.523 1.664.395 3.185-.29 3.4-.684.215-1.66-.959-2.183-2.624s-.392-3.186.292-3.402c.682-.212 1.656.961 2.18 2.626" class="cls-16"/><path d="M35.86 53.806c-1.931-.643-5.485-3.779-9.014-5.733a16.593 16.593 0 0 1-7.633-9.977c-1.857-5.94-2.058-11.688 2.581-16.13a19.064 19.064 0 0 1-3.669-.753c2.28-.349 5.283-.88 7.116-2.338-1.58.065-3.144-.906-4.444-1.64a10.841 10.841 0 0 0 8.009-1.14c2.487-1.48 1.692-1.764 4.972-3.333a21.869 21.869 0 0 1 4.375-1.029s7.152-3.04 17.687.723c7.729 2.762 8.614 9.465 8.746 12.337.126 2.736-1.201 3.971-1.812 6.151.68-6.01-4.05-5.848-7.498-9.564a58.015 58.015 0 0 0 3.984 6.777c-3.2-1.99-7.996-.276-11.696-5.835 0 0 2.401 5.198 2.299 6.992-.161 2.826-1.054 4.58-1.708 6.65-1.583 5.006 1.042 6.734 3.625 10.655-.135-.473-4.423-1.426-9.506-10.065 0 0 2.306 8.425 2.377 12.235.072 3.945-4.292 4.277-4.854 5.356-1.057 2.028-5.386.944-5.386.944Z" style="fill:#9a8479"/><path d="M35.86 53.806c-1.931-.643-5.485-3.779-9.014-5.733a16.593 16.593 0 0 1-7.633-9.977c-1.857-5.94-2.058-11.688 2.581-16.13a19.064 19.064 0 0 1-3.669-.753c2.28-.349 5.283-.88 7.116-2.338-1.58.065-3.144-.906-4.444-1.64a10.841 10.841 0 0 0 8.009-1.14c2.487-1.48 1.692-1.764 4.972-3.333a21.869 21.869 0 0 1 4.375-1.029s7.152-3.04 17.687.723c7.729 2.762 8.614 9.465 8.746 12.337.126 2.736-1.201 3.971-1.812 6.151.68-6.01-4.05-5.848-7.498-9.564a58.015 58.015 0 0 0 3.984 6.777c-3.2-1.99-7.996-.276-11.696-5.835 0 0 2.401 5.198 2.299 6.992-.161 2.826-1.054 4.58-1.708 6.65-1.583 5.006 1.042 6.734 3.625 10.655-.135-.473-4.423-1.426-9.506-10.065 0 0 2.306 8.425 2.377 12.235.072 3.945-4.292 4.277-4.854 5.356-1.057 2.028-5.386.944-5.386.944Z" class="cls-8"/><path d="M43.159 38.964a2.133 2.133 0 0 0-3.091.332c-1.187 1.272-.26 3.807 1.805 5.859 1.43 1.417 4.385 1.9 5.588 1.796" class="cls-28"/><path d="M43.159 38.964a2.133 2.133 0 0 0-3.091.332c-1.187 1.272-.26 3.807 1.805 5.859 1.43 1.417 4.385 1.9 5.588 1.796" class="cls-8"/><path d="m63.443 44.052-5.404-.162s-.855 4.691 1.16 5.92 4.244-5.758 4.244-5.758" class="cls-2"/><path d="m63.443 44.052-5.404-.162s-.855 4.691 1.16 5.92 4.244-5.758 4.244-5.758Z" class="cls-8"/><path d="M30.131 67.662s2.682-6.747 7.565-6.896c4.881-.149 11.715-1.915 15.578.858 3.862 2.768 5.204 3.105 5.506 12.937.15 4.882-4.052 12.787-4.669 21.693-.615 8.906 1.007 17.588.803 19.176a25.347 25.347 0 0 0 1.81 12.657c-2.964 1.427-9.869-6.223-11.1-4.668-5.598 7.076-26.039 4.07-29.112-1.287 0 0 8.227-29.341 9.63-39.684 1.446-10.709 3.99-14.786 3.99-14.786" style="fill:url(#Unnamed_Pattern_18-3)"/><path d="M30.131 67.662s2.682-6.747 7.565-6.896c4.881-.149 11.715-1.915 15.578.858 3.862 2.768 5.204 3.105 5.506 12.937.15 4.882-4.052 12.787-4.669 21.693-.615 8.906 1.007 17.588.803 19.176a25.347 25.347 0 0 0 1.81 12.657c-2.964 1.427-9.869-6.223-11.1-4.668-5.598 7.076-26.039 4.07-29.112-1.287 0 0 8.227-29.341 9.63-39.684 1.446-10.709 3.99-14.786 3.99-14.786Z" class="cls-8"/><path d="M34.175 62.488s-.947 2.41 5.27 1.526a113.284 113.284 0 0 0 13.567-2.99l8.288 2.188s-1.786 15.488-3.413 26.32c-1.11 7.367-2.562 30.32-2.562 30.32l-37.1-3.03 6.684-29.107 3.825-21.505Z" style="fill:#a6a8ab"/><path d="M34.175 62.488s-.947 2.41 5.27 1.526a113.284 113.284 0 0 0 13.567-2.99l8.288 2.188s-1.786 15.488-3.413 26.32c-1.11 7.367-2.562 30.32-2.562 30.32l-37.1-3.03 6.684-29.107 3.825-21.505Z" class="cls-8"/><path d="M51.784 70.998s-1.025-7.885 2.142-9.842c3.167-1.955 12.187-9.334 13.805-13.53 1.646-4.27 7.336-21.55 7.336-21.55l4.232.313 4.959 2.293s-3.285 22.484-8.89 28.931c-10.516 12.098-19.29 29.673-19.29 29.673s-4.952-8.099-4.294-16.288" style="fill:url(#Unnamed_Pattern_18-5)"/><path d="M51.784 70.998s-1.025-7.885 2.142-9.842c3.167-1.955 12.187-9.334 13.805-13.53 1.646-4.27 7.336-21.55 7.336-21.55l4.232.313 4.959 2.293s-3.285 22.484-8.89 28.931c-10.516 12.098-19.29 29.673-19.29 29.673s-4.952-8.099-4.294-16.288Z" class="cls-8"/><path d="m34.472 61.736.66-4.89a22.637 22.637 0 0 1 9.837-.12c4.922 1.182 7.064.07 7.064.07l.937 4.082Z" style="fill:url(#Unnamed_Pattern_18-7)"/><path d="m34.472 61.736.66-4.89a22.637 22.637 0 0 1 9.837-.12c4.922 1.182 7.064.07 7.064.07l.937 4.082Z" class="cls-8"/><path style="fill:url(#Unnamed_Pattern_18-9)" d="m83.357 35.596-10.338-3.904 2.643-8.244 10.263 3.613-2.568 8.535z"/><path class="cls-8" d="m83.357 35.596-10.338-3.904 2.643-8.244 10.263 3.613-2.568 8.535z"/><path style="fill:url(#Unnamed_Pattern_18-11)" d="m13.212 121.141-7.009-3.99 4.443-8.649 8.464 4.018-5.898 8.621z"/><path class="cls-8" d="m13.212 121.141-7.009-3.99 4.443-8.649 8.464 4.018-5.898 8.621zm31.529-77.237-.184-1.33-2.421-.981"/></svg>