<svg xmlns="http://www.w3.org/2000/svg" id="Layer_1" data-name="Layer 1" viewBox="0 0 99.512 156.691"><defs><style>.cls-1{fill:#ffeebc}.cls-2,.cls-20,.cls-21{fill:none;stroke:#231f20;stroke-linecap:round;stroke-linejoin:round}.cls-2{stroke-width:1.001px}.cls-3{fill:#fcdcd3}.cls-4{fill:#231f20}.cls-5{fill:#fff}.cls-6{fill:#e1b970}.cls-7{fill:#fbd9d2}.cls-8{fill:#fbd6d2}.cls-9{fill:#fbd3d0}.cls-10{fill:#fad0cf}.cls-11{fill:#facdcf}.cls-12{fill:#f9c9ce}.cls-13{fill:#f9c6cd}.cls-14{fill:#f8c3cc}.cls-15{fill:#f8c0cb}.cls-16{fill:#faaf40}.cls-17{fill:#80c9ef}.cls-18{fill:#929497}.cls-19{fill:#e2dddb}.cls-20,.cls-21{stroke-width:.429px}.cls-21{stroke-dasharray:1.418 1.418}</style></defs><path d="M86.9949,80.9173s5.701,2.179,5.093,9.791c-.934,11.668-6.25,57.978-5.457,62.3371.608,3.3479-13.783-4.353-13.783-4.353s3.103-46.7211,5.235-53.418c2.13-6.698,8.912-14.3571,8.912-14.3571" class="cls-1"/><path d="M86.9949,80.9173s5.701,2.179,5.093,9.791c-.934,11.668-6.25,57.978-5.457,62.3371.608,3.3479-13.783-4.353-13.783-4.353s3.103-46.7211,5.235-53.418C80.2129,88.5764,86.9949,80.9173,86.9949,80.9173Z" class="cls-2"/><path d="M8.5146,99.9935s22.5289-4.5659,36.5339-2.1309c.9491.165-4.262-18.572-4.262-18.572s-3.654,2.4359-16.745,6.09-18.876,5.784-18.876,5.784-2.132,7.307,3.3491,8.8289" class="cls-1"/><path d="M8.5146,99.9935s22.5289-4.5659,36.5339-2.1309c.9491.165-4.262-18.572-4.262-18.572s-3.654,2.4359-16.745,6.09-18.876,5.784-18.876,5.784S3.0335,98.4716,8.5146,99.9935Z" class="cls-2"/><path d="M39.5688,78.9863l12.6389-3.8369s12.69-2.526,20.9411-.2491c5.7449,1.586,6.8029,2.56,9.653,3.781a40.355,40.355,0,0,1,4.5659,2.436,194.3953,194.3953,0,0,0-5.15,21.516c-1.6789,10.18.5841,31.9.5841,34.8091,0,2.9069-41.4061-.3051-41.4061-.3051s2.436-24.7639,2.436-33.491c0-9.349-.681-11.193-4.2629-24.66" class="cls-1"/><path d="M39.5688,78.9863l12.6389-3.8369s12.69-2.526,20.9411-.2491c5.7449,1.586,6.8029,2.56,9.653,3.781a40.355,40.355,0,0,1,4.5659,2.436,194.3953,194.3953,0,0,0-5.15,21.516c-1.6789,10.18.5841,31.9.5841,34.8091,0,2.9069-41.4061-.3051-41.4061-.3051s2.436-24.7639,2.436-33.491C43.8317,94.2973,43.1507,92.4533,39.5688,78.9863Z" class="cls-2"/><path d="M56.6867,66.646s2.4269,5.514.286,6.941a16.2834,16.2834,0,0,1-4.9191,2.018s1.2881,6.961,12.177,6.426c7.105-.35,13.0461-5.7949,13.0461-5.7949s-6.4881-2.6281-7.2011-4.949c-.7149-2.32-.537-7.854-.537-7.854Z" class="cls-3"/><path d="M56.6867,66.646s2.4269,5.514.286,6.941a16.2834,16.2834,0,0,1-4.9191,2.018s1.2881,6.961,12.177,6.426c7.105-.35,13.0461-5.7949,13.0461-5.7949s-6.4881-2.6281-7.2011-4.949c-.7149-2.32-.537-7.854-.537-7.854Z" class="cls-2"/><path d="M38.0366,30.723s2.228,6.07,2.678,17.315c.403,10.082,7.645,16.712,14.28,19.458,5.177,2.142,10.354,3.213,16.601-.357,8.016-4.58,13.039-11.766,13.21-19.814.177-8.292,5.317-9.616,2.143-22.315-2.018-8.071-9.658-17.85-24.277-17.85-16.269,0-25.984,13.441-24.635,23.563" class="cls-3"/><path d="M38.0366,30.723s2.228,6.07,2.678,17.315c.403,10.082,7.645,16.712,14.28,19.458,5.177,2.142,10.354,3.213,16.601-.357,8.016-4.58,13.039-11.766,13.21-19.814.177-8.292,5.317-9.616,2.143-22.315-2.018-8.071-9.658-17.85-24.277-17.85C46.4026,7.16,36.6876,20.601,38.0366,30.723Z" class="cls-2"/><path d="M62.08,43.1548c.32,1.368.447,2.756-.351,2.756-1.574,0-2.025-.177-1.8,1.125a6.8732,6.8732,0,0,0,2.025,3.1491" class="cls-2"/><path d="M52.1533,43.5415c0,2.422-.805,4.386-1.8,4.386s-1.799-1.964-1.799-4.386.805-4.386,1.799-4.386,1.8,1.964,1.8,4.386" class="cls-4"/><path d="M76.5382,43.2553c0,2.422-.8061,4.386-1.7991,4.386-.995,0-1.799-1.964-1.799-4.386s.804-4.386,1.799-4.386c.993,0,1.7991,1.964,1.7991,4.386" class="cls-4"/><path d="M57.0767,54.2373l14.146-.315s-3.424,9.607-7.787,9.524c-4.787-.092-6.359-9.209-6.359-9.209" class="cls-5"/><path d="M57.0767,54.2373l14.146-.315s-3.424,9.607-7.787,9.524C58.6487,63.3543,57.0767,54.2373,57.0767,54.2373Z" class="cls-2"/><path d="M50.1748,18.5843a29.3494,29.3494,0,0,0,6.427,9.4611c5.711,5.8909,12.852,8.0329,24.277,11.2449L69.87,15.4754s16.267,18.6639,14.757,33.4559c-.892,8.7471-1.963,11.067-5.89,14.994A19.6671,19.6671,0,0,1,72.48,68.07a31.7327,31.7327,0,0,0,13.026-2.48c7.409-3.1789,19.356-14.182,10.182-37.8469C88.8758,10.17,79.0408.7544,62.3928.5024c-13.931-.211-31.209,17.599-33.996,40.7529-2.13,17.697,10.354,23.741,16.958,26.4191a19.0516,19.0516,0,0,0,7.95,1.3379s-4.046-1.628-5.629-4.552c-3.854-7.117-8.032-19.6349-6.07-27.847,2.061-8.6219,8.569-18.029,8.569-18.029" class="cls-6"/><path d="M50.1748,18.5843a29.3494,29.3494,0,0,0,6.427,9.4611c5.711,5.8909,12.852,8.0329,24.277,11.2449L69.87,15.4754s16.267,18.6639,14.757,33.4559c-.892,8.7471-1.963,11.067-5.89,14.994A19.6671,19.6671,0,0,1,72.48,68.07a31.7327,31.7327,0,0,0,13.026-2.48c7.409-3.1789,19.356-14.182,10.182-37.8469C88.8758,10.17,79.0408.7544,62.3928.5024c-13.931-.211-31.209,17.599-33.996,40.7529-2.13,17.697,10.354,23.741,16.958,26.4191a19.0516,19.0516,0,0,0,7.95,1.3379s-4.046-1.628-5.629-4.552c-3.854-7.117-8.032-19.6349-6.07-27.847C43.6668,27.9914,50.1748,18.5843,50.1748,18.5843Z" class="cls-2"/><path d="M40.4564,53.6392c2.212,3.56-5.397-.865-7.277-4.443s-1.635-7.321.466-8.5139a3.1667,3.1667,0,0,1,4.072.694s.527,8.7029,2.739,12.2629" class="cls-3"/><path d="M40.4564,53.6392c2.212,3.56-5.397-.865-7.277-4.443s-1.635-7.321.466-8.5139a3.1667,3.1667,0,0,1,4.072.694S38.2444,50.0792,40.4564,53.6392Z" class="cls-2"/><path d="M40.9535,24.9689s-3.916,7.883-3.447,20.148c.613,16.004,13.546,20.041,13.546,20.041s-7.065-5.066-8.081-18.245c-1.155-14.982,7.204-28.328,7.204-28.328" class="cls-6"/><path d="M40.9535,24.9689s-3.916,7.883-3.447,20.148c.613,16.004,13.546,20.041,13.546,20.041s-7.065-5.066-8.081-18.245c-1.155-14.982,7.204-28.328,7.204-28.328" class="cls-2"/><path d="M86.391,53.6392c-2.213,3.56,5.396-.865,7.277-4.443s1.635-7.321-.467-8.5139a3.1657,3.1657,0,0,0-4.071.694s-.528,8.7029-2.739,12.2629" class="cls-3"/><path d="M86.391,53.6392c-2.213,3.56,5.396-.865,7.277-4.443s1.635-7.321-.467-8.5139a3.1657,3.1657,0,0,0-4.071.694S88.602,50.0792,86.391,53.6392Z" class="cls-2"/><path d="M85.8934,24.9689s3.917,7.883,3.446,20.148c-.611,16.004-13.545,20.041-13.545,20.041s6.716-5.097,8.081-18.245c1.045-10.072-5.745-19.635-5.745-19.635" class="cls-6"/><path d="M85.8934,24.9689s3.917,7.883,3.446,20.148c-.611,16.004-13.545,20.041-13.545,20.041s6.716-5.097,8.081-18.245c1.045-10.072-5.745-19.635-5.745-19.635" class="cls-2"/><path d="M53.6894,52.5816a3.7636,3.7636,0,1,1-3.763-3.763,3.7634,3.7634,0,0,1,3.763,3.763" class="cls-3"/><path d="M49.9255,56.1355a3.554,3.554,0,1,1,3.553-3.5529,3.5543,3.5543,0,0,1-3.553,3.5529" class="cls-7"/><path d="M49.9255,55.9266a3.345,3.345,0,1,1,3.346-3.345,3.3449,3.3449,0,0,1-3.346,3.345" class="cls-8"/><path d="M49.9255,55.7178a3.1365,3.1365,0,1,1,3.136-3.136,3.136,3.136,0,0,1-3.136,3.136" class="cls-9"/><path d="M49.9255,55.5088a2.9275,2.9275,0,1,1,2.927-2.9269,2.9276,2.9276,0,0,1-2.927,2.9269" class="cls-10"/><path d="M49.9255,55.2994a2.718,2.718,0,1,1,2.718-2.718,2.7181,2.7181,0,0,1-2.718,2.718" class="cls-11"/><path d="M49.9255,55.09a2.5085,2.5085,0,1,1,2.508-2.508,2.5082,2.5082,0,0,1-2.508,2.508" class="cls-12"/><path d="M49.9255,54.8817a2.3005,2.3005,0,1,1,2.299-2.3,2.3,2.3,0,0,1-2.299,2.3" class="cls-13"/><path d="M49.9255,54.6723a2.091,2.091,0,1,1,2.09-2.09,2.0906,2.0906,0,0,1-2.09,2.09" class="cls-14"/><path d="M51.8074,52.5816a1.8815,1.8815,0,1,1-1.882-1.882,1.8819,1.8819,0,0,1,1.882,1.882" class="cls-15"/><path d="M80.7877,52.5816a3.7636,3.7636,0,1,1-3.7621-3.763,3.7632,3.7632,0,0,1,3.7621,3.763" class="cls-3"/><path d="M77.0249,56.1355a3.554,3.554,0,1,1,3.5519-3.5529,3.5535,3.5535,0,0,1-3.5519,3.5529" class="cls-7"/><path d="M77.0238,55.9266a3.345,3.345,0,1,1,3.346-3.345,3.3449,3.3449,0,0,1-3.346,3.345" class="cls-8"/><path d="M77.0249,55.7178a3.1365,3.1365,0,1,1,3.1349-3.136,3.1368,3.1368,0,0,1-3.1349,3.136" class="cls-9"/><path d="M77.0249,55.5088a2.9275,2.9275,0,1,1,2.9259-2.9269,2.927,2.927,0,0,1-2.9259,2.9269" class="cls-10"/><path d="M77.0249,55.2994a2.718,2.718,0,1,1,2.7169-2.718,2.7182,2.7182,0,0,1-2.7169,2.718" class="cls-11"/><path d="M77.0249,55.09a2.5085,2.5085,0,1,1,2.5079-2.508,2.5084,2.5084,0,0,1-2.5079,2.508" class="cls-12"/><path d="M77.0238,54.8817a2.3005,2.3005,0,1,1,2.3-2.3,2.2995,2.2995,0,0,1-2.3,2.3" class="cls-13"/><path d="M77.0249,54.6723a2.091,2.091,0,1,1,2.09-2.09,2.0906,2.0906,0,0,1-2.09,2.09" class="cls-14"/><path d="M78.9067,52.5816a1.8815,1.8815,0,1,1-1.882-1.882,1.8832,1.8832,0,0,1,1.882,1.882" class="cls-15"/><polygon points="42.496 132.575 48.892 95.309 76.87 95.622 82.483 131.791 42.496 132.575" class="cls-16"/><polygon points="42.496 132.575 48.892 95.309 76.87 95.622 82.483 131.791 42.496 132.575" class="cls-2"/><path d="M51.5158,104.6243l21.256-.4059s1.79,13.104-1.51,15.2209-17.795,1.444-19.186-1.017-.56-13.798-.56-13.798" class="cls-16"/><path d="M51.5158,104.6243l21.256-.4059s1.79,13.104-1.51,15.2209-17.795,1.444-19.186-1.017S51.5158,104.6243,51.5158,104.6243Z" class="cls-2"/><line x1="64.532" x2="64.194" y1="105.121" y2="120.427" class="cls-17"/><line x1="64.532" x2="64.194" y1="105.121" y2="120.427" class="cls-2"/><line x1="68.9" x2="68.563" y1="104.524" y2="119.832" class="cls-17"/><line x1="68.9" x2="68.563" y1="104.524" y2="119.832" class="cls-2"/><polygon points="41.776 130.455 83.496 130.715 86.984 156.191 37.628 156.191 41.776 130.455" class="cls-16"/><polygon points="41.776 130.455 83.496 130.715 86.984 156.191 37.628 156.191 41.776 130.455" class="cls-2"/><polygon points="44.644 77.174 49.74 93 53.765 91.658 49.204 74.491 44.644 77.174" class="cls-16"/><polygon points="44.644 77.174 49.74 93 53.765 91.658 49.204 74.491 44.644 77.174" class="cls-2"/><polygon points="79.033 76.071 84.572 79.013 78.168 92.599 72.716 91.82 79.033 76.071" class="cls-16"/><polygon points="79.033 76.071 84.572 79.013 78.168 92.599 72.716 91.82 79.033 76.071" class="cls-2"/><path d="M55.1269,94.0714a1.5567,1.5567,0,0,0-1.558-1.558h-3.461a1.5566,1.5566,0,0,0-.031,3.113,2.0341,2.0341,0,1,0,3.524,0A1.5566,1.5566,0,0,0,55.1269,94.0714Z" class="cls-2"/><path d="M53.9405,98.9436a2.012,2.012,0,1,1-2.012-2.012,2.0123,2.0123,0,0,1,2.012,2.012" class="cls-18"/><path d="M53.9405,98.9436a2.012,2.012,0,1,1-2.012-2.012A2.0123,2.0123,0,0,1,53.9405,98.9436Z" class="cls-2"/><rect width="6.23" height="1.645" x="48.573" y="91.604" class="cls-18"/><rect width="6.23" height="1.645" x="48.572" y="91.604" class="cls-2"/><path d="M71.5339,94.0719a1.5577,1.5577,0,0,1,1.668-1.439l3.4519.2561a1.5557,1.5557,0,0,1-.1979,3.105,2.003,2.003,0,0,1,.1959,1.016,2.033,2.033,0,1,1-4.055-.3,2.0028,2.0028,0,0,1,.345-.9749A1.5552,1.5552,0,0,1,71.5339,94.0719Z" class="cls-2"/><path d="M72.3576,99.019a2.0124,2.0124,0,1,0,2.155-1.858,2.0112,2.0112,0,0,0-2.155,1.858" class="cls-18"/><path d="M72.3576,99.019a2.0124,2.0124,0,1,0,2.155-1.858A2.0112,2.0112,0,0,0,72.3576,99.019Z" class="cls-2"/><rect width="1.644" height="6.231" x="74.263" y="89.57" class="cls-18" transform="translate(-22.8906 160.7223) rotate(-85.7661)"/><rect width="1.644" height="6.231" x="74.263" y="89.57" class="cls-2" transform="translate(-22.8906 160.7223) rotate(-85.7661)"/><path d="M34.1251,73.509s-.218-4.14-.6071-6.145c-.599-3.092.235-3.847,1.436-3.179,2.124,1.182,2.687,2.371,2.993,5.592.306,3.219.1281,2.986.1281,2.986Z" class="cls-3"/><path d="M34.1251,73.509s-.218-4.14-.6071-6.145c-.599-3.092.235-3.847,1.436-3.179,2.124,1.182,2.687,2.371,2.993,5.592.306,3.219.1281,2.986.1281,2.986Z" class="cls-2"/><path d="M26.1387,83.1411s10.057-11.894,11.05-13.01c.991-1.117,2.89-1.855,6.526-.638,3.355,1.122,1.799,3.594,1.799,3.594a2.6406,2.6406,0,0,1,1.178,2.045,2.2745,2.2745,0,0,1-1.37,1.732,1.9007,1.9007,0,0,1,1.766,2.337,3.1522,3.1522,0,0,1-1.283,1.701s1.383,1.782.744,3.073c-.886,1.787-3.16.772-3.16.772s-3.733,3.996-7.183,5.355a66.3956,66.3956,0,0,1-8.364,2.43l-10.503,2.142-1.686-9.196s8.711.509,10.486-2.337" class="cls-3"/><path d="M26.1387,83.1411s10.057-11.894,11.05-13.01c.991-1.117,2.89-1.855,6.526-.638,3.355,1.122,1.799,3.594,1.799,3.594a2.6406,2.6406,0,0,1,1.178,2.045,2.2745,2.2745,0,0,1-1.37,1.732,1.9007,1.9007,0,0,1,1.766,2.337,3.1522,3.1522,0,0,1-1.283,1.701s1.383,1.782.744,3.073c-.886,1.787-3.16.772-3.16.772s-3.733,3.996-7.183,5.355a66.3956,66.3956,0,0,1-8.364,2.43l-10.503,2.142-1.686-9.196S24.3637,85.9871,26.1387,83.1411Z" class="cls-2"/><line x1="45.513" x2="41.235" y1="73.087" y2="71.989" class="cls-3"/><line x1="45.513" x2="41.235" y1="73.087" y2="71.989" class="cls-2"/><line x1="45.673" x2="41.395" y1="77.039" y2="75.941" class="cls-3"/><line x1="45.673" x2="41.395" y1="77.039" y2="75.941" class="cls-2"/><line x1="45.805" x2="41.526" y1="80.903" y2="79.807" class="cls-3"/><line x1="45.805" x2="41.526" y1="80.903" y2="79.807" class="cls-2"/><path d="M38.8914,71.4143s.334,3.599.6939,5.823a23.2191,23.2191,0,0,1,.19,4.332" class="cls-3"/><path d="M38.8914,71.4143s.334,3.599.6939,5.823a23.2191,23.2191,0,0,1,.19,4.332" class="cls-2"/><path d="M22.5193,83.5529l1.914,14.011s-9.113,3.083-13.54,3.317c-13.666.715-12.769-12.36-3.597-13.9789,5.176-.9131,15.223-3.3491,15.223-3.3491" class="cls-1"/><path d="M22.5193,83.5529l1.914,14.011s-9.113,3.083-13.54,3.317c-13.666.715-12.769-12.36-3.597-13.9789C12.4723,85.9889,22.5193,83.5529,22.5193,83.5529Z" class="cls-2"/><line x1="40.699" x2="83.252" y1="134.225" y2="134.225" class="cls-19"/><line x1="40.699" x2="41.413" y1="134.225" y2="134.225" class="cls-20"/><line x1="42.832" x2="81.827" y1="134.225" y2="134.225" class="cls-21"/><line x1="82.537" x2="83.252" y1="134.225" y2="134.225" class="cls-20"/><polyline points="34.506 44.445 36.382 47.581 36.231 49.869" class="cls-2"/><polyline points="91.954 45.678 90.466 47.582 90.229 49.13" class="cls-2"/></svg>