<svg xmlns="http://www.w3.org/2000/svg" id="Layer_1" data-name="Layer 1" viewBox="0 0 91.693 157.782"><defs><pattern id="Unnamed_Pattern_12" width="14.172" height="14.174" data-name="Unnamed Pattern 12" patternTransform="matrix(.0176 -.5041 -.5042 -.0176 8246.499 429.012)" patternUnits="userSpaceOnUse"><path class="cls-1" d="M0 0h14.172v14.174H0z"/><path class="cls-2" d="M0 0h14.172v14.174H0z"/><path class="cls-3" d="M0 7.088h14.172v7.086H0z"/><path class="cls-3" d="M0 0h7.086v14.174H0z"/><path class="cls-4" d="M0 7.088h7.086v7.086H0z"/><path class="cls-5" d="M0 7.088h7.086v7.086H0z"/></pattern><pattern id="Unnamed_Pattern_12-3" width="14.172" height="14.174" data-name="Unnamed Pattern 12" patternTransform="matrix(.5045 0 0 -.5045 .82 8417.999)" patternUnits="userSpaceOnUse"><path class="cls-1" d="M0 0h14.172v14.174H0z"/><path class="cls-2" d="M0 0h14.172v14.174H0z"/><path class="cls-3" d="M0 7.088h14.172v7.086H0z"/><path class="cls-3" d="M0 0h7.086v14.174H0z"/><path class="cls-4" d="M0 7.088h7.086v7.086H0z"/><path class="cls-5" d="M0 7.088h7.086v7.086H0z"/></pattern><pattern id="Unnamed_Pattern_12-9" width="14.172" height="14.174" data-name="Unnamed Pattern 12" patternTransform="matrix(.5045 0 0 -.5045 .18 8419.549)" patternUnits="userSpaceOnUse"><path class="cls-1" d="M0 0h14.172v14.174H0z"/><path class="cls-2" d="M0 0h14.172v14.174H0z"/><path class="cls-3" d="M0 7.088h14.172v7.086H0z"/><path class="cls-3" d="M0 0h7.086v14.174H0z"/><path class="cls-4" d="M0 7.088h7.086v7.086H0z"/><path class="cls-5" d="M0 7.088h7.086v7.086H0z"/></pattern><pattern id="Unnamed_Pattern_12-11" width="14.172" height="14.174" data-name="Unnamed Pattern 12" patternTransform="matrix(-.1189 -.4705 -.4048 .1131 6623.127 -1701.313)" patternUnits="userSpaceOnUse"><path class="cls-1" d="M0 0h14.172v14.174H0z"/><path class="cls-2" d="M0 0h14.172v14.174H0z"/><path class="cls-3" d="M0 7.088h14.172v7.086H0z"/><path class="cls-3" d="M0 0h7.086v14.174H0z"/><path class="cls-4" d="M0 7.088h7.086v7.086H0z"/><path class="cls-5" d="M0 7.088h7.086v7.086H0z"/></pattern><pattern id="Unnamed_Pattern_12-13" width="14.172" height="14.174" data-name="Unnamed Pattern 12" patternTransform="matrix(-.0619 -.5007 -.5007 .0619 8187.323 -871.66)" patternUnits="userSpaceOnUse"><path class="cls-1" d="M0 0h14.172v14.174H0z"/><path class="cls-2" d="M0 0h14.172v14.174H0z"/><path class="cls-3" d="M0 7.088h14.172v7.086H0z"/><path class="cls-3" d="M0 0h7.086v14.174H0z"/><path class="cls-4" d="M0 7.088h7.086v7.086H0z"/><path class="cls-5" d="M0 7.088h7.086v7.086H0z"/></pattern><pattern id="Unnamed_Pattern_12-15" width="14.172" height="14.174" data-name="Unnamed Pattern 12" patternTransform="matrix(-.0439 -.5025 -.5025 .0439 8216.361 -576.916)" patternUnits="userSpaceOnUse"><path class="cls-1" d="M0 0h14.172v14.174H0z"/><path class="cls-2" d="M0 0h14.172v14.174H0z"/><path class="cls-3" d="M0 7.088h14.172v7.086H0z"/><path class="cls-3" d="M0 0h7.086v14.174H0z"/><path class="cls-4" d="M0 7.088h7.086v7.086H0z"/><path class="cls-5" d="M0 7.088h7.086v7.086H0z"/></pattern><style>.cls-1,.cls-7{fill:none}.cls-2{fill:#fff}.cls-3{fill:#fad3da}.cls-4{fill:#00adee}.cls-5{fill:#f5a2bd}.cls-7{stroke:#231f20;stroke-linecap:round;stroke-linejoin:round;stroke-width:1.001px}.cls-9{fill:#eeccb7}.cls-11{fill:url(#Unnamed_Pattern_12-3)}.cls-14{fill:#eecab6}.cls-15{fill:#eec8b5}.cls-16{fill:#edc6b4}.cls-17{fill:#edc3b2}.cls-18{fill:#edc1b1}.cls-19{fill:#edbeb0}.cls-20{fill:#edbcaf}.cls-21{fill:#ecbaae}.cls-22{fill:#ecb7ad}.cls-23{fill:#ecb5ac}.cls-24{fill:#ecb2aa}.cls-25{fill:#ebb0a9}.cls-26{fill:#ebaea8}.cls-27{fill:#ebaba7}.cls-28{fill:#eba9a6}.cls-29{fill:#eaa6a5}</style></defs><path d="M23.617 81.172s-2.605 2.307-6.977 9.064C10.733 99.366.345 106.334.502 115.324c.056 3.062 2.013 6.833 13.83 4.682 5.432-.988 15.431-3.434 15.431-3.434L28.521 104.9l-10.304 2.391s10.004-5.216 10.15-6.124c.307-1.932-1.44-5.888-1.79-19.277Z" style="fill:url(#Unnamed_Pattern_12)"/><path d="M23.617 81.172s-2.605 2.307-6.977 9.064C10.733 99.366.345 106.334.502 115.324c.056 3.062 2.013 6.833 13.83 4.682 5.432-.988 15.431-3.434 15.431-3.434L28.521 104.9l-10.304 2.391s10.004-5.216 10.15-6.124c.307-1.932-1.44-5.888-1.79-19.277Z" class="cls-7"/><path style="fill:#4d6397" d="M73.344 157.281H26.192l3.263-19.585h41.713l2.176 19.585z"/><path class="cls-7" d="M73.344 157.281H26.192l3.263-19.585h41.713l2.176 19.585z"/><path d="M41.822 66.44s2.884 7.102.742 8.53a21.96 21.96 0 0 1-5.997 2.276s3.174 13.505 14.062 12.97c7.105-.35 12.715-14.042 12.715-14.042s-6.427-1.07-7.14-3.39 1.382-7.642 1.382-7.642Z" class="cls-9"/><path d="M41.822 66.44s2.884 7.102.742 8.53a21.96 21.96 0 0 1-5.997 2.276s3.174 13.505 14.062 12.97c7.105-.35 12.715-14.042 12.715-14.042s-6.427-1.07-7.14-3.39 1.382-7.642 1.382-7.642Z" class="cls-7"/><path d="M24.616 33.379s2.694 5.89 3.58 17.109c.918 11.637 6.317 14.299 13.238 17.912a16.57 16.57 0 0 0 15.406-.05c7.743-4.112 11.64-9.083 12.673-17.067 1.03-7.958 6.168-12.341 2.994-25.04-2.017-8.071-9.657-17.85-24.277-17.85-16.268 0-24.963 14.864-23.614 24.986" class="cls-9"/><path d="M24.616 33.379s2.694 5.89 3.58 17.109c.918 11.637 6.317 14.299 13.238 17.912a16.57 16.57 0 0 0 15.406-.05c7.743-4.112 11.64-9.083 12.673-17.067 1.03-7.958 6.168-12.341 2.994-25.04-2.017-8.071-9.657-17.85-24.277-17.85-16.268 0-24.963 14.864-23.614 24.986Z" class="cls-7"/><path d="M47.581 44.336c.32 1.367 1.062 2.744.271 2.85-.877.115-2.213.45-1.987 1.754a3.873 3.873 0 0 0 1.59 2.427" class="cls-7"/><path d="M27.154 49.822c-.326-1.76-.27-3.405-.428-4.896a3.048 3.048 0 0 0-3.538-.198c-2.101 1.193-2.347 4.937-.465 8.514 1.299 2.474 5.707 5.254 7.346 5.62a30.011 30.011 0 0 1-2.915-9.04" class="cls-9"/><path d="M27.154 49.822c-.326-1.76-.27-3.405-.428-4.896a3.048 3.048 0 0 0-3.538-.198c-2.101 1.193-2.347 4.937-.465 8.514 1.299 2.474 5.707 5.254 7.346 5.62a30.011 30.011 0 0 1-2.915-9.04Z" class="cls-7"/><path d="M70.212 49.493c.352-1.754.54-3.346.696-4.838a3.047 3.047 0 0 1 3.537-.197c2.102 1.192 2.347 4.935.468 8.513-1.3 2.474-5.964 5.427-7.602 5.792a66.568 66.568 0 0 0 2.901-9.27" class="cls-9"/><path d="M70.212 49.493c.352-1.754.54-3.346.696-4.838a3.047 3.047 0 0 1 3.537-.197c2.102 1.192 2.347 4.935.468 8.513-1.3 2.474-5.964 5.427-7.602 5.792a66.568 66.568 0 0 0 2.901-9.27Z" class="cls-7"/><path d="M56.068 20.483c2.686 5.616-5.586 14.004-8.997 17.972 3.212-3.49 2.756-9.231 3.52-13.46-3.021 6.357-7.821 8.553-4.415 16.234-1.714-2.634-5.528-4.158-6.5-7.835-1.08-4.081-1.652-8.388 1.557-11.867-7.122 4.995-10.29 14.109-10.228 22.48-1.267-4.894-3.163-10.676-1.1-15.725-2.094 2.586-2.158 9.53-2.373 13.208-.21 3.58 1.78 14.07 1.025 12.415-2.182-1.757-3.914-8.52-6.15-10.291a14.848 14.848 0 0 1-5.036-7.093 13.649 13.649 0 0 1 5.126-13.904c-1.914-7.1 2.133-7.719 3.367-9.085A27.78 27.78 0 0 1 36.52 5.757c3.763-1.417 7.764-.382 11.78-.537 4.14-.16 7.14-1.869 10.194-4.72-.96 1.837-2.051 4.153-3.94 5.27 3.239.311 7.139-1.334 10.06-2.65a26.403 26.403 0 0 1-3.707 3.646c8.762 1.671 12.872 8.524 15.194 16.85 1.224 4.387 5.433 8.642 1.954 15.161-2.641 4.944-3.587 4.158-5.353 6.364a84.63 84.63 0 0 0-4.06 10.1c.239-9.019 2.964-13.21-2.276-16.984a21.407 21.407 0 0 1-6.706-9.01c-.883-2.335-3.593-8.765-3.593-8.765" style="fill:#9a8479"/><path d="M56.068 20.483c2.686 5.616-5.586 14.004-8.997 17.972 3.212-3.49 2.756-9.231 3.52-13.46-3.021 6.357-7.821 8.553-4.415 16.234-1.714-2.634-5.528-4.158-6.5-7.835-1.08-4.081-1.652-8.388 1.557-11.867-7.122 4.995-10.29 14.109-10.228 22.48-1.267-4.894-3.163-10.676-1.1-15.725-2.094 2.586-2.158 9.53-2.373 13.208-.21 3.58 1.78 14.07 1.025 12.415-2.182-1.757-3.914-8.52-6.15-10.291a14.848 14.848 0 0 1-5.036-7.093 13.649 13.649 0 0 1 5.126-13.904c-1.914-7.1 2.133-7.719 3.367-9.085A27.78 27.78 0 0 1 36.52 5.757c3.763-1.417 7.764-.382 11.78-.537 4.14-.16 7.14-1.869 10.194-4.72-.96 1.837-2.051 4.153-3.94 5.27 3.239.311 7.139-1.334 10.06-2.65a26.403 26.403 0 0 1-3.707 3.646c8.762 1.671 12.872 8.524 15.194 16.85 1.224 4.387 5.433 8.642 1.954 15.161-2.641 4.944-3.587 4.158-5.353 6.364a84.63 84.63 0 0 0-4.06 10.1c.239-9.019 2.964-13.21-2.276-16.984a21.407 21.407 0 0 1-6.706-9.01c-.883-2.334-3.593-8.764-3.593-8.764Z" class="cls-7"/><path d="M33.717 35.228s.033-3.547 2.889-2" class="cls-9"/><path d="M33.717 35.228s.033-3.547 2.889-2m25.67.279s-1.445-3.24-3.446-.684" class="cls-7"/><path d="M38.625 71.542c1.11 1.057 4.702 2.611 7.526 4l1.735 4.567 1.435 2.301 3.71-7.934s5.412-1.372 6.935-3.2c1.601 4.268 5.543 4.403 9.872 6.134 5.336 2.135 3.108.416 2.308 2.816-3.043 9.133-3.17 29.506-3.245 38.058-.075 8.663 4.006 19.791 4.926 30.204-1.867 2.401-15.609 3.694-26.535 3.487-13.756-.258-17.394-3.181-21.547-3.181 1.532-3.369 3.292-10.477 4.157-17.841 1.394-11.866-.855-15.099 0-26.215.52-6.748-5.119-24.043-1.816-24.397 4.056-.436 6.962-3.857 9.205-6.132Z" class="cls-11"/><path d="M38.625 71.542c1.11 1.057 4.702 2.611 7.526 4l1.735 4.567 1.435 2.301 3.71-7.934s5.412-1.372 6.935-3.2c1.601 4.268 5.543 4.403 9.872 6.134 5.336 2.135 3.108.416 2.308 2.816-3.043 9.133-3.17 29.506-3.245 38.058-.075 8.663 4.006 19.791 4.926 30.204-1.867 2.401-15.609 3.694-26.535 3.487-13.756-.258-17.394-3.181-21.547-3.181 1.532-3.369 3.292-10.477 4.157-17.841 1.394-11.866-.855-15.099 0-26.215.52-6.748-5.119-24.043-1.816-24.397 4.056-.436 6.962-3.857 9.205-6.132Z" class="cls-7"/><path d="M52.075 74.638c-4.3 9.14-3.52 9.443-3.846 13.177-.534 6.135-1.892 29.192-2 37.766-.13 10.164-.004 26.017-.004 26.017l3.374.26s-.243-14.613-.243-23.15 1.414-37.565 2.215-41.566 4.394-13.2 4.394-13.2Z" class="cls-11"/><path d="M52.075 74.638c-4.3 9.14-3.52 9.443-3.846 13.177-.534 6.135-1.892 29.192-2 37.766-.13 10.164-.004 26.017-.004 26.017l3.374.26s-.243-14.613-.243-23.15 1.414-37.565 2.215-41.566 4.394-13.2 4.394-13.2Z" class="cls-7"/><path d="M32.832 75.776s7.145 6.635 16.489 6.635 17.045-7.682 17.045-7.682l8.804 3.982c-1.398 6.457-3.68 14.507-4.274 24.046-.282 4.486-.796 6.779-.796 10.334 0 11.939 2.5 20.698 3.42 26.822.222 1.477 1.73 3.936.307 4.593-4.474 2.073-14.062 3.166-25.786 2.172-7.05-.597-23.54 1.569-21.99-3.09.307-.92.15-2.56.613-4.594a108.899 108.899 0 0 0 2.719-25.691c0-3.53-1.493-7.271-1.8-10.14-1.218-11.383-3.932-17.094-4.287-22.661Z" style="fill:#a6a8ab"/><path d="M32.832 75.776s7.145 6.635 16.489 6.635 17.045-7.682 17.045-7.682l8.804 3.982c-1.398 6.457-3.68 14.507-4.274 24.046-.282 4.486-.796 6.779-.796 10.334 0 11.939 2.5 20.698 3.42 26.822.222 1.477 1.73 3.936.307 4.593-4.474 2.073-14.062 3.166-25.786 2.172-7.05-.597-23.54 1.569-21.99-3.09.307-.92.15-2.56.613-4.594a108.899 108.899 0 0 0 2.719-25.691c0-3.53-1.493-7.271-1.8-10.14-1.218-11.383-3.932-17.094-4.287-22.661Z" class="cls-7"/><path class="cls-11" d="m37.664 70.586 7.694 3.711-7.15 7.601-2.946-6.778 2.402-4.534z"/><path class="cls-7" d="m37.664 70.586 7.694 3.711-7.15 7.601-2.946-6.778 2.402-4.534z"/><path style="fill:url(#Unnamed_Pattern_12-9)" d="m52.656 74.423 7.095 6.178 3.043-5.644-2.934-4.802-7.204 4.268z"/><path class="cls-7" d="m52.656 74.423 7.095 6.178 3.043-5.644-2.934-4.802-7.204 4.268z"/><path d="M40.276 51.339a4.864 4.864 0 1 1-4.863-4.864 4.864 4.864 0 0 1 4.864 4.864" class="cls-9"/><path d="M40.064 51.339a4.652 4.652 0 1 1-4.65-4.651 4.65 4.65 0 0 1 4.65 4.65" class="cls-14"/><path d="M39.85 51.339a4.439 4.439 0 1 1-4.436-4.438 4.438 4.438 0 0 1 4.437 4.438" class="cls-15"/><path d="M39.638 51.339a4.226 4.226 0 1 1-4.225-4.225 4.225 4.225 0 0 1 4.225 4.225" class="cls-16"/><path d="M39.425 51.339a4.013 4.013 0 1 1-4.013-4.014 4.014 4.014 0 0 1 4.013 4.014" class="cls-17"/><path d="M39.212 51.339a3.8 3.8 0 1 1-3.8-3.801 3.802 3.802 0 0 1 3.8 3.8" class="cls-18"/><path d="M39 51.339a3.587 3.587 0 1 1-3.587-3.588A3.587 3.587 0 0 1 39 51.339" class="cls-19"/><path d="M38.787 51.339a3.374 3.374 0 1 1-3.374-3.375 3.375 3.375 0 0 1 3.374 3.375" class="cls-20"/><path d="M38.574 51.339a3.162 3.162 0 1 1-3.161-3.162 3.162 3.162 0 0 1 3.161 3.162" class="cls-21"/><path d="M38.361 51.339a2.949 2.949 0 1 1-2.948-2.95 2.95 2.95 0 0 1 2.948 2.95" class="cls-22"/><path d="M38.148 51.339a2.736 2.736 0 1 1-2.735-2.736 2.736 2.736 0 0 1 2.735 2.736" class="cls-23"/><path d="M37.935 51.339a2.523 2.523 0 1 1-2.522-2.523 2.523 2.523 0 0 1 2.523 2.523" class="cls-24"/><path d="M37.723 51.339a2.31 2.31 0 1 1-2.31-2.31 2.31 2.31 0 0 1 2.31 2.31" class="cls-25"/><path d="M37.51 51.339a2.098 2.098 0 1 1-2.097-2.098 2.098 2.098 0 0 1 2.097 2.098" class="cls-26"/><path d="M37.297 51.339a1.885 1.885 0 1 1-1.884-1.885 1.884 1.884 0 0 1 1.884 1.885" class="cls-27"/><path d="M37.084 51.339a1.672 1.672 0 1 1-1.67-1.672 1.672 1.672 0 0 1 1.67 1.672" class="cls-28"/><path d="M36.871 51.339a1.46 1.46 0 1 1-1.458-1.46 1.458 1.458 0 0 1 1.458 1.46" class="cls-29"/><path d="M66.797 51.339a4.864 4.864 0 1 1-4.862-4.864 4.864 4.864 0 0 1 4.862 4.864" class="cls-9"/><path d="M66.585 51.339a4.652 4.652 0 1 1-4.65-4.651 4.65 4.65 0 0 1 4.65 4.65" class="cls-14"/><path d="M66.372 51.339a4.439 4.439 0 1 1-4.437-4.438 4.437 4.437 0 0 1 4.437 4.438" class="cls-15"/><path d="M66.159 51.339a4.226 4.226 0 1 1-4.225-4.225 4.225 4.225 0 0 1 4.225 4.225" class="cls-16"/><path d="M65.946 51.339a4.013 4.013 0 1 1-4.013-4.014 4.014 4.014 0 0 1 4.013 4.014" class="cls-17"/><path d="M65.733 51.339a3.8 3.8 0 1 1-3.8-3.801 3.801 3.801 0 0 1 3.8 3.8" class="cls-18"/><path d="M65.52 51.339a3.587 3.587 0 1 1-3.586-3.588 3.587 3.587 0 0 1 3.587 3.588" class="cls-19"/><path d="M65.308 51.339a3.374 3.374 0 1 1-3.374-3.375 3.374 3.374 0 0 1 3.374 3.375" class="cls-20"/><path d="M65.095 51.339a3.162 3.162 0 1 1-3.161-3.162 3.162 3.162 0 0 1 3.16 3.162" class="cls-21"/><path d="M64.882 51.339a2.949 2.949 0 1 1-2.948-2.95 2.949 2.949 0 0 1 2.948 2.95" class="cls-22"/><path d="M64.67 51.339a2.736 2.736 0 1 1-2.736-2.736 2.736 2.736 0 0 1 2.735 2.736" class="cls-23"/><path d="M64.457 51.339a2.523 2.523 0 1 1-2.522-2.523 2.523 2.523 0 0 1 2.522 2.523" class="cls-24"/><path d="M64.244 51.339a2.31 2.31 0 1 1-2.31-2.31 2.309 2.309 0 0 1 2.31 2.31" class="cls-25"/><path d="M64.03 51.339a2.098 2.098 0 1 1-2.096-2.098 2.097 2.097 0 0 1 2.097 2.098" class="cls-26"/><path d="M63.818 51.339a1.885 1.885 0 1 1-1.884-1.885 1.885 1.885 0 0 1 1.884 1.885" class="cls-27"/><path d="M63.605 51.339a1.672 1.672 0 1 1-1.67-1.672 1.672 1.672 0 0 1 1.67 1.672" class="cls-28"/><path d="M63.392 51.339a1.46 1.46 0 1 1-1.458-1.46 1.458 1.458 0 0 1 1.458 1.46" class="cls-29"/><path d="M38.43 44.926c0 2.422-.806 4.386-1.8 4.386s-1.8-1.963-1.8-4.385.805-4.387 1.8-4.387 1.8 1.964 1.8 4.386m23.238-.119c0 2.422-.805 4.387-1.799 4.387s-1.799-1.965-1.799-4.387.805-4.386 1.8-4.386 1.798 1.965 1.798 4.386" style="fill:#231f20"/><path d="m43.002 54.718 14.147-.315s-3.425 9.607-7.787 9.525c-4.787-.093-6.36-9.21-6.36-9.21" class="cls-2"/><path d="m43.002 54.718 14.147-.315s-3.425 9.607-7.787 9.525c-4.787-.093-6.36-9.21-6.36-9.21ZM14.806 1.371l2.096 4.192M9.147 8.706l3.563 2.515m-8.383 8.594 6.706.21" class="cls-7"/><path d="M33.606 105.032s5.762-8.561 8.238-9.086c5.711-1.213 2.818 3.632 2.818 3.632a13.206 13.206 0 0 1 5.843.888c3.403 1.375.231 4.124.231 4.124a2.33 2.33 0 0 1 .756 2.597c-.375 1.875-1.5 1.897-1.5 1.897a2.454 2.454 0 0 1-.695 4.033c-.73.444 1.156 3.199-2.784 3.006-3.45-.168-11.84-1.794-11.84-1.794l-5.124 1.518s-3.947-9.32-1.894-9.428c2.997-.158 4.295-.016 5.951-1.387" class="cls-9"/><path d="M33.606 105.032s5.762-8.561 8.238-9.086c5.711-1.213 2.818 3.632 2.818 3.632a13.206 13.206 0 0 1 5.843.888c3.403 1.375.231 4.124.231 4.124a2.33 2.33 0 0 1 .756 2.597c-.375 1.875-1.5 1.897-1.5 1.897a2.454 2.454 0 0 1-.695 4.033c-.73.444 1.156 3.199-2.784 3.006-3.45-.168-11.84-1.794-11.84-1.794l-5.124 1.518s-3.947-9.32-1.894-9.428c2.997-.158 4.295-.016 5.951-1.387Zm11.056-5.455-3.171-.081" class="cls-7"/><path style="fill:url(#Unnamed_Pattern_12-11)" d="m33.054 116.513-9.541 1.654-2.221-12.783 9.541-1.656 2.221 12.785z"/><path class="cls-7" transform="rotate(-9.835 27.174 110.948)" d="M22.332 104.461h9.684v12.976h-9.684z"/><path class="cls-7" d="m18.218 107.291-8.551 1.119"/><path d="M59.046 116.994s-3.432-4.055-7.375-3.049c-5.114 1.303-7.02-.35-7.02-.35s-1.22.37-.589 1.977c.635 1.61 5.397 2.464 5.397 2.464s-2.99-.24-6.399-.43c-3.406-.187-6.2-4.198-7.165-3.078s-2.44.743-1.365 2.504a20.987 20.987 0 0 0 7.034 6.901c3.444 2.085 11.937.762 17.991.181s7.508-.77 7.508-.77l.963-8.796Z" class="cls-9"/><path d="M59.046 116.994s-3.432-4.055-7.375-3.049c-5.114 1.303-7.02-.35-7.02-.35s-1.22.37-.589 1.977c.635 1.61 5.397 2.464 5.397 2.464s-2.99-.24-6.399-.43c-3.406-.187-6.2-4.198-7.165-3.078s-2.44.743-1.365 2.504a20.987 20.987 0 0 0 7.034 6.901c3.444 2.085 11.937.762 17.991.181s7.508-.77 7.508-.77l.963-8.796Z" class="cls-7"/><path class="cls-9" d="m48.513 117.994 3.434.396"/><path class="cls-7" d="m48.513 117.994 3.434.396"/><path d="M34.81 115.94s3.3 4.218 5.723 4.958a11.732 11.732 0 0 1 2.892 1.101" class="cls-9"/><path d="M34.81 115.94s3.3 4.218 5.723 4.958a11.732 11.732 0 0 1 2.892 1.101" class="cls-7"/><path d="M75.051 79.888s1.42.295 3.272 3.655 13.492 25.923 12.843 33.722c-.307 3.674-5.367 6.757-14.309 8.147-4.55.707-10.732-1.987-10.732-1.987v-7.949s10.22-3.646 11.13-3.776c2.142-.306-6.797-9.466-6.559-11.924a107.387 107.387 0 0 1 4.355-19.888" style="fill:url(#Unnamed_Pattern_12-13)"/><path d="M75.051 79.888s1.42.295 3.272 3.655 13.492 25.923 12.843 33.722c-.307 3.674-5.367 6.757-14.309 8.147-4.55.707-10.732-1.987-10.732-1.987v-7.949s10.22-3.646 11.13-3.776c2.142-.306-6.797-9.466-6.559-11.924a107.387 107.387 0 0 1 4.355-19.888Z" class="cls-7"/><path style="fill:url(#Unnamed_Pattern_12-15)" d="m70.268 113.747.627 11.468-9.105 1.263-1.031-11.399 9.509-1.332z"/><path class="cls-7" d="m70.268 113.747.627 11.468-9.105 1.263-1.031-11.399 9.509-1.332zm7.384-2.047 4.77-.198"/><path d="m60.857 102.72-5.387 4.963 6.515-3.695-2.424 2.284 3.412-.959a3.245 3.245 0 0 0 4.427 1.89c1.635-.648 1.84-2.344.985-4.056 0 0 3.64-.794 2.456-3.784-1.293-3.263-4.456-.565-4.456-.565s2.003-3.524-1.918-3.609c-2.706-.058-2.369 3.187-2.369 3.187a2.336 2.336 0 0 0-3.27.777c-1.403 2.337 2.03 3.566 2.03 3.566" class="cls-2"/><path class="cls-7" d="m24.305 49.849 2.733 2.567m46.111-2.676-2.465 1.726v1.973"/></svg>