<svg xmlns="http://www.w3.org/2000/svg" xmlns:xlink="http://www.w3.org/1999/xlink" id="Layer_1" data-name="Layer 1" viewBox="0 0 91.693 157.782"><defs><style>.cls-1,.cls-7{fill:none}.cls-2{fill:#fff}.cls-3{fill:#fad3da}.cls-4{fill:#00adee}.cls-5{fill:#f5a2bd}.cls-6{fill:url(#Unnamed_Pattern_12)}.cls-7{stroke:#231f20;stroke-linecap:round;stroke-linejoin:round;stroke-width:1.001px}.cls-8{fill:#4d6397}.cls-9{fill:#eeccb7}.cls-10{fill:#9a8479}.cls-11{fill:url(#Unnamed_Pattern_12-3)}.cls-12{fill:#a6a8ab}.cls-13{fill:url(#Unnamed_Pattern_12-9)}.cls-14{fill:#eecab6}.cls-15{fill:#eec8b5}.cls-16{fill:#edc6b4}.cls-17{fill:#edc3b2}.cls-18{fill:#edc1b1}.cls-19{fill:#edbeb0}.cls-20{fill:#edbcaf}.cls-21{fill:#ecbaae}.cls-22{fill:#ecb7ad}.cls-23{fill:#ecb5ac}.cls-24{fill:#ecb2aa}.cls-25{fill:#ebb0a9}.cls-26{fill:#ebaea8}.cls-27{fill:#ebaba7}.cls-28{fill:#eba9a6}.cls-29{fill:#eaa6a5}.cls-30{fill:#231f20}.cls-31{fill:url(#Unnamed_Pattern_12-11)}.cls-32{fill:url(#Unnamed_Pattern_12-13)}.cls-33{fill:url(#Unnamed_Pattern_12-15)}</style><pattern id="Unnamed_Pattern_12" width="14.172" height="14.174" data-name="Unnamed Pattern 12" patternTransform="matrix(0.0176, -0.5041, -0.5042, -0.0176, 8246.4989, 429.0119)" patternUnits="userSpaceOnUse" viewBox="0 0 14.172 14.174"><rect width="14.172" height="14.174" class="cls-1"/><rect width="14.172" height="14.174" class="cls-2"/><rect width="14.172" height="7.086" y="7.088" class="cls-3"/><rect width="7.086" height="14.174" class="cls-3"/><rect width="7.086" height="7.086" y="7.088" class="cls-4"/><rect width="7.086" height="7.086" y="7.088" class="cls-5"/></pattern><pattern id="Unnamed_Pattern_12-3" width="14.172" height="14.174" data-name="Unnamed Pattern 12" patternTransform="matrix(0.5045, 0, 0, -0.5045, 0.8205, 8417.9987)" patternUnits="userSpaceOnUse" viewBox="0 0 14.172 14.174"><rect width="14.172" height="14.174" class="cls-1"/><rect width="14.172" height="14.174" class="cls-2"/><rect width="14.172" height="7.086" y="7.088" class="cls-3"/><rect width="7.086" height="14.174" class="cls-3"/><rect width="7.086" height="7.086" y="7.088" class="cls-4"/><rect width="7.086" height="7.086" y="7.088" class="cls-5"/></pattern><pattern id="Unnamed_Pattern_12-9" width="14.172" height="14.174" data-name="Unnamed Pattern 12" patternTransform="matrix(0.5045, 0, 0, -0.5045, 0.1806, 8419.5485)" patternUnits="userSpaceOnUse" viewBox="0 0 14.172 14.174"><rect width="14.172" height="14.174" class="cls-1"/><rect width="14.172" height="14.174" class="cls-2"/><rect width="14.172" height="7.086" y="7.088" class="cls-3"/><rect width="7.086" height="14.174" class="cls-3"/><rect width="7.086" height="7.086" y="7.088" class="cls-4"/><rect width="7.086" height="7.086" y="7.088" class="cls-5"/></pattern><pattern id="Unnamed_Pattern_12-11" width="14.172" height="14.174" data-name="Unnamed Pattern 12" patternTransform="matrix(-0.1189, -0.4705, -0.4048, 0.1131, 6623.1272, -1701.3126)" patternUnits="userSpaceOnUse" viewBox="0 0 14.172 14.174"><rect width="14.172" height="14.174" class="cls-1"/><rect width="14.172" height="14.174" class="cls-2"/><rect width="14.172" height="7.086" y="7.088" class="cls-3"/><rect width="7.086" height="14.174" class="cls-3"/><rect width="7.086" height="7.086" y="7.088" class="cls-4"/><rect width="7.086" height="7.086" y="7.088" class="cls-5"/></pattern><pattern id="Unnamed_Pattern_12-13" width="14.172" height="14.174" data-name="Unnamed Pattern 12" patternTransform="matrix(-0.0619, -0.5007, -0.5007, 0.0619, 8187.3233, -871.6605)" patternUnits="userSpaceOnUse" viewBox="0 0 14.172 14.174"><rect width="14.172" height="14.174" class="cls-1"/><rect width="14.172" height="14.174" class="cls-2"/><rect width="14.172" height="7.086" y="7.088" class="cls-3"/><rect width="7.086" height="14.174" class="cls-3"/><rect width="7.086" height="7.086" y="7.088" class="cls-4"/><rect width="7.086" height="7.086" y="7.088" class="cls-5"/></pattern><pattern id="Unnamed_Pattern_12-15" width="14.172" height="14.174" data-name="Unnamed Pattern 12" patternTransform="matrix(-0.0439, -0.5025, -0.5025, 0.0439, 8216.361, -576.9163)" patternUnits="userSpaceOnUse" viewBox="0 0 14.172 14.174"><rect width="14.172" height="14.174" class="cls-1"/><rect width="14.172" height="14.174" class="cls-2"/><rect width="14.172" height="7.086" y="7.088" class="cls-3"/><rect width="7.086" height="14.174" class="cls-3"/><rect width="7.086" height="7.086" y="7.088" class="cls-4"/><rect width="7.086" height="7.086" y="7.088" class="cls-5"/></pattern></defs><path d="M23.6173,81.1722s-2.605,2.307-6.977,9.064c-5.907,9.13-16.295,16.098-16.138,25.088.056,3.062,2.013,6.833,13.83,4.682,5.432-.988,15.431-3.434,15.431-3.434L28.5213,104.9l-10.304,2.391s10.004-5.216,10.149-6.124c.308-1.932-1.44-5.888-1.789-19.277Z" class="cls-6"/><path d="M23.6173,81.1722s-2.605,2.307-6.977,9.064c-5.907,9.13-16.295,16.098-16.138,25.088.056,3.062,2.013,6.833,13.83,4.682,5.432-.988,15.431-3.434,15.431-3.434L28.5213,104.9l-10.304,2.391s10.004-5.216,10.149-6.124c.308-1.932-1.44-5.888-1.789-19.277Z" class="cls-7"/><polygon points="73.344 157.281 26.192 157.281 29.455 137.696 71.168 137.696 73.344 157.281" class="cls-8"/><polygon points="73.344 157.281 26.192 157.281 29.455 137.696 71.168 137.696 73.344 157.281" class="cls-7"/><path d="M41.8225,66.4391s2.884,7.103.742,8.531a21.9608,21.9608,0,0,1-5.997,2.276s3.174,13.505,14.062,12.969c7.105-.349,12.715-14.041,12.715-14.041s-6.427-1.071-7.141-3.391,1.383-7.641,1.383-7.641Z" class="cls-9"/><path d="M41.8225,66.4391s2.884,7.103.742,8.531a21.9608,21.9608,0,0,1-5.997,2.276s3.174,13.505,14.062,12.969c7.105-.349,12.715-14.041,12.715-14.041s-6.427-1.071-7.141-3.391,1.383-7.641,1.383-7.641Z" class="cls-7"/><path d="M24.6155,33.3789s2.694,5.89,3.58,17.109c.918,11.637,6.317,14.299,13.238,17.912a16.5692,16.5692,0,0,0,15.406-.05c7.744-4.112,11.641-9.083,12.674-17.067,1.03-7.958,6.168-12.341,2.994-25.039C70.49,18.1719,62.85,8.3929,48.23,8.3929c-16.268,0-24.963,14.864-23.614,24.986" class="cls-9"/><path d="M24.6155,33.3789s2.694,5.89,3.58,17.109c.918,11.637,6.317,14.299,13.238,17.912a16.5692,16.5692,0,0,0,15.406-.05c7.744-4.112,11.641-9.083,12.674-17.067,1.03-7.958,6.168-12.341,2.994-25.039C70.49,18.1719,62.85,8.3929,48.23,8.3929,31.9615,8.3929,23.2665,23.2569,24.6155,33.3789Z" class="cls-7"/><path d="M47.5815,44.3363c.319,1.367,1.062,2.744.271,2.849-.878.116-2.214.451-1.988,1.755a3.873,3.873,0,0,0,1.59,2.427" class="cls-7"/><path d="M27.1535,49.8223c-.326-1.76-.27-3.405-.428-4.896a3.0484,3.0484,0,0,0-3.538-.198c-2.101,1.193-2.347,4.937-.465,8.514,1.299,2.474,5.707,5.254,7.346,5.619a30.0113,30.0113,0,0,1-2.915-9.039" class="cls-9"/><path d="M27.1535,49.8223c-.326-1.76-.27-3.405-.428-4.896a3.0484,3.0484,0,0,0-3.538-.198c-2.101,1.193-2.347,4.937-.465,8.514,1.299,2.474,5.707,5.254,7.346,5.619A30.0113,30.0113,0,0,1,27.1535,49.8223Z" class="cls-7"/><path d="M70.2124,49.4932c.352-1.754.539-3.346.696-4.838a3.0473,3.0473,0,0,1,3.537-.197c2.102,1.192,2.347,4.935.468,8.513-1.301,2.474-5.964,5.427-7.602,5.792a66.5681,66.5681,0,0,0,2.901-9.27" class="cls-9"/><path d="M70.2124,49.4932c.352-1.754.539-3.346.696-4.838a3.0473,3.0473,0,0,1,3.537-.197c2.102,1.192,2.347,4.935.468,8.513-1.301,2.474-5.964,5.427-7.602,5.792A66.5681,66.5681,0,0,0,70.2124,49.4932Z" class="cls-7"/><path d="M56.0677,20.4825c2.686,5.616-5.586,14.004-8.997,17.972,3.212-3.49,2.756-9.231,3.52-13.459-3.021,6.356-7.821,8.552-4.415,16.233-1.714-2.634-5.528-4.158-6.5-7.835-1.08-4.081-1.652-8.388,1.557-11.867-7.122,4.995-10.29,14.109-10.228,22.48-1.267-4.894-3.163-10.676-1.1-15.725-2.094,2.586-2.158,9.53-2.373,13.208-.209,3.58,1.78,14.07,1.025,12.416-2.182-1.758-3.914-8.521-6.149-10.292a14.8485,14.8485,0,0,1-5.037-7.093,13.6486,13.6486,0,0,1,5.126-13.903c-1.914-7.1,2.133-7.719,3.367-9.085a27.78,27.78,0,0,1,10.657-7.775c3.763-1.417,7.764-.382,11.781-.537,4.14-.161,7.139-1.869,10.193-4.72-.959,1.837-2.051,4.153-3.94,5.269,3.239.312,7.139-1.333,10.06-2.65a26.4029,26.4029,0,0,1-3.707,3.647c8.762,1.671,12.872,8.524,15.194,16.849,1.224,4.388,5.433,8.643,1.954,15.162-2.641,4.944-3.587,4.158-5.353,6.364a84.63,84.63,0,0,0-4.059,10.1c.238-9.019,2.963-13.211-2.277-16.984a21.4074,21.4074,0,0,1-6.706-9.011c-.883-2.334-3.593-8.764-3.593-8.764" class="cls-10"/><path d="M56.0677,20.4825c2.686,5.616-5.586,14.004-8.997,17.972,3.212-3.49,2.756-9.231,3.52-13.459-3.021,6.356-7.821,8.552-4.415,16.233-1.714-2.634-5.528-4.158-6.5-7.835-1.08-4.081-1.652-8.388,1.557-11.867-7.122,4.995-10.29,14.109-10.228,22.48-1.267-4.894-3.163-10.676-1.1-15.725-2.094,2.586-2.158,9.53-2.373,13.208-.209,3.58,1.78,14.07,1.025,12.416-2.182-1.758-3.914-8.521-6.149-10.292a14.8485,14.8485,0,0,1-5.037-7.093,13.6486,13.6486,0,0,1,5.126-13.903c-1.914-7.1,2.133-7.719,3.367-9.085a27.78,27.78,0,0,1,10.657-7.775c3.763-1.417,7.764-.382,11.781-.537,4.14-.161,7.139-1.869,10.193-4.72-.959,1.837-2.051,4.153-3.94,5.269,3.239.312,7.139-1.333,10.06-2.65a26.4029,26.4029,0,0,1-3.707,3.647c8.762,1.671,12.872,8.524,15.194,16.849,1.224,4.388,5.433,8.643,1.954,15.162-2.641,4.944-3.587,4.158-5.353,6.364a84.63,84.63,0,0,0-4.059,10.1c.238-9.019,2.963-13.211-2.277-16.984a21.4074,21.4074,0,0,1-6.706-9.011C58.7777,26.9125,56.0677,20.4825,56.0677,20.4825Z" class="cls-7"/><path d="M33.7165,35.2283s.033-3.547,2.889-2" class="cls-9"/><path d="M33.7165,35.2283s.033-3.547,2.889-2" class="cls-7"/><path d="M62.276,33.507s-1.445-3.24-3.446-.684" class="cls-7"/><path d="M38.6252,71.542c1.11,1.057,4.702,2.611,7.526,4l1.735,4.567,1.435,2.301,3.71-7.934s5.412-1.372,6.935-3.2c1.601,4.268,5.543,4.403,9.872,6.134,5.336,2.135,3.108.416,2.308,2.816-3.043,9.133-3.171,29.506-3.245,38.058-.075,8.663,4.006,19.791,4.926,30.204-1.867,2.401-15.609,3.694-26.535,3.487-13.756-.258-17.394-3.181-21.547-3.181,1.532-3.369,3.292-10.477,4.157-17.841,1.394-11.866-.855-15.099,0-26.215.519-6.748-5.119-24.043-1.816-24.397,4.056-.436,6.962-3.857,9.205-6.132Z" class="cls-11"/><path d="M38.6252,71.542c1.11,1.057,4.702,2.611,7.526,4l1.735,4.567,1.435,2.301,3.71-7.934s5.412-1.372,6.935-3.2c1.601,4.268,5.543,4.403,9.872,6.134,5.336,2.135,3.108.416,2.308,2.816-3.043,9.133-3.171,29.506-3.245,38.058-.075,8.663,4.006,19.791,4.926,30.204-1.867,2.401-15.609,3.694-26.535,3.487-13.756-.258-17.394-3.181-21.547-3.181,1.532-3.369,3.292-10.477,4.157-17.841,1.394-11.866-.855-15.099,0-26.215.519-6.748-5.119-24.043-1.816-24.397,4.056-.436,6.962-3.857,9.205-6.132Z" class="cls-7"/><path d="M52.0754,74.6377c-4.301,9.141-3.521,9.443-3.846,13.177-.534,6.135-1.892,29.192-2.001,37.766-.13,10.164-.003,26.017-.003,26.017l3.374.261s-.243-14.614-.243-23.15,1.414-37.566,2.215-41.567,4.394-13.199,4.394-13.199Z" class="cls-11"/><path d="M52.0754,74.6377c-4.301,9.141-3.521,9.443-3.846,13.177-.534,6.135-1.892,29.192-2.001,37.766-.13,10.164-.003,26.017-.003,26.017l3.374.261s-.243-14.614-.243-23.15,1.414-37.566,2.215-41.567,4.394-13.199,4.394-13.199Z" class="cls-7"/><path d="M32.8317,75.7757s7.145,6.635,16.489,6.635,17.045-7.682,17.045-7.682l8.804,3.982c-1.398,6.457-3.679,14.507-4.274,24.046-.282,4.486-.796,6.779-.796,10.334,0,11.939,2.501,20.698,3.42,26.822.222,1.477,1.73,3.936.307,4.593-4.474,2.073-14.062,3.166-25.786,2.172-7.049-.597-23.54,1.569-21.99-3.09.307-.919.151-2.56.613-4.594a108.8989,108.8989,0,0,0,2.719-25.691c0-3.53-1.493-7.271-1.8-10.14-1.218-11.383-3.932-17.094-4.287-22.661Z" class="cls-12"/><path d="M32.8317,75.7757s7.145,6.635,16.489,6.635,17.045-7.682,17.045-7.682l8.804,3.982c-1.398,6.457-3.679,14.507-4.274,24.046-.282,4.486-.796,6.779-.796,10.334,0,11.939,2.501,20.698,3.42,26.822.222,1.477,1.73,3.936.307,4.593-4.474,2.073-14.062,3.166-25.786,2.172-7.049-.597-23.54,1.569-21.99-3.09.307-.919.151-2.56.613-4.594a108.8989,108.8989,0,0,0,2.719-25.691c0-3.53-1.493-7.271-1.8-10.14-1.218-11.383-3.932-17.094-4.287-22.661Z" class="cls-7"/><polygon points="37.664 70.586 45.358 74.297 38.208 81.898 35.262 75.12 37.664 70.586" class="cls-11"/><polygon points="37.664 70.586 45.358 74.297 38.208 81.898 35.262 75.12 37.664 70.586" class="cls-7"/><polygon points="52.656 74.423 59.751 80.601 62.794 74.957 59.86 70.155 52.656 74.423" class="cls-13"/><polygon points="52.656 74.423 59.751 80.601 62.794 74.957 59.86 70.155 52.656 74.423" class="cls-7"/><path d="M40.2765,51.3386a4.8645,4.8645,0,1,1-4.863-4.864,4.8635,4.8635,0,0,1,4.863,4.864" class="cls-9"/><path d="M40.0637,51.3386a4.6515,4.6515,0,1,1-4.65-4.651,4.65,4.65,0,0,1,4.65,4.651" class="cls-14"/><path d="M39.8509,51.3386a4.439,4.439,0,1,1-4.437-4.438,4.4378,4.4378,0,0,1,4.437,4.438" class="cls-15"/><path d="M39.638,51.3386a4.226,4.226,0,1,1-4.225-4.225,4.2249,4.2249,0,0,1,4.225,4.225" class="cls-16"/><path d="M39.4253,51.3386a4.013,4.013,0,1,1-4.013-4.014,4.0143,4.0143,0,0,1,4.013,4.014" class="cls-17"/><path d="M39.2125,51.3386a3.8,3.8,0,1,1-3.8-3.801,3.8017,3.8017,0,0,1,3.8,3.801" class="cls-18"/><path d="M39,51.3386a3.5875,3.5875,0,1,1-3.587-3.588A3.5873,3.5873,0,0,1,39,51.3386" class="cls-19"/><path d="M38.7868,51.3386a3.3745,3.3745,0,1,1-3.374-3.375,3.3747,3.3747,0,0,1,3.374,3.375" class="cls-20"/><path d="M38.574,51.3386a3.162,3.162,0,1,1-3.161-3.162,3.1622,3.1622,0,0,1,3.161,3.162" class="cls-21"/><path d="M38.3612,51.3386a2.949,2.949,0,1,1-2.948-2.949,2.95,2.95,0,0,1,2.948,2.949" class="cls-22"/><path d="M38.1484,51.3386a2.736,2.736,0,1,1-2.735-2.736,2.7365,2.7365,0,0,1,2.735,2.736" class="cls-23"/><path d="M37.9355,51.3386a2.5235,2.5235,0,1,1-2.522-2.523,2.5227,2.5227,0,0,1,2.522,2.523" class="cls-24"/><path d="M37.7227,51.3386a2.3105,2.3105,0,1,1-2.309-2.31,2.31,2.31,0,0,1,2.309,2.31" class="cls-25"/><path d="M37.51,51.3386a2.0975,2.0975,0,1,1-2.097-2.098,2.098,2.098,0,0,1,2.097,2.098" class="cls-26"/><path d="M37.297,51.3386a1.8845,1.8845,0,1,1-1.884-1.885,1.8842,1.8842,0,0,1,1.884,1.885" class="cls-27"/><path d="M37.0843,51.3386a1.672,1.672,0,1,1-1.671-1.672,1.6717,1.6717,0,0,1,1.671,1.672" class="cls-28"/><path d="M36.8714,51.3386a1.46,1.46,0,1,1-1.458-1.459,1.4579,1.4579,0,0,1,1.458,1.459" class="cls-29"/><path d="M66.7975,51.3386a4.8645,4.8645,0,1,1-4.863-4.864,4.8635,4.8635,0,0,1,4.863,4.864" class="cls-9"/><path d="M66.5846,51.3386a4.6515,4.6515,0,1,1-4.65-4.651,4.65,4.65,0,0,1,4.65,4.651" class="cls-14"/><path d="M66.3718,51.3386a4.439,4.439,0,1,1-4.437-4.438,4.4372,4.4372,0,0,1,4.437,4.438" class="cls-15"/><path d="M66.159,51.3386a4.226,4.226,0,1,1-4.225-4.225,4.2249,4.2249,0,0,1,4.225,4.225" class="cls-16"/><path d="M65.9461,51.3386a4.013,4.013,0,1,1-4.013-4.014,4.0136,4.0136,0,0,1,4.013,4.014" class="cls-17"/><path d="M65.7334,51.3386a3.8,3.8,0,1,1-3.8-3.801,3.8011,3.8011,0,0,1,3.8,3.801" class="cls-18"/><path d="M65.5206,51.3386a3.5875,3.5875,0,1,1-3.587-3.588,3.5873,3.5873,0,0,1,3.587,3.588" class="cls-19"/><path d="M65.3077,51.3386a3.3745,3.3745,0,1,1-3.374-3.375,3.3741,3.3741,0,0,1,3.374,3.375" class="cls-20"/><path d="M65.0949,51.3386a3.162,3.162,0,1,1-3.161-3.162,3.1622,3.1622,0,0,1,3.161,3.162" class="cls-21"/><path d="M64.8821,51.3386a2.949,2.949,0,1,1-2.948-2.949,2.949,2.949,0,0,1,2.948,2.949" class="cls-22"/><path d="M64.6693,51.3386a2.736,2.736,0,1,1-2.735-2.736,2.7359,2.7359,0,0,1,2.735,2.736" class="cls-23"/><path d="M64.4565,51.3386a2.5235,2.5235,0,1,1-2.522-2.523,2.5227,2.5227,0,0,1,2.522,2.523" class="cls-24"/><path d="M64.2436,51.3386a2.3105,2.3105,0,1,1-2.309-2.31,2.3089,2.3089,0,0,1,2.309,2.31" class="cls-25"/><path d="M64.0308,51.3386a2.0975,2.0975,0,1,1-2.097-2.098,2.0974,2.0974,0,0,1,2.097,2.098" class="cls-26"/><path d="M63.818,51.3386a1.8845,1.8845,0,1,1-1.884-1.885,1.8849,1.8849,0,0,1,1.884,1.885" class="cls-27"/><path d="M63.6051,51.3386a1.672,1.672,0,1,1-1.671-1.672,1.6717,1.6717,0,0,1,1.671,1.672" class="cls-28"/><path d="M63.3923,51.3386a1.46,1.46,0,1,1-1.458-1.459,1.4579,1.4579,0,0,1,1.458,1.459" class="cls-29"/><path d="M38.4291,44.9265c0,2.422-.805,4.386-1.8,4.386s-1.799-1.964-1.799-4.386.805-4.386,1.799-4.386,1.8,1.964,1.8,4.386" class="cls-30"/><path d="M61.6681,44.8072c0,2.422-.805,4.387-1.799,4.387s-1.799-1.965-1.799-4.387.805-4.386,1.799-4.386,1.799,1.965,1.799,4.386" class="cls-30"/><path d="M43.0018,54.7183l14.147-.315s-3.425,9.607-7.787,9.525c-4.787-.093-6.36-9.21-6.36-9.21" class="cls-2"/><path d="M43.0018,54.7183l14.147-.315s-3.425,9.607-7.787,9.525C44.5748,63.8353,43.0018,54.7183,43.0018,54.7183Z" class="cls-7"/><line x1="14.806" x2="16.902" y1="1.371" y2="5.563" class="cls-7"/><line x1="9.147" x2="12.71" y1="8.706" y2="11.221" class="cls-7"/><line x1="4.327" x2="11.033" y1="19.815" y2="20.025" class="cls-7"/><path d="M33.6061,105.0317s5.762-8.561,8.238-9.086c5.711-1.213,2.818,3.632,2.818,3.632a13.2056,13.2056,0,0,1,5.843.888c3.403,1.375.231,4.124.231,4.124a2.3294,2.3294,0,0,1,.756,2.597c-.375,1.875-1.5,1.897-1.5,1.897a2.4538,2.4538,0,0,1-.695,4.033c-.73.444,1.156,3.199-2.784,3.006-3.45-.168-11.841-1.794-11.841-1.794l-5.123,1.518s-3.947-9.319-1.894-9.428c2.997-.158,4.295-.016,5.951-1.387" class="cls-9"/><path d="M33.6061,105.0317s5.762-8.561,8.238-9.086c5.711-1.213,2.818,3.632,2.818,3.632a13.2056,13.2056,0,0,1,5.843.888c3.403,1.375.231,4.124.231,4.124a2.3294,2.3294,0,0,1,.756,2.597c-.375,1.875-1.5,1.897-1.5,1.897a2.4538,2.4538,0,0,1-.695,4.033c-.73.444,1.156,3.199-2.784,3.006-3.45-.168-11.841-1.794-11.841-1.794l-5.123,1.518s-3.947-9.319-1.894-9.428C30.6521,106.2607,31.95,106.4027,33.6061,105.0317Z" class="cls-7"/><line x1="44.662" x2="41.491" y1="99.577" y2="99.496" class="cls-7"/><polygon points="33.054 116.513 23.513 118.167 21.292 105.384 30.833 103.728 33.054 116.513" class="cls-31"/><rect width="9.684" height="12.976" x="22.332" y="104.461" class="cls-7" transform="translate(-18.5517 6.272) rotate(-9.8349)"/><line x1="18.218" x2="9.667" y1="107.291" y2="108.41" class="cls-7"/><path d="M59.0463,116.9942s-3.432-4.055-7.375-3.049c-5.114,1.303-7.021-.351-7.021-.351s-1.22.37-.588,1.978c.635,1.609,5.397,2.464,5.397,2.464s-2.99-.241-6.399-.431c-3.406-.186-6.201-4.197-7.165-3.077s-2.441.743-1.365,2.504a20.9868,20.9868,0,0,0,7.034,6.901c3.444,2.085,11.937.762,17.991.181s7.508-.77,7.508-.77l.963-8.796Z" class="cls-9"/><path d="M59.0463,116.9942s-3.432-4.055-7.375-3.049c-5.114,1.303-7.021-.351-7.021-.351s-1.22.37-.588,1.978c.635,1.609,5.397,2.464,5.397,2.464s-2.99-.241-6.399-.431c-3.406-.186-6.201-4.197-7.165-3.077s-2.441.743-1.365,2.504a20.9868,20.9868,0,0,0,7.034,6.901c3.444,2.085,11.937.762,17.991.181s7.508-.77,7.508-.77l.963-8.796Z" class="cls-7"/><line x1="48.513" x2="51.947" y1="117.994" y2="118.39" class="cls-9"/><line x1="48.513" x2="51.947" y1="117.994" y2="118.39" class="cls-7"/><path d="M34.81,115.94s3.3,4.218,5.723,4.958a11.7319,11.7319,0,0,1,2.892,1.101" class="cls-9"/><path d="M34.81,115.94s3.3,4.218,5.723,4.958a11.7319,11.7319,0,0,1,2.892,1.101" class="cls-7"/><path d="M75.0512,79.8883s1.419.295,3.272,3.655,13.492,25.923,12.843,33.722c-.307,3.674-5.367,6.757-14.309,8.147-4.55.707-10.732-1.987-10.732-1.987v-7.949s10.219-3.646,11.129-3.776c2.143-.306-6.796-9.466-6.558-11.924a107.3872,107.3872,0,0,1,4.355-19.888" class="cls-32"/><path d="M75.0512,79.8883s1.419.295,3.272,3.655,13.492,25.923,12.843,33.722c-.307,3.674-5.367,6.757-14.309,8.147-4.55.707-10.732-1.987-10.732-1.987v-7.949s10.219-3.646,11.129-3.776c2.143-.306-6.796-9.466-6.558-11.924A107.3872,107.3872,0,0,1,75.0512,79.8883Z" class="cls-7"/><polygon points="70.268 113.747 70.895 125.215 61.79 126.478 60.759 115.079 70.268 113.747" class="cls-33"/><polygon points="70.268 113.747 70.895 125.215 61.79 126.478 60.759 115.079 70.268 113.747" class="cls-7"/><line x1="77.652" x2="82.422" y1="111.7" y2="111.502" class="cls-7"/><path d="M60.8572,102.7193l-5.387,4.964,6.515-3.695-2.424,2.284,3.412-.959a3.2448,3.2448,0,0,0,4.427,1.89c1.635-.648,1.84-2.344.985-4.056,0,0,3.64-.794,2.456-3.784-1.293-3.263-4.456-.565-4.456-.565s2.003-3.524-1.918-3.609c-2.706-.058-2.369,3.187-2.369,3.187a2.3363,2.3363,0,0,0-3.271.777c-1.402,2.337,2.03,3.566,2.03,3.566" class="cls-2"/><line x1="24.305" x2="27.038" y1="49.849" y2="52.416" class="cls-7"/><polyline points="73.149 49.74 70.684 51.466 70.684 53.439" class="cls-7"/></svg>