<svg xmlns="http://www.w3.org/2000/svg" id="Layer_1" data-name="Layer 1" viewBox="0 0 87.497 156.692"><defs><style>.cls-1{fill:#ffeebc}.cls-19,.cls-2{fill:none;stroke:#231f20;stroke-linecap:round;stroke-linejoin:round}.cls-2{stroke-width:1.001px}.cls-3{fill:#fcdcd3}.cls-5{fill:#e1b970}.cls-6{fill:#fbd9d2}.cls-7{fill:#fbd6d2}.cls-8{fill:#fbd3d0}.cls-9{fill:#fad0cf}.cls-10{fill:#facdcf}.cls-11{fill:#f9c9ce}.cls-12{fill:#f9c6cd}.cls-13{fill:#f8c3cc}.cls-14{fill:#f8c0cb}.cls-15{fill:#faaf40}.cls-16{fill:#80c9ef}.cls-17{fill:#929497}.cls-19{stroke-width:.429px}</style></defs><path d="M27.968 79.402s3.748 9.467 4.371 13.408c.622 3.94-.622 5.808-.622 5.808l-8.297 4.148 3.956-.548 3.303 9.675s-12.732 5.89-20.707 5.19c-11.824-1.037-11.726-10.572-4.39-17.221 7.225-6.548 18.431-20.593 22.387-20.46" class="cls-1"/><path d="M27.968 79.402s3.748 9.467 4.371 13.408c.622 3.94-.622 5.808-.622 5.808l-8.297 4.148 3.956-.548 3.303 9.675s-12.732 5.89-20.707 5.19c-11.824-1.037-11.726-10.572-4.39-17.221 7.224-6.548 18.431-20.593 22.386-20.46Z" class="cls-2"/><path d="M74.98 80.918s5.7 2.178 5.092 9.79c-.933 11.669-6.248 57.978-5.456 62.337.608 3.349-13.783-4.353-13.783-4.353s3.104-46.72 5.234-53.418c2.132-6.697 8.913-14.356 8.913-14.356" class="cls-1"/><path d="M74.98 80.918s5.7 2.178 5.092 9.79c-.933 11.669-6.248 57.978-5.456 62.337.608 3.349-13.783-4.353-13.783-4.353s3.104-46.72 5.234-53.418c2.132-6.697 8.913-14.356 8.913-14.356Z" class="cls-2"/><path d="m27.554 78.987 12.638-3.838s12.692-2.525 20.942-.25c5.745 1.587 6.802 2.56 9.653 3.782a40.53 40.53 0 0 1 4.566 2.436 194.443 194.443 0 0 0-5.15 21.517c-1.68 10.179.584 31.9.584 34.809 0 2.907-41.406-.305-41.406-.305s2.436-24.765 2.436-33.492c0-9.35-.681-11.192-4.263-24.66" class="cls-1"/><path d="m27.554 78.987 12.638-3.838s12.692-2.525 20.942-.25c5.745 1.587 6.802 2.56 9.653 3.782a40.53 40.53 0 0 1 4.566 2.436 194.443 194.443 0 0 0-5.15 21.517c-1.68 10.179.584 31.9.584 34.809 0 2.907-41.406-.305-41.406-.305s2.436-24.765 2.436-33.492c0-9.35-.681-11.192-4.263-24.66Z" class="cls-2"/><path d="M44.67 66.646s2.429 5.514.288 6.941a16.286 16.286 0 0 1-4.92 2.018s1.289 6.961 12.178 6.426c7.105-.35 13.046-5.795 13.046-5.795s-6.488-2.629-7.202-4.948c-.714-2.321-.536-7.855-.536-7.855Z" class="cls-3"/><path d="M44.67 66.646s2.429 5.514.288 6.941a16.286 16.286 0 0 1-4.92 2.018s1.289 6.961 12.178 6.426c7.105-.35 13.046-5.795 13.046-5.795s-6.488-2.629-7.202-4.948c-.714-2.321-.536-7.855-.536-7.855Z" class="cls-2"/><path d="M26.022 30.724s2.228 6.07 2.678 17.315c.403 10.08 7.645 16.711 14.28 19.457 5.177 2.143 10.354 3.214 16.6-.356 8.017-4.58 13.04-11.767 13.21-19.816.178-8.29 5.318-9.614 2.143-22.313C72.915 16.94 65.276 7.16 50.656 7.16c-16.268 0-25.983 13.441-24.634 23.564" class="cls-3"/><path d="M26.022 30.724s2.228 6.07 2.678 17.315c.403 10.08 7.645 16.711 14.28 19.457 5.177 2.143 10.354 3.214 16.6-.356 8.017-4.58 13.04-11.767 13.21-19.816.178-8.29 5.318-9.614 2.143-22.313C72.915 16.94 65.276 7.16 50.656 7.16c-16.268 0-25.983 13.44-24.634 23.564Z" class="cls-2"/><path d="M50.066 43.155c.32 1.368.446 2.756-.353 2.756-1.574 0-2.025-.177-1.799 1.125a6.882 6.882 0 0 0 2.024 3.149" class="cls-2"/><path d="M40.138 43.542c0 2.421-.806 4.386-1.799 4.386-.995 0-1.799-1.965-1.799-4.386s.804-4.387 1.8-4.387c.992 0 1.798 1.965 1.798 4.387m24.385-.287c0 2.422-.805 4.386-1.8 4.386s-1.799-1.964-1.799-4.386.805-4.386 1.8-4.386 1.8 1.964 1.8 4.386" style="fill:#231f20"/><path d="M38.16 18.584a29.355 29.355 0 0 0 6.426 9.461c5.712 5.89 12.853 8.032 24.278 11.246L57.855 15.476S74.122 34.14 72.612 48.932c-.892 8.746-1.963 11.066-5.89 14.993a19.664 19.664 0 0 1-6.256 4.144 31.72 31.72 0 0 0 13.025-2.479c7.409-3.179 19.356-14.18 10.182-37.846C76.86 10.17 67.026.754 50.378.502c-13.931-.21-31.21 17.6-33.996 40.753-2.13 17.697 10.354 23.741 16.958 26.42a19.062 19.062 0 0 0 7.95 1.338s-4.046-1.629-5.63-4.553c-3.853-7.116-8.031-19.636-6.07-27.846 2.062-8.623 8.57-18.03 8.57-18.03" class="cls-5"/><path d="M38.16 18.584a29.355 29.355 0 0 0 6.426 9.461c5.712 5.89 12.853 8.032 24.278 11.246L57.855 15.476S74.122 34.14 72.612 48.932c-.892 8.746-1.963 11.066-5.89 14.993a19.664 19.664 0 0 1-6.256 4.144 31.72 31.72 0 0 0 13.025-2.479c7.409-3.179 19.356-14.18 10.182-37.846C76.86 10.17 67.026.754 50.378.502c-13.931-.21-31.21 17.6-33.996 40.753-2.13 17.697 10.354 23.741 16.958 26.42a19.062 19.062 0 0 0 7.95 1.338s-4.046-1.629-5.63-4.553c-3.853-7.116-8.031-19.636-6.07-27.846 2.062-8.623 8.57-18.03 8.57-18.03Z" class="cls-2"/><path d="M28.442 53.64c2.212 3.56-5.397-.866-7.277-4.444s-1.635-7.32.466-8.514a3.167 3.167 0 0 1 4.072.694s.527 8.704 2.739 12.263" class="cls-3"/><path d="M28.442 53.64c2.212 3.56-5.397-.866-7.277-4.444s-1.635-7.32.466-8.514a3.167 3.167 0 0 1 4.072.694s.527 8.704 2.739 12.263Z" class="cls-2"/><path d="M28.939 24.97s-3.916 7.883-3.447 20.147c.613 16.005 13.546 20.041 13.546 20.041s-7.065-5.065-8.081-18.244c-1.155-14.982 7.204-28.329 7.204-28.329" class="cls-5"/><path d="M28.939 24.97s-3.916 7.883-3.447 20.147c.613 16.005 13.546 20.041 13.546 20.041s-7.065-5.065-8.081-18.244c-1.155-14.982 7.204-28.329 7.204-28.329" class="cls-2"/><path d="M74.375 53.64c-2.21 3.56 5.398-.866 7.277-4.444 1.882-3.578 1.636-7.32-.465-8.514a3.167 3.167 0 0 0-4.072.694s-.527 8.704-2.74 12.263" class="cls-3"/><path d="M74.375 53.64c-2.21 3.56 5.398-.866 7.277-4.444 1.882-3.578 1.636-7.32-.465-8.514a3.167 3.167 0 0 0-4.072.694s-.527 8.704-2.74 12.263Z" class="cls-2"/><path d="M73.879 24.97s3.915 7.883 3.446 20.147C76.714 61.122 63.78 65.158 63.78 65.158s6.715-5.097 8.08-18.244c1.047-10.073-5.744-19.636-5.744-19.636" class="cls-5"/><path d="M73.879 24.97s3.915 7.883 3.446 20.147C76.714 61.122 63.78 65.158 63.78 65.158s6.715-5.097 8.08-18.244c1.047-10.073-5.744-19.636-5.744-19.636" class="cls-2"/><path d="M41.673 52.581a3.763 3.763 0 1 1-3.762-3.762 3.763 3.763 0 0 1 3.762 3.762" class="cls-3"/><path d="M37.91 56.136a3.554 3.554 0 1 1 3.554-3.554 3.554 3.554 0 0 1-3.553 3.554" class="cls-6"/><path d="M37.91 55.927a3.345 3.345 0 1 1 3.346-3.346 3.345 3.345 0 0 1-3.345 3.346" class="cls-7"/><path d="M37.91 55.718a3.136 3.136 0 1 1 3.137-3.137 3.135 3.135 0 0 1-3.136 3.137" class="cls-8"/><path d="M37.91 55.508a2.927 2.927 0 1 1 2.928-2.927 2.926 2.926 0 0 1-2.927 2.927" class="cls-9"/><path d="M37.91 55.3a2.718 2.718 0 1 1 2.719-2.718A2.718 2.718 0 0 1 37.91 55.3" class="cls-10"/><path d="M37.91 55.09a2.509 2.509 0 1 1 2.51-2.508 2.508 2.508 0 0 1-2.51 2.509" class="cls-11"/><path d="M37.91 54.881a2.3 2.3 0 1 1 2.3-2.3 2.3 2.3 0 0 1-2.3 2.3" class="cls-12"/><path d="M37.91 54.672a2.091 2.091 0 1 1 2.093-2.091 2.09 2.09 0 0 1-2.092 2.09" class="cls-13"/><path d="M39.792 52.581A1.881 1.881 0 1 1 37.91 50.7a1.881 1.881 0 0 1 1.883 1.882" class="cls-14"/><path d="M68.773 52.581a3.764 3.764 0 1 1-3.763-3.762 3.763 3.763 0 0 1 3.763 3.762" class="cls-3"/><path d="M65.009 56.136a3.554 3.554 0 1 1 3.554-3.554 3.554 3.554 0 0 1-3.554 3.554" class="cls-6"/><path d="M65.009 55.927a3.345 3.345 0 1 1 3.346-3.346 3.345 3.345 0 0 1-3.346 3.346" class="cls-7"/><path d="M65.01 55.718a3.136 3.136 0 1 1 3.135-3.137 3.135 3.135 0 0 1-3.135 3.137" class="cls-8"/><path d="M65.009 55.508a2.927 2.927 0 1 1 2.928-2.927 2.926 2.926 0 0 1-2.928 2.927" class="cls-9"/><path d="M65.009 55.3a2.718 2.718 0 1 1 2.718-2.718 2.718 2.718 0 0 1-2.718 2.718" class="cls-10"/><path d="M65.01 55.09a2.509 2.509 0 1 1 2.508-2.508 2.509 2.509 0 0 1-2.508 2.509" class="cls-11"/><path d="M65.009 54.881a2.3 2.3 0 1 1 2.3-2.3 2.299 2.299 0 0 1-2.3 2.3" class="cls-12"/><path d="M65.009 54.672a2.091 2.091 0 1 1 2.092-2.091 2.09 2.09 0 0 1-2.092 2.09" class="cls-13"/><path d="M66.89 52.581a1.881 1.881 0 1 1-1.88-1.881 1.88 1.88 0 0 1 1.882 1.882" class="cls-14"/><path class="cls-15" d="m30.482 132.575 6.396-37.267 27.979.313 5.613 36.17-39.988.784z"/><path class="cls-2" d="m30.482 132.575 6.396-37.267 27.979.313 5.613 36.17-39.988.784z"/><path d="m39.5 104.624 21.258-.405s1.79 13.103-1.511 15.22-17.795 1.445-19.187-1.016-.56-13.8-.56-13.8" class="cls-15"/><path d="m39.5 104.624 21.258-.405s1.79 13.103-1.511 15.22-17.795 1.445-19.187-1.016-.56-13.8-.56-13.8Z" class="cls-2"/><path class="cls-16" d="m52.517 105.121-.336 15.306"/><path class="cls-2" d="m52.517 105.121-.336 15.306"/><path class="cls-16" d="m56.886 104.524-.339 15.307"/><path class="cls-2" d="m56.886 104.524-.339 15.307"/><path class="cls-15" d="m29.761 130.454 41.72.261 3.487 25.476H25.613l4.148-25.737z"/><path class="cls-2" d="m29.761 130.454 41.72.261 3.487 25.476H25.613l4.148-25.737z"/><path class="cls-15" d="m29.932 77.589 5.096 15.826 5.489-1.063-5.067-16.135-5.518 1.372z"/><path class="cls-2" d="m29.932 77.589 5.096 15.826 5.489-1.063-5.067-16.135-5.518 1.372z"/><path class="cls-15" d="m67.019 76.071 5.537 2.942-6.402 13.586-5.453-.779 6.318-15.749z"/><path class="cls-2" d="m67.019 76.071 5.537 2.942-6.402 13.586-5.453-.779 6.318-15.749zM41.327 93.963a1.557 1.557 0 0 0-1.876-1.156l-3.367.8a1.557 1.557 0 0 0 .69 3.036 2.03 2.03 0 1 0 3.922.093 1.989 1.989 0 0 0-.495-.907 1.559 1.559 0 0 0 1.126-1.866Z"/><path d="M41.2 99.185a2.012 2.012 0 1 1-2.012-2.012 2.012 2.012 0 0 1 2.012 2.012" class="cls-17"/><circle cx="39.188" cy="99.185" r="2.012" class="cls-2" transform="rotate(-76.718 39.188 99.185)"/><path class="cls-17" transform="rotate(-13.381 37.6 93.158)" d="M34.484 92.336h6.231v1.645h-6.231z"/><path class="cls-2" transform="rotate(-13.381 37.6 93.158)" d="M34.484 92.336h6.231v1.645h-6.231z"/><path d="M59.519 94.072a1.56 1.56 0 0 1 1.669-1.44l3.45.257a1.556 1.556 0 0 1-.197 3.106 2.035 2.035 0 1 1-3.514-.26 1.555 1.555 0 0 1-1.408-1.663Z" class="cls-2"/><path d="M60.343 99.02a2.012 2.012 0 1 0 2.155-1.858 2.01 2.01 0 0 0-2.155 1.858" class="cls-17"/><path d="M60.343 99.02a2.012 2.012 0 1 0 2.155-1.858 2.01 2.01 0 0 0-2.155 1.858Z" class="cls-2"/><path class="cls-17" transform="rotate(-85.775 63.07 92.685)" d="M62.248 89.57h1.643v6.23h-1.643z"/><path class="cls-2" transform="rotate(-85.775 63.07 92.685)" d="M62.248 89.57h1.643v6.23h-1.643z"/><path style="fill:#e2dddb" d="M28.684 134.226h42.553"/><path class="cls-19" d="M28.684 134.226h.714"/><path style="stroke-dasharray:1.418 1.418;stroke-width:.429px;fill:none;stroke:#231f20;stroke-linecap:round;stroke-linejoin:round" d="M30.817 134.226h38.996"/><path class="cls-19" d="M70.523 134.226h.714"/><path d="M43.54 53.192s1.452 3.112 7.466 2.697a25.725 25.725 0 0 0 11.201-3.941" class="cls-2"/><path d="M32.132 101.52s6.82-1.976 10.37-2.904c4.772-1.245 5.6-8.92 7.677-7.467 2.072 1.452 2.28 2.904 1.243 5.6a14.137 14.137 0 0 1-3.941 4.978 9.155 9.155 0 0 1 4.356 2.49c2.696 2.489-1.245 3.94-1.245 3.94a2.33 2.33 0 0 1-.206 2.697c-1.013 1.621-2.076 1.244-2.076 1.244a2.451 2.451 0 0 1-2.073 3.526c-.842.158-.051 3.402-3.671 1.828-3.167-1.376-9.397-6.805-9.397-6.805l-3.527 1.245s-4.421-8.491-2.45-9.075c3.715-1.099 2.908-.6 4.94-1.297" class="cls-3"/><path d="M32.132 101.52s6.82-1.976 10.37-2.904c4.772-1.245 5.6-8.92 7.677-7.467 2.072 1.452 2.28 2.904 1.243 5.6a14.137 14.137 0 0 1-3.941 4.978 9.155 9.155 0 0 1 4.356 2.49c2.696 2.489-1.245 3.94-1.245 3.94a2.33 2.33 0 0 1-.206 2.697c-1.013 1.621-2.076 1.244-2.076 1.244a2.451 2.451 0 0 1-2.073 3.526c-.842.158-.051 3.402-3.671 1.828-3.167-1.376-9.397-6.805-9.397-6.805l-3.527 1.245s-4.421-8.491-2.45-9.075c3.715-1.099 2.908-.6 4.94-1.297Zm-24.683 5.602s-.415-1.294 4.46-2.134c3.373-.58 14.867-2.586 14.867-2.586m-4.213-57.363 1.876 3.136-.151 2.288m55.724-4.972-1.489 1.904-.236 1.549" class="cls-2"/></svg>